<svg version="1.2" xmlns="http://www.w3.org/2000/svg" viewBox="0 0 302 138" width="302" height="138"><style>.a{opacity:1;fill:#fcb813}.b{opacity:1;fill:none;stroke:#ffc10e;stroke-width:2.9}.c{opacity:1;fill:#783b19}.d{opacity:1;fill:#00afcb}.e{opacity:1;fill:#fff}</style><path class="a" d="m192.4 87c23.6 0 42.8-19.2 42.8-42.7 0-23.6-19.2-42.8-42.8-42.8-23.6 0-42.7 19.2-42.7 42.8 0 23.5 19.1 42.7 42.7 42.7z"/><path fill-rule="evenodd" class="b" d="m192.4 87c-23.6 0-42.7-19.1-42.7-42.7 0-23.7 19.1-42.8 42.7-42.8 23.7 0 42.8 19.1 42.8 42.8 0 23.6-19.1 42.7-42.8 42.7z"/><path class="c" d="m0.8 12.8c0 0 16.7-4.4 20.1 3.6 1.8 4.1 22.7 0 28.9 0 6.2 0 12.6-2.3 20 1.6 7.4 3.8 24.1 6.4 33.4 3.2 9.3-3.2 33.6-4.7 38.9-1.6 5.2 3 21.2 38.7 31.8 44.7 10.6 5.9 30 2 41.6 6.6 19.6 7.9 86.3 6 86.3 6v12.3h-301z"/><path fill-rule="evenodd" class="d" d="m0.8 93.2h301v44.4h-301z"/><path class="c" d="m212 40.8c1-1.1 2-2.2 2.8-3.5q0.4-0.6 0.8-1.2c2.3-3.8 0.7-8.9-3.2-10.9-3.4-1.8-7.6-0.4-9 3.1-0.4 1.2 0.4 2.6 1.8 2.8-1.5-0.9-0.6-2.8 0.4-3.8 2.1-1.9 5.5-2 7.4 0.4 2.1 2.7 1.7 6.5-0.3 9.2q-0.5 0.6-1 1.1-0.6 0.4-1.3 0.7c0.3 0.4 0.4 1 0.5 1.4z"/><path class="c" d="m213.7 29.1c0.2 0.3 0.3 0.8 0.5 1.2 0.2-1.4 1.2-0.6 2.2-0.3-0.2-0.4-0.2-0.7-0.4-0.9-0.7-0.8-1.6-0.4-2.1-0.1 0 0-0.2 0.1-0.2 0.1z"/><path class="c" d="m214.3 30.6c0.1 0.5-0.1 1.2 0.2 1.2 1.3 0 1.2 1.3 1.9 1.8 0.5-1-0.2-2-0.8-2.9-0.2-0.2-1.3-0.1-1.3-0.1z"/><path class="c" d="m214.9 32.8c-0.1-0.1-0.3-0.3-0.4-0.3-1.1 2.6 1.5 2.4 0.9 3.9 0.7-0.7 1-2.1 0.2-2.9 0 0-0.4-0.6-0.7-0.7z"/><path class="c" d="m213.7 35.2c0 0.7-0.5 1.2-1 1.6 0.8-0.3 1 0.8 1.1 1.6 0.6-0.3 0.9-0.9 1-1.5 0-0.6-0.2-1.2-0.9-1.5-0.1-0.2-0.2-0.2-0.2-0.2z"/><path class="c" d="m212.3 37.4c-0.5 0.2-0.8 0.8-1.3 1 0.7 0.5 1.5 0.9 1.2 1.9 0.9-0.7 1.5-2.1 0.3-2.8q-0.1-0.1-0.2-0.1z"/><path class="c" d="m212.9 27.7c0.2 0.3 0.5 0.5 0.6 0.8-0.1-1.2 1-0.9 1.8-0.7-0.4-0.9-1.6-1.5-2.2-0.7 0 0-0.2 0.6-0.2 0.6z"/><path class="c" d="m211.7 26.6c0.2 0.2 0.6 0.1 0.7 0.4-0.4-0.9 0.4-1.2 1.1-1-0.5-0.8-2.1-0.8-2.3 0.2 0 0.1 0.5 0.4 0.5 0.4z"/><path class="c" d="m210.8 26.2c-0.9-0.2-1.9-0.7-1.1-1.4 0.4-0.3 1.2-0.2 1.7 0.1-0.5 0.2-0.7 0.6-0.7 1z"/><path class="c" d="m208.6 25.8c-0.7 0.4-1.8 0.2-1.6-0.8 0.3-0.6 1.2-0.3 1.6-0.5-0.1 0.3-0.7 0.8-0.2 1.2 0.1 0 0.2 0.1 0.2 0.1z"/><path class="c" d="m206.7 26.4c-1.1 0.1-1.1-0.7-0.9-1-0.5 0.3-1.1 0.7-1.1 1.1-0.1 1 1.2 0.7 1.7 0.1 0.1-0.1 0.3-0.2 0.3-0.2z"/><path class="c" d="m204.8 28.3c-0.4-0.1-1 0-1.3-0.4-0.3 0.4-0.1 0.9-0.1 1.3 0.3 0.7 1-0.1 1.3-0.7z"/><path class="c" d="m210.1 39.2l-0.6-0.9-0.6-0.2c0 0-0.6-0.5-0.8-0.7-0.3-0.1-0.7-0.4-0.7-0.4l-0.4-0.4v1.2l0.2 1.2c0 0 0.1 0 0.3 0.3 0.2 0.4 0.6 0.6 0.6 0.6l0.3 0.3"/><path class="c" d="m187.6 58.4l-0.9 1.3-1.5 1.4c0 0-1 1-1.2 1.1-0.1 0.2-0.7 1.4-0.7 1.4 0 0-0.9 0.8-0.9 0.9 0 0.2 0.1 1.4 0.1 1.4l0.2 1.5 0.9 1.9 0.7 0.5 0.4 0.6 0.5 1h-2.1l-0.4-1-1.2-2.3-0.5-1.9-0.6-2 1-2.1 2.2-3.7 2.2-4 3.4 0.7z"/><path fill-rule="evenodd" class="c" d="m198 59l-2.5 0.2-2.6 0.2-3 0.1-1.8-0.1-1.5-0.7-1.1-0.7 1.3-2.1 2.5-0.4 4.9 0.4 2.1 1.2 1.4 0.6z"/><path class="c" d="m200.3 57c0 0 0.1 1 0.2 1.4 0 0.3 0.3 1.8 0.3 2.1 0 0.2 0.2 1.6 0.2 1.7 0 0.2 0.4 1.4 0.4 1.4l0.3 1.1 0.9 1.6 0.2 1.3c0 0 0 1 0 1.2 0 0.3 0 1 0 1.2-0.1 0.2-0.1 0.8-0.1 0.8l0.5 0.3 0.8 0.3 0.8-0.4v-0.9l-0.8-0.7-0.3-1.4-0.2-1.2-0.1-1.1 0.1-0.8-0.3-1.7-0.3-1.7-0.2-1.7-0.3-1.2-1.2-1.1z"/><path class="c" d="m205.1 46.8l2.6-7-1.6 0.8-0.3 1.2-0.1 0.2-0.9 1.1-0.8 1.8-0.8 1.5-1 1-0.8 0.2c0 0-3 0-3.2 0-0.2-0.1-1.5 0.2-1.9 0.2-0.3-0.1-1.5 0.1-2 0.2-0.6 0.1-2.9-0.2-2.9-0.2l-2.8 0.2-2 0.1c0 0-1.3 0-1.4 0-1.5-0.1-1 0-1.8 0.2l-1 1.2 0.9-0.5h1.1l1.7-0.4 1.4-0.1 2.3 0.1c0 0 1.8 0 2-0.1 0.2-0.1 2-0.2 2-0.2h0.9l0.9 0.1 0.7 0.2h1.6l0.6 0.2 1.2-0.3h1.4l1-0.5 1-0.2 0.5-0.1z"/><path class="c" d="m210.8 46.4c-0.4 0.1-0.5 0.4-0.4 0.7 0.9 0.9 0.3 2.4-0.7 2.7 1 0.3 1.2-0.6 1.8-1.3 0.5-0.7 0.2-1.5-0.1-2.3z"/><path class="c" d="m213.3 40.1c-0.3 0-0.5-0.6-0.5-0.6l-0.4-0.5-1.7-0.4-1.1-0.1-1.1 0.1-0.9-0.5-0.7 0.1c0 0-0.7-0.2-0.9-0.3-0.3 0-0.8 0-0.8 0l-0.6-0.2 0.6 1 0.6 1.1c0 0 0.1-0.1 0.5 0.1 0.3 0.2 0.7 0.3 0.7 0.3l0.5 0.1-1.2 0.6c0 0-0.2 1.1-0.4 1.3-1.6 1.4-1.7 4.2-3.5 5.5-1 0.7-2.6 0.3-3.8 0.3 1.8 1.6 2.9 4.3 5.2 4.8 3.7 0.6 2.7-4.8 4.8-6.9 0.3-0.1 0.9 0.1 1.1 0.2 1.6 1.3 3.9 2.8 5.1 1.2 1-1.1-0.2-2.8-0.8-4.3l-0.2-0.8v-1.2z"/><path fill-rule="evenodd" class="c" d="m214.4 46.7l0.4 0.6 0.4-0.7-0.5-0.1-0.3-0.2-0.3-0.2z"/><path fill-rule="evenodd" class="c" d="m210.6 42.2h0.6l0.4 0.2h0.1l0.3-0.1-0.2-0.4-0.1-0.2-0.4-0.1-0.6-0.2h-0.4-0.5z"/><path fill-rule="evenodd" class="c" d="m210.6 42.1h0.7l0.4 0.2 0.3-0.1-0.1-0.4-0.2-0.2-0.4-0.1-0.6-0.2h-0.4-0.5z"/><path class="c" d="m210.7 41.8c0 0.2 0.2 0.3 0.5 0.3 0.2 0 0.5-0.1 0.5-0.3 0-0.2-0.2-0.3-0.5-0.3-0.3 0-0.5 0.1-0.5 0.3z"/><path fill-rule="evenodd" class="c" d="m212 47.6l0.5 0.2-0.4-0.3-0.7-1.4-0.2-0.6z"/><path class="c" d="m200.6 48c-1.1 0-2.2-0.4-3.3-0.2-0.3 0-0.6 0-0.6 0 0 0-2.2 0.4-2.4 0.4-0.2 0-4.2-0.1-4.4 0-0.1 0-3.2 0.2-3.2 0.2h-3l-2.2 1.5-1.1 0.9-0.5 0.8v2.5l-0.1 1.6c0 0 0.3 0.9 0.4 1.3 0.1 0.4 1 1.8 1 1.8 0 0-0.1 1.2-0.2 1.4-0.1 0.2-1.4 1.5-1.4 1.5l-0.4 1.4-0.4 0.6 1.2-0.2 0.2 1.2 0.2 0.6 1.7-2 1.7-1.6 0.3-1.7 1.3-0.8 0.7-0.8 0.7-1 0.5-1.1 1.8 0.6 0.1 0.5 1.4 0.4h0.7l1.5-0.4 0.6 0.9c0 0 0.5 0.1 1.1 0.3 0.5 0.1 1 0.2 1 0.2 1.8 0.7 2.8-0.1 3.1-1.9 0.4 1.3-0.2 3.4 0.9 3.7 1.7 0.4 3.3-1.9 3.9-3.8 0.5-1.5 1.1-2.9 2-4.1q0.3-0.4 0.6-0.8"/><path class="c" d="m181.7 71.2l-0.2-0.4-0.6-0.4-0.5-0.8v-1.8l-0.2-1.6 0.5-1.2 1.1-1.6 0.7-2.1-1.5-1.1-1 1.5-1.4 1.1-0.3 0.5 0.5 0.4c0 0 0 0.3 0 0.7-0.1 0.3-0.2 1.4-0.2 1.5 0 0.2-0.1 0.8-0.1 1 0 0.2-0.1 0.8-0.1 1 0 0.2-0.1 0.9-0.1 0.9l0.1 1 0.9 0.6 0.1 0.4v0.6l1.5 0.6h0.6l0.3-0.4z"/><path class="c" d="m179.8 69.4l-0.2-0.8 0.5-1.8 0.1-1 0.6-1.1 1-1.4 1.6-1.9-1.3-5.2v3.4l-1.9 2.1-0.4 0.5-0.6 1c0 0 0.8-0.3 0.7 0.1-0.2 0.3-0.5 1.3-0.5 1.5"/><path class="c" d="m197.9 55.8c0 0 0.1 1 0.1 1.4 0 0.4 0.1 2.1 0.1 2.4 0 0.3 0 1.8 0 1.9 0 0.2 0.3 1.6 0.3 1.6l0.5 1 0.8 2.1-0.2 1.5c0 0-0.1 1-0.1 1.3-0.1 0.3-0.2 1.1-0.2 1.3-0.1 0.2-0.3 0.9-0.3 0.9l0.7 0.4 0.8 0.4 1.1-0.4 0.1-0.9-0.8-0.9-0.2-1.6-0.1-1.3 0.1-1.2 0.1-0.9-0.1-1.9v-1.9l-0.1-1.9-0.2-1.3-1.2-1.4z"/><path class="c" d="m199.9 61.6l0.6-2.3-0.1-1.8-0.2-1.4-1.2-1.4-1.2-0.6c0 0 0.1 1 0.1 1.4 0 0.4-0.7 2.3-0.8 2.5-0.1 0.8 1.6 1.2 1.6 1.4 0 0.2 1.5 6.1 1.5 6.1"/><path class="c" d="m182.6 49.3l-1 0.6h-0.7c0 0-0.2 0-0.4-0.1q-0.4 0-0.8 0-0.2 0-0.4 0c-0.6-0.2-1.3-0.6-1.6-1.2 0.4 0.6-0.1 1.7 1 2q0.2 0 0.4 0c0.4 0.1 0.6 0.2 0.7 0.7v0.6l1.3-1.2 0.7-0.6z"/><path class="c" d="m212.3 40.4q0.1-0.8 0.3-1.5 0.1-0.8 0.3-1.5c0.7-3.1 0.5-6.6-2.3-8.7-2.2-1.8-5-2-7.4-0.9-2.3 1.1-4.2 3.3-4.2 6 0.1 1.4 1.5 2.6 3 2.2-0.5-0.2-1.5-0.3-1.6-1-0.3-2.9 1.6-5.4 4.3-5.9 2.4-0.5 4.6 0.8 5.8 2.8 1.3 2.4 1.2 5.5-0.5 7.6 0.4 0.3 0.7 0.6 1 0.9z"/><path class="c" d="m208.8 30.1c0.4 0.2 0.6 0.3 0.9 0.6-0.5-1 0.7-1.2 1.5-1.4-0.4-0.6-0.9-0.7-1.3-0.5-0.5 0.1-0.9 0.6-1 1.1 0 0.1-0.1 0.2-0.1 0.2z"/><path class="c" d="m210 31.1c0.1 0.5 0.4 0.8 0.7 1.1 0.4-1.1 1.5-0.3 2.2 0.2-0.1-1-0.9-1.9-1.9-2-0.3 0-1 0.7-1 0.7z"/><path class="c" d="m211.3 32.6c-0.1 0-0.5-0.1-0.5 0.1 0.1 0.5 0.4 1 0.5 1.4 0.9-0.4 1.7 0.4 1.9 1.2 0-1 0.1-2.2-1-2.6 0 0-0.6-0.2-0.9-0.1z"/><path class="c" d="m211.4 35.2c0.2 0.6-0.1 1.2-0.2 1.7 0.5-0.2 1.4 0 1.6 0.7 0.2-0.5 0.3-1 0.4-1.4-0.2-0.9-0.9-1.1-1.6-1-0.2-0.1-0.2 0-0.2 0z"/><path class="c" d="m211.1 37.6c-0.2 0.5-0.7 0.9-0.7 1.5 0.7 0 1.6-0.1 1.8 0.7 0.3-0.4 0.4-1 0.3-1.5-0.2-0.4-0.6-0.8-1.2-0.7q-0.2 0-0.2 0z"/><path class="c" d="m207.5 29.4c0.3-0.1 0.5 0 0.8 0.2-0.8-0.9 0.3-1.3 0.9-1.7-0.8-0.6-1.8-0.4-1.9 0.7 0 0.1 0.2 0.8 0.2 0.8z"/><path class="c" d="m205.9 29c0.3 0.1 0.6 0.1 0.9 0.1-1-0.3-0.4-1.4 0.2-1.8-0.5-0.1-1 0.1-1.3 0.4-0.3 0.4-0.5 0.8-0.2 1.3 0 0 0.4 0 0.4 0z"/><path class="c" d="m204.9 29c-0.5 0.2-1.2 0.5-1.6 0-0.7-0.8 0.6-1.7 1.4-1.6-0.3 0.4-0.3 1 0 1.4z"/><path class="c" d="m202.8 29.8c-0.4 0.8-2 1.1-1.8-0.2 0.2-0.4 0.6-0.7 1-1-0.1 0.6 0.1 1 0.6 1.2 0.1 0 0.2 0 0.2 0z"/><path class="c" d="m201.4 31.5c-0.6 0.2-1.3 0.1-1.5-0.7-0.3 0.6-0.9 1.8 0.2 1.9 0.7 0 0.9-0.6 1.1-1 0.1-0.1 0.2-0.2 0.2-0.2z"/><path class="c" d="m200.4 33.7c-0.4-0.1-0.9 0.4-1.4 0.1 0.1 0.5 0.2 1.3 0.6 1.3 0.6 0 0.9-0.4 0.8-1.2z"/><path fill-rule="evenodd" class="c" d="m200.9 71.1l-1.1 0.2-0.9-0.1 0.2 0.7 0.8 0.5 1.2-0.1-0.1-0.5 0.5 0.5 0.4-0.3-0.3-1.3z"/><path fill-rule="evenodd" class="c" d="m204.3 70.6l-0.9 0.2-0.7-0.1v0.7l0.8 0.4 1 0.1-0.2-0.7 0.4 0.7 0.4-0.4-0.3-1.4z"/><path fill-rule="evenodd" class="c" d="m180.6 71l-0.8 0.3-0.1 0.6 0.2 0.7h0.8l0.6-0.1 0.1-0.4 0.4 0.4 0.5-0.1-0.3-0.7-0.4-0.7-0.4-0.1z"/><path fill-rule="evenodd" class="c" d="m184 71l-0.9 0.3v0.6l0.1 0.4 0.8 0.3 0.6-0.1 0.1-0.5 0.4 0.4 0.4-0.1-0.2-0.6-0.4-0.7-0.4-0.2z"/><path class="c" d="m207.1 40.7c0 0-0.6 1.7-0.6 2.3 0 0.7-0.6 2.9-0.9 4.1-0.3 1.1-1.3 3.3-1.7 3.8-0.4 0.4-1.4 5.1-1.4 5.1l-0.8-5.6c0 0-2.2-1.4-2.4-0.9-0.3 0.5-3.8 2.6-3.8 2.6 0 0-2.4 1.2-2.9 1.3-0.5 0.1-3.7 0.1-3.7 0.1l2-1.3 3.2-1.5 3.2-1.3 2-1h2.2l1.2 0.1 2.1-2.4-0.2-1.6z"/><path class="c" d="m208 40c0 0-0.2 0.1-0.3 0.1-0.1 0-0.3 0-0.3 0-0.1 0-0.6-0.1-0.6-0.1-0.1 0-0.9-0.4-0.9-0.4v0.1l-0.2-0.5-0.4-0.6-0.4-0.5-0.1-0.2c0 0 0.6 0.3 0.7 0.3 0.1 0.1 1 0.4 1 0.4l0.7 0.3 0.5 0.5 0.3 0.2v0.3z"/><path fill-rule="evenodd" class="c" d="m208.1 39.9l-1.2-1-0.9-0.3-1.3-0.8 2 0.7 1.1 0.4 0.5 0.6z"/><path fill-rule="evenodd" class="c" d="m213.7 41.2l-0.2 0.4-1-1 0.4 2.5 1.3 1.4 0.8 1.4-0.9-2.1-0.6-1.3z"/><path fill-rule="evenodd" class="c" d="m212.5 41.1l-0.3-0.1-0.2-0.4-2.9-0.8 3.4 2.4-1 0.5 1 0.4 2.4 2.7-1.2-2.1-0.5-0.6v-1.1l-0.4-1.2z"/><g style="opacity:1"><path class="c" d="m213.7 40.9c0 0.1-0.2 0.8-0.2 0.8l-0.2 0.7 0.5 1 0.5 1.1 0.6 1.3-0.8-2.4-0.2-0.6-0.1-1.2z"/><path class="e" d="m263.4 107.5h-19.2v5h2.7l-1.8 15.9h5.6l1.6-16h5.5v9.9q0 1.2-1.1 1.2h-2.8v4.9h4q5.5 0 5.5-6c0 0 0-14.9 0-14.9zm-21.9 0h-11.1v5h5.5v5.2q0 1.7-0.5 2.6-0.4 0.6-2 1.7-1.3 0.8-3.3 1.7l-0.5 0.2v5h0.3q2.7-0.8 4-2 1.2-1 1.8-2.5l0.3-0.9q0.2-0.3 0.2 0l0.3 4.9h5c0 0 0-20.9 0-20.9zm-14.3 0h-8v4.6h2.4v8h5.6zm-10.6 0h-10.6v-5.8h-5.5v10.8h10.5v2.9q0 2.3-0.6 3.8-0.5 1.3-2.1 3.4l-3.9 5v0.8h5.8l3.1-3.8q1.9-2.5 2.6-4.4 0.7-1.9 0.7-4.9zm-18.9 0h-7.7v5h2.1v15.9h5.6zm-10.4 0h-16.8v14.9q0 1.1-0.9 1.1h-1.9v4.9h3.6q4.8 0 4.8-5.2v-10.7h5.6v15.9h5.6zm-28.6 0h-8v4.6h2.4v8h5.6zm-10.7 0h-18v20.9h18zm-12.5 5h7v11h-7zm-16.4-5h-17.6v5h12.1v15.9h5.5zm-11.4 8.9h-5.6v12h5.6zm-9.2-8.9h-19.2v5h2.7l-1.8 15.9h5.7l1.5-16h5.5v9.9q0 1.2-1.1 1.2h-2.8v4.9h4.1q5.4 0 5.4-6zm-21.8 0h-10.6v-5.9h-5.6v10.9h10.6v2.9q0 2.3-0.6 3.8-0.5 1.3-2.1 3.4l-3.9 5v0.8h5.8l3-3.8q2-2.5 2.7-4.4 0.7-1.9 0.7-4.9zm-18.9 0h-18v20.9h5.6v-15.9h6.8v15.9h5.6z"/><path class="e" d="m157.4 69.1h-10.1v2h1.7l-1.3 9.8h2l1.1-9.9h4.6v6.2q0 1.9-1.8 1.9h-1.6v1.8h1.8q3.6 0 3.6-3.8zm-12.6 0h-3.7v1.9h1.7v9.9h2zm-6 0h-2.1v7.6q0 1.2-0.5 1.8-0.5 0.5-1.7 0.5h-0.8l-1.8-9.9h-2l1.9 9.9h-2.7v1.9h5.4q2.3 0 3.4-1.5 0.9-1.2 0.9-3.1c0 0 0-7.2 0-7.2zm-11.7 0h-2.1v2.7q0 1.7-1.2 2.9l-3.7-5.6h-2.2v0.2l4.8 7.4q1.1 1.6 2 2.3h-6.4v1.9h8.3v-0.9q0-1-0.9-2.3l-1.1-1.7 0.6-0.5q1-1.1 1.5-2 0.4-1 0.4-2.3c0 0 0-2.1 0-2.1zm-11.4 0h-9.3v1.9h7.3v9.9h2zm-6.9 4.8h-2v7h2zm-9 6.9l-2.8-4 0.5-0.4q1.7-1.6 1.7-4v-3.3h-2.1v4.2q0 1.3-0.9 2.2l-4.6-6.4h-2.2v0.1l2.6 3.6-0.3 0.2q-1.1 1-1.5 1.9-0.5 0.9-0.5 2.1v3.9h2v-4.4q0-1.4 1.3-2.5l4.6 6.9h2.2zm-12.7-11.7h-3.7v1.9h1.7v4.7h2zm-5.3 0h-5.8v2h2.7l-0.4 0.5q-1 1.6-1 3.7 0 0.6 0.1 1.4l0.5 4.2h2.1l-0.6-5q-0.1-0.5-0.1-1.1 0-2 0.7-3.2 0.2-0.5 0.4-0.5h1.4c0 0 0-2 0-2zm-8.2 0h-3.7v2h1.7v9.8h2c0 0 0-11.8 0-11.8zm-6 3.6q0-3.6-3.2-3.6h-5.1v2h5.2q1.1 0 1.1 1.2v8.6h2c0 0 0-8.2 0-8.2zm-10.7-3.6h-3.7v2h1.7v4.7h2zm-6 0h-9.1v9q0 0.9-1 0.9h-1v1.9h1.3q1.3 0 2-0.9 0.7-0.7 0.7-2v-7h5.1v9.9h2c0 0 0-11.8 0-11.8z"/></g></svg>