<svg version="1.2" xmlns="http://www.w3.org/2000/svg" viewBox="0 0 391 412" width="391" height="412"><defs><linearGradient id="P" gradientUnits="userSpaceOnUse"/><linearGradient id="g1" x2="1" href="#P" gradientTransform="matrix(10.476,66.847,-85.503,13.4,198.012,189.182)"><stop stop-color="#7fcae0"/><stop offset="1" stop-color="#7f635e"/></linearGradient><linearGradient id="g2" x2="1" href="#P" gradientTransform="matrix(221.372,0,0,87.956,83.446,168.871)"><stop stop-color="#358bcb"/><stop offset=".05" stop-color="#5796d1"/><stop offset=".16" stop-color="#90b4df"/><stop offset=".26" stop-color="#bdd0ec"/><stop offset=".36" stop-color="#dfe7f5"/><stop offset=".43" stop-color="#f4f6fc"/><stop offset=".48" stop-color="#fff"/><stop offset=".54" stop-color="#e7e5f1"/><stop offset=".65" stop-color="#b6b2d5"/><stop offset=".81" stop-color="#7672af"/><stop offset="1" stop-color="#2d348d"/></linearGradient><linearGradient id="g3" x2="1" href="#P" gradientTransform="matrix(36.916,0,0,36.916,237.953,173.623)"><stop stop-color="#2b368a"/><stop offset=".47" stop-color="#304fa2"/><stop offset="1" stop-color="#2a3074"/></linearGradient><linearGradient id="g4" x2="1" href="#P" gradientTransform="matrix(-22.925,-19.775,25.545,-29.615,261.343,179.237)"><stop stop-color="#2b368a"/><stop offset=".47" stop-color="#304fa2"/><stop offset="1" stop-color="#2a3074"/></linearGradient></defs><style>.a{fill:url(#g1)}.b{fill:#1e3f36}.c{fill:#b0e0e5}.d{fill:#231f20}.e{fill:#57aed5}.f{fill:#263d90}.g{fill:#0b76bc}.h{fill:url(#g2);stroke:#76a298;stroke-miterlimit:10;stroke-width:3}.i{fill:#49251f;stroke:#2e1828;stroke-miterlimit:10;stroke-width:1}.j{fill:#0c2d25}.k{fill:#9f9f36}.l{fill:#979ac1}.m{fill:none;stroke:#543e8c;stroke-miterlimit:10;stroke-width:2}.n{fill:none;stroke:#263a76;stroke-miterlimit:10;stroke-width:5}.o{fill:none;stroke:#263a76;stroke-miterlimit:10;stroke-width:3}.p{fill:none;stroke:#262b62;stroke-miterlimit:10;stroke-width:3}.q{fill:none;stroke:#2a2a52;stroke-miterlimit:10;stroke-width:3}.r{fill:url(#g3)}.s{fill:url(#g4)}.t{fill:#a29a3d}.u{fill:#b87030}.v{fill:#9f9d36}.w{fill:none;stroke:#0c2d25;stroke-miterlimit:10;stroke-width:3}.x{fill:#4875ba;stroke:#264370;stroke-miterlimit:10;stroke-width:1}.y{fill:#175a32}</style><g style="opacity:1"><path class="a" d="m65.4 96.2c0 0 0 194.2 0 210.1 0 15.8 7.7 25.7 7.7 25.7l257.7-56.8 4.6-176.4z"/><path class="b" d="m330.3 273.5l-257.2 58.5c0 0 9.5 18.3 40.5 27 30.9 8.8 52.6 11.8 61.8 20.5 9.3 8.7 19.2 28.8 19.2 28.8 0 0 3.5-10.9 20.2-28.8 16.7-18 75.7-17.1 96.8-38.4 26.2-26.5 18.7-67.6 18.7-67.6z"/><path fill-rule="evenodd" class="c" d="m21.4 13.7c0 0 11-10.2 27.4-9.4 16.5 0.8 39.1 1.9 67.6 15.6 28.5 13.7 42.2 32.3 66.2 32.3 23.9 0 55.9-11.9 68.6-17 12.7-5.1 58.1-19.9 77.2-19.9 19.1 0 22.1 5.7 26.4 8.1 4.3 2.4 5.9 5.1 5.9 5.1l3.8 92c0 0-7.5-10.7-13.5-13.1-5.9-2.5-15.8-5.7-25.5-5.7-9.7 0-43.3 7-73.7 16.1-30.5 9.2-48.2 12.4-74.9 12.4-26.6 0-58.1-8.1-80.4-16.7-22.4-8.6-42-13.1-47.1-13.1-5.1 0-15.9 2.1-15.9 2.1 0 0 0.3-8.3-0.3-34.7-0.5-26.4-11.8-54.1-11.8-54.1z"/><path fill-rule="evenodd" class="d" d="m173.8 78.2v-11c0-3.5-3-6.3-6.5-6.3h-11.1v2.5h3.3v10.8c0 1.3-0.6 1.7-2.1 1.7-0.2 0-0.4 0-1.6-0.2v2.3c1.3 0.4 2 0.5 2.6 0.5 2.1 0 4.3-1 4.3-3.8v-11.3h3.8c2.5 0 4.1 1.5 4.1 4.1v10.7z"/><path fill-rule="evenodd" class="d" d="m181.3 70.3v-9.4h-3.2v10.5z"/><path fill-rule="evenodd" class="d" d="m188.8 70.3v-9.4h-3.2v10.5z"/><path fill-rule="evenodd" class="d" d="m203.4 78.2v-11.3c0-3.9-3.4-6.3-7-6.3-1.9 0-2.9 0.1-4.6 0.4v2.5c2-0.4 3-0.4 4.2-0.4 2 0 4.2 1.4 4.2 3.8v11.3c1.4 0 1.8 0 3.2 0z"/><path fill-rule="evenodd" class="d" d="m210.8 70.3v-9.4h-3.1v10.5z"/><path fill-rule="evenodd" class="d" d="m228.4 66.5v-5.5l-3.1-0.1v6.3c0 2.8-0.7 6.2-3.9 7.7-1-3.8-3-10.7-3.9-14h-3.9c1.2 2.9 2.5 6.7 5.1 15.2l-4.1 1.6v2.8c2-0.8 3.8-1.5 5.5-2.2 1.6-0.7 3.1-1.3 4.3-2.2 2.5-1.9 4-4.6 4-9.6z"/><path fill-rule="evenodd" class="e" d="m33 99.2c0 0 5.8-2.9 16.8-2.9 10.9 0 35.4 7.2 50.9 13.3 15.4 6 36.9 15.6 64.9 15.6 28 0 78.8-10.7 91.4-14.8 12.7-4 42.9-13.8 63.9-13.8 21.1 0 30.5 6.1 35.4 10.4 4.9 4.3 8.6 9.8 8.6 9.8l-0.5 9.8c0 0-7.7-18.2-25.3-18.2-17.6 0-48.2 3.5-76.9 11.3-28.7 7.8-80.3 16-106 16-25.7 0-53.1-16.6-74-22.9-20.9-6.4-27.3-8.7-35.6-8.7-8.4 0-13.9 7.2-13.9 7.2z"/><path fill-rule="evenodd" class="e" d="m22.8 19.1c0 0-5.2-1.6-5.2-3.8 0-2.1 0.8-4.8 0.8-4.8 0 0 4.6-10.5 31.5-10.5 26.9 0 54.7 10.2 70.8 18.6 16.1 8.3 38.2 28.2 67.3 28.2 29 0 63.8-17.8 85.3-23.4 21.5-5.7 34.1-11.8 58.9-11.8 24.8 0 28.3 7 29.6 8.3 1.4 1.3 5.7 5.9 5.7 5.9 0 0-0.6 4.9-2.2 4.9-1.6 0-4-1.9-5.6-3-1.7-1.1-13.8-7.8-27-7.8-13.1 0-33 1.3-71.3 15.6-38.2 14.3-58.9 19.9-74.8 19.9-15.8 0-34.1-6.7-64.6-27.2-30.4-20.4-57.8-19.6-74-19.6-16.1 0-18.5 4.3-21.2 6.5-2.7 2.1-4 4-4 4z"/><path fill-rule="evenodd" class="f" d="m32.1 110.7c1.7-3.5 6.8-6.8 14.4-6.8 7.6 0 16.4 2.9 22.4 4.9 6 2.1 9 2.1 9 2.1l8.9 53c0 0-10.2-8.3-22.9-8.3-12.7 0-17.6 3.7-20.6 5.1-3 1.4-5.4 3.2-10.1 3.2-4.8 0-9-4.9-9-14.6 0-9.7-0.8-12.3 2.5-23.2 3.3-10.9 3.6-11.9 5.4-15.4z"/><path fill-rule="evenodd" class="g" d="m42.1 161.1c0 0 7.3-6.2 21.7-6.2 14.3 0 25.1 8.2 25.1 14.6 0 6.3-8.5 16.4-23.9 16.4-11.1 0-16-6.6-20.6-6.6-4.6 0-7.7 1.8-7.7 1.8z"/><path fill-rule="evenodd" class="f" d="m51.8 181.5c0 0-4.6-2.3-7.2-2.3-2.7 0-10 0.4-10 5.8 0 5.4-0.5 9 7.3 15.3 7.7 6.4 15.6 9.5 15.6 9.5z"/><path fill-rule="evenodd" class="g" d="m35.2 191.7c0 0-2.4-1.7-8.5-4-6.1-2.2-6.7-2.2-10.4-2.2-3.6 0-11.4 3.4-11.4 3.4 0 0 2.2-0.5 8.2 2 6.1 2.5 8.1 3.6 8.1 3.6 0 0-6.8 1.2-14.1 6.9-7.3 5.7-7.1 12.2-7.1 12.2 0 0 1.3-8.1 12.5-7.5 11.2 0.6 12 4.8 24.3 6.5 12.4 1.7 19.7 0.8 19.7 0.8l1.2-3.5c0 0-11.4-5.7-16.4-10.1-5.1-4.5-6.1-8.1-6.1-8.1z"/><path fill-rule="evenodd" class="f" d="m305 125.2c0 0 8.1-6.7 20-3.1 11.9 3.7 19.4 8.2 22.4 10.5 3.1 2.3 8.7 9.1 11.3 9.1 2.6 0 7.7-4 7.7-9.1 0-5-2.6-12.3-8.9-17.1-6.2-4.8-13.6-9.7-31.1-7.5-17.5 2.2-18.5 2.5-18.5 2.5z"/><path fill-rule="evenodd" class="g" d="m353.9 158.5l-1.8-22.4c0 0-6.3-7.9-20.1-12.1-13.7-4.3-15.5-4.9-22.9-1.7-7.5 3.3-5.9 8.1-5.9 9.3 0 1.2 0 9.7 8.5 16.4 8.5 6.6 13.7 8.3 19.5 8.3 5.9 0 5.6-3.5 12.5-3.5 7 0 10.2 5.7 10.2 5.7z"/><path fill-rule="evenodd" class="f" d="m334.7 187.4l0.9-33.3c0 0 6.1-1.7 8.1-1.7 2.1 0 13 1.6 13 17.6 0 16-7.4 17.6-12.7 18-5.3 0.4-9.3-0.6-9.3-0.6z"/><path fill-rule="evenodd" class="g" d="m390.2 211.7c0 0-8.9-11-17.8-11-8.8 0-14.1 2-20.3 2-6.3 0-18.2-5.5-18.2-9.9 0-4.4-0.4-4.2 0.2-5.2 0.6-1 3.3 0.2 7.4 0.2 4.1 0 9.4-1.8 11.4-4.5 2-2.6 3.6-7.7 3.6-7.7 0 0 4.6 0.5 14.1 4.7 9.5 4.2 15.9 11.3 15.9 11.3 0 0-6-4-11.5-4.4-5.4-0.4-5.8 1-5.8 1 0 0 6.6 3 12.5 9.2 5.8 6.3 8.5 14.3 8.5 14.3z"/><path fill-rule="evenodd" class="d" d="m333.8 79.4c0 0-1.6-1.1-4-1.1-2.3 0-6.3 3.4-6.3 6.6 0 3.2 3.2 6.2 4.8 7 1.7 0.8 4.5 1.8 4.5 1.8 0 0-2.1 3.8-7.5 3.8-5.3 0-11.1-5.1-11.1-11.3 0-6.1 10-11.6 10-11.6 0 0 0.6-2 2.5-5.7 1.8-3.6 4.6-5.9 7-4.6 2.3 1.3 2.4 4.3 1.6 6.8-0.8 2.5-1.3 4-1.3 5 0 1-0.2 3.3-0.2 3.3z"/><path fill-rule="evenodd" class="d" d="m308.5 88.9c0 0.7-2.5 2.2-8.3 4.8-5.8 2.7-9.1 4.5-10.4 4.5-1.4 0-5-0.5-5-2.5 0-2 0.8-4.6 6.1-7.5 5.3-2.8 5.2-3.5 5.8-5.1 0.7-1.7 1.5-3 0.2-3-1.3 0-4 1.8-5.5 2.5-1.5 0.6-3.8 2.6-5 2.6-1.1 0-2.5-1.1-2.5-3.8 0-2.6 10.7-7.8 14.5-7.8 3.8 0 8.5 3 8.5 6 0 3-6.8 8.1-6.8 8.1 0 0 2-0.5 4.3-0.5 2.3 0 4.1 0.9 4.1 1.7z"/><path fill-rule="evenodd" class="d" d="m276.4 99.4c0 9-6.1 12.6-8.4 12.6-2.4 0-9.2-2.6-9.2-12.3 0-7 2.6-10.1 2.6-10.1 0 0-0.4-0.5-1.9-0.5-1.5 0-5 1.8-5 1.8 0 0 1.3-5 4.5-5.5 3.1-0.5 3.8-0.1 3.8-0.1 0 0 1.3-6 2.7-7.7 3.3-4 7.1-8.7 8.1-8.7 1 0 2.8 1.2 3.7 1.9 0.8 0.6 1.5 3.1 1.5 3.1 0 0-4 2.7-5.8 6.2-1.9 3.5-3 7.3-3 7.3 0 0 6.4 3 6.4 12zm-5.7-1.8c0-2.7-3.6-5.9-3.6-5.9 0 0-1.2 2.9-1.2 7.6 0 4.7 1.3 6.8 1.9 6.8 1.5 0 2.9-5.7 2.9-8.5z"/><path fill-rule="evenodd" class="d" d="m216.1 118.1c0.2-0.9 7-2.8 10.1-7.5 3.1-4.6 6-10.1 6-13.2 0-3.1 0-4.2 0-4.2 0 0-1.3-0.2-2.2-0.6-1-0.3-2.3-1.6-2.3-1.6 0 0 2.8-3.1 5.7-3.9 2.9-0.8 6.6-1.7 6.6-1.7 0 0 3.8 4.7 6.8 8.9 3 4.1 5.3 11.4 4.2 12.1-1.2 0.8-2.5 1.3-4.4-1-1.8-2.3-8.2-7.3-8.2-7.3 0 0-0.7 8.9-6.1 14.7-5.4 5.8-8.9 7.6-12.3 7.6-3.3 0-4.1-1.2-3.9-2.3z"/><path fill-rule="evenodd" class="d" d="m182.5 106.4c0 0-0.3 1-0.3 2.3 0 1.2 0.5 1.9 2.5 1.9 2 0 5.9-4.5 8.1-4.5 2.2 0 4.2 1.6 4.2 3.4 0 1.8-4.5 6.9-11.3 6.9-6.3 0-9.7-4.5-10.3-9.4-0.8-0.1-1.6-0.5-1.6-1.1 0-0.7 0.2-1.9 0.8-1.8 0.2 0 0.5 0 0.8 0 0.4-4.6 2.4-7.7 4.6-9.9 2.4-2.4 6.6-6 11.3-6 4.7 0 8.8 4.1 8.8 7.4 0 3.2-3.4 6-7.8 8.1-4.4 2.1-9.8 2.7-9.8 2.7zm0.9-4.4c0 0 3.3-1 5.1-2.7 1.8-1.8 3.1-3.4 3.1-4.7 0-1.2-0.3-1.8-1.2-1.8-0.9 0-2.4 1.4-3.5 2.5-1.1 1.1-2.3 3.5-2.7 4.3-0.3 0.9-0.8 2.4-0.8 2.4z"/><path fill-rule="evenodd" class="d" d="m157.4 102.7c0 0 1.3-4.3 3-6.5 1.6-2.1 3.5-5.5 6.6-5.5 3.2 0 3.7 2.5 3.7 3.7 0 1.2-3.3 8.8-5.5 11.5-2.2 2.6-6.5 7.4-8.1 7.4-1.7 0-1.9-2.9-2.5-4.6-0.7-1.7-2.5-5.8-2.5-5.8 0 0-3.6 0.7-5.7 2.8-2.1 2.1-4.3 6.8-6.3 6.8-2 0-2.5-1.8-2.5-2.8 0-1 2-5.3 3.8-6.8 1.9-1.5 5.3-5.9 8.5-5.9 3.2 0 4.8 1.9 5.5 2.9 0.7 1 2 2.8 2 2.8z"/><path fill-rule="evenodd" class="d" d="m123.5 108c0 0-1.2-3.8 1.5-12.5 2.6-8.6 4.6-10.9 7.3-10.9 2.6 0 4.6 3.3 4.6 5.3 0 2-3.3 7-6.5 11-3.1 4-6.9 7.1-6.9 7.1z"/><path fill-rule="evenodd" class="d" d="m111.8 103.7c0 0-1.5 0.5-2.5 0.5-1 0-9.1-3.3-9.1-8 0-4.6 0.8-6.3 0.8-6.3 0 0-5.5 2.2-7 3.2-1.5 1-5.3 3.8-6.8 3.8-1.5 0-2.6-1.2-2.6-2.7 0-1.5 2.1-6 3.8-7 1.6-1 6.3-3.6 8.6-6.3 2.4-2.6 5.8-6.6 9.7-6.6 3.8 0 4.5 2.6 4.5 4.1 0 1.5-1.2 4-2.5 5.3-1.4 1.4-2.4 2-2.4 2 0 0 3-1.1 6.9-1.1 3.8 0 7.3 3.1 6.8 4.8-0.5 1.7-2.9 1.5-6 2.7-3.2 1.1-7.3 3.1-7.3 4.6 0 1.5 1.8 1.7 3 2.3 1.1 0.7 3 3.5 2.1 4.7z"/><path fill-rule="evenodd" class="d" d="m107.8 66.8c0 0-1.6-6.2-6.5-6.2-4.8 0-14.3 2.5-23.2 9.7-9 7.1-13.5 10.8-13.5 12.9 0 2.2 1 7.2 4 7.2 3 0 5.5-3.2 10.1-10.5 4.7-7.3 14.5-14.9 20.5-14.9 6 0 8.6 1.8 8.6 1.8z"/><path fill-rule="evenodd" class="h" d="m83.4 212.8v-21h14.5v6.2h19.5v-14.8h7.6v-6.3h5.9v-6.9h10.2v6.3h13.2v-32.3h21.1v42.2h8.8v-34.6h4v-26.7h9.6l8.2 4.9v12.2h4.3v38.2h5.6v-34.2h10.5v3.9h9.2v32.6h4.3v-11.5h45.2v4.3h4.6v3.6h15.1v33.9z"/><path fill-rule="evenodd" class="d" d="m158.8 148.3h3v4.2h-3z"/><path fill-rule="evenodd" class="d" d="m192.7 130.2h3v4.2h-3z"/><path fill-rule="evenodd" class="d" d="m218 152.6h2.9v4.2h-2.9z"/><path fill-rule="evenodd" class="d" d="m218 159.4h2.9v4.2h-2.9z"/><path fill-rule="evenodd" class="d" d="m218 165.6h2.9v4.1h-2.9z"/><path fill-rule="evenodd" class="d" d="m192.7 137.1h3v4.1h-3z"/><path fill-rule="evenodd" class="d" d="m192.7 143.4h3v4.2h-3z"/><path fill-rule="evenodd" class="d" d="m192.7 149.3h3v4.2h-3z"/><path fill-rule="evenodd" class="d" d="m192.7 156.4h3v4.2h-3z"/><path fill-rule="evenodd" class="d" d="m192.7 162.5h3v4.2h-3z"/><path fill-rule="evenodd" class="d" d="m192.7 168.5h3v4.2h-3z"/><path fill-rule="evenodd" class="d" d="m192.7 175.1h3v4.2h-3z"/><path fill-rule="evenodd" class="d" d="m192.7 181.1h3v4.2h-3z"/><path fill-rule="evenodd" class="d" d="m148.1 187.6h3v4.1h-3z"/><path fill-rule="evenodd" class="d" d="m139.4 187.6h3v4.1h-3z"/><path fill-rule="evenodd" class="d" d="m132.2 172.4h3v4.1h-3z"/><path fill-rule="evenodd" class="d" d="m128.2 179.8h3v4.1h-3z"/><path fill-rule="evenodd" class="d" d="m122.6 186.5h2.9v4.2h-2.9z"/><path fill-rule="evenodd" class="d" d="m117.4 186.5h3v4.2h-3z"/><path fill-rule="evenodd" class="d" d="m87.9 196.8h3v4.2h-3z"/><path fill-rule="evenodd" class="d" d="m158.8 156.1h3v4.2h-3z"/><path fill-rule="evenodd" class="d" d="m158.8 161.5h3v4.2h-3z"/><path fill-rule="evenodd" class="i" d="m276.3 205.1h13.5v46.1h-13.5z"/><path fill-rule="evenodd" class="i" d="m89.7 271.8l22.3-7.2v-7h-3.1l19.2-7.7 43.1 14.1v9.4l11.6 5.5h-4.8v7.2h-84.5v-14.3z"/><path class="j" d="m299.2 211.9c0.4-0.5 2.5-0.3 3.2-0.4 1.8-0.2 3.7-0.3 5.5-0.3 1.7 0 3.5-0.4 4.7-1.6 0.9-1 2.3-2.6 1.5-4.1-0.6-1.3-2.1-2.2-0.3-3.5 1-0.6 2-1 2.6-2 0.5-0.9 0.4-1.7 0.4-2.6 0-1.4-0.2-2.4-1.1-3.6-0.5-0.7-1.2-1.2-1.8-1.9-1.1-1.3 0.7-2.3 1.2-3.5 0.8-2.1-0.2-4.6-1.1-6.3-0.5-0.8-1.1-2.2-2.1-2.4-1-0.3-2.3 0.1-3.4 0.3-1 0.2-1.9 0.7-2.9 1-0.8 0.2-0.9 0-1.2-0.7-0.5-1.5-0.1-2.7-1.4-3.7-0.8-0.7-2-1.4-3-1.4-1.2 0-2.8 0.9-3.9 1.3-1.6 0.7-2.8 1.7-4.2 2.7-0.4 0.3-0.9 0.8-1.5 0.9-0.7 0.1-1.5-0.3-2.2-0.1-0.9 0.3-2 1.2-2.6 1.8-1.3 1.3-1.3 3.1-0.6 4.8 0.9 2.1 0.5 3.7-1.4 5-1.6 1-3.2 2.1-3.3 4.1 0 1.2 0.2 2.5 1 3.4 0.5 0.6 1.4 0.9 1.7 1.6 0.2 0.5 0 1.2 0 1.7 0.1 0.3 0 0.9 0.1 1.2 0.1 0.5 0.3 0.4 0.6 0.8 0.4 0.4 0.6 1.2 0.9 1.7 0.5 0.8 1.1 1.3 2 1.6 0.7 0.3 1.6 0.3 2.3 0.5 0.4 0.2 0.8 0.5 1.2 0.6 1.4 0.2 2.8-0.2 4.1-0.4 0.7-0.1 1.3-0.1 1.8 0.4 0.7 0.6 0.5 1.6 0.5 2.5 0.1 2.3 0.1 4.8 0 7.2 0 0.6-0.4 1.6-0.2 2.2 0.1 0.4 1.5 0.8 2 0.8 1.3-0.2 0.7-4 0.7-5.1 0-1.1 0.1-2 0-3 0-0.5-0.1-1.2 0.2-1.5"/><path fill-rule="evenodd" class="i" d="m302.2 220.9h12.5v27.6h-12.5z"/><path class="i" d="m205.4 238.3h-107.8v-17.7h8.5v-26.9h10.2v14.2h2.3v9.5h3.2v-19.5h12.5v23.4h1.7v-4.4h5v-15h3.5v-3.3h17v22.2h4v11.5h6.4v-6.7h5.5v2.5h3.5v2.7h5v2.3h4v-7.8c0 0 4.4 0.7 5 0 0.6-0.6 0-11.9 0-11.9h10.5z"/><path class="k" d="m118.9 244.3c-1.6 0.4-3.7 0.7-5.3 0.6-1.7-0.1-3.4-1.3-5-1.9-1.5-0.6-2.8-0.2-4.1 0.5-1.3 0.7-2.5 1.1-3.9 1.2-2.6 0.2-5.6 0.1-8.2 0.1-1.2 0-3.5-1.4-2.7-2.6 0.8-1.2 3.9-1.9 5.1-2.3 0.6-0.3 1.2 0 1.4-0.7 0.3-0.7-0.4-1.3-0.6-1.8-0.4-0.8-1.2-3-0.7-4.1 0.7-1.4 2.6-1.2 3.9-1.2 0.3-1.4-1.1-3.1-1.3-4.5-0.1-0.6-0.4-1.6 0-2.1 0.5-0.6 2.7-0.4 3.5-0.4 2.8 0 4.5 2.3 7.4 1.9 1.3-0.2 2.8-0.8 4.1 0 1.2 0.9 1.6 2.7 2.4 3.8 1.8 2.4 5.7 1.3 7.8 3.8 1.2 1.4 1.4 4.5 0.5 6-0.7 0.9-1.8 0.9-2.5 1.4-0.6 0.5-0.8 1.1-1.3 1.5"/><path fill-rule="evenodd" class="l" d="m110.1 195.4h2.5v25.2h-2.5z"/><path fill-rule="evenodd" class="l" d="m127.5 199.9h1.8v15.2h-1.8z"/><path fill-rule="evenodd" class="l" d="m155.5 200.4h3.2v15.2h-3.2z"/><path fill-rule="evenodd" class="l" d="m150.5 221.1h13.2v13.7h-13.2z"/><path class="j" d="m209.8 237.8c-1.3-1.7-5.2-4.6-4.7-7.2 0.5-2.4 3.8-1.4 5.7-2.6 3.7-2.2 0.1-3.9-2.3-5.2-1.3-0.7-2.6-0.3-1.1-1.8 0.6-0.6 2.4-0.6 3.2-0.9-0.2-1.4-3.1-1.6-1.8-3.7 0.9-1.5 4.5-0.7 6-0.8 0-1.5 0-3.2-0.8-4.4-0.7-1.4-2.7-1.7-2.1-3.8 1.7 0 4.1-0.9 3.6-2.8-0.4-1.9-3.1-1.8-4.2-2.4-2-1.2-1.5-1.6-0.6-3.3 0.2-0.4 1.2-1.3 1.2-1.7 0.2-1.3-0.5-0.7-0.8-1.6-1.1-2.9-0.2-2.3 2.4-4.2 0.7-0.5 1.7-1.2 2.2-1.9 0.3-0.4 0.2-1.9 0.6-2 0.5-0.2 3 1.7 3.7 2 1.3 0.7 3 1.4 4.5 2 0 2.3-4.4 3.8-5 6.6-0.8 3.8 5.5 2.2 8.2 2.3 0.5 1.4-2.3 5.7-3.9 5.8-0.1 0.7-0.1 1.7 0 2.4 1.6 0.1 4.1 0.8 5.1 1.8-1.8 1.8-6.3 1.6-4.1 5.3 1.3 2.2 4.4 2.6 6.3 1 0.2 2-6.4 8.5-2.8 9.2-0.1 1.2-0.9 1.8-1.8 2.7 1.9 1.4 5.6 4.4 6.3 6.5 0.6 2.3-0.3 2.5-2.2 2.7-0.8 0.1-2.7 0.4-3.5 0-1-0.5-0.4-0.7-1.2-1.4-1.2-1-1.3-1.9-3-1.5-1.5 0.4-1.3 1.8-3.1 1.2-0.6-0.2-1-1.5-1.7-1.6-1.2-0.3-1 0.4-2 0.6-1.8 0.4-2.2 1.7-3.3-1.2-0.4-0.1-0.8-0.1-1.2 0-0.1 1.3-0.9 2.3-1.5 3.4"/><path fill-rule="evenodd" class="j" d="m216.8 234.3h2v7h-2z"/><path class="j" d="m120.2 241c1.2-0.2 2-0.9 3.2-1 0.3-2.2-3.6-2.8-4.2-4.7-0.7-2.1 4.6-1.3 5.9-1.4 0.4-0.9-0.3-1.3-1-1.7-1.4-0.9-2-1.5-2.5-3.1-0.5-1.5-0.9-3.6 1.2-3.2 1.7 0.4 2.8 2.1 4.6 2.7 1.5 0.4 3.2 0.2 4.8 0.2 1.8 0.1 2.8 0.1 3.9 1.4 1.1 1.3 2.2 2.5 3.9 3 1.4 0.4 3.1 0.2 4.3 1.1 0.9 0.7 1.1 1.6 2.3 2 1 0.3 2.7 0.4 2.8 2 0.1 1.7-1.6 0.9-2 1.9-0.5 1.4 2.8 1.5 3.5 1.7 1.2 0.4 2.1 1 3.2 1.7-1.8 0.4-4.2 0.1-5.9-0.6-1.5-0.7-3.3-1.4-4.3 0.4-0.6 1.2-0.7 2.5-2.5 2.3-2.2-0.2-4.5-1-6.5-1.9-2.4-1-3.7-0.7-6.1 0.2-1.4 0.4-3 0.5-4.5 0.5-2.3 0.1-6.3 1.4-8.2-0.1-0.3-0.2-0.7-0.3-0.8-0.7 0-0.1 0-0.4 0.1-0.5 0.2-0.1 0.4-0.1 0.5-0.3 0.1-0.1 0.1-0.2 0.2-0.4 0.1-0.2 0.3-0.4 0.6-0.5 0.6-0.4 1.3-0.6 2-0.8q0.8-0.1 1.5-0.2z"/><path fill-rule="evenodd" class="i" d="m178.6 256.8h12.7v15.4h-12.7z"/><path fill-rule="evenodd" class="l" d="m181 259.6h3.8v4.2h-3.8z"/><path fill-rule="evenodd" class="l" d="m172 277.5h3.3v5.3h-3.3z"/><path fill-rule="evenodd" class="l" d="m163.6 274h2.4v5.3h-2.4z"/><path fill-rule="evenodd" class="l" d="m157.6 274h2.4v5.3h-2.4z"/><path fill-rule="evenodd" class="l" d="m144.6 276.1h2.4v5.3h-2.4z"/><path fill-rule="evenodd" class="l" d="m108.6 269.2h2.3v5.3h-2.3z"/><path fill-rule="evenodd" class="l" d="m104.2 276.6h2.4v5.3h-2.4z"/><path fill-rule="evenodd" class="l" d="m97.9 276.6h2.4v5.3h-2.4z"/><path fill-rule="evenodd" class="l" d="m148.9 260.9h3.3v7.1h-3.3z"/><path fill-rule="evenodd" class="l" d="m131.7 257.7h3.3v6.3h-3.3z"/><path fill-rule="evenodd" class="l" d="m120.5 258.3h3.3v6.8h-3.3z"/><path fill-rule="evenodd" class="l" d="m114.9 258.3h3.3v6.8h-3.3z"/><path fill-rule="evenodd" class="l" d="m185.7 259.6h3.7v4.2h-3.7z"/><path fill-rule="evenodd" class="l" d="m181 265.8h3.8v4.2h-3.8z"/><path fill-rule="evenodd" class="l" d="m185.7 265.8h3.7v4.2h-3.7z"/><path fill-rule="evenodd" class="l" d="m278.8 239h3.8v4.1h-3.8z"/><path fill-rule="evenodd" class="l" d="m283.4 239h3.8v4.1h-3.8z"/><path fill-rule="evenodd" class="l" d="m278.8 245.2h3.8v4.2h-3.8z"/><path fill-rule="evenodd" class="l" d="m283.4 245.2h3.8v4.2h-3.8z"/><path fill-rule="evenodd" class="l" d="m278.8 223.3h3.8v4.2h-3.8z"/><path fill-rule="evenodd" class="l" d="m283.4 223.3h3.8v4.2h-3.8z"/><path fill-rule="evenodd" class="l" d="m278.8 229.6h3.8v4.1h-3.8z"/><path fill-rule="evenodd" class="l" d="m283.4 229.6h3.8v4.1h-3.8z"/><path fill-rule="evenodd" class="l" d="m278.8 207.7h3.8v4.2h-3.8z"/><path fill-rule="evenodd" class="l" d="m283.4 207.7h3.8v4.2h-3.8z"/><path fill-rule="evenodd" class="l" d="m278.8 213.9h3.8v4.2h-3.8z"/><path fill-rule="evenodd" class="l" d="m283.4 213.9h3.8v4.2h-3.8z"/><path fill-rule="evenodd" class="l" d="m304.8 222.8h3.7v4.2h-3.7z"/><path fill-rule="evenodd" class="l" d="m309.4 222.8h3.7v4.2h-3.7z"/><path fill-rule="evenodd" class="l" d="m304.8 229.1h3.7v4.1h-3.7z"/><path fill-rule="evenodd" class="l" d="m309.4 229.1h3.7v4.1h-3.7z"/><path fill-rule="evenodd" class="l" d="m304.8 237.9h3.7v4.1h-3.7z"/><path fill-rule="evenodd" class="l" d="m309.4 237.9h3.7v4.1h-3.7z"/><path fill-rule="evenodd" class="m" d="m260 142.3l0.2 7"/><path fill-rule="evenodd" class="n" d="m243.6 236.7h25.7"/><path fill-rule="evenodd" class="n" d="m243.6 260.4h25.7"/><path fill-rule="evenodd" class="o" d="m265.1 191.5l-0.8 86.8"/><path fill-rule="evenodd" class="o" d="m269.8 190.3l-0.7 91"/><path fill-rule="evenodd" class="p" d="m246.8 190.4v77.2"/><path fill-rule="evenodd" class="q" d="m243.3 187.5v77.7"/><path class="r" d="m274.9 187.8c0 0-4 4.3-18.7 4.3-14.6 0-18.2-4.3-18.2-4.3v-29.6c0 0 5.9-3 18.9-3 13 0 18 3.1 18 3.1z"/><path class="s" d="m238.1 171.1v-12.8c0 0 4.7-2.1 6.5-2.1 3.8 0 3.8 0 3.8 0 0 0 0 5.6 0 9.1 0 3.5-2.6 5.3-3.9 6-1.3 0.6-6.4-0.2-6.4-0.2z"/><path fill-rule="evenodd" class="m" d="m247 143.4l0.2 8 16.9-3 0.2-7.5"/><path fill-rule="evenodd" class="m" d="m251.2 143.1v7.7"/><path fill-rule="evenodd" class="m" d="m255.8 142.1v13.1"/><path class="j" d="m93.2 237.7c-0.1-2.5-0.2-1.4-1.9-2.8-0.3-0.3-0.9-1.4-0.8-2 0.5-1.3 1.5-0.7 2.8-0.9 0.2-2.9 0-3.2-2.8-3.4-1.2-0.1-2.6-0.4-1.1-2 0.8-0.8 2.6-0.4 3.6-0.5 1-0.1 2 0 2.2-1.2 0.1-0.3-0.7-2.1-1.1-2.4-1.2-0.6-2.5 0.7-3.8 0.6-1.4-0.1-2.2-0.8-1.9-2.3 0.4-1.7 2.7-1.2 2.8-2.8-1.2-0.3-2.9 0.2-3.6-0.9-0.7-0.9-0.2-3 0.1-4 0.3-0.8 1-0.9 0.6-1.8-0.2-0.8-1.5-1.1-2.2-1.2-0.1 3.1-1.6 1.6-3.9 1.7-2.6 0.1-1.9 1.8-2.1 3.9-0.2 1.9-1.5 2.5-0.5 4.1 0.8 1.4 2.3 2.7 1.8 4.7-0.6 2.3-3.1 1.1-3.7 3.4-0.1 0.8 0 2.7 0.4 3.3 0.7 1 1.8 0.6 2.5 1.5 1 1.3-0.9 3.3 0.5 4.5 0.4 0.4 1.8 0.6 2.3 0.4 1.2-0.5 1-1.1 1-2.4 0-0.7-0.1-1.4 0.2-2.1 0.7 0 1.4-0.1 2.1 0 0.2 1.6 0.4 3.9 1.7 4.5 1.1 0.5 3.9 0.3 5 0"/><path class="t" d="m120.7 288.7c0.5-1 1.7-2.2 0.8-3.3-0.5-0.7-1.6-0.6-2.1-1.3-0.4-0.5-0.6-1.7-0.3-2.3 0.2-0.6 1.1-1.3 1.7-1.5 0.6-0.1 2.2 0.7 2.7 0.1 0.7-0.8-1.5-3.2-1.8-4-1.7-4.4 3.5-5.4 6.6-3.7 2.9 1.6 3.7 6.3 8 4.2 1-0.5 2.6-1.8 3.9-0.8 1.2 1 0.5 3.1 1.5 4.2 0.9 1.1 2.2 0.2 3.3 0.3 1.4 0.1 2 1.3 3.1 1.9 0.7 0.4 0.8 0 1.3 0.7 0.4 0.6 0 1 0.8 1.5 0.7 0.4 1.6 0.2 2.2 0.7 0.5 0.5 0.7 1.6 1.2 2.1 0.8 1.1 4.2 2.3 4.3 3.9 0 1.4-3.6 1.1-4.6 1.2-0.5 0-1.4 0.1-1.9 0-1-0.3-0.9-0.9-1.7-1.4-1.7-1-3.9 1-5 2.2-1.1 1.2-2.1 2.1-4 1.8-0.8-0.1-1.5-0.6-2.1-1-0.9-0.6-1-1.2-1.6-1.9-1.4-1.4-3.8-1.5-5.6-1.2-1.7 0.2-2.9 1.2-4.6 1.4-1.5 0.1-3.3 0.2-4.8-0.3-1.4-0.5-1.7-1.1-1.7-2.5"/><path class="u" d="m108 295q-0.5 0.1-0.9 0.4c-0.7 0.4-1.2 1-1.7 1.6q-0.5 0.4-1 0.6c-0.2 0.1-0.4 0.2-0.6 0.2-0.2 0.1-0.4 0.3-0.6 0.4-0.3 0.1-0.6 0.1-0.9 0.2-0.3 0-0.6 0-0.9 0.1q-1.1 0.1-2.1 0.2c-1.4 0-2.1-0.6-3.2-1.3-1.8-1.1-4.2-0.8-6.2-1-1 0-1-0.1-1.4-0.8-0.5-0.9-0.9-2-0.5-2.9 1.7-3.9 8.6 1.1 9.2-3.2 0.1-0.8 0.2-1.7 0.1-2.5-0.1-0.7-0.7-1.6-0.4-2.4 0.5-1.4 4.2 0.7 5.7 0.3 1.2-0.4 0.8-3 1-4.2 0.3-2.1 1.9-2.2 3-0.4 0.6 1.1 0.7 2.3 2.1 2.7 1.4 0.5 1.9-0.1 2.7-1.2 1.3-2 2.7-0.6 3.9 1 0.9 1.3 0.6 2.6 0.6 4.2 0 1.1-0.2 1 0.7 1.3 1.6 0.5 3.5 0.7 5.1 0.8 2.1 0.2 4.3-0.3 4.5 2.4 0.2 2.7-0.3 6.8-3 8-1.4 0.6-2.7 1.1-4.1 0.5-1.9-0.8-4.2-1.6-5.8-2.9-0.8-0.7-1.3-1.4-2.3-1.8-1-0.3-2-0.4-3-0.3z"/><path class="v" d="m226.9 280.1c-1.3 0.2-1.3 0.8-2.2 1.7-1.7 1.8-4.7 2.1-7.2 2-2.3-0.2-4.8-3.4-7.2-2.5-1 0.4-1.4 1.5-2.7 1.8-2.6 0.7-5.6 0.1-8.3 0.2-1.2 0-2 0.4-3-0.5-2-2-1-5.6 0.7-7.3 1.3-1.2 6.7-2.9 6.1-5.4-0.2-0.7-1.3-1.4-1.9-1.9-1.2-1.1-2.5-2.2-3.6-3.5-0.8-0.9-1.4-1.4-1.3-2.6 0.2-2.4 2.9-2.3 4.6-3.3 2.6-1.4-0.7-2.6-1-5-0.3-2.8 1.9-0.6 3.1-2.1 1.3-1.7-0.9-5.7 0.1-7.6 1-1.9 4.4-2.2 6.3-2 0.3 1.2 1.8 2.5 2.5 3.7 0.6 0.9 1.1 2.2 2.4 2.2 2.1 0 2.5-3.7 5-2.8 2.3 0.9 3.3 3.9 4 5.8 0.5 1.3 0.6 1.5 2 1.5 1.7 0 2.1-1.2 2.8 0.6 1.1 2.9-2 5.7-1 8.6 0.5 1.3 2 2.2 2.7 3.3 1 1.4 1.8 2.9 2.2 4.5 0.5 2.3 0.5 4.7 0.4 7q-0.1 0.9-0.1 1.9 0 0.5-0.1 1 0 0.2 0 0.4c0 0.1 0 0.4 0 0.5-0.1 0.1-0.6 0.1-0.7 0.2q-0.4 0-0.8 0c-0.6-0.1-1.1-0.2-1.6-0.2-0.7-0.2-1.5-0.3-2.2-0.2z"/><path class="j" d="m235.9 272.2c-1.5 0.9-3.2 0.6-4.8-0.1-2.4-1.2-4.8-2.3-7.1-3.7-1.1-0.7-1.7-2-3-2.6-0.6-0.3-1.4-0.2-2.1-0.2-0.9 0-1.6 0-2.4 0.3-0.8 0.3-1.6 0.7-2.5 0.8-0.9 0.1-4.8 0.1-3.2-1.4 0.4-0.5 1.4-0.8 2-1.2 0.4-0.3 0.9-0.6 1.4-0.8 0.3-0.1 1.5-0.3 1.7-0.5 0.3-0.7-2.9-1.4-3.4-1.9-1.1-1-1.4-3.2 0.7-3.3 0.8 0 1.5 0.7 2.2 1 1.1 0.4 2.3 1.1 3.5 1.1 0.7-1.3-0.5-2-1.2-2.8-1.9-2.2-3.3-5-3.3-7.9 1-0.2 2.3 0.3 3.3 0.6 0.8 0.3 1.1 0.7 1.5 1.6 0.7 1.1 1.4 2.1 2.1 3.1 0.8 1 1.3 2.1 2.6 2.1 1.6 0.1 3.3-1.5 4.4-2.5 1.3 0.6 1.8 3.1 2.2 4.3 0.3 0.6 0.4 1.2 1.1 1.5 0.8 0.2 0.9-0.2 1.2 0.5 0.5 1-0.2 2.6 1.8 1.6 1.7-0.9 3.8-3.9 5-0.5 0.9 2.9-1.4 2.4-3.1 3.5-1.7 1-0.6 2.7 0.5 3.6 0.7 0.6 1.1 1.8 0.5 2.7-0.3 0.5-1.1 0.8-1.6 1.1z"/><path class="u" d="m231.4 274.5c0.5-0.7 0.7-1 1-1.8 0.3-1 0.7-2.1 1.1-3 0.6-1.2 2.1-1.6 3.3-1.7 0.8 0 1.1 0.1 1.8 0.5 0.3 0.2 1.1 0.6 1.5 0.4 0.5-0.2 0.4-1.3 0.5-1.7 0.2-0.8 0.4-1.5 0.9-2.1 1.3-1.3 2.5-0.9 3.4 0.6 0.7 1 1.3 3 2.7 3 2.5 0 5.1 0 7.6 0.2 0.8 0.1 2.5 0 2.3 1-0.2 1.1-1.7 1.5-2.2 2.3-0.3 0.4-0.7 1.4-0.4 1.8 0.4 0.5 1.4 0.3 1.9 0.4 0.7 0.2 1.8 0.7 2.3 1.2 0.3 0.3 0.2 0.8 0.5 1.1 0.5 0.5 1.6 0.3 2.2 0.3 1.4 0 2.5 0.2 3.8 0.8 1 0.5 2.1 1 3.1 1.5 0.5 0.2 1.2 0.4 1.5 0.7 0.8 0.7 0.1 1-0.6 1.3-2.1 0.9-4.5 0.6-6.6 1.3-2.2 0.9-4.4 0.8-6.7 1-1.9 0.1-4.5 0.3-6-0.9-0.7-0.5-1.5-1-2.4-1-1 0-1.8 0.6-2.7 1-0.9 0.3-1.8 0.6-2.8 0.7-1.1 0.1-2.1 0.1-3.2 0.2-0.6 0.1-1.3 0.2-1.9 0.3-1.5 0.3-3 1-4.5 1.2-0.7 0-1.5-0.2-2.2-0.4-1.1-0.3-2.3-0.3-3.4-0.5-0.7-0.2-2.1-0.5-2.3-1.4-0.4-1.1 0.6-1.6 1.4-2 1.3-0.5 1.3-1.3 1.7-2.5 0.2-0.6 0.5-1 1-1.3 0.2-0.2 0.5-0.3 0.7-0.4 0.2-0.2 0.3-0.4 0.5-0.6 0.3-0.6 0.8-1 1.2-1.5z"/><path class="j" d="m260.8 265.2c-1-1.4-3.2-5.2-0.5-5.7 1.7-0.3 4 0.5 5.4-0.1 0.8-0.3 0.7-0.3 0.7-1.1 0.1-0.8-1.3-3-0.6-3.6 0.7-0.6 2.2 0.1 2.8 0.6 0.9 0.6 1.2 0.9 2.3 0.8 0.9-2.1-3.1-3.9-2.1-6.4 0.6 0 1 0.2 1.6 0.5 1.6 0.8 3.2 1.8 4.4 2.9 0.8 0.7 1.9 2.3 2.6 1.1 0.4-0.6 0.1-1.8 0.9-2.2 0.9-0.5 2 0.5 2.3 1.3 0.4 0.8 0.2 1.8 0.5 2.6 0.6 1.4 3.1 2 4.5 2.2 0.9 0.1 4-0.1 4 0.9 0.1 0.8-1.3 1.4-1.8 1.8 1.6 1.2 4.9 0.1 6.7 0.4 0.8 0.1 2.5 0.9 2.1 1.9-0.3 1.1-1.9 0.6-2.7 0.9-0.6 0.2-1.3 0.5-0.8 1.2 0.4 0.8 2.9 0.6 3.6 1.2 2.1 1.7-3.1 1.4-4.3 1.1-1.1-0.2-1.6-0.6-2.7-0.9-1.7-0.7-1.9 0.2-3.1 1.4-0.6 0.6-1.6 1.1-2.5 1.2-2.2 0.4-1.8-1.1-3.4-2.3-2.7-2-5.2-2.1-8-1-1.9 0.8-3.7 1.7-5.8 1.7-2.7 0.1-4.6-0.2-6.1-2.4z"/><path class="j" d="m293.3 256.6c-1-1.4-3.2-5.2-0.5-5.7 1.7-0.3 4 0.5 5.4-0.1 0.8-0.3 0.7-0.3 0.7-1.1 0.1-0.8-1.3-3.1-0.6-3.6 0.7-0.7 2.2 0.1 2.8 0.5 0.9 0.6 1.2 1 2.3 0.8 0.9-2.1-3.1-3.9-2.1-6.3 0.6 0 1.1 0.2 1.6 0.5 1.6 0.7 3.2 1.7 4.4 2.9 0.8 0.7 1.9 2.3 2.6 1.1 0.4-0.7 0.1-1.9 0.9-2.3 1-0.5 2 0.6 2.4 1.3 0.3 0.9 0.1 1.9 0.4 2.7 0.6 1.4 3.1 2 4.5 2.2 0.9 0.1 4-0.2 4.1 0.8 0 0.9-1.3 1.4-1.9 1.9 1.6 1.2 4.9 0 6.7 0.3 0.8 0.2 2.5 0.9 2.2 1.9-0.4 1.1-2 0.7-2.8 1-0.6 0.2-1.2 0.5-0.8 1.2 0.4 0.8 2.9 0.5 3.6 1.1 2.1 1.7-3.1 1.4-4.3 1.2-1.1-0.2-1.6-0.6-2.6-1-1.8-0.6-2 0.3-3.1 1.4-0.7 0.7-1.7 1.1-2.6 1.3-2.2 0.3-1.8-1.1-3.4-2.3-2.7-2-5.2-2.1-8-1-1.9 0.7-3.7 1.6-5.8 1.7-2.7 0-4.6-0.2-6.1-2.4z"/><path class="w" d="m334.8 154.5c0 0-5 117.9-5 149.2 0 31.2-30.1 50.1-58 56.1-27.9 6-44.2 11.5-53.2 16.6-12.9 7.3-24 31.9-24 31.9 0 0-11-24.6-23.9-31.9-9-5.1-25.3-10.6-53.2-16.6-28-6-52.5-25.3-52.5-56.6 0-31.2 0-117.3 0-117.3"/><path class="x" d="m140.1 320.5c-18.2 0-30.7-6.1-40.8-11.1-2.3-1.1-4.5-2.2-6.6-3.1-10.9-4.9-15.2-5.6-15.3-5.6-1.9-0.3-3.2-2.1-2.8-4 0.3-1.9 2-3.2 3.9-2.9 0.5 0 5.2 0.8 17 6.1 2.3 1 4.5 2.1 6.9 3.3 9.9 4.8 21.1 10.4 37.7 10.4 13.8 0 26.4-4.7 38.7-9.3 6-2.2 11.7-4.4 17.5-5.9l2-0.5c16.5-4.4 29.6-7.9 49.8-9.4 19-1.4 32.9-3.2 52-8.6 18.4-5.2 26.9-7.1 27.2-7.2 1.9-0.4 3.8 0.7 4.2 2.6 0.4 1.9-0.7 3.8-2.6 4.2-0.1 0-8.7 2-26.9 7.1-19.7 5.6-34 7.4-53.4 8.9-19.5 1.4-32.3 4.8-48.5 9.1l-2 0.6c-5.4 1.4-11 3.5-16.9 5.7-12.2 4.5-26.1 9.6-41.1 9.6z"/><path class="x" d="m140.1 333.2c-18.2 0-30.7-6.2-40.8-11.1-2.3-1.1-4.5-2.2-6.6-3.2-10.9-4.8-15.2-5.6-15.3-5.6-1.9-0.3-3.2-2.1-2.8-4 0.3-1.9 2-3.2 3.9-2.9 0.5 0.1 5.2 0.9 17 6.2 2.3 1 4.5 2.1 6.9 3.2 9.9 4.9 21.1 10.4 37.7 10.4 13.8 0 26.4-4.7 38.7-9.2 6-2.3 11.7-4.4 17.5-5.9l2-0.6c16.5-4.4 29.6-7.9 49.8-9.3 19-1.4 32.9-3.2 52-8.6 18.4-5.2 26.9-7.2 27.2-7.3 1.9-0.4 3.8 0.8 4.2 2.6 0.4 1.9-0.7 3.8-2.6 4.2-0.1 0-8.7 2-26.9 7.2-19.7 5.6-34 7.4-53.4 8.8-19.5 1.5-32.3 4.9-48.5 9.2l-2 0.5c-5.4 1.4-11 3.5-16.9 5.7-12.2 4.5-26.1 9.7-41.1 9.7z"/><path fill-rule="evenodd" class="y" d="m185 350l-2.7-3.9v-4.9h-3.3l-3-4.4-2.9 4.4h-4.1v5.9l-2 2.9h2v4.1h13.3v-4.1z"/><path fill-rule="evenodd" class="y" d="m205.4 360.8l-2.6-3.9v-4.9h-3.4l-2.9-4.4-3 4.4h-4v5.9l-2 2.9h2v4.1h13.3v-4.1z"/><path fill-rule="evenodd" class="y" d="m226.5 350l-2.6-3.9v-4.9h-3.4l-2.9-4.4-3 4.4h-4v5.9l-2 2.9h2v4.1h13.3v-4.1z"/></g></svg>