<svg version="1.2" xmlns="http://www.w3.org/2000/svg" viewBox="0 0 513 822" width="513" height="822"><style>.a{fill:#221d56}.b{fill:#dc9427}.c{fill:none;stroke:#c0cac3;stroke-linecap:round;stroke-miterlimit:10;stroke-width:16}.d{fill:#c0cac3}.e{fill:#d99628}.f{fill:#c4caba}.g{fill:#1f1415}.h{fill:#e52625}.i{fill:#e65425}.j{fill:#201d55}.k{fill:none;stroke:#221d56;stroke-miterlimit:10;stroke-width:1}</style><g style="opacity:1"><path class="a" d="m501.6 39c-5.5 0-11.5 4-15.5-2.7-6-10 4-19.7 2.8-21.2-1.3-1.5-6.4-0.1-11.7 4.3-5.2 4.4-12.8 14.7-16.5 4.9-3.8-9.8-1.5-18.2-3.4-19.6-1.8-1.5-15.4 19.4-20.3 17.6-4.9-1.8-6.1-4.4-6.1-10 0-5.6-0.6-12.3-2.3-12.3-1.8 0-4.4 15.6-5.3 17.7-0.9 2.1-4.1 4.2-4.1 4.2-19.3 7.5-33.2 25.7-33.2 47.1 0 12.3 4.6 23.5 12.1 32.3 0 0.5 0 1-0.2 1.6-0.5 1.8-3.7 6.2-6 8.5q-0.5 0.5-0.9 0.8c-11.8-9.1-23.6-15.7-33.4-15.7-31.3 0-20 14.7-53.3 14.7-33.2 0-48-44.8-48-44.8 0 0-14.9 44.8-48.1 44.8-33.3 0-22-14.7-53.3-14.7-9.8 0-21.7 6.6-33.5 15.8q-0.4-0.4-0.9-0.9c-2.4-2.3-5.6-6.7-6.1-8.5-0.2-0.6-0.2-1.1-0.1-1.6 7.5-8.8 12-20 12-32.3 0-21.4-13.8-39.6-33.1-47.1 0 0-3.3-2.1-4.2-4.2-0.9-2.1-3.5-17.7-5.2-17.7-1.8 0-2.3 6.7-2.3 12.3 0 5.6-1.2 8.2-6.1 10-4.9 1.8-18.6-19.1-20.4-17.6-1.8 1.4 0.4 9.8-3.3 19.6-3.8 9.8-11.3-0.5-16.6-4.9-5.2-4.4-10.4-5.8-11.6-4.3-1.3 1.5 8.7 11.2 2.7 21.2-4 6.7-10 2.7-15.5 2.7-5.5 0-10.4 4.3-10.7 6-0.2 1.8 14.2 5.5 19.2 8.7 5 3.3 3.7 6.6 3.7 6.6-0.5 2.8-0.9 5.7-0.9 8.7 0 28 23.3 50.6 52.1 50.6 7.3 0 14.3-1.4 20.6-4 0.4-0.1 3.8-0.2 4.7 0.2 0.9 0.4 6.5 6.4 7.7 8.7-20.1 18.7-36.7 39.9-36.7 39.9v656.9h371.7v-656.9c0 0-16.6-21.2-36.8-40 1.3-2.4 6.7-8.2 7.6-8.6 1-0.4 4.3-0.3 4.8-0.2 6.3 2.6 13.2 4 20.5 4 28.8 0 52.2-22.6 52.2-50.6 0-3-0.4-5.9-0.9-8.7 0 0-1.4-3.3 3.6-6.6 5-3.2 19.5-6.9 19.2-8.7-0.2-1.7-5.2-6-10.7-6z"/><path class="a" d="m191 38.5c0 0 4.8-8.7 1.8-19.9-2.9-11.1-16.8-16.5-16.8-16.5 0 0-6 13.5-0.3 23.4 5.8 10 15.3 13 15.3 13z"/><path class="a" d="m184.9 46.5c0 0-5.2-8.4-16.3-11.4-11.1-3-22.7 6.2-22.7 6.2 0 0 8.6 12 20.1 12 11.6 0 18.9-6.8 18.9-6.8z"/><path class="a" d="m188.8 55.9c0 0-9.9 0.2-18.1 8.4-8.1 8.1-5.9 22.7-5.9 22.7 0 0 14.7-1.4 20.5-11.4 5.7-10 3.5-19.7 3.5-19.7z"/><path class="a" d="m198.9 57.2c0 0-4.8 8.7-1.8 19.8 2.9 11.1 16.7 16.5 16.7 16.5 0 0 6.1-13.4 0.4-23.4-5.8-10-15.3-12.9-15.3-12.9z"/><path class="a" d="m205 49.1c0 0 5.2 8.5 16.3 11.5 11.1 3 22.7-6.3 22.7-6.3 0 0-8.6-12-20.2-12-11.5 0-18.8 6.8-18.8 6.8z"/><path class="a" d="m201.1 39.7c0 0 9.9-0.2 18-8.3 8.2-8.1 6-22.8 6-22.8 0 0-14.7 1.5-20.5 11.4-5.8 10-3.5 19.7-3.5 19.7z"/><path fill-rule="evenodd" class="a" d="m195.1 53.4c-3.1 0-5.7-2.5-5.7-5.6 0-3.1 2.6-5.7 5.7-5.7 3.1 0 5.6 2.6 5.6 5.7 0 3.1-2.5 5.6-5.6 5.6z"/><path class="b" d="m410.6 190.7c0 0-10.7 0-17.6 0-6.9 0-11.4-5.7-15.4-5.7-1.7 0-4.9 4.9-4.9 7.1 0 2.3 0 23 0 23 0 0-0.9 0.8-3.3 5.6-1.3 2.7-1.9 5.4-2.2 7.2-5.4-4.3-9.8-9.8-9.8-15 0-6.2 0-6.2 0-11.3 0-5.1-6.7-10.1-10-10.1-3.2 0-7.9 0-14.7 0-6.7 0-7.3-7.3-10-7.3-1.2 0-3.7 3.2-4.5 5-0.7 1.7-0.6 17.3-0.6 20.8 0 3.5 4.9 6.6 9.6 7.6 4.8 1 17 0.9 17 0.9 0 0-0.4 10.2 8.5 20.7 8.8 10.5 19.7 12.6 19.7 12.6 0 0-38.3 0-39.3 0-1 0-6 4.6-9 10-3 5.4-3.5 10.8-3.5 12 0 1.1 0.3 2.6 1.4 2.6 1.1 0 61.9 0 67.1 0 5.3 0 8.1-7.1 8.5-10.1 0.4-3 0.5-8.3 0.5-15.5 0-7.2-10.3-12.1-19.1-15.7q-0.8-0.4-1.7-0.8c0.3-2.3 0.8-5.9 1.1-8.5 0.5-4.1 3.6-8.7 4.5-9.6 0.9-0.8 4.9-1 13.7-1 8.9 0 12.7-6.2 13.5-10.1 0.7-3.8 0.5-14.4 0.5-14.4z"/><path class="b" d="m227.1 274.9c0 0 3.2-10 5.7-14.7 2.4-4.8 6.1-8.4 8.2-8.4 2.1 0 45.5 0 47.2 0 1.6 0 3.2-3.5 3.2-5.9 0-2.3-2.5-12.2-4.1-15.6-1.6-3.3-4.6-8.6-5.9-9.3-1.2-0.8-8.5-3.1-18.7-4.4-10.2-1.2-18.8-1-18.8-1 0 0-1.4 3.1-0.4 3.4 1 0.2 16.6 5.2 17.8 6.7 1.3 1.5 2.7 7.8 1.7 11.1-1 3.4-6.7 11.6-8.5 11.6-1.9 0-8.9-2-14.5-4.2-5.6-2.3-12-5.9-12-7.2 0-1.4 1.1-6.3 3.3-11.3 2.1-5 5.1-12.1 5.1-12.1 0 0-7.3-6.7-7.3-10.3 0-3.7 6.4-19.3 9.3-19.3 2.8 0 2.6 1.9 5 2.3 2.3 0.4 47.3 6.5 49.8 9.8 2.5 3.4 5.4 20.3 6.8 26.9 1.4 6.6 3.8 16.4 3.8 22.9 0 6.5-4.5 15.5-9.3 20.1-4.7 4.6-9.6 10-16.6 10-7 0-50.8-1.1-50.8-1.1z"/><path class="b" d="m194.2 273.2c0-3-2-46.9-2.3-48.1-0.2-1.3 0.3-7.5-4.4-8.2-4.8-0.8-37.2-1.2-41-0.9-3.7 0.2-8.6 4.2-8.6 10 0 5.7 1.6 12.3 2.8 16.6 1.1 4.2 2.1 8.3 2.1 8.3 0 0 3.8 3.5 3.8 6.8 0 9-7.2 14.1-7.2 14.1 0 0-7.5 1.2-16 2.7-8.5 1.5-12.6 3.1-14.8 3.1-2.3 0-4.9-3.6-4.9-6.2 0-2.6 3.9-14.7 8.6-19.3 4.8-4.7 14.4-5.7 14.4-5.7 0 0-2-10.6-2-15.9 0-5.4 6.7-12.9 6.7-12.9 0 0-13.6-4.5-13.6-13.1 0-8.6 10.5-22.1 12.5-22.1 2 0 4.9 6.6 8.7 6.6 3.9 0 45.8 0 50.4 0 4.7 0 18.3 6.3 18.3 15.4 0 9.1-0.5 55.9-0.8 59.9-0.2 4-5.8 13.2-8.5 13.2-2.6 0-4.2-2.6-4.2-4.3z"/><path class="c" d="m299 629.8c0 0 9.5-13 21.7-13 29 0 25.7 19.3 47.7 19.3 22 0 36.5-18.8 36.5-18.8"/><path class="c" d="m299 659.8c0 0 9.5-13 21.7-13 29 0 25.7 19.2 47.7 19.2 22 0 36.5-18.7 36.5-18.7"/><path class="c" d="m299 689.7c0 0 9.5-13 21.7-13 29 0 25.7 19.3 47.7 19.3 22 0 36.5-18.8 36.5-18.8"/><path class="d" d="m242.8 539.8c0 0 15.3-53.9 71.5-53.9 12.3 0 23.3 5.6 23.3 5.6 0 0 17-25.6 33.3-25.6 16.3 0 40.6 14.3 40.6 14.3 0 0-22.3-1.6-41.6 5.7-19.3 7.3-26 24.3-26 24.3 0 0-25.2-12.3-55.2 1-29.9 13.3-45.9 28.6-45.9 28.6z"/><path class="d" d="m101.3 440.1c0 0 2.9-6.1 14.7-6.1 7 0 12 3.5 14.3 4.5 2.3 1 4.2 1.3 4.2 1.3 0 0-0.4 8.8-15.4 8.8-14.9 0-17.8-8.5-17.8-8.5z"/><path class="d" d="m90.4 400.4c0 0 5.6-3.8 15.7 2.4 6 3.6 8.4 9.2 9.9 11.3 1.4 2 2.8 3.3 2.8 3.3 0 0-4.9 7.3-17.6-0.5-12.8-7.8-10.8-16.5-10.8-16.5z"/><path class="d" d="m83.7 363.6c0 0 6-3.2 15.3 4 5.6 4.2 7.4 10.1 8.7 12.3 1.2 2.2 2.4 3.6 2.4 3.6 0 0-5.6 6.8-17.5-2.4-11.8-9.1-8.9-17.5-8.9-17.5z"/><path class="d" d="m166.1 394.9c0 0 6.7 0.5 10.8 11.6 2.4 6.6 0.8 12.5 0.7 15-0.2 2.5 0.1 4.4 0.1 4.4 0 0-8.4 2.7-13.5-11.4-5.1-14 1.9-19.6 1.9-19.6z"/><path class="d" d="m195.2 369.7c0 0 6.6 1.6 8.9 13.2 1.3 6.9-1.1 12.4-1.6 14.9-0.6 2.5-0.5 4.4-0.5 4.4 0 0-8.7 1.4-11.7-13.3-2.9-14.7 4.9-19.2 4.9-19.2z"/><path class="d" d="m215.4 353.2c0 0 6.8 0 11.7 10.8 2.9 6.3 1.8 12.3 1.8 14.9 0.1 2.5 0.5 4.3 0.5 4.3 0 0-8.1 3.3-14.3-10.3-6.2-13.6 0.3-19.7 0.3-19.7z"/><path class="d" d="m246.5 343.6c0 0 6.1 1.5 8.3 12.2 1.2 6.3-1.1 11.5-1.5 13.8-0.5 2.3-0.5 4-0.5 4 0 0-8.1 1.3-10.8-12.3-2.7-13.6 4.5-17.7 4.5-17.7z"/><path class="d" d="m129.6 353.3c0 0-6.7-0.2-12 10.4-3.1 6.2-2.2 12.2-2.4 14.8-0.1 2.5-0.6 4.3-0.6 4.3 0 0 8 3.6 14.7-9.8 6.7-13.4 0.3-19.7 0.3-19.7z"/><path class="d" d="m141.1 383.6c0 0-6.8 0.2-11.3 11.1-2.7 6.4-1.4 12.4-1.4 14.9 0 2.6-0.4 4.4-0.4 4.4 0 0 8.3 3.1 14.1-10.7 5.7-13.9-1-19.7-1-19.7z"/><path class="d" d="m152.3 400.2c0 0-6.7 1-10 12.4-1.9 6.7 0 12.5 0.3 15 0.4 2.5 0.2 4.3 0.2 4.3 0 0 8.5 2.2 12.7-12.2 4.1-14.4-3.2-19.5-3.2-19.5z"/><path class="d" d="m223 433.3c0 0-1.5-6.2-12.5-8.4-6.5-1.3-11.8 1-14.2 1.5-2.3 0.5-4.1 0.5-4.1 0.5 0 0-1.3 8.3 12.7 11 13.9 2.8 18.1-4.6 18.1-4.6z"/><path class="d" d="m238.5 414.9c0 0-1.5-6.3-12.5-8.5-6.5-1.3-11.8 1-14.2 1.5-2.3 0.5-4.1 0.5-4.1 0.5 0 0-1.3 8.3 12.6 11.1 14 2.7 18.2-4.6 18.2-4.6z"/><path class="d" d="m263.3 396.9c0 0-1.5-6.3-12.5-8.5-6.5-1.3-11.8 1.1-14.2 1.6-2.3 0.5-4.1 0.4-4.1 0.4 0 0-1.3 8.3 12.6 11.1 14 2.8 18.2-4.6 18.2-4.6z"/><path class="d" d="m287.2 378.5c0 0-2.5-6-13.8-6.4-6.6-0.2-11.5 2.9-13.8 3.8-2.2 0.9-4 1.1-4 1.1 0 0 0 8.4 14.3 9 14.3 0.5 17.3-7.5 17.3-7.5z"/><path class="d" d="m70.4 164.4v9.2h371.7v-9.2c0 0-0.8-1-2.3-2.8h-367.1c-1.5 1.8-2.3 2.8-2.3 2.8z"/><path class="d" d="m442.1 435.5v-15.8l-70.2-60.7 45-50.7h25.2v-11.9h-371.7v11.9h193.2l58 50.2-189.6 214.4-61.6-53.1v15.8l53.6 46.2-9.1 10.3-44.5-38.3v15.8l36.6 31.5-36.6 41.3v18.1l45.6-51.6 10 8.6-55.6 62.6v18l64.7-72.8 227.5 196h16.9l62.6-63.6v-17.1l-71 72.2-228-196.4 9.1-10.3 219.5 189.2 70.4-71.5v-17.1l-71 72.2-211-181.8 190.2-213.8 91.8 79.4v-15.8l-83.9-72.6 5.7-6.4zm-76-127.2l-22.9 25.9-29.8-25.9zm-84.2 0h13.1l40.2 34.8-5.6 6.5zm-148 300.2l-10-8.6 9.2-10.3 10 8.6zm17.1-19.2l-10.1-8.7 189.7-214.3 10.5 9.1zm198.1-222.8l-10.5-9.1 5.7-6.4 10.5 9.1zm3.1-24.5l29.8-33.7h18.8l-38 42.8z"/><path class="d" d="m251.1 374.5c0 0-29.2 6-51.9 28.2-22.7 22.2-31.5 45.2-31.5 45.2l-10.7-0.5c0 0-18.5-13.3-29.2-31-10.7-17.7-13.2-40.7-13.2-40.7l-5.3-3c0 0-0.7 24 12 45.5 12.7 21.4 33.2 33.2 33.2 33.2 0 0-0.5 6.2-0.7 8.4-0.3 2.3 0.7 8.8 0.7 8.8 0 0-2.2 4.5-3.7 7.7-1.5 3.3-3 10-3 10 0 0-5.8 6.2-11 14-5.3 7.7-3.8 24.4-3.8 24.4h11.5c0 0 3.5-7.7 10-17.2 6.5-9.5 9.7-12.2 9.7-12.2 0 0-0.2-6.3 0.5-9.7 0.8-3.5 3-10 3-10 0 0 0-12 0.3-15.8 0.2-3.7 7-9.4 8.5-13.9 1.5-4.5 12.2-21.5 28.9-38.5 16.7-16.9 46.7-27.2 46.7-27.2z"/><path class="e" d="m143.6 698.2c0 0 6.3-14.6 15-14.6 8.6 0 32.6 10.9 41.2 22.3 8.7 11.3 19.7 25.9 19.7 59.9 0 13.6-22 28.3-41.6 28.3-19.7 0-44.9-12-59.6-27-14.6-15-20.6-37.6-20.6-55.2 0-8 8.3-17 16-17 7.6 0 14.3 2 19.6 2.6 5.3 0.7 10.3 0.7 10.3 0.7z"/><path fill-rule="evenodd" class="f" d="m122.1 734.1c-6.8-1.5-11.7-5.4-11-8.7 0.8-3.3 6.9-4.7 13.7-3.2 6.9 1.6 11.8 5.5 11 8.8-0.7 3.3-6.9 4.7-13.7 3.1z"/><path fill-rule="evenodd" class="d" d="m122.1 734.1c-6.8-1.5-11.7-5.4-11-8.7 0.8-3.3 6.9-4.7 13.7-3.2 6.9 1.6 11.8 5.5 11 8.8-0.7 3.3-6.9 4.7-13.7 3.1z"/><path fill-rule="evenodd" class="g" d="m145.6 722c-4.2-3.8-5.2-9.6-2.2-13 3-3.3 8.9-2.9 13.1 0.9 4.3 3.9 5.2 9.7 2.2 13-3 3.3-8.8 2.9-13.1-0.9z"/><path fill-rule="evenodd" class="h" d="m171.4 713.7c-3.4-4.5-3.4-10.4 0.2-13.2 3.6-2.7 9.3-1.2 12.7 3.3 3.5 4.5 3.4 10.4-0.1 13.1-3.6 2.8-9.3 1.3-12.8-3.2z"/><path fill-rule="evenodd" class="i" d="m186.8 741.2c1.3-5.5 5.9-9.2 10.3-8.1 4.4 1 6.8 6.3 5.5 11.9-1.3 5.5-5.9 9.2-10.3 8.1-4.4-1-6.8-6.3-5.5-11.9z"/><path fill-rule="evenodd" class="j" d="m145.1 767.1c-5.5 1.8-11-0.3-12.3-4.6-1.4-4.3 1.9-9.1 7.3-10.9 5.4-1.7 11 0.4 12.3 4.6 1.4 4.3-1.9 9.2-7.3 10.9z"/><path class="k" d=""/><path class="d" d="m117.6 61.1c0 0-1.2-7.2-9.3-12.9-8.1-5.8-20.9-3.9-20.9-3.9 0 0 2.8 10.7 12.3 14.6 9.5 4 17.9 2.2 17.9 2.2z"/><path class="d" d="m106.8 83.6c0 0 1.1-7.2-4.9-15.2-5.9-8-18.7-10.1-18.7-10.1 0 0-0.6 11 7.2 17.7 7.8 6.7 16.4 7.6 16.4 7.6z"/><path class="d" d="m100.1 105.5c0 0 2.3-6.9-2.1-15.8-4.4-8.9-16.6-13.3-16.6-13.3 0 0-2.5 10.7 3.9 18.7 6.5 8 14.8 10.4 14.8 10.4z"/><path class="d" d="m75.1 101.8c0 0 3.2-6.5 0.1-15.9-3.2-9.4-14.7-15.4-14.7-15.4 0 0-4 10.2 1.4 19 5.3 8.8 13.2 12.3 13.2 12.3z"/><path class="d" d="m50.3 96.4c0 0 4.7-5.5 4-15.4-0.7-9.9-10.4-18.6-10.4-18.6 0 0-6.4 9-3.4 18.8 3 9.9 9.8 15.2 9.8 15.2z"/><path class="a" d="m321.3 38.5c0 0-4.7-8.7-1.8-19.9 3-11.1 16.8-16.5 16.8-16.5 0 0 6.1 13.5 0.3 23.4-5.7 10-15.3 13-15.3 13z"/><path class="a" d="m327.5 46.5c0 0 5.1-8.4 16.3-11.4 11.1-3 22.6 6.2 22.6 6.2 0 0-8.6 12-20.1 12-11.5 0-18.8-6.8-18.8-6.8z"/><path class="a" d="m323.5 55.9c0 0 10 0.2 18.1 8.4 8.2 8.1 5.9 22.7 5.9 22.7 0 0-14.6-1.4-20.4-11.4-5.8-10-3.6-19.7-3.6-19.7z"/><path class="a" d="m313.5 57.2c0 0 4.7 8.7 1.8 19.8-3 11.1-16.8 16.5-16.8 16.5 0 0-6.1-13.4-0.3-23.4 5.7-10 15.3-12.9 15.3-12.9z"/><path class="a" d="m307.3 49.1c0 0-5.1 8.5-16.2 11.5-11.2 3-22.7-6.3-22.7-6.3 0 0 8.6-12 20.1-12 11.5 0 18.8 6.8 18.8 6.8z"/><path class="a" d="m311.3 39.7c0 0-9.9-0.2-18.1-8.3-8.2-8.1-5.9-22.8-5.9-22.8 0 0 14.7 1.5 20.4 11.4 5.8 10 3.6 19.7 3.6 19.7z"/><path fill-rule="evenodd" class="a" d="m317.3 53.4c-3.1 0-5.6-2.5-5.6-5.6 0-3.1 2.5-5.7 5.6-5.7 3.1 0 5.6 2.6 5.6 5.7 0 3.1-2.5 5.6-5.6 5.6z"/><path class="k" d=""/><path class="d" d="m394.7 61.1c0 0 1.3-7.2 9.3-12.9 8.1-5.8 21-3.9 21-3.9 0 0-2.8 10.7-12.3 14.6-9.5 4-18 2.2-18 2.2z"/><path class="d" d="m405.5 83.6c0 0-1-7.2 4.9-15.2 5.9-8 18.8-10.1 18.8-10.1 0 0 0.5 11-7.3 17.7-7.8 6.7-16.4 7.6-16.4 7.6z"/><path class="d" d="m412.2 105.5c0 0-2.3-6.9 2.1-15.8 4.4-8.9 16.6-13.3 16.6-13.3 0 0 2.6 10.7-3.9 18.7-6.5 8-14.8 10.4-14.8 10.4z"/><path class="d" d="m437.3 101.8c0 0-3.3-6.5-0.1-15.9 3.1-9.4 14.7-15.4 14.7-15.4 0 0 3.9 10.3-1.4 19-5.3 8.8-13.2 12.3-13.2 12.3z"/><path class="d" d="m462.1 96.4c0 0-4.8-5.5-4-15.4 0.7-9.9 10.4-18.6 10.4-18.6 0 0 6.3 9 3.4 18.8-3 9.9-9.8 15.2-9.8 15.2z"/></g></svg>