<svg version="1.2" xmlns="http://www.w3.org/2000/svg" viewBox="0 0 196 244" width="196" height="244"><defs><linearGradient id="P" gradientUnits="userSpaceOnUse"/><radialGradient id="g1" cx="0" cy="0" r="1" href="#P" gradientTransform="matrix(45.637,0,0,45.637,96.969,120.29)"><stop stop-color="#fff"/><stop offset="1" stop-color="#d0ebf1"/></radialGradient><clipPath clipPathUnits="userSpaceOnUse" id="cp1"><path d="m87.54 79.85v26.14h-39.51v-26.14z"/></clipPath><linearGradient id="g2" x2="1" href="#P" gradientTransform="matrix(-0.33,30.402,-45.543,-0.495,71.916,78.922)"><stop stop-color="#e6cb9b"/><stop offset="1" stop-color="#fff"/></linearGradient><clipPath clipPathUnits="userSpaceOnUse" id="cp2"><path d="m146.07 79.85v25.05h-39.38v-25.05z"/></clipPath><linearGradient id="g3" x2="1" href="#P" gradientTransform="matrix(0,25.049,-39.388,0,126.381,79.851)"><stop stop-color="#e6cb9b"/><stop offset="1" stop-color="#fff"/></linearGradient></defs><style>.a{opacity:1;fill:none;stroke:#3f4e85;stroke-miterlimit:3.86400008;stroke-width:2}.b{opacity:1;fill:#fff}.c{opacity:1;fill:#62251b}.d{opacity:1;fill:none;stroke:#fff;stroke-miterlimit:3.86400008;stroke-width:1.2}.e{opacity:1;fill:url(#g1)}.f{opacity:1;fill:#1f4fa2}.g{opacity:1;fill:#ae7009}.h{opacity:1;fill:none;stroke:#ae7009;stroke-miterlimit:3.86400008;stroke-width:.7}.i{opacity:1;fill:none;stroke:#ae7009;stroke-miterlimit:3.86400008;stroke-width:1.2}.j{opacity:1;fill:url(#g2)}.k{opacity:1;fill:url(#g3)}.l{opacity:1;fill:#7ad3dc}.m{opacity:1;fill:#2590cf}.n{opacity:1;fill:none;stroke:#4da52c;stroke-miterlimit:3.86400008;stroke-width:.7}.o{opacity:1;fill:none;stroke:#231f20;stroke-miterlimit:3.86400008;stroke-width:.7}.p{opacity:1;fill:#008e43}.q{opacity:1;fill:#008e43;stroke:#4da52c;stroke-width:.7}.r{opacity:1;fill:none;stroke:#4da52c;stroke-width:.7}</style><path class="a" d="m105.8 1h-93.5c-4.5 70.3-6.9 101.5-11.2 164.2-3 43.4 58.8 47 96.5 77.1 37.6-30.1 99.4-33.7 96.4-77.1-4.3-62.7-6.7-93.9-11.2-164.2h-93.5z"/><path class="b" d="m105.8 1h-93.5c-4.5 70.3-6.9 101.5-11.2 164.2-3 43.4 58.8 47 96.5 77.1 37.6-30.1 99.4-33.7 96.4-77.1-4.3-62.7-6.7-93.9-11.2-164.2h-93.5z"/><path fill-rule="evenodd" class="c" d="m44.9 108.7c1.8 0 3.2 1.2 3.2 2.7v6.1c0 1.5-1.4 2.7-3.2 2.7h-7.5c-1.8 0-2.6-1.2-2.6-2.7l1.1-6.1c0.3-1.5 0.6-2.7 2.4-2.7zm47.1 0c1.8 0 3.3 1.2 3.3 2.7l-0.3 3.6c0 0-9.2 5.2-11 5.2h-30.3c-1.8 0-3.2-1.2-3.2-2.7v-6.1c0-1.5 1.4-2.7 3.2-2.7zm43.8 0c1.8 0 3.3 1.2 3.3 2.7v6.1c0 1.5-1.5 2.7-3.3 2.7h-18.1c-1.8 0-4.5-2-8.5-2.7l-10-2.2-0.9-3.9c0-1.5 1.4-2.7 3.2-2.7zm19.1 0c1.8 0 3.2 1.2 3.2 2.7l0.6 6.1c0 1.5-1.5 2.7-3.3 2.7h-11.6c-1.8 0-3.2-1.2-3.2-2.7v-6.1c0-1.5 1.4-2.7 3.2-2.7zm-98.7 13.9c1.8 0 3.3 1.2 3.3 2.7v9.1c0 1.5-1.5 2.7-3.3 2.7h-20.9c-1.8 0-3.2-1.2-3.2-2.7l1.7-9.1c0.3-1.5 1.1-2.7 2.9-2.7zm19 0c1.8 0 3.2 1.2 3.2 2.7l-6.9 9.1c0 1.5-1.4 2.7-3.2 2.7h-3.1c-1.8 0-3.2-1.2-3.2-2.7v-9.1c0-1.5 1.4-2.7 3.2-2.7zm51.8 0.1c1.8 0 3.3 1.2 3.3 2.7v9c0 1.3-1.1 2.3-2.6 2.6-1.4-0.3-2.5-1.3-2.5-2.6l-5.2-9c0-1.5-1.3-2.7 0.5-2.7zm1.5 14.4h-1.5q0.4 0 0.7-0.1 0.4 0.1 0.8 0.1zm28.7-14.4c1.8 0 3.3 1.2 3.3 2.7l1.2 9c0 1.5-1.5 2.7-3.3 2.7h-21.9c-1.8 0-3.2-1.2-3.2-2.7v-9c0-1.5 1.4-2.7 3.2-2.7zm-17.5 15.5c1.7 0 3.2 1.4 3.2 3.1v7.9c0 1.6-1.5 3-3.2 3h-8c-1.8 0-1.6-1.4-1.6-3l-2.8-7.9c0-1.7 1.4-3.1 3.2-3.1zm21 0.1c1.8 0 3.3 1.2 3.3 2.7l1.1 8.6c0 1.5-1.4 2.7-3.2 2.7h-12.4c-1.8 0-3.3-1.2-3.3-2.7v-8.6c0-1.5 1.5-2.7 3.3-2.7zm-117.4 0.8c1.8 0 3.3 1.2 3.3 2.7v7.8c0 1.5-1.5 2.7-3.3 2.7h-10.9c-1.8 0-3.2-1.2-3.2-2.7l1.7-7.8c0.3-1.4 0.6-2.7 2.4-2.7zm21.4 0c1.8 0 3.2 1.2 3.2 2.7l-2.3 7.8c0 1.5-1.4 2.7-3.2 2.7h-8.6c-1.8 0-3.3-1.2-3.3-2.7v-7.8c0-1.5 1.5-2.7 3.3-2.7z"/><path class="d" d="m129.8 150.8l-0.1 1.3q-12.6-0.1-65.5-0.1v-1.2c0-19.9 14.7-36.1 32.8-36.1 18.1 0 32.8 16.2 32.8 36.1z"/><path class="e" d="m64.2 150.8v1.2q52.9 0 65.5 0.1l0.1-1.3c0-19.9-14.7-36.1-32.8-36.1-18.1 0-32.8 16.2-32.8 36.1z"/><path fill-rule="evenodd" class="f" d="m16.1 159.1c0 0 8 5.3 17.8 5.3 9.9 0 17.8-5.3 17.8-5.3 0 0-7.9 12.3-17.8 12.3-9.8 0-17.8-12.3-17.8-12.3z"/><path fill-rule="evenodd" class="f" d="m58.1 159.1c0 0 8 5.3 17.8 5.3 9.9 0 17.9-5.3 17.9-5.3 0 0-8 12.3-17.9 12.3-9.8 0-17.8-12.3-17.8-12.3z"/><path fill-rule="evenodd" class="f" d="m100.2 159.1c0 0 8 5.3 17.8 5.3 9.8 0 17.8-5.3 17.8-5.3 0 0-8 12.3-17.8 12.3-9.8 0-17.8-12.3-17.8-12.3z"/><path fill-rule="evenodd" class="f" d="m142.2 159.1c0 0 8 5.3 17.8 5.3 9.8 0 17.8-5.3 17.8-5.3 0 0-8 12.3-17.8 12.3-9.8 0-17.8-12.3-17.8-12.3z"/><path fill-rule="evenodd" class="f" d="m121.2 169.4c0 0 8 5.3 17.8 5.3 9.8 0 17.8-5.3 17.8-5.3 0 0-8 12.3-17.8 12.3-9.8 0-17.8-12.3-17.8-12.3z"/><path fill-rule="evenodd" class="f" d="m79.2 169.4c0 0 7.9 5.3 17.8 5.3 9.8 0 17.8-5.3 17.8-5.3 0 0-8 12.3-17.8 12.3-9.9 0-17.8-12.3-17.8-12.3z"/><path fill-rule="evenodd" class="f" d="m37.1 169.4c0 0 8 5.3 17.8 5.3 9.9 0 17.8-5.3 17.8-5.3 0 0-7.9 12.3-17.8 12.3-9.8 0-17.8-12.3-17.8-12.3z"/><path fill-rule="evenodd" class="f" d="m58.1 179.9c0 0 8 5.2 17.8 5.2 9.9 0 17.9-5.2 17.9-5.2 0 0-8 12.2-17.9 12.2-9.8 0-17.8-12.2-17.8-12.2z"/><path fill-rule="evenodd" class="f" d="m100.2 179.9c0 0 8 5.2 17.8 5.2 9.8 0 17.8-5.2 17.8-5.2 0 0-8 12.2-17.8 12.2-9.8 0-17.8-12.2-17.8-12.2z"/><path fill-rule="evenodd" class="f" d="m79.2 190.4c0 0 7.9 5.2 17.8 5.2 9.8 0 17.8-5.2 17.8-5.2 0 0-8 12.2-17.8 12.2-9.9 0-17.8-12.2-17.8-12.2z"/><path fill-rule="evenodd" class="f" d="m79.3 152h35.3c0 0-7.9 8-17.6 8-9.8 0-17.7-8-17.7-8z"/><path fill-rule="evenodd" class="f" d="m174.6 181.3c0.4-0.2 0.5 0 0.8 0.1l2.3 2.9c0 0 0.7 0.4 0 2.4-0.4 1.2-0.5 1.8-1.4 2.5-0.4 0.3-6.9 5.4-6.9 5.4-0.2 0.2-0.5 0.3-0.7 0.4-0.3 0.1-0.5-0.1-0.6-0.1l-2.7-2.4c-0.2-0.3-0.4-0.6-0.3-1.1 0.1-0.4 0.1-0.6 0.1-0.9 0.1-0.4-2.1 0.7-2.2 0.3-0.1-0.3 0.2-2.3 0.7-2.7 0.3-0.3 0.3-0.1 1.3-0.5 1.2-0.5 2.8-0.9 2.9-0.8 0.4 0.5-0.1 1.7-0.5 2.5-0.4 0.8-0.9 0.4-1.1 0.9 0 0.3 0 0.5 0.1 0.7 0.2 0.2 1.1 0.9 1.9 1.2 0.5 0.1 1.2-0.5 1.2-0.5l5.6-4.4c0.4-0.2 0.8-0.6 1-0.9 0.1-0.3 0.2-0.5 0.1-0.7l-1.4-1.4q-0.1-0.1-0.3-0.1c-0.1 0-0.4 0-0.5 0.1l-2.6 1.1c0 0-1.5 2.7-2 2.9-0.5 0.1 1-4.5 1-4.5 0.2-0.3 0.4-0.6 0.7-0.9 0.3-0.3 2.5-1.2 3.5-1.5zm-37.8 28.4c0 0 0.5-0.2 0.5-0.4 0.1-0.1 0.1-0.2 0-0.3l-1.2-2.2c0 0-0.2-0.1-0.4-0.1-0.2 0-0.8 0.3-0.8 0.3l-6.4 2.8c-0.4 0.2-0.5 0.2-1.1 0.2-1.1-0.1-0.7-1-0.3-1.7 0.2-0.5 0.6-1.2 0.9-1.3 0.2-0.1 0.5 0 0.6 0 0.2 0 0.5-0.1 0.8-0.1l5.7-2.6c0 0 1.3-0.5 1.7-0.4 0.3 0 0.6 0 0.7 0.2l1.8 4c0 0 0.4 0 0.5 0 0.7 0.2 0.7 0.6 1 1 0.2 0.3 0.3 0.7-0.2 1.2-0.4 0.4-1.2 0.8-1.3 0.8l-9.6 4.6c0 0-0.8 0.4-0.9 0.3-0.3 0-0.5-0.7 0.4-2.5 0.1-0.3 1-0.7 1-0.7zm-51.1 3.1c0.4 0.1 0.2 0.3 0.7 0.5 0.7 0.3 0.9 0.3 1.4 0.4l6.5 0.8c0 0 1.2 0.2 1.8 0.6 0.4 0.2 0.3 0.6 0.3 0.7 0 0-1.2 5.9-1.4 6.5-0.1 0.2-1.4 0.7-1.7 0.3 0 0-0.1-0.1-0.1-0.1l0.7-5c0.1-0.2-0.1-0.4-0.3-0.5q-0.3-0.2-0.7-0.3l-8.5-1.1c-0.3-0.2-0.9-0.3-0.8-0.6 0-0.9 1.6-2.3 2.1-2.2zm-31.3-11.2c0.2 0.1 0.2 0.3 0.3 0.5 0.2 0.2 0.3 0.5 0.5 0.8l1.2 1.7c0.1 0.3 0.4 0.6 0.2 0.9-0.4 0.5-4.9 1.9-5.6 1.2-0.3-0.2 1-0.7 1.7-0.9 0.3-0.1 0.3-0.2 0.4-0.3 0-0.1-0.1-0.3-0.2-0.5l-1.3-2.1c-0.1-0.3-0.3-0.6-0.2-0.7 0.4-0.3 2.5-0.8 3-0.6zm-39.7-18.3c0.1-0.1 0.2-0.1 0.3-0.2 0.5-0.1 1.6 0.2 1.9 0.4 0.5 0.4 0.3 0.7 0.3 0.7l-1.4 1.8c-0.2 0.2-0.3 0.1-0.4 0.2-0.5 0.2-1.3 0.3-2.2-0.4-0.2-0.2-0.1-0.3-0.1-0.5zm4.3-3.7c0.3 0.3 0.3 0.4 0.3 0.5 0.1 0.4 0.5 0.7 0.5 0.7l5.8 4.5c0.1 0.1 0.2 0.2 0.3 0.2 0.4 0.3 0.7 0.1 1.1 0.4 0.5 0.4 0.3 0.9 0.4 1.4 0 0.7 0.1 1.6-0.4 1.5-0.6-0.1-1.4-0.3-1.4-0.3-0.3 0.1-0.5 0.1-0.8 0.1l-1.8 3.7c0 0-1.3 0.2-2.3-0.6-0.3-0.1-0.3-0.3-0.4-0.5l3.1-3.9q0.2-0.2 0.1-0.5c-0.1-0.2-0.7-0.7-0.7-0.7l-5.3-4.1c-0.2-0.2-1-0.8-1.2-1.3-0.5-1 0.3-0.9 1-1 0.6-0.1 1.4-0.3 1.7-0.1z"/><path fill-rule="evenodd" class="g" d="m95.6 42.6l3-0.3c0 17.1-1 50 1.8 50h-7.9c2.8 0 3.1-37.3 3.1-49.7z"/><path class="h" d="m95.6 42.6l3-0.3c0 17.1-1 50 1.8 50h-7.9c2.8 0 3.1-37.3 3.1-49.7z"/><path class="i" d="m48 95.4v-15.4h39.5v15.5"/><g clip-path="url(#cp1)"><path class="j" d="m48 106h39.5v-26.1h-39.5z"/></g><path fill-rule="evenodd" class="c" d="m40.4 94.7h17.5c1.8 0 3.3 1.2 3.3 2.6v7.2c0 1.5-1.5 2.7-3.3 2.7h-17.5c-1.7 0-3.2-1.2-3.2-2.7l1.1-7.2c0.3-1.4 0.4-2.6 2.1-2.6z"/><path class="i" d="m106.6 95.4v-15.4h39.5v15.5"/><g clip-path="url(#cp2)"><path class="k" d="m106.7 104.9h39.4v-25h-39.4z"/></g><path fill-rule="evenodd" class="c" d="m134.5 94.7h17.8c1.8 0 3.2 1.2 3.2 2.6l1.2 7.2c0 1.5-1.5 2.7-3.3 2.7h-18.9c-1.7 0-3.2-1.2-3.2-2.7v-7.2c0-1.4 1.5-2.6 3.2-2.6z"/><path fill-rule="evenodd" class="c" d="m85.7 97.4c0-1.5 1.5-2.7 3.3-2.7h16.2c1.8 0 3.2 1.2 3.2 2.7v7.1c0 1.5-1.4 2.7-3.2 2.7h-16.2c-1.8 0-3.3-1.2-3.3-2.7z"/><path class="l" d="m96.7 152.4c0.8-16.1 2.3-16.8 6.4-16.8 5.5 0 6.3 7.8 5.8 12.6 3.3-5.7-0.6-15.5-4.7-15.5-2.3-0.1-3.7 0.3-5.6 1.6 0.1-2.4 0.7-5.2 3-5.3 2.2 0 3.6 9.2 4.1 12.4 1.2-2.8 1.9-14.4-3.9-15.3-2.6-0.4-4.1 2.3-5.1 4.9z"/><path fill-rule="evenodd" class="m" d="m108.6 149.1c0-0.2 0.1-0.4 0.3-0.4 0.3 0 0.4 0.2 0.4 0.4 0 0.2-0.1 0.3-0.4 0.3-0.2 0-0.3-0.1-0.3-0.3z"/><path fill-rule="evenodd" class="m" d="m108.6 150.4c0-0.2 0.1-0.4 0.3-0.4 0.3 0 0.4 0.2 0.4 0.4 0 0.2-0.1 0.4-0.4 0.4-0.2 0-0.3-0.2-0.3-0.4z"/><path fill-rule="evenodd" class="m" d="m108.6 151.7c0-0.2 0.1-0.4 0.3-0.4 0.3 0 0.4 0.2 0.4 0.4 0 0.2-0.1 0.3-0.4 0.3-0.2 0-0.3-0.1-0.3-0.3z"/><path class="l" d="m96.7 152.4c-0.1-16.6-2.2-16.8-6.3-16.8-5.5 0-6.3 7.8-5.8 12.6-2-11.1 0.6-14.8 4.6-15.5 2.3-0.4 3.8 0.3 5.7 1.6-0.1-1.9-0.6-3.8-2.9-3.9-2.2 0-2.6 5.1-3.1 8.3 0-3.6-2.5-10.1 3.3-10.9 2.6-0.4 3.6 1.3 4.5 3.2z"/><path fill-rule="evenodd" class="m" d="m105.3 142.2c0-0.2 0.1-0.4 0.3-0.4 0.3 0 0.4 0.2 0.4 0.4 0 0.2-0.1 0.3-0.4 0.3-0.2 0-0.3-0.1-0.3-0.3z"/><path fill-rule="evenodd" class="m" d="m105.3 143.5c0-0.2 0.1-0.4 0.3-0.4 0.3 0 0.4 0.2 0.4 0.4 0 0.2-0.1 0.4-0.4 0.4-0.2 0-0.3-0.2-0.3-0.4z"/><path fill-rule="evenodd" class="m" d="m105.3 144.8c0-0.2 0.1-0.4 0.3-0.4 0.3 0 0.4 0.2 0.4 0.4 0 0.2-0.1 0.4-0.4 0.4-0.2 0-0.3-0.2-0.3-0.4z"/><path fill-rule="evenodd" class="m" d="m105.3 146c0-0.1 0.2-0.3 0.4-0.3 0.2 0 0.4 0.2 0.4 0.3 0 0.2-0.2 0.4-0.4 0.4-0.2 0-0.4-0.2-0.4-0.4z"/><path fill-rule="evenodd" class="m" d="m105.3 147.4c0-0.3 0.2-0.4 0.4-0.4 0.2 0 0.4 0.1 0.4 0.4 0 0.2-0.2 0.4-0.4 0.4-0.2 0-0.4-0.2-0.4-0.4z"/><path fill-rule="evenodd" class="m" d="m105.3 148.7c0-0.2 0.2-0.4 0.4-0.4 0.2 0 0.4 0.2 0.4 0.4 0 0.2-0.2 0.3-0.4 0.3-0.2 0-0.4-0.1-0.4-0.3z"/><path fill-rule="evenodd" class="m" d="m88.5 139.6c0-0.2 0.1-0.4 0.4-0.4 0.2 0 0.3 0.2 0.3 0.4 0 0.2-0.1 0.3-0.3 0.3-0.3 0-0.4-0.1-0.4-0.3z"/><path fill-rule="evenodd" class="m" d="m88.5 140.9c0-0.2 0.1-0.4 0.4-0.4 0.2 0 0.3 0.2 0.3 0.4 0 0.2-0.1 0.4-0.3 0.4-0.3 0-0.4-0.2-0.4-0.4z"/><path fill-rule="evenodd" class="m" d="m88.5 142.2c0-0.2 0.1-0.4 0.4-0.4 0.2 0 0.3 0.2 0.3 0.4 0 0.2-0.1 0.3-0.3 0.3-0.3 0-0.4-0.1-0.4-0.3z"/><path fill-rule="evenodd" class="m" d="m88.5 143.4c0-0.2 0.2-0.3 0.4-0.3 0.2 0 0.4 0.1 0.4 0.3 0 0.2-0.2 0.4-0.4 0.4-0.2 0-0.4-0.2-0.4-0.4z"/><path fill-rule="evenodd" class="m" d="m88.5 144.7c0-0.2 0.2-0.4 0.4-0.4 0.2 0 0.4 0.2 0.4 0.4 0 0.3-0.2 0.4-0.4 0.4-0.2 0-0.4-0.1-0.4-0.4z"/><path fill-rule="evenodd" class="m" d="m88.5 146c0-0.1 0.2-0.3 0.4-0.3 0.2 0 0.4 0.2 0.4 0.3 0 0.2-0.2 0.4-0.4 0.4-0.2 0-0.4-0.2-0.4-0.4z"/><path class="n" d="m95.6 42.2c-0.8-1.9-2.1-3-4.1-3.5-3.2-0.8-6.5 1.5-6.9 4.8-1.6-3.5 0.6-8 4.3-9 2.3-0.5 4-0.1 5.8 1.4-1.4-3.5-4.1-5.3-7.7-5.5-3-0.2-5 0.7-7 2.8 0.3-3.8 3-6.6 6.7-7 2.6-0.3 4.6-0.6 6.3 1.3-2.4-3.4-5.9-5.3-10.4-5.6-1.7-0.1-2.6 0-4.2 0.4 2.2-3 6.3-4.2 8.5-4.3 5.4-0.2 8.8 4.9 9.2 6.1-0.7-3.1-0.9-5-0.6-8.1 0.3-3.6 1.4-5.5 2.3-9 0.9 3.5 2 5.4 2.2 9 0.2 2.5 0 4-0.6 6.5 0.4-1.2 3.6-4.1 6.6-4.5 2.3-0.2 6.1 0.3 8.6 2.7-1.6-0.5-2.6-0.6-4.2-0.4-2.6 0.4-4.3 1.4-5.8 3.6 1.5-0.7 2.5-0.9 4.2-0.8 3.7 0.4 6.5 3.2 6.7 7-1.9-2.2-4-3-6.9-2.8-3.8 0.2-6.6 2.3-7.8 6 1.9-1.3 3.6-1.5 5.8-0.8 3.3 1.1 5.2 4.5 4.4 7.9-1.3-2.8-3.9-4.2-7-3.8-3.1 0.5-4.8 2.5-5.1 5.6z"/><path class="o" d="m98.6 42.4h-0.2"/><path class="o" d="m98.6 42.4"/><path class="o" d="m98.7 42.4"/><path class="h" d="m98.9 42.5l-0.3-0.1"/><path class="h" d="m98.8 42.4h-0.2"/><path class="h" d="m98.7 42.4h-0.1"/><path class="h" d="m98.7 42.4h-0.2"/><path fill-rule="evenodd" class="p" d="m95.6 42.2c-0.8-1.9-2.1-3-4.1-3.5-3.2-0.8-6.5 1.5-6.9 4.8-1.6-3.5 0.6-8 4.3-9 2.3-0.5 4-0.1 5.8 1.4-1.4-3.5-4.1-5.3-7.7-5.5-3-0.2-5 0.7-7 2.8 0.3-3.8 3-6.6 6.7-7 2.6-0.3 4.6-0.6 6.3 1.3-2.4-3.4-5.9-5.3-10.4-5.6-1.7-0.1-2.6 0-4.2 0.4 2.2-3 6.3-4.2 8.5-4.3 5.4-0.2 8.8 4.9 9.2 6.1-0.7-3.1-0.9-5-0.6-8.1 0.3-3.6 1.4-5.5 2.3-9 0.9 3.5 2 5.4 2.2 9 0.2 2.5 0 4-0.6 6.5 0.4-1.2 3.6-4.1 6.6-4.5 2.3-0.2 6.1 0.3 8.6 2.7-1.6-0.5-2.6-0.6-4.2-0.4-2.6 0.4-4.3 1.4-5.8 3.6 1.5-0.7 2.5-0.9 4.2-0.8 3.7 0.4 6.5 3.2 6.7 7-1.9-2.2-4-3-6.9-2.8-3.8 0.2-6.6 2.3-7.8 6 1.9-1.3 3.6-1.5 5.8-0.8 3.3 1.1 5.2 4.5 4.4 7.9-1.3-2.8-3.9-4.2-7-3.8-3.1 0.5-4.8 2.5-5.1 5.6z"/><path class="i" d="m110.2 83.3h13.5v8.4h-13.5z"/><path fill-rule="evenodd" class="b" d="m110.2 83.3h13.5v8.4h-13.5z"/><path class="i" d="m51.4 83.3h31.1v5.1h-31.1z"/><path fill-rule="evenodd" class="b" d="m51.4 83.3h31.1v5.1h-31.1z"/><path fill-rule="evenodd" class="g" d="m136.5 51.7l3.5 1.7c-0.6 28.5-1.1 38.9 0.5 38.9h-5.1c1.7 0 1.1-22.2 1.1-40.6z"/><path fill-rule="evenodd" class="q" d="m143.7 52.9c-1.2 0-2.1 0-3.1 0.3h-5.1c-1.2-0.3-2-0.3-3.3-0.3-2.4 0.1-3.9 0.5-5.9 1.8 0.4-2.8 2.2-4.6 5-5.1 1.3-0.3 2.2-0.2 3.4 0.3q-1.3-3-4.7-3.2c-1.9 0-3.3 0.6-4.5 2.1-0.7-3.1 1.2-6.1 4.2-6.9 3.2-0.9 6.6 1.1 7.4 4.3-0.2-2.3-0.3-3.6-0.2-5.9 0.2-3 0.4-4.8 1-7.8 0.7 3 0.9 4.8 1.1 7.8 0.1 2.3 0 3.6-0.2 5.9 0.8-3.2 4.2-5.2 7.4-4.3 3 0.8 4.9 3.8 4.2 6.9-1.2-1.5-2.5-2.1-4.5-2.1q-3.3 0.2-4.7 3.2c1.2-0.5 2.1-0.6 3.4-0.3 2.8 0.5 4.6 2.3 5 5.1-2-1.3-3.4-1.7-5.9-1.8z"/><path fill-rule="evenodd" class="p" d="m143.7 52.9c-1.2 0-2.1 0-3.1 0.3h-5.1c-1.2-0.3-2-0.3-3.3-0.3-2.4 0.1-3.9 0.5-5.9 1.8 0.4-2.8 2.2-4.6 5-5.1 1.3-0.3 2.2-0.2 3.4 0.3q-1.3-3-4.7-3.2c-1.9 0-3.3 0.6-4.5 2.1-0.7-3.1 1.2-6.1 4.2-6.9 3.2-0.9 6.6 1.1 7.4 4.3-0.2-2.3-0.3-3.6-0.2-5.9 0.2-3 0.4-4.8 1-7.8 0.7 3 0.9 4.8 1.1 7.8 0.1 2.3 0 3.6-0.2 5.9 0.8-3.2 4.2-5.2 7.4-4.3 3 0.8 4.9 3.8 4.2 6.9-1.2-1.5-2.5-2.1-4.5-2.1q-3.3 0.2-4.7 3.2c1.2-0.5 2.1-0.6 3.4-0.3 2.8 0.5 4.6 2.3 5 5.1-2-1.3-3.4-1.7-5.9-1.8z"/><path fill-rule="evenodd" class="g" d="m56 51.7l3.4 1.7c-0.6 28.5-1.1 38.9 0.6 38.9h-5.2c1.7 0 1.2-22.2 1.2-40.6z"/><path fill-rule="evenodd" class="r" d="m63.2 52.9c-1.3 0-2.1 0-3.1 0.3h-5.2c-1.1-0.3-2-0.3-3.3-0.3-2.4 0.1-3.8 0.5-5.9 1.8 0.4-2.8 2.3-4.6 5-5.1 1.4-0.3 2.2-0.2 3.5 0.3q-1.4-3-4.8-3.2c-1.9 0-3.3 0.6-4.4 2.1-0.7-3.1 1.1-6.1 4.2-6.9 3.2-0.9 6.6 1.1 7.3 4.3-0.2-2.3-0.2-3.6-0.1-5.9 0.1-3 0.3-4.8 1-7.8 0.7 3 0.9 4.8 1 7.8 0.1 2.3 0.1 3.6-0.1 5.9 0.7-3.2 4.1-5.2 7.3-4.3 3.1 0.8 4.9 3.8 4.3 6.9-1.2-1.5-2.6-2.1-4.5-2.1q-3.4 0.2-4.8 3.2c1.3-0.5 2.1-0.6 3.5-0.3 2.7 0.5 4.6 2.3 5 5.1-2.1-1.3-3.5-1.7-5.9-1.8z"/><path fill-rule="evenodd" class="p" d="m63.2 52.9c-1.3 0-2.1 0-3.1 0.3h-5.2c-1.1-0.3-2-0.3-3.3-0.3-2.4 0.1-3.8 0.5-5.9 1.8 0.4-2.8 2.3-4.6 5-5.1 1.4-0.3 2.2-0.2 3.5 0.3q-1.4-3-4.8-3.2c-1.9 0-3.3 0.6-4.4 2.1-0.7-3.1 1.1-6.1 4.2-6.9 3.2-0.9 6.6 1.1 7.3 4.3-0.2-2.3-0.2-3.6-0.1-5.9 0.1-3 0.3-4.8 1-7.8 0.7 3 0.9 4.8 1 7.8 0.1 2.3 0.1 3.6-0.1 5.9 0.7-3.2 4.1-5.2 7.3-4.3 3.1 0.8 4.9 3.8 4.3 6.9-1.2-1.5-2.6-2.1-4.5-2.1q-3.4 0.2-4.8 3.2c1.3-0.5 2.1-0.6 3.5-0.3 2.7 0.5 4.6 2.3 5 5.1-2.1-1.3-3.5-1.7-5.9-1.8z"/></svg>