<svg version="1.2" xmlns="http://www.w3.org/2000/svg" viewBox="0 0 414 222" width="414" height="222"><defs><clipPath clipPathUnits="userSpaceOnUse" id="cp1"><path d="m-3.9 227.17h422.3v-234.52h-422.3z"/></clipPath><clipPath clipPathUnits="userSpaceOnUse" id="cp2"><path d="m230.69 0c-21.64 0-39.19 17.55-39.19 39.19v143.68c0 21.65 17.55 39.2 39.19 39.2h143.69c21.65 0 39.19-17.55 39.19-39.2v-143.68c0-21.64-17.54-39.19-39.19-39.19z"/></clipPath></defs><style>.a{fill:#fff}.b{fill:#ee334b}.c{fill:#ef3e2e}.d{fill:#961e1f}.e{fill:#d52027}.f{fill:#7ec468}.g{fill:none;stroke:#fff;stroke-miterlimit:10;stroke-width:1.6}.h{fill:#96ca4d;stroke:#fff;stroke-miterlimit:10;stroke-width:1.6}.i{fill:#96ca4d}.j{fill:#c9cb4a}.k{fill:#6ec05d}.l{fill:#c9cb4a;stroke:#fff;stroke-miterlimit:10;stroke-width:1.6}.m{fill:#4cb85c}.n{fill:#6bb268}.o{fill:#7ec468;stroke:#fff;stroke-miterlimit:10;stroke-width:1.6}.p{fill:#96ca4d;stroke:#fff;stroke-miterlimit:10;stroke-width:2.3}.q{fill:#b2cb47}.r{fill:#b2cb47;stroke:#fff;stroke-miterlimit:10;stroke-width:1.6}.s{fill:#176b42}</style><g style="opacity:1"><g clip-path="url(#cp1)"><path class="a" d="m230.7 0c-21.7 0-39.2 17.5-39.2 39.2v143.7c0 21.6 17.5 39.2 39.2 39.2h143.7c21.6 0 39.2-17.6 39.2-39.2v-143.7c0-21.7-17.6-39.2-39.2-39.2z"/></g><g clip-path="url(#cp2)"><path class="b" d="m267.5 136.3c3 1.8 7.3 3.7 13.3 4.9 6.6-10.9 0.5-15.6 0.5-15.6l-1.6-1.2 9.1-10.7-12.2-3.7-16.7 19.7c1 1.4 3.3 4.1 7.6 6.6z"/><path class="c" d="m306.8 72.4l-1.3 19.2 22.7 15.8c1.3-3.2 3.6-8.1 7.2-14.2-11.1-13.3-24.1-19.1-28.6-20.8z"/><path class="d" d="m282.7 83.8l-4.5 22.8 35.5 10.8 9.9-5.2z"/><path class="e" d="m299.1 145.9q-3.1 0.1-5.8 0.1c-22.7 0-32.5-9.1-35.9-13.4l-7 8.3c10.3 8.7 27.1 14.6 50 17.4z"/><path class="c" d="m255.9 83.5c-2.8 1.4-5.2 3.2-7.1 4.8l25.9 16.5 4.5-22.7c-8.2-2.7-16-2.2-23.3 1.4z"/><path class="d" d="m241.5 129.9q2.3 4.5 6.1 8.4l25.6-30-27.2-17.4c-1.4 1.5-2.2 2.6-2.4 2.9-0.6 1.1-10.7 19.3-2.1 36.1z"/><path class="d" d="m355.3 161.7l-26.6-27.9-12.3-13.5-1.6 0.8-13.8 7.5 3.2 30.1q1.7 0.2 3.5 0.4z"/><path class="c" d="m364.4 140.4l-12.1-8.4-11.5 9.1 20 20.9 18.6 1z"/><path class="e" d="m292.7 114.9l-7.8 9.1c2 2.5 4.9 8.4-0.2 17.8 4 0.5 8.7 0.7 14 0.3l-1.7-15.6 12.1-6.6z"/><path class="e" d="m303.3 68.1l18.2-20.6c-16.3-7.6-25.3 0.6-25.8 1.1l-0.1 0.1c-0.6 0.4-13.7 10.9-5.8 32.1l12.1 8.4z"/><path class="e" d="m327.1 114.6l-7.3 3.9 11.6 12.7 6.8 7.2 10.9-8.6z"/><path class="d" d="m348.6 80.7c-3.5 4.4-6.4 8.6-8.8 12.4 2 3.8 10.5 18.4 27.3 25.9-5.2-13.5-11.1-27.7-17.4-39.7q-0.5 0.7-1.1 1.4z"/><path class="e" d="m331.6 53.9c-2.3-1.8-4.6-3.3-6.7-4.6l-17.1 19.4c4.4 1.7 17.8 7.5 29.7 21.2 2.2-3.6 4.9-7.4 8.1-11.4q1.1-1.4 2.2-2.8c-5.3-9.8-10.8-17.7-16.2-21.8z"/><path class="b" d="m337.6 96.9c-3.2 5.5-5.2 10-6.2 12.7l37.7 26.1 8.4 12.6c-2.4-7-5.3-15.5-8.7-24.6-17.8-6.6-27.6-20.6-31.2-26.8z"/><path class="f" d="m299.1 161.9c-32.3-4.2-52.8-14.3-61-30.3-9.7-19.1 1.8-38.9 2.3-39.8l0.1-0.1q0 0 0.4-0.5l-27.1-56-23.4 26.7v90.9c12.6 5.6 52.7 23.2 83.9 35z"/><path class="g" d="m299.1 161.9c-32.3-4.2-52.8-14.3-61-30.3-9.7-19.1 1.8-38.9 2.3-39.8l0.1-0.1q0 0 0.4-0.5l-27.1-56-23.4 26.7v90.9c12.6 5.6 52.7 23.2 83.9 35z"/><path class="h" d="m327.2 213.7c-3.7-7.2-9.1-9.5-15.8-9.5-5.6 0-19.1-5.7-35.2-11.7l-5.1 30.7h59.5c-0.5-2.1-1.5-5.9-3.4-9.5z"/><path class="i" d="m413.7 151.7c-4.9 5.9-11.9 14.5-18.3 23.7l18.3 28.8z"/><path class="g" d="m413.7 151.7c-4.9 5.9-11.9 14.5-18.3 23.7l18.3 28.8z"/><path class="j" d="m414.7 34.5c-30.3 10.8-50.2 27.7-62.4 41.7 15.1 28.3 28.4 69.4 32.8 83.6l8.1 12.2c7.9-10.6 16.4-20.4 21.5-26z"/><path class="g" d="m414.7 34.5c-30.3 10.8-50.2 27.7-62.4 41.7 15.1 28.3 28.4 69.4 32.8 83.6l8.1 12.2c7.9-10.6 16.4-20.4 21.5-26z"/><path class="k" d="m391.4 181c-5.1 7.4-9.5 14.8-11.8 21.2-3.8 10.2-13.8 15.9-28.9 16.6q-1.5 0.1-3 0.1c-6.1 0-11.5-0.8-14.9-1.4 0.9 2.4 1.3 4.4 1.6 5.7h80.3v-7.1z"/><path class="g" d="m391.4 181c-5.1 7.4-9.5 14.8-11.8 21.2-3.8 10.2-13.8 15.9-28.9 16.6q-1.5 0.1-3 0.1c-6.1 0-11.5-0.8-14.9-1.4 0.9 2.4 1.3 4.4 1.6 5.7h80.3v-7.1z"/><path class="l" d="m226 172.3c-15.2-6.4-28.5-12.2-35.6-15.4v66.3h45.6c-0.9-22.3-8.5-46.3-10-50.9z"/><path class="m" d="m267.3 223.2l5.4-32c-13.5-5.1-28.4-11.2-42.2-17 2.7 8.5 8.5 29.2 9.3 49z"/><path class="g" d="m267.3 223.2l5.4-32c-13.5-5.1-28.4-11.2-42.2-17 2.7 8.5 8.5 29.2 9.3 49z"/><path class="j" d="m234.7 11.6l23.1 30.5 44.2-28.2h0.6c1.8 0.1 42 2.1 59.5 4.7-3-7.3-7-14.3-12.2-19.7h-104z"/><path class="g" d="m234.7 11.6l23.1 30.5 44.2-28.2h0.6c1.8 0.1 42 2.1 59.5 4.7-3-7.3-7-14.3-12.2-19.7h-104z"/><path class="n" d="m237.2-1.1h-46.8v53.1z"/><path class="g" d="m237.2-1.1h-46.8v53.1z"/><path class="o" d="m374.7 51c10.8-7.7 24-14.9 40-20.5v-31.6h-59.8c13.7 16.5 18.5 43 19.8 52.1z"/><path class="p" d="m371.3 53.5c-0.5-3.7-2.5-17.2-7.6-30.9-14.8-2.5-55.3-4.7-60.7-4.9l-43 27.4 24 31.6 0.8 0.6c-2.4-9.5-0.8-16.8 1.2-21.6 2.7-6.1 6.6-9.4 7.2-9.9 0.6-0.6 4.4-3.8 11-4.9 6.3-1 16.7-0.1 29.7 10.1 5.5 4.2 11.1 12.1 16.5 21.7 5.5-6.1 12.4-12.8 20.9-19.2z"/><path class="q" d="m243.6 88.1c2.3-2.4 5.8-5.5 10.6-7.9 5.4-2.6 12.9-4.7 22.2-2.7l-46.2-60.9-13.7 15.6z"/><path class="g" d="m243.6 88.1c2.3-2.4 5.8-5.5 10.6-7.9 5.4-2.6 12.9-4.7 22.2-2.7l-46.2-60.9-13.7 15.6z"/><path class="r" d="m376.1 200.9c2.6-7.1 7.5-15.2 13-23.2l-7.1-10.8-74.6-4.1q-1.9-0.2-3.7-0.4l-25.6 26.9c15.4 5.7 28.1 9.8 33.3 9.8 8.1 0 14.8 4.5 19.2 13q0.3 0.6 0.6 1.3c5.7 1.2 37.6 6.9 44.9-12.5z"/></g><path class="s" d="m0 22.4v-15.2h41q2.5 0 4.2 1.5 1.8 1.5 1.8 3.7v53.9h-19.3v-43.9z"/><path class="s" d="m57.7 66.3v-15.1h29.2q4.9 0 6.4-1.4 1.5-1.5 1.5-5v-22.4h-18.1l-1.3 9.7h8.1v12.8h-19.4q-2.4 0-4.5-1.9-2-2-1.6-4.7l4.7-31.1h45.4q2.5 0 4.3 1.5 1.7 1.5 1.7 3.7v34.2q0 8.3-6.5 14.1-6.5 5.6-16.3 5.6z"/><path class="s" d="m124.5 66.3v-15.1h20.1q4.9 0 6.4-1.4 1.5-1.5 1.5-5v-22.4h-28v-15.2h41.2q2.5 0 4.3 1.5 1.7 1.5 1.7 3.7v34.2q0 8.3-6.5 14.1-6.4 5.6-16.3 5.6z"/><path class="s" d="m2.2 96.1v-15.2h34.2q10.6 0 15.8 5.5 5.2 5.3 5.2 14.2v39.4h-19.2v-39.4q0-2.8-0.9-3.6-1-0.9-3.3-0.9zm0 43.9v-30.5h19.3v30.5z"/><path class="s" d="m66.6 140v-15.1h10.2q2.3 0 3.3-0.8 0.9-0.9 0.9-3.7v-24.3h-10.6v-15.2h23.8q2.5 0 4.3 1.5 1.7 1.5 1.7 3.7v34.2q0 9-5.2 14.4-5.2 5.3-15.7 5.3z"/><path class="s" d="m109.5 96.1v-15.2h19.6q2.6 0 4 1.3 1.5 1.3 1.5 3.3v54.5h-19.4v-43.9z"/><path class="s" d="m143.8 96.1v-15.2h21.9q2.5 0 4.3 1.5 1.7 1.4 1.7 3.4v27.8h-19.3v-17.5z"/></g></svg>