<svg version="1.2" xmlns="http://www.w3.org/2000/svg" viewBox="0 0 231 358" width="231" height="358"><style>.a{fill:#fff}.b{fill:#034ea2}.c{fill:#ed1d24}.d{fill:#0db14b}.e{fill:#fff200}</style><g style="opacity:1"><path class="a" d="m7.9 61.7h216.9v242.4c0 0-10.4 25.6-23.5 27-13.1 1.4-68.4 4.1-73.9 9-5.6 4.8-11.1 9.6-11.1 9.6 0 0-8.3-8.9-29.7-11-21.4-2.1-67-4.9-73.2-12.5-6.2-7.5-7.6-29-7.6-33.8 0-4.8 2.1-230.7 2.1-230.7z"/><path class="b" d="m19.9 287.3q1.4-4.5 1.3-7.7l-0.1-8.9q0-1.1-0.1-2.1-0.2-0.8-0.4-1.7 4.4 1.3 8 1.3h3.4q0.1 0.4 0.2 0.8 0.1 0.7 0.1 1.4v8h17.9q0.2 0 0.3 0.2 0 0.1-0.1 0.5l-0.6 2.8q-1.6 6.6-1.6 10.9l0.1 6.8q0.1 7.9-3.4 12.5-3.7 4.8-10.4 4.8h-8q-0.1-5.7 2.1-9.4h2q2.8 0 4.5-2 1.7-2 1.7-5.5v-3.7q-0.1-5.8 0.9-8.4h-12.9q-3.5 0-4.9-0.6z"/><path class="a" d=""/><path class="b" d="m101.1 273.4q0 0 0.1 0c0.1 0 0.3 0.1 0.3 0.1z"/><path class="b" d="m116.1 272.3l-0.3-0.3c0 0 0.5 0.3 0.8 0.4h-0.1zm0.9 0.4c0 0 0.3 0.1 0.5 0.1 0.1 0.1 0.1 0.1 0.3 0.1h-0.3zm18.3 0.6c0 0 0 0 0.1 0.1h-0.2-0.4zm-6 1.4c-0.1 0.1-0.1 0.2-0.1 0.2l-0.2 0.1c0.1-0.1 0.2-0.2 0.3-0.3zm-0.4 0.5c-0.1 0.1-0.2 0.2-0.2 0.2q0 0-0.2 0.1c0.2-0.1 0.2-0.2 0.4-0.3zm-0.9 1.3c0 0-0.3 0.2-0.4 0.3q-0.1-0.1-0.1-0.1c0-0.1 0.5-0.2 0.5-0.2zm-3.8 3.2c0 0 0.1-0.1 0.2-0.1 0 0-0.4 0.5-0.4 0.5l-0.3 0.3-0.2 0.2c-0.2 0.1-0.4 0.3-0.4 0.3zm29.3 9.7zm-42.2 2.4h0.1c0 0.4 0 0.7 0 0.7 0 0 0-0.5-0.1-0.7zm20.4-0.3v0.2 0.1c0 0 0-0.3 0-0.3zm-0.8 1l0.1 0.3h-0.1c0-0.1 0-0.3 0-0.3zm-4.7 16.3v0.1z"/><path class="a" d="m103.3 58c1.4-0.7 6-1.5 10.9-1.8 4.9 0.4 9.5 1.1 10.9 1.8 0 0 0.3 0.1 0.4 0.2 1 0.4 2 0.9 2 0.9q0.8 0.5 1.7 1.1c-3.2-0.2-6.5 0.5-9.4 2.2-2.1 1.2-9.1 1.2-11.2 0-2.9-1.7-6.2-2.4-9.4-2.2 0.6-0.4 1.2-0.8 1.7-1.1 0 0 1-0.5 1.9-0.9 0.1-0.1 0.5-0.2 0.5-0.2z"/><path class="c" d="m83.9 79.9c0 0 0.3-9.4 4.7-13.1 0 0-5.3-9.1-24.4-7.9-18.1 1.3-18.8 17-18.8 21.6 0 6.4 6.6 18.8 23.8 26.4 17.2 7.5 24.3 13.6 26.9 13 0 0-12.2-8.4-12.2-40zm-18.5-24.1c15.4 0 25.7 7.5 25.7 7.5 1-4.7 7.8-8.1 7.8-8.1 0 0-9.4-13.1-13.1-22.2-3.8-9.1-9.4-17.8-18.8-17.8-9.4 0-28.5 4-28.5 21.3 0 17.2 15.4 21.8 15.4 21.8 0 0 4.6-2.5 11.5-2.5zm98.8 3.1c-19.1-1.2-24.4 7.9-24.4 7.9 4.4 3.7 4.7 13.1 4.7 13.1 0 31.6-12.2 40-12.2 40 2.6 0.6 9.7-5.5 26.9-13 17.2-7.6 23.8-20 23.8-26.4 0-4.6-0.7-20.3-18.8-21.6zm-2.8-43.7c-9.4 0-15.1 8.7-18.8 17.8-3.8 9.1-13.1 22.2-13.1 22.2 0 0 6.8 3.4 7.8 8.1 0 0 10.3-7.5 25.6-7.5 6.9 0 11.6 2.5 11.6 2.5 0 0 15.4-4.6 15.4-21.8 0-17.3-19.1-21.3-28.5-21.3zm-39.4 51.1c-3.5 2-12.1 2-15.5 0-7-4-19.5-2.4-19.5 16.4 0 41.1 25.3 44.1 27.4 44.1 2 0 26.9-3 26.9-44.1 0-18.8-12.4-20.4-19.3-16.4zm-20.6-12.3c3.4-1.6 12.4-2.2 12.8-2.2 0.4 0 9.4 0.6 12.8 2.2 0 0 11.5-13.2 14.3-34.8 3.1-23.3-21.5-18.8-27.1-18.8-5.6-0.1-30.2-4.5-27.2 18.8 2.9 21.6 14.4 34.8 14.4 34.8z"/><path class="d" d="m181.1 234.8c12.5 0.3 18.2 8.4 32 6.9l0.3-45c-9.2 1.2-13.4-3.1-20.6-4.9-12.8 15.5-39 6.3-50.4 23.2-8.9-2.7-8.2-16.8-22.3-13.5l-7.2 1.3-12.2 3c-10.2-4-10.9-17.6-23.7-17.5-8.3-5.2-20.1-1.7-27.1-7.7-7.7 5-22.4 7.3-32.5 9.1v36.2c0 0 13.6-2.6 18.9-4.9 9.5 2.4 12.6-5.3 20.1-6.8 9.8-3 13.5 6.3 21.3 7.9 6 6.6 12.9 14.6 22.5 18.6 4.5 1.4 7.3 4.9 7.7 8.3-1.4 2.9-5.3 2.3-8.4 2.8-9.2-3.3-21.4-2.7-29.5 1.8-3.3-0.7-6.2-3.2-10-1.8-17 2.6-31.3-4.5-42.6-14.2-1 5.2-0.3 11.9 7.1 15.4 29.4 5.8 70.7-1.6 93.8 13 25.2-13.8 52.9-6.8 83.5-9.2 5.3-1.5 10.7-3.4 11.1-8.6-5.1 3.6-9.5 6.6-16.2 5.1l1.5-2.1c-7-1.4-9.2-0.6-15.3-1.9 4.1-1.7 6.6 0.1 11.4-2.3l-4.8-3.5c-4.5-0.6-7.7 4.8-11.2 2.7 1.1-3.9-4.3-8.5 2.8-11.4zm-7.1 14.1c-15.9 6.1-32.2 0.2-48.9 4.2-10.4-2.7-7.7-12.7-17-16.9-5.9-4.4-8.6-11.2-17.6-13.3 0.6-7.3 20-4.9 15.3-15 5.9-3.1 10.8-4 18.1-2.4 10 2.5 14.4 12.9 25.3 15.3 5.8 7.4 12.8 12.9 24.3 14-4.1 5.7 6.5 9 0.5 14.1zm-42.3-17.9c-0.2-0.3-0.8-0.7-0.5-1.1-3.6-0.2-6.1-2-9.4-2.9-2.5-1.8-8.7-1.8-9.5 1 5.8 2.2 13 6.3 19.4 3zm34.5 12.5c-5.2-5.9-14.2-3.7-21.9-6.9-6.3 4.1 7.7 3.9 2 7.6-12-2.5-18.6-14-34.5-10.8l-1.6 2.5c6.9 3 6.5 9.7 11.8 14.1 4.5 1.3 9.1 0.4 13.2-0.5 13.7-1.6 26.3 4.8 37-2.6-1.8-1.7-3.7-2.9-6-3.4zm-97.6-5.1l-5.3-0.2c-6.3-7.8-18.1-1.3-26.5-3.1l-0.2 2.5c-2.8 3.7-8.5-0.7-11.4 0.2 9.3 5.9 21.1 15.3 36 10.5 7.3 4.9 15.7-1.5 23.9-1.2 6.8-0.2 12.5 3.8 18.9 1.4 1-1.5-1-2.2-0.9-3.2-4.1-2.5-7.4 0.1-11.6-0.9-6.8-7.7-14.1 2.6-21.8-0.4 1.8-1.6 0.2-4-1.1-5.6z"/><path class="e" d="m194 184l-34.7 15c-0.3-0.9-0.6-1.7-1-2.5l33.7-17.1-5.1-8.9-31.5 20.8c-0.5-0.8-0.9-1.6-1.5-2.3l30.2-22.7-6.5-7.8-27.4 25.9c-0.6-0.7-1.2-1.4-1.9-2l25.8-27.6-7.8-6.5-22.4 30.2q-1.1-0.9-2.2-1.6l20.6-31.7-8.8-5.1-16.9 33.7c-0.8-0.4-1.6-0.8-2.5-1.2l14.8-34.8-9.5-3.4-10.8 36.1q-1.3-0.4-2.6-0.7l8.5-36.9-10-1.8-4.3 37.6c-0.1 0-0.2 0-0.1 0.3v30.1-0.3c14.1-3.3 13.4 10.7 22.3 13.4 11.4-16.8 37.6-7.5 50.4-23.1 1.2 0.3 2.3 0.7 3.4 1.1zm-158.1-6.4l7 3.5c2.7-0.9 5.1-2 7-3.3 3 2.6 6.8 3.4 10.9 3.9l-19.8-12.9zm68.3-46.9l-10 1.8 8.9 37c-0.9 0.2-1.8 0.4-2.7 0.7l-11.1-36.6-9.5 3.5 15.1 35c-0.8 0.4-1.6 0.8-2.4 1.2l-17.4-34.2-8.8 5.1 21.1 32c-0.7 0.4-1.5 1-2.2 1.5l-23.2-30.7-7.8 6.5 26.5 28q-1 0.9-1.9 1.9l-28.3-26.4-6.5 7.8 24.1 17.9c3.2 0.4 6.2 1.2 8.9 2.8 12.8-0.1 13.5 13.5 23.7 17.5l8.4-2.2v-32.4c0.3 0.1 0.1 0.1-0.2 0.1z"/><path class="b" d="m230.5 54.3h-42.9c-2.9 3.2-8.3 5.8-8.3 5.8 1.8 1.4 3.4 3.8 4.6 6.4h34.2l0.3 229.8v0.2c-0.1 34.5-26.9 32.5-61.1 32.5-28.1 0-38.8 10-41.7 13.6v0.1l-0.1-0.1c-2.9-3.6-13.6-13.6-41.7-13.6-34.2 0-61 2-61.2-32.5v-0.2l-0.3-229.8h32.1c1.5-3.8 3.6-6.7 3.6-6.7-1.9-1.2-4.4-3.7-6.1-5.5h-41.9l0.3 251.5v0.3-2.8c0.2 37.9 30.7 38.5 68.3 38.5 31.6 0 43.1 11.4 46.1 15.2l0.8 1.2c0 0 9.2-16.4 47-16.4 37.6 0 68.1-0.6 68.2-38.5v2.8-0.3z"/><path  d="m96.6 61.7c0 0 6.4-1.5 11.6 2 4.9 3.2 10.8 1 13.5-0.5 2.8-1.5 6.9-2.6 9.7-1.2 0 0-6.2-6.4-17.1-6.4-10.8 0-17.7 6.1-17.7 6.1z"/><path class="b" d="m115.6 129.6c-0.4 0-2.1-0.1-4.4-0.8v74.7l7.3-1.3v-73c-1.5 0.3-2.5 0.4-2.9 0.4z"/><path class="b" d="m183.9 316.9q0.2-6.5 2.3-9.4h7.8q3 0 4.7-2.2 1.6-2.1 1.5-5.4l-0.1-7.1q0-3.3 1-4.9h-12.3q-2.6 0-4.9-1.5 0.4-5.5 3.1-10.5l0.7 0.4q3.6 2.1 8 2.1h16.9q0.1 0 0.2 0.1 0 0.2-0.1 0.4l-0.4 1.5q-1.2 4.3-1.1 8.5l0.1 11.8q0.2 16.2-14.3 16.2z"/><path class="b" d="m153 286.3q0.1-5.9 2.7-10.5 3.7 2.6 8.7 2.6h17.8q0.2 0 0.2 0.1 0 0.2-0.1 0.4l-0.4 1.5q-1.1 4.2-1.1 7.9l0.3 25.6q0 3-2.2 3h-9.6q0.7-2.3 0.7-4.9l-0.2-18.6q-0.1-3.2 1.2-5.5h-12.3q-3.5 0-5.7-1.6z"/><path class="b" d="m113.4 316.9q0.5-1.8 0.5-3.9l-0.1-11.5q-0.2-9 5.2-13-4.6 0-7.3-1.7 0.3-6.3 3-11.2 4.2 2.8 6.7 2.8h0.2q1.2 0 2.5 1.1 1.7 1.5 2 4.2 4.8-3.2 6.5-6.7 3.4 1.4 7.1 1.4h10.7q0.2 0 0.2 0.1 0 0.2 0 0.4l-0.4 1.5q-1.2 4.1-1.2 12l0.2 11.5q0.1 7.4-2.6 10.3-2.7 2.7-9.3 2.7h-7.9q0.2-6.5 2.3-9.4h2.9q3.6 0 3.6-4.7l-0.1-9.5q-0.1-3.7 0.9-5.7h-3.4q-4.7 0-7.7 3.9-3.1 3.9-3.1 9.3l0.2 13.1q0 3-2 3z"/><path class="b" d="m93.8 286.5q0.3-6.1 3-10.7 3.9 2.6 9.4 2.6h3.8q0 0 0 0 0 0.1 0 0.2l-0.5 1.8q-1.1 3.3-1 5.7l0.1 9.1q0.1 7.3-6.5 7.3-3.5 0-4.8-0.1 0.3-1.5 0.3-2.9l-0.1-5.6q-0.1-1.5 0.9-5.8-3.1-0.4-4.6-1.6z"/><path class="b" d="m52.4 316.9q0.8-1.9 0.8-4.6-0.2-11.5 6-18.2-5.2-3.9-7.3-7 1.1-5.5 5-10.6 3 4.9 7.7 8.6l12.9 10.2q2.6-3 2.5-7.5h-1q-2.4 0-5.1-1.8 0.7-5.7 3.5-10.1 4.3 2.5 9.5 2.5h4.9q0 0 0.1 0 0 0.1-0.1 0.3l-1.4 7.1q-1.8 9.2-7.5 13.7l2.3 1.7q4 3 6.1 6.2-1.1 6.3-4.8 10.8-3-5.1-7.9-8.9l-13.7-10.9q-2.1 3-2.1 9.1h6.7q-0.3 4.5-2.7 9.5-1.3-0.1-3.7-0.1z"/></g></svg>