<svg version="1.2" xmlns="http://www.w3.org/2000/svg" viewBox="0 0 325 387" width="325" height="387"><defs><linearGradient id="P" gradientUnits="userSpaceOnUse"/><linearGradient id="g1" x2="1" href="#P" gradientTransform="matrix(-28.919,314.809,-262.239,-24.09,156.775,18.483)"><stop stop-color="#159ad6"/><stop offset="1" stop-color="#5b71b7"/></linearGradient></defs><style>.a{opacity:1}.b{opacity:1;fill:url(#g1)}</style><path class="a" d="m156.1 1.9l-16.4 19.5 15.7 17.8 19-17.8zm35.8 14.8l-28.8 25.1 30.1 24.7zm-68.6 0.7v63.3c0 0 31.7-2.3 31.7 18.7v74.5h11.8v-74.3c0-16 25-19.5 25-19.5zm-15.8 28.5c-16.5 0-48.5 23.5-55.2 64.5-6.6 41-20 154-20 154h28.4c0 0 19-133.7 21.3-150.4 2.3-16.6 6-26.3 19-31 1.2-0.4 13.3-3.8 13.3-3.8v-33.3zm92.5 0v33.3c0 0 12 3.4 13.2 3.8 13 4.7 16.7 14.4 19 31 2.4 16.7 21.4 150.4 21.4 150.4h28.3c0 0-13.3-113-20-154-6.7-41-38.7-64.5-55.2-64.5zm-0.3 44.1c0 0-8.4 11.7-12.4 16.9-4 5.1-6.6 13.1-6.6 13.1 0 0-1-3.1-1-7.1 0-4 4.3-15.2 4.3-15.2 0 0-12.8 6.2-12.8 20.8v27.4c0 0 22.8-19 26.5-22 3.6-3 9.3-4 13.3-4 4 0 11.2 2.8 11.2 2.8l-11-13.2c0 0-0.7-3.6-0.4-5.6 0.4-2 2-7 2-7 0 0-2.6-0.4-6.3 2.3-3.7 2.7-5.2 7.2-5.2 7.2 0 0-1.6-0.5-1.6-4.4zm-73.4 3.7c0 0-2.5 0.5-5.3 2.5-2.7 2-3.6 5.2-3.6 5.2l10.4 16.1zm8.1 2.5c-1.8 0-2.9 0.9-2.9 0.9 0 0-0.5 1.3-0.5 2.6 0 1.4 15.4 42.4 15.4 42.4l-1.8-40.4c0 0-8.5-5.5-10.2-5.5zm-23 7v11.5h-7.5c0 0-1 1.4-1 2.3 0 0.9 1.2 2.2 1.2 2.2 0 0 5.2 1 8.3 1.5 3.1 0.5 5 1.4 5 1.4 0 0 0.1-4.4 0.1-7.2 0-2.9-6.1-11.7-6.1-11.7zm34.2 71.9l-19 8.7c0 0 2.3 4 2.3 7.7 0 3.6-8.2 10.3-14.2 10.3-6 0-6.8-1.7-6.8-1.7 0 0-4.5 6.5-5.5 14.2-1 7.7-1.3 12.5-1.3 12.5h21v-18l11.1-7.2 27 5.2 26.9-5.2 11.1 7.2v18h21c0 0-0.3-4.8-1.3-12.5-1-7.7-5.5-14.2-5.5-14.2 0 0-0.8 1.7-6.8 1.7-6 0-14.2-6.7-14.2-10.3 0-3.7 2.3-7.7 2.3-7.7l-19-8.7-8.3 9.7h-12.5zm-13.6 36.8l0.9 29.3 27.3 11.9 27.3-11.9 0.8-29.3-28.1 7.7zm68.5 26.7v10.1l-26.2 16.5h-20l-33.3-18.2v-6.9l-21.9 9.7 9.1 21.3c0 0 0.9-2.7 6.9-2.7 6.1 0 11.9 3.7 11.9 8.9 0 5.2-2.2 9.1-2.2 9.1l26.7 10.4c0 0 2.3-13.7 10.8-13.7 8.5 0 11.1 12.3 11.1 12.3l23.1-8.3c0 0-2-5.8-2-9.5 0-3.6 1.9-10.2 8.7-10.2 6.8 0 11.2 3.1 11.2 3.1l11.6-22.9zm-133.8 34.4c0 0-4.7 3.5-11 3.5h-12.4l0.7 12.8c0 0-3.3 3.7-7.4 3.7h-10.5l-6.9-11-17.2 11.3 11 22.5 40-12.3 5.5 8.5-28.5 30.8 15.2 12.7 46.3-54zm189.6 1l-8.8 15.8 19.7 14.4 9.1-9.3 15.2 3.1c0 0-0.1 4-1.7 9.3-1.6 5.2-4.5 10.9-4.5 10.9l24.4 9.6c0 0 14.3-19.1 14.3-42v-11.8zm-18.5 26.3l-34.7 18.5 12.1 42.9-21.2 5.1 2 18.5 47.8-12-13.1-42.8 12.8-6.2 31.6 32.6c0 0 3.7-0.9 9-4.5 5.2-3.6 8.1-6.9 8.1-6.9zm-138.9 6.8l-35.2 58.5 29.7 10.5 16.5-64.3zm19.8 9.7l-3.1 16.2 18.2 11.8v4.6c0 3.1-2.2 16.7-2.2 16.7h-2.5c-8.9 0-18.9-3.1-18.9-3.1l-8.4 15.5c0 0 30.1 8.6 45.4 8.6h20.6v-22l-8.7-4.2v-36.5h-12.7c-10.5 0-27.3-7.4-27.7-7.6zm77.1 5.6l-27.5 1.1-1.2 21.6 12.1-0.1-0.3 10.6 16.9-0.7z"/><path class="b" d="m154.1-0.1l-16.4 19.5 15.7 17.8 19-17.8zm35.8 14.8l-28.8 25.1 30.1 24.7zm-68.6 0.7v63.3c0 0 31.7-2.3 31.7 18.7v74.5h11.8v-74.3c0-16 25-19.5 25-19.5zm-15.8 28.5c-16.5 0-48.5 23.5-55.2 64.5-6.6 41-20 154-20 154h28.4c0 0 19-133.7 21.3-150.4 2.3-16.6 6-26.3 19-31 1.2-0.4 13.3-3.8 13.3-3.8v-33.3zm92.5 0v33.3c0 0 12 3.4 13.2 3.8 13 4.7 16.7 14.4 19 31 2.4 16.7 21.4 150.4 21.4 150.4h28.3c0 0-13.3-113-20-154-6.7-41-38.7-64.5-55.2-64.5zm-0.3 44.1c0 0-8.4 11.7-12.4 16.9-4 5.1-6.6 13.1-6.6 13.1 0 0-1-3.1-1-7.1 0-4 4.3-15.2 4.3-15.2 0 0-12.8 6.2-12.8 20.8v27.4c0 0 22.8-19 26.5-22 3.6-3 9.3-4 13.3-4 4 0 11.2 2.8 11.2 2.8l-11-13.2c0 0-0.7-3.6-0.4-5.6 0.4-2 2-7 2-7 0 0-2.6-0.4-6.3 2.3-3.7 2.7-5.2 7.2-5.2 7.2 0 0-1.6-0.5-1.6-4.4zm-73.4 3.7c0 0-2.5 0.5-5.3 2.5-2.7 2-3.6 5.2-3.6 5.2l10.4 16.1zm8.1 2.5c-1.8 0-2.9 0.9-2.9 0.9 0 0-0.5 1.3-0.5 2.6 0 1.4 15.4 42.4 15.4 42.4l-1.8-40.4c0 0-8.5-5.5-10.2-5.5zm-23 7v11.5h-7.5c0 0-1 1.4-1 2.3 0 0.9 1.2 2.2 1.2 2.2 0 0 5.2 1 8.3 1.5 3.1 0.5 5 1.4 5 1.4 0 0 0.1-4.4 0.1-7.2 0-2.9-6.1-11.7-6.1-11.7zm34.2 71.9l-19 8.7c0 0 2.3 4 2.3 7.7 0 3.6-8.2 10.3-14.2 10.3-6 0-6.8-1.7-6.8-1.7 0 0-4.5 6.5-5.5 14.2-1 7.7-1.3 12.5-1.3 12.5h21v-18l11.1-7.2 27 5.2 26.9-5.2 11.1 7.2v18h21c0 0-0.3-4.8-1.3-12.5-1-7.7-5.5-14.2-5.5-14.2 0 0-0.8 1.7-6.8 1.7-6 0-14.2-6.7-14.2-10.3 0-3.7 2.3-7.7 2.3-7.7l-19-8.7-8.3 9.7h-12.5zm-13.6 36.8l0.9 29.3 27.3 11.9 27.3-11.9 0.8-29.3-28.1 7.7zm68.5 26.7v10.1l-26.2 16.5h-20l-33.3-18.2v-6.9l-21.9 9.7 9.1 21.3c0 0 0.9-2.7 6.9-2.7 6.1 0 11.9 3.7 11.9 8.9 0 5.2-2.2 9.1-2.2 9.1l26.7 10.4c0 0 2.3-13.7 10.8-13.7 8.5 0 11.1 12.3 11.1 12.3l23.1-8.3c0 0-2-5.8-2-9.5 0-3.6 1.9-10.2 8.7-10.2 6.8 0 11.2 3.1 11.2 3.1l11.6-22.9zm-133.8 34.4c0 0-4.7 3.5-11 3.5h-12.4l0.7 12.8c0 0-3.3 3.7-7.4 3.7h-10.5l-6.9-11-17.2 11.3 11 22.5 40-12.3 5.5 8.5-28.5 30.8 15.2 12.7 46.3-54zm189.6 1l-8.8 15.8 19.7 14.4 9.1-9.3 15.2 3.1c0 0-0.1 4-1.7 9.3-1.6 5.2-4.5 10.9-4.5 10.9l24.4 9.6c0 0 14.3-19.1 14.3-42v-11.8zm-18.5 26.3l-34.7 18.5 12.1 42.9-21.2 5.1 2 18.5 47.8-12-13.1-42.8 12.8-6.2 31.6 32.6c0 0 3.7-0.9 9-4.5 5.2-3.6 8.1-6.9 8.1-6.9zm-138.9 6.8l-35.2 58.5 29.7 10.5 16.5-64.3zm19.8 9.7l-3.1 16.2 18.2 11.8v4.6c0 3.1-2.2 16.7-2.2 16.7h-2.5c-8.9 0-18.9-3.1-18.9-3.1l-8.4 15.5c0 0 30.1 8.6 45.4 8.6h20.6v-22l-8.7-4.2v-36.5h-12.7c-10.5 0-27.3-7.4-27.7-7.6zm77.1 5.6l-27.5 1.1-1.2 21.6 12.1-0.1-0.3 10.6 16.9-0.7z"/></svg>