<svg version="1.2" xmlns="http://www.w3.org/2000/svg" viewBox="0 0 689 918" width="689" height="918"><defs><linearGradient id="P" gradientUnits="userSpaceOnUse"/><radialGradient id="g1" cx="0" cy="0" r="1" href="#P" gradientTransform="matrix(403.705,0,0,403.705,344.167,459.028)"><stop stop-color="#fdf6aa"/><stop offset="1" stop-color="#fbed00"/></radialGradient><clipPath clipPathUnits="userSpaceOnUse" id="cp1"><path d="m344.17 146.79c-107.46 0-194.58 87.11-194.58 194.57 0 35.9 9.74 69.52 26.69 98.38 48.14 20.19 106.56 32.03 169.55 32.03 61.09 0 117.87-11.13 165.15-30.21 17.62-29.27 27.76-63.55 27.76-100.2 0-107.46-87.11-194.57-194.57-194.57z"/></clipPath><radialGradient id="g2" cx="0" cy="0" r="1" href="#P" gradientTransform="matrix(113.445,0,0,113.445,344.167,341.363)"><stop stop-color="#fdf6aa"/><stop offset="1" stop-color="#fbed00"/></radialGradient></defs><style>.a{fill:url(#g1)}.b{fill:#2c3494}.c{fill:#fff}.d{fill:url(#g2)}.e{fill:#fbed00}</style><g style="opacity:1"><path class="a" d="m686.3 2c0 0 0 439.3 0 619.2 0 179.9-177.2 294.9-342.1 294.9-165 0-342.2-115-342.2-294.9 0-179.9 0-619.2 0-619.2z"/><path class="b" d="m344.2 918.1c-84.1 0-169.4-29.3-234.2-80.4-34-26.8-60.7-58.3-79.5-93.6-20.2-38-30.5-79.4-30.5-122.9v-621.2h688.3v621.2c0 43.5-10.2 84.9-30.5 122.9-18.7 35.3-45.5 66.8-79.5 93.6-64.7 51.1-150.1 80.4-234.1 80.4zm-340.2-914.1v617.2c0 180.9 176.6 292.9 340.2 292.9 163.6 0 340.1-112 340.1-292.9v-617.2z"/><path fill-rule="evenodd" class="c" d="m1.8 2h683.7v101.4h-683.7z"/><path class="b" d="m17.7 27.5q0-3.4 1.3-6.6 1.3-3.2 3.1-3.2 0.6 0 0.8 0.3 0.2 0.3 0.1 1-0.1 0.7-0.1 1.2 0.4 1.9 1.9 2.1l5.2 0.4q2.5 0.3 3.8 1.6 1.3 1.3 2.2 3.9 0.5 1.4 0.6 4.3 0 2.9-0.5 4.7-0.3 0.9-1.2 0.8-0.8-0.2-1.8-0.6-1-0.5-2.2 0.4-1.3 1-2.2 5.2-0.8 4.2-0.2 9 2.1 15.6 7.5 14.5 1.3-8.8 2.5-12.6 0.8-3.1 3.3-7.5 2.4-4.4 2.9-6 1-3.2 0.7-3.8-0.4-0.9-1.9-1.2-1.4-0.2-2.2-0.6-2.9-1.7-2.9-7.3 0-3.4 1.3-6.6 1.2-3.2 3.1-3.2 0.7 0 0.8 0.3 0.2 0.3 0.2 1-0.1 0.7-0.1 1.2 0.1 0.8 0.7 1.4 0.6 0.5 1.2 0.5l5.1 0.6q5 0.5 6.2 4.9 1.5 5.5-0.4 9.6-0.4 0.9-1.1 0.7-0.7-0.1-1.5-0.5-0.9-0.5-2.3 0.2-0.8 0.4-1.4 2.2-0.6 1.4-1.5 5.5-0.9 4.1-1.7 6.5-0.7 1.9-2.2 4.5-1.4 2.7-2.3 5-0.9 2.4-1.2 5.2h8.1q2.4 0 3.5-0.9 1.1-0.9 2.4-3.1 6.6-11 14.6-21.4 1.6-2 0-4-1-1.3-3.6-1.3-2.7-0.1-3.5-0.6-3-1.8-3-7.7 0-3.4 1.2-6.6 1.3-3.2 3.1-3.2 0.7 0 0.9 0.3 0.2 0.3 0.1 1-0.1 0.7-0.1 1.2 0.3 1.7 1.9 1.9l5.7 1q2.5 0.4 3.8 2.3 1.4 1.8 1.5 4.4 0 2.6-0.3 4.8-0.3 2.2-0.9 4.1-1.1 3.3-4.3 8.4-3.3 5.1-4.1 6.6-1.8 3.4-6 11.9-4.2 8.5-6.4 12.7-0.8 1.3-1.3 1.6-0.6 0.3-2.1 0.3h-23.1q-1.1 0-1.6-0.3-0.5-0.3-0.8-1.6-0.9-4.1-2-9.2-1.2-5-1.5-6.8-0.4-1.8-0.9-4.2-0.5-2.4-0.7-3.8-0.2-1.4-0.4-3.1-0.8-6.8 2.9-13.4 1.1-2.2-0.9-2.5-0.2 0-0.8-0.1-0.7 0-1.3-0.2-0.6-0.1-1.1-0.5-2.6-1.9-2.6-7z"/><path class="b" d="m86.2 27.5q0-3.5 1.3-6.7 1.3-3.1 3.2-3.1 0.7 0 0.8 0.3 0.2 0.3 0.1 1-0.2 0.7 0 1.2 0.1 0.8 0.6 1.4 0.6 0.5 1.2 0.5h2q7.2 0 8.7 6.2 1 3.7-0.1 8 4.5-2.2 6.8-5.5 2.3-3.3 3.9-7.9 0.5-1.2 1.1-1.4 0.7-0.2 1.8 0.1 4.8 0.8 8.3 3.5 3.6 2.7 5.5 6.7 2 4 2.8 8.6 0.9 4.5 0.9 9.9 0 15-3.5 28-0.3 1.1-0.8 1.5-0.6 0.4-1.7 0.4h-24.1q-1.6 0-1.9-0.6-0.3-0.6 0.1-1.8l2.6-10q0.2-0.8 0.6-1.1 0.4-0.2 1.4-0.2h16.2q1.4 0 2.2-0.5 0.8-0.5 1.8-1.9 1.1-1.8 1.5-6.1 0.4-4.3-0.7-9.5-1.2-5.1-4.8-8.1-3.6-3.1-8.7-3.1-9.3 0-14.9 10.5-5.6 10.4-4.6 27.8 0.1 1.5-0.6 2.7-0.8 1.1-1.7 1.7-1 0.5-2 0.8-1.1 0.2-1.9 0-0.8-0.2-1.1-0.6-0.2-0.5-0.2-2.9 0-12.2 2.4-20.5 2.4-8.4 7.7-15.7 0.8-1 0.3-2.2-0.5-1.1-1.6-1.4-1.3-0.3-2.9-0.4-1.6 0-2.7-0.3-1.2-0.3-2.4-1.3-2.9-2.3-2.9-8z"/><path class="b" d="m141.4 27.5q0-3.4 1.3-6.6 1.3-3.2 3.1-3.2 0.6 0 0.8 0.3 0.2 0.3 0.1 1-0.1 0.7-0.1 1.2 0.4 1.9 1.9 2.1l5.2 0.4q2.5 0.3 3.8 1.6 1.3 1.3 2.2 3.9 0.5 1.4 0.6 4.3 0 2.9-0.5 4.7-0.3 0.9-1.2 0.8-0.9-0.2-1.8-0.6-1-0.5-2.2 0.4-1.3 1-2.2 5.2-0.9 4.2-0.2 9 2.1 15.6 7.5 14.5 1.3-8.8 2.5-12.6 0.8-3.1 3.3-7.5 2.4-4.4 2.9-6 0.9-3.2 0.7-3.8-0.4-0.9-1.9-1.2-1.4-0.2-2.2-0.6-2.9-1.7-2.9-7.3 0-3.4 1.3-6.6 1.2-3.2 3.1-3.2 0.6 0 0.8 0.3 0.2 0.3 0.1 1 0 0.7 0 1.2 0.1 0.8 0.7 1.4 0.6 0.5 1.2 0.5l5.1 0.6q5 0.5 6.2 4.9 1.4 5.5-0.4 9.6-0.4 0.9-1.1 0.7-0.7-0.1-1.6-0.5-0.8-0.5-2.2 0.2-0.8 0.4-1.5 2.2-0.5 1.4-1.4 5.5-0.9 4.1-1.7 6.5-0.7 1.9-2.2 4.5-1.4 2.7-2.3 5-0.9 2.4-1.2 5.2h8q2.5 0 3.6-0.9 1.1-0.9 2.4-3.1 6.6-11 14.6-21.4 1.6-2 0-4-1-1.3-3.7-1.3-2.6-0.1-3.4-0.6-3-1.8-3-7.7 0-3.4 1.2-6.6 1.3-3.2 3.1-3.2 0.7 0 0.9 0.3 0.2 0.3 0.1 1-0.1 0.7-0.1 1.2 0.3 1.7 1.9 1.9l5.7 1q2.5 0.4 3.8 2.3 1.3 1.8 1.4 4.4 0.1 2.6-0.2 4.8-0.4 2.2-0.9 4.1-1.1 3.3-4.3 8.4-3.3 5.1-4.1 6.6-1.8 3.4-6 11.9-4.2 8.5-6.4 12.7-0.8 1.3-1.3 1.6-0.6 0.3-2.1 0.3h-23.1q-1.1 0-1.6-0.3-0.5-0.3-0.8-1.6-0.9-4.1-2.1-9.2-1.1-5-1.5-6.8-0.3-1.8-0.8-4.2-0.5-2.4-0.7-3.8-0.2-1.4-0.4-3.1-0.8-6.8 2.9-13.4 1-2.2-0.9-2.5-0.2 0-0.9-0.1-0.6 0-1.2-0.2-0.6-0.1-1.1-0.5-2.6-1.9-2.6-7z"/><path class="b" d="m208.5 54.4l1.8-7.2q0.3-1.5 1.8-1.5h27.5q1.9 0.1 1.4 2l-1.8 7.2q-0.4 1.5-1.9 1.4h-27.4q-1.8 0-1.4-1.9z"/><path class="b" d="m246.4 79.6q-0.3-0.6 0.1-1.8l2.6-10q0.2-0.8 0.6-1.1 0.4-0.2 1.5-0.2h3.8q1.1 0 1.8-0.2 0.8-0.3 1-0.9 0.2-0.5 0.2-0.9 0-0.3-0.3-1.3-0.3-0.9-0.3-1.2-1.4-7.6 0.2-14.7 1.5-6.7 7.2-11.4h-1.7q-4.1 0-6.1-2-2-2.1-2-6.4 0-3.4 1.2-6.6 1.3-3.2 3.1-3.2 0.7 0 0.9 0.3 0.1 0.3 0 1-0.1 0.7 0.1 1.2 0.1 0.8 0.7 1.4 0.5 0.5 1.1 0.5h25.8q3 0 5.2 1.2 2.1 1.2 3.3 3.2 1.2 1.9 1.7 4 0.5 2.1 0.5 4.4 0 5.9 0 18.6-0.1 12.7-0.1 17.3 0 4.6-0.5 6.3-0.6 1.5-2.1 2.6-1.5 1.1-2.8 1.1-0.5 0-0.9-0.5-0.4-0.5-0.4-1v-35.5q0-4.4-1.9-6.1-1.9-1.8-7-1.8h-6.9q-2.9 0-4.6 0.9-1.6 0.9-3.6 3.4-3.3 4.3-3.4 10.7-0.2 3.8 1 9.4 1.1 5.5 1.1 9.7 0 4.8-2.3 8.5-1.1 1.7-3.1 1.7h-12.8q-1.6 0-1.9-0.6z"/><path class="b" d="m306.8 27.4q0-3.5 1.3-6.6 1.3-3.1 3.1-3.1 0.8 0 0.9 0.3 0.2 0.3 0 1.1-0.1 0.8-0.1 1.2 0.2 0.8 0.8 1.3 0.6 0.5 1.2 0.5h5.6q4.6 0 6.8 1.8 2.2 1.7 3.1 6.8 0.8 4.2-0.2 9-1 4.7-3.5 8.4-2.4 3.7-5 5.9-2.6 2.3-4.3 0.6-1.5-1.7 0.9-4 5.7-5.5 4.9-10.6-0.3-2-1.7-3.1-1.5-1-3.4-1h-2.4q-4.1 0-6.1-2.1-1.9-2.1-1.9-6.4z"/><path class="b" d="m336.3 79.6q-0.3-0.6 0.1-1.8l2.6-10q0.1-0.8 0.5-1.1 0.4-0.2 1.5-0.2h21.6q3.1 0 3.9-0.8 1.3-1.3 2.2-5.4 0.9-4.1 0.9-8.9 0-8-2.1-11.6-2.5-3.9-8.3-3.9h-13.7q-4.1 0-6-2-1.9-2.1-1.9-6.4 0-3.4 1.2-6.6 1.3-3.2 3.2-3.2 0.6 0 0.8 0.3 0.1 0.3 0 1-0.1 0.7 0 1.2 0.1 0.8 0.7 1.4 0.6 0.5 1.3 0.5h21.3q1.6 0 3.8 0.9 2.1 1 3.3 3 3.2 5.6 3.2 17.6 0 11.3-5 21.8-0.1 0.3 0 0.7 0.1 0.4 0.5 0.4h7q1.4 0 1.8 0.6 0.3 0.5-0.1 1.7l-2.6 9.5q-0.3 1.1-0.8 1.5-0.4 0.4-1.9 0.4h-37.2q-1.4 0-1.8-0.6z"/><path class="b" d="m419.8 79.6q-0.3-0.6 0.1-1.8l2.6-10q0.2-0.8 0.6-1.1 0.4-0.2 1.4-0.2h3.9q1.1 0 1.8-0.2 0.8-0.3 1-0.9 0.2-0.5 0.2-0.9 0-0.3-0.3-1.3-0.3-0.9-0.3-1.2-1.4-7.6 0.1-14.7 1.6-6.7 7.3-11.4h-1.7q-4.1 0-6.1-2-2-2.1-2-6.4 0-3.4 1.2-6.6 1.3-3.2 3.1-3.2 0.7 0 0.9 0.3 0.1 0.3 0 1-0.1 0.7 0 1.2 0.2 0.8 0.7 1.4 0.6 0.5 1.2 0.5h25.7q3.1 0 5.2 1.2 2.2 1.2 3.4 3.2 1.1 1.9 1.7 4 0.5 2.1 0.5 4.4 0 5.9 0 18.6-0.1 12.7-0.1 17.3 0 4.6-0.6 6.3-0.5 1.5-2 2.6-1.5 1.1-2.8 1.1-0.6 0-0.9-0.5-0.4-0.5-0.4-1v-35.5q0-4.4-1.9-6.1-1.9-1.8-7-1.8h-6.9q-2.9 0-4.6 0.9-1.7 0.9-3.6 3.4-3.3 4.3-3.5 10.7-0.1 3.8 1.1 9.4 1.1 5.5 1.1 9.7 0 4.8-2.3 8.5-1.1 1.7-3.1 1.7h-12.8q-1.6 0-1.9-0.6z"/><path class="b" d="m480.2 27.4q0-3.5 1.3-6.6 1.3-3.1 3.1-3.1 0.8 0 0.9 0.3 0.1 0.3 0 1.1-0.1 0.8-0.1 1.2 0.2 0.8 0.8 1.3 0.6 0.5 1.2 0.5h5.6q4.5 0 6.8 1.8 2.2 1.7 3.1 6.8 0.8 4.2-0.2 9-1 4.7-3.5 8.4-2.4 3.7-5.1 5.9-2.6 2.3-4.2 0.6-1.5-1.7 0.8-4 5.8-5.5 5-10.6-0.3-2-1.8-3.1-1.4-1-3.3-1h-2.5q-4.1 0-6-2.1-1.9-2.1-1.9-6.4z"/><path class="b" d="m511.9 27.4q0-3.5 1.3-6.6 1.3-3.1 3.1-3.1 0.8 0 0.9 0.3 0.2 0.3 0 1.1-0.1 0.8-0.1 1.2 0.2 0.8 0.8 1.3 0.6 0.5 1.2 0.5h5.6q4.6 0 6.8 1.8 2.2 1.7 3.1 6.8 0.8 4.2-0.2 9-1 4.7-3.5 8.4-2.4 3.7-5 5.9-2.6 2.3-4.3 0.6-1.5-1.7 0.9-4 5.7-5.5 4.9-10.6-0.3-2-1.7-3.1-1.5-1-3.4-1h-2.5q-4 0-6-2.1-1.9-2.1-1.9-6.4z"/><path class="b" d="m543.7 27.5q0-3.4 1.3-6.6 1.3-3.2 3.3-3.2 0.7 0 0.8 0.3 0.1 0.3 0 1-0.1 0.7 0 1.2 0.1 0.8 0.7 1.4 0.6 0.5 1.2 0.5h23.8q3.1 0 5.3 1.2 2.2 1.2 3.3 3.2 1.2 1.9 1.7 4 0.4 2.1 0.4 4.4 0 5.9 0 18.6 0 12.7 0 17.3 0 4.6-0.5 6.3-0.6 1.5-2.1 2.6-1.5 1.1-2.8 1.1-0.6 0-1-0.5-0.4-0.5-0.4-1v-35.5q0-4.4-1.8-6.1-1.9-1.8-7.1-1.8h-18q-4.2 0-6.1-2-2-2.1-2-6.4z"/><path class="b" d="m593 27.4q0-3.5 1.3-6.6 1.3-3.1 3.1-3.1 0.7 0 0.9 0.3 0.1 0.3 0 1.1-0.1 0.8-0.1 1.2 0.2 0.8 0.8 1.3 0.6 0.5 1.2 0.5h5.6q4.5 0 6.8 1.8 2.2 1.7 3.1 6.8 0.8 4.2-0.2 9-1 4.7-3.5 8.4-2.5 3.7-5.1 5.9-2.6 2.3-4.2 0.6-1.5-1.7 0.8-4 5.8-5.5 5-10.6-0.3-2-1.8-3.1-1.4-1-3.3-1h-2.5q-4.1 0-6-2.1-1.9-2.1-1.9-6.4z"/><path class="b" d="m623.8 92l0.8-11.3q0.1-1.2 0.5-1.7 0.4-0.5 1.5-0.9l11.3-4.3q2.7-1.1 4.5-2.7 1.8-1.7 1.7-3.7-0.2-1.8-1-3.3-0.8-1.5-1.4-2.1-0.5-0.5-1.9-1.9-1.9-1.8-3.1-3-1.1-1.1-2.3-3-1.1-1.9-1.4-3.8-0.3-1.8 0.2-5 0.6-3.3 1-5.1 0.4-1.8-0.1-3.1-0.7-0.8-3-1.3-2.3-0.5-3.2-1-3.1-1.8-3.1-7.3 0-3.4 1.3-6.6 1.3-3.2 3.2-3.2 0.7 0 0.8 0.3 0.2 0.3 0.1 1-0.1 0.7 0 1.2 0.2 1.5 1.8 1.8 1.4 0.3 4.1 0.6 2.8 0.2 4.5 0.8 1.7 0.7 3 2.3 1.2 1.5 1.4 5.5 0.2 4.1-1.2 6.3-0.3 0.4-2.1-0.3-1.7-0.6-2.5 0-0.8 0.5-1 3.2-0.2 2.7 0.7 5.3 0.5 1.5 2.4 3.4 1.9 1.9 3.8 4.1 1.9 2.1 2.7 4.7 1.5 4.5 0 10.3 2.4-1.7 3.5-4.1 1.1-2.5 2.1-6 0.9-3.5 2.2-5.8 1.2-2.5 3.3-5.6 2-3.1 3-4.8 1-1.8 1-3.3-0.1-1-0.8-1.6-0.7-0.6-1.7-0.7-4.5-0.3-6.6-2.4-2-2.1-2-6.4 0-3.4 1.2-6.6 1.3-3.2 3.2-3.2 0.6 0 0.8 0.3 0.1 0.3 0 1 0 0.7 0.1 1.2 0.1 1.1 1 1.6 0.8 0.5 1.7 0.6 0.9 0.1 2.4 0.3 0.2 0 0.4 0 9.8 0.3 10.5 7.4 0.2 1.9-0.3 3.6-0.5 1.7-1.1 2.6-0.6 0.9-1.9 2.4-1.3 1.5-1.8 2.3-1.8 2.5-3.2 6.3-1.4 3.7-2.1 6.5-0.7 2.7-1.8 8.2-0.1 0.2-0.3 1.4-0.3 1.2-0.3 1.4-0.1 0.2-0.3 1.3-0.3 1-0.4 1.3-0.1 0.4-0.3 1.3-0.3 0.9-0.5 1.3-0.2 0.5-0.4 1.2-0.2 0.7-0.5 1.2-0.3 0.6-0.6 1.2-0.4 0.6-0.8 1.2-2.5 3.8-5.4 6-2.9 2.2-7.1 4.1l-18.3 8.5q-1.2 0.7-1.7 0.5-0.4-0.3-0.2-1.9z"/><path class="b" d="m484.6 736.4c6.1-4.8 28.9-18.2 34.8-21.7l32.9 26.7 73-200.4-79.7 68.9c-2.1-3.1-4.7-6.9-7.9-11.4-12.1-17.3-27.3-25.1-35.3-19.4-8 5.6 1.9 26.8 9.9 43.3 3 5.7 5.1 9 6.3 10.8l-9.2 8c-3-1.6-8.6-4.2-13.5-4.2-3.1 0-7.8 1.9-7.8 7.7 0 4.7 1.4 9.3 2.7 12.5l-15.7 13.6c-0.4-1.4-1-2.6-2-3.3-1.8-1.3-5.8-0.3-7.5 0.7-3.6 2.1-6.4 6.2-8.3 9.8-1.2 2.3-2 4.4-2.8 6.9-3.3 11-9.1 20.7-13.9 31.3-2.2 4.9-4.1 11.2-6.6 16.1-0.7 1.2-1 2.7-1.5 4.1-4.3 1.2-8.7 2-12.4 2.2-1.6 0.1-6.6 0.2-14.3 0.3 5.9-8.4 17.9-22.3 19.6-25.7 2.3-4.7 8.8-30.6-4.5-27.5-13.3 3.1-40.3 33.6-42.1 37.8-0.9 2.1-2.1 9-2.1 15.5-8.6 0.1-18.1 0.1-28 0.2 5.2-7.8 16.4-21.3 18.9-24.4 3.4-3.9 13.6-27.8 0-28-13.7-0.1-38.6 28.3-41.3 32-1.9 2.5-3.7 12.6-4.6 20.6-12.8 0.1-25.8 0.3-38.3 0.5 5.2-7.9 15.9-21.2 18.5-24.2 3.3-4 13.3-28-0.4-28-13.6 0-38.3 28.6-41 32.3-1.8 2.5-3.4 12.5-4.3 20.4-10.2 0.2-19.7 0.5-28 0.8 4.5-7.4 17-22.8 19.7-26 3.3-4 13.3-28-0.4-28-13.6 0-38.3 28.6-40.9 32.3-2.1 2.8-3.9 15.3-4.7 23.5q-1.4 0.1-2.5 0.3l-39.4-97.3 23.9-10c14-5.8 20.6-21.9 14.8-35.9-5.9-14-22-20.7-36-14.8l-76.6 32c-14 5.8-20.7 21.9-14.8 35.9 4.4 10.6 14.6 16.9 25.4 16.9 3.5 0 7.1-0.7 10.5-2.1l27-11.2 41.1 101.6c-21.9 18.8-47.4 48.5-47.4 48.5 0 0 1.4 6.4 7.4 6.4 6 0 8-3.7 9.3-5.4 1.3-1.6 26.7-33.3 34-40.3q0.1-0.1 0.3-0.2l26.7 66.1c2.2 5.5 7.5 8.8 13 8.8 1.7 0 3.5-0.4 5.2-1.1 7.2-2.9 10.7-11 7.8-18.2l-25.5-62.9c5.6 10.8 14.5 25.1 16.8 28 3.3 4.3 27.6 18.7 31.6 18.7 2 0 3-1.7 3-5 0-3.4-9.6-19-13.3-23-2.8-3-11.5-19.1-15.5-28.1 7.4-0.3 16.6-0.5 26.9-0.7 1.2 7 18.1 34.4 21.3 38.6 3.3 4.3 27.6 18.7 31.6 18.7 1.9 0 3-1.7 3-5 0-3.4-9.6-19-13.3-23-3-3.2-12.6-21.2-16.3-29.8 12.7-0.2 26.1-0.4 39.2-0.5 1.4 7.3 17.7 34.4 20.8 38.6 3.3 4.3 27.5 18.9 31.5 18.9 1.9 0 3-1.6 3.1-5 0-3.3-9.5-19-13.1-23.1-3-3.2-12.4-21.1-16-29.8 11.2-0.1 21.6-0.3 30.8-0.4 1 2.1 2.1 3.7 2.4 4.9 1.3 5.6 26.9 25 31.1 28.5 1.3 1 4.4 2.4 8.4 3.9-3.1 2.7-6.2 5.3-9.2 7.9-27.5 23.2-36.7 37.9-36.7 45.9 0 8 9.2 13 15.7 13 6.5 0 15-3.7 17.2-7.2 1.2-1.7 18.4-27 36.4-52.8 1.6 0.3 2.7 0.4 3.3 0.2 1.9-0.4 2.6-2.3 1.8-5.5q-0.1-0.5-0.5-1.2c8-11.5 16-22.7 22.4-31.5 7.6 0.8 15.2 2 22.9 2.3 6.6 0.3 13.3 0 19.9 0 4.7 0 9.5 1.6 14.3 0.8 3.6-0.6 4-2.3 1.5-4.8-2.1-2.2-5.9-3-8.8-4-3.8-1.2-8-2-11.8-3-9.4-2.2-18.9-2.8-28.4-4.1 2.2-2.7 3.7-4.5 4.5-5.1zm-20-20.2c1.8-3.3 3.6-5.6 4.7-9.1 1.7-5.4 3.3-10.3 4.5-15.8 1-4 1.8-7.9 2-11.9l21.4 17.3c-6.4 4.9-25.1 19.1-35.8 26.8q0.2-0.4 0.4-0.9c0.9-1.7 1.8-4.7 2.8-6.4zm-34.2 51.4c-4.1-2.7-21.8-10.5-26.7-19.8 3.8 0 6.7-0.1 8.4-0.2 6.9-0.2 14-1.8 20.4-3.8 0.5 0.8 1.4 1.5 1.9 2.1 0.9 0.9 1.7 1.9 2.9 2.5 2 1.1 4.6 1.8 6.9 2.2q6.5 1.3 13.1 2.2c-6.4 5.6-13.9 12.3-21.7 19.2-2.1-1.9-4-3.5-5.2-4.4zm36.5-28.5c-2-0.5-6.8-0.8-8.2-2.5-0.9-1-0.4-1.5-0.3-2.7q0-0.8 0.2-1.7c9.2-6.4 35-25.4 43.5-31.6l14.2 11.6c-7.9 5-36.8 23-40.7 25.2-0.7 0.4-1.9 1.3-3.7 2.8q-2.5-0.5-5-1.1z"/><path class="b" d="m344.2 918.1c-84.1 0-169.4-29.3-234.2-80.4-34-26.8-60.7-58.3-79.5-93.6-20.2-38-30.5-79.4-30.5-122.9v-621.2h688.3v621.2c0 43.5-10.2 84.9-30.5 122.9-18.7 35.3-45.5 66.8-79.5 93.6-64.7 51.1-150.1 80.4-234.1 80.4zm-340.2-914.1v617.2c0 180.9 176.6 292.9 340.2 292.9 163.6 0 340.1-112 340.1-292.9v-617.2z"/><path fill-rule="evenodd" class="b" d="m1.8 174h685.2v4h-685.2z"/><path fill-rule="evenodd" class="b" d="m1.8 101h685.2v4h-685.2z"/><path fill-rule="evenodd" class="b" d="m1.8 246.9h685.2v4h-685.2z"/><path fill-rule="evenodd" class="b" d="m1.8 319.9h685.2v4h-685.2z"/><path fill-rule="evenodd" class="b" d="m1.8 394.9h685.2v4h-685.2z"/><path fill-rule="evenodd" class="b" d="m1.8 467.3h685.2v4h-685.2z"/><path fill-rule="evenodd" class="b" d="m1.8 539.8h685.2v4h-685.2z"/><path fill-rule="evenodd" class="b" d="m1.8 610.3h685.2v4h-685.2z"/><path fill-rule="evenodd" class="b" d="m10 684.1h668.8v4h-668.8z"/><path fill-rule="evenodd" class="b" d="m41.3 758.3h606.2v4h-606.2z"/><path fill-rule="evenodd" class="b" d="m107.6 832.4h473.6v4h-473.6z"/><path fill-rule="evenodd" class="b" d="m139.3 541.7h4v315.9h-4z"/><path fill-rule="evenodd" class="b" d="m544.8 541.7h4v315.9h-4z"/><path fill-rule="evenodd" class="b" d="m342.2 612.2h4v303.9h-4z"/><path fill-rule="evenodd" class="b" d="m423.9 612.7v-70.5h94.9v-72.4h51v-72.5h46v-75h-44v-73.4h-54v-72.5h-54v-43.5h-239.3v43.5h-54v72.5h-54v73.4h-43.9v75h45.9v72.5h51v72.4h95v70.5z"/><path fill-rule="evenodd" class="c" d="m198.9 478.1l43.8-10.5 91.3 25.5z"/><path fill-rule="evenodd" class="c" d="m328.4 524.7l-1.8-4.6 141.3-57.1 0.5-0.1 38.5-0.6 0.1 5-38.1 0.6z"/><path class="c" d="m408.1 541l-3.9-3.2c1.1-1.3 27-32.4 50.2-32.4 20.3 0 34.6 17.5 35.2 18.3l-4 3.1c-0.1-0.2-13.3-16.4-31.2-16.4-20.8 0-46.1 30.3-46.3 30.6z"/><path class="c" d="m418.2 588.9c-0.5-0.3-48.8-29.5-77.4-29.5-25.6 0-55.2 24-55.5 24.3l-3.2-3.9c1.3-1.1 31.3-25.4 58.7-25.4 30 0 77.9 29 80 30.2z"/><path class="c" d="m208.7 525.2l-2.2-4.5c1.2-0.6 30.2-14.6 48.2-14.6 18.2 0 31.6 8.7 32.2 9.1l-2.7 4.1c-0.2 0-12.8-8.2-29.5-8.2-16.9 0-45.8 13.9-46 14.1z"/><g clip-path="url(#cp1)"><path fill-rule="evenodd" class="d" d="m344.2 454.8c-62.8 0-113.5-50.7-113.5-113.4 0-62.8 50.7-113.5 113.5-113.5 62.7 0 113.4 50.7 113.4 113.5 0 62.7-50.7 113.4-113.4 113.4z"/><path fill-rule="evenodd" class="e" d="m343.2 149.6h2v63.3h-2z"/><path fill-rule="evenodd" class="e" d="m307.7 153.1l12.4 62.1-2 0.4-12.3-62.1z"/><path fill-rule="evenodd" class="e" d="m271.7 163.8l24.2 58.5-1.8 0.8-24.2-58.5z"/><path fill-rule="evenodd" class="e" d="m238.5 181.4l35.1 52.6-1.6 1.1-35.2-52.6z"/><path fill-rule="evenodd" class="e" d="m209.3 205.1l44.8 44.7-1.5 1.4-44.7-44.7z"/><path fill-rule="evenodd" class="e" d="m185.3 234l52.6 35.2-1.1 1.7-52.6-35.2z"/><path fill-rule="evenodd" class="e" d="m167.4 267.1l58.5 24.2-0.8 1.8-58.5-24.2z"/><path fill-rule="evenodd" class="e" d="m156.3 303l62.1 12.3-0.4 2-62.1-12.4z"/><path fill-rule="evenodd" class="e" d="m152.4 340.4h63.3v2h-63.3z"/><path fill-rule="evenodd" class="e" d="m218 365.4l0.4 2-62.1 12.4-0.4-2z"/><path fill-rule="evenodd" class="e" d="m225.1 389.6l0.8 1.8-58.5 24.3-0.8-1.9z"/><path fill-rule="evenodd" class="e" d="m236.8 411.9l1.1 1.6-52.6 35.2-1.1-1.7z"/><path fill-rule="evenodd" class="e" d="m252.6 431.5l1.5 1.4-44.8 44.7-1.4-1.4z"/><path fill-rule="evenodd" class="e" d="m272 447.6l1.6 1.1-35.1 52.6-1.7-1.1z"/><path fill-rule="evenodd" class="e" d="m294.1 459.6l1.8 0.8-24.2 58.5-1.8-0.8z"/><path fill-rule="evenodd" class="e" d="m318.1 467.1l2 0.4-12.4 62.1-2-0.4z"/><path fill-rule="evenodd" class="e" d="m343.2 469.8h2v63.3h-2z"/><path fill-rule="evenodd" class="e" d="m370.2 467.1l12.3 62.1-1.9 0.4-12.4-62.1z"/><path fill-rule="evenodd" class="e" d="m394.2 459.6l24.2 58.5-1.8 0.8-24.2-58.5z"/><path fill-rule="evenodd" class="e" d="m416.3 447.6l35.2 52.7-1.7 1.1-35.1-52.7z"/><path fill-rule="evenodd" class="e" d="m435.7 431.5l44.7 44.7-1.4 1.4-44.7-44.7z"/><path fill-rule="evenodd" class="e" d="m451.5 411.9l52.6 35.2-1.1 1.6-52.6-35.1z"/><path fill-rule="evenodd" class="e" d="m463.2 389.6l58.5 24.2-0.8 1.9-58.5-24.2z"/><path fill-rule="evenodd" class="e" d="m470.3 365.4l62.1 12.4-0.4 2-62.1-12.4z"/><path fill-rule="evenodd" class="e" d="m472.6 340.4h63.3v2h-63.3z"/><path fill-rule="evenodd" class="e" d="m532.1 303l0.3 1.9-62 12.4-0.4-2z"/><path fill-rule="evenodd" class="e" d="m520.9 267l0.8 1.9-58.5 24.2-0.8-1.8z"/><path fill-rule="evenodd" class="e" d="m503.1 234l1.1 1.6-52.7 35.2-1.1-1.6z"/><path fill-rule="evenodd" class="e" d="m479 205.1l1.5 1.4-44.8 44.7-1.4-1.4z"/><path fill-rule="evenodd" class="e" d="m449.9 181.4l1.6 1.1-35.1 52.6-1.7-1.1z"/><path fill-rule="evenodd" class="e" d="m416.6 163.8l1.9 0.8-24.3 58.5-1.8-0.8z"/><path fill-rule="evenodd" class="e" d="m380.6 153.1l1.9 0.4-12.3 62.1-2-0.4z"/></g></g></svg>