<svg version="1.2" xmlns="http://www.w3.org/2000/svg" viewBox="0 0 235 305" width="235" height="305"><style>.a{opacity:1;fill:#005b96}.b{opacity:1;fill:#fff}</style><path class="a" d="m117.6 0.7c-58.5 0-101.6 17.7-110.9 24.1-7.5 5.3-9.1 13.5-1.1 26l14.4 21.5v146.4c0 0 3.9 85.5 97.6 86.1 93.7 0.5 97.5-86.1 97.5-86.1v-146.4l14.5-21.5c7.9-12.5 6.4-20.7-1.2-26-9.3-6.4-52.3-24.1-110.8-24.1z"/><path class="b" d="m148.2 261.3c0 0.9-0.9 1.7-1.8 1.7h-1.7c-0.6 0-1-0.2-1.3-0.5-0.2 1.6-0.6 3.1-1 4.6 0.4-0.2 1-0.2 1.5 0l1.6 0.6c0.9 0.4 1.3 1.5 0.9 2.4l-1.3 3c-0.4 1-1.4 1.5-2.3 1.1l-1.6-0.7c-0.5-0.2-0.9-0.6-1-1-0.8 1.4-1.6 2.7-2.6 3.9 0.5-0.1 1 0.1 1.3 0.5l1.2 1.2c0.7 0.7 0.7 1.9 0 2.6l-2.3 2.3c-0.7 0.7-1.9 0.7-2.6 0l-1.2-1.1c-0.4-0.4-0.5-0.9-0.5-1.4-1.2 1-2.6 1.9-3.9 2.6 0.4 0.2 0.8 0.5 1 1l0.7 1.6c0.3 0.9-0.1 2-1.1 2.4l-3 1.2c-0.9 0.4-2-0.1-2.4-1l-0.6-1.5c-0.2-0.5-0.2-1 0.1-1.5-1.6 0.5-3.1 0.8-4.8 1 0.4 0.3 0.6 0.8 0.6 1.3v1.6c0 1-0.8 1.9-1.7 1.9h-3.4c-1 0-1.8-0.9-1.8-1.9v-1.6c0-0.5 0.2-1 0.6-1.3-1.6-0.2-3.2-0.5-4.7-1 0.2 0.5 0.2 1 0.1 1.5l-0.7 1.5c-0.3 0.9-1.4 1.4-2.4 1l-3-1.2c-1-0.4-1.4-1.5-1-2.4l0.7-1.6c0.1-0.5 0.6-0.8 1-1-1.4-0.7-2.7-1.6-3.9-2.6 0 0.5-0.2 1-0.6 1.4l-1.2 1.1c-0.7 0.7-1.9 0.7-2.6 0l-2.3-2.3c-0.7-0.7-0.7-1.9 0-2.6l1.2-1.2c0.3-0.4 0.9-0.6 1.4-0.5-1-1.2-1.9-2.5-2.6-3.9-0.2 0.4-0.6 0.8-1.1 1l-1.5 0.7c-1 0.4-2-0.1-2.4-1.1l-1.3-3c-0.3-0.9 0.1-2 1-2.4l1.5-0.6q0.8-0.3 1.5 0c-0.4-1.5-0.7-3-0.9-4.6q-0.6 0.5-1.3 0.5h-1.7c-1 0-1.8-0.8-1.8-1.7v-3.4c0-0.9 0.8-1.8 1.8-1.8h1.7c0.5 0 0.9 0.3 1.3 0.6 0.2-1.6 0.5-3.1 0.9-4.7-0.4 0.3-0.9 0.3-1.5 0.1l-1.5-0.7c-0.9-0.3-1.3-1.4-1-2.4l1.3-3c0.4-0.9 1.4-1.4 2.4-1l1.5 0.6c0.5 0.3 0.9 0.7 1.1 1.2 0.7-1.5 1.6-2.8 2.6-4-0.5 0-1.1-0.1-1.4-0.5l-1.2-1.3c-0.7-0.6-0.7-1.8 0-2.5l2.3-2.4c0.7-0.6 1.9-0.6 2.6 0l1.2 1.2q0.6 0.6 0.6 1.4c1.2-1 2.5-1.9 3.9-2.6-0.4-0.2-0.9-0.5-1-1.1l-0.7-1.5c-0.4-0.9 0-2 1-2.4l3-1.2c1-0.5 2.1 0 2.4 0.9l0.7 1.6c0.1 0.5 0.1 1-0.1 1.4 1.5-0.4 3.1-0.7 4.7-0.9q-0.6-0.5-0.6-1.3v-1.7c0-1 0.8-1.9 1.8-1.9h3.4c0.9 0 1.7 0.9 1.7 1.9v1.7q0 0.8-0.6 1.3c1.7 0.2 3.2 0.5 4.8 0.9-0.3-0.4-0.3-0.9-0.1-1.4l0.6-1.6c0.4-0.9 1.5-1.4 2.4-0.9l3 1.2c1 0.4 1.4 1.5 1.1 2.4l-0.7 1.5c-0.2 0.6-0.6 0.9-1 1.1 1.3 0.7 2.7 1.6 3.9 2.6 0-0.6 0.1-1 0.5-1.4l1.2-1.2c0.7-0.6 1.9-0.6 2.6 0l2.3 2.4c0.7 0.7 0.7 1.9 0 2.5l-1.2 1.3c-0.3 0.4-0.8 0.5-1.3 0.5 1 1.2 1.8 2.5 2.6 4 0.1-0.5 0.5-0.9 1-1.2l1.6-0.6c0.9-0.4 1.9 0.1 2.3 1l1.3 3c0.4 1 0 2.1-0.9 2.4l-1.6 0.7c-0.5 0.2-1.1 0.2-1.5-0.1 0.4 1.6 0.8 3.1 1 4.7 0.3-0.3 0.7-0.6 1.3-0.6h1.7c0.9 0 1.8 0.9 1.8 1.8zm49-85.4l-9.8 10.2c0 0-3.5-11.7 2.9-18.7 6.3-6.9 8.6-9 8.6-9zm0 19l-9.7 10.3c0 0-3.6-11.7 2.8-18.6 6.4-7 8.7-9.1 8.7-9.1zm0 19.1l-9.8 10.4c0 0-3.5-11.7 2.9-18.7 6.3-6.9 8.6-9.1 8.6-9.1zm0 19.2l-9.7 10.3c0 0-3.6-11.8 2.8-18.7 6.3-6.9 8.7-9.1 8.7-9.1zm-13.7-65.2v76.6c0 0-1.3 17-21.9 21.7 0 0-3.7 1.3-3.8 4l-2.3-9.5c0 0 23.4 0.4 25.6-15.8v-77h-0.7l-7.2-11.4 2.9-14.9 5.6-11.2 6.8 11.2 2.9 14.9-7.2 11.4zm-33-38.7h-7.6l3.7-6.9-3.7-6.7h7.4l2.9-5.4 3 5.4h7.5l-3.7 7 3.7 6.6h-7.4l-2.8 5.5zm-12.3 83.4l-12.6-2.8-8.4 2.2-9.5-2-10.7 1.6-8.7-2.1-10.8 1.5-0.5-1.1 11.3-2.5 8.7 1.6 10.7-1.1 9.5 1.8 8.4-2.2 12.6 2.2 10.1-1.7 0.2 1zm0 5l-12.6-2.7-8.4 2.1-9.5-1.9-10.7 1.5-8.7-2.1-10.8 1.5-0.5-1.1 11.3-2.5 8.7 1.5 10.7-1.1 9.5 1.9 8.4-2.2 12.6 2.2 10.1-1.7 0.3 0.9zm0 5.1l-12.6-2.8-8.5 2.3-9.4-2.1-10.7 1.6-8.8-2-10.8 1.4-0.5-1 11.3-2.6 8.8 1.6 10.7-1.1 9.4 1.8 8.5-2.2 12.6 2.2 10-1.7 0.3 1zm-4.6 18.8c-4.3-3.9-9.9-6.4-16.1-6.7v19.5c0.9 0 1.8 0.4 2.4 0.9zm-60.3 28.8c-0.1-2.8-3.7-4-3.7-4-20.6-4.8-20.7-21.7-20.7-21.7h1.2c2.2 16.1 25.6 16.1 25.6 16.1zm-24.4-137.4c0 0 10.5 9 0.2 19.5h-0.4c-10.4-10.5 0.2-19.5 0.2-19.5zm-1.5 32.6l-0.5 0.3c-14.1-4.3-9.2-17.3-9.2-17.3 0 0 13.6 2.8 9.7 17zm0 15.3l-0.5 0.3c-14.1-4.4-9.2-17.3-9.2-17.3 0 0 13.6 2.8 9.7 17zm0 15.3l-0.5 0.2c-14.1-4.2-9.2-17.2-9.2-17.2 0 0 13.6 2.8 9.7 17zm0 15.4l-0.5 0.2c-14.1-4.4-9.2-17.3-9.2-17.3 0 0 13.6 2.8 9.7 17.1zm0 15.2l-0.5 0.2c-14.1-4.2-9.2-17.2-9.2-17.2 0 0 13.6 2.8 9.7 17zm0 15.2l-0.5 0.3c-14.1-4.3-9.2-17.2-9.2-17.2 0 0 13.6 2.7 9.7 16.9zm3.3-76.1l-0.3-0.3c-3.9-14.2 9.6-17 9.6-17 0 0 4.9 13-9.3 17.3zm0 15.3l-0.3-0.3c-3.9-14.2 9.6-17 9.6-17 0 0 4.9 12.9-9.3 17.3zm0 15.2l-0.3-0.2c-3.9-14.2 9.6-17 9.6-17 0 0 4.9 13-9.3 17.2zm0 15.4l-0.3-0.2c-3.9-14.3 9.6-17.1 9.6-17.1 0 0 4.9 12.9-9.3 17.3zm0 30.5l-0.3-0.3c-3.9-14.2 9.6-16.9 9.6-16.9 0 0 4.9 12.9-9.3 17.2zm0-15.3l-0.3-0.2c-3.9-14.2 9.6-17 9.6-17 0 0 4.9 13-9.3 17.2zm18.4-124.8h-7.3l-3 5.4-3-5.4h-7.5l3.8-7-3.8-6.7h7.4l2.9-5.4 3 5.4h7.5l-3.7 6.9zm39.6-19.9l-3.8 6.9 3.8 6.8h-7.3l-3 5.5-3-5.5h-7.5l3.7-6.9-3.7-6.8h7.3l3-5.5 2.9 5.5zm-1.4 31.6h7.3l3-5.5 3 5.5h7.5l-3.8 7 3.8 6.7h-7.4l-2.8 5.4-3-5.4h-7.6l3.7-7zm9.1 87.1v-6.9c-16.5-2-28.1 4.6-28.1 4.6 1.1-32.9 18.9-39.5 18.9-39.5h9.6v-17.2h1.2l15.7 4.8-15.7 5.7v6.7h11.8c-5.1 27.5 7.8 39.6 7.8 39.6-5.6-3.6-19.5-4.7-19.5-4.7v6.9h29.2l-4.5 5.4-9.8-2.1-7.4 2.1-8.4-2.1-9.4 2.1-10.7-2.1-8.8 2.1-6.7-5.4zm-44.6-85.2h7.4l2.9-5.4 3 5.4h7.6l-3.8 7 3.8 6.7h-7.4l-2.9 5.5-3-5.5h-7.6l3.8-6.9zm76.2-20h-7.3l-2.9 5.4-3.1-5.4h-7.5l3.7-7-3.7-6.7h7.3l3-5.5 2.9 5.5h7.6l-3.7 6.9zm29.5 90.5l-9.9-10.1-1.7-17.5c0 0 2.3 2.1 8.6 9 6.4 7 3 18.6 3 18.6zm0 19.2l-9.9-10.3-1.7-17.4c0 0 2.3 2.1 8.6 9.1 6.4 6.9 3 18.6 3 18.6zm0 38.2l-9.9-10.3-1.7-17.4c0 0 2.3 2.2 8.6 9.1 6.4 6.9 3 18.6 3 18.6zm0-19.1l-9.9-10.3-1.7-17.4c0 0 2.3 2.1 8.6 9 6.4 7 3 18.7 3 18.7zm2.5-136h7.6l-3.7 6.9 3.7 6.8h-7.3l-3 5.4-2.9-5.4h-7.7l3.8-7-3.8-6.7h7.4l3-5.4zm-147.8-46.4l5.7 18.6-8.6 2.6-5.2-16.6zm150.4-3l9.2 0.2-4.7 19-8.7-2.2zm-140.9-12.5c2.3 0 4.4 0.5 6.4 2 2.7 2 4.1 4.6 5.2 8.1l5.4 17.7-8.7 2.6-5.4-17.7c-0.6-1.9-1.1-3.4-2.8-4.5-2.1-1.3-4.3-0.9-6.8-0.1l-13.5 4.1-1.9-6.3 14.7-4.5c2.6-0.8 5.1-1.4 7.4-1.4zm144.3-2l14.9 3.7c5.2 1.3 9.7 3.1 11.5 7.6 1.3 3.1 1.1 6 0.3 9.6l-4.5 18-8.7-2.2 4.4-18c0.5-1.9 0.7-3.4-0.1-5.2-1.1-2.3-3.2-3.1-5.8-3.7l-13.6-3.4zm-119.8-4l4.7 18-8.2 4.2-5.3-19.9zm87.8-2.2l9.6 2c5.1 1.1 9.6 3 11.8 7.4 1.4 2.9 0.9 5.8 0.1 9.3l-3.9 18.1-8.7-1.9 3.5-16.8c0.6-2.4 1.1-4.3 0.4-6.2-0.9-2.4-3.2-3.2-5.8-3.7l-8.3-1.8zm-42.3-2.5l11.4 0.7 8.7 14.6c0.9-0.3 1.9-1 2.3-1.6 0.6-1 0.5-2.9 0.6-4.8l0.4-7.6 8.8 0.5-0.4 6.1c-0.1 3.2-0.8 5.6-2.1 7.7-1 1.7-3.5 3.7-6.3 4.4l6.3 9-0.3 5-29.7-1.5 0.3-6.7 18.1 1zm-28-8.3l1.4 10.3 18.3-2.4 0.8 5.4-6.2 27.9-10.1 1.4 6.9-26.9-18.1 2.4-2.4-16.8zm32.3 246.6v-19.4c-6.3 0.2-11.9 2.7-16.2 6.7l13.7 13.6c0.8-0.5 1.5-0.8 2.5-0.9zm2.8 8.8c0.5-0.3 1-0.7 1.3-1.3 0.2-0.3 0.3-0.7 0.5-1 0-0.4 0.1-0.6 0.1-1 0-0.3-0.1-0.7-0.1-0.9-0.2-0.4-0.3-0.7-0.5-1.1-0.3-0.5-0.8-1-1.3-1.3-0.3-0.2-0.6-0.3-1-0.5-0.3 0-0.6-0.1-1-0.1-0.3 0-0.7 0.1-1 0.1-0.3 0.2-0.6 0.3-1 0.5-0.5 0.3-1 0.8-1.3 1.3-0.2 0.4-0.4 0.7-0.5 1.1-0.1 0.2-0.1 0.6-0.1 0.9 0 0.4 0 0.6 0.1 1 0.1 0.3 0.3 0.7 0.5 1 0.3 0.6 0.8 1 1.3 1.3 0.4 0.3 0.7 0.4 1 0.5 0.3 0.1 0.7 0.1 1 0.1 0.4 0 0.7 0 1-0.1 0.4-0.1 0.7-0.2 1-0.5zm2.6-6.6c0.5 0.7 0.8 1.5 0.9 2.4h19.4c-0.2-6.2-2.7-11.8-6.6-16.1zm0 6.6l13.7 13.7c3.9-4.2 6.4-9.8 6.6-16.1h-19.3q-0.2 1.3-1 2.4zm-21.6 15c4.3 3.9 9.9 6.4 16.2 6.7v-19.4c-1-0.2-1.7-0.5-2.5-1zm17.9-12.7v19.4c6.2-0.2 11.8-2.7 16-6.7l-13.6-13.6c-0.7 0.4-1.6 0.7-2.4 0.9zm-5.5-8.8l-13.7-13.7c-4 4.2-6.4 9.9-6.7 16.1h19.4c0.1-0.9 0.4-1.8 1-2.4zm-1 4.1h-19.4c0.3 6.3 2.7 11.9 6.7 16.1l13.7-13.6q-0.8-1.1-1-2.5z"/></svg>