<svg version="1.2" xmlns="http://www.w3.org/2000/svg" viewBox="0 0 1734 1302" width="1734" height="1302"><style>.a{fill:#e57925}.b{fill:#d92827}.c{fill:#079247}.d{fill:#f5eb27}</style><g style="opacity:1"><path fill-rule="evenodd" class="a" d="m819.2 169.3h252.7v277.8h-211v134.3l-37.7-37.8-4 4.3v-250.1h-214.9v388l-92-92.2-0.4 0.1v-341.7h307.3m42.5 171.7h44.8v-85.9h-44.8z"/><path fill-rule="evenodd" class="a" d="m712 337.8h45v85.9h-45m-75.8-85.9h45v85.9h-45zm151.5 351.2h34v66.4h-34zm57.3 0h34.3v66.5h-34.3z"/><path fill-rule="evenodd" class="b" d="m1259.4 793.7l-117.1-116.9-119.6 119.6-180.5-180.5-180.3 180.5-130.7-130.6-125.6 126.1h-91.5l198.2-198.3 130.5 130.6 180.4-180.6 180.5 180.6 119.6-119.6 188.2 188.2"/><path fill-rule="evenodd" class="c" d="m437.2 838.7l2.5 5.6 2.4 5.5 2.2 5.7 2.2 5.7 2.3 5.6 2 5.4 2.2 5.9 2.2 5.7 2.4 5.7 2 5.4 2.2 5.8 2.1 5.5 2.2 5.7 2.4 5.8 2.2 5.4 2.4 5.6 1.2 3.1 1.5 2.4 1.1 2.9 1.2 2.5 1.5 2.7 1.2 2.7 1.4 2.6 1.5 2.9 2 3.3 2.2 3.3 1 1.7 1.4 1.9 1 1.7 1.6 1.5 1.3 1.6 1.3 1.5 1.5 1.5 1.5 1.1 1.6 1.1 1.6 1.1 1.9 0.9 1.7 0.7 2.8 0.4h2.8l2.9 0.2h2.6 2.8l2.6-0.2h2.9l2.5-0.1 3.5-0.3h3.2l3.3-0.5 3.3-0.3 3.2-0.3 3.4-0.5 3.1-0.3 3.2-0.5 3-0.4 2.8-0.6 2.9-0.5 3.2-0.7 2.8-0.6 2.9-0.7 2.7-0.8 3.1-0.5 3.5-1.2 3.5-1.1 3.5-1.2 3.7-1.2 3.2-1.2 3.6-1.3 3.3-1.4 3.5-1.3 4.9-2.1 4.7-2 4.9-2.4 4.9-2.2 9.2-4.7 9.4-4.9 9.4-5.2 9.2-4.8 9.4-5.1 9.5-4.8 3.9-1.8 3.9-2.2 4.1-2 4-1.8 4-1.8 3.9-1.9 4.2-1.8 4.2-1.9 17.7-7.1 6.2-1.9 5.9-2.2 6.3-1.8 5.9-2 5.8-2 6-1.8 6.3-2.2 5.8-2.1 18.4-8.7 6.2-3.2 6-3 6.1-3.3 6.1-3.3 6-3.2 6-3.4 6.2-3.1 6-3.1 4.1-1.9 3.7-1.9 3.8-1.8 4.1-1.7 3.8-1.7 3.9-1.8 4.1-1.6 3.9-1.6 11.1-3.4 11.1-3 11.6-2.2 7.5-0.4 7.4-0.6 7.4-0.3 7.4-0.3h7.6 7.4 7.5l7.3 0.2 3.3 0.3 3.2 0.1 3 0.4 3.3 0.4 2.9 0.2 3.1 0.5 3.2 0.4 2.9 0.5 8.2 1.8 8 2.4 7.3 3 7.4 4 6.6 5 6 6.1 4.8 6.8 4.6 8.9 3.4 9.2 2.1 9.1 1.3 9.3 0.2 9-1.3 18.1-0.6 3.1-0.5 3.5-0.5 3.1-0.7 3.3-0.7 3.3-0.6 3.4-0.7 3.1-0.7 3.5-0.9 3-0.7 3.5-1 3.1-0.7 3.4-0.8 3.5-0.8 3.3-0.8 3.1-0.8 3.4 2.6-1.1 2.6-1.3 2.5-1.3 2.3-1.3 2.6-1.2 2.5-1.3 2.5-1.4 2.3-1.3 4.7-2.8 4.9-2.4 4.7-2.8 4.7-2.4 5.1-2.7 4.8-2.3 4.9-2.1 5.1-2.1 8.1-3.5 8.2-3.5 8.2-3.5 8-3.5 8.1-3.3 8-3.5 8.3-3.6 8-3.6 8-3.6 8.1-3.6 7.9-3.7 8-3.5 8.3-3.5 7.9-3.7 8.2-3.7 8.3-3.5 6.3-2.6 6.5-2.8 6.7-2.9 6.5-2.5 6.3-2.7 6.8-2.5 6.5-2.5 6.5-2.6 6.8-2.2 6.7-2.4 6.9-2.2 6.6-2.2 6.9-2.2 6.8-2 6.8-2.1 6.8-1.9 4.3-1 4.3-1.1 4.1-0.9 4.4-1 4.4-1 4-1 4.4-0.8 4.3-0.9 4.4-0.8 4.4-0.7 4.5-0.8 4.4-0.5 4.6-0.7 4.3-0.6 4.7-0.6 4.3-0.8 4.7-0.2 4.9-0.5 4.6-0.4 4.6-0.3 4.9-0.3 4.8-0.3 4.3-0.1 5-0.3 14.7-0.2 11.1 2.6 8.6 8.6 3.7 9.5 1.5 9v3.2l0.1 3.5-0.1 3.5v3.4 3.6 3.3 3.3l0.1 3.5 0.2 2.5 0.1 2.6v2.5l-0.1 2.6-0.2 2.4-0.1 2.4-0.1 2.5-0.4 2.8-0.4 2.8-0.6 3.1-0.3 3.3-0.4 2.8 6.6-5.7 8.5-5.1 16.9-7.7 3.3-1.4 3.6-1.2 3.3-1.3 3.5-1.2 3.6-0.9 3.4-1.1 3.4-1.1 3.6-1.2 3.6-0.8 3.9-0.9 3.8-0.9 3.4-1 3.9-0.8 3.6-0.8 3.7-0.7 4-0.6 7.4-1.6 7.3-1 7.4-1.1 7.5-1 7.3-0.9 7.4-0.8 7.5-0.8 7.6-0.7 8.9-0.5 9-0.7 9.1-0.4 8.9-0.4h9.2 9l9.2 0.2 8.9 0.4 7.4 0.9 5.6 1.5 18.2 14.3-18.4 13.7-3.1 0.6-2.7 0.7-2.8 0.4-2.7 0.7-2.8 0.2-2.9 0.3-2.8 0.4-2.9 0.4-4.4 0.7-4.4 0.9-4.3 0.8-4.6 0.9-4.3 1-4.6 1-4.1 0.8-4.5 1.4-5.7 1.6-5.8 1.8-5.7 2-5.4 1.8-5.7 2-5.5 2.5-5.4 2.4-5.5 2.3-4.5 2.3-4.6 2.3-4.6 2.3-4.3 2.5-8.9 5-8.7 4.9-8.6 5.3-8.6 5.3-8.7 5.4-8.3 5.3-4.3 2.3-3.6 2.4-3.9 2.3-4.1 2.5-3.9 2.3-4 2-4.2 2.1-3.8 2.2-2.7 1.3-2.7 1.4-2.7 1.2-2.6 1.1-2.7 1.2-2.6 1.1-2.8 1-2.8 1.1-15.1 4.4-7.6 1.2-8.1 0.4-7.9-0.6-8-1.6-7.7-2.9-7.5-4.6-6.6-5.7-6.9-8.5-2.2-3.5-2-3.4-1.7-3.3-1.6-3.5-1.3-3.6-1.4-3.6-1.1-3.8-1-3.5-0.8-3.5-0.7-3.2-0.5-3.1-0.6-3.2-0.4-3.2-0.4-3.2-0.3-3.3-0.3-3.3-9.9 0.2-9.7 0.4-9.6 0.6-10 0.7-9.6 0.6-9.7 0.8-9.6 1.3-9.5 1.1-5.6 0.9-5.2 0.7-5.4 1-5.2 1-5.3 1.2-5.2 1.1-5.2 0.8-5.2 1.4-7.4 1.7-7.6 2.1-7.3 2.2-7.1 2.2-7.6 2.2-7.2 2.1-7.2 2.6-7.2 2.5-9 3.2-8.8 3.1-9.1 3.4-8.7 3.5-8.7 3.5-8.8 3.5-9 3.7-8.5 3.5-18.1 9.7-7.7 4.7-7.4 4.5-7.4 4.7-7.4 4.5-7.5 4.8-7.4 4.4-7.5 4.7-7.5 4.2-21.6 10.9-11.3 4.3-11.5 3.8-11.7 2.6-12.2 1.1-12.5-0.1-7.2-1-7-2.1-6.4-3.3-6-4.1-4.8-5.3-3.9-6.4-2-6.7-1.3-7-0.3-9.7 0.3-9.4 2.4-17.9 1.1-5.9 1.4-5.8 1.2-5.8 1.5-6.2 1.1-5.7 1.1-6 1-5.9 1-6.1 0.5-13-0.5-6.2-1.2-5.6-1.9-5.6-2.1-4.1-2.3-0.8-2.4-0.7-2.2-0.4-2.4-0.5-2.7-0.2-2.3-0.2h-2.3l-2.4-0.2h-5.2l-4.8 0.2-4.9 0.2-4.9 0.6-2.4 0.4-2.6 0.2-2.5 0.6-2.4 0.4-2.2 0.5-2.5 0.8-2.2 0.8-2.3 0.9-9.2 5.9-14.7 8.3-2.6 1.1-2.7 1-2.6 1.3-2.5 1-2.7 1.1-2.6 1-2.7 1-2.8 1-7 2-6.9 1.8-6.8 1.7-7 1.6-7.2 1.4-6.8 1.4-7.3 1.5-6.8 1.4-16.1 4.3-4.9 1.3-4.9 1.7-4.9 1.7-4.9 1.5-5 1.9-4.6 1.7-5 1.9-4.8 2-3.2 1.4-3.5 1.5-3.4 1.5-3.2 1.6-3.3 1.6-3.4 1.4-3.2 1.7-3.3 1.5-89.7 49.8-4.3 2.1-4.4 2.2-4.3 1.9-4.2 1.8-4.3 2.2-4.3 1.8-4.2 1.9-4.6 1.9-3.4 1.4-3.6 1.2-3.3 1-3.6 1.3-3.5 0.9-3.4 1.1-3.5 1-3.7 1.3-19.8 4.3-21.3 3-22.7 1.1-12.2-0.2-10.1-0.9-9.7-2.1-8.8-3-8.1-4.1-7.3-5-6.6-5.8-5.4-6.3-5.1-6.8-4.1-7.2-7.3-15.2-2-5.7-2-5.9-1.9-6-2-5.9-1.7-6.1-1.5-5.8-1.8-6.2-1.6-5.9-0.7-2.9-0.9-2.9-0.8-2.7-0.9-2.9-0.8-2.7-0.8-2.8-1.1-2.9-0.7-2.6-1.3-3.5-1.1-3.3-1.3-2.9-1.4-3.4-1.4-2.9-1.4-3-1.7-3.4-1.7-2.8-6.9-9.6-4.2-4-4.2-3.3-4.8-2.8-5.3-2.5-6.2-1.9-6.7-1.2-5.3-0.2-4.5 0.7-4.4 1.6-3.1 1.5-3.1 1.6-3.2 1.6-3 1.6-2.9 1.7-3.1 1.8-3 1.6-3.2 1.7-5.2 1.9-4.9 1.7-5.2 1.7-4.8 1.8-5.4 1.6-5 1.6-5.2 1.5-5.1 1.5-9.1 2.5-9 2.7-8.8 2.6-9 2.9-8.8 2.7-9.1 2.9-8.7 3-8.9 3.1-17.6 7-5.4 2.6-5.7 2.7-5.7 2.5-5.5 2.8-5.6 3-5.4 2.6-5.5 3-5.5 3.3-5.9 4-6.1 3.9-6 4.1-5.9 4-5.9 4.1-6 4.3-5.8 4.3-6 4-14.1 9.3-3.1 1.9-3.2 1.6-2.9 1.7-3 1.6-3.1 1.6-3 1.6-3.1 1.5-3.4 1.7-19.7 7.9-11.9 2.4-15.4-9.2 2.3-16 4.3-8.3 5.8-7.7 15.4-17.5 3.7-4 3.9-3.9 4-3.7 3.7-3.8 3.9-3.8 4-3.7 3.7-3.8 4.1-3.6 23.2-19.7 22.7-17.3 10.9-7.3 7-4 7-3.7 6.8-3.8 7.2-3.5 7.2-3.6 7.1-3.8 7.2-3.5 6.8-3.4 5.9-2.9 6-2.8 5.8-2.7 6.1-2.6 5.7-2.5 6.1-2.5 6-2.5 6.2-2.4 6-2.3 6.3-2.3 6.1-2.2 6.3-2 6.1-2 6.4-2.3 6.1-2.1 6.3-2.1 9.5-4.2 4.5-2.9 4.3-2.8 4.4-3.3 4.5-3 4.2-3 4.4-3.2 4.4-3.4 4-3 0.5-0.4 0.6-0.3-0.5 0.5h91.5l2-2.2 2 2.2 5.3 6.6 9.7 15 1.7 3.1 1.7 3.1 1.5 3.2 1.5 3 1.7 3.2 1.5 3.2 1.5 3.2"/><path fill-rule="evenodd" class="c" d="m347.3 606.7l0.6-30.9 0.4-5.5 0.2-5.4 0.6-5.3 0.2-5.5 0.4-5.4 0.4-5.3 0.4-5.3 0.4-5.6 0.5-4.7 0.6-5.1 0.5-4.7 0.6-4.9 0.6-4.9 0.8-4.8 0.4-4.9 0.7-4.7 0.8-4.4 0.7-4.5 0.9-4.4 0.8-4.3 0.7-4.2 1-4.3 0.6-4.4 0.8-4.2 1.2-5.1 1.2-4.9 1-4.8 1-5 1.4-4.7 1.5-5 1.1-5 1.3-4.7 1.6-5.6 1.6-5.5 1.8-5.7 1.8-5.3 2.1-5.6 1.8-5.5 1.9-5.5 2-5.3 1.8-4.1 1.6-4.4 1.8-4 1.9-4.1 1.8-3.8 1.9-4.3 1.9-3.9 2.2-3.8 9.4-17.3 1.4 2.4 1.5 2.5 1.3 2.4 1.4 2.4 1.4 2.5 1.3 2.7 1.4 2.4 1.2 2.4 2.7 5.3 2.7 5.5 2.2 5.5 2.4 5.6 2.1 5.3 2.2 5.6 1.8 5.5 2.2 5.8 1.7 4.9 1.5 5.3 1.9 5.1 1.4 5.3 1.4 5.2 1.4 5 1.7 5.3 1.5 5 1.1 5.3 1.4 5.2 1 5.3 1.2 5.2 1.2 5.3 1.1 5 1.1 5.3 1.1 5.3 0.7 4.4 0.9 4.8 0.7 4.5 0.7 4.5 0.8 4.6 0.6 4.4 0.6 4.6 0.7 4.6 3.1 26.5 0.5 5.6 0.2 5.5 0.3 5.2 0.7 5.5 0.3 5.2 0.2 5.6 0.5 5.4 0.2 5.5 0.2 6.5v6.7l0.1 6.5 0.2 6.7v6.6 6.6 6.7 6.6l-117.2 117.4-1-2.5-2.5-10-1-5.4-0.6-5.2-0.7-5.5-0.5-5.6-0.4-5.2-0.4-5.5-0.2-5.6-0.4-5.4-0.3-5.5-0.1-5.4-0.2-5.4-0.2-5.4v-5.2l-0.2-5.7v-5.4l-0.1-5.6v-5.3-5.6-5.4-5.4-5.5-5.2l-0.3-5.7"/><path fill-rule="evenodd" class="d" d="m514 247.5v1.9 1.3l-0.2 1.3h23.2v-7l0.3-7.4 0.5-7.5 0.8-7.4 1.2-7.3 1.2-7.4 1.7-7.2 2.2-7.3 1.9-7.2 2.5-7 2.7-7.2 2.9-6.7 3-7 3.3-6.8 3.6-6.6 3.7-6.5 4-6.3 4.3-6.2 4.2-6.1 4.5-6.2 4.9-5.8 4.7-5.7 5.2-5.7 5.1-5.5 5.4-5 5.6-5.2 5.6-4.9 6-4.7 5.8-4.4 6.3-4.1 6.1-4.1 6.2-4 6.7-3.7 5.3-2.8 5.8-2.8 5.5-2.6 5.8-2.4 5.8-2.3 5.9-2 5.8-2.1 5.9-1.7 6-1.6 5.9-1.6 6-1.3 6.1-1 6.1-1.2 6.1-0.7 6.1-0.9 6.3-0.3 5.9-0.5 6.2-0.2 6.2-0.1 6.1 0.1 6.4 0.4 5.8 0.5 6.3 0.4 5.9 0.7 6.5 1.2 5.9 0.9 6.2 1.4 6.1 1.1 6 1.9 5.8 1.6 6 1.9 6 2.1 5.9 2.4 6 2.5 5.9 2.5 5.7 2.8 5.6 2.8 5.4 2.9 5.5 3.3 5.4 3.3 5.1 3.3 5 3.6 4.8 3.5 5.1 3.9 4.8 3.9 4.4 4 4.6 4.1 4.2 4.1 4.4 4.5 4 4.3 4.1 4.6 3.9 4.6 3.6 4.5 3.6 4.8 3.6 4.8 3.4 5.1 3.1 5.1 3.4 4.9 2.7 5.4 2.9 5.2 2.8 5.3 2.5 5.4 2.4 5.4 2.3 5.5h24.8l-3.9-9.8-4.3-9.7-4.6-9.5-4.9-9.3-5.5-9-5.5-9-6.1-8.4-6.3-8.3-6.8-8.1-7.1-7.7-7.2-7.4-7.6-7-7.8-7-8.2-6.4-8.3-6.2-8.9-5.9-8.7-5.5-9.2-4.8-9.5-5-9.5-4.4-9.8-4-10-3.7-10.1-3-10.3-2.7-10.6-2.5-10.4-2-10.9-1.4-10.8-1-11.1-0.6h-11l-11.4 0.3-11.1 1.1-11.6 1.3-11.6 1.9-11.2 2.4-11.2 3.2-10.9 3.4-10.8 3.9-10.8 4.4-10.2 5.1-10 5.2-9.6 5.7-9.6 6.3-9.3 6.4-8.7 6.9-8.7 7.4-8.3 7.7-8 7.9-7.6 8.6-7.2 8.3-6.9 9.1-6.4 9.3-5.8 9.5-5.8 9.9-5 10-4.8 10.3-4.6 10.7-3.4 10.5-3.6 11.1-2.7 11.2-2.4 11.3-1.5 11.4-1.4 11.7-0.6 11.6m88.3 7c0 0 216.8 0 216.8 0v-82.7h107.3l-2.8-4.7-3.1-4.7-3.4-4.6-3.4-4.3-3.4-4.5-3.5-4.4-3.7-4.1-3.9-3.7-4.2-4-4-3.7-4.1-3.6-4.5-3.5-4.4-3.2-4.7-3.4-4.5-3-4.9-2.9-4.8-2.7-4.9-2.7-5.2-2.4-5.1-2.3-5.2-2.2-5.3-1.7-5.4-2-5.7-1.6-5.3-1.2-5.8-1.5-5.5-1-6-0.8-5.7-0.7-5.9-0.6-5.9-0.1-5.9-0.2-8.9 0.2-8.7 0.7-8.4 1-8.4 1.4-8.5 2-8.2 2.4-7.7 2.5-7.7 3-7.7 3.3-7.2 3.7-7.2 4-7.2 4.3-6.6 4.8-6.6 5.1-6.4 5.1-5.9 5.8-5.7 5.7-5.4 6.2-5.1 6.5-5 6.5-4.6 6.7-4.3 7.3-3.7 7.1-3.8 7.6-3.3 7.6-2.7 7.7-2.5 8.1-2.2 8.3-1.8 8.2-1.2 8.5-0.9 8.6z"/><path fill-rule="evenodd" class="c" d="m955.1 260.5l20.6-20.5 14.5 12.9 3.5 3.3 3 3.3 3.5 3.6 3 3.2 8.1 9.5 8.6 10.6-22.3 18.8 6.3 8.8 26.1-12.1 7.5 19.2 0.7 2 1 2.7 0.5 2.1 1 2.4 0.5 2.3 0.7 2.4 0.8 2.3 0.7 2.3 3 12.4 2.5 13-26.2 7 0.2 57 42-0.1 50.7-208.7 25 278.8 34.7-69.4h157.5v16.7h-147.1l-56.5 113.9-21.3-236.4-29.7 122.1-72.3 0.3-0.2-87.3 23.3-6.1-0.7-3.6-0.9-3.3-0.9-3.7-1.1-3.5-1-3.6-1.1-3.5-1.2-3.5-1-3.4-22.6 10.7-24-33.1 21.7-18.3-2.3-2.5-2.4-3-2.3-2.6-2.8-2.6-2.3-2.7-2.6-2.4-2.4-2.4-2.7-2.3-19.3 19.2-30-21.6 9-23.2-3.6-1.7-3.6-1.6-4-1.8-3.7-1.3-3.8-1.4-3.8-1.4-3.9-1.5-4.1-1.2-8.2 25.5h-78.2v-16.9h65.8l9.7-29.3 13.3 3.7 2.4 0.6 2.5 1.1 2.2 0.4 2.5 0.9 2.5 1 2.3 0.9 2.2 0.9 2.5 0.8 2.3 0.9 2.4 1 2.3 0.9 2.4 0.9 2.3 1.1 2.2 0.9 2.3 1.1 2.2 1.1 11.9 5.9-9.8 25.3"/><path fill-rule="evenodd" class="c" d="m1565.3 1174.8v-0.2l0.3-0.8 0.2-0.5 0.3-0.6 0.4-0.5 0.7-0.5 0.7-0.7 0.9-0.5 1.2-0.6 1.3-0.4 1.6-0.4 1.8-0.2 2.1-0.2 2.4-0.1 2.8 0.1 2.5 0.2 2 0.2 1.7 0.4 1.4 0.4 1.1 0.6 0.9 0.5 0.6 0.7 0.5 0.5 0.2 0.5 0.2 0.6 0.1 0.5-0.1 0.8v0.2l-15.1 81.3-0.5 2-0.7 2.3-0.4 1.3-0.4 1.4-0.6 1.3-0.6 1.5-0.7 1.4-0.8 1.4-0.8 1.4-1.1 1.3-1 1.3-1.1 1.2-1.2 1.2-1.3 0.9-2.5 1.6-2.3 1.3-2.2 1.1-2.2 0.9-54.7 19.9-0.7 0.3-1 0.4h-0.6-0.7-0.6l-0.6-0.3-0.8-0.3-0.6-0.6-0.7-0.7-0.7-1-0.6-1.2-0.6-1.5-0.4-1.9-0.5-2.2-0.2-1.7-0.1-1.7v-1.4l0.1-1.3 0.2-1.3 0.3-1.2 0.3-1 0.5-1 0.3-0.8 0.5-0.7 0.4-0.6 0.6-0.6 0.4-0.4 0.4-0.2 0.4-0.3 0.4-0.1 27.7-10.1-28.6-91.9-0.1-0.7 0.1-0.6 0.1-0.6 0.3-0.5 0.4-0.7 0.5-0.5 0.7-0.6 0.7-0.6 0.9-0.4 1.1-0.4 1.2-0.4 1.3-0.2 1.6-0.3 1.6-0.2 1.7-0.2h4l1.7 0.1 1.5 0.1 1.5 0.2 1.1 0.1 1.2 0.3 0.9 0.2 0.7 0.3 0.6 0.3 0.5 0.4 0.5 0.4 0.3 0.3 0.3 0.5 0.2 0.4 0.2 0.4 0.1 0.4 21.2 87.2 1-0.3 0.9-0.2 0.8-0.4 0.8-0.4 1.7-1 1.5-1.2 0.9-0.7 0.7-0.8 0.8-1.1 0.6-1 0.7-1.2 0.4-1.2 0.4-1.3 0.1-1.3zm-109.7 76.4l-0.3 0.6-0.3 0.2-0.3 0.3-0.4 0.2-0.5 0.2-0.6 0.1h-0.8l-1-0.2-1-0.3-1.3-0.5-1.5-0.7-1.6-1.1-1.9-1.1-1.9-1.4-1.5-1.3-1.1-1.2-1.1-1.1-0.7-1.1-0.5-1-0.4-1-0.3-0.8-0.1-0.8v-0.8l0.1-0.6 0.1-0.4 0.3-0.8 0.2-0.3 12.1-17.9 0.9-1.5 1-1.8 0.9-2 0.8-2.2 0.4-1 0.1-1.2 0.2-1 0.1-1 0.1-0.9-0.1-0.9-0.3-0.9-0.2-0.8-0.4-0.5-0.4-0.6-0.6-0.4-0.4-0.5-1.2-0.8-1.1-0.5-1.2-0.5-1.1-0.3-1.1-0.2-0.8-0.1h-23.7l-0.8-0.2-0.5-0.2-0.5-0.2-0.6-0.4-0.5-0.5-0.6-0.8-0.6-0.8-0.4-1-0.5-1.3-0.3-1.4-0.4-1.7-0.2-2v-4.6l0.2-2 0.4-1.6 0.3-1.6 0.5-1.2 0.4-1 0.6-0.8 0.6-0.8 0.5-0.4 0.6-0.5 0.5-0.2 0.5-0.2 0.8-0.2h31.8l2.8 0.1 2.6 0.2 2.5 0.3 1.2 0.1 1.2 0.3 1.2 0.2 1.1 0.4 1 0.5 1.2 0.5 0.9 0.5 1 0.6 1 0.7 0.8 0.8 0.8 0.8 0.8 1 0.8 1 0.6 1.2 0.7 1.3 0.5 1.3 0.6 1.4 0.5 1.7 0.4 1.6 0.4 1.9 0.2 2 0.3 2.1 0.1 2.2 0.2 2.4v2l-0.2 2.1-0.2 2.2-0.4 2.1-0.5 2.2-0.6 2.2-0.6 2.1-0.7 2.2-0.8 2.1-0.8 2.2-0.9 2.1-0.9 2.1-2 4-2.1 3.8-2.2 3.7-2 3.3-2 2.9-1.8 2.5-1.5 2.1-1.2 1.5-0.9 0.9-0.5 0.4c0 0 0 0.2 0 0.2zm-59.1 28.4l-0.1 0.7-0.3 0.5-0.2 0.6-0.3 0.5-0.6 0.6-0.6 0.5-0.9 0.6-1.1 0.5-1.2 0.5-1.5 0.3-1.7 0.2-2 0.3h-2.3-2.1l-2-0.3-1.8-0.2-1.4-0.3-1.3-0.5-1-0.5-0.9-0.6-0.6-0.5-0.6-0.6-0.3-0.5-0.4-0.6-0.1-0.5-0.3-0.7v-61.6l0.2-2.4 0.1-2.2v-2.2l-0.3-1.9-0.2-2-0.2-0.9-0.2-0.8-0.4-0.7-0.4-0.8-0.7-0.9-0.6-0.8-0.8-0.7-0.9-0.5-0.9-0.6-1-0.3-1.1-0.4-1.2-0.3-1.1-0.2-1.2-0.3h-1.3l-1.2-0.1-2.6-0.1-2.6-0.1h-31.4l-0.8-0.2-0.4-0.2-0.5-0.2-0.6-0.4-0.6-0.5-0.5-0.8-0.6-0.8-0.5-1-0.4-1.3-0.4-1.4-0.2-1.7-0.3-2v-4.6l0.3-2 0.2-1.6 0.4-1.6 0.4-1.2 0.5-1 0.6-0.8 0.5-0.8 0.6-0.4 0.6-0.5 0.5-0.2 0.4-0.2 0.8-0.2h43.4l2.4 0.1 2.4 0.1 2.2 0.1 2.1 0.3 2.3 0.5 2 0.4 2.1 0.7 1.8 0.7 1.9 0.8 0.9 0.6 0.8 0.5 0.9 0.5 0.8 0.7 0.8 0.7 0.8 0.7 0.7 0.8 0.7 0.8 0.7 0.9 0.8 0.9 0.6 1 0.6 1 0.9 1.5 0.6 1.6 0.6 1.6 0.5 1.4 0.4 1.7 0.3 1.6 0.2 1.7 0.3 1.7 0.1 3.5 0.2 3.5v73.4zm-121.5-28.4l-0.3 0.6-0.2 0.3-0.3 0.3-0.5 0.1-0.5 0.2-0.7 0.1h-0.8l-0.9-0.1-1.1-0.4-1.3-0.5-1.4-0.7-1.6-1-1.9-1.2-1.8-1.4-1.5-1.2-1.3-1.2-0.9-1.1-0.8-1.2-0.6-1-0.3-1-0.3-0.8-0.1-0.8v-0.7l0.1-0.6 0.1-0.5 0.3-0.8 0.1-0.3 12.2-17.9 0.9-1.5 1-1.8 1-2 0.6-2.2 0.4-1 0.2-1.1 0.2-1.1 0.2-1v-0.9l-0.2-0.9-0.2-0.9-0.3-0.7-0.3-0.6-0.5-0.6-0.4-0.4-0.5-0.4-1.1-0.9-1.3-0.5-1.1-0.4-1.1-0.4-1-0.2-0.9-0.1h-23.7l-0.8-0.2-0.5-0.2-0.5-0.2-0.6-0.4-0.5-0.5-0.6-0.7-0.6-0.9-0.4-1-0.5-1.3-0.3-1.4-0.3-1.7-0.3-2v-4.5l0.3-2 0.3-1.7 0.3-1.5 0.5-1.2 0.4-1.1 0.6-0.8 0.6-0.7 0.5-0.5 0.6-0.4 0.5-0.3 0.5-0.2 0.8-0.2h31.9l2.6 0.2 2.7 0.1 2.5 0.3 1.2 0.1 1.2 0.3 1.1 0.3 1.2 0.3 1.1 0.5 1 0.5 1.1 0.5 0.9 0.6 0.9 0.7 0.8 0.8 0.8 0.8 0.9 1 0.7 1 0.8 1.2 0.5 1.3 0.6 1.3 0.6 1.4 0.4 1.7 0.5 1.6 0.3 2 0.3 1.9 0.2 2.1 0.3 2.2v2.5 2l-0.1 2.1-0.3 2.1-0.3 2.1-0.5 2.2-0.5 2.2-0.7 2.1-0.8 2.2-0.6 2.1-1 2.2-0.9 2.1-0.9 2.1-2 4.1-2.1 3.8-2.1 3.6-2 3.3-2 3-1.8 2.4-1.5 2.1-1.3 1.6-0.9 0.9-0.3 0.3zm-77.6 0l-0.3 0.6-0.2 0.2-0.3 0.3-0.5 0.2-0.5 0.2-0.7 0.1h-0.8l-0.9-0.2-1.1-0.3-1.3-0.5-1.4-0.7-1.6-1.1-2-1.1-1.7-1.4-1.5-1.3-1.3-1.1-1-1.2-0.7-1.1-0.6-1-0.3-1-0.2-0.8-0.2-0.8v-0.8l0.1-0.6 0.1-0.4 0.3-0.8 0.1-0.3 12.2-17.9 0.9-1.5 1-1.8 1-2 0.6-2.2 0.4-1 0.3-1.2 0.1-1 0.2-1v-0.9l-0.2-0.9-0.2-0.9-0.3-0.8-0.4-0.5-0.4-0.6-0.4-0.4-0.5-0.5-1.1-0.8-1.2-0.5-1.3-0.5-1-0.3-1-0.2-0.9-0.1h-23.7l-0.8-0.2-0.5-0.2-0.5-0.2-0.6-0.4-0.5-0.5-0.6-0.8-0.5-0.8-0.5-1-0.5-1.3-0.3-1.4-0.3-1.7-0.3-2v-4.6l0.3-2 0.3-1.6 0.3-1.6 0.5-1.2 0.5-1 0.5-0.8 0.6-0.8 0.5-0.4 0.6-0.4 0.5-0.3 0.5-0.2 0.8-0.2h31.8l2.7 0.1 2.7 0.2 2.5 0.3 1.2 0.1 1.3 0.3 1 0.2 1.2 0.4 1.1 0.5 1 0.5 1 0.5 1 0.6 0.9 0.7 0.8 0.8 1 0.8 0.7 1 0.7 1 0.7 1.2 0.6 1.3 0.6 1.3 0.6 1.4 0.4 1.7 0.4 1.6 0.4 1.9 0.3 2 0.2 2.1 0.3 2.2v2.4 2l-0.1 2.1-0.2 2.2-0.4 2.1-0.5 2.2-0.6 2.2-0.6 2.1-0.8 2.2-0.6 2.1-1 2.2-0.9 2.1-0.9 2.1-2 4-2.1 3.8-2.1 3.7-2 3.3-2.1 2.9-1.7 2.5-1.5 2.1-1.3 1.5-0.9 0.9-0.4 0.4zm-156.8 32.4l-0.8-0.3-0.5-0.1-0.6-0.3-0.5-0.4-0.5-0.5-0.7-0.7-0.5-0.9-0.5-1.1-0.4-1.1-0.4-1.5-0.3-1.7-0.3-2v-4.5l0.3-2 0.3-1.8 0.4-1.4 0.4-1.3 0.5-1 0.5-0.8 0.7-0.7 0.5-0.6 0.5-0.3 0.6-0.3 0.5-0.2 0.8-0.1h13.8l0.2-0.2v-0.1l0.1-0.3-0.1-0.4-0.2-1-0.3-1.4-1.3-3.8-1.5-4.7-0.8-2.6-0.8-2.7-0.7-2.8-0.8-3-0.4-2.9-0.4-3-0.1-1.5-0.1-1.3v-1.5l0.1-1.3 0.1-1v-1.1l0.3-1 0.3-1 0.8-2.1 0.9-2.2 1-2.1 1.2-2 1.2-2 1.2-1.8 2.2-3.3 1.6-2.7 0.5-1 0.2-0.8v-0.3l-0.1-0.1-0.2-0.1-0.4-0.1h-9.7l-0.8-0.2-0.5-0.2-0.6-0.2-0.5-0.4-0.7-0.5-0.5-0.8-0.5-0.8-0.4-1-0.5-1.3-0.5-1.4-0.2-1.7-0.3-2v-2.3-2.3l0.3-2 0.2-1.6 0.5-1.6 0.5-1.2 0.4-1 0.5-0.8 0.5-0.8 0.7-0.4 0.5-0.5 0.6-0.3 0.5-0.1 0.8-0.2h62.5l1.6 0.1 1.5 0.1 1.5 0.2 1.4 0.2 1.4 0.4 1.4 0.4 1.3 0.5 1.3 0.5 1.1 0.7 1.2 0.7 1.1 0.9 1.2 0.8 1 1 1.1 1.1 1.1 1.2 1.1 1.4 1 1.5 0.8 1.4 0.6 1.6 0.6 1.4 0.5 1.6 0.3 1.5 0.3 1.6 0.2 1.5 0.1 1.6v1.7 1.7 3.5 75.3l-0.2 0.8-0.2 0.4-0.4 0.6-0.3 0.5-0.6 0.6-0.6 0.6-0.9 0.5-1 0.6-1.3 0.4-1.5 0.4-1.7 0.3-2 0.1-2.1 0.2-2.3-0.2-2-0.1-1.8-0.3-1.4-0.4-1.2-0.4-1.1-0.6-0.9-0.5-0.6-0.6-0.6-0.6-0.3-0.5-0.3-0.6-0.2-0.4-0.1-0.8-0.1-0.4v-72.1l-0.3-1-0.3-0.8-0.3-0.7-1-1.5-1-1.2-0.7-0.6-0.5-0.6-0.7-0.5-0.6-0.3-0.8-0.4-0.8-0.1-0.7-0.2-0.9-0.1h-18.1l-0.3 0.1-0.2 0.1-0.3 0.1-0.3 0.3-0.7 0.8-0.8 1-0.8 1.2-0.9 1.5-1 1.5-0.9 1.8-0.9 1.8-0.8 2-0.8 2-0.7 2.1-0.6 2.2-0.4 2.1-0.4 2-0.2 2.1v2.7l0.1 2.9 0.3 2.8 0.4 2.8 0.5 2.8 0.6 2.8 0.7 2.6 0.7 2.6 1.4 4.5 1.2 3.7 0.9 2.8 0.4 1.5 0.3 0.9 0.3 1.4 0.6 1.9 0.5 2.4 0.5 2.6 0.3 2.8 0.1 1.6 0.1 1.5-0.1 1.5-0.1 1.6v0.6l-0.3 0.7-0.1 0.5-0.2 0.5-0.6 1-0.6 0.8-0.7 0.7-0.9 0.6-1 0.5-1 0.4-1.1 0.3-1.2 0.2-1.2 0.3h-1.3l-2.4 0.3h-28.3c0 0-0.4 0-0.4 0zm-91.9-16.3l0.4 0.8 0.2 0.5 0.2 0.6v0.8l-0.1 0.6-0.2 0.8-0.4 0.9-0.5 0.9-0.6 1.1-1 1.1-1.1 1.3-1.5 1.2-1.6 1.4-1.7 1.2-1.4 0.9-1.2 0.8-1.4 0.7-1 0.4-1.1 0.3-0.9 0.2-0.9 0.1h-0.7l-0.6-0.1-0.7-0.2-0.4-0.2-0.5-0.2-0.3-0.3-0.3-0.4-0.2-0.3-42.4-53.8-2.1 3.8-1.7 3.3-0.6 1.5-0.6 1.3-0.4 1.3-0.4 1.3-0.4 1.2-0.3 1.3-0.2 1.3-0.3 1.3-0.3 2.9-0.3 3.4-0.2 2-0.1 2 0.1 2.2 0.2 2.2 0.4 4.4 0.5 4.1 0.7 3.7 0.5 2.9 0.4 2 0.1 0.7 0.1 0.4v0.8l-0.1 0.6-0.1 0.6-0.3 0.7-0.4 0.6-0.5 0.8-0.7 0.6-0.9 0.6-1.1 0.5-1.4 0.4-1.5 0.4-1.9 0.3-2.3 0.1-1.8-0.1-1.6-0.1-1.5-0.3-1.3-0.4-1.2-0.5-0.9-0.4-0.9-0.5-0.7-0.6-0.6-0.5-0.4-0.6-0.6-0.6-0.2-0.4-0.4-0.8v-0.5l-0.3-0.3-0.1-0.5-0.2-0.7-0.2-0.9-0.4-2.5-0.4-3-0.3-3.4-0.2-3.6-0.2-3.6 0.2-3.4 0.1-3.4 0.4-3.3 0.4-3.1 0.5-3.1 0.7-2.9 0.8-2.8 0.9-2.8 1-2.6 1.2-2.6 1.3-2.6 1.5-2.5 1.6-2.5 1.7-2.5 1.9-2.5 2-2.6 2.2-2.6-18.4-23.5-0.2-0.3-0.3-0.6-0.1-0.5v-0.5-0.7-0.6l0.2-0.8 0.3-1 0.4-1 0.7-1.1 0.9-1.1 1-1.3 1.4-1.4 1.5-1.6 1.2-0.9 1.1-0.8 1.2-0.7 1-0.5 1-0.5 1-0.4 1-0.2 0.9-0.2 0.9-0.1h0.9l0.7 0.1 0.6 0.2 0.7 0.2 0.4 0.1 0.4 0.3 0.2 0.3 37.7 47.5 1.4-2.5 1.3-2.5 1.2-2.8 1.1-2.7 0.4-1.4 0.5-1.4 0.4-1.5 0.3-1.5 0.3-1.7 0.3-1.4 0.3-1.8 0.1-1.7 0.1-1.9 0.1-1.9v-2l-0.1-1.8-0.4-3.6-0.4-3.1-0.5-2.8-0.4-2.1-0.4-1.3-0.2-0.4v-1.3l0.1-0.7 0.2-0.7 0.3-0.5 0.4-0.8 0.5-0.6 0.7-0.7 0.9-0.7 1.1-0.5 1.3-0.5 1.7-0.3 1.8-0.3 2.2-0.1 2.1 0.1 1.9 0.2 1.5 0.4 1.5 0.3 1 0.5 1.1 0.5 0.8 0.7 0.6 0.5 0.4 0.6 0.4 0.6 0.3 0.5 0.2 0.4 0.2 0.8v0.3 0.4l0.4 1.4 0.2 2.1 0.3 2.7 0.3 3.4 0.2 3.7v6.3l-0.2 2.2-0.3 3.1-0.3 2.8-0.6 2.7-0.5 2.7-0.7 2.5-0.8 2.3-0.9 2.4-1.1 2.3-1.1 2.2-1.3 2.2-1.4 2.2-1.5 2.1-1.7 2.1-1.7 2.1-1.8 2.2-2.1 2.2 23.3 29.9zm-110.6 12l-0.1 0.8-0.2 0.4-0.3 0.6-0.3 0.5-0.6 0.6-0.7 0.6-0.8 0.5-1 0.5-1.3 0.5-1.4 0.4-1.7 0.3-2 0.1-2.4 0.2-2.2-0.2-1.9-0.1-1.7-0.3-1.6-0.4-1.1-0.5-1.1-0.5-0.8-0.5-0.7-0.6-0.5-0.6-0.5-0.5-0.3-0.6-0.1-0.4-0.2-0.8v-72.2l-0.1-1.1-0.2-1.1-0.3-1-0.5-1.1-0.7-1.3-0.9-1-0.4-0.4-0.4-0.3-0.5-0.4-0.6-0.4-1.1-0.5-1.5-0.4-1.7-0.6-2.1-0.6-10.9-3.1-0.3-0.1-0.7-0.5-0.4-0.3-0.4-0.4-0.4-0.5-0.5-0.7-0.4-0.8-0.3-1-0.1-1.2-0.2-1.2 0.1-1.6 0.2-1.7 0.3-2 0.6-2.1 0.7-2.2 0.7-1.8 0.9-1.5 0.8-1.3 0.8-1.1 0.8-0.8 0.8-0.6 0.9-0.6 0.6-0.4 0.7-0.1 0.6-0.1 0.6-0.2h0.8l0.4 0.2 27.7 8.3 1.7 0.6 1.5 0.6 1.4 0.8 1.2 0.9 1.2 0.9 1.1 1.1 1.1 1.3 0.9 1.4 0.6 0.8 0.3 1 0.3 0.8 0.3 0.8 0.4 1.8 0.1 1.6 0.2 1.8v85.2zm-69.5 0.2l-0.1 0.7-0.2 0.6-0.3 0.5-0.5 0.6-0.5 0.5-0.7 0.5-0.9 0.6-0.9 0.5-1.3 0.5-1.5 0.3-1.7 0.3-1.9 0.2-2.3 0.1-2.3-0.1-1.9-0.2-1.8-0.3-1.4-0.3-1.3-0.5-1-0.5-0.9-0.6-0.6-0.5-0.6-0.5-0.3-0.6-0.3-0.5-0.2-0.6-0.2-0.7v-0.4-58.9-2.3-2.4l0.1-2.2v-2.2l-0.1-1.9-0.3-2-0.2-0.9-0.3-0.8-0.4-0.7-0.3-0.8-0.6-0.8-0.7-0.9-0.8-0.7-0.9-0.5-0.9-0.6-1-0.3-1.1-0.4-1.1-0.3-1.2-0.2-1.2-0.2-1.2-0.1-1.4-0.1-2.5-0.1-2.7-0.1h-31.2l-0.8-0.2-0.5-0.2-0.6-0.2-0.5-0.4-0.5-0.5-0.6-0.7-0.5-0.9-0.6-1-0.4-1.3-0.4-1.4-0.3-1.7-0.1-2-0.2-2.3 0.2-2.2 0.1-2 0.3-1.7 0.4-1.5 0.4-1.2 0.6-1.1 0.5-0.8 0.6-0.7 0.5-0.5 0.5-0.4 0.6-0.3 0.5-0.2 0.8-0.2h43.3l2.5 0.1 2.2 0.1 2.3 0.2 2.2 0.3 2.1 0.4 2.1 0.5 2 0.6 2 0.7 1.8 0.8 0.8 0.6 1 0.5 0.8 0.6 0.8 0.6 0.8 0.8 0.7 0.6 0.9 0.8 0.7 0.8 0.6 0.9 0.7 1 0.7 0.9 0.6 1 0.8 1.6 0.7 1.5 0.6 1.6 0.4 1.5 0.6 1.6 0.2 1.6 0.3 1.7 0.1 1.7 0.2 3.5 0.1 3.6v73.3c0 0 0 0.4 0 0.4zm-189.3-28.4l-0.3 0.6-0.3 0.3-0.3 0.3-0.4 0.1-0.5 0.2-0.7 0.1h-0.8l-0.9-0.1-1.1-0.4-1.3-0.5-1.4-0.7-1.6-1-2-1.2-1.8-1.4-1.5-1.2-1.2-1.2-1-1.2-0.7-1.1-0.5-1-0.4-1-0.2-0.8-0.2-0.8v-0.8l0.1-0.6 0.1-0.4 0.3-0.8 0.1-0.3 12.2-17.9 0.9-1.5 1-1.8 0.9-2 0.8-2.2 0.3-1 0.3-1.1 0.1-1.1 0.2-1v-0.9l-0.2-0.9-0.1-0.9-0.4-0.7-0.4-0.6-0.3-0.6-0.6-0.4-0.4-0.5-1.1-0.8-1.1-0.5-1.4-0.4-1-0.4-1.1-0.2-0.8-0.1h-23.7l-0.8-0.2-0.5-0.2-0.6-0.2-0.5-0.4-0.5-0.5-0.6-0.7-0.5-0.9-0.5-1-0.5-1.3-0.4-1.4-0.3-1.7-0.1-2-0.2-2.3 0.2-2.2 0.1-2 0.3-1.7 0.4-1.5 0.5-1.2 0.5-1.1 0.5-0.8 0.6-0.7 0.5-0.5 0.5-0.4 0.6-0.3 0.5-0.2 0.8-0.2h31.8l2.8 0.1 2.6 0.2 2.5 0.3 1.2 0.1 1.3 0.3 1.1 0.3 1.2 0.3 0.9 0.5 1.2 0.5 0.9 0.5 1 0.6 1 0.7 0.8 0.8 0.9 0.8 0.7 1 0.7 1 0.7 1.2 0.7 1.3 0.5 1.3 0.5 1.4 0.5 1.7 0.4 1.6 0.4 2 0.3 1.9 0.3 2.1 0.1 2.2 0.1 2.5v2l-0.1 2-0.3 2.2-0.3 2.1-0.5 2.2-0.6 2.2-0.6 2.1-0.7 2.2-0.8 2.1-0.8 2.2-1 2.1-0.9 2.1-2 4.1-2.1 3.8-2.1 3.6-2.1 3.3-2 3-1.7 2.4-1.5 2.1-1.3 1.6-0.9 0.8-0.4 0.4zm-56.3 28.4l-0.2 0.7-0.2 0.5-0.3 0.6-0.4 0.5-0.4 0.6-0.8 0.5-0.8 0.6-1.1 0.5-1.1 0.5-1.6 0.3-1.6 0.2-2 0.3h-2.3-2.3l-2-0.3-1.7-0.2-1.4-0.3-1.2-0.5-1.1-0.5-0.8-0.6-0.8-0.5-0.5-0.6-0.4-0.5-0.3-0.6-0.1-0.5-0.2-0.7v-71.9l-0.1-0.9-0.2-1-0.3-0.8-0.4-0.7-0.9-1.4-1.1-1.3-0.5-0.6-0.7-0.6-0.6-0.4-0.7-0.4-0.8-0.4-0.7-0.1-0.8-0.2-0.8-0.1h-53l-0.7-0.2-0.6-0.2-0.5-0.2-0.5-0.4-0.6-0.5-0.5-0.8-0.6-0.8-0.6-1-0.4-1.3-0.4-1.4-0.2-1.7-0.2-2-0.1-2.3 0.1-2.3 0.2-2 0.2-1.6 0.4-1.6 0.4-1.2 0.6-1 0.6-0.8 0.5-0.8 0.6-0.4 0.5-0.5 0.5-0.2 0.6-0.2 0.7-0.2h62.6l1.6 0.1 1.4 0.1 1.5 0.2 1.5 0.2 1.4 0.4 1.3 0.4 1.3 0.5 1.2 0.5 1.3 0.7 1.2 0.7 1.1 0.9 1.2 0.9 1 0.9 1.1 1.1 1 1.2 1.2 1.4 0.9 1.5 0.8 1.4 0.8 1.6 0.5 1.4 0.5 1.6 0.2 1.5 0.3 1.6 0.2 1.5 0.1 1.6 0.1 1.7v5.2l-0.1 3.7v71.5c0 0 0 0.4 0 0.4zm-69 1.5l-0.2 0.6-0.3 0.5-0.3 0.4-0.5 0.5-0.6 0.5-0.7 0.4-0.9 0.3-1.1 0.4-1.3 0.3-1.5 0.3-1.8 0.1h-2l-2.2-0.1-2.3-0.3-1.9-0.4-1.7-0.4-1.4-0.5-1.2-0.6-0.9-0.6-0.8-0.7-0.6-0.6-0.4-0.7-0.4-0.6-0.2-0.6-0.1-0.5-0.1-0.8v-0.4l7.4-56.5v-0.2l0.2-0.7 0.2-0.5 0.3-0.4 0.5-0.4 0.5-0.4 0.8-0.5 0.8-0.3 1-0.4 1.3-0.2 1.5-0.2h1.7l2 0.1 2.2 0.3 1.9 0.4 1.5 0.4 1.4 0.5 1.2 0.6 1 0.5 0.8 0.5 0.8 0.5 0.5 0.7 0.4 0.5 0.4 0.6 0.2 0.4 0.2 0.5 0.2 0.6v0.3l-5.5 56.5c0 0 0 0.3 0 0.3zm-43-1.8l-0.1 0.8-0.3 0.4-0.2 0.6-0.4 0.5-0.5 0.6-0.7 0.6-0.8 0.6-1.1 0.5-1.3 0.4-1.4 0.4-1.7 0.3-2 0.1-2.3 0.2-2.2-0.2-2-0.1-1.7-0.3-1.5-0.4-1.2-0.4-1.1-0.5-0.8-0.6-0.7-0.6-0.5-0.6-0.4-0.5-0.3-0.6-0.2-0.4-0.2-0.8v-72.1l-0.1-1.1-0.1-1.2-0.4-1-0.4-1.1-0.8-1.3-0.8-0.9-0.4-0.4-0.5-0.4-0.4-0.4-0.6-0.3-1.2-0.6-1.4-0.4-1.7-0.6-2.1-0.5-11-3.2-0.3-0.1-0.6-0.4-0.5-0.3-0.3-0.5-0.5-0.5-0.4-0.7-0.4-0.8-0.3-1-0.1-1.1-0.3-1.3 0.1-1.6 0.2-1.7 0.4-1.9 0.5-2.2 0.8-2.1 0.7-1.8 0.8-1.6 0.8-1.2 0.9-1.2 0.8-0.8 0.8-0.6 0.7-0.6 0.8-0.3 0.7-0.2 0.5-0.1 0.6-0.1h0.9l0.3 0.1 27.8 8.4 1.6 0.5 1.5 0.7 1.4 0.7 1.3 0.9 1.2 1 1 1.1 1.1 1.2 0.9 1.5 0.6 0.8 0.3 0.9 0.4 0.9 0.3 0.8 0.4 1.7 0.1 1.6 0.1 1.8v3.7l-0.1 2v79.5c0 0 0 0.4 0 0.4zm-70.7-106.1l0.9 0.2 0.4 0.1 0.5 0.3 0.6 0.5 0.5 0.4 0.7 0.8 0.5 0.8 0.5 1 0.4 1.2 0.4 1.6 0.4 1.6 0.1 2v4.6l-0.1 2-0.4 1.7-0.4 1.4-0.4 1.3-0.5 1-0.5 0.8-0.7 0.8-0.5 0.5-0.6 0.4-0.5 0.2-0.4 0.2-0.9 0.2h-10.4v80.4l-0.1 0.4-0.2 0.7-0.1 0.5-0.3 0.6-0.4 0.5-0.5 0.6-0.7 0.5-0.9 0.6-0.9 0.5-1.4 0.5-1.4 0.3-1.7 0.2-2 0.3h-2.3-2.2l-2-0.3-1.7-0.2-1.4-0.3-1.3-0.5-1-0.5-0.9-0.6-0.7-0.5-0.5-0.6-0.4-0.5-0.3-0.6-0.2-0.5-0.2-0.7v-80.8h-44.7l-0.8-0.2-0.5-0.2-0.5-0.2-0.6-0.4-0.5-0.5-0.7-0.8-0.5-0.8-0.4-1-0.5-1.3-0.4-1.4-0.3-1.7-0.2-2v-4.6l0.2-2 0.3-1.6 0.4-1.6 0.5-1.2 0.4-1 0.5-0.8 0.7-0.8 0.5-0.4 0.6-0.5 0.5-0.3 0.5-0.1 0.8-0.2zm-104.5 106.4l-0.2 0.7-0.2 0.5-0.3 0.6-0.4 0.5-0.5 0.6-0.7 0.5-0.8 0.6-1 0.5-1.3 0.5-1.5 0.3-1.7 0.2-2 0.3h-2.2-2.3l-1.9-0.3-1.8-0.2-1.4-0.3-1.2-0.5-1.2-0.5-0.8-0.6-0.6-0.5-0.6-0.6-0.4-0.5-0.2-0.6-0.3-0.5-0.1-0.7v-71.9l-0.2-0.9-0.1-1-0.3-0.8-0.4-0.7-0.9-1.4-1.2-1.3-0.5-0.6-0.6-0.6-0.6-0.4-0.7-0.4-0.7-0.4-1.6-0.3-0.8-0.1h-53.1l-0.6-0.2-0.6-0.2-0.5-0.2-0.6-0.4-0.6-0.5-0.5-0.8-0.5-0.8-0.6-1-0.4-1.3-0.4-1.4-0.2-1.7-0.3-2v-2.3-2.3l0.3-2 0.2-1.6 0.4-1.6 0.4-1.2 0.6-1 0.5-0.8 0.5-0.8 0.6-0.4 0.6-0.5 0.5-0.2 0.6-0.2 0.6-0.2h62.7l1.5 0.1 1.6 0.1 1.4 0.2 1.5 0.2 1.3 0.4 1.4 0.4 1.2 0.5 1.3 0.5 1.3 0.7 1.1 0.7 1.2 0.9 1.2 0.9 1 0.9 1.1 1.1 1 1.2 1.2 1.4 0.9 1.5 0.9 1.4 0.6 1.6 0.6 1.4 0.5 1.6 0.3 1.5 0.2 1.6 0.1 1.5 0.2 1.6 0.1 1.7v80.4zm-69 1.5l-0.3 0.6-0.2 0.5-0.3 0.4-0.5 0.5-0.6 0.5-0.8 0.4-0.9 0.4-1.1 0.3-1.2 0.3-1.5 0.3-1.8 0.1h-1.9l-2.3-0.1-2.3-0.3-1.9-0.4-1.7-0.4-1.4-0.5-1.2-0.6-1-0.6-0.7-0.7-0.6-0.6-0.5-0.6-0.3-0.6-0.3-0.7-0.1-0.5v-0.8-0.3l7.3-56.6 0.1-0.2 0.2-0.7 0.2-0.4 0.3-0.5 0.4-0.4 0.6-0.4 0.7-0.4 0.8-0.4 1.1-0.4 1.2-0.1 1.5-0.3h1.7l2 0.1 2.3 0.3 1.8 0.4 1.6 0.4 1.4 0.5 1.2 0.6 0.9 0.5 0.9 0.5 0.7 0.5 0.5 0.7 0.6 0.5 0.2 0.6 0.3 0.5 0.3 0.4v0.6l0.1 0.3-5.4 56.6z"/></g></svg>