<svg version="1.2" xmlns="http://www.w3.org/2000/svg" viewBox="0 0 408 497" width="408" height="497"><defs><linearGradient id="P" gradientUnits="userSpaceOnUse"/><linearGradient id="g1" x2="1" href="#P" gradientTransform="matrix(-0.522,196.914,-420.322,-1.115,16.008,86.855)"><stop stop-color="#0971bb"/><stop offset=".25" stop-color="#46c2df"/><stop offset=".5" stop-color="#fdf0c7"/><stop offset=".75" stop-color="#00ab68"/><stop offset="1" stop-color="#00a65d"/></linearGradient><linearGradient id="g2" x2="1" href="#P" gradientTransform="matrix(241.481,-95.174,89.559,227.234,76.24,403.572)"><stop stop-color="#a26339"/><stop offset="1" stop-color="#a54b34"/></linearGradient><linearGradient id="g3" x2="1" href="#P" gradientTransform="matrix(192.253,0,0,112.792,54.184,387.344)"><stop stop-color="#a26339"/><stop offset="1" stop-color="#a54b34"/></linearGradient><linearGradient id="g4" x2="1" href="#P" gradientTransform="matrix(183.601,-4.173,2.465,108.444,59.419,412.018)"><stop stop-color="#9f5b2c" stop-opacity="1"/><stop offset="1" stop-color="#9f5b2c" stop-opacity="0"/></linearGradient></defs><style>.a{fill:#00a65d;stroke:#00a65d;stroke-linecap:round;stroke-linejoin:round;stroke-width:.7}.b{fill:#ffefcf;stroke:#ffefcf;stroke-linecap:round;stroke-linejoin:round;stroke-width:.7}.c{fill:url(#g1)}.d{fill:#0971bb;stroke:#00aeef;stroke-miterlimit:3.86400008;stroke-width:.7}.e{fill:url(#g2);stroke:#9f5b2c;stroke-miterlimit:3.86400008;stroke-width:.7}.f{fill:#00aeef;stroke:#00aeef;stroke-miterlimit:3.86400008;stroke-width:.7}.g{fill:#00a65d}.h{fill:#ffefcf;stroke:#dbc195;stroke-linejoin:round;stroke-width:.4}.i{fill:url(#g3);stroke:url(#g4);stroke-miterlimit:3.86400008;stroke-width:.7}.j{fill:#f26322;stroke:#f26322;stroke-miterlimit:3.86400008;stroke-width:1.5}.k{fill:#f7931d;stroke:#f7931d;stroke-miterlimit:3.86400008;stroke-width:.9}.l{fill:none;stroke:#f7931d;stroke-linecap:round;stroke-miterlimit:3.86400008;stroke-width:5.1}.m{fill:#f7931d;stroke:#f7931d;stroke-miterlimit:3.86400008;stroke-width:.7}.n{fill:#f26322;stroke:#f26322;stroke-linecap:round;stroke-linejoin:round;stroke-width:.7}.o{fill:#f26322;stroke:#f26322;stroke-linecap:round;stroke-linejoin:round;stroke-width:.6}.p{fill:#8f4b6a;stroke:#f04e23;stroke-linejoin:round;stroke-width:.7}.q{fill:none;stroke:#f2e3c5;stroke-linecap:round;stroke-linejoin:round;stroke-width:2.9}.r{fill:none;stroke:#f4eecb;stroke-linejoin:round;stroke-width:6}.s{fill:none;stroke:#f4eecb;stroke-linejoin:round;stroke-width:6.8}.t{fill:#ffefcf}</style><g style="opacity:1"><path class="a" d="m406.5 290.9c0 112.2-89.9 205.3-202.3 205.3-112.4 0-202.9-93.1-202.9-205.1l0.3-289.8h404.9z"/><path class="b" d="m9 8.7h390.2v274.8 7.4c0 108.2-86.8 197.9-195 197.9-108.3 0-195.2-89.6-195.2-197.7v-7.3z"/><path class="c" d="m15.5 108.1v175.7h376.5v-175.7z"/><path class="a" d="m15.5 101.7v-87.8h376.5v87.8z"/><path class="d" d="m15.1 101.7v-88.9h247.3v88.9z"/><path class="a" d="m15.8 291l376.3-0.1c0 104.3-83.9 190.6-187.9 190.6-104.1 0-188.4-86.4-188.4-190.5z"/><path class="e" d="m81.5 429.1c-35.2-30.7-50.2-69-56.6-96.8q196.4 0 240.3-0.1v133.8c-54.3 18.8-124.9 14.5-183.7-36.9z"/><path class="f" d="m265.2 290.9v41.8q-43.9-0.1-240.3-0.1c-5-22.1-4.6-41.7-4.6-41.7z"/><path class="g" d="m69.8 383.8l38.4-9.8 36.7 21.8-39.7 26.8c0 0-2.1 1.6-0.8 4.4 1.3 2.8 3.9 3.7 5.1 3.3 1.1-0.5 1.7-1.7 2.7-2 1-0.3 2-0.2 3.3 1.3 1.3 1.5 2.1 2.6 4.9 3.7 2.7 1.2 4.2 2.5 5.6 4.3 1.5 1.8 3.8 5.8 9 5.8 3.4 0 4-1.4 5.2-1.4 1.1 0 2.3 1.3 2.3 1.3 0 0 8.4 6.3 9.4 7.1 1 0.8 2.3 0.7 3.4 0.5 1.1-0.2 3.7-1.1 3.7-1.1 0 0 1.7 0 2.8 0.9 1.1 1 9.1 5.6 9.1 5.6 0 0 3.6 1.4 6.4-3 2.7-4.4 16.5-26.5 16.5-26.5 0 0 1.2-1.6 3.6-0.3 2.5 1.3 46 26.2 46 26.2 0 0 6.8 1.4 7-2.6 0.2-4.1 0.9-129.6 0.9-135.1 0-5.5-0.6-8.3-2.8-8.5-2.3-0.1-5.2 2.5-5.6 4.6-0.3 2.1-1.1 7.3-3.2 7.6-2.1 0.3-6.2 1.5-7.7 2.3-1.4 0.8-3.7 3.3-6 3.3-2.3 0-11.8-2.2-14.9-2.3-3.1-0.2-8 0-10.3-0.8-2.2-0.9-5.3-2.3-7.8-2.5-2.4-0.1-3.9 0.2-5.3 0.7-1.5 0.5-2.6-0.4-2.8-2.1-0.2-1.8-0.7-9.6-1.8-14-0.7-2.6-0.8-5.2-3.6-4.7-2.7 0.4-3.7 4.8-4.3 7.4-0.7 2.6-2 7.2-4.5 7.4-2.4 0.1-2.7-2.5-4.7-2.6-1.9-0.2-8.6-1.2-9.9-1.2-1.3 0-6.5 3.6-6.5 3.6 0 0-2.1 1.3-4.1 1.1-1.9-0.1-9.5-0.6-13.9 0.5-4.4 1.2-7.5 3.4-8.7 7.3-0.8 2.9-1.6 3.6-3.5 3.5-2-0.2-7.3-1.2-8.3-4.3-1-3.1 1-8.6-6-11.8-9.8-4.6-14.6-2.7-19.2-0.2-5.9 3.1-5.4 5.4-7.3 5.5-2 0.2-3-0.8-4.6-1.9-1.6-1.2-8.1-2.6-11.9 0.3-3.7 2.9-6.3 7.1-7.1 11.2-0.6 3-3.3 2.5-3.3 2.5h-7.9c0 0-3.1 1.3-3.1 4.2 0 2.9 2.3 4.2 3.6 5 1.3 0.8 1.3 3.1 1.1 4.2-0.2 1.2 0.7 2.2 1.3 3 0.7 0.8 0.4 2.6 0.7 3.4 0.5 1.7 1.7 2.2 1.7 5.1 0 2.9 0.7 2 2 4.6 1.3 2.7 1.5 3.8 1.7 6 0.2 2.2 3.6 3.7 4.2 4.6 0.7 0.9-0.5 1.7-0.1 2.8 0.5 1 2.9 2.5 2.6 5.3-0.2 2.9 0.7 4.3 1.8 5.5 1.2 1.1 4 3.6 5.2 3.8 1.3 0.2 3.3-0.6 3.3-0.6z"/><path class="h" d="m38.9 145.9h331v121h-138.7c1.4-3.1-0.2-7.5-4.7-7.5h-5.2c1.1-3.1-0.5-7.2-4.9-7.2h-6.5c0.2-2.7-1.6-5.5-5.2-5.5h-27.2v-29.7c0-7.5-6.1-13.5-13.6-13.5-7.5 0-13.6 6-13.6 13.6v29.6h-19.3v-29.7c0-7.5-6.1-13.5-13.6-13.5-7.5 0-13.6 6-13.6 13.6v29.6h-19.6v-29.7c0-7.5-6.1-13.5-13.6-13.5-7.5 0-13.6 6-13.7 13.6v29.6h-18zm71.7 13.6v20.8h12.6v-20.8zm54.7 0v20.8h12.6v-20.8zm54.7 0v20.8h12.5v-20.8zm54.8 0v20.8h12.5v-20.8zm54.8 0v20.8h12.5v-20.8zm-127.2 61.8v12.4h9.5v-12.4zm17.8 0v12.4h9.5v-12.4zm17.9 0v12.4h9.4v-12.4zm91.4 0v12.4h9.4v-12.4zm17.9 0v12.4h9.4v-12.4zm-291.6-61.8v20.8h12.5v-20.8z"/><path class="i" d="m148.4 331.3l-0.7 0.2 28.9 9 2.5-3.3zm-47.9 3.6l-45.2 1.3 54.2 32.2 46.5-13.1zm122.3 0.9l-27.5 0.8 14.8 5 14.1-4.6zm-96.8 1.8l-2 0.4 28.3 10.9 6.9-2.5zm34.3 1.8l-6.3 1.8 8.8 3.1 5.8-2zm80.3 0.9l-13 8.4 3.5 0.5 3.4 1.5zm-185.3 5l1.5 5.8 9.2 18.7-5.5-6.3-1 0.7 6.9 14.9 4.2 1 3.9-2.6zm4.4 0.1l26 29.1 8.4-2.2-32.3-26.5zm154 0l-38.9 10.5 21.5 7.1 24.7-16.3zm-52.1 2.2l-5.8 2.2 7.6 2.7 6.5-2.4zm76.9 3.7l-13 21.6 19.9 6.3 0.5-26.2zm-173.4 5.6l11.6 17.6h5l-14.6-17.4zm131.5 11.2l-41.1 27.5 37.5 22 25.6-41.8zm44.5 15.7l-6.6 35.8 4.3 2.4 3.3-37.5zm-18.2 2.6l-13.7 38.8 4.4 2.5 10.3-40.7zm-5.9 2.3l-15.4 32.2 4.4 2.4 12.2-33.9zm8.4 1.8l-4.7 15.4 2.1 1.1 3.6-15.9zm1.8 14.1l-7 27 4.4 2.5 3.5-28.8zm-81.1 0l-4.7 3.3 8 2.2 28.4 16.4 6.4 7.2 3.5-5zm10.3 0.1l-1.5 1.6 27.3 14.8 1.3-1.3zm-29.7 12.2l-5.1 3.1 27.8 12.7zm16.6 4.6l33.7 21.3 3.7-5.2z"/><path class="j" d="m295.9 327.3c0.8-0.2 3.8-1.9 6.7 1.8 2.9 3.8 2.6 8 3.3 11.2 0.6 3.3 2.6 11.2 7 14.9 4.2 3.5 6.5 3 6.9 1.4 0.3-1.6-1.7-4-2.2-4.5-0.6-0.5-4.8-4.9-5.7-9.3-1-5.3-0.4-9.8 2-13.4 1.7-2.6 4.7-4 5.1-5.2 0.5-1.3 0.8-2.9 1.3-3 0.6 0 3.7 3.5 4.9 7.6 1.2 4.1 2 11.8-0.2 16.5-2.3 4.7-3.2 7.2-1.8 8.2 1.3 1 3.8 0.6 5.4-2.9 1.9-4 4.2-11.5 4.2-16.5 0-3.7 3-7.9 4.9-8.3 3.2-0.7 6.4 0.4 6.4 0.4 0 0-5.2 3.4-6.8 6.3-1.8 3.2-3 8-3.6 13.3-0.8 6.1-4 14.9-10.9 16.6-6 1.5-12.4-2-15.2-6-2.7-3.9-4.5-9.1-4.9-13-0.4-4-1.2-7-2-8.9-0.8-1.9-4.8-6.6-4.8-6.6 0 0-0.8-0.3 0-0.6z"/><path class="k" d="m326 396.1c-0.6-0.5-1.8-2.9 2.8-7.8 4.5-4.9 12.3-11.8 15.7-15 4.8-4.3 10.9-14.3 12.8-22 2-7.6 1.4-13.9 2.7-15 1.3-1.2 2.1-0.9 2.1 0.1 0 0.9-0.2 13.1-1.2 18.7-1 5.5-3.4 14.6-11.6 24-8.2 9.5-20 16.8-20 16.8 0 0-2 1.2-3.3 0.2z"/><path class="k" d="m296 367.5c0 0 1.8 1.1 3.8 2.2 1.9 1 6.7 4.7 7.8 8.8 1 4 1.3 7 1.3 8.7 0 1.8 0.9 2.8 2.2 3.1 1.3 0.2 2.9 0.8 2.2 2.6-0.6 1.7-2.5 4.6-2.8 7.3-0.3 2.7-0.7 5.9-1.1 6.5-0.4 0.5-1.4 0.5-1.4-0.5 0-1-0.6-8.3-0.5-10.1 0.1-1.8 0.7-5.8 0-7.4-0.8-1.5-2.5-3.7-4.3-6.1-2.4-3.1-2.6-6.7-3.3-8-1.4-2.5-2.8-4-4.2-5.2-1.4-1.3-2.9-3-2.5-3.4 0.3-0.5 2.8 1.5 2.8 1.5z"/><path class="l" d="m277.1 431.9c0 0 32-3.2 39.2-27 3.2-10.7 3.4-22.6 3.4-22.6l0.8-11.6"/><path class="m" d="m364 328.5c0 0 0 3.5-2.1 3.4-2.2-0.1-1.4-2.7-1.1-3.5 0.3-0.8 2.8-3.2 2.8-3.2z"/><path class="m" d="m364.4 322.5c0 0-1.4 0.4-1.2-0.5 0.3-0.9 1.2-4.1 2.2-4.3 0.9-0.1 1.7 1.1 1.2 2.2-0.5 1-2.2 2.6-2.2 2.6z"/><path class="n" d="m307.2 309c0 0-1.9-3.3 2.1-3 3 0.1 1.8 2.9 1.8 2.9 0 0-0.9 3.8-1.8 3.9-0.8 0.1-2.1-3.8-2.1-3.8z"/><path class="n" d="m317.7 308.4c0 0-1.7-2.7 1.3-2.7 3 0 3.6 1.2 2.9 3.7-0.8 2.4-1.6 3.8-2.2 3.7-0.7-0.1-0.7-1.7-0.9-2.7-0.3-0.9-1.1-2-1.1-2z"/><path class="o" d="m327 307.4c0 0-0.3-2.3 1.5-1.9 2.7 0.4 2.6 2 1.9 3.4-0.9 2.1-2 3.1-2.5 2.9-0.6-0.2-0.3-1.6-0.3-2.5-0.1-0.9-0.6-1.9-0.6-1.9z"/><path class="p" d="m27.6 133.4v4.6h353.8v-5.1l-13.8-8.6h-328.7z"/><path class="q" d="m190.4 252.9h-151.8"/><path class="q" d="m204.7 258.7h-166.1"/><path class="q" d="m219.7 264.6h-181.1"/><path class="r" d="m14.4 11.7h379.7"/><path class="s" d="m14.4 104.9h379.7"/><path class="s" d="m14.4 286.9h379.7"/><path class="t" d="m27.2 45.8c0 0-2.2-3.1-0.7-6.6 1.5-3.5 3.9-6.3 5-6.3 1.2 0 8.1 4.5 10.9 8 2.9 3.5 3.2 5.5 2.2 7-0.7 1-3.7 1.9-4 4.9-0.4 3.6-0.2 6.9 0 9 0.2 2.2 0.3 12.3 0.1 13.5-0.1 1.1-3.1 3.3-4.1 4.1-1.1 0.7-2.7 0.5-3.3 0-0.6-0.6-2.2-2.2-2.1-3.7 0.1-1.5 0.3-12 0.7-15.4 0.3-3.3 1.7-6.7 1.7-7.3 0.1-1.2-1.5-2.3-1.5-2.3z"/><path class="t" d="m53.3 78.9c-0.8 0.6-4.8 1.8-6-0.9-1.3-2.8 0.9-10 0.7-18.1-0.1-3.6 3.9-6.2 6.8-6.5 3.1-0.4 3 4.5 2.8 8-0.4 7.2 1.3 10.9-0.7 13.9-1.2 1.7-2.5 2.9-3.6 3.6z"/><path class="t" d="m54.9 48.8c0 0-8.6-1-7.7-8 0.8-5.8 5-6.2 7.5-6 2.4 0.2 4.7 2.5 10.3 2.5 5.6 0 10.3-0.3 13.3-1.9 3.1-1.6 5.1-2.7 6.2-2 1.1 0.6 4.7 4.7 5.6 6.7 1 2.6 0.4 4.3-1.3 6.9-1.3 2.1-1.2 4.7-1.2 6 0.1 1.2 1 14.5 1 14.5 0 0 0.2 5.7-1.7 7.9-1.9 2.2-6.3 4.8-7.5 2.3-1.1-2.6-0.8-7.3-0.6-9.2 0.1-2.1 1-16.6 1-16.6 0 0-0.6-3.4-4.7-3.8-4.1-0.4-10.1 0.2-12.4 0.4-2.4 0.3-7.8 0.3-7.8 0.3z"/><path class="t" d="m94.3 46.3c0 0-3.5-2.6-1.5-6.7 2-4.1 4.6-6.7 5.8-6.7 1.2 0 5.6 2.7 8.6 6.1 3 3.3 5 7.1 2.4 13-2.6 6-6.4 10.7-10.6 11.9-3.8 1.2-6.3-0.1-6.3-2.1 0-1.9 1.7-4.7 4.2-6.2 2.3-1.5 4.9-1.6 5.1-3.7 0.1-2.1-2.1-2.8-4.1-3.5-1.9-0.8-3.6-2.1-3.6-2.1z"/><path class="t" d="m120 48.6c-2.6 0-6-1.6-6.7-4.4-0.6-2.9 2.2-8.9 5.2-9.7 3.1-1 5 0.8 7.4 1.4 2.4 0.6 6.7 0.1 8.7-0.4 2-0.5 4.3-1.5 6.5-0.5 2.3 1 6.4 2.7 6.3 8.4-0.1 5.7-0.6 11.4-0.5 13.8 0.2 2.5 1.9 11.4 1.1 15.3-0.9 4-2.9 5.9-6.9 5.8-2.9-0.1-3.4-7.6-3.2-10.7 0.1-3.1 1.1-13 1.1-14.3-0.1-1.9-2.1-4.8-5.6-5-3.4-0.1-10.8 0.3-13.4 0.3z"/><path class="t" d="m152.6 47.3c0 0-4.1-2.8-2.1-8.5 2-5.7 5.3-6.2 6.5-6.2 2.1 0 4.3 1.6 6 3.4 1.7 1.9 4.8 4.1 8.5 2.2 3.8-1.9 10.4-4.5 17.5-1.8 8.3 3.1 12.8 11.5 12.4 21.7-0.4 10.3-4.6 18.8-11.9 22.2-6.8 3-16.4 5.4-17.8 5.7-1.4 0.4-2.4 0.8-3.4-0.2-1-1-2.1-5 0.6-8.1 2.8-3.1 7.4-5.5 12.5-6.2 5.1-0.6 9 0 10.5-2.2 1.5-2.2 0.3-8.2 0.1-9.1-0.3-0.8-2.5-10.7-8.3-12.4-6.7-1.8-8.6-0.5-10.4-0.1-2.5 0.6-3.7-0.4-5.4 0.3-1.8 0.7-3.8 1.5-3.8 5 0 3.4-0.6 15.1-0.9 18.5-0.1 2.2-1 4-1.8 4.8-0.8 0.9-3.7 3.8-3.7 3.8 0 0-2 0.9-2.8-0.2-0.9-1.1-1.9-7-1.7-10.4 0.2-3.3 1-11.1 1.7-12.8 1.1-2.7 2.7-2.7 2.7-5.5 0.1-1.5-1.5-2-1.5-2z"/><path class="t" d="m202.5 43.1c0 0-1.6-3.6 0.2-6.1 1.7-2.5 3.8-4.5 6.9-2.8 3.1 1.7 7 4.3 7 4.3 1.4 0.9 2.9 3.3 0.9 6.8-0.9 1.6-2.9 2.7-2.8 6.2 0.2 3.6 2.6 6 5.2 6.5 1.5-0.1 3.2 0.1 3.5-2.5 0.3-4-0.8-4.7-1.5-6.5-0.8-1.7-1.5-4.8 0-7.7 1.6-2.8 3.3-5.3 4.7-5.7 1.5-0.4 3.5-0.8 5.4 0.7 1.8 1.5 4.7 3.8 3.9 6.2-0.7 2.4-1.8 7.5-4.8 11.1-3 3.6-5.1 5.2-5.1 8.3 0 3.1 3.9 7.4 9.7 4.6 6.8-3.3 10.6-5.7 11.2-10.4 0.5-3.7-2.5-6.1-5.2-7.3-1.6-0.8-3.3-1.3-2.4-4.5 1.2-4.3 4.9-7.1 7.3-7.7 3.1-0.6 8.7 2.4 9.3 6.6 0.6 4.3-0.2 7.9-1.9 11.9-1.9 4.7-8.4 13.8-12.6 17.3-4.2 3.4-9.9 6.1-12.8 7.1-3 1-5.8 0.3-7.6-0.9-3.6-2.4-11.3-10.8-14-14.3-0.9-1.2-1.3-3.6-1.1-5.6 0.3-2 1.1-8.1 1.1-8.1 0 0 0.3-1.4-0.9-2.4-1.7-1.4-3.6-5.1-3.6-5.1z"/><path class="b" d="m271 35.4c0 0 4.4 4.2 6.9 4.3 2.5 0.2 11.7 0.3 11.7 0.3 0 0 6.2-0.5 6.4 6.3 0.1 6.7 0.4 25.7 0.4 25.7 0 0-0.1 1.6 0.5 2.7 0.6 1.1 1.1 2.4 1.1 2.4l-6.1 5.2c0 0-1.3-2.8-1.1-6.3 0.1-3.5 0.5-22.4 0.5-22.4 0 0 0.2-5.5-5.5-5.7-9.1-0.2-12.9 0.5-14.9-1.1-1.9-0.8-3.8-1.6-3.8-5.4 0-1.6 3.9-6 3.9-6z"/><path class="b" d="m305.5 45.9c0 0-3.7 0-3.6-3.6 0.1-2.2 0.8-4.2 0.9-5.2 0.2-0.9 0.5-2.1 0.5-2.1 0 0 0.7 0 1.2 1 0.5 1.1 3.6 4.9 7.2 5 3.6 0.1 10.6-0.6 13.4-0.8 2.8-0.1 12.3 0.4 14.5 7.5 2.2 7 3.2 11.5 1.9 16.3-1.5 5.6-4.1 11-10.2 14.7-6.4 4-11.9 5.4-19.6 7.3-4.7 1.2-5.9 2.2-6.8 3-0.8 0.7-1.8 1.9-2.7 1.8-0.8-0.1-0.2-6.3 1.5-9 1.8-2.6 6.1-3.5 8.6-4.2 3-0.8 6.4-1.9 7.6-2.4 1.3-0.5 7.8-2.7 10.3-4 1.3-0.6 3.5-2.3 4.5-3.5 1.6-2.3 2.5-4.2 2.9-7.2 0.3-3 0.4-6.7-3-9.6-3-2.4-9.3-4.9-12.8-4.7-3.4 0.1-9.3 3.2-9.6 9.9-0.3 6.7 4.4 7.7 5.9 8.2 1.6 0.5 4.2 0.4 4.3 1.3 0.1 0.9-2.3 2.9-6 3.9-3.7 0.9-12-0.3-12.9-7.2-0.8-6.3 2.9-8.8 3.8-9.8 1-0.9 1.7-1.4 1.6-3.3-0.1-3.1-3.4-3.3-3.4-3.3z"/><path class="b" d="m347.8 35.9c0 0-2.8 5.2-1.2 7.8 1.9 3.1 4.4 3.1 6.6 3.1 2.3 0 12.1 0.2 14.6 0.6 3 0.4 6.4 3.2 7.5 7.1 1.1 3.8 1.7 9.2 0.2 12.9-1.4 3.5-6 4.4-10.1 5.5-4.1 1.1-11.3 3.4-13.5 3.9-2.3 0.6-6 2.4-7.5 6.4-1.5 3.9-1.3 7.2-1.1 7.7 0.1 0.5 1.3-1.2 3.5-2.6 3.1-2 11.9-5.1 14.9-6 6.9-2.3 14-6.3 16.3-10.5 1.9-3.5 3.2-6.4 3.2-13.1 0-6.6-1.7-14.3-7.9-17.2-4.9-2.4-9.6-2.4-13.5-2.8-3.8-0.4-7.3-0.9-8.6-2.1-1.2-1.1-0.1-2.1-1.1-2.4-1.3-0.4-2.3 1.7-2.3 1.7z"/></g></svg>