<svg version="1.2" xmlns="http://www.w3.org/2000/svg" viewBox="0 0 621 913" width="621" height="913"><style>.a{fill:#333}.b{fill:#fdb813;stroke:#000;stroke-width:12}.c{fill:#9ccb3b;stroke:#000;stroke-width:12}.d{fill:#9ccb3b}.e{fill:#9ccb3b;stroke:#020302;stroke-width:12}.f{fill:#f08d1d}</style><g style="opacity:1"><path class="a" d="m289.7 558.1l44.5 0.7 17.9 354.3h-80.9z"/><path class="b" d="m485.8 6.7h98.5l24 381.3h-591.5l28.4-381.3h96v89.1h123.1v-89.1h94.6v89.1h126.9z"/><path fill-rule="evenodd" class="c" d="m311 560.3c-106.4 0-192.4-83.8-192.4-187.4 0-103.7 86-187.5 192.4-187.5 106.4 0 192.3 83.8 192.3 187.5 0 103.6-85.9 187.4-192.3 187.4z"/><path class="d" d="m613.4 504.9c-0.8-0.1-2.7 0.6-4.6 1.6-2.1 1.1-4.3 2.1-4.9 2.1-0.5 0-5.6 2.6-11.3 5.8-5.7 3.3-10.6 5.9-10.8 5.9-0.3 0-6.5 4.1-13.9 9.1-62.3 42.4-118.8 113.3-147.8 185.6-9.6 23.8-16.4 45.3-18.8 59.7-0.6 3.5-1.9 10.7-2.8 16-1.8 9.9-3.4 43.9-2.3 46.9 1 2.5 2.5 2.1 13.8-3.7 20.9-10.6 34.2-19 51.6-32.6 24.8-19.4 43.8-38.4 66.9-66.8 33.2-40.8 62.5-96.2 75.3-142.2 3.4-12.2 4.6-16.6 6.1-23.5 0.9-4.1 1.8-9.6 2-12.2 0.3-2.7 1-8.3 1.6-12.6 1.2-9.5 1.4-38.3 0.1-39q-0.1-0.1-0.2-0.1zm-604.7 0.4q-0.4 0-0.7 0.2l-1.4 9.3c-0.3 9.1 0.2 22.9 1.5 32 3.1 21.6 11.3 55.1 16.4 66.8 0.5 1.2 1.7 4.1 2.6 6.4 11.3 29.8 30.7 65.8 50.1 93.4 29 41.1 66.8 78.5 104.2 103.3 13.3 8.8 40 22.9 42 22.2 0.9-0.2 1.3-5.6 1.4-17.9 0.2-19.9-1.1-31.5-5.9-52.4-17.5-77.1-71.5-163.4-136.1-217.3-21.4-17.8-39.6-29.9-61.3-40.8-7.4-3.6-11.1-5.2-12.8-5.2z"/><path class="e" d="m613.4 504.9c-0.8-0.1-2.7 0.6-4.6 1.6-14.4 6.4-28.8 14.7-40.9 22.9-62.3 42.4-118.8 113.3-147.8 185.6-9.6 23.8-16.4 45.3-18.8 59.7-0.6 3.5-1.9 10.7-2.8 16-1.8 9.9-3.4 43.9-2.3 46.9 1 2.5 2.5 2.1 13.8-3.7 20.9-10.6 34.2-19 51.6-32.6 24.8-19.4 43.8-38.4 66.9-66.8 33.2-40.8 62.5-96.2 75.3-142.2 3.4-12.2 4.6-16.6 6.1-23.5 0.9-4.1 1.8-9.6 2-12.2 0.3-2.7 1-8.3 1.6-12.6 1.2-9.5 1.4-38.3 0.1-39q-0.1-0.1-0.2-0.1zm-604.7 0.4q-0.4 0-0.7 0.2l-1.4 9.3c-0.3 9.1 0.2 22.9 1.5 32 3.1 21.6 11.3 55.1 16.4 66.8 0.5 1.2 1.7 4.1 2.6 6.4 11.3 29.8 30.7 65.8 50.1 93.4 29 41.1 66.8 78.5 104.2 103.3 13.3 8.8 40 22.9 42 22.2 0.9-0.2 1.3-5.6 1.4-17.9 0.2-19.9-1.1-31.5-5.9-52.4-17.5-77.1-71.5-163.4-136.1-217.3-21.4-17.8-39.6-29.9-61.3-40.8-7.4-3.6-11.1-5.2-12.8-5.2z"/><path fill-rule="evenodd" class="f" d="m394.7 491.9c-36.9 0-66.8-29.8-66.8-66.7 0-37 29.9-66.8 66.8-66.8 36.9 0 66.8 29.8 66.8 66.8 0 36.9-29.9 66.7-66.8 66.7z"/><path fill-rule="evenodd" class="f" d="m229.6 489.4c-36.9 0-66.7-29.9-66.7-66.8 0-36.9 29.8-66.8 66.7-66.8 37 0 66.8 29.9 66.8 66.8 0 36.9-29.8 66.8-66.8 66.8z"/><path fill-rule="evenodd" class="f" d="m311 346.5c-36.9 0-66.7-29.9-66.7-66.8 0-36.9 29.8-66.8 66.7-66.8 37 0 66.8 29.9 66.8 66.8 0 36.9-29.8 66.8-66.8 66.8z"/></g></svg>