<svg version="1.2" xmlns="http://www.w3.org/2000/svg" viewBox="0 0 328 400" width="328" height="400"><style>.a{fill:#08509c}.b{fill:none;stroke:#0e4b9c;stroke-width:2.2}.c{fill:#99c00d}.d{fill:#fff}.e{fill:#07b5da}.f{fill:#016330}.g{fill:#9cbd12}.h{fill:none;stroke:#fff;stroke-width:2.4}</style><g style="opacity:1"><path class="a" d="m128.2 75.2l-0.1-0.1h-0.1l-62.9-23.6-0.1 0.2q-0.8-0.2-1.7-0.2c-2.6 0-5 1.2-6.6 3h-0.1l-54.9 53.6 0.1 0.2c-1.1 1.5-1.8 3.3-1.8 5.3 0 0.5 0.1 0.9 0.1 1.4l-0.1 0.1v258.7 0.7 3.1c0 3.9 3.2 7 7 7h30.7c3.8 0 6.9-3.1 6.9-7v-3.8q0-0.7-0.1-1.5v-242.9q0.2-1 0.8-1.7l24.4-23.7c0.8-0.7 1.9-1.1 3-1.1q0.9 0 1.7 0.3l53.6 19.4v-0.1c2.2 0.3 4-1.6 4-4.7l0.8-34.3c0.1-3.5-2-7.2-4.6-8.3z"/><path class="b" d="m142.5 32.4h-16.7l19.7 43.7v37.8c2.2 12.2 18 14.8 18 14.8h1.7c0 0 15.9-2.6 18.1-14.8v-37.8l16.1-43.7h-18.6"/><path class="c" d="m174.6 31.3c0 0 8.5 21.5-10.4 33.1 0 0-6.6-24.4 10.2-34.1"/><path class="c" d="m174.6 61c0 0 8.5 21.5-10.4 33 0 0-6.6-24.4 10.2-34"/><path class="c" d="m153.5 31.3c0 0-8.5 21.5 10.3 33.1 0 0 6.7-24.4-10.1-34.1"/><path class="c" d="m153.5 61c0 0-8.5 21.5 10.3 33 0 0 6.7-24.4-10.1-34"/><path class="c" d="m176.7 25.7c0 0-3.6 7.1-3.9 9.3"/><path class="c" d="m151.6 25.7c0 0 3.6 7.1 4 9.3"/><path class="c" d="m176.7 56.1c0 0-3.6 7-3.9 9.2"/><path class="c" d="m151.6 56.1c0 0 3.6 7 4 9.2"/><path class="c" d="m174.6 1c0 0 8.5 21.5-10.4 33.1 0 0-6.6-24.4 10.2-34.1"/><path class="c" d="m153.5 1c0 0-8.5 21.5 10.3 33.1 0 0 6.7-24.4-10.1-34.1"/><path class="d" d="m131.3 92.9c-0.2-0.1-0.3 0-0.4-0.1 0 0-57-21.5-61.5-23.2-0.2-0.1-0.5-0.1-0.8-0.2-0.3-0.2-0.7-0.3-1.2-0.3-0.8 0-1.6 0.3-2.1 0.9-0.1 0.1-0.1 0.1-0.2 0.2l-46.9 44.7c0 0-0.1 0-0.1 0.1-0.6 0.5-1 1.3-1 2.2v0.5 265.8q0 0 0 0.1c0 0.9 0.7 1.5 1.5 1.5h9.9c0.8 0 1.5-0.6 1.5-1.5q0-0.1 0-0.1l0.5-260.4c0-0.9 0.4-1.6 0.9-2.2l36.5-35.5 0.5-0.5c0.5-0.4 1.2-0.7 1.9-0.7 0.3 0 0.6 0.1 0.9 0.2l0.5 0.2 59.2 22.7c0.8 0.2 1.6-0.3 1.6-1.2l0.3-11c0-1-0.7-2-1.5-2.2z"/><path class="a" d="m199.7 75.2l0.1-0.1h0.1l62.9-23.6 0.1 0.2q0.8-0.2 1.7-0.2c2.6 0 4.9 1.2 6.6 3l55 53.6-0.1 0.2c1.1 1.5 1.8 3.3 1.8 5.3 0 0.5-0.1 0.9-0.1 1.4v0.1 258.7 0.7 3.1c0 3.9-3.1 7-6.9 7h-30.7c-3.8 0-7-3.1-7-7v-3.8q0-0.7 0.2-1.5v-242.9q-0.2-1-0.8-1.7l-24.5-23.7c-0.8-0.7-1.8-1.1-2.9-1.1q-0.9 0-1.7 0.3l-53.6 19.4v-0.1c-2.2 0.3-4-1.6-4.1-4.7l-0.7-34.3c-0.1-3.5 2-7.2 4.6-8.3z"/><path class="d" d="m196.6 92.9c0.2-0.1 0.3 0 0.4-0.1 0 0 57-21.5 61.5-23.2 0.2-0.1 0.5-0.1 0.8-0.2 0.3-0.2 0.7-0.3 1.2-0.3 0.8 0 1.5 0.3 2.1 0.9 0.1 0.1 0.1 0.1 0.2 0.2l46.9 44.7q0 0 0.1 0.1c0.6 0.5 1 1.3 1 2.2v0.5 265.8q0 0 0 0.1c0 0.9-0.7 1.5-1.5 1.5h-9.9c-0.8 0-1.5-0.6-1.5-1.5q0-0.1 0-0.1h-0.1l-0.5-260.4c0-0.9-0.3-1.6-0.8-2.2l-36.5-35.5-0.5-0.5c-0.5-0.4-1.2-0.7-1.9-0.7-0.4 0-0.7 0.1-1 0.2l-0.4 0.2-59.2 22.7c-0.9 0.2-1.6-0.3-1.6-1.2l-0.3-11c-0.1-1 0.7-2 1.5-2.2z"/><path class="e" d="m262.5 237.2c0 53-42.9 95.9-95.9 95.9-53 0-95.9-42.9-95.9-95.9 0-53 42.9-96 95.9-96 53 0 95.9 43 95.9 96z"/><path class="f" d="m166.6 333.1c50.8 0 92.3-39.5 95.6-89.5l-7.3-6.4h-11.9v-13h-18.2v11.3h-8.1v-16.2l-5.8-4.1h-21.8v-7.9h5.5c0.7-8-6.1-9.7-6.1-9.7h-18.1v-8.3c8 0.3 7.7-9.4 7.7-9.4h-40.7c-1.3 8.8 5.2 9.1 5.2 9.1v21.7h-20.5c0.1 9.6 6.5 7.5 6.5 7.5v8.7h-23.2l-8.6 5.9v4.4h-26.1c0 53 42.9 95.9 95.9 95.9z"/><path class="g" d="m164.4 229.6l-16.7 101.7c6.1 1.2 12.4 1.8 18.9 1.8 4 0 8-0.2 11.9-0.7zm0 0l-56.1 83.7c6.7 5.1 14 9.3 21.8 12.6zm0.2 0l34.8 97.7c8.1-3 15.8-7 22.7-11.9zm-0.9 1l-82.6 50c3.6 7.1 8.1 13.7 13.2 19.6zm1.7 0l71.5 71.8c5.5-6 10.3-12.7 14.2-19.9z"/><path class="h" d="m262.1 243.6l-7.2-6.4h-11.9v-13h-18.2v11.3h-8.1v-16.2l-5.8-4.1h-21.8v-7.9h5.5c0.7-8-6.1-9.7-6.1-9.7h-18.1v-8.3c8 0.3 7.7-9.4 7.7-9.4h-40.7c-1.3 8.9 5.2 9.1 5.2 9.1v21.7h-20.5c0.1 9.6 6.5 7.5 6.5 7.5v8.7h-23.2l-8.6 5.9v4.4h-26.1"/><path class="a" d="m59.5 385.1v-19.9-8.1h-3.8v-11h40.7v39zm24.1-28h-11.5v1.6 15.4h11.5z"/><path class="a" d="m106.4 369.7v-12.5h-4.8v-11.1h17.6v23.6z"/><path class="a" d="m159.3 371.4l-8.3 13.7-10.1-6.6 12.8-21.3h-15.3v42.6h-12.8v-32.7c0-3.1 2-6.4 4.2-9.9h-5.9v-11.1h40.1v11.1c0 5.2-2.3 10.2-4.7 14.2z"/><path class="a" d="m198.2 385.1h-28.5v-11h20.5c1.2 0 1.7-0.7 1.7-1.9v-13.4c0-1.1-0.4-1.9-1.9-1.9h-7.5v4.5h4v8.6h-16.8v-23.9h28.8c4.5 2.2 6.3 5.8 6.3 11.3v15.4c0 4.8-1.3 9-6.6 12.3z"/><path class="a" d="m214.3 385.1v-28h-4.8v-11h17.6v39z"/><path class="a" d="m263.2 386.8l-18.2-19.5v17.8h-12.8v-11.8c0-4.4 2.4-6.6 7.2-11.8l-8.5-8.7 9.1-8.2 16.8 17.9v-16.4h12.8v9.1c0 5.7-3.3 8.5-7 13.4l9.6 9.9z"/></g></svg>