<svg version="1.2" xmlns="http://www.w3.org/2000/svg" viewBox="0 0 1832 2693" width="1832" height="2693"><style>.a{opacity:1;fill:#f2f9f4}.b{opacity:1;fill:#147d3e}.c{opacity:1;fill:#dd1f26}</style><path fill-rule="evenodd" class="a" d="m37.7 32.8h1764.2v1893.2h-1764.2z"/><path class="b" d="m0 0v1911c0 0 79 170.1 340 411.1 261 241 530 370.9 564 370.9 34 0 444-205.9 683-454.9 239-249 245-315 245-315v-1923.1zm1775 1887.2c0 0-99 153.9-293 349.9-184 185.9-455.3 331.6-482.7 346.1l-8.2-984.9q11.4-1 22.7-2.6l23 57.9 130-38.9-14.7-57.6c17.9-7.8 35.3-16.5 52.1-26.1l42.9 45.2 106.2-84.4-35.2-48.3c14.9-14.9 28.9-30.8 41.9-47.5l57 25.6 66.2-118.5-51-31.3c7.8-18.8 14.5-38.3 20.1-58.2l62.6 2.2 16.5-134.7-59.3-9.8q0-0.8 0-1.6 0-22.3-1.9-44.1l59.7-20-31.7-132-59.1 11.7q-9-24.3-20.2-47.4l48.6-40.2-77.1-111.7-51.2 32.3c-11.7-13.2-24.1-25.9-37-37.9l30.8-55.4-112.4-76-36 48.7c-19-9.8-38.7-18.5-58.9-26l7.2-62.9-132.9-27.2-14.6 59q-21.9-1.8-44.3-1.9-22.5 0.1-44.5 1.9l-14.6-59-132.9 27.2 7.2 63c-20.2 7.5-39.9 16.2-58.8 26l-36.1-48.8-112.4 76 30.9 55.5c-12.9 12-25.3 24.7-37 37.9l-51.3-32.4-77.1 111.7 48.7 40.3q-11.2 23.1-20.2 47.3l-59.2-11.7-31.7 132 59.8 20q-1.8 21.8-1.8 44.1 0 0.8 0 1.6l-59.5 9.8 16.5 134.7 62.8-2.2c5.5 19.9 12.3 39.3 20 58.2l-51.1 31.3 66.2 118.5 57.1-25.7c13 16.7 27 32.6 41.8 47.5l-35.2 48.4 106.2 84.4 42.9-45.3c16.8 9.6 34.2 18.4 52.1 26.1l-14.7 57.7 130 38.9 23-57.9q3.2 0.4 6.4 0.8l-47.4 990.6c-18-12-337.8-225.8-499.6-374.4-166.5-153-258-345-258-345v-1804.4h1705.5c0 0 0 1823.9-0.1 1823.9zm-978.5-1067.1c57.7 0 104.5-44.3 104.5-99 0-52.5-43.1-95.4-97.6-98.8 37.8-11.6 77.6-18.5 118.7-20.2l-13.1 275-310.9-125.7c33.4-36.1 72.5-66.8 115.8-90.9-13.7 16.8-21.9 37.8-21.9 60.6 0 54.7 46.8 99 104.5 99zm192.4 510l417.7-211.7c-22.7 219.3-196.8 393.6-416 416.7zm-0.6-68.6l-0.3-40.2 372.3-359.7c29.1 58.4 46.3 123.8 48.5 193zm-1-126l-1.2-137.9c17.4 12.3 39 19.5 62.4 19.5 57.7 0 104.5-44.3 104.5-99 0-47.2-34.9-86.7-81.6-96.6l29.5-30.5c15.7 35.9 53 61.1 96.6 61.1 51.6 0 94.5-35.5 102.9-82.1q9.4 11.2 18 22.9zm-2.7-331.4l-1.7-200.5c62 5.5 120.5 23 173.2 50.3zm-89.1 355l-141.9-82.8c8 1.8 16.3 2.8 24.9 2.8 57.7 0 104.5-44.3 104.5-99 0-10.3-1.6-20.2-4.7-29.6l26.6 13.1zm-333.4-363.9l184.5 90.7c-42.1 12.7-72.6 50.1-72.6 94.3 0 24.6 9.5 47.1 25.1 64.4l-203.5-118.7c15.3-47.3 37.9-91.3 66.5-130.7zm319.4 655.2l-3.9 83.1c-191.5-26-346.3-167.9-391.2-352.7zm-408.5-380.7c0-32.8 3.4-64.8 9.8-95.7l407.7 287.8-5 103.2-411-257.5q-1.5-18.7-1.5-37.8z"/><path class="c" d="m1482 2237.1c194-196 293-349.9 293-349.9v-0.1c-44.8-19-306.5-120.6-782.6-130.2l6.9 826.3c27.4-14.5 298.7-160.2 482.7-346.1z"/><path class="c" d="m327.6 2212.7c161.8 148.6 481.6 362.4 499.6 374.4l39.7-830.7c-477.3 5.9-742.6 91.2-797.3 110.8v0.5c0 0 91.5 192 258 345z"/><path fill-rule="evenodd" class="c" d="m781.5 788.1c-36.2 0-65.5-29.3-65.5-65.5 0-36.2 29.3-65.5 65.5-65.5 36.2 0 65.5 29.3 65.5 65.5 0 36.2-29.3 65.5-65.5 65.5z"/><path fill-rule="evenodd" class="c" d="m766 1042.6c-36.2 0-65.5-29.3-65.5-65.5 0-36.2 29.3-65.5 65.5-65.5 36.2 0 65.5 29.3 65.5 65.5 0 36.2-29.3 65.5-65.5 65.5z"/><path fill-rule="evenodd" class="c" d="m1072 1001.6c-36.2 0-65.5-29.3-65.5-65.5 0-36.2 29.3-65.5 65.5-65.5 36.2 0 65.5 29.3 65.5 65.5 0 36.2-29.3 65.5-65.5 65.5z"/><path fill-rule="evenodd" class="c" d="m1201 840.6c-36.2 0-65.5-29.3-65.5-65.5 0-36.2 29.3-65.5 65.5-65.5 36.2 0 65.5 29.3 65.5 65.5 0 36.2-29.3 65.5-65.5 65.5z"/><path class="a" d="m1335 2101.1c0 0-36-56-83-95-47-39-118-92-118-92 0 0 96 25 159 73 63 48 91 76 91 76z"/><path class="a" d="m1396 2012.1c0 0-3-13-76-60-73-47-173-84-173-84 0 0 104-5 174 30 70 35 116 67 116 67z"/><path class="a" d="m1459 1944.1c0 0-34-32-76-53-42-21-127-51-127-51 0 0 82-5 134 21 52 26 101 47 101 47z"/><path fill-rule="evenodd" class="a" d="m1023 2331.1l120-114-120 70z"/><path fill-rule="evenodd" class="a" d="m1016 2251.1v-36l53-31z"/><path fill-rule="evenodd" class="a" d="m1021 2168.1v-26l22-7z"/><path fill-rule="evenodd" class="a" d="m1017 2099.1v-21l21-9z"/><path fill-rule="evenodd" class="a" d="m1011 2057.1v-31l37-16z"/><path class="b" d="m213 527.3l-28.2 39.1c34.6 20.5 66.4 45.2 98.9 68.6 17.8 12.7 57.3 39.3 74.4 53.1l26.9-37.5c-36.3-23.6-93-63.2-128-88.5-15.2-10.9-30.2-22-44-34.8z"/><path class="b" d="m289.5 452l-32.3 34.1c17.3 12.7 33.8 26.3 49.6 40.2l25 21.9c16.3 14.3 38.9 36.3 54.3 51.4l30.9-32.5c-27.7-21.8-60.3-52.6-86.7-75.7-14.2-12.5-28.3-25.1-40.8-39.4z"/><path class="b" d="m498.6 384.2c-47.3-20.5-110.3-8.3-158.1 6.1l12.8 38.4c16-5.8 32.1-11.3 49-13.8 26.1-4.1 68.6-5.2 84.3 17.6 12 17.4 23.5 34.6 34.5 52.3l44.6-24.7c-13.7-18.1-26.6-36.3-39.4-54.9-6.4-9.2-17-16.2-27.7-21z"/><path class="b" d="m634.2 315.5c0.4 9.4-0.3 18.4 0.1 27.8l49.6-4.3c-2.9-28-4.3-55.8-5.2-83.8-0.3-8.8 0.8-17.6 1.9-26.2l-50.8 4.3c0.9 9 2.2 17.8 2.5 26.9z"/><path class="b" d="m739.5 229.1l-50.7 13.8c7.3 22.1 14.7 44.2 21.1 66.5 10.4 36.5-46.6 65.6-73.9 77.2l-27-94.1c-2.4-8.5-3.7-17.3-5.2-26.1-6.9 1.9-13.7 3.4-20.6 5.3-10.3 2.8-20.1 5.8-30.4 8.6 6.7 12.1 11.3 24.5 15.1 37.7l16.7 58.2c5.9 20.8 11.3 41.6 15.4 62.9 4.9-1 9.9-2 14.7-3.3 59.1-16.1 161.8-71 140.7-144.5-6-20.8-12.7-40.9-15.9-62.2z"/><path class="b" d="m879.9 308.8c-0.2-9 1-18 2.3-26.7l-50.1 1.5c0.6 9.3 2 18.9 2.3 28.2l0.7 26.2c0.4 15.1-1 30.2-0.6 45.2l48.9-1.4c-0.9-9-2-17.6-2.3-26.5z"/><path class="b" d="m974.4 274.6c-27.1-42.5-83.6-62-129.2-71.8l-9.6 42.2c15.7 2.5 31.4 5.2 46.2 11.2 22.9 8.9 57.4 28.7 58.2 57.9 0.6 22.1 0.9 43.9 0.6 66l48.6-1.4c-1.6-23.7-2.5-47.1-3.2-70.8-0.3-11.8-5.2-23.6-11.6-33.3z"/><path class="b" d="m1046.5 285.7l-2.3 30.5c29.4 3.1 55 6.2 84.2 10.4 9.8 1.4 16 2.9 25.6 5.2l3.2-30.1c-11.5-1-19.2-2.2-30.6-3.8-27.9-4-52.4-7.6-80.1-12.2z"/><path class="b" d="m1410.7 315.1c-14.7-3.8-29.3-8.6-43.4-14.6l-79.7-34.1c-18.9-8-38-16.5-55.6-27.6l-19.1 41.7c30.9 9 65.6 24.2 95.4 36.6l-15.9 34.6c-7.5 16.5-15.3 32.8-23.2 49.1-6.2 12.8-12.4 25.6-21.1 37.3l53.8 23c4.6-14.2 10.1-27.7 15.7-41.4 8.2-19.7 16-39.2 24.9-58.5l11.3-24.7c13.3 6 25.5 13 37.1 21.8z"/><path class="b" d="m1512.1 398.9l-39.6-35.1c-13.4 18-27.7 35.1-42.3 51.5l-23 26c-15 16.9-30.3 33.6-46.2 49.7l37.9 33.6c22.8-28.6 47.4-55.8 71.7-83.3 13.1-14.7 26.5-29.3 41.5-42.4z"/><path class="b" d="m1589.8 444.7l-40.7 18.2c9 14 17.9 28.2 23.6 43.7 8.9 23.7 17.3 63.4-5.6 81.8-17.4 14-34.7 27.6-52.8 40.9l35.5 37.9c17.9-15.8 36.1-30.8 54.7-45.8 9.3-7.5 15.3-18.6 18.6-29.7 15-47.6-9.1-104.6-33.3-147z"/><path class="b" d="m1552.1 522.8l-36.6-39.1c-7.1 6.1-13.7 13.2-21 19l-20.7 16.7c-11.8 9.5-24.9 17.6-36.8 27.2l35.7 38.1c6.6-6.2 12.7-12.4 19.7-18l36.5-29.5c7.1-5.6 15.2-10.1 23.2-14.4z"/><path fill-rule="evenodd" class="a" d="m1371.7 2137.5c-0.7-0.8-1.3-1.7-2-2.5l-8.3 7.9c7.6 7.6 15.2 15.3 22.3 23.4 2.4-2.3 5-4.2 7.7-6.2l14.6-10.8c2-1.4 4-2.8 5.8-4.4 4.1 5.8 8.3 11.7 11.6 18 5.3 10.6 5.5 18-3.8 25.8l-1.4 1.2 8.4 8.1c11.5-12.2 14.6-25.4 7-40.8-3.2-6.3-7.5-12.4-11.4-18.3-1.1-1.6-2.2-3.1-3.2-4.7-1.1-1.6-2.3-3.3-3.6-4.9-10.1 7.4-20.3 14.8-30.2 22.3-4.6-4.6-9.3-9.1-13.5-14.1z"/><path fill-rule="evenodd" class="a" d="m1462.2 2085.5c1.9 10.3 3.4 20.8 4.5 31.3-11.3-1-22.3-3.4-33.3-6.1l-2.1 12.5c4.9 0.7 9.8 1.2 14.6 1.7 5.8 13 9.3 26.8 13.5 40.3l11.9-3.5c-0.7-1.5-1.5-3-2.4-4.5-5.2-9.4-7.4-20.6-10.1-30.9 15.4 0.9 30.3 4.1 45.3 7.3l1.8-12.3c-9.4-1.6-19-2.9-28.4-3.7-1.5-11.1-2-22.4-2.7-33.6z"/><path fill-rule="evenodd" class="a" d="m1490.6 2065.3l-10.3 8.7c3.2 3.1 6.2 6.4 9.1 9.8l5.2 6.2c2.4 2.8 4.6 5.8 6.9 8.6l9.8-8.2c-2.5-2.8-5.2-5.4-7.7-8.4l-4.7-5.6c-3-3.6-5.9-7.1-8.3-11.1z"/><path fill-rule="evenodd" class="a" d="m1518.1 2041.2c-4.1 3.5-8.3 7-12.6 10.5-2.6 2.1-5.4 4.4-8.5 6.1l7.6 9c2.8-3.2 6.3-6.1 9.4-9 5.2-4.5 10.4-9.1 15.6-13.6l8.2 9.7c5.1 5.9 10.1 11.9 14.9 18 2.7 3.2 6.1 7.1 8.2 10.7l10.8-9.2c-3.3-3.3-6.4-6.7-9.5-10.1-5.5-6-10.9-12.3-16.2-18.5l-7.1-8.4c3.7-3 7.5-6 11.8-8.1l-7.7-9.1c-2.8 3.3-6.1 6.1-9.3 8.9z"/><path fill-rule="evenodd" class="a" d="m1556.5 2005.4l3 10.6c8.1-3.8 14.6-4.2 22.2 0.9 1.5 13.5 2 27.1 2.5 40.6l12.6-1.2c-0.7-4.3-0.9-8.8-1.3-13.2-0.5-5.6-1.1-11.3-1.6-17 3.4 3.2 6.8 6.5 10.4 9.7 2.3 2.1 4.7 4.2 7 6.4l8.7-10c-5.8-3.8-11.1-8.6-16.5-13.1-14.7-12.4-26.8-23.5-47-13.7z"/><path fill-rule="evenodd" class="a" d="m1641.9 1950.3c-8.2-2.9-15.9-3.1-23 2.8-7 5.9-9.9 16.1-10.5 24.9-6.3-1.9-12.9-1.4-19.2 0.6l1.2 11.7c10.7-4.4 18.4-0.7 25.4 7.7l6.4 7.5c4.2 4.9 8.3 10.1 12.2 15.3l10.1-8.5c-4.1-4-7.9-8.3-11.6-12.7-4.3-5.2-8.4-10.8-13.6-15.2-0.2-6.6 1.4-18.1 6.8-22.6 3.5-2.9 7.1-2.1 10.9-0.6 4 1.5 17.2 6.9 19.6 9.7 2.5 3 0.3 7-1.1 10-3.7 7.8-7.4 15.5-11.6 23l12.9 4c1.9-8 5.9-15.3 9.3-22.6 3.4-7.3 5.9-15.8 0.1-22.6-5.2-6.2-16.8-9.7-24.3-12.4z"/><path fill-rule="evenodd" class="a" d="m1110.7 2422.6c5.4 7 11 13.9 16.6 20.6-14.6 11.4-28.3 23.9-42.2 36.3-2.6-4.4-4.8-9.1-7.4-13.5-8.3-14.2-16.4-28.5-25.9-42l10.6-6.9 1.5 2.8c12.3-4.5 26.3-9.6 38.9-3.4 3 1.4 5.8 3.4 7.9 6.1zm-9.6 7.2c-7-9-23-4.2-31.7-0.4 6.1 11.1 13.1 21.7 19.8 32.3 7.2-6.4 14.7-12.6 22.1-18.8l-4-5.2-3.3-4.2z"/><path fill-rule="evenodd" class="a" d="m1113.3 2381.6l-10.6 8.3c3.1 3.2 6 6.7 8.7 10.2l5.1 6.4c2.2 2.9 4.3 6 6.5 9l10.1-7.9c-2.4-2.9-5-5.7-7.3-8.7l-4.6-5.9c-2.8-3.7-5.5-7.3-7.9-11.4z"/><path fill-rule="evenodd" class="a" d="m1144.4 2398.8l10.1-7.8c-2.4-2.9-5-5.7-7.3-8.8l-4.6-5.8c-2.8-3.7-5.5-7.3-7.9-11.4l-10.6 8.3c3 3.2 6 6.6 8.7 10.1l5 6.5c2.3 2.9 4.4 6 6.6 8.9z"/><path fill-rule="evenodd" class="a" d="m1198.5 2347.5c-17.5-8.4-38-0.5-54.5 6.5l7 11.1c1.8-1.3 3.7-2.6 5.5-3.8 5.5 8.9 10.8 18 16 27 5.8 10.2 6.5 17.5-0.4 27.2l10.1 4.8c9-12.5 8.2-24.9 0.7-38.1-4.9-8.4-9.8-16.8-14.5-25.3 8.9-2 22.9-3.1 29.3 5.1l3.2 4.2c3.6 4.5 6.9 9 10.3 13.7l10.1-7.9c-5.1-5.9-9.9-12.1-14.7-18.3-2.1-2.7-5.1-4.8-8.1-6.2z"/><path fill-rule="evenodd" class="a" d="m1224.7 2291.2c-7.2 5.6-10.6 15.7-11.5 24.6-6.2-2.2-12.9-2-19.2-0.2l0.7 11.7c10.9-4 18.4 0.1 25.1 8.8l6.1 7.7c4 5.2 8 10.5 11.6 15.9l10.5-8.1c-4-4.2-7.6-8.7-11.1-13.2-4.1-5.4-8-11.2-13-15.9 0-6.6 2.1-18 7.7-22.3 3.6-2.8 7.1-1.8 11-0.1 3.9 1.6 16.9 7.5 19.2 10.5 2.4 3 0 7-1.5 10-4 7.6-8 15.2-12.6 22.5l12.9 4.6c2.1-8 6.4-15.1 10.2-22.4 3.6-7.2 6.5-15.5 1-22.6-5-6.4-16.5-10.4-23.9-13.4-8.1-3.2-15.8-3.8-23.2 1.9z"/><path fill-rule="evenodd" class="a" d="m1330.2 2287.4c-5.2-6.1-10.1-12.5-15-18.8-2.4-3-6.1-5.3-9.7-6.7-15.7-6.2-35.2-1.2-49.8 5.2l4.6 10.4c4.6-2.4 9.4-4.3 14.3-5.5 9.3-2.4 25-3.6 31.7 5 4.6 6 9.3 12 13.7 18.3z"/><path class="a" d="m661.9 2353.9c3-16.2-5.4-34-14.3-46.9l-9.2 6.4c3.2 4 5.9 8.2 8 12.8 4 8.3 8.1 23.3 1.1 31.3-4.9 5.6-9.8 11.2-15 16.5l9.5 8.4c4.9-6.1 10.1-12.1 15.2-17.9 2.5-2.9 4-6.9 4.7-10.6z"/><path class="a" d="m708.1 2362.9c-4-3.5-8-7-12-10.6-2.5-2.3-5.2-4.7-7.3-7.4l-7.5 8.7c3.5 2.2 6.8 5.2 10.1 7.8 5.1 4.3 10.3 8.7 15.5 13.2l-8.2 9.3c-5 5.8-10.1 11.6-15.2 17.2-2.7 3.1-6 7-9.2 9.5l10.5 9.2c2.7-3.7 5.6-7.2 8.4-10.8 5.1-6.2 10.3-12.4 15.6-18.5l7.1-8.1c3.4 3.1 6.9 6.3 9.6 10.2l7.7-8.8c-3.6-2.3-6.9-5-10.1-7.7z"/><path class="a" d="m726.2 2413.8l-9.7-8.5c-1.7 2.1-3.2 4.3-4.9 6.3l-6.3 7.2c-3.1 3.6-6.7 6.7-9.8 10.3l9.7 8.4c1.5-2 2.9-4 4.6-5.9l11.1-12.7c1.6-1.9 3.3-3.5 5.3-5.1z"/><path class="a" d="m733.4 2462.2c4.9-6.1 10.1-12.1 15.2-17.9 2.5-2.9 4-6.9 4.7-10.6 3.1-16.1-5.4-34-14.3-46.8l-9.2 6.3c3.2 4 5.9 8.2 8 12.8 4 8.4 8.1 23.3 1.1 31.3-4.9 5.6-9.8 11.2-15 16.5z"/><path fill-rule="evenodd" class="a" d="m261.9 1996.2c3-16.3-5.5-34.3-14.5-47.3l-9.2 6.5c3.2 3.9 6 8.2 8.1 12.8 4 8.5 8.1 23.5 1.1 31.6-5 5.7-9.9 11.4-15.2 16.8l9.6 8.4c4.9-6.2 10.2-12.2 15.4-18.1 2.5-2.9 4-6.9 4.7-10.7z"/><path fill-rule="evenodd" class="a" d="m308.5 2005.3c-4-3.5-8.1-7-12.1-10.7-2.5-2.3-5.2-4.7-7.3-7.4l-7.6 8.7c3.5 2.2 6.8 5.3 10.2 7.9 5.1 4.4 10.4 8.8 15.7 13.3l-8.3 9.4c-5.1 5.9-10.2 11.7-15.4 17.3-2.7 3.2-6 7.1-9.3 9.6l10.7 9.3c2.6-3.7 5.6-7.3 8.4-10.9 5.1-6.3 10.4-12.5 15.7-18.6l7.2-8.2c3.5 3.1 7 6.4 9.7 10.3l7.7-8.9c-3.6-2.3-6.9-5-10.1-7.8z"/><path fill-rule="evenodd" class="a" d="m326.8 2056.7l-9.8-8.6c-1.7 2.2-3.2 4.3-5 6.4l-6.3 7.2c-3.1 3.7-6.7 6.8-9.9 10.4l9.8 8.5c1.5-2 3-4 4.6-5.9l11.2-12.9c1.7-1.9 3.4-3.5 5.4-5.1z"/><path fill-rule="evenodd" class="a" d="m354.1 2076.7c3.2-16.2-5.4-34.3-14.4-47.2l-9.3 6.4c3.2 4 6 8.3 8.1 12.9 4.1 8.4 8.2 23.5 1.1 31.5-4.9 5.7-9.9 11.4-15.2 16.8l9.7 8.4c4.9-6.2 10.1-12.2 15.3-18.1 2.5-2.9 4-6.9 4.7-10.7z"/><path fill-rule="evenodd" class="a" d="m383.7 2114.4l3.5-4.8c-8.5-7-17.1-15-25.3-22.3l-3.7 5.3c6.9 5.5 13.5 11.3 20.1 17 1.8 1.6 3.7 3.1 5.4 4.8z"/><path fill-rule="evenodd" class="a" d="m430.8 2146.2c4.9-18.6-6.7-36.9-16.6-51.6l-9.3 8.9c1.5 1.5 3.1 3 4.6 4.6-7.6 7.1-15.4 13.9-23.1 20.6-8.8 7.5-15.7 9.6-26.5 4.7l-2.7 10.7c13.8 6.4 25.7 3.3 37-6.5 7.3-6.3 14.5-12.6 21.8-18.8 3.7 8.2 7.4 21.6 0.6 29.3l-3.4 4c-3.7 4.3-7.5 8.4-11.4 12.5l9.6 8.4c4.8-6.1 9.9-11.9 15-17.8 2.2-2.5 3.6-5.8 4.4-9z"/><path fill-rule="evenodd" class="a" d="m490.4 2161c-6.9-5.9-17.2-7.3-26-6.6 0.9-6.4-0.6-12.8-3.5-18.6l-11.2 2.9c5.9 9.8 3.4 17.9-3.7 26l-6.4 7.4c-4.3 4.8-8.7 9.7-13.2 14.3l9.8 8.6c3.4-4.7 7-9 10.8-13.3 4.3-5 9.3-9.8 12.8-15.6 6.5-1.2 17.9-1.3 23.2 3.3 3.3 2.9 3 6.6 2.2 10.6-0.9 4.1-4.2 17.8-6.6 20.6-2.5 2.9-6.8 1.3-10 0.5-8.1-2.5-16.3-5-24.2-8l-2 13.3c8.1 0.6 15.8 3.4 23.6 5.7 7.6 2.2 16.3 3.4 22.1-3.3 5.3-6 7-18 8.5-25.7 1.6-8.4 0.7-16-6.2-22.1z"/><path fill-rule="evenodd" class="a" d="m514 2262.5c4.9-6.1 10.1-12.1 15.3-18 2.5-2.9 4-7 4.7-10.7 3.1-16.3-5.4-34.3-14.4-47.3l-9.3 6.5c3.2 3.9 6 8.2 8.1 12.8 4.1 8.5 8.2 23.5 1.1 31.6-4.9 5.7-9.9 11.3-15.2 16.7z"/><path fill-rule="evenodd" class="a" d="m770 2330.1l-26.7-28 48-66.7z"/><path fill-rule="evenodd" class="a" d="m712.7 2284.8l-19.4-24.7 56.7-68.7z"/><path fill-rule="evenodd" class="a" d="m661.3 2236.8l-6.6-8.7 24-27.3z"/><path class="a" d="m460 2064.8l28.7-18.7c0 0-24.7-38.7-46.7-58-22-19.3-35.3-29.3-35.3-29.3 0 0 7.3 28 20 52.6 12.6 24.7 33.3 53.4 33.3 53.4z"/><path class="a" d="m492.7 2044.1c0 0-12-24.7-18-44-6-19.3-10-48-10-48 0 0 19.3 16.7 34.6 35.3 15.4 18.7 29.4 34.7 29.4 34.7z"/><path fill-rule="evenodd" class="a" d="m539.3 2013.4l-30.6-81.3 60.6 64z"/><path fill-rule="evenodd" class="a" d="m588.7 1968.1l-19.4-43.3 35.4 30z"/><path fill-rule="evenodd" class="a" d="m644.7 1944.8l-41.4-54.7 57.4 40z"/><path fill-rule="evenodd" class="a" d="m681.3 1914.8l-32.6-40 50.6 14.6z"/></svg>