<svg version="1.2" xmlns="http://www.w3.org/2000/svg" viewBox="0 0 409 475" width="409" height="475"><style>.a{fill:#2151a6}</style><g style="opacity:1"><path class="a" d="m114.3 152.3v0.1c0-0.1 0.1-0.1 0.2-0.2-0.1 0-0.2 0-0.2 0.1z"/><path class="a" d="m408.8 0h-408.4l-0.4 344.3c0 0-3 99.9 111.3 91.5 47.9-3.5 77.1 6.1 93.7 38.8 16.6-32.7 44.2-42.3 92.1-38.8 114.3 8.4 111.3-91.5 111.3-91.5zm-24.1 385.2h-28.1c-2.8-9.8-6.7-19.1-11.7-27.9v-87.8h-31.7v49q-3.2-2.8-6.6-5.4v-80.6h-57.3v52.5c-12.2-3.2-25-5.1-38.2-5.5-1.1-1.7-2.1-3.5-3.1-5.4-2.8-10.8 3.3-12.2 8.9-18.9 1.2 0 4.1-1.5 6.3-1.5 0.7 0 1.3-0.4 1.9-0.4 2.4-1.2 0.9-3.6 4-3.6 1.5 0 4.8-1.1 3.8-3.2 0-3.9 2.1-3.4 4-5.2-0.3-1.4-0.4-6.4 1-6 0-2.6-3-3.4-3.3-5.3-0.2-1.6 1.5-2.6 1.9-3.5 0-1.1 1.2-1.7 1.2-2.7 0-1.2-1.8-1.5-0.8-3.1 4.8-8.7-5.1-7.9-5.3-9.3-0.2-1.9 2-4.8-0.2-7-0.5-0.5-1.4-1.3-1.7-1.9 0-0.5 0.1-0.9 0.4-1.2 1-0.9-0.8-1.5-0.8-2.4 0-2 0.2-3.6-2.1-4.8-0.9-0.4-1.9-0.2-2.7-0.6-1.5-0.8-2.2-3.1-4-4-1.2-1.2-1.9-1.7-3.2-1.9-1.1-0.1-1.9 0.4-2.9 0.4-1.9 0-2-2.3-4.5-2.3-1.8 0.6-2.9 0.2-4.2-1.1-0.8-0.7-3.6-1.2-4.4-0.4-1.2 0-1.5 1.5-2.5 1.5-0.7 0-2.6 0.4-3.2-0.2-1.5 0-1.8 1.3-2.9 1.9-1.1 1.1-3.2 0-4.4 0-1.3 0-2.2 1.5-3.4 2.1-1.2 1.1-2.1 2.2-3.2 3.3-0.9 1-2.2 0.5-3.3 1.1-2.4 1.2-2.4 2.5-2.4 4.4 0 1.3-1 1.2-1 2.3 0.9 1 0.9 1.5 0 2.6-1.3 0.6-1.7 2.9-1.7 4.2-1.3 1.3 1 3.2 0.2 4-0.6 1.1-4.2 1.8-5.5 3.1-1.4 2.8-2.5 4.2-0.9 7.9 1.1 2.7 3.5 3.5 3.5 7.1 0 2-3.4 3.3-3.4 6.5 0 1.1 2 5.9 5.3 8 0.8 1.7-1.1 5.1 2.9 5.1 4 0 2.7 2.2 5.1 3.3 1.8 0.9 5.5-0.4 6.9 1.1 1.5 1.5 3.3 1.9 5.2 1 2 3.1 4 6.1 6 9.3 0 3.4-0.9 6.2-0.7 9.7-0.5 3.2-1.4 4.5-2.5 6.3-14.8 0.9-29 3.8-42.4 8.2q0-0.1-0.4-0.3 0.9-0.6 1.7-1.2c1.4 0.2 3.6-0.3 2.7-2.1 2-1.3 1.6-0.5 1.6-2.7 0-0.2 0 0.7 1.1 0.7 1.1-0.1 0.4-1 0.2-1.4-0.2-0.3-0.4-0.4 0.2-0.6 1.1-1.1-0.9-2.1-1.2-2 0.1-0.1 0.5-0.5 0.5-1.2 0-0.9 1.3-2 1.3-2-1.2-2 1.8-1.7-0.4-3.4-0.1-0.3 0-1.4 0.9-1.6 0.6-0.1 0-1.3 0-1.7 0.6-0.6 1.1-1.5 0-1.8 0.6-1.3 1.4-2.3-0.3-3 1.2-1.3 1.5-1.6 1.5-3.5 0-0.4-1.5-0.1-1.5-0.1 0 0 0.9-0.4 1.3-0.6 0.7-0.4-0.2-2.1 0.9-1.2 0.6-1.4 0.4-1.4-0.3-2.9 0.5-1.3 0.6-2.3 0.6-3.7-1.5 0.7-1 0.3-0.9-1.3q-0.5 0.1-1 0.2c-0.9-0.8-1.5-1.3-1.1-2.7 0.4-0.8-0.4-2.3-0.4-2.8 0-0.6 0.6-1.6 0.6-1.8 0-0.3-0.9-0.9-0.5-1.6 0.4-0.6-0.1-3.2-0.1-3.2 0 0 0.6-2.4 0.6-2.7 0-0.3-0.9-1-0.9-1.5 0-0.5 0.6-1.5 0.4-1.7-0.1-0.2-0.5-1.6-0.5-1.6-0.6 0.2-1.2 0.4-1.7 0.6 0.3-1 1.3-1.9 0-2 1.1-1.5 0.6-3 0.2-4.7-0.1-0.3-1.1-1.9 0.1-1.4 0 0 0.1-1.2 0.1-1.5 0-0.3-1.4-1.6-1.4-1.6 1.6 0.9 0.8-1.5 0.5-2.2-0.1-0.3 1.1-1.2 1.1-1.2q0-0.8 0-1.5h-0.6c0.2-1.3 1.3-5.6-0.4-2.6 0.4-5.2 0.9-10.4 0.9-15.6 0-0.6-1-0.9-1-1.2-0.1-0.3 0.3-3.6 0.4-4 0.1-0.3-0.9-2.2-0.9-2.2-0.1-0.9-0.1-1.4-0.8-2.1-0.4-0.4 0.6-2.8 0.4-3.7q0.1-0.9 0.2-1.8c-0.3-1.1-1-1.4-0.1-2.6q0.2-0.6 0.4-1.3c-3-0.2 0-0.8-1.8-2.9 0 0-0.7-2.4-0.7-2.8 0-2.3-2.1 1.6-2.2 1.9-0.1-0.7-0.1-1.4-0.1-2.1h-0.4v-1.5q-0.6 0.6-1.1 1c-1.2-1.8-1.7 1.6-1.3 2.7q-0.3 0.8-0.5 1.6-0.3-0.5-0.6-1c-0.2 1.3-0.5 1.9-1.1 3.1 0.1 1.2 0.1 2.1 0 3.3q0.6 1.7 1.2 3.3 0.4 1.7 0.8 3.4-0.3 0.6-0.5 1.1 0.2 2.1 0.5 4.2-0.1 2.5-0.2 5-0.4 0.8-0.9 1.6-0.3-4.7-0.6-9.4c-0.9 3.5-0.6 6.8-0.6 10.4-1.2-0.1-1.2-2.2-1.3-3.1q-0.8-3.1-1.6-6.3c-0.4 2.3 0.5 3.1 0.5 5.3 0 2.6 1.9 4.9 2.3 7.6q-0.6-1.1-1.2-2.2c-0.6 1.7 0.2 2.8 0.7 4.5q0.2 3.2 0.3 6.4-0.2-0.6-0.5-1.3c-0.2-3.2-0.3-5.7-1.5-8.7-0.3 1.9-0.1 3.4 0.1 5.3q-0.1 0.4-0.2 0.8-0.3-1.1-0.6-2.2c-0.4 1.3-0.4 1.7-0.1 3 0 0-0.5 0-1 0.7-0.5 0.7 0.2 2.7 0.5 3.6-2-1.5-4.1-0.9-1.6 1.2-1.5 0.7 0.5 2.7 0.9 3.6q-0.3 0-0.6 0 0.1 0.6 0.1 1.1-0.4-0.2-0.8-0.5c-1.1 1.6-2.5 2.1-2 4q-0.6 0.1-1.2 0.1 0.6 0.7 1.1 1.4h-0.5q-0.2 1.1-0.4 2.1 0.3 1.3 0.7 2.5c-0.9 1.4-2.3 3.2-2.3 4.9q0.9 0.1 1.9 0.1-0.2 0.5-0.4 0.9c-0.7-0.2-0.9-0.2-1.5 0q0.2 0.3 0.4 0.6c-0.2 0.1 0.1 1.1-0.1 1.6q0.7 0.8 1.3 1.6c-0.2 0.6-0.1 1.3-0.1 1.3 0.1 0 0.2-0.1 0.5-0.2-0.1 0.5-0.3 0.6-0.8 1.2 0.5 1 0.8 1.2 0 2.1 0.3 0.9 0.5 1.4 1.1 2.1q-0.3 0.2-0.7 0.3c-0.2 0.6-1.1 1.8-0.9 2.3 0.1 0.1 0.3 0.3 0.6 0.6 0.2 2.6 0.5 3.9-1.2 6 0 1.3 0 2.4 0.2 3.5 0.8 0.6 1.3 0.6 0.5 1.4q0.3 0.1 0.5 0.2c-0.2 1-0.2 1.9-0.2 2.9 0.4 1.1 0.6 1.4 0.4 2.6 0.8 2.3 0.8 3.1 0.5 5.6 1.4 5.6 2.2 8 5.3 13.7 3.8 2.2 3.4 2.4 3.1 4.6q-2.2 0.9-4.3 1.7l-2.9 0.6 1.7-0.1q-8.1 3.4-15.6 7.6v-63.8h-31.7v87c-18 17.1-31.4 38.4-38.4 62.1h-32.2c-13.1-22.8-12.4-46.8-12.4-46.8l0.3-325.3h385.9l-0.3 325.3c0 0 0.7 24-12.5 46.8zm-45.2-102.9h-9.1v-8.5h9.1zm0 10.8h-9.1v-8.4h9.1zm-11.6-10.8h-9v-8.5h9zm0 10.8h-9v-8.4h9zm-31.2-37.5h-16.3v-15.3h16.3zm0 19.6h-16.3v-15.3h16.3zm-20.9-19.6h-16.3v-15.3h16.3zm0 19.6h-16.3v-15.3h16.3zm-66.1-21.1c0.5 1.1 3.2 0.5 4.2 1.6h0.1c-2 1.5-3.9 2.7-6.4 2.7 0.3-1.5 1.1-3 2.1-4.3zm-5.7-3.5c1.1 0 2.5 0.2 3.6 0.2-3.1 5.2-0.6 4.5-3.6-0.2zm-83.5-1.6h-9v-8.5h9zm0 10.8h-9v-8.4h9zm-11.5-10.8h-9v-8.5h9zm0 10.8h-9v-8.4h9zm89.5-0.7c-1.8-1.6-3.1-3.2-4.2-5.1 3.3 1.3 2.6-2.6 3.4-3.6 0.9 2.6 1.4 5.5 0.8 8.7z"/><path class="a" d="m238.9 131.6c0 19.1-8.1 20.8-17.4 20.8h-8.1l-4.9-64h-12.2l5.8 73.7h21.7c16 0 27.1-6.8 27.1-33.7v-40h-12z"/><path class="a" d="m260 127.2h12.5v-38.8h-12.5z"/><path class="a" d="m341.8 88.4h-20.3v73.7h12.2v-64.1h7.3c10.4 0 10.1 8 10.1 19v45.1h12.2v-41.9c0-18.7-1.5-31.8-21.5-31.8z"/><path class="a" d="m290.5 88.4h-13.5v9.6h12.6c8.5 0 9.7 8.3 9.7 19.1v45h12.3v-43.6c0-18.7-1.7-30.1-21.1-30.1z"/><path class="a" d="m230.8 88.4h-12.3v48.3h12.3z"/><path class="a" d="m285.9 60.2v17.2h4.3v-16.9c0-7-1.4-9-7.2-9h-6.2v3.4h6c2.1 0 3.1 0.8 3.1 5.3z"/><path class="a" d="m251.7 54.9h1.5c3.3 0 3.2 2.8 3.2 6.6v15.9h4.3v-14.7c0-6.5-0.5-11.2-7.6-11.2h-7.4v3.4h1.7v19.1h-3.4v3.4h7.7z"/><path class="a" d="m298 51.5h-4.4v13.7h4.4z"/><path class="a" d="m275.1 51.5h-4.4v13.7h4.4z"/><path class="a" d="m268.1 51.5h-4.4v13.7h4.4z"/><path class="a" d="m301.2 78.9c0 0 3.4-1 5.8-1.7 8.4-2.5 8.6-4.9 8.6-12v-13.7h-4.2v15.3c0 4.4 0 5.5-3.4 6.5l-2.1-21.8h-4.3l2.3 23-3.6 1.1z"/><path class="a" d="m131.9 152.6l0.1-0.1c-0.1-0.1-0.1-0.1-0.2-0.1 0 0 0 0.1 0.1 0.2z"/><path fill-rule="evenodd" class="a" d="m64.9 146.2c0 0-0.9 1.5 0.3 4.7 0 0 1.4-0.3 1.6 0.4 0.2 0.7 0.5 1.8 0.8 2.4 0.2 0.7 0.4 4.2 2.8 5.9l-0.4 1.1-4.3 1.3c0 0 0 0.9 0.8 1.1 0.7 0.2 0.4 0.8 0.8 0.9 0.4 0.1 0.6 0.6 1.1 0.5 0.4-0.1 0.8 0.4 1.2 0.3 0.4-0.1 2.9-3.2 2.9-3.2 0 0 0.7 2.5 4.1 3 0 0 0.5 0.9 0.9 0.8 0.4-0.1 0.5 0.6 0.9 0.6 0.5 0.1 0.5 1.4 1 1.4 0.6-0.1 0.5 0.6 0.8 0.7 0.2 0.1 1.1 0.7 1.1 0.7l0.5 0.7 0.1-1.4 0.6 1.2c0 0 0.1-2.7-0.5-4.5-0.6-1.8-2-4.4-2.6-4.7-0.6-0.4-2.7-0.5-2.9-1.5-0.2-0.9 0.2-3.6 1.4-4.8 0 0-1.2 0.3-2 1-0.8 0.8-1.7 1.3-1.7 1.3 0 0-1.1-2.6-0.7-3.4 0 0-5.6-5.5-8.6-6.5z"/><path class="a" d="m61.1 124.9l1.5 0.3 0.3 1.2 0.9 1 0.2 1 1 0.2-0.1 1c0 0 0.7 0.9 0.6 1.5-0.1 0.5-0.5 0.7-0.9 0.6-0.3 0-3.1 0-3.1 0 0 0-1.2 2.8 1.7 3.4 0 0 2.9-2.1 3.6-2 0.6 0.1 0.9 0.8 0.9 0.8l1.3 2.3 1.3 0.3-0.3 0.8 1.9 2.5 1.1 1.2-0.1 0.7-0.3 1.5c0 0 1.8-0.2 2-0.7 0.2-0.5 0.4-4.4 0.4-5.5-0.1-1.1-0.3-2.8-1-3.7-0.8-0.8-2.1-1.1-2.1-2 0-1 0.8-2.2 2.5-2.9 0 0-0.4-0.2-1.2-0.4-0.8-0.2-2.5 0.5-3.1 0.4-0.5-0.1-0.7-1.8-0.7-1.8 0 0-3.3-2.5-4.5-2.8-1.3-0.3-2.9-0.3-3.8 1.1z"/><path class="a" d="m94.1 107.2c0 0 6.5-1.7 7.8-1.8 1.4-0.1 2 0.8 2.3 1.7 0.2 0.8 0.6 0.6 1.3 0.4 0.6-0.3 1.5-1 1.9-1.1 0.4-0.2-0.6 1.4-0.8 2.1-0.3 0.8 0.2 2.1 1.1 2 0.9-0.2 0.5 1.4 0.2 2.3-0.4 0.9-3.3 6.8-3.3 6.8 0 0 0.2-4.7-0.2-5.5-0.5-0.8-1.2-1.1-1.7-0.8-0.6 0.4-2.2 3.3-2.9 3.4-0.7 0.2-2-0.4-1.2-1.5 0.7-1 3.1-3.3 3-3.9-0.1-0.6 0-1.6-1.6-2-1.6-0.4-10.6-1.3-5.9-2.1z"/><path fill-rule="evenodd" class="a" d="m101.4 147.8c0 0-0.6 1 0.2 3.2 0 0 0.9-0.2 1.1 0.3 0.1 0.4 0.3 1.2 0.5 1.6 0.2 0.4 0.3 2.8 1.9 4l-0.3 0.7-2.9 0.9c0 0 0 0.6 0.5 0.8 0.5 0.1 0.3 0.5 0.6 0.5 0.2 0.1 0.4 0.5 0.7 0.4 0.3-0.1 0.5 0.3 0.8 0.2 0.3-0.1 2-2.1 2-2.1 0 0 0.5 1.6 2.8 2 0 0 0.3 0.6 0.5 0.5 0.3-0.1 0.4 0.4 0.7 0.4 0.3 0.1 0.3 0.9 0.7 0.9 0.3 0 0.3 0.5 0.5 0.5 0.1 0.1 0.7 0.5 0.7 0.5l0.4 0.5 0.1-1 0.3 0.8c0 0 0.1-1.8-0.3-3-0.4-1.2-1.3-3-1.7-3.2-0.4-0.2-1.9-0.3-2-1-0.1-0.6 0.2-2.4 1-3.3 0 0-0.8 0.3-1.4 0.8-0.5 0.5-1.1 0.8-1.1 0.8 0 0-0.8-1.8-0.5-2.3 0 0-3.8-3.7-5.8-4.4z"/></g></svg>