<svg version="1.2" xmlns="http://www.w3.org/2000/svg" viewBox="0 0 171 237" width="171" height="237"><style>.a{fill:#a41b33}.b{fill:#eb792d}</style><g style="opacity:1"><path class="a" d="m154.5 195.6h-16.5-5c-1.5 0-2.6-0.5-2.8-2.3l-0.5-8.1c-0.3-1.8 1.7 0.6 4 0.6h32.7c0.6 0 1.5 0.6 1.8 1.2l0.3 0.4c0.1 0.2 0.2 1.2 0.1 1.4-0.6 0.8-0.7 1.7-0.7 4.4l0.2 14.3c0.1 11.2-6.1 16.4-16.2 16.4-1.2 0-2.4-0.1-3.3-0.3-1-0.2-1.8-1.1-1.8-1.9v-5.2c0-0.5 0.6-1.1 1.2-1 0.3 0 0.6 0 0.8 0 2.7 0 5.6-1.2 5.5-6.8l-0.1-11c0-0.8 0-1.5 0.3-2.1zm-23.8 9.6c0-4.4 1.9-5.6 5-5.6h8.1c1.9 0 3 1.7 1.8 2.7-0.9 0.8-1.4 2.3-1.4 4.9l0.1 5.1 0.1 15.3c0 2.1-0.5 3.8-3.1 5.1l-7.7 3.8c-1.2 0.6-2.6-0.3-2.6-1.8v-5.1l-0.2-18.2zm-46.3-13.1l-0.5-7.1c0-1.8 1.9 0.9 4.2 0.7 3.2-0.4 4.2-0.5 4.2-0.5q1.3 0 2.2 0.3c2 0.4 3.6 1.4 5.3 4.2 0 0 3.3 5.9 5.7 9.6 1.1 1.7 2 3.1 2.9 4.4l0.1-5.6c0-2.9-0.2-4.6-1.8-4.6-0.6 0-0.8-1.3-0.9-1.9l-0.2-6.6c0-1.8 1.9 0.9 4.1 0.7 3.2-0.4 7-0.3 7-0.3 4 0 5.3 2.1 5.4 7v7.8c0.2 3.7-2 5.3-4.9 6.2l-5.4 1.8c0.7 0.9 1.4 1.9 2.3 2.9 1.9 2.3 3.5 4.1 5.3 5.6 1.2 1.1 2.3 2 3.1 2.6 0.6 0.5 1 1.5 0.8 1.9l-0.8 1.6c-0.2 0.2-0.3 0.2-0.4 0.3l-0.3 0.1-21.3 0.1h-10.9c-1.4 0-2.8-1.1-2.8-2.3l-0.2-5.4c-0.1-1.8 1-2 2.3-2h12.3c-2-1.9-5.1-5.3-7.2-8.9l-6.2-10.5-2.5-0.1c-0.7 0-0.9-1.3-0.9-2zm-23.8-7.2c12.4 0 18.2 5 18.3 15.8l0.2 15.9c0 1.3 0.1 2.3 0.3 3q0.3 0.6 0.6 0.9c0.5 0.5 0.8 1.5 0.5 1.9l-0.2 0.3c-0.2 0.3-0.3 0.3-0.4 0.4l-0.3 0.1-11.8 0.1q-0.3 0-0.6-0.1c-0.4-0.1-1.3-0.9-1.5-1.2-0.2-0.5-0.3-1-0.3-1.3q-0.1-0.6-0.1-1.4l-0.2-16.5c0-5.7-3-8.1-8-8.1-2.5 0-4.6 0.8-6.3 1.8-1.3 0.7-2.7-0.3-2.7-1.8l-0.2-9.2c0-1.8 1.3 0.7 3.1 0.4 3.1-0.6 4.3-1 9.6-1zm-35.3 6.7l-0.3-6.6c0-1.8 1.9 0.9 4.1 0.7 3.3-0.4 7-0.3 7-0.3 4 0 5.4 2.1 5.4 7l0.2 10.3c0.2 3.6-2 5.2-5 6.2l-6.1 2.1c-1.3 0.4-2.7-0.3-2.7-1.9v-11c0-2.9-0.2-4.6-1.7-4.6-0.7 0-0.9-1.3-0.9-1.9m-22.7 0.5l-0.4-7.1c0-1.2 2.4 1.6 4.5 1.3 4-0.7 6.8-0.4 6.8-0.4 3.9 0 5.3 2 5.3 7l0.3 35.4c0.2 3.6-2 5.2-5 6.2l-6.1 2.1c-1.3 0.4-2.6-0.3-2.6-1.9l-0.1-36.1c-0.1-2.9-0.3-4.6-1.8-4.6-0.7 0-0.9-1.3-0.9-1.9z"/><path class="b" d="m85.7 8.1h4.1 62.7c0 0 0 37.2 0 38.2 0 0-6.6 0-6.8 0v-31.2l-51.4-0.2 0.1 0.1q0.3 0.1 0.7 0.4c0.3 0.3 0.6 0.6 0.9 0.9 0.3 0 0.6 0.1 0.9 0.4q0.1 0.1 0.2 0.2h46.5v29.4h-26.3v-20c0 0-7.9 0-15.7 0q0 0.2 0 0.3c0 0.3 0 0.6-0.1 0.9v0.2l13.9-0.1v18.7c-0.1 0.2-3.2 1.2-3.2 1.2h-22.4-4.1-22.4c0 0-3.1-1-3.1-1.2v-18.7l14 0.1-0.1-0.2c0-0.3 0-0.6 0-0.9q0-0.1 0-0.3c-7.9 0-15.9 0-15.9 0v20h-31v-29.4h51.3q0.1-0.1 0.2-0.2c0.3-0.3 0.6-0.4 0.9-0.4 0.3-0.3 0.6-0.6 0.9-0.9q0.4-0.3 0.7-0.4l0.1-0.1-56.2 0.2v31.2c-0.2 0-6.3 0-6.3 0 0-1 0-38.2 0-38.2h66.9zm79.5-8.1c0 0 0 46.1 0 46.3h-5v-43.2h-70.4-4.1-73.5v43.2h-4.6c0-0.2 0-46.3 0-46.3h78.1 4.1zm-79.5 4.3h4.1 69v42h-4.7v-39.4h-64.3-4.1-68.6v39.4h-3.5v-42zm-52.2 8.9h1.2v-3.4h-1.2zm3.8 0h1.2v-3.5h-1.2zm3.9 0h1.1v-3.5h-1.1zm3.8 0h1.1v-3.4h-1.1zm3.8 0h1.2v-3.5h-1.2zm3.8 0h1.2v-3.5h-1.2zm3.8 0h1.2v-3.4h-1.2zm3.8 0h1.2v-3.5h-1.2zm3.8 0h1.2v-3.5h-1.2zm3.8 0h1.2v-3.4h-1.2zm3.9 0h1.1v-3.5h-1.1zm3.8 0h1.1v-3.5h-1.1zm3.8 0h1.2v-3.4h-1.2zm3.8 0h1.2v-3.5h-1.2zm3.8 0h1.2v-3.5h-1.2zm3.8 0h1.2v-3.4h-1.2zm3.8 0h1.2v-3.5h-1.2zm3.9 0h1.1v-3.5h-1.1zm3.8 0h1.1v-3.4h-1.1zm3.8 0h1.1v-3.5h-1.1zm3.8 0h1.2v-3.4h-1.2zm3.8 0h1.2v-3.5h-1.2zm3.8 0h1.2v-3.5h-1.2zm3.8 0h1.2v-3.4h-1.2zm3.8 0h1.2v-3.5h-1.2zm3.9 0h1.1v-3.5h-1.1zm3.8 0h1.1v-3.4h-1.1zm3.8 0h1.1v-3.5h-1.1zm3.8 0h1.2v-3.5h-1.2zm-52.6 26.4c0 0 1.8 5 5.4 5.5 3.5 0.6 7.1 0 7.1-0.9 0-0.9-2.9-0.2-6.3-1.4-3.4-1.2-4.9-3-4.9-3-1.1-1.1-1.6-1.4-1.3-0.2zm-2.1-1.8q-0.1 0-0.2 0c-0.5-0.2-0.9-0.3-1.3-0.6 0 0-0.3-0.3-0.4-0.4 0.2-0.3-0.1-0.6 0-0.8-0.3-0.7-0.8-1-1.3-1.4-0.2-0.3-0.4-0.5-0.5-0.9-0.1 0.5 0 1.1 0 1.6 0.1 0.8 0.8 1.4 1.5 1.6 0.1 0.1 0.4 0.2 0.4 0.3 0 0.1-0.1 0-0.2 0q-0.3-0.2-0.7-0.2v-0.1q-0.1 0-0.2-0.1c-0.4-0.3-0.8-0.4-1.1-0.8 0 0-0.2-0.4-0.3-0.6 0.3-0.2 0-0.5 0.2-0.8 0-0.7-0.4-1.2-0.8-1.6-0.2-0.4-0.4-0.7-0.3-1.1-0.3 0.5-0.3 1.1-0.4 1.6-0.1 0.8 0.4 1.5 1 1.9 0.1 0.1 0.3 0.3 0.3 0.5 0 0-0.1-0.1-0.2-0.1q-0.3-0.3-0.6-0.4v-0.1q-0.1 0-0.1-0.1c-0.4-0.4-0.7-0.7-0.9-1.1 0 0-0.1-0.5-0.1-0.6 0.3-0.2 0.1-0.6 0.3-0.8 0.2-0.7-0.1-1.2-0.4-1.8 0-0.3-0.1-0.7 0-1-0.3 0.4-0.5 0.9-0.7 1.4-0.3 0.7 0 1.6 0.5 2.1 0.1 0.1 0.2 0.4 0.2 0.5-0.1 0.1-0.1-0.1-0.2-0.1q-0.2-0.3-0.5-0.6 0-0.1-0.1-0.2c-0.2-0.5-0.4-0.8-0.5-1.3 0 0 0-0.4 0-0.6 0.4-0.1 0.3-0.5 0.6-0.6 0.3-0.7 0.2-1.3 0.1-1.9 0-0.3 0-0.7 0.2-1-0.4 0.3-0.8 0.8-1.1 1.2-0.5 0.6-0.4 1.5 0 2.2 0 0.1 0.1 0.3 0 0.5 0 0-0.1-0.2-0.1-0.2q-0.1-0.4-0.4-0.7h0.1c0-0.1-0.1-0.1-0.1-0.2-0.1-0.5-0.2-0.9-0.2-1.4 0 0 0.2-0.4 0.2-0.6 0.4 0 0.4-0.4 0.7-0.4 0.5-0.6 0.5-1.2 0.6-1.8 0.1-0.3 0.2-0.7 0.5-0.9-0.5 0.1-1 0.5-1.4 0.8-0.6 0.5-0.8 1.4-0.6 2.1 0 0.1 0 0.4-0.1 0.5-0.1 0.1 0-0.1-0.1-0.2 0-0.2-0.1-0.5-0.2-0.7h0.1q0-0.1 0-0.2c0-0.6 0-1 0.2-1.4 0 0 0.2-0.4 0.3-0.6 0.4 0.2 0.5-0.2 0.8-0.2 0.6-0.4 0.8-1 1-1.6 0.2-0.3 0.4-0.5 0.8-0.7-0.6 0-1.1 0.2-1.6 0.4-0.7 0.4-1.1 1.2-1.1 1.9-0.1 0.1-0.1 0.4-0.3 0.5 0 0 0-0.2 0-0.2q0.1-0.4 0-0.8h0.1q0-0.1 0-0.2c0.2-0.5 0.3-0.9 0.6-1.3 0 0 0.3-0.3 0.4-0.4 0.3 0.2 0.6-0.2 0.9-0.1 0.6-0.2 1-0.7 1.3-1.2 0.3-0.2 0.5-0.5 0.9-0.6-0.5-0.1-1.1 0-1.6 0.1-0.8 0.1-1.3 0.8-1.6 1.5 0 0.1-0.2 0.4-0.3 0.4-0.1 0 0-0.2 0-0.2q0.2-0.4 0.2-0.8l0.1 0.1q0-0.1 0.1-0.2c0.3-0.5 0.5-0.8 0.9-1.1 0 0 0.3-0.2 0.5-0.3 0.2 0.2 0.5 0 0.8 0.1 0.7 0 1.2-0.4 1.6-0.8 0.4-0.1 0.7-0.3 1.1-0.3-0.5-0.2-1.1-0.3-1.6-0.4-0.8-0.1-1.5 0.4-1.9 1.1-0.1 0.1-0.3 0.3-0.5 0.3 0-0.1 0.1-0.2 0.1-0.2q0.3-0.3 0.4-0.7h0.1q0 0 0.1-0.1c0.4-0.3 0.7-0.6 1.1-0.9 0 0 0.5 0 0.6-0.1 0.2 0.3 0.6 0.2 0.8 0.4 0.7 0.1 1.2-0.1 1.8-0.4 0.3-0.1 0.7-0.1 1 0-0.4-0.4-0.9-0.6-1.4-0.8-0.7-0.3-1.6 0-2.1 0.5-0.1 0.1-0.3 0.2-0.5 0.2 0-0.1 0.1-0.1 0.1-0.2q0.3-0.2 0.5-0.4 0 0 0.1-0.1c0.5-0.2 0.8-0.4 1.3-0.5 0 0 0.5 0 0.6 0 0.1 0.3 0.5 0.3 0.7 0.5 0.6 0.3 1.2 0.2 1.8 0.1 0.4 0 0.7 0 1.1 0.2-0.4-0.4-0.8-0.8-1.3-1.1-0.6-0.4-1.5-0.4-2.1 0-0.2 0-0.4 0.1-0.5 0-0.1 0 0.1 0 0.1-0.1 0.5-0.2 1.7-0.7 1.9-0.4 0.8 0.4 1.6 0.3 2.3-0.1 0.4-0.2 0.7-0.2 1.1-0.3 0-0.2-1.1-0.6-1.9-0.7-0.5 0-1.3 0.4-1.8 0.7-0.5 0.1-0.5 0.1-0.9 0.3 0-0.2 0.4-0.3 0.6-0.5 0.4-0.5 0.5-1.2 0.6-1.4-0.4 0.2-0.7 0.2-1.2 0.4-0.6 0.3-1 0.6-1.4 1.2-0.1 0.3-0.1 0.6-0.2 0.8q-0.3 0.3-0.6 0.6 0.1-0.2 0.2-0.5c0.3-0.5 0.2-1.2 0.3-1.5-0.4 0.3-0.7 0.4-1.1 0.7-0.5 0.5-0.9 0.8-1 1.5-0.1 0.3 0 0.6-0.1 0.9q-0.2 0.5-0.6 0.9 0.1-0.3 0.1-0.7c0.1-0.6-0.1-1.2-0.1-1.5-0.3 0.4-0.6 0.5-0.8 1-0.4 0.6-0.7 1-0.7 1.7 0 0.3 0.2 0.6 0.2 0.8q-0.1 0.6-0.4 1.1 0-0.3 0-0.7c-0.1-0.6-0.4-1.1-0.5-1.4-0.2 0.4-0.4 0.7-0.6 1.1-0.2 0.7-0.4 1.2-0.2 1.8 0.1 0.4 0.3 0.6 0.4 0.8q0 0.6-0.1 1.1 0-0.3-0.2-0.6c-0.2-0.5-0.7-1-0.8-1.2-0.1 0.4-0.3 0.7-0.3 1.2 0 0.7-0.1 1.2 0.3 1.8 0.2 0.3 0.4 0.5 0.6 0.7q0.2 0.5 0.2 1.1-0.2-0.3-0.4-0.6c-0.3-0.5-0.9-0.8-1.1-1 0 0.5-0.1 0.8 0 1.3 0.2 0.7 0.3 1.2 0.8 1.6 0.3 0.3 0.5 0.4 0.8 0.5q0.2 0.5 0.4 1-0.2-0.2-0.5-0.4c-0.4-0.4-1.1-0.5-1.3-0.7 0.1 0.5 0.1 0.8 0.4 1.3 0.3 0.6 0.5 1 1.1 1.4 0.3 0.1 0.6 0.1 0.9 0.2q0.4 0.4 0.7 0.9-0.3-0.2-0.6-0.3c-0.6-0.3-1.2-0.2-1.5-0.3 0.3 0.4 0.4 0.7 0.7 1.1 0.5 0.5 0.8 0.9 1.5 1 0.3 0.1 0.6 0 0.9 0.1q0.5 0.2 0.9 0.6-0.3-0.1-0.7-0.1c-0.6-0.1-1.2 0.1-1.5 0.1 0.4 0.3 0.5 0.6 1 0.8 0.6 0.4 1 0.7 1.7 0.7 0.3 0 0.6-0.2 0.8-0.2q0.6 0.1 1.1 0.4-0.3 0-0.7 0c-0.6 0.1-1.1 0.4-1.4 0.5 0.4 0.2 0.7 0.4 1.1 0.6 0.7 0.2 1.2 0.4 1.8 0.2 0.4-0.1 0.6-0.3 0.8-0.4q0.6 0 1.1 0.1-0.3 0-0.6 0.2c-0.5 0.2-1 0.7-1.2 0.8 0.4 0.1 0.7 0.3 1.2 0.3 0.7 0 1.2 0.1 1.8-0.3 0.3-0.2 0.4-0.5 0.7-0.6q0.3-0.1 0.6-0.1 0.3 0 0.6 0.1c0.2 0.1 0.3 0.4 0.6 0.6 0.6 0.4 1.1 0.3 1.8 0.3 0.5 0 0.8-0.2 1.3-0.3-0.3-0.1-0.7-0.6-1.3-0.8q-0.3-0.2-0.6-0.2 0.5-0.2 1.1-0.1c0.2 0.1 0.5 0.3 0.8 0.4 0.7 0.2 1.1 0 1.8-0.2 0.5-0.2 0.7-0.4 1.1-0.6-0.2-0.1-0.8-0.4-1.4-0.5q-0.3 0-0.7 0 0.6-0.3 1.1-0.4c0.3 0 0.5 0.2 0.9 0.2 0.7 0 1.1-0.3 1.7-0.7 0.4-0.2 0.6-0.5 0.9-0.8-0.3 0-0.9-0.2-1.5-0.1q-0.3 0-0.6 0.1 0.4-0.4 0.9-0.6c0.2-0.1 0.5 0 0.8-0.1 0.7-0.1 1.1-0.5 1.5-1 0.4-0.4 0.5-0.7 0.7-1.1-0.2 0.1-0.9 0-1.5 0.3q-0.3 0.1-0.5 0.3 0.3-0.5 0.7-0.9c0.2-0.1 0.5-0.1 0.8-0.2 0.6-0.4 0.9-0.8 1.2-1.4 0.2-0.5 0.2-0.8 0.3-1.3-0.2 0.2-0.8 0.3-1.3 0.7q-0.3 0.2-0.5 0.4 0.2-0.5 0.5-1c0.2-0.1 0.5-0.2 0.7-0.5 0.5-0.4 0.6-0.9 0.8-1.6 0.1-0.5 0-0.8 0-1.3-0.2 0.2-0.8 0.5-1.1 1q-0.2 0.3-0.4 0.6c0.1-0.4 0.1-0.8 0.2-1.1 0.2-0.2 0.4-0.4 0.6-0.7 0.4-0.6 0.4-1.1 0.3-1.8 0-0.5-0.2-0.8-0.3-1.2-0.1 0.2-0.6 0.7-0.8 1.2q-0.1 0.3-0.2 0.6-0.1-0.5-0.1-1.1c0.1-0.2 0.3-0.4 0.4-0.8 0.2-0.6 0.1-1.1-0.2-1.8-0.1-0.4-0.4-0.7-0.6-1.1 0 0.3-0.4 0.8-0.5 1.4q0 0.4 0 0.7-0.3-0.5-0.4-1.1c0.1-0.2 0.2-0.5 0.2-0.8 0-0.7-0.2-1.1-0.6-1.7-0.3-0.5-0.6-0.6-0.9-1 0 0.3-0.2 0.9-0.1 1.5q0.1 0.4 0.1 0.7-0.3-0.4-0.6-0.9c-0.1-0.3 0-0.6-0.1-0.9-0.1-0.7-0.5-1-1-1.5-0.4-0.3-0.7-0.4-1.1-0.7 0.1 0.3 0.1 1 0.3 1.5q0.1 0.3 0.3 0.5-0.4-0.3-0.7-0.6c-0.1-0.2-0.1-0.5-0.2-0.8-0.3-0.6-0.8-0.9-1.4-1.2-0.4-0.2-0.8-0.2-1.2-0.4 0.1 0.2 0.2 0.9 0.6 1.4 0.2 0.2 0.6 0.3 0.6 0.5-0.4-0.2-0.4-0.2-0.8-0.4-0.3-0.5-0.8-0.9-1.3-1.1-0.7-0.1-1.4 0-2-0.3 0 0-0.1 0-0.2 0 0.3 0.3 0.4 0.6 0.8 0.8 0.5 0.6 1.4 0.9 2.3 0.8 0.3-0.1 1.4 0.5 1.9 0.7 0 0.1 0.2 0.1 0.2 0.1-0.2 0.1-0.4 0-0.5 0-0.7-0.4-1.6-0.4-2.2 0-0.4 0.3-0.9 0.7-1.2 1.1 0.3-0.2 0.7-0.2 1-0.2 0.6 0.1 1.2 0.2 1.9-0.1 0.1-0.2 0.5-0.2 0.6-0.5 0.2 0 0.6 0 0.6 0 0.5 0.1 0.8 0.3 1.3 0.5q0.1 0.1 0.2 0.1 0.2 0.2 0.4 0.4c0 0.1 0.2 0.1 0.1 0.2-0.1 0-0.4-0.1-0.5-0.2-0.5-0.5-1.3-0.8-2.1-0.5-0.5 0.2-1 0.4-1.4 0.8 0.4-0.1 0.7-0.1 1 0 0.6 0.3 1.2 0.5 1.8 0.4 0.3-0.2 0.6-0.1 0.8-0.4 0.2 0.1 0.6 0.1 0.6 0.1 0.4 0.3 0.7 0.6 1.1 0.9q0.1 0.1 0.2 0.1 0.2 0.4 0.4 0.7c0 0 0.2 0.1 0.1 0.2-0.2 0-0.3-0.2-0.4-0.3-0.4-0.7-1.2-1.2-1.9-1.1-0.6 0.1-1.2 0.2-1.6 0.4 0.4 0 0.6 0.2 1 0.3 0.5 0.4 0.9 0.8 1.6 0.8 0.3-0.1 0.6 0.1 0.8-0.1 0.2 0.1 0.6 0.3 0.6 0.3 0.4 0.3 0.6 0.6 0.9 1.1q0 0.1 0.1 0.2v-0.1q0.1 0.4 0.2 0.8c0 0 0.1 0.2 0 0.2-0.1 0-0.2-0.3-0.3-0.4-0.2-0.7-0.8-1.4-1.6-1.5-0.5-0.1-1.1-0.2-1.6-0.1 0.4 0.1 0.6 0.4 0.9 0.6 0.4 0.5 0.7 1 1.4 1.2 0.3-0.1 0.5 0.3 0.8 0.1 0.1 0.1 0.4 0.4 0.4 0.4 0.3 0.4 0.4 0.8 0.6 1.3q0 0.1 0.1 0.2 0 0.4 0 0.8c0 0 0.1 0.2 0 0.2-0.2-0.1-0.2-0.4-0.2-0.5-0.1-0.7-0.5-1.5-1.1-1.9-0.6-0.2-1.1-0.4-1.6-0.4 0.3 0.2 0.5 0.4 0.7 0.7 0.2 0.6 0.4 1.2 1 1.6 0.3 0 0.5 0.4 0.8 0.2 0.1 0.2 0.3 0.6 0.3 0.6 0.2 0.4 0.2 0.8 0.2 1.4q0 0.1 0 0.2h0.1q-0.2 0.3-0.2 0.7c0 0.1 0 0.3-0.1 0.2-0.1-0.1-0.1-0.4-0.1-0.5 0.2-0.7 0-1.6-0.6-2.1-0.4-0.3-0.9-0.7-1.4-0.8 0.3 0.2 0.4 0.6 0.5 0.9 0.1 0.6 0.1 1.2 0.6 1.8 0.3 0 0.4 0.4 0.7 0.4 0 0.2 0.2 0.6 0.2 0.6 0 0.5-0.1 0.9-0.2 1.4 0 0.1 0 0.1 0 0.2q-0.2 0.3-0.4 0.7c0 0 0 0.2-0.1 0.2-0.1-0.2 0-0.4 0.1-0.5 0.3-0.7 0.4-1.6 0-2.2-0.4-0.4-0.7-0.9-1.2-1.2 0.2 0.3 0.2 0.7 0.3 1-0.2 0.6-0.3 1.2 0 1.9 0.3 0.1 0.3 0.5 0.6 0.6 0 0.2 0 0.6 0 0.6 0 0.5-0.2 0.8-0.5 1.3q0 0.1-0.1 0.2h0.1q-0.4 0.3-0.6 0.6c0 0-0.1 0.2-0.1 0.1-0.1-0.1 0.1-0.4 0.1-0.5 0.5-0.5 0.8-1.4 0.6-2.1-0.3-0.5-0.5-1-0.8-1.4 0.1 0.3 0 0.7 0 1-0.3 0.6-0.6 1.1-0.4 1.8 0.2 0.2 0 0.6 0.4 0.8-0.1 0.1-0.2 0.6-0.2 0.6-0.2 0.4-0.5 0.7-0.8 1.1q-0.1 0.1-0.2 0.1l0.1 0.1q-0.4 0.1-0.7 0.4c-0.1 0-0.2 0.1-0.2 0.1 0-0.2 0.2-0.4 0.3-0.5 0.6-0.4 1.1-1.1 1.1-1.9-0.1-0.5-0.2-1.1-0.4-1.6 0 0.4-0.2 0.7-0.3 1.1-0.4 0.4-0.8 0.9-0.9 1.6 0.2 0.3-0.1 0.6 0.2 0.8-0.1 0.2-0.3 0.6-0.3 0.6-0.3 0.4-0.7 0.5-1.1 0.8q-0.1 0.1-0.2 0.1l0.1 0.1q-0.4 0-0.8 0.2c0 0-0.2 0.1-0.2 0 0.1-0.1 0.3-0.2 0.4-0.3 0.7-0.2 1.4-0.8 1.5-1.6 0.1-0.5 0.2-1.1 0.1-1.6-0.1 0.4-0.4 0.6-0.6 0.9-0.5 0.4-1 0.7-1.2 1.4 0.1 0.2-0.3 0.5-0.1 0.8-0.1 0.1-0.4 0.4-0.4 0.4-0.4 0.3-0.8 0.4-1.3 0.6q-0.1 0-0.2 0v0.1q-0.4 0-0.8 0c0 0-0.2 0.1-0.2 0 0.1-0.1 0.4-0.2 0.5-0.2 0.7-0.1 1.5-0.4 1.9-1.1 0.1-0.5 0.4-1.1 0.4-1.6-0.2 0.3-0.4 0.5-0.7 0.7-0.6 0.2-1.2 0.4-1.6 1 0 0.3-0.4 0.5-0.3 0.8-0.1 0.1-0.5 0.3-0.5 0.3-0.3 0.1-0.6 0.2-0.9 0.2-0.3 0-0.6-0.1-0.9-0.2 0 0-0.4-0.2-0.5-0.3 0.1-0.3-0.3-0.5-0.3-0.8-0.3-0.6-0.9-0.8-1.5-1-0.3-0.2-0.6-0.4-0.8-0.7 0.1 0.5 0.3 1.1 0.5 1.6 0.3 0.7 1.1 1 1.9 1.1 0.1 0 0.4 0.1 0.4 0.2 0 0.1-0.1 0-0.2 0q-0.4 0-0.8 0v-0.1zm1.8 1.8c0.3-1.2-0.3-0.9-1.4 0.2 0 0-1.4 1.8-4.8 3-3.4 1.2-6.3 0.5-6.3 1.4 0 0.9 3.6 1.5 7.1 0.9 3.5-0.5 5.4-5.5 5.4-5.5zm57.9-29.8h-1.2v3.4h1.2zm-121.5 21.6h-3.7v1.3h3.7zm0 3.8h-3.7v1.2h3.7zm0 3.9h-3.7v1.2h3.7zm0 3.9h-3.7v1.2h3.7zm0-23.2h-3.7v1.2h3.7zm0-3.9h-3.7v1.2h3.7zm0 7.8h-3.7v1.2h3.7zm123.4 5.1h3.8v-1.3h-3.8zm0 3.9h3.8v-1.2h-3.8zm0 3.9h3.8v-1.2h-3.8zm0 3.8h3.8v-1.2h-3.8zm0 3.9h3.8v-1.2h-3.8zm0-23.3h3.8v-1.2h-3.8zm0-3.8h3.8v-1.3h-3.8zm0 7.8h3.8v-1.2h-3.8zm-123.4-15.1h-3.7v3.7h3.7zm123.4 3.6h3.8v-3.6h-3.8zm-123.4 14.1h-3.7v1.2h3.7zm3.3-17.8h-1.2v3.5h1.2zm135.3 66.7h-2.2v-28.7h2.2zm-50.2-27.2l3.2-1.4v28.5l-3.2 0.4c0 0 0-27.2 0-27.5zm5.1-1.4c0 0 26.3 0.2 26.3 0 0 0 0 28.1 0 28.3l-26.3 0.2zm36.9 0c0 0 4.4-0.1 4.6 0v28.6h-4.6c0 0 0-28.3 0-28.6zm-41.5 72.4l-6.2 2.7c0 0-0.1 0.1-0.1 0l-6.4-2.1-1.5 1.6 13.7 21c0 0 0-21.3 0-21.5l3.2 1.5v45.7l-3.2-5.7h-10.7l3.1 13.9h24.6l-4.3-7.5h-7.6v-46.6h5.6c0 0 5.6 0.2 5.6 0h9.5v13.7c0 0-0.7 7 0 11.3 0.2 1.3 0.7 3.2 0.7 3.2 0.2 0.1 0.3 4.1 0.4 7.4 0.1 1.9-0.4 0.8-0.4 0.8 0 0-2.1-7.2-3.1-13.9-1.2-7.8-3.4-20-3.4-20-0.1-1.1-0.9-0.9-1.1 0 0 0-1.8 9.1-1.2 15 0.3 3.5 0.9 5.4 1.8 8.8 1.7 6.6 6.3 16.4 6.3 16.4 0.2 0 0.7 1.9 0.7 1.9h2.5v-2.5c-0.2 0 0-1.9 0-1.9l0.7-9.5 0.6-3.7 0.6-1.9 0.6-1.8 1.3-3.8 0.7-1.3 1.2-3.1 2.5-5.7 1.3-3.2 1.3-3.1 1.3-3.2h5.5v46.7h-31.4l5.4 7.5h33.2c0 0-5.8-7.5-6-7.5v-46.6h2.4v46.6c0.2 0.1 8.4 9.4 8.4 9.4h-81-4.1-85.7c0 0 10.2-9.3 10.4-9.4v-46.6h2.1v46.6c-0.3 0-7.7 7.5-7.7 7.5h34.7l7-7.5h-32.8v-46.7l44.5 0.1v46.6h-9.2l-6 7.5h27.9l3.2-13.9h-10.8l-3.1 5.7v-45.7l3.1-1c0 0.2 0 21 0 21l13.7-21.1h0.1c0.1-0.2 0.2-0.6 0-1.4-0.2-1.1-1.5-1.6-2.1-1.4-0.3 0.2-0.6 0.3-0.9 0.5q-0.5 0.2-1.2 0.2c-0.8 0-1.3-0.3-1.6-0.7q-0.2-0.2-0.3-0.4v-0.1l-7.6 1.8-3.2 0.9v-43.8c0.2 0 3.2 0.4 3.2 0.4v14l8.7 2.8 7.3-1.5c0 0 0.1 0.1 0.1 0.1l8.8 3.6c0 0 0.1 0.1 0.1 0.2v1.6l3-0.6v-1.9c0 0 0.1-0.1 0.1-0.2l14.4-3.6c0 0 0.1 0 0.1 0l6.2 4.3v-18.8c0 0 3-0.4 3.2-0.4v43.8l-2.7-1.5zm4.6-42.3h41.5c0 0 0 43.8 0 44 0 0-4.7 0-4.9 0 0 0 1.9-4.9 2.5-8.2 0.9-5 1-8.1 0-13.1-0.4-1.9-1.9-4.3-2-4.5h-0.5c0 0 0.4 2.3 0.6 3.8 0.3 2.9 0.1 7.4 0.1 7.4 0 0-0.4-1.4-0.9-2.2-0.3-0.5-0.5-0.8-0.9-1.1-0.4-0.4-0.8-0.5-1.3-0.7-1.1-0.3-1.8-0.2-2.9 0-1 0.2-1.6 0.4-2.4 1-0.3 0.3-0.6 0.6-0.7 0.7v0.5c0.1 0.1 0.4 0.3 0.6 0.6 0.3 0.5 0.4 0.8 0.6 1.4 0.3 1 0.5 1.5 0.5 2.5 0.1 1.2 0.1 2-0.3 3.1-0.2 0.5-0.4 0.7-0.6 1.2-0.2 0.5-0.2 0.8-0.6 1.3-0.2 0.2-0.4 0.3-0.6 0.6-0.5 0.5-0.8 0.8-1.3 1.3-0.2 0.2-0.5 0.3-0.7 0.6-0.2 0.4-0.3 0.9 0 1.3 0.4 0.3 0.8-0.1 1.3 0 0.7 0 1.2 0.1 1.9 0 0.8-0.1 1.2-0.4 1.9-0.6 0.8-0.3 1.2-0.4 1.9-0.7 0.7-0.3 1.1-0.4 1.7-0.9 0.9-0.7 1.9-2.2 1.9-2.2 0 0-1 2.6-1.7 4.3-0.3 1-0.4 1.5-0.9 2.6h-9.9v-3.8h-3.2v3.8h-20.7v-44zm21.6 4.1c-0.5-0.2-1.3 0.9-2.1 1.6-0.5 0.4-0.7 0.7-1.2 1.2-1 1-1.5 1.6-2.6 2.5-0.5 0.5-0.7 0.8-1.3 1.3-0.9 0.8-1.6 1-2.5 1.9-0.9 1.1-1.4 1.8-1.9 3.1-0.5 1.4-0.5 2.3-0.6 3.8 0 0.4 0 0.7 0 1.2 0.2 1.1 0.6 1.7 1.2 2.5 0.5 0.6 0.8 0.9 1.4 1.3 1.2 0.8 2.2 0.9 3.7 1.1 1 0.1 2.5 0 2.5 0 0 0-0.4 0.4-0.6 0.8-0.8 1.1-1 1.9-1.2 3.2-0.4 1.9-0.6 3.1 0 4.9 0.3 1.1 0.5 1.7 1.2 2.6 0.4 0.5 0.7 0.8 1.3 1.2 0.5 0.3 0.7 0.4 1.2 0.6 2.4 0.9 4.6 0.5 6.4-1.2 0.6-0.6 0.9-1.1 1.3-1.9 0.3-0.7 0.4-1.1 0.6-1.9 0.2-1.2 0.2-1.9 0-3.1-0.2-0.8-0.3-1.2-0.6-2-0.6-1.3-1.9-3-1.9-3 0 0 1.1 0.1 1.9 0 1.3-0.2 2-0.7 3.1-1.3 1.1-0.6 1.9-0.8 2.5-1.9 0.4-0.7 0.5-1.1 0.6-1.9 0.2-0.8 0.3-1.2 0.3-2 0-1.7-0.5-2.8-1.5-4.2-0.7-1-1.3-1.3-2.1-2.2-0.9-0.9-1.4-1.4-2.3-2.2-0.5-0.5-0.9-0.7-1.3-1.3-0.6-0.6-0.8-1.2-1.3-1.9-0.4-0.7-0.5-1.4-1.2-1.9-0.4-0.3-1.3-0.5-1.3-0.5 0 0.2 0 1.2 0 1.2 0 0-0.2 6.6 0.6 10.7 0.3 1.5 0.8 2.3 1 3.9 0.3 2.1 1 3.4-0.3 5.5-0.9 1.5-3.3 1.9-4.5 0.5-0.3-0.4-0.4-0.7-0.6-1.2-0.3-0.7-0.4-1.2-0.6-1.9-0.6-2.6-0.4-4.3 0-6.9 0.4-2.5 1.2-3.8 1.9-6.3 0.2-1 0.4-1.5 0.7-2.5 0.2-1.2 0.6-3.1 0.6-3.1 0 0-0.3-0.2-0.5-0.3zm-11.4 22.8c-2.1 0.8-3.3 1.5-4.6 3.3-0.8 1.1-1.3 1.8-1.6 3.1-0.3 1.3-0.2 2.3 0.1 3.6 0.2 1.1 1.2 1.6 2.2 1.9 1.8 0.4 4.4 0.1 4.4 0.1l1.5 1.1c1.4 0.9 2.2 1.1 3.7 1.6 0.9 0.3 2 0.5 2.4-0.1 0.6-1-0.5-1.9-1.3-2.6-1.2-1-2.4-1.8-2.6-1.9 0 0-0.9-4.2-0.2-6.7 0.5-1.7 2.1-3.9 2.1-3.9 0 0-3.9-0.4-6.1 0.5zm13.7 18.4h9.3c0 0-1 2.3-1.6 3.7-1.9 4.2-3.6 6.3-5.1 10.7-0.9 2.4-1.2 3.8-1.9 6.3-0.5 1.9-1.3 5-1.3 5v-1.1c-0.1-0.1 0-1.3 0-1.3l0.1-17.1 0.6-6.2zm-111.5-110h1.2v-3.5h-1.2zm56 164.2h4.1 12.3l-4.9-24h-7.4-4.1-7.4l-4.9 24zm0-25.3h4.1 7.3l-3.6-15.7h-3.7-4.1-3.6l-3.6 15.7zm0-17h4 3.5l-2.5-11.9h-1-4-1l-2.5 11.9zm6.2-11.9l1.6 6.2h7.8l-3.9-6.2zm2 7.6l2.9 11.2h11.9l-6.7-11.2zm3.4 13.2l4.3 17.6 10.6-0.1v-13.8c-0.2 0-2.5-3.8-2.5-3.8zm-66.5 18.9c0.5 0.2 1.2 0 1.4-0.6l1.2-2.4c0.3-0.6 0.2-0.9 1.5-0.7l-0.2-0.1q0.5 0.1 1 0.1h-0.1c1.3-0.1 1.2 0.2 1.4 0.8l0.9 2.5c0.2 0.6 0.9 0.9 1.5 0.7q2.3-0.4 4.5-1.6c0.6-0.3 0.9-0.9 0.7-1.5l-1-2.5c-0.2-0.6-0.4-0.8 0.6-1.6l-0.2 0.1q0.4-0.3 0.8-0.7l-0.1 0.2c0.9-1.1 1-0.8 1.6-0.5l2.5 1.2c0.5 0.2 1.2 0 1.4-0.6q1.4-1.9 2.1-4.4c0.2-0.5 0-1.2-0.6-1.5l-2.4-1.1c-0.6-0.3-0.9-0.2-0.7-1.5l-0.1 0.3q0-0.6 0-1.2l0.1 0.2c-0.1-1.3 0.2-1.2 0.8-1.4l2.6-0.9c0.5-0.3 0.8-0.9 0.6-1.5q-0.4-2.3-1.6-4.5c-0.2-0.6-0.9-0.9-1.5-0.7l-2.5 0.9c-0.6 0.3-0.8 0.5-1.5-0.5v0.2q-0.3-0.4-0.6-0.8l0.1 0.1c-1-0.9-0.8-1-0.5-1.6l1.2-2.5c0.2-0.5 0-1.2-0.6-1.4q-1.9-1.4-4.4-2.1c-0.5-0.3-1.2 0-1.4 0.5l-1.2 2.5c-0.3 0.6-0.2 0.9-1.5 0.7h0.1q-0.4 0-0.8 0-0.3 0-0.7 0c-0.6-0.1-0.5-0.4-0.7-0.8l-0.9-2.6c-0.2-0.5-0.9-0.8-1.5-0.6q-2.3 0.4-4.5 1.6c-0.6 0.2-0.9 0.9-0.7 1.5l1 2.5c0.1 0.5 0.3 0.7 0 1q-1 0.8-1.8 1.6c-0.3 0.3-0.5 0.1-0.9-0.1l-2.5-1.2c-0.5-0.2-1.2 0-1.4 0.6q-1.4 1.9-2.1 4.4c-0.3 0.5 0 1.2 0.5 1.4l2.5 1.2c0.4 0.2 0.7 0.2 0.8 0.7q-0.2 1.2-0.1 2.3c-0.1 0.5-0.4 0.5-0.8 0.6l-2.6 0.9c-0.5 0.2-0.8 0.9-0.6 1.5q0.4 2.3 1.6 4.5c0.2 0.6 0.9 0.9 1.5 0.7l2.5-1c0.5-0.1 0.7-0.4 1.2 0.2q0.1 0.1 0.2 0.2 0.1 0.1 0.1 0.2 0.5 0.5 1.1 1c0.3 0.5 0.1 0.6-0.1 1.1l-1.2 2.4c-0.2 0.6 0 1.3 0.6 1.5q1.9 1.4 4.4 2.1zm47.6-18.9h-12.5c0 0-2.3 3.8-2.5 3.8v13.8l10.6 0.1zm3.4-13.2h-8.2l-6.6 11.2h11.8zm2-7.6h-5.5l-3.9 6.3h7.8zm-2.3-4.3q0.1 0.3 0.2 0.5 0.1 0.2 0.2 0.4 0 0.6-0.6 1c-0.3 0.3-0.1 1.1 0.5 1.1 0.8 0 3.5 0 5.9 0q0.8 0 1.3 0 0.5 0 0.8 0c0.4-0.1 0.5-0.2 0.6-0.4q0.1-0.1 0-0.4-0.2-0.2-0.4-0.5-0.3-0.3-0.5-0.6c-0.1-0.2-0.3-0.4-0.3-0.6 0-0.6 0.8-1.2 1.7-1.2 0.6 0 0.8-0.7 0.2-1.1-0.7-0.5-2.3-1.1-2.9-1.1q-0.3 0-0.5 0.4c-0.1 0.3-0.1 0.7 0 1 0.1 0.6 0 2-1 2.6-0.5 0.2-1.4 0.4-2.2 0.4-0.8-0.1-1.6-0.3-1.5-1.2 0.2-1.4-0.1-1.6-0.8-1.6-1 0-1 0.8-0.7 1.3zm12 0.3q0 0.2 0 0.4 0.1 0.2 0.1 0.4 0.1 0.2 0.2 0.3 0 0 0 0.1 0.1 0 0.1 0.1c0.1 0.2 0.1 0.4 0 0.8-0.4 0.7 0 1 0.6 1 0.3 0 0.6-0.1 0.8-0.3q0.2-0.1 0.2-0.2 0-0.1 0-0.1c-0.3-0.4-0.6-1.3-0.3-2.2 0.1-0.2-0.5-0.9-1.1-0.8-0.5 0-0.6 0.3-0.6 0.5zm-19.9-2.8c0.9 0 1.5-0.4 1.5-0.9 0-0.4-0.6-0.8-1.5-0.8-0.9 0-1.5 0.4-1.5 0.8 0 0.5 0.6 0.9 1.5 0.9zm3.7 2.5c0.6 0 1-0.3 1-0.6 0-0.3-0.4-0.7-1-0.7-0.6 0-0.9 0.4-0.9 0.7 0 0.3 0.3 0.6 0.9 0.6zm23.6-10.3c0 1.1 0.9 2 2 2 1.1 0 2-0.9 2-2 0-1.1-0.9-2-2-2-1.1 0-2 0.9-2 2zm-27-3.3c0 1 0.8 1.7 1.7 1.7 1 0 1.7-0.7 1.7-1.7 0-0.9-0.7-1.7-1.7-1.7-0.9 0-1.7 0.8-1.7 1.7zm21.4 3.9v3.9l3.6 0.6v-4.2zm-28.3 9l4.2-0.9v-1.4c0-0.1-0.1-0.2-0.1-0.4q0-0.1 0.1-0.3v-18.4l-4.2-1.1zm5.7-4.4q0.5-0.2 0.9-0.2c0.5 0 1.1 0.2 1.6 0.5v-5.5c-1.1-0.1-2-0.8-2.5-1.6zm5.9-10v-8l-5.9 1.1v6.7c0.6-1 1.7-1.7 2.9-1.7 1.3 0 2.5 0.8 3 1.9zm0 2.9c-0.4 0.9-1.2 1.6-2.1 1.8v8.1q0.4-0.2 0.8-0.2c0.4 0 0.9 0.2 1.3 0.4zm1.3 9.6l0.6-0.1v-19.8l-0.6-0.2zm4.8-0.6l2.5-0.4v-16.6l-2.5-0.8zm-3.5-11.7h2.5v-3.5l-2.5-0.8zm0 8.4l2.5-0.5v-3.5l-2.5-0.3zm7.4-11.7v14.5l2.9 0.8v-15.7zm4.1-3v19l1.2 0.3v-19.6zm10 22.5l3.1 1v-10.6c-0.6 1-1.7 1.6-3 1.6h-0.1zm-2.8-0.8l1.3 0.4v-7.9q-0.8-0.4-1.3-1.1zm0-12.8c0.7-0.9 1.7-1.4 2.9-1.4 1.3 0 2.4 0.6 3 1.5v-11.8l-5.9 1.3zm7.1 14.4l2.5-1v-22.4l-2.5-1.6zm-11.8-19.8v3.5h3.6v-4zm-31.8 18l2-0.5v-23.2l-2-0.8zm99.1 3h-2.4v-44h2.4zm-50.2-22.8l-1.6-0.9v21l1.6-0.5zm-78.3 42.5c2.5-0.9 5.3 0.4 6.2 2.9 0.9 2.5-0.4 5.2-2.9 6.1-2.5 0.9-5.2-0.3-6.1-2.8-0.9-2.5 0.4-5.3 2.8-6.2zm0.5 1.4c-1.7 0.6-2.6 2.5-1.9 4.3 0.6 1.7 2.5 2.6 4.2 1.9 1.7-0.6 2.6-2.5 2-4.2-0.6-1.7-2.5-2.6-4.3-2zm23.8-65.1v44l-11.6-0.1v-2.4c0-5.1-5.2-8.5-9.6-9v-11.8c10.4-0.4 18.8-7.5 20-17.8 0.2-1.5-2-1.7-2.2-0.3-1.1 9.1-8.4 15.4-17.8 15.9v-2c7.9-0.5 14.2-5.8 15.4-13.6 0.2-1.4-2-1.8-2.2-0.3-1 6.6-6.3 11.2-13.2 11.6v-1.6c5.6-0.5 10.1-4.2 11.2-9.6 0.3-1.5-1.9-1.9-2.2-0.4-0.8 4.2-4.4 7.3-9 7.8v-1.5c3.3-0.4 6.1-2.6 7-5.8 0.4-1.4-1.7-2.1-2.1-0.6-0.7 2.1-2.5 3.7-4.9 4.2v-4.4c0-1.4-2.2-1.4-2.2 0v4.4c-2.6-0.3-4.7-2-5.3-4.3-0.5-1.4-2.6-0.7-2.2 0.7 1 3.3 4 5.5 7.5 5.8v1.5c-4.8-0.4-8.6-3.5-9.5-7.9-0.3-1.4-2.5-1-2.2 0.5 1.2 5.5 6 9.2 11.7 9.6v1.6c-7-0.4-12.7-5-13.7-11.6-0.2-1.5-2.4-1.1-2.2 0.3 1.2 7.8 7.9 13.1 15.9 13.6v2c-9.5-0.5-17.2-6.8-18.3-15.9-0.2-1.4-2.4-1.2-2.2 0.3 1.3 10.3 10 17.4 20.5 17.8v11.8c-5.1 0.6-10.1 4.7-10.1 9.9v1.5h-11c0-0.2 0-43.9 0-43.9h44.5zm-13.8 43.9h-7.4v-9.2c3.9 0.4 6.5 3 7.4 6.9zm-9.6 0h-7.9v-1.6c0-3.7 3.7-7 7.9-7.6zm-24.4-44h2v44h-2zm6.7-30.2c0 0.3 0 28.7 0 28.7h-3.4v-28.7c0.2 0 3.4 0 3.4 0zm41.1 0v28.5l-31-0.1c0-0.2 0-28.4 0-28.4 0 0.2 31 0 31 0zm5.1 1.5c0 0.3 0 27.5 0 27.5l-3.1-0.5v-28.5zm-53-1.5h1.9v28.7h-1.9zm14.7 0v28.4l-6.3 0.1v-28.5c0.3 0 6.3 0 6.3 0zm-1.3 5.9h-3.4v1.2h3.4zm0 3.8h-3.4v1.2h3.4zm0 3.7h-3.4v1.2h3.4zm0 3.8h-3.4v1.1h3.4zm0 3.8h-3.4v1.2h3.4zm0 3.8h-3.4v1.1h3.4zm0-22.6h-3.4v1.2h3.4zm121.9-2.2c0 0 6.5 0.1 6.8 0v28.6l-6.8-0.2zm1.5 7.1h3.5v-1.1h-3.5zm0 3.7h3.5v-1.1h-3.5zm0 3.7h3.5v-1.2h-3.5zm0 3.8h3.5v-1.2h-3.5zm0 3.8h3.5v-1.2h-3.5zm0 3.8h3.5v-1.2h-3.5zm0-22.6h3.5v-1.2h-3.5z"/></g></svg>