<svg version="1.2" xmlns="http://www.w3.org/2000/svg" viewBox="0 0 438 483" width="438" height="483"><defs><linearGradient id="P" gradientUnits="userSpaceOnUse"/><linearGradient id="g1" x2="1" href="#P" gradientTransform="matrix(0,-157.253,141.768,0,561.928,450.302)"><stop stop-color="#54ccff" stop-opacity="1"/><stop offset="1" stop-color="#49d5ff" stop-opacity="0"/></linearGradient><linearGradient id="g2" x2="1" href="#P" gradientTransform="matrix(74.088,59.047,-60.763,76.242,93.492,238.279)"><stop stop-color="#f00" stop-opacity="1"/><stop offset="1" stop-color="#f00" stop-opacity="0"/></linearGradient></defs><style>.a{fill:url(#g1);stroke:#000;stroke-width:20}.b{fill:#0a0c6c}.c{fill:none;stroke:#000;stroke-width:3}.d{fill:#fff;stroke:#000;stroke-width:3}.e{fill:none;stroke:#000;stroke-width:10}.f{fill:#d71818}.g{fill:none;stroke:#000;stroke-width:6}.h{fill:none;stroke:#000;stroke-width:5}.i{fill:url(#g2);stroke:#000;stroke-width:7}.j{fill:none;stroke:#000;stroke-width:4}.k{fill:#fcf201;stroke:#000;stroke-linecap:round;stroke-linejoin:round;stroke-width:6}.l{fill:none;stroke:#000;stroke-width:4.3}.m{fill:#2d5016;stroke:#000}.n{fill:none;stroke:#0b02b1;stroke-width:5}.o{stroke:#050505;stroke-width:10}.p{stroke:#050505;stroke-width:4}</style><g style="opacity:1"><path class="a" d="m31.2 10h374.8l21.2 381.8-200 79.8-216.2-84.8z"/><path class="b" d="m386.6 338.4l-6.5 8.9h-7.5l6.4-8.9v-13.2h-15.3v-5.6h22.9zm-15.3 12.8h-7.6v-21.7h7.6z"/><path class="b" d="m358.3 347.3h-7.6v-22.1h-12.7v-5.6h20.3z"/><path class="b" d="m332.6 331.9h-7.6v-12.3h7.6z"/><path class="b" d="m319.8 347.3h-7.6v-22.1h-6.1v22.1h-11.4v-5.6h3.8v-22.1h21.3z"/><path class="b" d="m293.2 335.2h-12.4v-5.2h12.4z"/><path class="b" d="m277.5 331.9h-7.6v-12.3h7.6z"/><path class="b" d="m265.2 347.4l-5.1-0.1h-18.5v-27.7h23.2m-7.6 22.1v-16.5h-8.1v16.5z"/><path class="c" d="m279.4 92.8l1.4 137.2"/><path class="d" d="m226.5 168.5h70v35.7h-71.4"/><path class="e" d="m226.5 460v-365.8l102.9-1.4v140"/><path class="f" d="m298.6 246.3l41.8-35.6 28.9 35.6c0.7 1.4-70.7 0-70.7 0z"/><path class="g" d="m372.5 245.7h-95.3"/><path fill-rule="evenodd" d="m257.9 261h10.3v10h-10.3z"/><path fill-rule="evenodd" d="m274.8 261h10.4v10h-10.4z"/><path fill-rule="evenodd" d="m237.5 282.5h12.2v18.5h-12.2z"/><path class="h" d="m294.7 302.1l2.5-55.4-21.5-27.1-50.2 28.5v55.1"/><path class="d" d="m294.3 247.5h76.8v53.9h-76.8z"/><path fill-rule="evenodd" d="m330.9 259.6h10.4v10h-10.4z"/><path fill-rule="evenodd" d="m349.8 260h10.4v10h-10.4z"/><path fill-rule="evenodd" d="m313.8 282.5h12.1v18.5h-12.1z"/><path class="c" d="m371.5 301.4h-150"/><path fill-rule="evenodd" d="m242 136.7h10.4v10h-10.4z"/><path fill-rule="evenodd" d="m242 121h10.4v10h-10.4z"/><path fill-rule="evenodd" d="m260.6 121h10.4v10h-10.4z"/><path fill-rule="evenodd" d="m300.6 136.7h10.4v10h-10.4z"/><path fill-rule="evenodd" d="m300.6 122.5h10.4v10h-10.4z"/><path class="f" d="m256.5 166.7l20.7-10.2 21.1 10.2c0.7 1.5-41.8 0-41.8 0z"/><path fill-rule="evenodd" d="m281.2 184h7.7v7.4h-7.7z"/><path fill-rule="evenodd" d="m268.9 184h7.7v7.4h-7.7z"/><path class="i" d="m54.7 303.1h113.7l27.8-46.5c5.5-10.3 2.7-12.1-1.6-14.1-8.6-4.1-16.8 10.7-36.3 16.2-21.1 5.9-62.5 10.4-83.4 9.3-10.3-0.6-17.8-26.9-24.7-26-5.3 0.7 0.4 8.4 4.5 61.1z"/><path class="g" d="m121.7 264.2v-31.4h1.4"/><path class="j" d="m135.5 261.2v-29.2"/><path class="k" d="m75.9 238.5l101.5-13.5v-32.9l-101.5-27.1z"/><path class="l" d="m133.1 148.5l-1.1 16.1zm-53.6 11.4l100 11.5z"/><path class="m" d="m384.5 301.6v-22c3-0.8 9.4-6.5 10.9-15.4-1.4-9.7-6.8-19.7-11.4-33.3-4.6 13.8-9.9 23.6-11.4 33.3 1.6 8.9 8 14.6 10.9 15.4v22"/><path class="m" d="m399.2 301.6v-22c3-0.9 9.3-6.5 10.9-15.4-1.5-9.8-6.8-19.7-11.4-33.3-4.6 13.7-9.9 23.5-11.4 33.3 1.6 8.9 8 14.5 10.9 15.4v22"/><path class="n" d="m22.9 335c0 0 15.5-10.4 28.6-7.2 7 1.7 8.6 13.9 15.7 15 11.5 1.8 19.8-15.2 31.5-15 8.3 0.1 13.8 10.5 22.1 11.4 11.9 1.5 23.1-10.1 35-8.5 7.3 0.9 11.9 10.2 19.3 10.7 12.2 0.8 22-14.7 34.3-13.6 6.7 0.6 17.1 10.7 17.1 10.7"/><path class="n" d="m18.3 373.3c0 0 11.2-15.4 30.7-11.4 7.1 1.4 8.6 13.8 15.7 15 11.5 1.8 19.9-13.8 31.5-15 11.8-1.3 13.8 10.4 22.1 11.4 11.9 1.4 23.1-10.2 35-8.6 7.3 1 11.9 10.3 19.3 10.8 12.2 0.8 22-14.7 34.3-13.6 6.7 0.6 17.1 10.7 17.1 10.7"/><path class="n" d="m69.7 400.5c11.5 1.8 12-10.9 23.6-10.8 8.3 0.2 13.9 10.5 22.1 11.5 12 1.4 23.1-10.2 35-8.6 7.3 1 12 10.2 19.3 10.7 12.3 0.8 22.1-14.7 34.3-13.6 6.7 0.6 17.2 10.8 17.2 10.8"/><path class="o" d="m83.5 302.6c-1 28.3-1 28.3-1 28.3"/><path class="p" d="m84.1 330.4c1.7 2.6-0.4 6.9-4.6 9.7-4.2 2.7-8.9 2.9-10.6 0.3-1.7-2.5 0.3-6.9 4.5-9.6 4.2-2.8 9-2.9 10.7-0.4z"/><path class="o" d="m100.7 302.1c-1 28.3-1 28.3-1 28.3"/><path class="p" d="m104.1 336.5c-1.2 2.8-6 3.4-10.5 1.4-4.6-2.1-7.3-6-6.1-8.8 1.3-2.8 6-3.4 10.6-1.4 4.6 2.1 7.3 6 6 8.8z"/><path class="o" d="m119 302c-1 28.3-1 28.3-1 28.3"/><path class="p" d="m124.6 338.9c-0.9 3-5.5 4.1-10.3 2.6-4.8-1.4-8-5-7.1-8 1-2.9 5.6-4.1 10.4-2.6 4.8 1.5 7.9 5.1 7 8z"/></g></svg>