<svg version="1.2" xmlns="http://www.w3.org/2000/svg" viewBox="0 0 70 70" width="70" height="70"><style>.a{opacity:1;fill:#007e3d}.b{opacity:1;fill:none;stroke:#d0dd28;stroke-width:3.3}.c{opacity:1;fill:none;stroke:#fff;stroke-width:1.6}.d{opacity:1;fill:none;stroke:#fff;stroke-width:1.3}.e{opacity:1;fill:#fff}.f{opacity:1;fill:none;stroke:#fff;stroke-width:.7}</style><path class="a" d="m10.5 1.7c0 0-8.8 0-8.8 8.8v48.5c0 0 0 8.9 8.8 8.9h48.5c0 0 8.9 0 8.9-8.9v-48.5c0 0 0-8.8-8.9-8.8 0 0-48.5 0-48.5 0z"/><path class="b" d="m10.5 1.7c0 0-8.8 0-8.8 8.8v48.5c0 0 0 8.9 8.8 8.9h48.5c0 0 8.9 0 8.9-8.9v-48.5c0 0 0-8.8-8.9-8.8 0 0-48.5 0-48.5 0z"/><path class="c" d="m41.3 12c0 0-1.3 1-2.5-0.2-1.3-1.2-1.9-3.1-1.9-3.1 0 0 1.4-0.3 3.2 0.7 1.8 1.1 1.2 2.6 1.2 2.6z"/><path fill-rule="evenodd" class="d" d="m39.1 27l9.3 6.3-3.7 2.7h-2l-1.1 1.8h3.8l10-5-4.6-3.2 6.3-6.9-15.5-10.6"/><path class="d" d="m21.5 16.2l-3.5-2.5 0.4-1.1c0 0 1.8 0.6 2.1-0.4 0.4-1-1.6-2.5-1.6-2.5l1.4-2 34.9 16.8"/><path class="d" d="m30.3 8.4l-2 0.1-3.9 1.1-8.2 22h3.1c0.4-0.6 1-1 1.8-1 0.7 0 1.4 0.4 1.7 1l2.3 0.1c0.3-0.7 1-1.1 1.8-1.1 0.7 0 1.4 0.5 1.7 1.1h1.6z"/><path fill-rule="evenodd" class="d" d="m17.9 26.9h35.3"/><path fill-rule="evenodd" class="d" d="m17.8 33.8l3.8 0.1-3.5 4.6-4.7 0.1 0.8-2.2 2.7-0.3z"/><path class="e" d="m35.4 46c0.8 0 1.4-0.6 1.4-1.4 0-0.8-0.6-1.5-1.4-1.5-0.8 0-1.5 0.7-1.5 1.5 0 0.8 0.7 1.4 1.5 1.4z"/><path fill-rule="evenodd" class="e" d="m47.6 45.9l-1.2-1.2 1.2-1.2 1.2 1.2z"/><path fill-rule="evenodd" class="f" d="m48.3 44.6h14.1"/><path fill-rule="evenodd" class="f" d="m46.1 42.6h16.3"/><path fill-rule="evenodd" class="f" d="m46.5 46.6h15.9"/><path fill-rule="evenodd" class="e" d="m39.6 42.3h2.6l-2.1 2h-2.6z"/><path fill-rule="evenodd" class="e" d="m39.6 46.9h2.6l-2.1-2h-2.6z"/><path fill-rule="evenodd" class="e" d="m42.5 42.3h2.6l-2 2h-2.6z"/><path fill-rule="evenodd" class="e" d="m42.5 46.9h2.6l-2-2h-2.6z"/><path fill-rule="evenodd" class="e" d="m45.5 42.3h2.6l-2 2h-2.6z"/><path fill-rule="evenodd" class="e" d="m45.5 46.9h2.6l-2-2h-2.6z"/><path fill-rule="evenodd" class="e" d="m21.6 44.7l1.2-1.2 1.2 1.2-1.2 1.2z"/><path fill-rule="evenodd" class="f" d="m22.1 44.6h-14.1"/><path fill-rule="evenodd" class="f" d="m24.3 42.6h-16.3"/><path fill-rule="evenodd" class="f" d="m23.9 46.6h-15.9"/><path fill-rule="evenodd" class="e" d="m30.9 42.3h-2.6l2 2h2.6z"/><path fill-rule="evenodd" class="e" d="m30.9 46.9h-2.6l2-2h2.6z"/><path fill-rule="evenodd" class="e" d="m27.9 42.3h-2.6l2 2h2.6z"/><path fill-rule="evenodd" class="e" d="m27.9 46.9h-2.6l2-2h2.6z"/><path fill-rule="evenodd" class="e" d="m24.9 42.3h-2.6l2 2h2.6z"/><path fill-rule="evenodd" class="e" d="m24.9 46.9h-2.6l2-2h2.6z"/><g style="opacity:1"><path class="e" d="m25.4 51.4q0.5-0.4 0.9-0.9 0.8 0.9 1.7 1.8 0.2-0.7 0.4-1.5 0.9 0 1.7 0-0.1 0.5-0.2 1.1-0.2 0-0.4 0c-0.2 0.3-0.2 0.6-0.5 0.9q-0.1 0.1-0.2 0.3 0.6 0.7 1.2 1.3-0.5 0.4-0.9 0.9-0.8-0.8-1.5-1.6c-0.2-0.3-0.3-0.5-0.4-0.7q-0.3 1-0.6 2-0.6 0-1.3 0 0.2-1 0.5-2.1c0.1-0.2 0.3-0.4 0.4-0.7-0.3-0.3-0.5-0.5-0.8-0.8z"/><path class="e" d="m42.4 50.6q0.5 0.8 1 1.6 0.4-0.7 0.7-1.4 0.7 0 1.4 0-0.1 0.6-0.2 1.1-0.2 0-0.3 0c-0.2 0.2-0.2 0.5-0.4 0.7q-0.2 0.2-0.4 0.5 0.6 0.5 1.1 1 0 0.5-0.1 0.9-1.9 0-3.7 0 0.1-0.5 0.2-1.1 0.9 0 1.9 0-0.4-0.2-0.8-0.4c0-0.1-0.1-0.2-0.1-0.3q-0.7-0.9-1.4-1.9 0.6-0.4 1.1-0.7z"/><path class="e" d="m8.5 51.9q0.1-0.5 0.2-1.1 1.8 0 3.6 0c0.1 0 0.3 0.1 0.4 0.3q0 0.1 0 0.3 0 1.8 0 3.6-0.7 0-1.4 0 0-1.5 0-3.1-0.5 0-1.1 0 0 0.9 0 1.8c0 0.4-0.1 0.7-0.3 1-0.2 0.2-0.6 0.3-0.9 0.3q-0.5 0-1 0 0.1-0.5 0.2-1.1 0.3 0 0.5 0c0.1 0 0.2-0.1 0.2-0.2 0-0.3 0-0.7 0-1.1q0.1-0.4 0.2-0.7-0.3 0-0.6 0z"/><path class="e" d="m13.3 51.9q0.1-0.6 0.2-1.1 0.7 0 1.4 0c0.2 0 0.4 0.1 0.4 0.3q0 1 0 2-0.7 0.1-1.3 0.2 0-0.7 0-1.4-0.4 0-0.7 0z"/><path class="e" d="m16.2 50.8q1.4 0 2.9 0c0.2 0 0.4 0.2 0.4 0.4q0 1.9 0 3.8-0.7 0-1.3 0 0-1.6 0-3.1-1.1 0-2.2 0 0.1-0.6 0.2-1.1z"/><path class="e" d="m20 51.9q0.1-0.6 0.2-1.1 0.7 0 1.4 0c0.2 0 0.4 0.2 0.4 0.4q0 1.9 0 3.8-0.7 0-1.3 0 0-1.6 0-3.1-0.4 0-0.7 0z"/><path class="e" d="m22.7 50.8q1.2 0 2.4 0-0.2 0.6-0.3 1.1-0.3 0-0.6 0 0.3 1.5 0.5 3.1-0.7 0-1.4 0-0.1-1.1-0.3-2.2c-0.1-0.3 0.1-0.6 0.2-0.9q-0.3 0-0.7 0 0.1-0.5 0.2-1.1z"/><path class="e" d="m30.9 50.8q1.2 0 2.3 0c0.4 0 0.8 0.1 1.1 0.3 0.3 0.3 0.4 0.7 0.4 1q0 1.5 0 2.9-0.6 0-1.3 0 0-1.4 0-2.8c0-0.1 0-0.2-0.1-0.2-0.1-0.1-0.2-0.1-0.3-0.1q-1.1 0-2.3 0 0.1-0.5 0.2-1.1z"/><path class="e" d="m37 50.8q1.2 0 2.3 0c0.4 0 0.8 0.1 1.1 0.3 0.3 0.3 0.4 0.7 0.4 1q0 1.5 0 2.9-0.7 0-1.3 0 0-1.4 0-2.8 0-0.1-0.1-0.2c-0.1-0.1-0.2-0.1-0.3-0.1q-1.2 0-2.3 0 0.1-0.5 0.2-1.1z"/><path class="e" d="m46 50.8q0.5 0 1 0c0.2 0 0.4 0.2 0.4 0.4q0.4 1.3 0.8 2.6c0.2-0.1 0.4-0.3 0.4-0.5q0-0.7 0-1.4-0.3 0-0.5 0 0.1-0.6 0.2-1.1 0.6 0 1.2 0c0.2 0 0.4 0.2 0.4 0.4q0 1 0 2.1c0 0.3-0.1 0.7-0.4 0.9q-0.3 0.4-0.8 0.6-1.4 0.4-2.7 0.8 0.1-0.6 0.3-1.3 0.4-0.1 0.9-0.2-0.2-0.5-0.5-0.9-0.2-0.7-0.4-1.3-0.3 0-0.5 0 0.1-0.5 0.2-1.1z"/><path class="e" d="m50.7 50.8q0.7 0 1.4 0c0.2 0 0.4 0.2 0.4 0.4q0 1.9 0 3.8-0.7 0-1.4 0 0-1.6 0-3.1-0.3 0-0.6 0 0.1-0.5 0.2-1.1z"/><path class="e" d="m53.3 50.8q1.2 0 2.3 0c0.5 0 1 0.2 1.3 0.5 0.3 0.3 0.5 0.7 0.4 1.1q0 1 0 2c0 0.2-0.1 0.4-0.2 0.6q-1 0-1.9 0 0.1-0.5 0.2-1.1 0.3 0 0.6 0 0-0.7 0-1.5c0-0.2-0.1-0.4-0.3-0.5-0.2 0-0.5 0-0.7 0q-0.2 1.6-0.4 3.1-0.6 0-1.3 0 0.1-1 0.3-2.1c0-0.4 0.2-0.7 0.3-1q-0.4 0-0.8 0 0.1-0.5 0.2-1.1z"/><path class="e" d="m58.5 50.8q1.1 0 2.2 0c0.4 0 0.8 0.1 1.1 0.3 0.3 0.3 0.4 0.7 0.5 1q-0.1 1.5-0.1 2.9-0.6 0-1.3 0 0-1.4 0-2.8c0-0.2-0.1-0.3-0.3-0.3q-1.2 0-2.3 0 0.1-0.5 0.2-1.1z"/><path class="e" d="m30.8 52.9q0.7-0.1 1.4-0.2 0 1.2 0 2.3-0.7 0-1.4 0 0-1 0-2.1z"/><path class="e" d="m36.9 52.9q0.7-0.1 1.3-0.2 0 1.2 0 2.3-0.6 0-1.3 0 0-1 0-2.1z"/><path class="e" d="m58.4 52.9q0.6-0.1 1.3-0.2 0 1.2 0 2.3-0.7 0-1.3 0 0-1 0-2.1z"/><path class="e" d="m18.3 57.3q1.1 0 2.3 0c0.4 0 0.8 0.1 1.1 0.3 0.2 0.3 0.3 0.6 0.3 1q0 1.4 0 2.9-0.6 0-1.3 0 0-1.4 0-2.8 0-0.1 0-0.3c-0.1-0.1-0.3-0.1-0.4-0.1q-1.1 0-2.3 0 0.2-0.5 0.3-1z"/><path class="e" d="m22.9 57.3q1.9 0 3.7 0-0.1 0.5-0.2 1-0.2 0-0.5 0 0 1.6 0 3.2-0.7 0-1.3 0 0-1.2 0-2.3c-0.1-0.3 0.1-0.6 0.2-0.9q-1 0-2.1 0 0.1-0.5 0.2-1z"/><path class="e" d="m26.9 58.3q0.1-0.5 0.2-1 0.7 0 1.4 0c0.2 0 0.4 0.1 0.4 0.3q0 1.9 0 3.9-0.7 0-1.3 0 0-1.6 0-3.2-0.4 0-0.7 0z"/><path class="e" d="m30 57.3q1.1 0 2.3 0c0.3 0 0.8 0 1 0.3 0.3 0.2 0.5 0.6 0.5 1q0 1.4 0 2.9-0.7 0-1.4 0 0-1.5 0-2.9c0-0.2-0.2-0.3-0.3-0.3q-1.2 0-2.3 0 0.1-0.5 0.2-1z"/><path class="e" d="m34.2 58.3q0.2-0.5 0.3-1 0.7 0 1.3 0c0.2 0 0.4 0.1 0.4 0.3q0 1 0 2-0.6 0.1-1.3 0.2 0-0.7 0-1.5-0.3 0-0.7 0z"/><path class="e" d="m38.5 57.3q1.2 0 2.3 0c0.4 0 0.8 0 1.1 0.3 0.3 0.2 0.4 0.6 0.4 1q0 1.4 0 2.9-0.7 0-1.3 0 0-1.4 0-2.8 0-0.1-0.1-0.3c-0.1 0-0.2-0.1-0.3-0.1q-1.2 0-2.3 0 0.1-0.5 0.2-1z"/><path class="e" d="m43 57.3q0.7 0 1.3 0c0.2 0 0.4 0.1 0.4 0.3q0 1.4 0 2.7c0.4 0.2 0.8 0.2 1.1 0.1 0.3 0 0.5-0.1 0.5-0.4q0-0.8 0-1.6-0.3 0.3-0.7 0.7-0.3-0.5-0.6-0.9 0.4-0.4 0.9-0.8 0.1-0.1 0.3-0.1 0.5 0 1 0c0.2 0 0.4 0.1 0.4 0.3q0 1.2 0 2.4c0 0.4-0.1 0.8-0.4 1-0.4 0.4-1 0.5-1.5 0.6-0.8 0-1.6-0.3-2.3-0.7q0-1.3 0-2.6-0.3 0-0.6 0 0.1-0.5 0.2-1z"/><path class="e" d="m48.5 57.3q1.1 0 2.3 0c0.4 0 0.9 0.1 1.2 0.5 0.3 0.2 0.5 0.7 0.5 1.1q0 0.9 0 1.9c-0.1 0.2-0.2 0.5-0.3 0.7q-0.9 0-1.9 0 0.1-0.6 0.2-1.1 0.3 0 0.6 0 0.1-0.8 0-1.5c0.1-0.3-0.1-0.5-0.3-0.5-0.2-0.1-0.4-0.1-0.7-0.1q-0.1 1.6-0.3 3.2-0.7 0-1.4 0 0.2-1.2 0.3-2.4c0.1-0.2 0.2-0.5 0.3-0.8q-0.4 0-0.7 0 0.1-0.5 0.2-1z"/><path class="e" d="m18.2 59.4q0.6-0.1 1.3-0.2 0 1.1 0 2.3-0.7 0-1.3 0 0-1.1 0-2.1z"/><path class="e" d="m29.9 59.4q0.6-0.1 1.3-0.2 0 1.1 0 2.3-0.7 0-1.3 0 0-1.1 0-2.1z"/><path class="e" d="m38.4 59.4q0.7-0.1 1.3-0.2 0 1.1 0 2.3-0.6 0-1.3 0 0-1.1 0-2.1z"/></g></svg>