<svg version="1.2" xmlns="http://www.w3.org/2000/svg" viewBox="0 0 1590 2178" width="1590" height="2178"><style>.a{opacity:1;fill:#602026}.b{opacity:1;fill:#058860}</style><path class="a" d="m1168.8 150.1l-27.2 19.7c0 0-50.4 36-84.7 68.5v0.1c-128.6 122-202.9 305.4-267 473.3-57.5-107.1-127.9-218.4-189.2-322.1-37.4-63.1-71.2-118.8-96.6-158.9-12.7-20.1-25.3-28.5-33.4-40.2-4.1-5.9-7.5-10.5-10.9-14.7-1.7-2.1-3.2-4-6-6.6-1.4-1.3-2.9-2.8-6.3-4.8-3.3-2.1-6.3-14.4-19.9-13.3l-15.3 1.2-9.5 12c-70 89.1-113.7 192-113.8 317.2 0 289.3 222.9 526.4 505.4 526.3 282.4 0.1 505.4-237 505.3-526.3 0-109.7-33-207.8-88.7-290.8q-11.9-17.6-25.1-34.4zm-17.5 77.3c0.5 0.8 1.1 1.6 1.7 2.4 48.7 72.6 76.8 156 76.8 251.8 0.1 253.6-191.9 456.5-435.4 456.4-243.4 0.1-435.4-202.8-435.4-456.4 0.1-92.3 25.7-166.9 71.5-236.1 4.5 6.9 9.2 14.2 14.5 22.6 24.8 39.3 58.4 94.5 95.5 157.2 74.2 125.4 162.3 280.7 222.8 398l34.4 66.7 29-69.2c75.5-180.2 152.4-435.5 274.8-551.7v-0.1c14.2-13.4 33.7-29.1 49.8-41.6z"/><path class="a" d="m773.7 965.7l-378.5 493.9 16.9 12.9 378.5-493.8zm0 12.9l378.8 494.2 16.9-13-378.8-494.1zm3.7-16l-767.3 381.4 9.5 19.1 767.3-381.4zm-0.1 19l757.4 382 9.6-19-757.4-382zm2.9 0.9l757.4 135.1 3.8-21-757.4-135zm0-20.9l-767.3 134.4 3.6 21 767.3-134.4z"/><path class="b" d="m430.3 178c-66.4 84.5-106.3 186.2-106.3 303.5 0 271.4 207.4 491.5 470.4 491.4 262.9 0.1 470.4-220 470.3-491.4 0-117.3-39.8-219-106.3-303.5 0 0-53.3 34.3-84.4 63.8-134.8 128-205.6 358.7-279.6 535.4-74.1-176.7-144.9-407.4-279.7-535.4-31.1-29.5-84.4-63.8-84.4-63.8z"/><path class="a" d="m773.7 978.7v378.7h43l-0.1-378.8z"/><path class="a" d="m44.6 1598.9c52-47.1 82.5-104.2 115.3-147 16.2-21.5 32.7-39.3 51.5-51.8 18.9-12.5 40.1-20.2 68.9-21.4h1.9c26.4-0.2 44 9.6 62 27.8 26.9 27.3 48.2 74.3 75.3 116.4 13.8 21 29.3 41.1 49.6 56.4 20.2 15.4 45.9 25.5 75.5 25.3h2.1c39.2-0.5 70.3-18.7 92.9-42.5 34.3-35.8 55.4-83.8 80.2-121.1 12.2-18.6 25-34.4 39-45 14.2-10.6 29-16.7 49.1-17.1h1.7c26.8 0.2 44.8 10.5 63 29 27.1 27.8 48.5 74.8 75.2 116.6 13.5 20.9 28.7 40.8 48.6 56 19.7 15.2 45 25.1 74 24.4l5.5-0.2c37.7-2 66.8-21.3 87-45.6 30.6-36.5 47.7-84 68.8-120.5 10.5-18.3 21.5-33.5 33.7-43.5 12.4-10 25.1-15.6 43.6-16.1h1.3c26.8 0 47.8 8 67.8 22.3 30 21.3 56.3 58.1 83.1 99 27 40.8 54.8 85.3 91.8 120.9l29.7-30.9c-42.6-40.5-75.3-101.5-113.6-154.4-19.3-26.4-40.2-50.9-66-69.5-25.6-18.5-56.8-30.5-92.8-30.3h-2c-37.5 0.4-66.9 18.8-87.1 42.5-30.5 35.7-47.6 82.9-68.9 120-10.5 18.5-21.7 34.3-34.2 45-12.7 10.7-25.9 17-44.7 18.2l-3.8 0.2c-25.7 0.2-42.8-9.5-60.6-27.7-26.6-27.4-47.7-74.3-74.8-116.4-13.7-21.1-29.2-41.1-49.4-56.5-20.2-15.4-45.7-25.6-75.2-25.4h-2.5c-39.1 0.5-70.1 18.6-92.8 42.4-34.1 35.8-55.2 83.8-80 121.1-12.3 18.7-25.1 34.4-39.1 45.1-14.2 10.6-29.1 16.6-49.3 17l-1.4 0.1c-27-0.2-45.1-10.4-63.3-28.9-27.3-27.8-48.6-74.8-75.6-116.7-13.6-21-29-40.8-49.2-56-20.1-15.2-45.6-25-75-24.3l-2.8 0.1c-36 1.3-66.1 11.9-90.9 28.5-37.3 24.9-62.5 61.1-87.7 97.7-25.2 36.7-50.2 74.3-84.2 105z"/><path class="a" d="m1589.3 1605.8l-0.2-1605.5-22.4 1.1c-2.1 0.2-198.5 9.7-396.9 137-198.5 127-396.7 375.1-396.1 840.3l42.9-0.1c0.5-452.9 188.7-682.7 376.4-804.1 94-60.4 188.4-93.2 259.1-110.6 35.4-8.7 64.8-13.6 85.2-16.4 10.3-1.3 18.3-2.1 23.6-2.6 5.4-0.5 7.9-0.6 7.9-0.6l-1.1-21.5h-21.4l5.5 1597.3c17.7 17.7 37.5 6.2 37.5-14.3z"/><path class="a" d="m44.6 1598.9l-0.7-1576.4h-21.4l-1.1 21.4c0 0 2.4 0.1 7.7 0.6 39.4 3.4 223.3 26.2 397.2 149.5 173.7 123.5 339.6 345.2 347.2 757.2 0.1 9 0.2 18.2 0.2 27.5l42.9-0.1c0-9.4-0.1-18.9-0.2-28.2-7.4-451.6-205.6-692.6-402.1-816-196.3-123.8-388.7-133.1-390.8-133.3l-22.5-1.1 0.2 1578.9c0 27 14.3 39.4 43.4 20z"/><path class="a" d="m1549.5 1758.4q0 87.9-61.5 87.9-10.4 0-20.6-3 0.6-6.1 4.2-16.5 6 3 11.4 3 30.8 0 30.8-70.4 0-68.5-32.4-68.5-28.6 0-34.7 66.5l-8 86.6h-33.5l6.9-81.2q4.7-54.2 33.1-71.5h-38q-0.7-5.3-0.7-7.8 0-3.3 0.7-9.4h83.1q59.2 0 59.2 84.3z"/><path class="a" d="m1370.7 1844h-33.8v-169.9h33.8z"/><path class="a" d="m1299.4 1783.3q0 28.3-14.9 44.3-15.3 16.4-43.1 16.4h-70.9q-0.8-7.9-0.8-8.9 0-4 0.8-8h43.1q-13.4-13.3-24.1-41.4-17-44.2-17-107.7 0-3.9 4.2-3.9h30q0 60.1 11.4 106.4 6.4 26.6 18.8 46.6 13.4 0 19.8-7.6 8.6-9.7 8.6-33.4v-112h34.1z"/><path class="a" d="m1136.6 1703.8q0 50.1-47.9 82.2 11.4 11.9 36.5 31.6 6.6 5.1 6.6 12.2 0 14.2-16.2 14.2h-106.3q-0.8-7.6-0.8-9.6 0-2.8 0.8-7.3h75.9q2.5 0 3-2.6 0.6-2.7-1.7-4.2-34.7-26.9-56.2-62.5-24-39.5-24.5-79.6 0-4.2 4.3-4.2h30.1q2 36.1 14.2 65.3 8.1 19.5 22.5 34.6 11.1-10.9 17.7-24.8 7.9-17.1 7.9-35.1v-40h34z"/><path class="a" d="m973.8 1844h-33.7v-115.7q0-15.4-8.5-25.8-8.9-11.2-23.9-11.2h-58.1q-1.3-6.2-1.1-9.1 0-2.8 1.1-8.1h65.8q58.4 0 58.4 54.2zm-90.1 0h-33.7v-99.8q15.8-12.8 33.7-14.3z"/><path class="a" d="m744.3 1840.9q0 3.1-5.7 3.1h-29.6l-61.8-94.9q-10.6 9.3-10.6 24.3v70.6h-33.7v-34.9q0-54 35.7-73.5l-35.7-54.4q-1.3-2-1.3-3.7 0-3.4 5.6-3.4h29.1l56.9 87.1q5.1-3.3 9.2-14.7 3.7-10.3 3.7-17.1v-55.3h33.7v27.4q0 52.1-37.4 74.1l40.4 61c1.1 1.7 1.6 3.2 1.5 4.3z"/><path class="a" d="m574.9 1674.1q-0.8 8.2-7.1 16.5-9.1 3.5-15 11.1-10.1 13-10.1 38.3 0 8.6 1.5 18.4l12 85.6h-34.5l-11.3-77.2q-1.1-7.3-1.1-14.5 0-19 6.6-35.4 8.1-20.2 23.1-26h-36.5q-1-5.6-1.2-7.4 0-1.7 0.7-9.4z"/><path class="a" d="m466.8 1844h-33.7v-169.9h33.7z"/><path class="a" d="m396.1 1844h-33.8v-115.7q0-15.4-8.4-25.8-8.9-11.2-24-11.2h-50.2q-1.2-5.8-1.3-8.5 0-2.9 1.3-8.7h57.8q58.6 0 58.6 54.2z"/><path class="a" d="m249.6 1765.8q-14.4 13.9-34 16.9v-108.6h34z"/><path class="a" d="m178 1844h-33.4v-122.8q0-29.9-27.2-29.9h-29.1q-3.2 0-3.2 3.1v105.3q0 28.9-12.6 39.9-9.9 8.6-29 8.6-8.8 0-16.2-4.2 1.9-4.9 5.4-14.9 3 2 7.5 2 11.7 0 11.7-14.9v-123.9q0-18.2 17-18.2h54.6q28.1 0 40.6 11.4 13.9 12.7 13.9 37.7z"/><path class="a" d="m1556.4 2068.4q0 28.3-14.9 44.3-15.3 16.4-43.1 16.4h-70.9q-0.8-7.9-0.8-8.9 0-4 0.8-8h43.1q-13.4-13.4-24.1-41.5-17-44.1-17-107.6 0-3.9 4.2-3.9h30q0 60.1 11.4 106.4 6.4 26.6 18.8 46.6 13.4 0 19.8-7.6 8.6-9.7 8.6-33.4v-112h34.1z"/><path class="a" d="m1381.1 2043.5q0 87.9-61.5 87.9-10.4 0-20.6-3 0.6-6.1 4.2-16.5 6 3 11.5 3 30.7 0 30.7-70.4 0-68.5-32.4-68.5-28.6 0-34.7 66.5l-7.9 86.6h-33.6l6.9-81.2q4.7-54.2 33.1-71.5h-38q-0.6-5.3-0.6-7.8 0-3.3 0.6-9.4h83.1q59.2 0 59.2 84.3z"/><path class="a" d="m1191.3 2031.2q0 38.6-21 66.8-23 31.1-60 31.1-1-3.8-0.8-8.3 0.6-2.8 0.8-8.6 45.3-10 45.3-80 0-24.3-4-36-6.6-19.8-26-19.8h-69.4q-0.7-3.3-1.3-8.5 0-1.8 1.3-8.7h77.9q29.4 0 42.3 13.9 14.9 16.2 14.9 58.1zm-101.4 146.7h-33.4v-150q8.3-7.2 15.6-10.4 8.4-3.4 17.8-4.9z"/><path class="a" d="m1009.4 2054.2h-74.7v-18.2h74.7z"/><path class="a" d="m885.4 2050.9q-14.4 13.9-34.1 16.9v-108.6h34.1z"/><path class="a" d="m805.8 1959.2q-0.8 8.2-7.1 16.5-9.1 3.5-15.1 11.1-10.1 13-10.1 38.3 0 8.6 1.5 18.4l12.1 85.6h-34.5l-11.3-77.2q-1.2-7.3-1.2-14.5 0-19 6.7-35.4 8.1-20.2 23.1-26h-36.5q-1-5.6-1.2-7.4 0-1.7 0.7-9.4z"/><path class="a" d="m686.6 2129.1h-33.7v-115.7q0-15.4-8.4-25.8-8.9-11.2-24-11.2h-50.2q-1.2-5.8-1.3-8.5 0-2.9 1.3-8.7h57.8q58.5 0 58.5 54.2z"/><path class="a" d="m523.4 2068.4q0 28.3-14.8 44.3-15.4 16.4-43.2 16.4h-70.9q-0.8-7.9-0.8-8.9 0-4 0.8-8h43.1q-13.3-13.4-24.1-41.5-17-44.1-17-107.6 0-3.9 4.3-3.9h29.9q0 60.1 11.4 106.4 6.4 26.6 18.8 46.6 13.4 0 19.9-7.6 8.6-9.7 8.6-33.4v-112h34z"/><path class="a" d="m348.1 2126q0 3.1-5.8 3.1h-29.6l-61.8-94.9q-10.6 9.3-10.6 24.3v70.6h-33.7v-34.9q0-54 35.7-73.5l-35.7-54.4q-1.3-2-1.3-3.7 0-3.4 5.6-3.4h29.1l56.9 87.1q5.1-3.3 9.2-14.7 3.7-10.3 3.7-17.1v-55.3h33.7v27.4q0 52.1-37.3 74.1l40.3 61q1.7 2.6 1.7 4.2z"/><path class="a" d="m163.5 2024.5q0 45.9-21.7 73.7-23.1 29.4-67.1 32.9-1.2-4-0.8-8.9 0-2.5 0.8-8 16.2-2.6 28.1-13.9 25.3-24.1 25.3-74.8 0-49.1-26.1-49.1h-46.5q-16.7 0-16.7-15.2v-43.7h32.3v36.5q0 5.2 5.4 5.2h32.8q30.2 0 42.8 16.5 11.4 15.1 11.4 48.8z"/></svg>