<svg version="1.2" xmlns="http://www.w3.org/2000/svg" viewBox="0 0 407 626" width="407" height="626"><style>.a{fill:#fff}.b{fill:#0384c0}</style><g style="opacity:1"><path class="a" d="m322.5 57.2c-82.5 0-119.3-55.4-119.3-55.4 0 0-36.8 55.4-119.3 55.4-55.9 0-82.9-25.2-82.9-25.2v46.1c0 0 22.6 6.6 22.6 32.3 0 25.8 0 290.4 0 315.2 0 24.8 38.4 71.9 92.7 71.9 7.5 0 27.9 0 31.5 0 30.1 0 55.4 42.6 55.4 42.6 0 0 25.3-42.6 55.4-42.6 3.6 0 24 0 31.5 0 42.1 0 92.7-42.5 92.7-67.4 0-24.8 0-293.9 0-319.7 0-25.7 22.6-32.3 22.6-32.3v-46.1c0 0-27.1 25.2-82.9 25.2z"/><path class="b" d="m203.2 542.1l-0.9-1.5c-0.2-0.4-25.3-42.1-54.5-42.1h-31.5c-24.3 0-48.2-9.5-67.4-26.9-16-14.5-26.3-32.6-26.3-46v-315.2c0-24.6-21.7-31.3-21.9-31.4l-0.7-0.2v-49.1l1.7 1.5c0.2 0.3 27.4 25 82.2 25 42.4 0 72.3-14.9 90-27.5 19.1-13.6 28.4-27.3 28.5-27.4l0.8-1.3 0.8 1.3c0.1 0.1 9.4 13.9 28.6 27.5 17.6 12.5 47.6 27.4 89.9 27.4 54.8 0 81.9-24.7 82.2-25l1.7-1.5v49.1l-0.7 0.2c-0.9 0.3-21.9 6.8-21.9 31.4v319.7c0 12.4-11.9 29.2-31 43.8-20 15.4-43.5 24.6-62.7 24.6h-31.5c-29.2 0-54.3 41.7-54.5 42.1zm-201.2-464.7c3.9 1.5 22.6 9.6 22.6 33.1v315.2c0 12.7 10.3 30.6 25.6 44.5 18.8 17 42.2 26.4 66 26.4h31.5c27.6 0 50.7 34.1 55.5 41.7 4.7-7.6 27.8-41.7 55.4-41.7h31.5c18.8 0 41.8-9 61.5-24.2 18.3-14 30.1-30.6 30.1-42.2v-319.7c0-23.5 18.7-31.6 22.6-33.1v-43.3c-6.7 5.4-33.9 24.2-81.9 24.2-42.8 0-73.2-15.2-91.1-27.9-16.2-11.5-25.5-23.2-28.1-26.8-2.7 3.6-12 15.3-28.2 26.8-17.9 12.7-48.3 27.9-91.1 27.9-48 0-75.2-18.8-81.9-24.2z"/><path class="b" d="m395.9 71.1c0 0-23.3 11.6-23.3 34.9 0 23.4 0 308.9 0 323.7 0 14.8-35.2 57.3-70.1 57.3-8.6 0-30.1 0-34.6 0-46.1 0-64.7 37-64.7 37 0 0-18.6-37-64.7-37-4.5 0-26.1 0-34.6 0-34.9 0-70.1-42.5-70.1-57.3 0-14.8 0-300.3 0-323.7 0-23.3-23.3-34.9-23.3-34.9v-20.7c0 0 25.7 18.1 70.6 18.1 79.2 0 122.1-51.4 122.1-51.4 0 0 42.9 51.4 122.1 51.4 44.9 0 70.6-18.1 70.6-18.1v20.7z"/><path class="a" d="m203.2 28.6c0 0 12.4 31.5 12.4 64.1 0 32.6-12.4 68.1-12.4 68.1 0 0-12.4-35.5-12.4-68.1 0-32.6 12.4-64.1 12.4-64.1z"/><path class="a" d="m191 144.1c0 0-16.2-60.5-72.1-60.5-41.9 0-60.5 24-60.5 24 0 0 19.1-6.7 38.4-6.7 58.1 0 94.2 43.2 94.2 43.2z"/><path class="a" d="m189.9 158.5c0 0-26.8-33.6-69.2-33.6-42.3 0-67.2 35.4-67.2 35.4 0 0 34.6-16.4 67.2-16.4 32.6 0 69.2 14.6 69.2 14.6z"/><path class="a" d="m286 79.5c-55.8 1.4-73.5 64-73.5 64 0 0 38.1-45.8 96.1-47.3 19.3-0.4 38.5 1.4 38.5 1.4 0 0-19.2-19.1-61.1-18.1z"/><path class="a" d="m209.2 160.1c0 0 30.3-32.8 67.4-32.8 37 0 51.6 25.9 51.6 25.9 0 0-24-6.8-52.5-6.8-28.5 0-66.5 13.7-66.5 13.7z"/><path class="a" d="m292.6 113.2c0.9-1.4 2.4-3.6 3.5-4.5 1.6-1.3 5.8-1.9 7.8-2.3 3.1-0.5 8.7-0.6 11.1 0.8 0.8 0.4 1.4 1.3 2.1 2.2 0.7 0.9 1.4 1.9 2.3 2.5 2.9 2.1 8.5 1.7 13 1.4 1.4-0.1 2.7-0.2 3.8-0.2h0.8c2.5 0 4.7 0 6.7 1 1.8 0.8 2.9 2.2 4.1 3.8q0.5 0.6 1.1 1.3l0.2 0.2c0.8 1 1.5 1.8 2.1 2.9l1.6-0.7c-0.7-1.4-1.5-2.3-2.4-3.4l-0.2-0.2q-0.5-0.6-1-1.3c-1.3-1.6-2.6-3.2-4.7-4.2-2.4-1.2-4.9-1.2-7.5-1.2h-0.8c-1.1 0-2.5 0.1-4 0.2-4.2 0.3-9.4 0.7-11.8-1-0.7-0.5-1.3-1.3-1.9-2.1-0.7-1.1-1.5-2.1-2.7-2.8-2.9-1.6-9-1.4-12.2-0.9-2.3 0.4-6.6 1.1-8.6 2.6-1.4 1.1-2.8 3.3-3.9 5l-0.2 0.3 1.5 1z"/><path class="a" d="m361.6 173.9l4.5-1.9-0.7-1.6-8.6 3.7 0.2-51.5h-8.3l0.8-0.8c-3.7-3.6-11-3.2-17-2.9-1.5 0.1-2.9 0.2-4 0.2q0 0 0 0c-1.9 0-3.6-0.5-5.3-1-1.7-0.5-3.4-1-5.3-1l-2.1-0.1c-3.7-0.1-7.7-0.2-11.2 0.6l0.3 1.7c3.4-0.7 7.2-0.6 10.9-0.5l2.1 0.1c1.6 0 3.1 0.4 4.8 0.9 1.8 0.5 3.6 1.1 5.7 1.1q0.1 0 0.1 0c1.2 0 2.6-0.1 4.1-0.2 5.3-0.3 11.7-0.6 15 1.9h-0.2l-1.5 56.1h0.2l-29 12.6v-15.7l4.6-2-0.7-1.6-48.3 20.9v-13l4.7-2-0.7-1.6-5.7 2.4-47.8 20.6 0.7 1.7 3.9-1.7v23.8h-5v1.8h142.9v-1.8h-4.1zm-12.5-49.6h6.1l-0.1 50.5-7.4 3.2zm-119.6 74.2l41.4-17.9v15l44.4-19.2v17.5l44.5-19.2v48.4h-130.3z"/><path fill-rule="evenodd" class="a" d="m243.3 196h13.9v9.8h-13.9z"/><path fill-rule="evenodd" class="a" d="m282.6 196h13.9v9.8h-13.9z"/><path fill-rule="evenodd" class="a" d="m325.5 196h13.9v9.8h-13.9z"/><path class="a" d="m132.5 196.8h-1.8c0 1.3-0.1 2.6-0.2 3.9-0.1 1.6-0.1 3.3-0.1 5l1.8-0.1q0-0.1 0-0.1 0.6 0.2 1.3 0.2c0.6 0 1.3-0.1 1.9-0.4 0.9-0.5 1.5-1.3 1.6-2.2 1.3-0.2 2.5-0.5 3.2-0.8l-0.7-1.6c-1.8 0.8-5.9 1.1-7 0.1l-0.2 0.2q0-0.1 0-0.2c0.1-1.3 0.2-2.7 0.2-4zm2.7 6.4c-0.2 0.2-0.4 0.4-0.6 0.5-0.7 0.4-1.6 0.3-2.1 0l-0.3 0.5q0-0.7 0-1.5c0.8 0.3 1.9 0.5 3 0.5z"/><path class="a" d="m131.4 191.7c6.5-1.6 10.5-2.2 12 3.8 0.2 0.5 0.2 0.9 0.2 1.3 0.2 1.1 0.4 1.7 2.1 2.5 1.4 0.7 3.4 0.6 5.3 0.5q0.8-0.1 1.5-0.1c1.6 0 3 0 4.3 0.1l-0.4 0.4c0.4 0.4 0.4 0.9 0.5 1.6 0.1 0.8 0.3 1.7 0.9 2.5 0.8 1 1.9 1.4 3 1.7q0.3 0.1 0.7 0.2v-0.3c-0.1 1.9-0.5 3.8-1.3 5.3-1.8 3.1-5.5 2.8-9.4 2.5-1.7-0.1-3.6-0.3-5.2-0.1-3.3 0.4-3.9 1-4 4.4 0 1.8-0.1 4.3 2.1 5.8 2.2 1.7 5.5 1.5 8.7 1.4 2-0.1 3.9-0.2 5.5 0.1 0 2.3-0.3 5.1-1.9 6.3q-1.8 1.4-5.2 0.3c-0.7-0.2-1.7-0.9-2.8-1.6-2.7-1.7-5.6-3.7-7.7-2.7q-1.7 0.8-1.9 3.7l1.8 0.1c0-0.8 0.2-1.9 0.8-2.2 1.3-0.6 4.1 1.3 6 2.6 1.3 0.8 2.4 1.5 3.2 1.8q1.8 0.6 3.3 0.6 2.1 0 3.6-1.2c1.9-1.5 2.7-4.3 2.5-8.4v-0.6l-0.6-0.2c-1.9-0.6-4.4-0.5-6.7-0.4-2.1 0.1-4.3 0.2-5.9-0.2 1.2-1.1 2.8-1.8 4.5-1.9 1.4-0.1 2.3 0.4 3.5 0.9 0.9 0.5 1.8 0.9 3 1.1 3.3 0.4 5.5 0.1 7.4-2.9 0.2-0.4 0.5-0.8 1-1.3 1.3-1.8 2.9-3.8 2.5-5.5l-0.5-2.5-1.1 2.3c-1.6 3.2-5.2 8.2-11.5 5.9-0.4-0.2-0.8-0.5-1.1-0.8-0.5-0.3-1-0.7-1.6-0.9-1.2-0.4-3.8-0.2-4.8 0-1.7 0.3-3.1 1.3-4.2 2.4q-0.1-0.9-0.1-1.9c0.1-2.5 0.1-2.5 2.4-2.7 1.5-0.2 3.1-0.1 4.9 0.1 4 0.3 8.7 0.6 11-3.4 1.7-3 2.1-7.5 1.2-12.2l-0.1-0.5-0.5-0.2c-3.4-1.3-6.2-1.3-9.8-1.3q-0.7 0-1.6 0.1c-1.6 0.1-3.5 0.2-4.4-0.3-1-0.4-1-0.5-1.1-1.1 0-0.4-0.1-0.9-0.2-1.6-2.2-8.1-8.6-6.5-14.2-5.1-1.4 0.4-2.9 0.8-4.3 1l0.3 1.7c1.4-0.2 2.9-0.6 4.4-0.9zm30.8 29.1c-0.8 0.7-1.8 0.9-3.3 0.9q1.7-0.2 3.3-0.9zm-14.2-1.5c1.1-0.2 3.2-0.3 3.9-0.1q0.4 0.2 0.7 0.5-0.8-0.2-1.8-0.2c-2.4 0.1-4.6 1.2-6.2 2.8q-0.2-0.2-0.5-0.4c0.9-1 2.3-2.2 3.9-2.6zm13.6-15q-0.2 0-0.3 0c-0.9-0.3-1.7-0.5-2.1-1.1-0.3-0.4-0.4-1-0.5-1.6-0.1-0.5-0.2-1.1-0.4-1.6 1 0.2 1.9 0.4 2.9 0.7 0.2 1.1 0.3 2.4 0.4 3.6z"/><path class="a" d="m149.2 208.9c-1.1-0.1-2.2 0-3.2 0.5l0.9 1.6c0.6-0.4 1.4-0.4 2.2-0.4q0.1 0 0.1 0c1.1 0 2.3 0 3.1-0.8q0.8-0.9 0.6-2.6-0.2-1.6-1.3-2.3c-1.4-0.9-3.3-0.2-5.1 0.5-0.7 0.2-1.4 0.5-2 0.6l0.3 1.8c0.7-0.2 1.5-0.5 2.3-0.8 1.3-0.4 2.9-1 3.6-0.6q0.3 0.2 0.4 1c0.1 0.6 0 1-0.1 1.2-0.3 0.3-1.1 0.2-1.8 0.3z"/><path class="a" d="m161.8 262.7l-0.1-1.8c-2.5 0.2-4.4 2.4-5.7 3.9l1.4 1.1c1.1-1.3 2.7-3.1 4.4-3.2z"/><path class="a" d="m165.1 245.4c-1.2 0.7-2.3 1.4-3.6 2 0.5 0.4 1.2 0.6 1.7 1 0.9 0.7 1.5 1.7 2.1 2.6 1.2 1.7 2.1 3.6 2.9 5.5 1.3 3.3 1.6 6.2 1.9 9.7 1.5-1.6 3-3 4.1-4.4 0 0.5-0.1 1.1-0.3 1.8-0.3 0.7-0.5 1.4-0.5 2.2 0 1.1 0.1 2.6 0.4 4q-0.2 0.1-0.3 0.1c-3.7 2.2-3.6 5.8-3.6 8.6v0.8c0 2.9 0.6 5.1 2 6.9 1.1 1.5 3.8 2.8 6 2.8 2 0 3.6-1.2 4-3 0.4-1.3 0.3-2.7 0.3-4.1 0-0.7 0-1.4 0.1-2v-0.6c0.2-2.3 0.5-5.4-0.5-7.6-0.9-1.7-2.6-2.7-4.7-2.7q-0.8 0-1.6 0.2c-0.2-1.1-0.3-2.4-0.3-3.4 0-0.5 0.2-1.1 0.4-1.7 0.2-0.9 0.5-1.9 0.3-2.9l-1.5 0.3c1.3-1.9 1.9-4.1 0.9-7.1-0.7-2.3-2.3-5.8-4.2-8.2 1-2.3 2.4-5.5 2.8-8.4q0.1-0.8 0.2-1.5c0.2-2.4 0.4-3.8 2.2-5.5 1.8-1.7 4.9-3.1 6.4-2.4 0.6 0.2 0.9 0.9 1 1.9-1 0.2-1.9 0.6-2.7 1.4-2.8 2.8-3 8.5-3 9.7h1.8c0-2.8 0.6-6.7 2.4-8.4q1-1 2.4-1v-0.1q1.8 0.3 2.6 1.4c0.6 0.8 0.7 2.2 0.4 3.9-3.3 1.6-4.9 7-5.2 8.1l1.7 0.5c0.5-1.9 1.8-5 3.5-6.4l1.1-0.5c0.8-0.3 1.7-0.6 2.2-0.1 0.6 0.6 0.7 2 0.2 3.2-0.3 0.8-1.4 2.2-2.2 2.9-0.5 0.4-1.2 0.7-1.8 0.9-0.8 0.2-1.5 0.5-2.2 1-1.4 1.2-1.4 3.1-1.3 4.8 0.1 1.4 0.1 2.7-0.6 3.4-0.8 0.8-5.2 1.3-7 1.1l-0.2 1.8q0.4 0 1 0c2.1 0 6.2-0.4 7.5-1.7 1.2-1.2 1.2-3.1 1.1-4.7-0.1-1.6-0.1-2.7 0.7-3.3 0.4-0.3 0.9-0.5 1.5-0.7 0.8-0.3 1.7-0.6 2.4-1.3 0.9-0.7 2.3-2.3 2.8-3.5 0.3-0.8 0.4-1.8 0.4-2.7l0.1-0.1q0.3-0.3 2.1-0.5l1.8-0.3-0.8-1.2c-0.4-0.7-1.1-1.1-1.9-1.2-0.9-0.1-1.9 0.1-2.7 0.6-0.5-0.4-1.2-0.7-2.3-0.5q0.2-1.7-0.2-3c0.6-0.3 1.4-0.3 2.1-0.4l2.3-0.2-1.4-1.3c-0.8-0.9-2.7-1.4-4.1-1.2q-0.5 0-1 0.2-0.7-0.4-1.7-0.6-0.1-1-0.3-1.7l0.2 0.2c0.3-0.5 0.7-1 1.1-1.4 0.3-0.4 0.7-0.8 1-1.2l0.7-1.2-1.7-0.1c-1.3-0.1-3.9-0.3-4.7 1.5-2.4 0-5.2 1.6-6.7 3.1-2.3 2.2-2.5 4.1-2.8 6.6q-0.1 0.7-0.2 1.5c-0.3 2.3-1.4 5-2.3 7.1q-0.6-0.6-1.3-1c-0.4-0.2-3 1.5-3.4 1.7zm13.5 27.8c0.6 1.4 0.4 4 0.2 5.8l-0.1 0.6c0 0.7 0 1.5 0 2.3 0 1.2 0 2.4-0.2 3.2 0 0.2-0.1 0.3-0.6 0.3-1.3 0-2.8-0.9-3.2-1.3-0.9-1.2-1.3-2.7-1.3-4.8v-0.8c0-2.9 0.1-4.4 1.9-5.5 0.5-0.3 1.2-0.5 1.8-0.5q1.1 0 1.5 0.7zm5.7-45.9q-0.3-0.3-0.6-0.4 0.4-0.3 1.1-0.3-0.3 0.3-0.5 0.7z"/><path class="a" d="m163.8 271.2c0.8-1.2 1.7-2.3 2.5-3.4 0.8-0.9 1.6-1.9 2.4-3l-1.5-1c-0.7 1-1.5 2-2.2 2.9-0.9 1.1-1.9 2.3-2.7 3.5-0.8 1.2-1.4 2-2.6 2.7-2.3 1.4-4.9 2.4-6.9 2.7l-2.4 0.2 2 1.4c2.4 1.6 5 3.5 7.3 6 0.9 1 1.6 1.9 2.3 3q0.5 0.6 1 1.3 0.3 0.4 0.7 1.1c1.2 1.8 2.2 3.2 3.3 3.6l0.6-1.7c-0.7-0.2-1.8-2-2.4-2.9q-0.5-0.7-0.8-1.2-0.5-0.6-0.9-1.2c-0.8-1.1-1.5-2.2-2.5-3.2-1.9-2.1-3.9-3.7-5.9-5.1 1.8-0.5 3.8-1.4 5.5-2.5 1.5-0.9 2.3-1.9 3.2-3.2z"/><path class="a" d="m139.7 294.8c-1.9-1.5-3.7-3.2-5.3-4.9-1.4-1.3-2.7-2.6-4.2-3.9l-0.8-0.7-0.5 0.9c-1.4 2-4.2 4.2-6.6 6-0.9 0.7-1.8 1.4-2.5 2q-1.9 1.5-3.8 3c-1.4 1.1-2.9 2.3-4.3 3.5l1.2 1.3c1.3-1.2 2.8-2.3 4.2-3.4q1.9-1.5 3.8-3c0.7-0.6 1.6-1.3 2.5-2 2.2-1.7 4.7-3.6 6.3-5.6 1.2 1 2.3 2.1 3.4 3.2 1.7 1.7 3.5 3.4 5.5 5 1.6 1.3 3.2 2.7 4.9 4.2 3.4 3 6.8 6.1 10.5 7.9l0.8-1.6c-3.5-1.7-6.8-4.7-10.1-7.6-1.6-1.5-3.3-3-5-4.3z"/><path class="a" d="m159.6 312.4c1.1-2.4 2.3-4.4 3.8-6.6 2.8-4 7.5-7.2 9.8-11.3-1.1-1.4-3.1-3.9-5-4l-0.5 0.4c0.2 1.8-2.3 3.8-3 5.3-1 1.9-1.8 3.9-3.3 5.6-1.6 1.8-6.9 7.2-5.6 9.9 0.1 0.2 0.7 0.9 1.2 1.5-0.4 2.2-0.6 4.2-0.8 6.2q-0.5-0.2-1-0.2c-3.8 0-7.3 4-8.1 6.8-1.1 3.8 0.4 7.5 4 10.2q0.6 0.5 0.9 0.8c0.6 0.5 1.2 1 1.9 1.2q-0.2 1.2-0.4 2.4c-3.3 0.6-8 4.5-7.7 8.5l3.5-0.2c-0.1-1.8 3-4.5 4.9-4.8 1.4-0.2 1.9 0.2 2.1 0.4 0.6 0.5 1.1 1.6 1.2 3.3 0.5 4.9-1.3 7.2-7 9l1.1 3.4c4.9-1.6 10.3-4.4 9.5-12.7-0.3-2.8-1.1-4.7-2.6-5.8q-1.3-1.1-3.2-1.2 0.2-1 0.4-2.1 0-0.1 0-0.3 0.7-0.1 1.5-0.5c1.9-1 3.9-2.1 4.7-4.2 1.2-3.5-0.7-11.2-3.9-13.3 0.1-1.9 0.3-3.9 0.7-6 0.8 0 0.4-0.6 0.9-1.7zm-1.1 19.8c-0.3 0.9-2 1.8-2.9 2.2-0.4 0.2-0.7 0.3-0.8 0.3-0.1-0.1-0.3-0.3-0.5-0.4q-0.4-0.4-1.1-0.9c-1.7-1.3-3.6-3.5-2.7-6.4 0.5-1.8 2.9-4.2 4.7-4.2q0.4 0 0.8 0.2c1.6 0.9 3.3 7.1 2.5 9.2z"/><path class="a" d="m61.1 336.3h-0.6l-0.2 0.5q-1 1.8-0.3 2.9c0.2 0.4 0.7 1 1.9 1 1.6 0 3.5-1 4.4-2.2 2-2.6 2.3-7 2.5-10.5l0.1-1.2q0.1-1.1 0.2-2.2c0.2-4.1 0.5-8.3 2.3-11.6q1.5-2.6 3.7-5.2c0.3-0.3 0.8-0.7 1.3-1.2 1.2-1 2.4-2.1 2.8-3.2 0.1-0.3 0.4-1.3-0.1-2-0.2-0.2-0.6-0.6-1.3-0.6-2.2 0-6.7 3.6-6.7 3.6-3.1 2.6-5.7 6-7.4 9.6-1.6 3.5-1.5 7.7-1.5 11.8 0 3.6 0 7.3-1.1 10.5zm0.5 1.8q0.3-0.1 0.6-0.3l0.3-0.1 0.1-0.3c1.4-3.6 1.4-7.7 1.4-11.6-0.1-4.1-0.1-7.9 1.3-11 1.6-3.4 4-6.6 6.9-9 1-0.9 4-2.9 5.4-3.2q-0.1 0.1-0.1 0.3c-0.2 0.6-1.4 1.6-2.2 2.4-0.6 0.5-1.2 0.9-1.5 1.4-1.6 1.8-2.9 3.6-3.9 5.5-2 3.6-2.3 8-2.6 12.3q-0.1 1.1-0.1 2.2l-0.1 1.2c-0.3 3.2-0.6 7.3-2.2 9.6-0.6 0.7-2 1.4-3 1.4-0.3 0-0.4-0.1-0.4-0.1 0 0-0.1-0.2 0.1-0.7z"/><path class="a" d="m107.4 350.2c0.4-3.9-1.9-8.5-5.8-11.6-3.2-2.6-6.9-3.5-10-2.4l0.6 1.7c2.5-0.9 5.5-0.1 8.3 2.1 3.4 2.7 5.5 6.7 5.1 10z"/><path class="a" d="m118.1 375.3c-3.4-4.4-5.5-8.4-7.2-13.7l-1.7 0.5c1.8 5.6 3.9 9.7 7.5 14.3z"/><path class="a" d="m73.2 193.7c-0.3 0.7-0.6 1.4-0.9 2.2l1.8 0.5c0.1-0.7 0.4-1.3 0.7-2 0.4-1 0.9-2 1.1-3.3 0.1-1.3 0.1-2.8 0.1-4.1v-1h-1.8v1c0.1 1.4 0.1 2.6-0.1 3.9-0.1 1-0.5 1.9-0.9 2.8z"/><path class="a" d="m147.7 373.9q-0.2-0.3-0.3-0.6l-0.1-0.3-0.2-0.2q-0.2-0.1-0.5-0.3c-0.7-0.6-1.6-1.3-2.5-1.5-0.4-0.4-0.9-0.7-1.5-1-0.8-0.3-1.5-0.4-2.2-0.4 0.2-0.4 0.3-0.8 0.3-1.2l0.1-0.1 0.1 0.1c0.5-0.6 1.5-0.6 2.6-0.6q0.4 0 0.7 0l1.2-0.1-0.4-1.1c-0.3-1.3-1.9-1.8-2.8-1.9-1.1-0.2-2.1 0-3 0.6-0.8-0.4-1.7-0.5-2.2-0.6-2.9-0.4-4.4 1.1-6 2.7l-0.1 0.1c-1.9 1.9-2.7 2.6-5.3 2.6q0 0 0 0h-0.9c-2.3 0-3.2 0-4.1-1.8-1.8-3.5-1.9-8.5-2-12.9q-0.1-1.4-0.1-2.6c-0.1-1.7 0-3.4 0-5 0.1-5.6 0.1-10.8-3.1-16-1.4-2.2-3.2-4.2-5-6q-0.9-1-1.8-1.9-0.4-0.5-0.9-1c-1.6-1.9-3.5-4.1-6.1-4.5l-0.3 1.8c2 0.3 3.6 2.1 5.1 3.8q0.4 0.6 0.9 1 0.9 1 1.8 2c1.7 1.8 3.5 3.6 4.8 5.8 3 4.7 2.9 9.7 2.8 14.9 0 1.7 0 3.4 0 5.2q0.1 1.2 0.1 2.5c0.1 4.6 0.2 9.9 2.2 13.7 1.3 2.5 3 2.7 5.1 2.7q0.3 0 0.6 0h0.9q0 0 0 0c3.2 0 4.4-0.9 6.5-3l0.2-0.2c1.5-1.4 2.4-2.4 4.5-2.1 1.9 0.3 2.2 0.8 2.3 1.1l-0.1 0.5c-0.1 0.3-0.1 0.5-0.2 0.6-0.3 0.6-0.8 1-1.4 1.2v0.2q-0.2 0-0.4 0.1c-1 0.3-2 0.5-3 0.5v1.8c1.2 0 2.4-0.3 3.5-0.6 1.5-0.4 3-0.8 4.4-0.3 1.5 0.7 1.6 1.7 1.4 3.8-0.2 0.1-0.6 0.2-1.3 0.3q-1 0.3-2 0.4l-0.9 0.1c-1 0.1-1.9 0.3-2.8 0.3q0 0 0 0c-0.1 0-0.3-0.1-0.4-0.1q-0.2-1.2-1.1-2c-1.8-1.9-5.6-2.1-11.6-0.6l0.4 1.8c6.6-1.7 9.1-0.9 10 0q1.1 1.1 0.4 3.5-0.1 0.5-0.1 0.8-0.2 0.1-0.5 0.2c-0.9 0.4-2.6 0.4-4.1 0.3-1.1 0-2.3-0.1-3.1 0.1h-0.3c-1.9 0.3-4.1 0.7-5.9 1.8-1.9-4.2-5.5-6.7-9.1-9.2-4.5-3-8.7-6-9-11.8-0.1-1.3-0.1-2.7 0-4.1 0.2-4 0.3-8.1-3-11.3-1.7-1.7-3.8-2.5-5.8-3-0.9-0.3-1.8-0.6-2.7-0.9-1.7-0.7-3.6-1.4-5.4-1.6 3.1-3.2 4.7-8.1 5.6-11.5 0.5-1.8 0.8-3.5 1.1-5.3q0.1-0.6 0.2-1.3c3.2-5.4 9-9.6 17.4-12.4q1.2-0.4 2.5-0.8c3.3-1.1 6.7-2.2 9.7-4 1-0.7 2.1-1.4 3.2-2.2 2.7-1.7 5.4-3.6 8.1-4.5l-0.6-1.7c-2.9 1-5.7 2.9-8.5 4.8-1 0.7-2.1 1.4-3.1 2.1-2.8 1.7-6.1 2.8-9.3 3.8q-1.3 0.4-2.6 0.8-10.3 3.5-15.7 9.6c0.9-2.5 2.3-4.4 4.1-6.7l0.2-0.3c1.7-2.1 3.3-3.5 5.5-5.4 0.7-0.6 1.4-1.4 2.1-2.3 1.2-1.4 2.4-2.9 3.7-3.4l-0.6-1.7c-1.8 0.7-3.2 2.4-4.5 4-0.6 0.8-1.3 1.6-2 2.2-2.1 1.8-3.8 3.2-5.6 5.5l-0.2 0.3c-2.1 2.6-3.9 4.9-4.8 8.3q-0.4 1.7-0.7 3.4-1.8 3.1-2.5 6.7l1.1 0.2c-0.9 3.5-2.5 8.3-5.6 11.1l-1.1 1.1c-2.3 2.1-4.6 4.3-7 6q-0.8 0.5-1.6 1c-0.8 0.6-1.7 1.2-2.6 1.9q-0.8 0.7-1.7 1.4c-3.9 2.9-8.2 6.2-7.3 12.2q0.2 1 0.3 2.2c0.3 2.5 0.7 5.4 1.7 7.5l0.2 0.5 1.6 0.1c2.1 0.2 4.7 0.4 6.7 0 1.5-0.3 2.5-1.3 3.3-2.2 0.7-0.8 1.3-1.4 2.1-1.6 1-0.3 2.3-0.1 3.5 0.4q0 0 0 0.1h0.2c1.1 0.5 2 1.1 2.2 1.7 0.1 0.5-0.6 0.9-1.2 1.2-2.1-0.4-4.4 0.4-6.3 1l-0.4 0.2q-1 0.3-1.9 0.6-1 0.3-2 0.6l-0.6 0.2c-0.6 0.3-1.6 0.7-2.2 0.6l-0.1 1.8q0.1 0 0.2 0c0.9 0 1.9-0.4 2.8-0.7l0.4-0.2q1-0.3 2-0.6 1-0.3 1.9-0.6l0.5-0.2c1.6-0.6 3.4-1.2 5-1q1.4 1.6 0.8 2.9c-0.6 1.5-3.1 2.6-5.1 2.7q-0.4-0.1-0.7-0.3c-0.3-0.2-0.7-0.4-1.1-0.5l-0.6-0.2c-0.6-0.2-1.3-0.4-2-0.4-1.2-0.1-2.5-0.1-4 0h-0.4q-0.6 0-1.2 0c-0.6 0.1-1.2 0.4-1.7 0.6-0.4 0.2-0.7 0.3-1 0.4l0.4 1.8c0.5-0.2 0.9-0.4 1.3-0.6 0.5-0.2 0.9-0.3 1.3-0.4q0.4 0 0.9 0l0.5-0.1c1.4 0 2.7 0 3.8 0 0.5 0.1 1 0.2 1.6 0.4l0.6 0.2c0.2 0 0.5 0.2 0.8 0.3q0.3 0.2 0.6 0.3c0.5 1.2 0.6 2 0.2 2.6-0.9 1.4-4.4 1.4-6.3 1.4q-2.9 0-5.7 0.1c-2.5 0.1-5.2 0.2-7.7 0.1-0.1-0.6 0-1.1 0-1.6 0.1-1.7 0.2-3.3-2.2-5.3-1.1-0.9-2.6-1.4-4.1-2-1.7-0.6-3.4-1.2-4-2.4-0.6-1-0.4-1.3-0.4-1.3 0.1-0.3 1.3-0.4 1.9-0.5 1-0.1 2-0.2 2.9-0.6 1-0.7 2-1.4 1.8-2.5-0.3-1.3-2.2-1.4-4.6-1.7-0.7 0-1.4-0.1-1.9-0.2q-0.1-0.2-0.2-0.4c-0.3-0.8-0.9-2.2-0.5-2.8 0.5-0.7 1.6-0.7 3.2-0.5 1.1 0.1 2.2 0.2 3.1-0.2 1.4-0.6 1.7-1.5 1.7-2 0-1-0.7-2-1.8-2.6-1-0.5-2.2-0.4-3.2-0.4-1.4 0.1-2.1 0.1-2.4-0.5-0.6-1-0.3-4 0.2-6.3 0.5-2.4 1-2.8 3.3-3 0.8-0.1 1.5-0.1 2.3 0 1.4 0.1 2.9 0.2 4.3-0.4 1.6-0.5 2.1-1.9 2.2-3.4h0.4c0-0.1-0.2-1.1-0.4-2.8q-0.1-0.3-0.1-0.7h-0.1c-0.6-3.7-1.4-9.6-1.4-12.9v-18.2l-0.3-0.2c-0.2-0.2-14.5-12.1-14.5-30.4 0-10.1 9.3-23.6 17.5-35.6 7.3-10.6 13.5-19.7 13.5-25.9 0-12.9-1.7-15.6-1.9-15.9l-0.1-0.1c-0.1-0.1-4.8-4.2-4.8-9.7 0-2.9 2.5-7.9 4.7-11.9 0 0.8-0.2 1.6-0.3 2.4l-0.2 0.4c-0.1 0.8-0.2 1.5-0.3 2.2-0.1 1.2-0.2 2.4-0.8 3.4l1.6 0.8c0.7-1.3 0.9-2.7 1-4.1 0.1-0.6 0.1-1.2 0.3-1.9l0.1-0.4c0.2-1 0.4-2 0.4-3.2h-1.6c1.1-1.8 2.1-3.4 2.8-4.5 0.4 1.7 1 4.1 1.2 5.7 0.1 1.1 0.8 2.4 1.6 4.1 1.4 2.8 3.1 6.3 3.1 10.3 0 5.6-6.6 6.7-6.9 6.8l-1.3 0.2 0.7 1.1c0 0.1 2.8 4.4 2.8 13.4 0 8.7-3.9 15.7-9.2 25.3l-1 1.8c-1.3 2.4-2.8 4.7-4.4 7.1-5.4 8.3-11.4 17.7-11.4 31.5 0 17.7 11.8 25 12.3 25.3l0.6 0.3 0.4-0.5q1.3-1.3 2.5-2.5c3.9-4 7.6-7.8 12.4-11.1 4.6-3.2 9.5-6.7 13.9-10.6 3.6-3.1 6.1-7.7 6.7-12.4 0.3-2.2 0-4.6-0.2-6.9-0.1-1.9-0.3-3.7-0.2-5.5q0.4 0.9 0.8 1.5c1.6 2.7 3.1 4.7 4.6 6.1q3.4 3.3 5.6 3.3 0.4 0 0.7-0.1l0.5-0.2q0 0.1 0 0.1c0.8 1.3 1.7 2.7 2.7 4.2 0.2 0.2 0.4 0.7 0.6 1.1 0.8 1.5 1.6 3.1 3 3.4l1 0.2 0.1-1q0.1-1.8 0.1-3.6c1 0.3 1.9 0.8 2.9 1.4 1.2 0.7 2.4 1.3 3.8 1.8 2.1 0.6 4.4 0.9 6.6 1.1q1.3 0.2 2.7 0.4 0.7 0.1 1.6 0.3c1.8 0.4 3.9 0.8 5.8 0.8 1.6 0 3-0.3 4-1.1q1.4-1.1 1.4-3.2v-0.7l-0.7-0.2c-1-0.1-1.8-0.1-2.5-0.2-0.9 0-1.7-0.1-2.7-0.3 0.6-0.4 1.3-1.1 1.4-1.6 0-0.9-0.7-1.5-1.2-1.9q-0.3-0.1-0.4-0.2c-1.7-2-2.5-5.6-3.1-8-0.7-3-1.4-6-1.4-9.1 0-2.8-0.4-5-1.4-6.9q-0.6-1.3-1.3-2.5-0.4-0.9-0.8-1.7 0.6 0.6 1.3 1.3c1.1 1 2.2 1.7 3.4 2.5q0.7 0.5 1.5 1c0.5 0.3 0.8 0.6 1.2 1 0.4 0.3 0.7 0.7 1.2 1q0.5 0.3 1 0.6c0.4 0.2 0.7 0.4 0.9 0.6 1.4 1.1 2 2.7 2.3 4.2 0.7 2.5 0.6 5.2 0.5 7.8 0 2.3-0.1 4.6 0.3 6.8 0.3 1.7 1 4.7 3.1 5.4q0.5 0.1 0.9 0.1 1.6 0 3.4-1.8l1.5-1.5h-2.2q-1.2 0-1.8-0.6-0.8-0.7-0.8-2.7 0-2.6 0.1-5.3 0-2.9 0.1-5.9-0.1-1-0.1-2c2.7-0.4 6.5-2.8 7.3-5.3l-1.7-0.5c-0.5 1.6-3.5 3.6-5.6 4q0-2.5-0.2-5c-0.2-2.6-1.4-4.3-2.7-6.2l-0.5-0.7c-1.6-2.2-3-3.9-4.5-5.3q-1.2-1.2-2.5-2.3-1.3-1.1-2.5-2.3l-0.4-0.4c-1.1-1-3.8-3.6-3.3-5 0.3-0.6 1.3-1.2 2.2-1.6 0.8-0.4 1.6-0.9 2.2-1.4 2.1-2.2 2-5.2 1.9-8q0-0.8 0-1.6h-1.8q0 0.8 0.1 1.7c0.1 2.6 0.1 5-1.5 6.6-0.3 0.4-1 0.8-1.7 1.1-1.2 0.6-2.6 1.3-3 2.6-1 2.5 2.1 5.4 3.7 6.9l0.3 0.3q1.3 1.3 2.7 2.4 1.2 1.1 2.4 2.2c1.4 1.4 2.7 3 4.2 5.1l0.5 0.7c1.3 1.9 2.2 3.2 2.4 5.4 0.3 2.8 0.3 5.7 0.3 8.6q0 3-0.1 5.9-0.1 2.6-0.1 5.3c0 1.8 0.4 3.2 1.3 4q0.4 0.4 1 0.7c-0.3 0.1-0.6 0.2-0.9 0.1-0.9-0.3-1.6-1.8-2-4-0.3-2.1-0.2-4.2-0.2-6.4 0.1-2.8 0.1-5.6-0.6-8.4-0.4-1.7-1.1-3.7-2.8-5.1-0.4-0.3-0.9-0.6-1.3-0.8-0.2-0.1-0.5-0.2-0.8-0.4q-0.5-0.4-1-0.9c-0.4-0.4-0.8-0.8-1.4-1.2q-0.8-0.5-1.6-1c-1.1-0.7-2.2-1.4-3.1-2.3q-2.6-2.4-4.2-4.7-0.1-0.2-0.1-0.4h-0.2q-1.2-1.7-1.8-3.3c-0.4-1.1-0.7-2.3-1-3.8-0.1-1.3-0.2-2.6-0.3-3.9-0.1-1.5-0.2-2.9-0.4-4.4l-1.8 0.3c0.2 1.3 0.3 2.8 0.4 4.2 0.1 1.3 0.2 2.7 0.4 4 0.2 1.7 0.5 3 1 4.2q0.8 1.9 2.1 3.8c0.6 2.5 1.6 4.5 2.7 6.5q0.6 1.2 1.2 2.4c0.8 1.7 1.2 3.7 1.2 6.2 0.1 3.3 0.8 6.4 1.5 9.5 0.6 2.6 1.5 6.4 3.5 8.7q0.3 0.3 0.6 0.5 0.1 0.2 0.3 0.3c-0.3 0.3-0.9 0.7-1.1 0.8-1.5 0.7-3.1-0.2-4.2-1.1-1-0.9-1-1.8-1-3.7v-0.5c0-2.9-0.1-5.6-1-8.6q0.4-0.7 0.5-1.3c0.4-1.5 0.4-3.2 0.3-4.7 0-2-0.8-3.4-1.6-4.8q-0.3-0.6-0.6-1.2c-1.5-2.9-3.2-5.3-5.8-8.3-2.2-2.5-3.8-4.8-4.6-6.8-1.1-2.8-1-6.4-0.9-9.8q0.1-1.6 0.1-3h-1.8q0 1.4 0 2.9c-0.2 3.5-0.3 7.4 1 10.6 0.9 2.2 2.5 4.6 4.9 7.3 2.5 2.8 4.1 5.1 5.5 7.9q0.3 0.7 0.7 1.3c0.7 1.3 1.3 2.4 1.4 4 0 1.3 0.1 2.8-0.3 4.1-0.7 2.5-3.4 4.9-5.7 6.8q0-0.5 0-1.1c-0.1-3.7-0.2-7.3-2.9-10.5-1.1-1.3-2.3-2-3.5-2.7-0.9-0.5-1.8-1-2.5-1.7-2.3-2-3.2-3.8-3.2-6.4h-0.3c1.6-2.3 1.7-5.7 1.7-8.5 0-0.8 0.1-1.6 0.1-2.3q0.1-2.1 0.2-4.2c0.1-2.6 0.2-5.4 0.7-8q0.1-0.6 0.2-1.1c0.4-1.8 0.6-2.8 1.9-4.1l-1.2-1.3c-1.8 1.7-2 3.2-2.4 5.1q-0.1 0.5-0.2 1c-0.6 2.8-0.7 5.6-0.8 8.4q0 2-0.2 4c0 0.8 0 1.6 0 2.5-0.1 2.9-0.1 6.3-1.9 8-1.3 1.4-4.7 2.4-7.2 2.5 0.2-0.2 0.4-0.6 0.6-1 0.4-1.1 0.5-2.3 0.5-3.4l0.1-0.4c0.2-3.3-0.3-6.7-0.8-9.9q-0.3-2-0.6-4c-0.4-3.7-0.1-6.5 0.8-8.7 1.1-2.5 2.9-5 4.6-7.3 1.5-2.2 3.9-4.5 5.7-4.7l-0.2-1.8c-3.2 0.4-6.4 4.6-7 5.4-1.7 2.4-3.5 5-4.7 7.7-0.8 1.8-1.1 3.8-1.1 6.3q-0.1-0.3-0.1-0.7c-0.1-0.4-0.2-0.9-0.3-1.6-0.2-1.4-0.4-2.8-0.7-3.9 0.7-0.3 1.3-0.7 1.5-0.9 1.8-1.4 2.8-3.5 3.9-5.5 0.6-1.2 1.2-2.4 1.9-3.3 2.3-3.3 3.8-4.4 4.6-4.8q0 0.4 0 0.9h1.8q0 0 0-0.1 0 0.1 0 0.1l1.7-0.7c-0.5-1.1-1.1-1.7-1.7-2q0-0.4 0-0.8c0-2.4-0.1-4.8 0-7.1v-0.3c0.1-2.1 0.3-4.1 1.4-4.1q0 0 0 0c1.1 0.1 2.2 0.8 3.2 1.8q-0.1 0-0.1 0c-0.4 0-1 0.1-1.5 0.9-0.8 1.3-0.6 2.8-0.5 4 0.1 0.2 0 0.6 0 1 0 0.7-0.1 1.5 0.2 2 0.2 0.7 0.9 1.4 2.5 1.4 1.3 0 2.8-0.4 3.4-0.6l0.3-0.1c0.5-0.2 1-0.3 1.2-0.8 0.2-0.6 0-1.1-0.3-1.6-0.3-0.6-0.7-1.2-1.1-1.7 0.8 0.9 1.4 1.9 2 2.8l1.5-0.8c-1.1-2-2.6-4-4.2-5.5q-0.4-0.4-0.8-0.9c-1.5-1.6-3.4-3.6-5.8-3.6-1.6 0-2.4 1-2.7 2.3-6.5 1.5-12.2 8.8-13.8 14.9-0.5 1.8-0.7 3.7-0.8 5.4-0.1 1.7-0.2 3.4-0.6 4.9-1.9 0.4-3.9 2.9-4 3.1-1.9 2.5-2.4 6.3-2.4 9-0.1 3.3 0 6.7 0.1 10 0.1 2.6 0.2 5.3 0.2 8v1.1q0 2.3 0 4.6c0 1.5-0.5 2.7-1.1 4.1l-0.5 1.3 1.2 0.1q0.5 0.1 1.1 0.1 1.9 0 3.7-0.7 0.1 0.8 0.2 1.5c-0.9 2.9-0.6 6.2-0.3 9.4 0.2 2.4 0.4 4.6 0.1 6.6-0.5 4.2-2.8 8.5-6 11.3-4.4 3.8-9.2 7.2-13.8 10.4-5 3.5-8.7 7.3-12.7 11.4q-0.9 0.9-1.9 1.9c-2.3-1.6-10.8-8.8-10.8-23.3 0-13.3 5.6-22 11.1-30.5 1.6-2.5 3.1-4.8 4.4-7.2l1-1.8c5.5-9.9 9.5-17 9.5-26.2 0-7-1.6-11.3-2.5-13.2 3-0.9 7.2-3.3 7.2-8.3 0-4.4-1.9-8.3-3.3-11.1-0.7-1.4-1.3-2.7-1.4-3.5-0.3-2.7-1.8-7.7-1.8-7.9l-0.6-1.8-1 1.6c-0.4 0.5-9 13.3-9 19.4 0 5.8 4.4 10.2 5.2 10.9 0.2 0.5 1.6 3.5 1.6 14.8 0 5.6-6.4 15-13.2 24.9-8.4 12.2-17.9 26-17.9 36.6 0 17.8 12.6 29.5 14.8 31.5v17.3c0 3.7 1 10.2 1.6 13.9q0 0.1 0 0.3c0.1 2 0.1 3.6-1 4-1.1 0.4-2.3 0.3-3.6 0.2-0.8 0-1.7-0.1-2.5 0-3.2 0.3-4.3 1.3-5 4.5-0.2 1.2-1 5.6 0 7.5 0.9 1.6 2.7 1.5 4.1 1.4 0.8 0 1.7-0.1 2.2 0.2 0.7 0.3 0.9 0.7 0.9 0.9 0 0.1-0.2 0.3-0.6 0.5-0.5 0.2-1.4 0.1-2.3 0-1.6-0.1-3.7-0.3-4.8 1.4-0.9 1.3-0.1 3.2 0.4 4.4q0.2 0.4 0.3 0.7l0.1 0.4 0.4 0.2c0.5 0.2 1.3 0.3 2.7 0.4 0.8 0.1 2 0.2 2.7 0.4q-0.2 0.2-0.7 0.4c-0.4 0.3-1.3 0.4-2.1 0.5-1.3 0.1-2.7 0.2-3.3 1.3-0.5 1 0 2.2 0.4 3.1 0.9 1.7 3 2.5 5 3.2 1.4 0.5 2.7 1 3.6 1.7 1.7 1.4 1.6 2.2 1.5 3.8 0 0.8-0.1 1.6 0 2.7l0.1 0.7 0.8 0.1q1.5 0 3 0c1.9 0 3.8 0 5.7-0.1 1.8 0 3.7-0.1 5.6-0.1 2.4 0 4.9-0.1 6.6-1.1l0.3 0.1c0.9 0.2 1.9 0.4 2.5 1l1.3 1.2 0.2-1.8c0.1-0.8-0.2-1.6-0.7-2.4-0.2-0.3-1-1.2-1.9-1.5q-0.1-0.6-0.3-1.1c1.8-0.3 3.6-1.1 4.8-2.3 0.9-0.1 1.8 0.1 2.8 0.2 0.8 0.2 1.7 0.3 2.5 0.4h1.3l-0.4-1.2c-0.8-2.3-3.3-3.2-5.2-3.8q-0.2-0.4-0.5-0.9c1.6-0.9 1.7-2.1 1.6-2.8q0.5-0.1 1-0.2c0.9-0.1 1.9-0.3 2.7-0.6l1.5-0.7-1.4-0.9c-0.8-0.5-5.1-1.8-7-0.7-1.6-0.8-3.5-1-4.9-0.6-1.3 0.3-2.1 1.2-2.9 2-0.8 0.8-1.4 1.5-2.4 1.7-1.7 0.4-4.2 0.2-6.2 0.1l-0.5-0.1c-0.8-1.8-1.1-4.3-1.4-6.6q-0.1-1.1-0.2-2.1c-0.8-5 2.8-7.7 6.5-10.6q1-0.7 1.9-1.5c0.7-0.6 1.5-1.1 2.4-1.7q0.8-0.5 1.6-1.1c2.5-1.8 4.9-4 7.2-6.1l0.2-0.3v0.3c1.9-0.1 4.2 0.8 6.3 1.5 1 0.4 1.9 0.7 2.8 1 1.8 0.5 3.6 1.1 5.1 2.6 2.7 2.6 2.6 6.2 2.4 9.9 0 1.4-0.1 2.9 0 4.3 0.4 6.7 5.2 10 9.8 13.2 3.8 2.6 7.4 5.1 8.9 9.3l0.4 1.2 1-0.8c1.6-1.3 3.9-1.7 6-2l0.2-0.1c0.8-0.1 1.8-0.1 2.9 0 1.8 0 3.6 0.1 4.8-0.5q0.4-0.1 0.6-0.2 0.2-0.1 0.4-0.2c0.6 0.3 1.3 0.8 2 1.2q0.3 0.3 0.7 0.6l1.5 1-0.1-1.8c-0.2-2.1-1.5-3.2-2.8-4.1 1 0 2-0.1 2.9-0.2l0.9-0.2c0.7-0.1 1.5-0.2 2.3-0.4 1.8-0.4 2.5-0.5 2.6-1.3v-0.5q0-0.1 0-0.3c0.6 0.2 1.2 0.6 1.7 0.9l1.7 1-0.3-1.9c-0.1-0.6-0.3-1-0.5-1.4zm-25-177.1c-0.6 0.1-1.9 0.6-2.9 0.6-0.2 0-0.8-0.1-0.9-0.3-0.1-0.2 0-1 0-1.4 0-0.4 0-0.9 0-1.2-0.1-1-0.3-2.1 0.2-2.8q0.1-0.1 0.1-0.1 0.5 0.2 1.8 2.4 0.2 0.3 0.4 0.5l0.4 0.6c0.3 0.5 0.7 1.1 1 1.6zm-4.4 55.5c1.1 0.6 2.2 1.2 3 2.2 2.3 2.8 2.4 6 2.5 9.6q0.1 1.4 0.1 2.8l0.2 1.7 1.8-1.5c1.7-1.3 3.8-3 5.4-5 0.4 2.2 0.4 4.3 0.5 6.6l-0.1 0.5c0 1.8 0 3.6 1.7 5 1.5 1.2 2.9 1.8 4.2 1.8q0.7 0 1.3-0.2l-0.2 0.5c1.8 0.6 3 0.7 4.3 0.8q0.7 0 1.5 0.1-0.2 0.6-0.7 1c-1.6 1.3-5.6 0.5-8.3 0q-1-0.2-1.7-0.4-1.4-0.2-2.8-0.3c-2.1-0.3-4.3-0.6-6.2-1.2-1.3-0.3-2.4-1-3.5-1.6-1.1-0.6-2.2-1.2-3.3-1.6l-0.4 1.3c0-4.1-0.2-8.3-0.8-12.2q-0.2-1.2-0.5-2.6c-0.5-3-1.1-6.3-0.4-8.9 0.8 0.6 1.6 1.1 2.4 1.6zm-6.4-8.2c0.2 1.9 1 3.6 2.5 5.3-1.2 3.1-0.5 7 0.2 10.5q0.3 1.4 0.5 2.6c0.6 4.5 0.9 9.3 0.6 14-0.3-0.5-0.6-1.1-0.8-1.4-0.3-0.6-0.5-1.1-0.7-1.4-1-1.4-1.9-2.7-2.6-4-0.4-0.6-0.8-1.2-1.3-1.8-0.6-0.9-1.3-1.8-1.6-2.7q-0.3-0.8-0.5-1.7c-0.3-1.1-0.4-2.3-0.4-3.5q-0.1-0.9-0.2-1.9c-0.1-1.1-0.3-2.1-0.6-3.1-0.2-1-0.5-2-0.6-2.9-0.2-2-0.2-4-0.2-5.9 2-0.3 4.2-1.1 5.7-2.1zm-10.7-40.1c1.4-5.3 6.4-11.7 11.7-13.4 0 0.6 0 1.1 0 1.5v0.3c-0.1 2.4-0.1 4.8-0.1 7.1q0 0.4 0.1 0.8c-2.2 0.5-4.5 3.4-6.2 5.6-0.7 1.1-1.4 2.3-2 3.5-0.9 1.9-1.9 3.8-3.4 5q-0.5 0.4-0.9 0.6-0.2-0.4-0.5-0.7 0 0-0.1 0c0.4-1.7 0.6-3.5 0.7-5.2 0.1-1.7 0.3-3.4 0.7-5.1zm-7.4 41v-1c0-2.7-0.1-5.4-0.2-8.1-0.1-3.2-0.2-6.6-0.1-9.9 0-2 0.3-5.7 2.1-8 0.7-0.9 1.6-1.7 2.3-2.1 0.1 0.4 0.3 0.8 0.6 0.9q0.3 0.3 0.7 0.3c0.3 1.2 0.6 2.7 0.7 3.7 0.1 0.7 0.2 1.3 0.2 1.7q0.3 1.2 0.5 2.5c0.1 1 0.3 2.1 0.5 3.2q0.2 0.7 0.5 1.4 0.1 0.3 0.3 0.6l-0.4 0.3c0.9 0.9 0.9 2.6 0.8 4.1v0.6q0 1.2 0 2.3c0.1 2.3 0.1 4.7-0.1 7-0.2 0.3-0.3 0.7-0.3 1.1v0.4c-0.4 2-1.5 3.9-3.2 5.2-0.6 0.5-1.3 0.9-1.9 1.3l-0.4-0.1q0 0.1 0 0.2c-1.1 0.5-2.2 0.8-3.4 0.8 0.4-1.1 0.8-2.3 0.8-3.8q0-2.3 0-4.6zm6.1 7.6c1.9-1.6 3.2-3.8 3.8-6.1q0.3 0 0.7 0c0 1.8 0.1 3.8 0.3 5.8 0.1 1.1 0.4 2.1 0.6 3.1 0.2 1 0.5 1.9 0.6 2.9q0.1 0.9 0.1 1.8c0 1.3 0.1 2.5 0.4 3.9q0.2 0.7 0.4 1.3v0.1q0.1 0.2 0.2 0.4 0.4 1.2 0.8 2.4 0.1 0.3 0.2 0.6c-0.8-0.3-2-1.1-3.6-2.6-1.4-1.3-2.8-3.2-4.3-5.7-1-1.7-1.9-4.5-2-6.7q0.9-0.5 1.8-1.2zm-21.4 132.7q0 0 0-0.1 0.1 0.1 0.3 0.2-0.2-0.1-0.3-0.1zm7.9-6.8q-1-0.2-2-0.3 0.1-0.3 0.2-0.7c0.7 0.3 1.4 0.6 2 1q-0.1 0-0.2 0zm-1.9-8.2q-0.1-0.1-0.1-0.2 0.2 0 0.6 0-0.3 0.1-0.5 0.2z"/><path class="a" d="m190.8 296.8c-0.4-0.8-0.9-1.6-1.4-2.1-2.6-2.4-7.3-0.9-9.7 0.6q-0.7 0.5-1.4 1c-1.5 1.1-3 2.2-4.6 2l-0.3 1.8c2.4 0.3 4.3-1.1 5.9-2.4q0.7-0.5 1.4-0.9c2-1.3 5.7-2.4 7.4-0.8 0.9 0.8 1.6 2.4 1.5 3.7-0.1 0.6-0.4 1.1-1 1.4-0.7 0.4-1.2 0.7-1.7 0.9-1.2-0.2-2.4 0-3.5 0.7l-2.3 1.7h2.8c1.4-0.1 2.2-0.2 3-0.5q0.2 0.1 0.3 0.2c0.9 0.5 1.6 1.7 1.3 3.5-0.3 1.6-2.1 3.5-3.8 4.8-1 0.7-1.8 0.8-3.1 0.8q-0.5 0-1.1 0.1h-1.3l0.5 1.2c0.4 1 0.7 3.5 0.4 4.5-0.2 0.7-0.9 1.3-1.8 1.6q0 0 0 0c-0.6 0.3-1.3 0.4-2 0.5q-4.2 0.1-6.7-0.7c-1.3-0.4-1.8-1.3-2.4-2.4q-0.4-0.6-0.9-1.3l-1.4 1q0.4 0.6 0.7 1.2c0.8 1.3 1.5 2.6 3.5 3.2q2.3 0.8 5.9 0.8 0.6 0 1.4-0.1c0.6 0 1.4-0.1 2.1-0.3 1.3 0.2 2.7 1.5 3.3 2.7l1.4 3 0.2-3.3c0.2-1.9-0.4-3.3-0.9-4.7q-0.3-0.7-0.5-1.5c0.1-1.1 0-2.6-0.3-3.7 1.4-0.1 2.7-0.1 4.1-1.2 0.7-0.5 1.8-1.5 2.8-2.7v0.1c0.7-0.1 2.5 0.6 3.8 1.4l1.1 0.7 0.2-1.3c0.4-2.1-1.5-4.8-3.4-5.8-0.1-1.2-0.6-2.3-1.5-3.1q0.3-0.2 0.8-0.5 0.9-0.6 1.4-1.5 0.1 0 0.2 0 0.8 0.1 1.6 0.1 0.8 0 1.6-0.2l1.1-0.3-0.5-1c-0.4-0.7-1.6-2.8-4.2-2.9zm-10.3 24.6q0.2-0.2 0.4-0.4 0.2 0.4 0.3 0.9-0.3-0.3-0.7-0.5zm11.2-11.1c-0.6-0.3-1.3-0.6-2-0.8q0.3-0.6 0.5-1.2c0.6 0.5 1.2 1.2 1.5 2zm-0.3-11q0 0 0 0 0-0.3-0.1-0.7 0.7 0.2 1.3 0.8-0.6 0-1.2-0.1z"/><path class="a" d="m157.1 300.5c-1.3-1.5-3.1-3-4.9-4.5-4.8-4.1-10.1-8.6-9.7-14.9l-1.8-0.2c-0.5 7.2 5.5 12.3 10.3 16.4 1.8 1.5 3.5 3 4.7 4.4z"/><path class="a" d="m358.5 247.9c-0.8 0-1.4 0.1-2.1 0.2l0.3-0.4v-0.2c0-2.2-1.1-4-2-5.5q-0.3-0.6-0.6-1.2c-1.5-2.7-4.6-5.6-8.9-5.6-4 0-6.6 1.9-8.3 3.2q-0.5 0.3-0.9 0.6c-1.7 1.1-40.3 28.6-41.9 29.8l0.3 0.4h-58.2c-3.9 0-9.4 4.9-9.4 8.4 0 3.2 2.6 9 6.3 9 2.9 0 6.3-3.7 7.4-4.9h64.6c0.7 0.1 1.6 0.2 2.3 0.2q0.4 0 0.6 0c0.1 0 0.3-0.1 0.4-0.2h1.9v-1.7q0.1-0.1 0.1-0.2c2.6 0.9 5.2 2.3 5.2 3.3 0 1.4-2.2 3.7-3.5 4.8l-0.4 0.3-1.9-4.3c0 0-10.5 14.5-15.5 21.1-5 6.5-15.6 16.8-15.6 16.8 0 0 16.1-5.6 26.6-10.9 10.4-5.4 20.4-15.7 20.4-15.7l-8.8-1.3 1.9-0.3 0.4-0.2c0.2-0.1 5.9-3.9 5.9-10.5 0-5.3-6.3-7.9-9.2-8.9 10.1-5 39.1-17.3 41.5-17.4 2.6 0 3.4 0.8 3.4 3.3 0 1.3-0.3 2.8-0.5 4.1-0.4 2.2-0.7 3.6 0 4.4 0.2 0.2 0.5 0.5 1.1 0.5 2.1 0 8.9-4 8.9-9.6 0-6.2-8.6-11.4-11.8-11.4zm-118.8 32.1l-0.3 0.3c-1.5 1.8-4.4 4.5-6.3 4.5-2.2 0-4.6-4.6-4.6-7.2 0-2.5 4.9-6.6 7.7-6.6h61.7v-1.8h-1.3c7.1-5.1 38.9-27.8 40.3-28.7q0.5-0.3 1-0.7c1.7-1.2 3.9-2.8 7.3-2.8 4.4 0 6.7 3.6 7.3 4.7q0.3 0.6 0.7 1.2c0.8 1.4 1.6 2.8 1.7 4.3l-0.9 1.8q-0.3 0.2-0.7 0.3c-0.9 0.5-1.9 1-3.3 1.5q-0.2 0-0.5 0.2c0.1-0.7 0.1-1.7-0.1-2.8q-0.1-0.6-0.1-1.1c-0.3-2.2-0.6-4.2-3.4-4.2-2.6 0-6.3 2.6-6.7 3l-0.8 0.5 4.8 5.6-11.8-1.9-30.9 20.7 1 1.5 30.3-20.4 11.3 1.8c-6.7 3-16.9 7.6-25.8 11.5-8.4 3.8-16.3 7.4-16.9 7.6-2.2 0.8-1.5 2.9-1.1 4.1q0.1 0.3 0.2 0.7c0.3 0.8 1.1 1.7 2 2.4h-61.8q0 0 0 0zm106.3-27.5l-5-5.8c1.3-0.8 3.5-2.1 4.9-2.1 1.1 0 1.3 0.3 1.6 2.7q0.1 0.6 0.2 1.2c0.3 1.9-0.1 3-0.2 3.3q-0.7 0.3-1.5 0.7zm-22.7 30.4c0 5.1-4.1 8.3-4.9 8.9l-3.8 0.6-1-3.5c1.2-1 3.8-3.6 3.8-5.8 0-2.4-3.9-4.1-6-4.8 0.6-1 1.1-1.9 1.3-2.5 0.2-0.2 0.8-0.5 1.5-0.8l-0.1 0.4c0.1 0 9.2 2.1 9.2 7.5zm38.4-15.8c-0.1-0.6 0.2-1.8 0.3-2.7 0.3-1.5 0.6-3.1 0.6-4.5 0-3.5-1.6-5.1-5.2-5.1-2.2 0-20.5 7.9-24.1 9.4-21.9 9.5-22.1 10.5-22.3 11-0.2 1.1-2.2 4.1-3 4.8h-2.8c-0.4-0.1-0.7-0.1-0.8-0.1-1.2-0.8-2.9-2.1-3.2-2.8q-0.1-0.4-0.2-0.8c-0.6-1.6-0.4-1.7 0-1.9 0.6-0.2 6.9-3 17-7.5 10.1-4.5 21.9-9.9 28.3-12.6l1.4 0.2-0.5-0.6q1-0.4 1.7-0.8l6-2.1 0.4-0.6c1-0.5 1.9-0.7 3.2-0.7 2.4 0 10 4.4 10 9.6 0 4.3-5.2 7.4-6.8 7.8z"/><path fill-rule="evenodd" class="a" d="m235.1 279.4c-0.7 0-1.3-0.6-1.3-1.4 0-0.7 0.6-1.3 1.3-1.3 0.8 0 1.3 0.6 1.3 1.3 0 0.8-0.5 1.4-1.3 1.4z"/><path class="a" d="m209.3 394c0.6-3.3 1.9-10.6 3.3-12.2 1.8-2.1 2.9-4.7 2.9-4.7l-2.6-0.3 2.6-10.4-5.3 0.9 5.6-17.1-4.4 1.2 5-16.6-4.4 1.5 3.8-15.4-3.8 2.1c0 0 0.6-8.6 1.5-10.1 0.9-1.4 2.9-6.5 2.9-6.5l-5.3 1.5 0.6-10.3 3.2-5.7-4.1 0.9 1.5-7.1 4.1-8.5-5.3-0.3v-9.5l4.4-10.3-4.7 2 0.6-7.4 3.3-5.3-4.5 0.6 0.6-7.4 3.6-6.8-4.2 1.5v-7.4l5-9.2-5.9-0.3 0.9-6.5 3.6-5.6-4.5 0.3 0.6-5.3 2.7-6.5-5 0.6 1.4-8.3 6.2-10-4.7 0.8c0 0 1.5-4.7 2.4-6.2 0.9-1.4 2.9-5.9 2.9-5.9 0 0-7.9 5.3-13.9 5.3-5 0-12.1-5-12.1-5 0 0 4.5 5.6 5 8 0.6 2.4 0 6.5 0 6.5l-3.5-2.1c0 0 3.3 8.3 3.3 11 0 2.6 0.5 4.4 0.5 4.4l-4.4-1.2 3.8 7.3 0.1 6.9-2.1-0.9 3.5 13.3h-2.9l5 16.6-2.7-1.5 3.9 13.9-3.3-1.5 2.4 12.4-3.3-0.3 3.8 10.7 0.4 9.4-3.3-1.7 3.6 15-3.9-0.5 3.9 14.1-3.6-0.8 4.2 17.7-3.6-0.9 3 14.5-3-1.2 2.1 15.7-3.3-0.6 4.8 15.4-4.8-1.2 4.5 13.9-4.2-1.2 3.9 10.3 0.2 7.5h-153.6v7.1h321v-7.1h-157.9z"/><path fill-rule="evenodd" class="a" d="m266.8 349.5h13.7v8h-13.7z"/><path class="a" d="m365.2 368.3v-25.4h4.8l-12.8-14.7h-45.4l-15.4 14.5-12.5-14.5h-45.5l-15.6 14.7h9.5v25.4h59.5v-25.4h4.4 0.4 9.1v25.4zm-1.7-1.8h-35.7v-16.7h-9.6v16.7h-10.6v-23.4h55.9zm-73.4 0h-35.7v-16.7h-9.6v16.7h-10.6v-23.4h55.9zm-62.8-25.4l11.9-11.2h43.9l9.7 11.2zm85.2-11.2h44l9.6 11.2h-65.4z"/><path fill-rule="evenodd" class="a" d="m340.2 349.5h13.6v8h-13.6z"/><path class="a" d="m231.7 374.2c-0.7 1.8-2.3 3.7-3.8 5.3q-0.4 0.6-0.9 1.1c-1.2 1.4-2.5 2.7-3.8 4-1.8 1.8-3.6 3.7-5.2 5.8l1.4 1c1.5-2 3.3-3.8 5.1-5.6 1.3-1.3 2.6-2.6 3.9-4.1q0.4-0.5 0.9-1c1.5-1.8 3.3-3.7 4.1-5.9z"/><path class="a" d="m237.5 377.8c-0.3 0.7-0.6 1.3-1 1.9l-0.6 0.9c-0.5 0.8-0.9 1.5-1.3 2.3l-0.3 0.6c-0.9 1.6-2 3.8-3.2 4.7l1 1.4c1.6-1.1 2.8-3.6 3.7-5.3l0.4-0.6c0.3-0.7 0.8-1.4 1.2-2.1q0.3-0.5 0.6-1c0.4-0.6 0.8-1.4 1.1-2.1 0.5-1 0.9-2.1 1.7-2.9l-1.3-1.2c-1 1-1.5 2.2-2 3.4z"/><path class="a" d="m247.8 375.9l-0.3 0.5c-0.5 0.8-0.9 1.8-1.2 2.6q-0.3 0.6-0.5 1.2c-1.1 2.5-2.7 5.5-4.7 8.4l1.5 1c2-3 3.7-6.1 4.8-8.7q0.3-0.6 0.5-1.2c0.4-0.9 0.7-1.7 1.1-2.4l0.3-0.5c0.4-0.7 0.9-1.5 1.2-2.3l-1.7-0.6c-0.3 0.7-0.6 1.3-1 2z"/><path class="a" d="m256 377.6c-0.5 1.2-1.1 2.4-1.5 3.7q-0.3 0.6-0.5 1.3-0.3 1.1-0.7 2.1c-0.2 0.4-0.4 0.8-0.7 1.2-0.6 1.1-1.3 2.4-1.2 3.6l1.8-0.1c-0.1-0.7 0.5-1.7 1-2.6 0.3-0.5 0.5-1 0.7-1.4q0.4-1.1 0.8-2.2 0.2-0.7 0.5-1.3c0.4-1.2 0.9-2.4 1.4-3.5 0.6-1.3 1.2-2.6 1.6-3.9l-1.6-0.6c-0.5 1.2-1.1 2.5-1.6 3.7z"/><path class="a" d="m264.3 377c-0.3 0.7-0.6 1.5-0.9 2.3-0.4 1.6-1.2 3.2-1.9 4.7-0.8 1.7-1.6 3.4-2.1 5.2l1.7 0.5c0.5-1.7 1.2-3.3 2-4.9 0.8-1.6 1.5-3.3 2-5 0.2-0.7 0.5-1.4 0.8-2.1 0.5-1.1 0.9-2.1 1.1-3.3l-1.7-0.3c-0.2 1-0.6 1.9-1 2.9z"/><path class="a" d="m270.3 381.5c-1.2 2.6-2.3 5.3-2.8 8.1l1.8 0.3c0.4-2.6 1.5-5.2 2.6-7.7 1.2-2.7 2.4-5.4 2.8-8.4l-1.8-0.2c-0.4 2.7-1.5 5.2-2.6 7.9z"/><path class="a" d="m279.8 379.2c-0.4 1.9-1.1 3.7-1.8 5.5-0.7 1.6-1.3 3.3-1.7 5l1.7 0.4c0.4-1.6 1-3.1 1.6-4.8 0.8-1.8 1.5-3.7 1.9-5.8 0.3-1.6 0.7-3.4 1.3-5l-1.6-0.7c-0.7 1.8-1.1 3.7-1.4 5.4z"/><path class="a" d="m285.6 379.1q-0.2 1.4-0.3 2.9c0 1.3-0.2 2.8-0.4 4.3q-0.2 1.4-0.3 2.7l-0.2 1.1q0 0.4 0 0.9c0 0.5 0 1.2-0.2 1.4l1.4 1.2c0.5-0.7 0.6-1.7 0.6-2.6q0-0.4 0-0.7l0.1-1q0.2-1.4 0.4-2.7c0.2-1.6 0.3-3.2 0.4-4.5q0.1-1.4 0.2-2.8c0.2-1.6 0.3-3.2 0.4-4.7h-1.8c-0.1 1.4-0.2 3-0.3 4.5z"/><path class="a" d="m295 381.2q-0.1 1.3-0.2 2.8c-0.2 2.7-0.4 5.4 0.1 8l1.7-0.4c-0.4-2.3-0.2-4.9 0-7.5q0.1-1.5 0.2-2.9c0.1-2.8 0.2-5.9 0.2-9h-1.8c0 3-0.1 6.2-0.2 9z"/><path class="a" d="m302.6 378.4c-0.2-0.6-0.2-1.2-0.2-1.9-0.1-0.9-0.2-1.9-0.5-2.8l-1.7 0.7c0.3 0.6 0.3 1.4 0.4 2.2 0 0.7 0.1 1.5 0.3 2.2l0.1 0.5c0.7 3.1 1.5 6.4 1.3 9.4l1.8 0.1c0.1-3.3-0.7-6.8-1.4-9.9z"/><path class="a" d="m310 378.9q-0.2-0.7-0.4-1.4-0.3-0.7-0.5-1.5-0.1-0.4-0.1-0.7c0-0.6-0.1-1.2-0.4-1.7l-1.5 0.9c0.1 0.2 0.1 0.6 0.2 1q0 0.4 0.1 0.9 0.2 0.8 0.5 1.7 0.2 0.6 0.4 1.3 0.4 1.6 1 3.2c0.6 2.1 1.3 4.3 1.5 6.4l1.8-0.2c-0.3-2.3-1-4.5-1.6-6.7q-0.6-1.6-1-3.2z"/><path class="a" d="m318.7 381.2c-0.7-1-1.2-2.1-1.6-3.2-0.3-0.6-0.6-1.1-1-1.7q-0.3-0.4-0.5-0.9c-0.1-0.1-0.2-0.5-0.2-0.8-0.2-0.7-0.3-1.4-0.9-1.8l-1.1 1.3c0.1 0.1 0.2 0.6 0.2 0.8 0.1 0.5 0.2 1 0.4 1.3q0.3 0.6 0.6 1.1c0.3 0.5 0.6 0.9 0.8 1.4 0.5 1.2 1 2.4 1.8 3.5 0.6 0.9 1.1 1.8 1.6 2.8 0.5 1.1 1.1 2.2 1.9 3.2l1.4-1c-0.7-0.9-1.2-2-1.8-3-0.5-1-1-2.1-1.6-3z"/><path class="a" d="m328.5 382.8c-0.4-0.7-0.9-1.4-1.3-2.1q-0.5-0.8-0.9-1.5c-1.1-1.9-2.3-3.6-3.3-5.1l-1.5 1c1.1 1.5 2.2 3.2 3.3 5q0.4 0.8 0.9 1.5c0.4 0.7 0.8 1.3 1.2 2.1q0.5 0.9 1.1 1.8c0.9 1.3 1.7 2.7 1.9 4l1.8-0.3c-0.3-1.6-1.2-3.2-2.2-4.7q-0.6-0.8-1-1.7z"/><path class="a" d="m335.7 378.5q-0.5-0.8-0.9-1.6c-0.4-0.9-0.9-1.9-1.7-2.8l-1.3 1.2c0.6 0.7 1 1.5 1.5 2.4q0.4 0.9 0.9 1.7 0.7 1.1 1.3 2.2c1.7 2.7 3.3 5.4 5.2 7.8l1.4-1c-1.8-2.4-3.5-5.1-5-7.7q-0.7-1.1-1.4-2.2z"/><path class="a" d="m350 383.5c-0.7-0.7-1.2-1.6-1.8-2.5-0.5-0.9-1.1-1.8-1.9-2.7q-0.5-0.7-1.2-1.4-0.5-0.4-0.9-1c-0.3-0.3-0.6-0.6-1-0.9-0.5-0.5-1.1-1.1-1.3-1.5l-1.6 0.9c0.4 0.6 1 1.3 1.7 1.9 0.3 0.3 0.6 0.5 0.8 0.8q0.5 0.6 1 1.1 0.6 0.6 1.2 1.2c0.6 0.8 1.2 1.7 1.8 2.6 0.5 0.9 1.1 1.8 1.8 2.6l0.6 0.8c1.1 1.4 2.1 2.7 2.8 4.2l1.7-0.7c-0.8-1.8-2-3.2-3.1-4.6z"/><path class="a" d="m354.7 378.4l-0.6-0.7c-1.2-1.3-2.6-2.8-3.9-3.8l-1.1 1.4c1.2 0.9 2.5 2.3 3.7 3.6l0.5 0.7c3.5 3.7 7.3 7.1 11.3 10l1.1-1.4c-4-2.9-7.7-6.2-11-9.8z"/><path class="a" d="m366 378.2q-1.2-0.9-2.2-1.8-0.7-0.6-1.4-1.2c-0.7-0.7-1.5-1.4-2.4-2.1l-1 1.4c0.8 0.6 1.5 1.3 2.2 2q0.7 0.6 1.4 1.2 1.1 1 2.2 1.9c1.4 1.1 2.8 2.3 4 3.5l1.3-1.2c-1.3-1.4-2.7-2.5-4.1-3.7z"/><path class="a" d="m64.2 413h-11q1-1.4 3-3.5l3.2-3.1v2.1h6.7l3.3-2.1v2.1h4.5l-4.5 4.5v13.1l-5.2 4.1z"/><path class="a" d="m80.3 406.4l2.8 1.6q3.4 2.3 3.4 4.6v8l-4.8 4v-8.9q0-0.9-0.5-1.6-0.6-0.8-2.5-1.8l-2.9-1.5z"/><path class="a" d="m101.4 413h-10.9q1.3-2 4.8-5.4l1.4-1.2v2.1h6.7l3.2-2.1 0.1 2.1h4.5l-4.5 4.5v8.1l-5.3 3.5z"/><path class="a" d="m116.3 406.4l2.8 1.6q3.3 2.3 3.3 4.6v8l-4.7 4v-8.9q0-0.9-0.5-1.6-0.6-0.8-2.5-1.8l-3-1.5z"/><path class="a" d="m138.7 412.7q0 2.7-7.6 6.2l-1.8 0.8q0.7-0.7 1.5-1.9 1.7-2.5 1.7-3.3 0-0.7-1-1.4-1.3-0.8-4.3-1.6l4.5-4.5q3.8 2.3 5.4 3.4 1.6 1.1 1.6 2.3z"/><path class="a" d="m155.2 413q1.6-2.4 4.9-5.6l1.2-1 0.1 2.1h10q3.9 0 5.2 1.2 1.6 1.1 1.6 3.9v8.1l-4.5 2.9v-9.1q0-1.6-0.9-2-0.8-0.5-3.2-0.5zm8.3 8.7l-5 2.9v-6.6l5-3.5c0 0 0 7.2 0 7.2z"/><path class="a" d="m193.9 419.7l-2.7 4.2h-9.7l3.1-4.5h4.4l-2.5-6.4h-4.5q2.3-3.1 7.2-6.6v2.1h12q2 0 3.9 1 1.9 1.2 1.9 2.7v9.4l-4.5 3v-9.6q0-1-0.9-1.5-0.9-0.5-2.6-0.5h-7.4z"/><path class="a" d="m214.1 407.3q4.6 2.4 5.9 3.2 1.9 1.1 4 2.4 2.3 1.7 3.6 2.7 0.5-1 0.5-1.8 0-1.1-1.7-2.6l4.2-3.9q3.8 2.4 3.8 4.9 0 1.7-5.2 4.4l5.7 4-3.6 4q-3.1-2.6-6.9-5.5-3.6-2.5-6.8-4.1-1.7 1-1.7 3.4 0 0.6 0.1 1h4.4l-2.6 4.5h-8.1l1.9-2.2v-0.3-0.4q0-1.5 0.4-2.8 0.5-1.5 1.4-2.3 0.9-1 2.1-2.1l-5.5-2.5z"/><path class="a" d="m251.6 413q1.6-2.4 4.9-5.6l1.3-1v2.1h10q3.9 0 5.3 1.2 1.5 1.1 1.5 3.9v8.1l-4.5 2.9v-9.1q0-1.6-0.9-2-0.8-0.5-3.2-0.5zm8.3 8.7l-5 2.9v-6.6l5-3.5z"/><path class="a" d="m288.9 413h-10.9q1.3-2 4.8-5.4l1.4-1.2v2.1h6.6l3.3-2.1v2.1h4.6l-4.6 4.5v8.1l-5.2 3.5z"/><path class="a" d="m303.7 406.4l2.9 1.6q3.3 2.3 3.3 4.6v8l-4.7 4v-8.9q0-0.9-0.5-1.6-0.7-0.8-2.6-1.8l-2.9-1.5z"/><path class="a" d="m314.2 413q1.7-2.4 4.9-5.6l1.3-1v2.1h10.1q3.8 0 5.2 1.2 1.6 1.1 1.6 3.9v8.1l-4.5 2.9v-9.1q0-1.6-0.9-2-0.9-0.5-3.3-0.5zm8.4 8.7l-5 2.9v-6.6l5-3.5z"/><path class="a" d="m352.8 412.7q0 2.7-7.6 6.2l-1.7 0.8q0.6-0.7 1.4-1.9 1.8-2.5 1.8-3.3 0-0.7-1-1.4-1.3-0.8-4.3-1.6l4.5-4.5q3.8 2.3 5.4 3.4 1.5 1.1 1.5 2.3z"/><path class="a" d="m77.9 460.3v-12.8q0-1.7-1-2.7-0.9-0.9-2.6-1.8-1.9-1-3.5-1.4-1 0.7-1 1.2 0 0.9 2.4 1.7l-2.4 3.5q-5.1-3-5.2-4.7 0-2.6 7.1-5.8 2.5 0.6 5.4 2 2.8 1.4 3.8 2.3 1.1 0.8 1.1 3.8v10.7z"/><path class="a" d="m85.5 443.1q3.3-4.4 6.2-6.6v2.2h6.5q2 0 3.8 1.1 1.8 1.2 1.8 2.7v8.4l-4.6 3.9v-9.7q0-0.9-0.8-1.4-0.8-0.6-2.4-0.6z"/><path class="a" d="m110.4 436.5l2.9 1.7q3.3 2.3 3.3 4.5v8.1l-4.7 4v-8.9q0-0.9-0.5-1.6-0.7-0.8-2.6-1.8l-2.9-1.5z"/><path class="a" d="m127.7 436.8q2.3 4.3 3.5 7.7 1.1 3.1 1.5 4.4l1.7-0.7q1.8-0.7 1.8-2.1 0-2-2.5-4.8l5.2-4.5q2.4 3.9 2.4 7.7 0 2.4-1.2 3.8-1.1 1.6-4.8 3.2-2 1-12 3.7-1.5 0.5-2.7 0.8l2.4-5.1q3.6-0.4 5.7-0.7-0.2-0.6-1-2.4-0.8-1.5-1.4-2.4-1.2-1.7-4.2-4.1z"/><path class="a" d="m144.9 443.1q2.9-4.2 6.2-6.6v2.2h4.9q3 0 4.4 1 1.4 1 1.4 3v6.9h3.6l-2.9 4.4h-18.3l3.4-4.4h9.7v-4.2q0-1.3-0.7-1.7-0.6-0.6-2.6-0.6h-9.1z"/><path class="a" d="m191.5 443.1h-10.9q1-1.3 3-3.4l3.2-3.2v2.2h6.6l3.3-2.2v2.2h4.6l-4.6 4.4v13.2l-5.2 4z"/><path class="a" d="m214.7 443.1h-11q1.3-1.9 4.8-5.3l1.4-1.3v2.2h6.7l3.3-2.2v2.2h4.5l-4.5 4.4v8.2l-5.2 3.5z"/><path class="a" d="m237.7 442.8q0 2.8-7.5 6.3l-1.8 0.8q0.7-0.7 1.5-2 1.7-2.4 1.7-3.2 0-0.7-1-1.4-1.3-0.8-4.3-1.7l4.5-4.4q3.8 2.2 5.4 3.3 1.5 1.2 1.5 2.3z"/><path class="a" d="m264.9 443.1h-10.9q1-1.3 3-3.4l3.2-3.2v2.2h6.6l3.3-2.2v2.2h4.6l-4.6 4.4v13.2l-5.2 4z"/><path class="a" d="m289.3 442.8q0 2.8-7.6 6.3l-1.7 0.8q0.6-0.7 1.4-2 1.8-2.4 1.7-3.2 0-0.7-1-1.4-1.3-0.8-4.2-1.7l4.5-4.4q3.8 2.2 5.3 3.3 1.6 1.2 1.6 2.3z"/><path class="a" d="m298.6 438.7h7.2q4.3 0 6.4 1.7 2.1 1.7 2.1 4.1v7.1l-4.5 3.2v-7.7q0-1.7-1.2-2.8-1.2-1.2-3.6-1.2h-6.4v8.5l-4.5 3.2v-6.7q0-4-0.8-7.4-0.5-1.5-1.3-2 3.2-1 6.6-2.2z"/><path class="a" d="m321.8 437.5q4.6 2.4 5.9 3.2 1.8 1 3.9 2.4 2.4 1.7 3.6 2.6 0.6-0.9 0.6-1.8 0-1-1.8-2.6l4.3-3.8q3.8 2.4 3.8 4.9 0 1.6-5.2 4.3l5.7 4.1-3.6 4q-3.1-2.7-6.9-5.5-3.7-2.6-6.8-4.2-1.8 1-1.8 3.4 0.1 0.6 0.2 1.1h4.4l-2.6 4.4h-8.1l1.9-2.1v-0.3-0.4q0-1.5 0.4-2.8 0.5-1.5 1.3-2.4 1-0.9 2.2-2l-5.5-2.6z"/><path class="a" d="m156 473.3h-10.9q1-1.4 3-3.5l3.2-3.1v2.1h6.6l3.3-2.1v2.1h4.6l-4.6 4.5v13.2l-5.2 4z"/><path class="a" d="m180.4 473q0 2.7-7.6 6.2l-1.8 0.8q0.7-0.7 1.5-1.9 1.7-2.4 1.7-3.3 0-0.7-1-1.4-1.3-0.8-4.2-1.6l4.5-4.5q3.8 2.3 5.3 3.4 1.6 1.1 1.6 2.3z"/><path class="a" d="m184.1 473.3q2.9-4.3 6.2-6.6v2.1h4.9q3 0 4.4 1.1 1.4 0.9 1.4 3v6.8h3.6l-2.9 4.5h-18.3l3.4-4.5h9.7v-4.2q0-1.2-0.7-1.7-0.6-0.5-2.6-0.5h-9.1z"/><path class="a" d="m218.8 473q0 2.7-7.6 6.2l-1.7 0.8q0.6-0.7 1.4-1.9 1.8-2.4 1.8-3.3 0-0.7-1.1-1.4-1.3-0.8-4.2-1.6l4.5-4.5q3.8 2.3 5.3 3.4 1.6 1.1 1.6 2.3z"/><path class="a" d="m225.8 466.7l2.8 1.6q3.4 2.4 3.4 4.6v8l-4.8 4v-8.9q0-0.9-0.4-1.6-0.7-0.8-2.6-1.8l-2.9-1.5z"/><path class="a" d="m240 467.6q4.6 2.4 5.9 3.2 1.9 1.1 3.9 2.5 2.4 1.6 3.7 2.6 0.5-1 0.5-1.8 0-1.1-1.7-2.6l4.2-3.9q3.8 2.4 3.8 4.9 0 1.7-5.2 4.4l5.7 4-3.6 4q-3.1-2.6-6.9-5.5-3.6-2.5-6.8-4.1-1.8 1-1.8 3.4 0.1 0.6 0.2 1h4.4l-2.6 4.5h-8.1l1.9-2.2v-0.3-0.4q0-1.5 0.4-2.8 0.5-1.5 1.3-2.3 1-1 2.2-2.1l-5.5-2.5z"/><path class="b" d="m34.1 625.9h-9.5v-39.9l2.4-6.9h-5.7v-9h11.6q1.4 0 2.2 0.2 0.7 0.2 1.1 0.8 0.3 0.7 0.3 1.7v1.3 5l-2.4 6.1z"/><path class="b" d="m60 612.7h-9.9v-33.6h-5.7v-9h12.6q1.2 0 1.6 0.1 0.5 0.2 0.9 1 0.5 0.7 0.5 2.5z"/><path class="b" d="m104.5 596.4q0 7.2-5.4 12.2-5.5 5-13 5-7.5 0-13-4.9-5.5-5-5.5-12.3v-9.9l1.7-7.4h-2.5v-9h34.8q1.4 0 2.2 0.7 0.7 0.8 0.7 2.1zm-27.5-17.3v16.4q0 3.7 2.7 6.4 2.7 2.7 6.4 2.7 3.6 0 6.3-2.7 2.7-2.7 2.7-6.4v-16.4z"/><path class="b" d="m128.1 612.7h-9.8v-33.6h-5.8v-9h12.7q1.1 0 1.6 0.1 0.4 0.2 0.9 1 0.4 0.7 0.4 2.5z"/><path class="b" d="m136.4 612.7v-9h7v-24.6h-6.2v-9h12.8q0.8 0 1.3 0.1 0.6 0.1 1.1 0.7 0.4 0.6 0.4 1.7v1.2 38.9h-16.4z"/><path class="b" d="m176.5 612.7h-9.8v-33.6h-5.8v-9h12.7q1.1 0 1.6 0.1 0.4 0.2 0.9 1 0.4 0.7 0.4 2.5z"/><path class="b" d="m207.8 569.6q6.9 0 12 4.5 5.1 4.5 5.1 11.1v27.5h-22.2v-9h12.7v-18q0-3.4-2.7-5.4-2.7-2-6.4-2h-0.9q-3.4 0-5.9 2.1-2.5 2.1-2.5 5.3v27h-9.5v-28.3q0-0.6 0.2-1.4 0.2-0.8 0.4-1.4 0.3-0.6 1-1.4 0.7-0.8 1.1-1.1h-6v-9h9.1q0.9 0 1.4 0.1 0.5 0.2 1.2 0.9 0.7 0.8 0.9 1.3 0.2 0.5 0.2 1.4 2.5-2.2 5-3.2 2.5-1 5.8-1z"/><path class="b" d="m233.6 586.5h20.2v9h-20.2z"/><path class="b" d="m263.5 570.1h29.1q0.6 0 1.3 0.2 0.8 0.3 1.3 1 0.6 0.7 0.9 1.3 0.2 0.7 0.2 1.2v5.3h-3.7v33.6h-9.4v-33.6h-19.7v-9z"/><path class="b" d="m319 612.7h-9.9v-33.6h-5.7v-9h12.6q1.2 0 1.6 0.1 0.4 0.2 0.9 1 0.5 0.7 0.5 2.5v39z"/><path class="b" d="m353.4 579.1h-26.2v-9h31.5q1.4 0 2.2 0.4 0.8 0.4 1.1 0.9 0.4 0.5 0.8 1.2 0.5 0.7 0.5 2v38.1h-9.9zm-26.2 33.7v-24.2h9.4v24.2z"/><path class="b" d="m385.3 590.2h-9.4v-11.1h-6.6v-9h13.1q0.6 0.1 1.2 0.3 0.6 0.2 1 0.7 0.3 0.5 0.5 1.3 0.2 0.9 0.2 1.3z"/></g></svg>