<svg version="1.2" xmlns="http://www.w3.org/2000/svg" viewBox="0 0 238 69" width="238" height="69"><defs><clipPath clipPathUnits="userSpaceOnUse" id="cp1"><path d="m44.92 2.8h93.63v39.87h-93.63z"/></clipPath></defs><style>.a{fill:#5bb8a7}.b{fill:#52aee5}.c{fill:#515257}.d{fill:#57aa5e}.e{fill:#b4dc19}.f{fill:#81cc2b}.g{fill:#33a056}.h{fill:#8cd9f7}.i{fill:#3972c2}.j{fill:#2b3a92}</style><g style="opacity:1"><path class="a" d="m113.4 2.8c-8.8 0-17.8 3.5-24.7 11.2 4.2-4.7 8.3-6.2 12-6.2 7.4 0 13 6.2 13 6.2l0.1 0.1c1 1.2 20.3 21.8 22.4 23.6 2.1 1.9 4.5 3.1 7.1 4q3.3-1.3 5.6-3.6 2.4-2.2 3.7-5.5 0.4-0.9 0.7-1.9c-7.3-7.2-14.7-16.7-14.7-16.7l-0.1-0.1c-6.4-7.1-15.7-11.1-25.1-11.1zm-24.7 11.2q0 0 0 0 0 0 0 0z"/><g clip-path="url(#cp1)"><path class="b" d="m113.8 14.1c-0.9 0.9-11.1 12.2-12.8 13.9-16.4 17.2-42.7 19.2-56.1 6.4 0.9 0.9 19 7.1 31.1-6.2l12.6-14.1c14.4-16.1 37.6-13.9 49.9-0.2-1.6-1.8-3.7-3.2-5.9-4.3-4.1-2.1-8.7-2.7-12.9-0.4-2.3 1.3-4.2 3-5.9 4.9z"/></g><path class="c" d="m14 66.1v-9.1h-6.8v-2.1h9v11.2zm-6.7-6.5h2.2v6.5h-2.2z"/><path class="c" d="m25.7 66.1v-2.1h2.4v-7h-1.7v-2.1h3.9v11.2z"/><path class="c" d="m41.7 66.1v-9.1h-1.9v-2.1h4.2v11.2z"/><path class="c" d="m64 61.7c-0.4 2.9-1.9 4.4-5.1 4.4h-3.4l-2-11.2h2.2l1.1 5.7c0.5-0.1 0.9-0.4 1-1.2l0.7-4.5h2.2l-0.8 4.6c-0.3 2.1-1.5 2.6-2.8 2.8l0.3 1.7h2.2c1.2 0 1.9-0.6 2.1-1.8l1.2-7.3h2.2z"/><path class="c" d="m81.7 66.1l-3.9-5.9c-0.6 0.2-0.8 0.8-0.8 1.5v4.4h-2.3v-4.2c0-1.9 1-2.7 2.2-3.2l-2.5-3.8h2.6l3.9 5.8c0.6-0.1 0.9-0.5 0.9-1.2v-4.6h2.3v4c0 2.3-1.2 3-2.3 3.3l2.5 3.9z"/><path class="c" d="m99.4 66.1v-9.1h-6v-2.1h8.3v11.2z"/><path class="c" d="m111.6 59.6h2.3v6.5h-2.3zm6.8 6.5v-9.1h-6.8v-2.2h9v11.3z"/><path class="c" d="m147 66.1v-9.1h-6.8v-2.1h9v11.2zm-6.8-6.5h2.3v6.5h-2.3z"/><path class="c" d="m160.8 61.4v-4.4h-2.1v-2.1h4.4v6.5z"/><path class="c" d="m178.4 66.1v-9.1h-6v-2.1h8.3v11.2z"/><path class="c" d="m190.6 59.6h2.3v9.4h-2.3zm6.8-2.6h-6.8v-2.1h9.1v6.8c0 3.6-3.5 4.6-5 4.6v-2c1.2-0.2 2.7-0.8 2.7-2.8z"/><path class="c" d="m216.2 66.1v-9.1h-6.7v-2.1h9v11.2zm-6.8-6.5h2.3v6.5h-2.3z"/><path class="d" d="m183.7 6.7c-2 0-18.4 1.4-26.1 13.7-1.9 3.1-3 6.8-4.3 10.3 4.1 4.1 8.2 7.4 10.9 8 1.8-1.4 3.4-3.1 4.7-5.2 2.8-4.7 3.9-10.1 5.9-15.1 2.1-5.8 8.9-11.7 8.9-11.7z"/><path class="e" d="m218.3 0.1q-0.8-0.1-1.5-0.1c-2.2 0-4.6 0.9-6 2.1-1.1 1-2.2 2.5-2.5 3.8 0 0-3.1 14.7-3.1 14.7 0 0-2.2 15-20 11.8 20.2 3.7 37.7-8.5 40-23.5 0.3-1.9-0.3-4.6-1.6-6.3-1-1.4-3.3-2.2-5.3-2.5z"/><path class="f" d="m170.4 15.3c2.4 2.2 4.7 4.6 6.8 7.1 1.1 1.2 5.3 6.3 6.4 7.7 14.9 17.9 39.9 14.5 54.1 3.5-3.3 2.6-7.9 3.9-12 4.1-12.5 0.6-22.4-13.2-29.7-21.6-14.9-17.4-38.7-15.2-51.7-0.8 1.6-1.8 3.6-3.1 5.7-4.2 3.9-2.1 8.2-3.1 12.4-1.4 1.5 0.6 2.8 1.4 4 2.3q2.1 1.6 4 3.3z"/><path class="g" d="m153.3 30.7q-0.3 1-0.7 1.9-1.3 3.3-3.7 5.5-2.3 2.3-5.6 3.6c0.1-0.1 12.7 3.5 20.9-3-2.7-0.6-6.8-3.9-10.9-8z"/><path class="h" d="m75.1 0.1q-0.9-0.1-1.6-0.1c-2.2 0-4.6 0.9-6 2.1-1.1 1-2.2 2.5-2.5 3.8 0 0-3.1 14.7-3.1 14.7 0 0-2.2 15-20 11.8 20.2 3.7 37.7-8.5 40-23.5 0.3-1.9-0.3-4.6-1.5-6.3-1.1-1.4-3.4-2.2-5.3-2.5z"/><g style="opacity:.8"><path class="i" d="m27.2 15.3c2.4 2.2 4.6 4.6 6.7 7.1 1.1 1.2 5.4 6.3 6.4 7.7 14.9 17.9 40 14.5 54.1 3.5-3.3 2.6-7.9 3.9-12 4.1-12.5 0.6-22.4-13.2-29.7-21.6-14.9-17.4-38.7-15.2-51.7-0.8 1.6-1.8 3.6-3.1 5.7-4.2 3.9-2.1 8.3-3.1 12.5-1.4 1.4 0.6 2.7 1.4 3.9 2.3q2.1 1.6 4.1 3.3z"/></g><g style="opacity:.75"><path class="j" d="m14.4 20.4c-2 3.1-3.1 6.8-4.4 10.3q-0.3 1-0.7 1.9-1.3 3.3-3.6 5.5-2.4 2.3-5.7 3.6c0.1-0.1 12.8 3.5 20.9-3 1.9-1.4 3.5-3.1 4.7-5.2 2.9-4.7 3.9-10.1 5.9-15.1 2.1-5.8 8.9-11.7 8.9-11.7-1.9 0-18.4 1.4-26 13.7z"/></g></g></svg>