<svg version="1.2" xmlns="http://www.w3.org/2000/svg" viewBox="0 0 785 1257" width="785" height="1257"><defs><clipPath clipPathUnits="userSpaceOnUse" id="cp1"><path d="m391.58 1206.06c0 0 167.06-39.51 251.9-145.8 84.84-106.28 88.75-196.21 88.75-283.42 0-87.2 0-523.23 0-523.23h-340.65 0.01-340.66c0 0 0 436.03 0 523.23 0 87.21 3.92 177.14 88.76 283.42 84.83 106.29 251.89 145.8 251.89 145.8z"/></clipPath></defs><style>.a{opacity:1;fill:#231f20}.b{opacity:1;fill:#006735}.c{opacity:1;fill:#1183c6}.d{opacity:1;fill:#b7d433}.e{opacity:1;fill:#ffcd04}.f{opacity:1;fill:#ed1c24}.g{opacity:1;fill:#fff}</style><path class="a" d="m754.3 1c0 0-12 67.3-12.5 70.7-0.5 3.3-2.5 5.3-4.5 5.3-2 0-40.1 3-40.1 3l-3.6-20.3h28.1l18-54.7h-30.7l-16.9 46.3-8.3-46.3h-32l19.7 104 96.7-11.7 16-89z"/><path fill-rule="evenodd" class="a" d="m478.2 36.2h54.8v72.6h26.7l3.3-73.1h7.8l1-30.9-90.3-3.5z"/><path fill-rule="evenodd" class="a" d="m310.2 36h54.8v73h26.7l4.3-104.2-82.8-4z"/><path fill-rule="evenodd" class="a" d="m186.8 35.8h10.4v72.9h27.6l3-103.7-36.8-4z"/><path fill-rule="evenodd" class="a" d="m43.7 106.7v-70.5h28.3v72.8h27.7l4.1-103.8-94.6-4.2-4.2 35h8.8l1.4 41.8h-13.2v33z"/><path class="b" d="m391.6 1257.1c0 0 192-43.5 289.5-160.5 97.5-117 102-216 102-312 0-96 0-576 0-576h-391.5-391.5c0 0 0 480 0 576 0 96 4.5 195 102 312 97.5 117 289.5 160.5 289.5 160.5z"/><g clip-path="url(#cp1)"><path fill-rule="evenodd" class="c" d="m23 242h747v552.7h-747z"/><path fill-rule="evenodd" class="d" d="m126 793.5h64l-133 132.5-15.5-88.5z"/><path fill-rule="evenodd" class="d" d="m267 794.5l-162.5 226 61 78 143-304z"/><path fill-rule="evenodd" class="d" d="m343.5 793l-93 367 94 37.5 29.5-405.5z"/><path fill-rule="evenodd" class="d" d="m657 793.5h-64l133 132.5 15.5-88.5z"/><path fill-rule="evenodd" class="d" d="m516 794.5l162.5 226-61 78-143-304z"/><path fill-rule="evenodd" class="d" d="m439.5 793l93 367-94 37.5-29.5-405.5z"/><path class="e" d="m189.7 706.6l-143.7-51.6-8 52 135.8 47.2c-2.7 13.2-4.1 26.9-4.1 40.8h443.3c0-14-1.4-27.7-4.1-41l135.1-47-8-52-143.2 51.4q-5.7-11.9-12.9-23l166.1-141.4-6-60-193.7 161.2q-9.2-8.7-19.5-16.3l212.2-367.9-5-12-50 3-203 350.8q-11.7-5-24.1-8.7l61.1-345.1-54 3-57.5 333.2q-7.5-0.5-15.2-0.5-7.9 0-15.8 0.5l-57.5-333.2-54-3 61.2 345.3q-12.4 3.7-24.1 8.7l-203.1-351-50-3-5 12 212.4 368.3q-10.2 7.6-19.4 16.2l-194-161.5-6 60 166.5 141.8q-7.1 11-12.8 22.8z"/><path fill-rule="evenodd" class="f" d="m129.3 741.7l-36.1-36.2 103.1-103.2 104.7 104.7-35 35-68.3-68.3z"/><path fill-rule="evenodd" class="g" d="m129.3 741.3v53.7h136.3v-53.4l-68.1-68.1z"/><path fill-rule="evenodd" class="a" d="m177 719h39v26h-39z"/><path fill-rule="evenodd" class="g" d="m457 701v93.5h197v-157l-62.8 62.7v-63.2l-65.6 65.6v-68.1z"/><path fill-rule="evenodd" class="a" d="m470.5 719h39v26h-39z"/><path fill-rule="evenodd" class="a" d="m536 719h39v26h-39z"/><path fill-rule="evenodd" class="a" d="m601.5 719h39v26h-39z"/></g><g style="opacity:1"><path fill-rule="evenodd" class="a" d="m409.7 678.8c-7.2 0-13.1-5.9-13.1-13.1 0-7.3 5.9-13.1 13.1-13.1 7.2 0 13.1 5.8 13.1 13.1 0 7.2-5.9 13.1-13.1 13.1z"/><path class="a" d="m432.1 680.2h-22.4-22.4c-4.5 0-10.4 3.1-10.4 9.8v1.7c-0.4-1.3-0.8-2.3-0.9-2.8-1.5-3.9-5.9-7.4-9.5-7.4h-18.2-18.6c-3.6 0-8 3.5-9.4 7.4-1.4 3.9-12.6 41.8-13.5 44-1 2.2 0.8 6 4.2 6.9 3.5 1 8.7 1.1 9.9-3.3 1.3-4.4 10.3-37.5 10.3-37.5 0 0 3.1 0.4 3.1 2.3 0 1.9-0.5 3-0.5 3l-16.8 56.1h13.7v32.9c0 2 3.1 5.7 7.8 5.7 4.8 0 7.6-2.9 7.6-5.5v-33.1c0-1.5 1.4-1.5 2-1.5 0.7 0 2.1 0 2.1 1.5v33.1c0 2.6 2.8 5.5 7.5 5.5 4.7 0 7.9-3.7 7.9-5.7v-32.9h13.7l-16.9-56.1c0 0-0.4-1.1-0.4-3 0-1.9 3.1-2.3 3.1-2.3 0 0 9 33.1 10.2 37.5 1.3 4.4 6.5 4.3 9.9 3.3 3.5-0.9 5.2-4.7 4.3-6.9-0.3-0.5-1.1-3.2-2.2-6.9v-21.8c0-0.7 0.7-1.4 1.5-1.4 0.8 0 1.7 0.5 1.7 1.1v85.8c0 2.1 3.3 7.9 8.7 7.9 5.3 0 9-5.1 9-7.5v-48.1c0-0.8 0.8-1.1 1.5-1.1 0.7 0 1.5 0.3 1.5 1.1v48.1c0 2.4 3.7 7.5 9 7.5 5.3 0 8.7-5.8 8.7-7.9v-85.8c0-0.6 0.9-1.1 1.7-1.1 0.8 0 1.5 0.7 1.5 1.4v30.5c0 1.8 2.2 4.3 5.2 4.3 2.9 0 5.2-2.5 5.2-4.2v-44.8c0-6.7-5.9-9.8-10.4-9.8z"/><path fill-rule="evenodd" class="a" d="m348.1 680.1c-7.2 0-13.1-5.9-13.1-13.1 0-7.3 5.9-13.1 13.1-13.1 7.3 0 13.1 5.8 13.1 13.1 0 7.2-5.8 13.1-13.1 13.1z"/></g></svg>