<svg version="1.2" xmlns="http://www.w3.org/2000/svg" viewBox="0 0 125 103" width="125" height="103"><defs><clipPath clipPathUnits="userSpaceOnUse" id="cp1"><path d="m66.31 51.63h35.72v15.38h-35.72z"/></clipPath><clipPath clipPathUnits="userSpaceOnUse" id="cp2"><path d="m66.31 67.01h35.72v-15.38h-35.72z"/></clipPath><clipPath clipPathUnits="userSpaceOnUse" id="cp3"><path d="m86.32 36.24h31.54v22.08h-31.54z"/></clipPath><clipPath clipPathUnits="userSpaceOnUse" id="cp4"><path d="m86.32 58.32h31.54v-22.08h-31.54z"/></clipPath><clipPath clipPathUnits="userSpaceOnUse" id="cp5"><path d="m51.23 56.07h35.6v6.72h-35.6z"/></clipPath><clipPath clipPathUnits="userSpaceOnUse" id="cp6"><path d="m51.23 62.79h35.6v-6.72h-35.6z"/></clipPath><clipPath clipPathUnits="userSpaceOnUse" id="cp7"><path d="m21.01 47.82h33.99v14.65h-33.99z"/></clipPath><clipPath clipPathUnits="userSpaceOnUse" id="cp8"><path d="m21.01 62.47h33.99v-14.64h-33.99z"/></clipPath><clipPath clipPathUnits="userSpaceOnUse" id="cp9"><path d="m20.11 37.7h41.7v20.18h-41.7z"/></clipPath><clipPath clipPathUnits="userSpaceOnUse" id="cp10"><path d="m20.11 57.88h41.7v-20.18h-41.7z"/></clipPath><clipPath clipPathUnits="userSpaceOnUse" id="cp11"><path d="m55.65 50.67h37.19v7.35h-37.19z"/></clipPath><clipPath clipPathUnits="userSpaceOnUse" id="cp12"><path d="m55.65 58.02h37.19v-7.34h-37.19z"/></clipPath><clipPath clipPathUnits="userSpaceOnUse" id="cp13"><path d="m92.24 37.59h22.44v15.19h-22.44z"/></clipPath><clipPath clipPathUnits="userSpaceOnUse" id="cp14"><path d="m92.24 52.78h22.44v-15.19h-22.44z"/></clipPath><clipPath clipPathUnits="userSpaceOnUse" id="cp15"><path d="m66.31 51.63h35.72v15.38h-35.72z"/></clipPath><clipPath clipPathUnits="userSpaceOnUse" id="cp16"><path d="m66.31 67.01h35.72v-15.38h-35.72z"/></clipPath><clipPath clipPathUnits="userSpaceOnUse" id="cp17"><path d="m86.32 36.24h31.54v22.08h-31.54z"/></clipPath><clipPath clipPathUnits="userSpaceOnUse" id="cp18"><path d="m86.32 58.32h31.54v-22.08h-31.54z"/></clipPath><clipPath clipPathUnits="userSpaceOnUse" id="cp19"><path d="m51.23 56.07h35.6v6.72h-35.6z"/></clipPath><clipPath clipPathUnits="userSpaceOnUse" id="cp20"><path d="m51.23 62.79h35.6v-6.72h-35.6z"/></clipPath><clipPath clipPathUnits="userSpaceOnUse" id="cp21"><path d="m21.01 47.82h33.99v14.65h-33.99z"/></clipPath><clipPath clipPathUnits="userSpaceOnUse" id="cp22"><path d="m21.01 62.47h33.99v-14.64h-33.99z"/></clipPath><clipPath clipPathUnits="userSpaceOnUse" id="cp23"><path d="m20.11 37.7h41.7v20.18h-41.7z"/></clipPath><clipPath clipPathUnits="userSpaceOnUse" id="cp24"><path d="m20.11 57.88h41.7v-20.18h-41.7z"/></clipPath><clipPath clipPathUnits="userSpaceOnUse" id="cp25"><path d="m55.65 50.67h37.19v7.35h-37.19z"/></clipPath><clipPath clipPathUnits="userSpaceOnUse" id="cp26"><path d="m55.65 58.02h37.19v-7.34h-37.19z"/></clipPath><clipPath clipPathUnits="userSpaceOnUse" id="cp27"><path d="m92.24 37.59h22.44v15.19h-22.44z"/></clipPath><clipPath clipPathUnits="userSpaceOnUse" id="cp28"><path d="m92.24 52.78h22.44v-15.19h-22.44z"/></clipPath><clipPath clipPathUnits="userSpaceOnUse" id="cp29"><path d="m71.55-25.67c-30.21 0.4-54.69 17.86-54.69 39.02-0.01 21.15 24.48 37.98 54.69 37.59 30.2-0.4 54.69-19.71 54.69-40.87 0-20.88-23.86-35.75-53.52-35.75q-0.59 0-1.17 0.01z"/></clipPath><clipPath clipPathUnits="userSpaceOnUse" id="cp30"><path d="m61.99 19.1l2.93 31.65q3.17 0.22 6.44 0.19l5.28-38.47z"/></clipPath><clipPath clipPathUnits="userSpaceOnUse" id="cp31"><path d="m71.55-25.67c-30.21 0.4-54.69 17.86-54.69 39.02-0.01 21.15 24.48 37.98 54.69 37.59 30.2-0.4 54.69-19.71 54.69-40.87 0-20.88-23.86-35.75-53.52-35.75q-0.59 0-1.17 0.01z"/></clipPath></defs><style>.a{fill:#f7941e}.b{fill:none;stroke:#28aae1;stroke-miterlimit:10;stroke-width:2.8}.c{fill:#28aae1}.d{fill:none;stroke:#666cb2;stroke-miterlimit:10;stroke-width:2.8}.e{fill:#666cb2}.f{fill:none;stroke:#0092d7;stroke-miterlimit:10;stroke-width:2.8}.g{fill:none;stroke:#a52867;stroke-miterlimit:10;stroke-width:2.8}.h{fill:#00aeef}.i{fill:none;stroke:#0079c2;stroke-miterlimit:10;stroke-width:2.8}.j{fill:none;stroke:#832990;stroke-miterlimit:10;stroke-width:2.8}.k{fill:none;stroke:#786db2;stroke-miterlimit:10;stroke-width:2.8}.l{fill:#cf128c}.m{fill:none;stroke:#00b2a5;stroke-miterlimit:10;stroke-width:2.8}.n{fill:#00b2a5}.o{fill:none;stroke:#64c18e;stroke-miterlimit:10;stroke-width:2.8}.p{fill:none;stroke:#00a651;stroke-miterlimit:10;stroke-width:2.8}.q{fill:#f5841f}.r{fill:#8dc63f}.s{fill:#f16264}.t{fill:#2cb34a}.u{fill:#00b8a7}.v{fill:#faa21b}.w{fill:#ef3f6f}.x{fill:#e39250}.y{fill:#8bc86b}.z{fill:none;stroke:#6f2c91;stroke-miterlimit:10;stroke-width:2.8}.A{fill:#6f2c91}.B{fill:none;stroke:#ed1d24;stroke-miterlimit:10;stroke-width:2.8}.C{fill:none;stroke:#f99b1c;stroke-miterlimit:10;stroke-width:2.8}.D{fill:#ec008c}.E{fill:#cdd1d2}.F{fill:#fff}.G{fill:none;stroke:#cdd1d2;stroke-miterlimit:10;stroke-width:.4}.H{fill:#dfe1e1}.I{fill:#e2e3e4}.J{fill:#d3d5d6}.K{fill:#cdcfd0}.L{fill:#dadbdc}.M{fill:#c7c8ca}.N{fill:#c9cacc}.O{fill:#e6e7e8}.P{fill:#cfd1d2}.Q{fill:#dcddde}</style><g style="opacity:1"><path class="a" d="m0 17c5.4 12.9 14.3 23.4 25.2 30.7"/><path class="b" d="m4.6 26.1c5.3 8.8 12.4 16.1 20.6 21.6"/><path class="c" d="m2.3 31.1c-1.3-4.5-2.1-9.2-2.3-14.1q4.6 4.4 9.4 8-3.5 3.1-7.1 6.1z"/><path class="d" d="m16.5 58.2c8.2 4.5 17.1 7.6 26.3 9.1"/><path class="e" d="m16.3 64.5c-5.1-4.4-9.6-9.7-13.1-15.6 6.6 2.8 13.2 5 19.9 6.4q-3.3 4.6-6.8 9.2z"/><path class="f" d="m42.8 67.3c13.3 2.1 27.2 0.8 40.4-3.9"/><path class="g" d="m83.2 63.4c6.7-2.5 13.2-5.8 19.3-10.1"/><path class="h" d="m103.3 51.9c7.2-4.8 13.8-11.2 19.3-18.9-5.5 8-12.1 14.9-19.4 20.5q0.1-0.8 0.1-1.6z"/><path class="i" d="m13.7 38c9.2 9.7 21.1 16.3 34 19.4"/><path class="j" d="m47.7 57.4c5.8 1.3 11.7 1.9 17.7 1.8"/><path class="k" d="m65.5 59.2c12.3-0.2 24.8-3.6 36.2-10.4"/><path class="l" d="m103.1 47.2c7.9-4.5 15.3-10.9 21.5-19.2-6.2 8.4-13.5 15.4-21.5 20.7q0-0.7 0-1.5z"/><path class="m" d="m20.9 33c6.1 6.9 13.8 12.4 22.4 16.1"/><path class="n" d="m19.5 37.6c-1.8-3.8-3.3-7.8-4.3-12.1q4.8 3.3 9.8 5.8-2.7 3.2-5.5 6.3z"/><path class="o" d="m43.3 49.1c10.4 4.4 22.2 6.1 34 4.7"/><path class="p" d="m77.3 53.8c7.9-1 15.8-3.4 23.3-7.2"/><path class="q" d="m101.9 45.2c7.4-3.6 14.5-8.8 20.6-15.7-6.1 7.1-13.2 12.8-20.7 17.2q0-0.7 0.1-1.5z"/><path class="r" d="m70.1 66.4c-7.8 1.4-15.7 1.6-23.4 0.7q0.7-1.6 1.5-3.2c7.4 1.1 15 1 22.6-0.2q-0.3 1.4-0.7 2.7z"/><path class="s" d="m53.8 67.6c-12.7-0.3-25.2-3.7-36.3-9.8q1.4-1.8 2.8-3.5c10.5 6.1 22.5 9.7 34.8 10.3q-0.6 1.5-1.3 3z"/><g clip-path="url(#cp1)"><g clip-path="url(#cp2)"><path class="t" d="m101.9 53.3c-10.9 7.6-23.2 12.1-35.6 13.7q0.5-1.4 0.9-2.8c12-1.3 24.1-5.4 34.8-12.6q0 0.9-0.1 1.7z"/></g></g><g clip-path="url(#cp3)"><g clip-path="url(#cp4)"><path class="t" d="m117.9 37.2c-9.1 10-20.1 17-31.6 21.1q0.2-1.1 0.4-2.2c11.3-3.7 22-10.3 31.1-19.9q0 0.5 0.1 1z"/></g></g><g clip-path="url(#cp5)"><g clip-path="url(#cp6)"><path class="u" d="m86.5 58.3c-11.5 4.1-23.7 5.4-35.3 3.9q0.7-1.6 1.4-3.1c11.2 1.7 23 0.7 34.2-3q-0.1 1.1-0.3 2.2z"/></g></g><g clip-path="url(#cp7)"><g clip-path="url(#cp8)"><path class="v" d="m53.7 62.5c-11.6-1.1-22.9-4.9-32.7-11.1q1.4-1.8 2.7-3.6c9.3 6.3 20 10.3 31.3 11.6q-0.6 1.5-1.3 3.1z"/></g></g><g clip-path="url(#cp9)"><g clip-path="url(#cp10)"><path class="w" d="m60.8 57.9c-15.2-1-29.5-6.8-40.7-16.6q1.5-1.8 3-3.6c10.4 9.8 24.1 15.9 38.7 17.3q-0.5 1.4-1 2.9z"/></g></g><g clip-path="url(#cp11)"><g clip-path="url(#cp12)"><path class="x" d="m92.6 52.6c-12 5-24.8 6.4-37 4.8q0.7-1.6 1.3-3.1c11.6 2 24.1 0.9 35.9-3.6q-0.1 0.9-0.2 1.9z"/></g></g><g clip-path="url(#cp13)"><g clip-path="url(#cp14)"><path class="y" d="m114.7 38.6c-6.9 6.3-14.5 11-22.5 14.2q0.2-1 0.3-2c7.8-2.9 15.3-7.3 22.2-13.2q0 0.5 0 1z"/></g></g><path class="a" d="m2.2 36.1c9 11.1 20.8 19.1 34 23.5"/><path class="z" d="m9.4 43.8c7.8 7.2 16.9 12.5 26.8 15.8"/><path class="A" d="m8.3 48.5c-2.5-3.9-4.5-8-6.1-12.4q5.9 3.5 11.9 6.1-2.9 3.2-5.8 6.3z"/><path class="B" d="m24.4 54.5c11.2 6 23.9 9.1 36.8 8.9"/><path class="C" d="m61.2 63.4c6.6-0.1 13.3-1 19.8-2.9"/><path class="D" d="m114.3 41.8c-9.6 9.6-20.9 16.1-32.7 19.8q0.3-1.4 0.6-2.7c11.5-3.2 22.6-9.3 32-18.4q0.1 0.7 0.1 1.3z"/><path class="a" d="m0 17c5.4 12.9 14.3 23.4 25.2 30.7"/><path class="b" d="m4.6 26.1c5.3 8.8 12.4 16.1 20.6 21.6"/><path class="c" d="m2.3 31.1c-1.3-4.5-2.1-9.2-2.3-14.1q4.6 4.4 9.4 8-3.5 3.1-7.1 6.1z"/><path class="d" d="m16.5 58.2c8.2 4.5 17.1 7.6 26.3 9.1"/><path class="e" d="m16.3 64.5c-5.1-4.4-9.6-9.7-13.1-15.6 6.6 2.8 13.2 5 19.9 6.4q-3.3 4.6-6.8 9.2z"/><path class="f" d="m42.8 67.3c13.3 2.1 27.2 0.8 40.4-3.9"/><path class="g" d="m83.2 63.4c6.7-2.5 13.2-5.8 19.3-10.1"/><path class="h" d="m103.3 51.9c7.2-4.8 13.8-11.2 19.3-18.9-5.5 8-12.1 14.9-19.4 20.5q0.1-0.8 0.1-1.6z"/><path class="i" d="m13.7 38c9.2 9.7 21.1 16.3 34 19.4"/><path class="j" d="m47.7 57.4c5.8 1.3 11.7 1.9 17.7 1.8"/><path class="k" d="m65.5 59.2c12.3-0.2 24.8-3.6 36.2-10.4"/><path class="l" d="m103.1 47.2c7.9-4.5 15.3-10.9 21.5-19.2-6.2 8.4-13.5 15.4-21.5 20.7q0-0.7 0-1.5z"/><path class="m" d="m20.9 33c6.1 6.9 13.8 12.4 22.4 16.1"/><path class="n" d="m19.5 37.6c-1.8-3.8-3.3-7.8-4.3-12.1q4.8 3.3 9.8 5.8-2.7 3.2-5.5 6.3z"/><path class="o" d="m43.3 49.1c10.4 4.4 22.2 6.1 34 4.7"/><path class="p" d="m77.3 53.8c7.9-1 15.8-3.4 23.3-7.2"/><path class="q" d="m101.9 45.2c7.4-3.6 14.5-8.8 20.6-15.7-6.1 7.1-13.2 12.8-20.7 17.2q0-0.7 0.1-1.5z"/><path class="r" d="m70.1 66.4c-7.8 1.4-15.7 1.6-23.4 0.7q0.7-1.6 1.5-3.2c7.4 1.1 15 1 22.6-0.2q-0.3 1.4-0.7 2.7z"/><path class="s" d="m53.8 67.6c-12.7-0.3-25.2-3.7-36.3-9.8q1.4-1.8 2.8-3.5c10.5 6.1 22.5 9.7 34.8 10.3q-0.6 1.5-1.3 3z"/><g clip-path="url(#cp15)"><g clip-path="url(#cp16)"><path class="t" d="m101.9 53.3c-10.9 7.6-23.2 12.1-35.6 13.7q0.5-1.4 0.9-2.8c12-1.3 24.1-5.4 34.8-12.6q0 0.9-0.1 1.7z"/></g></g><g clip-path="url(#cp17)"><g clip-path="url(#cp18)"><path class="t" d="m117.9 37.2c-9.1 10-20.1 17-31.6 21.1q0.2-1.1 0.4-2.2c11.3-3.7 22-10.3 31.1-19.9q0 0.5 0.1 1z"/></g></g><g clip-path="url(#cp19)"><g clip-path="url(#cp20)"><path class="u" d="m86.5 58.3c-11.5 4.1-23.7 5.4-35.3 3.9q0.7-1.6 1.4-3.1c11.2 1.7 23 0.7 34.2-3q-0.1 1.1-0.3 2.2z"/></g></g><g clip-path="url(#cp21)"><g clip-path="url(#cp22)"><path class="v" d="m53.7 62.5c-11.6-1.1-22.9-4.9-32.7-11.1q1.4-1.8 2.7-3.6c9.3 6.3 20 10.3 31.3 11.6q-0.6 1.5-1.3 3.1z"/></g></g><g clip-path="url(#cp23)"><g clip-path="url(#cp24)"><path class="w" d="m60.8 57.9c-15.2-1-29.5-6.8-40.7-16.6q1.5-1.8 3-3.6c10.4 9.8 24.1 15.9 38.7 17.3q-0.5 1.4-1 2.9z"/></g></g><g clip-path="url(#cp25)"><g clip-path="url(#cp26)"><path class="x" d="m92.6 52.6c-12 5-24.8 6.4-37 4.8q0.7-1.6 1.3-3.1c11.6 2 24.1 0.9 35.9-3.6q-0.1 0.9-0.2 1.9z"/></g></g><g clip-path="url(#cp27)"><g clip-path="url(#cp28)"><path class="y" d="m114.7 38.6c-6.9 6.3-14.5 11-22.5 14.2q0.2-1 0.3-2c7.8-2.9 15.3-7.3 22.2-13.2q0 0.5 0 1z"/></g></g><path class="a" d="m2.2 36.1c9 11.1 20.8 19.1 34 23.5"/><path class="z" d="m9.4 43.8c7.8 7.2 16.9 12.5 26.8 15.8"/><path class="A" d="m8.3 48.5c-2.5-3.9-4.5-8-6.1-12.4q5.9 3.5 11.9 6.1-2.9 3.2-5.8 6.3z"/><path class="B" d="m24.4 54.5c11.2 6 23.9 9.1 36.8 8.9"/><path class="C" d="m61.2 63.4c6.6-0.1 13.3-1 19.8-2.9"/><path class="D" d="m114.3 41.8c-9.6 9.6-20.9 16.1-32.7 19.8q0.3-1.4 0.6-2.7c11.5-3.2 22.6-9.3 32-18.4q0.1 0.7 0.1 1.3z"/><g clip-path="url(#cp29)"><path class="E" d="m65 51.8l-3-32.7 14.6-6.6-5.4 39.8z"/></g><g clip-path="url(#cp30)"><path class="F" d="m71 23.4h-4.9v-2.4h4.9z"/><path class="F" d="m71.1 27.7h-4.9v-2.4h4.8z"/><path class="F" d="m71.1 32.1h-4.8l-0.1-2.4h4.9z"/><path class="F" d="m71.2 36.4h-4.9v-2.4h4.9z"/><path class="F" d="m71.2 40.8h-4.8l-0.1-2.4h4.9z"/><path class="F" d="m71.3 45.1h-4.9v-2.4h4.9z"/></g><g clip-path="url(#cp31)"><path class="E" d="m76.8 23.4h-3.4v-0.7h3.4z"/><path class="E" d="m76.8 22h-3.4v0.2h3.4z"/><path class="E" d="m76.8 23.4h-0.1v-1.4h0.1z"/><path class="E" d="m76.3 27.7h-3.4v-0.7h3.4z"/><path class="E" d="m76.3 26.4h-3.4v0.1h3.4z"/><path class="E" d="m76.3 27.7h-0.1v-1.3h0.1z"/><path class="E" d="m75.7 32.1h-3.4v-0.7h3.4z"/><path class="E" d="m75.7 30.7h-3.4v0.1h3.4z"/><path class="E" d="m75.7 32.1h-0.1v-1.4h0.1z"/><path class="E" d="m75.1 36.4h-3.4v-0.7h3.4z"/><path class="E" d="m75.1 35h-3.4v0.1h3.4z"/><path class="E" d="m75.1 36.4h-0.1v-1.4h0.1z"/><path class="E" d="m74.7 40.8h-3.4v-0.7h3.4z"/><path class="E" d="m74.7 39.4h-3.4v0.1h3.4z"/><path class="E" d="m74.7 40.8h-0.1v-1.4h0.1z"/><path class="E" d="m73.9 45.1h-2.4v-0.7h2.4z"/><path class="E" d="m73.9 43.7h-2.4v0.1h2.4z"/><path class="E" d="m73.9 45.1h-0.1v-1.4h0.1z"/><path class="G" d="m68.6 20.7v26"/><path class="E" d="m76.8 23.4h-3.4v-0.7h3.4z"/><path class="E" d="m76.8 22h-3.4v0.2h3.4z"/><path class="E" d="m76.8 23.4h-0.1v-1.4h0.1z"/><path class="E" d="m76.3 27.7h-3.4v-0.7h3.4z"/><path class="E" d="m76.3 26.4h-3.4v0.1h3.4z"/><path class="E" d="m76.3 27.7h-0.1v-1.3h0.1z"/><path class="E" d="m75.7 32.1h-3.4v-0.7h3.4z"/><path class="E" d="m75.7 30.7h-3.4v0.1h3.4z"/><path class="E" d="m75.7 32.1h-0.1v-1.4h0.1z"/><path class="E" d="m75.1 36.4h-3.4v-0.7h3.4z"/><path class="E" d="m75.1 35h-3.4v0.1h3.4z"/><path class="E" d="m75.1 36.4h-0.1v-1.4h0.1z"/><path class="E" d="m74.7 40.8h-3.4v-0.7h3.4z"/><path class="E" d="m74.7 39.4h-3.4v0.1h3.4z"/><path class="E" d="m74.7 40.8h-0.1v-1.4h0.1z"/><path class="E" d="m73.9 45.1h-2.4v-0.7h2.4z"/><path class="E" d="m73.9 43.7h-2.4v0.1h2.4z"/><path class="E" d="m73.9 45.1h-0.1v-1.4h0.1z"/><path class="G" d="m68.6 20.7v26"/><path fill-rule="evenodd" class="E" d="m75.8 47.3h4.8l-2.1-2.2h-0.5z"/><path fill-rule="evenodd" class="E" d="m83.8 47h-3.7l-0.3 1.7 0.3 1.9h3.7z"/><path fill-rule="evenodd" class="H" d="m76.6 47l1.7-1.7 1.8 1.7v3.6h-3.5z"/><path fill-rule="evenodd" class="E" d="m84.2 47.3h-3.9l-2.3-2.2h4z"/><path class="E" d="m78.1 45.2q0-0.1 0-0.1-0.1-0.1-0.1 0l-2.3 2.2q0 0 0 0.1 0.1 0 0.1 0z"/><path class="H" d="m84.2 47.4q0.1 0 0.1-0.1 0-0.1-0.1-0.1h-3.9q-0.1 0-0.1 0.1 0 0.1 0.1 0.1z"/><path class="E" d="m80.2 47.4q0.1 0 0.1 0 0.1-0.1 0-0.1l-2.2-2.2q-0.1-0.1-0.1 0-0.1 0 0 0.1z"/><path fill-rule="evenodd" class="H" d="m83.3 47.9h-0.9v1.6h0.9z"/><path fill-rule="evenodd" class="F" d="m82.4 49.5h0.8v-1.5h-0.8z"/><path fill-rule="evenodd" class="H" d="m81.9 47.9h-1.2v2.7h1.2z"/><path fill-rule="evenodd" class="F" d="m80.7 50.6h1.1v-2.6h-1.1z"/><path fill-rule="evenodd" class="E" d="m77.6 47.8h0.6v1.1h-0.6z"/><path fill-rule="evenodd" class="F" d="m78.2 48.9h-0.5v-1h0.5z"/><path fill-rule="evenodd" class="E" d="m78.5 47.8h0.6v1.1h-0.6z"/><path fill-rule="evenodd" class="F" d="m79.1 48.9h-0.5v-1h0.5z"/><path class="E" d="m37.6 48.6h14.6c0 0-1-11.3-1.3-25.2-0.3-16.4 1-23.3 1-23.3h-14c0 0-1.4 3.8-1.6 19-0.3 15.1 1.3 29.5 1.3 29.5z"/><path class="H" d="m33.2 3.5v45.1h4.3v-1.1c-0.7 0-1.5 0-2.4-0.2v-0.6c0.9 0.1 1.8 0.2 2.4 0.2v-1.7c-0.6 0-1.5-0.1-2.4-0.2v-0.6c0.9 0.1 1.8 0.1 2.4 0.2v-1.8c-0.6 0-1.5 0-2.4-0.1v-0.6c0.9 0.1 1.8 0.1 2.4 0.1v-1.7c-0.6 0-1.5-0.1-2.4-0.1v-0.6c0.9 0 1.8 0 2.4 0l0.1-1.7q-0.4 0-1 0-0.7 0-1.5 0v-0.6c1 0 1.8 0 2.5 0v-1.8c-0.6 0.1-1.5 0.1-2.5 0.1v-0.6c1-0.1 1.9-0.1 2.5-0.1v-1.7c-0.6 0-1.5 0-2.5 0.1v-0.6c1-0.1 1.9-0.1 2.5-0.1v-1.8c-0.6 0-1.5 0.1-2.5 0.2v-0.6c1-0.1 1.9-0.2 2.5-0.2v-1.7c-0.6 0-1.5 0.1-2.5 0.2v-0.6c1-0.2 1.9-0.2 2.5-0.3v-1.7c-0.5 0-1.5 0.1-2.5 0.3v-0.6c1-0.2 2-0.3 2.6-0.3v-1.8c-0.6 0.1-1.6 0.2-2.6 0.4v-0.6c1.1-0.3 2-0.4 2.6-0.4v-1.7c-0.6 0-1.5 0.1-2.6 0.4v-0.6c1.1-0.3 2-0.4 2.6-0.5v-1.7c-0.6 0.1-1.5 0.2-2.6 0.5v-0.6c1.1-0.4 2-0.5 2.6-0.5v-1.8c-0.5 0.1-1.5 0.2-2.6 0.6v-0.6c1.1-0.4 2.1-0.5 2.6-0.6v-1.7c-0.5 0-1.5 0.2-2.6 0.7v-0.7c1.2-0.5 2.1-0.6 2.6-0.7v-1.7c-0.5 0.1-1.4 0.2-2.6 0.8v-0.7c1.2-0.5 2.1-0.7 2.7-0.7v-1.8c-0.5 0.1-1.5 0.3-2.7 0.9v-0.7c1.2-0.6 2.2-0.7 2.7-0.8v-1.7c-0.5 0-1.5 0.2-2.7 0.9v-0.7c1.2-0.6 2.2-0.8 2.7-0.9v-1.7c-0.3 0-0.7 0.1-1.2 0.3q-0.6 0.2-1.5 0.7v-0.7c1.3-0.7 2.2-0.9 2.7-0.9v-1.8c-0.4 0.1-1.4 0.3-2.7 1.1v-0.7c1.3-0.8 2.3-1 2.7-1v-2c0 0-2.9 0.5-4.1 2 0 0-0.4 0.7-0.5 1.5zm0.3 2.8q0.5-0.5 1-0.8v0.8q-0.5 0.4-1 0.8zm0 2.5q0.5-0.4 1-0.7v0.8q-0.5 0.4-1 0.8zm0 2.5q0.5-0.4 1-0.7v0.8q-0.5 0.3-1 0.7zm0 2.5q0.5-0.3 1-0.6v0.8q-0.5 0.2-1 0.6zm0 2.5q0.5-0.3 1-0.5v0.7q-0.5 0.3-1 0.6zm0 2.5q0.5-0.3 1-0.5v0.8q-0.5 0.2-1 0.4zm0 2.5q0.5-0.2 1-0.4v0.8q-0.5 0.1-1 0.4zm0 2.5q0.5-0.2 1-0.4v0.8q-0.5 0.1-1 0.3zm0 2.5q0.5-0.2 1-0.3v0.8q-0.5 0.1-1 0.2zm0 2.5q0.5-0.1 1-0.2v0.7q-0.5 0.1-1 0.2zm0 2.5q0.5-0.1 1-0.1v0.7q-0.5 0-1 0.1zm0 2.5q0.5 0 1-0.1v0.7q-0.5 0.1-1 0.1zm0 2.5q0.5 0 1 0v0.7q-0.5 0-1 0zm0 2.5q0.5 0 1 0.1v0.7q-0.5-0.1-1-0.1zm0 2.4q0.5 0.1 1 0.2v0.7q-0.5 0-1-0.1zm0 2.4q0.5 0.2 1 0.3v0.7q-0.5-0.1-1-0.2zm0 2.4q0.5 0.2 1 0.3v0.8q-0.5-0.1-1-0.3zm0-42.2q0.5-0.5 1-0.8v0.8q-0.5 0.4-1 0.9z"/><path class="F" d="m44.2 6.8c-1.2 0-2.5 0-3.8 0-0.2 0-0.4-0.2-0.4-0.4v-1.9c0-0.2 0.2-0.4 0.4-0.4 1.3-0.1 2.7-0.1 4-0.1 0.2 0 0.4 0.3 0.4 0.5q-0.1 0.9-0.2 1.9c0 0.2-0.2 0.4-0.4 0.4z"/><path class="F" d="m44 12.3c-1 0-2.3 0-3.6 0-0.2 0-0.4-0.2-0.4-0.4v-1.9c0-0.3 0.2-0.5 0.4-0.5 1.3 0 2.6 0 3.7 0 0.2 0 0.3 0.2 0.3 0.5q0 0.9-0.1 1.9c0 0.2-0.1 0.4-0.3 0.4z"/><path class="F" d="m43.9 17.8c-0.9 0-2.2 0-3.5 0-0.2 0-0.4-0.2-0.4-0.5q0-0.9 0-1.9c0-0.2 0.2-0.4 0.4-0.4 1.3 0 2.6 0 3.5 0 0.2 0 0.3 0.2 0.3 0.4q0 1-0.1 1.9c0 0.3-0.1 0.5-0.2 0.5z"/><path class="F" d="m43.8 23.2c-0.8 0-2.1 0-3.4 0-0.2 0-0.4-0.2-0.4-0.4v-1.9c0-0.2 0.2-0.4 0.4-0.4 1.3 0 2.6 0 3.4 0 0.2 0 0.3 0.2 0.3 0.4q0 1 0 1.9c0 0.2-0.1 0.4-0.3 0.4z"/><path class="F" d="m43.9 28.7c-0.9 0-2.2 0-3.5 0-0.2 0-0.4-0.2-0.4-0.4v-1.9c0-0.3 0.2-0.5 0.4-0.5 1.3 0 2.6 0.1 3.5 0.1 0.1 0 0.2 0.1 0.2 0.4q0.1 0.9 0.1 1.9c0 0.2-0.1 0.4-0.3 0.4z"/><path class="F" d="m44.1 34.2c-1.1 0-2.4 0-3.7 0-0.2 0-0.4-0.2-0.4-0.5v-1.8c0-0.3 0.2-0.5 0.4-0.5 1.3 0 2.6 0.1 3.6 0 0.2 0 0.3 0.2 0.3 0.5q0.1 0.9 0.1 1.8c0 0.3-0.1 0.5-0.3 0.5z"/><path class="F" d="m44.4 39.7c-1.4 0-2.7 0-4 0-0.2 0-0.4-0.2-0.4-0.5q0-0.9 0-1.9c0-0.2 0.2-0.4 0.4-0.4 1.3 0 2.6 0.1 3.8 0 0.2 0 0.4 0.2 0.4 0.4q0.1 1 0.2 1.9c0 0.3-0.2 0.5-0.4 0.5z"/><path class="F" d="m49.3 6.8c-1.2 0-2.5 0-3.8 0-0.2 0-0.4-0.2-0.4-0.4v-1.9c0-0.2 0.2-0.4 0.4-0.4 1.3-0.1 2.6-0.1 3.9-0.1 0.3 0 0.5 0.3 0.4 0.5q0 0.9-0.1 1.9c0 0.2-0.2 0.4-0.4 0.4z"/><path class="F" d="m49.1 12.3c-1 0-2.3 0-3.6 0-0.2 0-0.4-0.2-0.4-0.4v-1.9c0-0.3 0.2-0.5 0.4-0.5 1.3 0 2.6 0 3.7 0 0.2 0 0.3 0.2 0.3 0.5q-0.1 0.9-0.1 1.9c0 0.2-0.2 0.4-0.3 0.4z"/><path class="F" d="m48.9 17.8c-0.8 0-2.1 0-3.4 0-0.2 0-0.4-0.2-0.4-0.5q0-0.9 0-1.9c0-0.2 0.2-0.4 0.4-0.4 1.3 0 2.6 0 3.5 0 0.2 0 0.3 0.2 0.3 0.4q-0.1 1-0.1 1.9c0 0.3-0.1 0.5-0.3 0.5z"/><path class="F" d="m48.9 23.2c-0.8 0-2.1 0-3.4 0-0.2 0-0.4-0.2-0.4-0.4v-1.9c0-0.2 0.2-0.4 0.4-0.4 1.3 0 2.6 0 3.4 0 0.2 0 0.3 0.2 0.3 0.4q0 1 0 1.9c0 0.2-0.1 0.4-0.3 0.4z"/><path class="F" d="m49 28.7c-0.9 0-2.2 0-3.5 0-0.2 0-0.4-0.2-0.4-0.4v-1.9c0-0.3 0.2-0.5 0.4-0.5 1.3 0 2.6 0.1 3.4 0.1 0.2 0 0.3 0.1 0.3 0.4q0 0.9 0.1 1.9c0 0.2-0.1 0.4-0.3 0.4z"/><path class="F" d="m49.2 34.2c-1.1 0-2.4 0-3.7 0-0.2 0-0.4-0.2-0.4-0.5q0-0.9 0-1.8c0-0.3 0.2-0.5 0.4-0.5 1.3 0 2.6 0.1 3.6 0 0.1 0 0.3 0.2 0.3 0.5q0 0.9 0.1 1.8c0 0.3-0.1 0.5-0.3 0.5z"/><path class="F" d="m49.4 39.7c-1.3 0-2.6 0-3.9 0-0.2 0-0.4-0.2-0.4-0.5q0-0.9 0-1.9c0-0.2 0.2-0.4 0.4-0.4 1.3 0 2.6 0.1 3.8 0 0.2 0 0.4 0.2 0.4 0.4q0.1 1 0.1 1.9c0.1 0.3-0.1 0.5-0.4 0.5z"/><path fill-rule="evenodd" class="E" d="m100.6 39.1h-11.6l-0.7 5.1 0.7 5.9h11.6z"/><path fill-rule="evenodd" class="H" d="m82.1 39.1l3.4-3.3 3.5 3.3v11h-6.9z"/><path fill-rule="evenodd" class="E" d="m100.6 39.1h-11.6l-3.5-3.3h11.7z"/><path fill-rule="evenodd" class="F" d="m95.3 44h-0.9v-1h0.9zm4 0h-0.9v-1h0.9zm-4 2.1h-0.9v-1h0.9zm4 0h-0.9v-0.9h0.9zm-4 2.1h-0.9v-1h0.9zm4 0h-0.9v-1h0.9zm-2 0h-0.9v-0.9h0.9zm0-2.1h-0.9v-1h0.9zm-2-4.2h-0.9v-0.9h0.9zm4 0h-0.9v-1h0.9zm-2 0h-0.9v-1h0.9zm-0.9 1.2h0.9v0.9h-0.9z"/><path fill-rule="evenodd" class="F" d="m95.2 44h-0.8v-0.9h0.8zm4 0h-0.8v-0.8h0.8zm-4 2.1h-0.8v-0.8h0.8zm4 0h-0.8v-0.8h0.8zm-4 2.1h-0.8v-0.8h0.8zm4 0h-0.8v-0.9h0.8zm-2 0h-0.8v-0.8h0.8zm0-2h-0.8v-0.9h0.8zm-2-4.1h-0.8v-0.8h0.8zm4 0h-0.8v-0.8h0.8zm-2 0h-0.8v-0.9h0.8zm-0.8 1.3h0.8v0.8h-0.8z"/><path fill-rule="evenodd" class="H" d="m93 46h-4v-0.9h4zm0-2.1h-4v-1h4zm0 4.2h-4v-1h4zm0-6.2h-4v-1h4z"/><path fill-rule="evenodd" class="F" d="m92.8 45.2h-3.8v0.8h3.8zm0-2h-3.8v0.8h3.8zm0 4.1h-3.8v0.8h3.8zm-3.8-5.4h3.8v-0.8h-3.8z"/><path fill-rule="evenodd" class="E" d="m86.6 46h2.4v-0.9h-2.4zm0-2.1h2.4v-1h-2.4zm0 4.2h2.4v-1h-2.4zm0-6.2h2.4v-1h-2.4z"/><path fill-rule="evenodd" class="F" d="m86.8 46h2.2v-0.8h-2.2zm0-2.1h2.2v-0.8h-2.2zm0 4.2h2.2v-0.8h-2.2zm2.2-7.1h-2.2v0.8h2.2z"/><path fill-rule="evenodd" class="F" d="m82.8 43h1v1h-1zm0 2h1v1h-1zm0 2.1h1v1h-1zm2 0h1v0.9h-1zm0-2.1h1v1h-1zm-2-4.2h1v1h-1zm2 0h1v1h-1zm1 3h-1v-0.9h1z"/><path fill-rule="evenodd" class="F" d="m83 43.1h0.8v0.9h-0.8zm0 2h0.8v0.8h-0.8zm0 2.1h0.8v0.8h-0.8zm2 0h0.8v0.9h-0.8zm0-2.1h0.8v0.8h-0.8zm-2-4.2h0.8v0.8h-0.8zm2 0h0.8v0.8h-0.8zm0.8 2.9h-0.8v-0.8h0.8z"/><path class="E" d="m26.6 23.2c0 0.3-0.2 0.6-0.6 0.6-0.3 0-0.5-0.3-0.5-0.6 0-0.3 0.2-0.6 0.5-0.6 0.4 0 0.6 0.3 0.6 0.6z"/><path class="E" d="m34.3 28.7c0 0.5-0.3 0.9-0.8 0.9-0.5 0-0.9-0.4-0.9-0.9 0-0.5 0.4-0.8 0.9-0.8 0.5 0 0.8 0.3 0.8 0.8z"/><path class="E" d="m32.9 22.3c0 0.8-0.6 1.4-1.4 1.4-0.8 0-1.5-0.6-1.5-1.4 0-0.9 0.7-1.5 1.5-1.5 0.8 0 1.4 0.6 1.4 1.5z"/><path class="E" d="m26.6 17.3c0 0.8-0.6 1.4-1.4 1.4-0.8 0-1.5-0.6-1.5-1.4 0-0.9 0.7-1.5 1.5-1.5 0.8 0 1.4 0.6 1.4 1.5z"/><path class="E" d="m31.4 10.5c0 1.8-1.4 3.1-3.1 3.1-1.7 0-3-1.3-3-3.1 0-1.7 1.3-3.1 3-3.1 1.7 0 3.1 1.4 3.1 3.1z"/><path class="E" d="m34.3 13.7c0 0.5-0.4 0.8-0.9 0.8-0.5 0-0.9-0.3-0.9-0.8 0-0.5 0.4-0.9 0.9-0.9 0.5 0 0.9 0.4 0.9 0.9z"/><path class="E" d="m28.3 10.8l0.9 26.8h-1.7z"/><path class="E" d="m33.4 28.9l-5 2-0.2-0.5z"/><path class="E" d="m23.8 23.3l5 4.6-0.9 0.8z"/><path class="E" d="m25.1 17l3.5 6.7-0.5 0.2z"/><path class="E" d="m26 22.8l0.7 3.3-0.6 0.1z"/><path class="E" d="m31.6 22.1l-3 4.4-0.5-0.3z"/><path class="E" d="m33.9 13.1l-5.3 6.8-0.5-0.4z"/><path class="E" d="m31.1 27.4l-1.5 3.1-0.5-0.3z"/><path class="E" d="m31.7 27.4c0 0.3-0.3 0.6-0.6 0.6-0.3 0-0.6-0.3-0.6-0.6 0-0.3 0.3-0.6 0.6-0.6 0.3 0 0.6 0.3 0.6 0.6z"/><path class="I" d="m50.1 14.8l1.7 4.2c0 0 0.3 3.7 0.4 6.5 0 0.2 0.3 0.8 0.3 0.8l0.7 27.3c0 0 1.9 1.3 5.3 1.3 3.3 0 3.5-0.8 3.5-0.8l1.5-29.1c0 0 0-4.6 0.7-6.4 0.7-1.7 1.7-3.3 1.7-3.3 0 0 0.3-2.9-2.5-4.9-1.1-0.8-2.7-1.9-5-1.9-8.2 0-8.3 6.3-8.3 6.3z"/><path class="J" d="m52.5 26.1c0 0-0.7-1 0.3-2.1 0.4-0.4 0.8-0.6 0.8-0.6l0.2 11.3c0 0-0.2 0.2-0.6 0.5-0.3 0.3-0.5 0.7-0.5 0.7z"/><path class="K" d="m59.4 22.5l-0.1 11.7-0.3 20h-1.1l0.1-29.2z"/><path class="L" d="m53.9 23.2l3.2 1.8 0.3 29.2-2.9-0.3z"/><path class="M" d="m62.3 37.4h0.3c0 0-0.3-0.6-1.3-0.9-1.1-0.3-1.7-0.3-1.7-0.3v0.2c0 0 1 0 1.7 0.4 0.6 0.3 1 0.6 1 0.6z"/><path class="N" d="m52.8 38h0.4c0 0-0.1-0.2-0.1-0.5 0-0.2 0.5-0.5 0.6-0.6q0.2-0.1 0.2-0.1l-0.1-2.1c0 0-0.8 0.6-0.9 0.9-0.2 0.3-0.2 0.5-0.2 0.5v1.4c0 0 0 0 0.1 0.2z"/><path class="M" d="m53.8 36.6c0 0-0.4 0.1-0.8 0.4-0.3 0.2-0.3 0.5-0.3 0.5l0.1 0.5h0.4c0 0-0.2-0.5 0-0.6 0.2-0.2 0.7-0.6 0.7-0.6z"/><path class="O" d="m59.4 22.5l0.5 0.1-0.3 31.6h-0.6z"/><path class="P" d="m53.9 23.2c0 0 0.8-0.7 2.8-0.8 1.9-0.1 2.7 0.1 2.7 0.1l-1.4 2.5h-0.9z"/><path class="P" d="m59.9 22.6c0 0 1.6 0.2 2.7 1.2 0.8 0.8 0.9 1.4 0.9 1.4l-3.6 0.3z"/><path class="P" d="m53.7 25.8l-1.2 0.3c0 0-0.7-1.1 0.3-2.1 1.1-1.1 0.8-0.6 0.8-0.6z"/><path class="K" d="m58 54.2h-0.9v-29.2h0.9z"/><path class="E" d="m54.3 34.6v1.9c0 0 0.3-0.4 3.2-0.4 1.8 0 1.7 0.1 1.7 0.1l0.1-2c0 0-0.7-0.1-2.3-0.1-1.7 0.1-2.7 0.5-2.7 0.5z"/><path class="M" d="m54.3 36.5l0.6 0.1c0 0 0.7-0.3 2.6-0.3 1.9 0 1.7 0.1 1.7 0.1v-0.2c0 0-0.6-0.2-2.5-0.1-1.9 0.1-2.4 0.4-2.4 0.4z"/><path class="Q" d="m50.1 14.8l1.2 3.1c0 0 1.5-3.6 6.7-3.6q0.2 0 0.4 0.1c4.8 0.1 6.1 3.7 6.1 3.7l1.4-2.8c0 0 0.3-2.5-1.8-4.5-1.1-1.1-3.4-2.3-5.7-2.3 0 0-3.3-0.2-5.7 1.6-2.5 1.7-2.6 4.7-2.6 4.7z"/></g><path class="c" d="m105.3 85c-0.1-0.1-0.1-0.2-0.1-0.3 0.2-0.6 0.2-0.6-0.3-0.9q-0.2-0.1-0.4-0.2c-0.1 0-0.1 0-0.2 0-0.2 0.3-0.5 0.5-0.7 0.8-0.2 0.2-0.1 0.3 0.2 0.4 1.2 0.5 2 1.7 2 3.1 0 2.1-2 3.7-4 3.2-1.3-0.4-2-1.2-2.4-2.5 0-0.1 0.1-0.2-0.1-0.2-0.2-0.1-0.3 0-0.5 0.1-0.1 0.1 0 0.3 0 0.3 0.2 0.3 0 0.4-0.1 0.6-0.4 0.4-0.4 0.4-0.1 0.8 0.2 0.5 0.2 0.5 0.8 0.3 0 0 0.2-0.1 0.3 0 0.2 0 0.3 0.4 0.2 0.6-0.1 0.6-0.1 0.6 0.4 0.8 0.5 0.3 0.5 0.3 0.8-0.1 0.2-0.3 0.4-0.1 0.6-0.1 0.2 0 0.2 0.2 0.2 0.3 0.1 0.5 0.1 0.5 0.6 0.5q0.1 0 0.1 0c0.6 0 0.6 0 0.7-0.5 0-0.4 0.3-0.3 0.4-0.4 0.2 0 0.2 0.1 0.3 0.1 0.4 0.5 0.4 0.5 0.9 0.2 0.5-0.3 0.5-0.3 0.3-0.8-0.1-0.3 0.1-0.4 0.2-0.5 0.1-0.2 0.3-0.1 0.4-0.1 0.5 0.2 0.5 0.2 0.8-0.3 0.3-0.5 0.3-0.5-0.1-0.9-0.1 0-0.2-0.1-0.2-0.2q0-0.5 0.5-0.6 0.1 0 0.2 0c0.1 0 0.2-0.1 0.2-0.2 0-0.3 0-0.6 0-0.9 0-0.1-0.1-0.2-0.2-0.2q-0.2 0-0.4-0.1c-0.1 0-0.1 0-0.2 0-0.1-0.3-0.1-0.6 0.1-0.8 0.3-0.2 0.3-0.4 0.2-0.6q-0.1-0.1-0.1-0.1c-0.2-0.5-0.3-0.6-0.9-0.4-0.2 0.1-0.3-0.2-0.4-0.2z"/><path class="c" d="m101 80.1q-0.4 0.6-0.9 1.2c0.7 0 1.2 0 1.8 0 0.3 0 0.3 0.1 0.3 0.3q0 4.5 0 9.1v0.3q0.5-0.3 1-0.5c0.2-0.1 0.2-0.2 0.2-0.4q0-2.1 0-4.2 0-2.2 0-4.4c0-0.2 0.1-0.2 0.2-0.2 0.3 0 0.7 0 1 0 0.1 0 0.2 0 0.2-0.2q0-0.4 0-0.9c0-0.2-0.1-0.2-0.3-0.2q-1.6 0-3.2 0c-0.1 0-0.2 0-0.3 0.1z"/><path class="c" d="m99.8 88c0.5-0.1 1-0.3 1.4-0.7 0.3-0.4 0.5-0.8 0.3-1.3q-1-3-2-6c-0.1-0.2 0-0.3 0.2-0.3q1.3 0 2.6 0c0.3 0 0.6 0.1 0.7 0 0.1-0.2 0-0.5 0-0.7 0.1-0.2 0-0.2-0.2-0.2q-1 0-2.1 0h-1.9c-0.5 0-0.5 0-0.5 0.4 0 0.5 0 0.5 0.4 0.5 0.4 0 0.4 0 0.3 0.3q-1 3-2 6.1c-0.2 0.4-0.1 0.7 0.1 1q0.3 0.3 0.7 0.6c0.6 0.3 1.3 0.4 2 0.3zm-2.3-1.6c-0.2 0-0.2-0.1-0.1-0.2q0.9-2.8 1.8-5.6 0 0 0.1-0.1 0.9 2.8 1.8 5.7c0.1 0.1 0.1 0.2-0.1 0.2q-1.8 0-3.5 0z"/><path class="c" d="m111.3 92.4q0-0.1 0-0.2-0.3-0.3-0.5 0c0 0.2 0 0.3-0.1 0.4-0.1-0.1-0.1-0.3-0.1-0.4q0 0 0 0c-0.1-0.2-0.3-0.3-0.4-0.3-0.1 0.1-0.1 0.3-0.1 0.4q0 1.5 0 2.9c0 0.8 0 1.6-0.4 2.4q0 0.1 0 0.3c0 0.1 0 0.2 0.1 0.2 0.2 0 0.2-0.1 0.2-0.2q0.5-0.7 0.6-1.6c-0.1-0.1-0.1-0.1 0-0.2q0-0.9 0-1.8 0-0.7 0.1-1.4h0.1v1.4q0 1.7 0 3.5c0 0.2 0 0.2 0.2 0.2 0.2 0 0.3 0 0.3-0.2q0-0.4 0-0.9c0-1.5 0-3 0-4.5z"/><path class="c" d="m112 94.8v-1.9q0-0.3 0-0.7-0.3-0.2-0.5 0 0 2.4 0 4.7c0.1 0.2 0.2 0.2 0.4 0.1 0.1 0 0.1-0.2 0.1-0.3q0-0.4 0-0.9z"/><path class="c" d="m112.6 92.1c0-0.3 0-0.3-0.3-0.1-0.1 0-0.1 0.1-0.2 0.2q0 0.3 0.1 0.7v1.9q0 0.5 0 1c0 0.2 0.1 0.4 0.3 0.4 0.2-0.1 0.2-0.3 0.2-0.4q0-0.3 0-0.5c-0.1-1 0-2.1-0.1-3.2z"/><path class="c" d="m113.2 91.7c0-0.1 0-0.2-0.1-0.2 0 0-0.4 0.3-0.4 0.4 0.1 0.5 0.1 1.1 0.1 1.7q0 0.5 0 1c0 0.2 0.1 0.3 0.3 0.3 0.2 0.1 0.2-0.1 0.2-0.3 0-0.4 0-0.8 0-1.2q0-0.8-0.1-1.7z"/><path class="c" d="m115.8 76.3c0-0.5 0-0.5-0.4-0.5h-9.8q-4.9 0-9.8 0c-0.3 0-0.3 0.1-0.3 0.4q0 8.4 0 16.8c0 0.5-0.1 1 0 1.5q0.5 2.9 2.7 5c3.2 3.2 8.3 3.9 12.4 1.8 2.6-1.4 4.3-3.5 5-6.3 0.2-0.8 0.2-1.5 0.2-2.2q0-8.3 0-16.5zm-1 8.3q0 4.1 0 8.1c0 2.9-1.2 5.2-3.4 6.9q-1.1 0.8-2.4 1.2 0 0.1-0.1 0 0-0.1 0-0.2 0-6.7 0-13.5v-0.1c0.1 0 0.2 0.1 0.2 0.2 0.5 0.8 0.8 1.7 0.9 2.7q0 0.2 0 0.4c0.1 0.2 0.1 0.3-0.1 0.4-0.1 0-0.1 0.1-0.1 0.2 0.2 0.7 0.8 1.1 1.6 1 0.8-0.1 1.5-0.5 2.1-1 0.1 0 0.2-0.1 0.1-0.2 0-0.1-0.2-0.2-0.3-0.1-0.2 0-0.2-0.1-0.2-0.2 0.1-1 0.3-1.9 0.9-2.8 0.1-0.2 0.2-0.4 0.3-0.6 0-0.1 0-0.3-0.1-0.3-0.1-0.1-0.2 0.1-0.2 0.2q-1.2 1.6-1.3 3.6 0 0.1 0 0.2c0 0.1 0 0.2 0 0.2-0.2 0-0.1-0.1-0.1-0.2-0.2-0.7-0.1-1.5 0.2-2.2 0.3-1.2 0.8-2.4 1.3-3.6q0.2-0.4 0.4-0.9 0.1-0.2 0.1-0.3c0-0.2 0-0.3-0.1-0.4-0.2 0-0.2 0.1-0.3 0.3q-0.4 1-0.9 2 0 0.1-0.1 0.2 0-0.2 0.1-0.4c0-0.2-0.1-0.2-0.3-0.1-0.2 0.1-0.5 0.2-0.7 0.4q-0.5 0.3-0.6 0.9 0 0 0 0.1c-0.1 0-0.1-0.1-0.1-0.2q0-0.6 0-1.2c0-0.2 0.1-0.3 0.3-0.3 0.7 0 1.1-0.4 1.4-0.9 0.2-0.5 0.3-1 0.3-1.5 0-0.2-0.1-0.3-0.3-0.2-0.6 0-1.1 0.2-1.3 0.8q-0.1 0.1-0.2 0.2c0 0.1 0 0.2-0.1 0.2-0.1-0.1-0.1-0.2-0.1-0.2q0.3-1.5 0.4-2.9 0-0.1 0-0.2c0.1 0 0.2 0.2 0.2 0.2q0.3 0.3 0.7 0.2c0.2-0.1 0.3-0.3 0.3-0.6-0.1-0.2 0-0.3 0.2-0.4 0.2-0.1 0.3-0.4 0.2-0.6 0-0.4-0.2-0.6-0.5-0.6-0.1-0.1-0.2-0.1-0.2-0.3 0.1-0.4 0-0.7-0.3-0.8-0.3-0.1-0.5-0.1-0.8 0.2-0.1 0.2-0.2 0.3-0.5 0.2-0.2-0.1-0.4-0.1-0.6 0.2-0.2 0.3-0.2 0.7 0 1 0.3 0.2 0.3 0.3 0 0.5-0.2 0.3-0.3 0.7-0.1 1q0.3 0.4 1 0.2c0 0.5 0 1.1-0.2 1.6-0.1-0.1-0.1-0.3-0.1-0.4q-0.2-0.6-0.8-0.9-0.1 0-0.1 0c-0.1-0.1-0.2-0.2-0.3-0.1-0.2 0.1-0.1 0.2-0.1 0.4q0 0.3 0.1 0.6c0 0.4 0.2 0.6 0.5 0.7q0.2 0 0.4 0.1c0.3 0.1 0.4 0.3 0.3 0.6-0.1 1.1-0.2 2.1-0.1 3.2q0 0.6 0 1.2c0.1 0.1 0 0.3 0 0.4q0-0.2-0.1-0.4-0.3-2.6-1.4-5-0.4-0.7-0.7-1.4c-0.1-0.1-0.1-0.2-0.1-0.3q0-2 0-4.1c0 0 0-0.2 0.1-0.2q1.7 0 3.3 0 1.1 0 2.2 0c0.3 0 0.3 0 0.3 0.3q0 3.8 0 7.6zm-2.7 6.4c0 0.1 0 0.2-0.2 0.2-0.1 0 0-0.1-0.1-0.2q-0.1-1.5-0.2-3 0-0.1 0-0.3c0-0.5 0-0.5 0.6-0.6 0.2 0 0.4-0.1 0.6-0.3-0.2 0.7-0.4 1.2-0.5 1.8q-0.3 1.2-0.2 2.4zm-0.4-11.9c0-0.2 0.1-0.3 0.3-0.3 0.3 0 0.4 0.1 0.4 0.4 0 0.2-0.2 0.3-0.4 0.3-0.2 0-0.3-0.1-0.3-0.4zm-2.8 3c1.1 1.7 2.4 6.6 2.2 8.5-0.2-1.4-0.4-2.7-0.8-4q-0.5-1.4-1.2-2.7-0.2-0.4-0.2-0.9c0-0.3 0-0.6 0-0.9zm1.8 9.2c-0.1-0.1-0.2-0.6-0.1-0.9q0 0.4 0.1 0.9zm-1.8-6.8c0.7 0.9 1.8 4.6 1.6 5.8 0-0.4-0.1-0.8-0.2-1.1q-0.3-1.6-1.2-2.9-0.2-0.2-0.2-0.4 0-0.7 0-1.4zm-0.5-2c0 0 0-0.1-0.1-0.1q-0.8-1.4-1.8-2.7c-0.1-0.1-0.2-0.4-0.4-0.3-0.1 0.1 0 0.4 0.1 0.5q0.3 0.5 0.7 1c0.5 0.7 1 1.6 1.5 2.4q0 0.1 0.1 0.2 0 1 0 2-0.6-0.7-1.2-1.4-0.2-0.2-0.4-0.5c-0.1 0-0.1-0.1-0.2-0.1-0.1 0.1-0.1 0.2-0.1 0.2q0.1 0.4 0.4 0.7c0.4 0.5 0.9 1 1.3 1.6q0.2 0.1 0.2 0.4 0 3.2 0 6.4c0 0.2-0.1 0.3-0.3 0.3q-5.8 0-11.6 0c-0.2 0-0.2-0.1-0.2-0.3q0-7.9 0-15.8c0-0.2 0-0.3 0.2-0.3q5.8 0 11.6 0c0.2 0 0.3 0 0.3 0.3 0 1 0 2.1 0 3.2-0.2-0.3-0.4-0.5-0.5-0.8-0.1-0.1-0.1-0.2-0.2-0.2-0.1 0.1-0.1 0.2-0.1 0.3q0 0.1 0.1 0.2 0 0.2 0.1 0.4c0.5 0.7 0.7 1.5 0.5 2.4zm0.1 18.3q0 0.2-0.2 0.3c-0.5 0.1-1 0-1.6 0-0.1 0-0.1-0.1-0.1-0.1q0-0.5 0-1.1 0-0.2 0.2-0.2 0.4 0.1 0.8 0.1 0.3 0 0.6-0.1c0.2 0 0.3 0.1 0.3 0.3q0 0.4 0 0.8zm-2.5 0.1c0 0.2 0 0.2-0.2 0.2q-1.3 0-2.6 0c-0.2 0-0.5-0.1-0.7-0.2q-0.1 0-0.1-0.1 0-0.5 0-0.9c0-0.1 0.1-0.2 0.2-0.2q0.8 0.1 1.6 0.1 0.8 0 1.6-0.1c0.2 0 0.2 0.1 0.2 0.3q0 0.5 0 0.9zm-5.2-1.7c-0.2 0-0.3-0.1-0.3-0.3q0-0.5 0-1c0-0.1 0.1-0.2 0.2-0.2q1.7 0 3.3 0c0.1 0 0.2 0.1 0.2 0.2q0 0.5 0 1c0 0.2-0.1 0.3-0.2 0.3q-0.8-0.1-1.7-0.1-0.7 0-1.5 0.1zm1 1.4c-0.1 0.1-0.1 0-0.2 0q-0.8-0.3-1.4-0.8 0.7 0 1.4 0c0.1 0 0.1-0.1 0.2 0 0 0 0 0.8 0 0.8zm4.2-4.9c0.1 0 0.2 0.1 0.2 0.2q0 0.5 0 1 0 0.2-0.2 0.2-1.6 0-3.3 0-0.2 0-0.2-0.2 0.1-0.5 0-0.9c0-0.2 0.1-0.3 0.3-0.3q0.8 0 1.6 0 0.8 0 1.6 0zm2.4 1.2q0 0.2-0.1 0.2-0.8 0-1.5 0-0.2 0-0.2-0.2 0-0.5 0-1 0-0.2 0.2-0.2 0.4 0 0.7 0 0.4 0 0.7 0 0.2 0 0.2 0.2 0 0.5 0 1zm0 2c0 0.2 0 0.3-0.2 0.3q-1.6-0.1-3.2 0-0.2 0-0.2-0.2 0-0.6 0-1.1c0-0.2 0-0.2 0.2-0.2q0.8 0 1.6 0 0.8 0 1.6 0c0.2 0 0.2 0.1 0.2 0.2q0 0.5 0 1zm-3.6-5c0-0.1 0-0.2 0.2-0.2q1.6 0 3.2 0c0.2 0 0.2 0 0.2 0.2q0 0.5 0 1c0 0.2 0 0.2-0.2 0.2q-0.8 0-1.6 0-0.8 0-1.6 0c-0.2 0-0.2 0-0.2-0.2q0-0.5 0-1zm-4.3 0c0-0.2 0.1-0.2 0.2-0.2q1.7 0 3.3 0c0.1 0 0.2 0 0.2 0.2q0 0.5 0 1c0 0.2-0.1 0.2-0.2 0.2q-0.9 0-1.7 0-0.8 0-1.5 0c-0.2 0-0.3 0-0.3-0.2q0-0.5 0-1zm-2 3.2c-0.2 0-0.3 0-0.2-0.3q0-0.4 0-0.9-0.1-0.2 0.1-0.2 1.7 0 3.4 0 0.2 0 0.1 0.2 0 0.5 0 1c0.1 0.2 0 0.2-0.2 0.2q-0.8 0-1.6 0-0.8 0-1.6 0zm1.2 2.1q-0.4 0-0.8-0.4c-0.3-0.3-0.6-0.6-0.9-1.1q0.9 0 1.7 0c0.2 0 0.3 0.1 0.3 0.3q0 0.4 0 0.9c0 0.2-0.1 0.2-0.3 0.3zm-2.8-4.1q-0.2 0-0.3-0.2-0.1-0.5-0.2-1c0-0.2 0.1-0.2 0.2-0.2q0.8 0 1.6 0 0.7 0 1.5 0c0.2 0 0.3 0 0.3 0.3-0.1 0.3-0.1 0.6-0.1 0.9q0.1 0.2-0.2 0.2-1.4 0-2.8 0zm0.7 2q0 0-0.1-0.1-0.3-0.5-0.6-1.2 0-0.1 0.1-0.1 0 0 0.1 0c0.6 0 0.6 0 0.6 0.7q0 0.3 0 0.6c0 0 0 0.1-0.1 0.1zm14.2-12.8c0.1-0.4 0.4-0.8 0.7-1.1q0.1-0.2 0.3-0.4c0.1 0 0.2-0.1 0.3 0 0.1 0 0.1 0.1 0.1 0.2 0 0.6-0.6 1.4-1.1 1.5-0.1 0.1-0.2 0.2-0.3 0.1 0-0.1 0-0.2 0-0.3z"/><path class="c" d="m3.7 83.7q0 0.8-0.8 0.8h-0.7q-0.8 0-0.8-0.8v-7.1q0-0.8 0.8-0.9h0.7q0.8 0.1 0.8 0.9z"/><path class="c" d="m14.1 90.3q0 0.8-0.9 0.8h-6.9q-0.9 0-0.9-0.8v-0.4q0-0.8 0.8-0.8h4.9q0.7 0 0.7-0.6v-10.1q0-0.6-0.7-0.6h-4.8q-0.9 0-0.9-0.8v-0.4q0-0.8 0.8-0.9h7q0.9 0.1 0.9 0.9z"/><path class="c" d="m23.7 90.3q0 0.8-0.9 0.8h-0.6q-0.8 0-0.8-0.8v-5.3c0-0.2-0.4-0.5-0.7-0.5h-1.9c-0.3 0-0.7 0.2-0.7 0.5v5.3q0 0.8-0.8 0.8h-0.7q-0.8 0-0.8-0.8v-6.1q0-0.6 0.4-0.8-0.4-0.2-0.4-0.7v-6.1q0-0.8 0.8-0.9h0.7q0.8 0.1 0.8 0.9v5.3c0 0.2 0.4 0.5 0.7 0.5h1.9c0.3 0 0.7-0.3 0.7-0.5v-5.3q0-0.8 0.8-0.9h0.7q0.8 0.1 0.8 0.9v6.1q0 0.5-0.4 0.7 0.4 0.3 0.4 0.8z"/><path class="c" d="m33.8 90.3q0 0.8-0.9 0.8h-5.5q-0.8 0-0.8-0.8v-2.9q0-0.8 0.8-0.8h0.7q0.8 0 0.8 0.9v1q0 0.6 0.9 0.6h1q0.7 0 0.7-0.6v-10.2q0-0.5-0.7-0.5h-4.8q-0.8 0-0.8-0.8v-3q0-0.9 0.8-0.9h0.6q0.9 0 0.9 0.9v1.7h5.5q0.8 0.1 0.8 0.9z"/><path class="c" d="m44.8 90.3q0 0.8-0.8 0.8h-3.6q-0.8 0-0.8-0.8v-0.4q0-0.8 0.8-0.8h1.4q0.7 0 0.7-0.5v-10.3q0-0.5-0.5-0.5h-3.6q-0.6 0-0.6 0.5v12q0 0.8-0.8 0.8h-0.7q-0.8 0-0.8-0.8v-13.7q0-0.9 0.8-0.9h7.7q0.8 0.1 0.8 0.9z"/><path class="c" d="m62 90.3q0 0.8-0.9 0.8h-0.6q-0.8 0-0.8-0.8v-12q0-0.5-0.7-0.5h-2.4q-0.7 0-0.7 0.5v12q0 0.8-0.8 0.8h-2.9q-0.9 0-0.9-0.8v-0.4q0-0.8 0.8-0.8h0.8q0.7 0 0.7-0.6v-11.9q0-0.8 0.8-0.9h6.7q0.9 0.1 0.9 0.9z"/><path class="c" d="m66 83.7q0 0.8-0.8 0.8h-0.7q-0.8 0-0.8-0.8v-7.1q0-0.8 0.8-0.9h0.7q0.8 0.1 0.8 0.9z"/><path class="c" d="m70.1 83.7q0 0.8-0.9 0.8h-0.7q-0.8 0-0.8-0.8v-7.1q0-0.8 0.9-0.9h0.6q0.9 0.1 0.9 0.9z"/><path class="c" d="m79.3 90.3q0 0.8-0.8 0.8h-0.7q-0.8 0-0.8-0.8v-11.9q0-0.6-0.7-0.6h-4.1q-0.8 0-0.8-0.8v-0.4q0-0.8 0.9-0.9h6.2q0.8 0 0.8 0.9z"/><path class="c" d="m83.4 93.6q0 0.8-0.9 0.8h-0.7q-0.8 0.1-0.8-0.8v-12.5q0-0.8 0.9-0.8h0.6q0.9 0 0.9 0.8zm6.1-3.3q0 0.8-0.8 0.8h-3.5q-0.8 0-0.8-0.8v-0.4q0-0.8 0.8-0.8h1.3q0.8 0 0.7-0.6v-10.2q0.1-0.5-0.7-0.5h-4.6q-0.9 0-0.9-0.8v-0.4q0-0.8 0.8-0.8h6.9q0.8 0 0.8 0.8z"/></g></svg>