<svg version="1.2" xmlns="http://www.w3.org/2000/svg" viewBox="0 0 433 527" width="433" height="527"><style>.a{opacity:1;fill:#274688}.b{opacity:1;fill:#fff}.c{opacity:1;fill:#f9b112}.d{opacity:1;fill:#fab90a}.e{opacity:1;fill:#4ba8ca}.f{opacity:1;fill:#254587}.g{opacity:1;fill:#78c2c5}.h{opacity:1;fill:#264587}.i{opacity:1;fill:#a3ddba}.j{opacity:1;fill:#4eb3ac}.k{opacity:1;fill:#bf935b}.l{opacity:1;fill:#7dcb32}.m{opacity:1;fill:#6dc75a}.n{opacity:1;fill:#f47117}.o{opacity:1;fill:#f9b70b}.p{opacity:1;fill:#f89d10}.q{opacity:1;fill:#5fc27d}.r{opacity:1;fill:#f78e12}.s{opacity:1;fill:#f37217}.t{opacity:1;fill:#5fc37d}.u{opacity:1;fill:#53b9a0}.v{opacity:1;fill:#f57e15}.w{opacity:1;fill:#a1da85}.x{opacity:1;fill:#f79710}.y{opacity:1;fill:#7bcb38}.z{opacity:1;fill:#63c478}.A{opacity:1;fill:#cdc415}.B{opacity:1;fill:#bcc719}.C{opacity:1;fill:#274588}.D{opacity:1;fill:#75c949}.E{opacity:1;fill:#284688}.F{opacity:1;fill:#e8bf0f}.G{opacity:1;fill:#274587}.H{opacity:1;fill:#79ca3d}.I{opacity:1;fill:#6ac665}.J{opacity:1;fill:#c6bb40}.K{opacity:1;fill:#db8339}.L{opacity:1;fill:#294688}.M{opacity:1;fill:#a2db8c}.N{opacity:1;fill:#d2c415}.O{opacity:1;fill:#264487}.P{opacity:1;fill:#7bcb39}.Q{opacity:1;fill:#2a4789}.R{opacity:1;fill:#95d454}.S{opacity:1;fill:#d9843b}.T{opacity:1;fill:#84cb2b}.U{opacity:1;fill:#2d488b}.V{opacity:1;fill:#c7c61a}.W{opacity:1;fill:#d4c418}.X{opacity:1;fill:#2f498b}.Y{opacity:1;fill:#294588}.Z{opacity:1;fill:#c5c925}.a0{opacity:1;fill:#fdfdfe}</style><path fill-rule="evenodd" class="a" d="m127.7 466.9c-0.6-1.3-1.8-2.1-2.8-3.1-23.4-22.4-42.6-48-58.9-76-6.9-11.8-13-24-19.1-36.3-3.8-9-7.8-18.1-11.1-27.3-8.2-22.6-14.2-45.7-18.9-69.2-3.4-17.4-6.1-35-8.2-52.6-1.4-12.4-2.5-24.9-3.6-37.3-3.6-41.4-4.3-83-5.1-124.5 0-0.9 0-1.7 0-2.6 0-1.9 0.4-2.3 2-2.3 1.4-0.1 2.8-0.1 4.3-0.1 12.1 0 24.3 0 36.4 0q2.1 0 4.2 0c1-0.1 1.7-0.6 1.8-1.6 0-1.4 0-2.8 0-4.2 0-8.1 0-16.2 0-24.3 0-4.9 0.5-5.4 5.5-5.4 1-0.1 2.1 0 3.1 0 103.4 0 206.7-0.1 310 0 8 0 6.8-1.3 6.9 7 0.1 7.4 0 14.8 0 22.2 0 1.1-0.1 2.1 0 3.2 0.1 2.4 0.2 2.5 2.8 2.7 1.4 0.2 2.8 0.2 4.2 0.3 11.3 0.4 22.5 0.2 33.8 0.1q7.1-0.1 14.2 0c3.1 0.1 3.2 0.2 3.1 3.5-0.2 9.1-0.3 18.3-0.6 27.4-0.4 10.9-1.1 21.8-1.5 32.7-0.8 21.3-2.6 42.5-4.7 63.7-1.6 16.4-4 32.8-6.5 49.2-2.3 14.6-4.6 29.2-7 43.7-5.1 29.9-11.3 59.5-21.1 88.2-16.2 47.7-41.6 89.9-77.5 125.5-22.1 22-47.3 39.8-75.2 53.9-3.6 1.9-7.3 3.4-11.5 3.1-6.7-1.5-13-4.1-19.1-7-11.2-5.5-22.3-11-32.9-17.5-1.5-0.9-3.1-1.6-4.6-2.4-0.7-0.5-1.6-0.4-2.2-1h0.1c0-0.8-0.7-1.1-1.2-1.5-13.3-8.7-25.7-18.3-37.4-29-0.5-0.5-1.2-0.8-1.7-1.2z"/><path fill-rule="evenodd" class="b" d="m167.9 498.6c0.9-0.1 1.6 0.3 2.2 1-0.8-0.2-1.7-0.2-2.2-1z"/><path fill-rule="evenodd" class="b" d="m211.5 4.2q76.3 0 152.6 0c6.6 0 5.9-0.7 5.9 5.8 0.1 8 0.1 15.9 0.1 23.8 0 1.1-0.1 2.1 0 3.2 0.1 1.6 0.5 2.1 2.3 2.1 4.7 0.3 9.5 0.6 14.2 0.6 10.9 0 21.9-0.1 32.8-0.1q3.4 0 6.8 0c1.3 0 1.9 0.8 1.9 2.1q0 1.5 0 3.1c-0.3 22.7-1.4 45.4-2.7 68.1-1.1 20.2-2.8 40.4-5.2 60.5-2.2 18.1-5 36.2-7.8 54.3-2.4 15.3-4.9 30.5-7.8 45.7-5.3 27.9-11.9 55.4-22.1 81.9-17.1 44.2-42.2 83-76.6 115.7-20.8 19.8-44.2 35.9-69.8 48.9-4.7 2.4-9.3 3-14.1 1.1-3.3-1.3-6.7-2.5-9.8-4-21.5-9.9-42-21.3-60.8-35.8-25.3-19.5-46.8-42.7-64.9-68.9-29-42-49.7-87.8-61.1-137.6q-6.8-29.6-10.9-59.7c-2.2-16.3-3.9-32.8-5.2-49.3-2.4-28.6-3.7-57.2-4.3-85.9-0.2-11.4-0.5-22.9-0.7-34.3q0-2.1 0.1-4.3c0-0.7 0.5-1.3 1.3-1.3q2.1-0.2 4.2-0.2h36.9q2.1 0 4.2-0.1c1.4 0 1.9-0.8 1.9-2q0-9.5 0-19c0-4.1 0-8.1 0-12.2 0-1.7 0.5-2.1 2.3-2.2q2.3 0 4.7 0z"/><path fill-rule="evenodd" class="c" d="m84.9 269.9c1.5-1.2 1.5-2.6 1.6-3.9 0.4-3.1-0.4-6-1.2-8.9-2.8-11.9-5.9-23.9-8.7-35.8-2.7-11.5-4.3-23.2-5-35-1.3-20.2-0.4-40.4-0.7-60.7 0-2.3 0-4.6 0-6.8 0.1-1.7 0.6-2.2 2.3-2.3 2.1 0 4.2 0 6.3 0 1.3 0 1.9 0.8 1.9 2q0.1 2.1 0.1 4.3c0 11.9 0.1 23.9 0 35.9-0.1 10.7 0.3 21.4 1 32.1 0.9 13.1 3.4 25.8 6.8 38.4 2.5 9.4 5 18.7 7.3 28.1 1.7 7.2 2.8 14.5 2.6 21.9-0.1 3.4-0.8 6.6-1.6 9.9-0.7 2.4-1.7 4.6-3 6.7-3.3 5.5-5.3 6.4-11.7 4.9-13-2.9-22.7-10-28.7-22-5-10-8.3-20.5-10.8-31.3-3.1-12.9-5.3-25.9-7.5-38.9-2.9-16.7-4-33.5-4.3-50.4-0.2-12.3-0.5-24.6-0.7-36.9-0.1-4.7-0.1-4.7 4.6-4.7 7.1 0 6.5-0.5 6.3 6.6-0.4 13.6 0 27.1 0.8 40.6 1.5 29.8 5.7 59.2 13.4 88 1.2 4.4 2.5 8.8 4.3 13 1.4 3.3 3.1 6.3 5.4 9 0.4 0.4 0.9 0.7 1.4 0.7 0.8 0 1.1-0.8 1.3-1.4 0.6-2.1 0.5-4.2-0.1-6.3-0.4-1.8-1-3.7-1.7-5.5-5.6-16.6-9.3-33.6-11.8-50.8-2.5-16.9-3.9-33.9-4.5-50.9-0.4-12.9-0.7-25.7 0-38.6 0.1-0.9 0.1-1.7 0.2-2.6 0.1-1 0.6-1.7 1.6-1.7q1.3-0.1 2.7-0.1c6.8-0.1 6.3-0.6 6.4 6.1 0.1 14.5 0.2 28.9 0.1 43.3-0.1 22.5 2.9 44.6 8.8 66.3 1.6 6.1 3.2 12.2 4.9 18.3 1.2 4.2 2.6 8.4 4.7 12.3 1.4 2.6 2.8 5.2 5.2 7.1z"/><path fill-rule="evenodd" class="c" d="m24.5 144.2c0.6 16.5 1.4 33.1 3.2 49.5 2.2 19.9 5.6 39.7 10.6 59.1 1.7 6.5 3.2 13 5 19.5 1.5 5.8 3.6 11.3 6.5 16.6 4 7.4 9.7 12.8 17.9 15.5 5.6 1.8 11.2 4.1 16.8 6.2 1.3 0.5 2.7 0.8 4 1.3 5 1.7 7.2 0.4 9.7-3.7 5-8 8.3-16.7 9.5-26.1 0.4-2.9 0.7-5.9 0.7-8.9 0-4.3-1-8.4-2.4-12.4-5.8-15.9-10.3-32.1-13.5-48.7-1-5.5-1.8-11.1-2.5-16.7-2.6-24.3-4.2-48.7-3.5-73.2 0.1-6.2-0.3-5.7 5.8-5.7 7.5 0 7-0.9 6.5 7.3-0.6 10.5-0.6 21.1 0.1 31.6 0.4 6.2 0.6 12.3 1.2 18.4 1.8 20.6 5.6 40.8 10.9 60.7 2.7 9.8 5.5 19.6 9.4 29.1 3.5 8.4 3.1 17.2 1.6 26-1.1 6.2-3.3 12.1-5.5 18.1-2.7 7.4-5.7 14.8-7.1 22.6-0.5 2.4-0.7 4.9-1.1 7.3-0.2 1-0.9 1.5-2 1.1q-7.9-3.1-15.7-6.2c-8-3.2-16-6.3-24.1-9.5-4.8-2-9.7-4.1-14.2-6.9-7-4.3-11.7-10.3-13.6-18.6-5.6-24.5-12.1-48.8-16.2-73.6-2.2-13.3-4.2-26.7-5.8-40.2-1.7-14-2.8-28-3.7-42-0.5-7.4-0.5-14.8-0.6-22.2 0-2.6 0.4-2.9 3.1-3q3.2-0.1 6.4 0c2.2 0.1 2.6 0.5 2.6 2.9 0.1 1.1 0 2.1 0 3.2z"/><path fill-rule="evenodd" class="c" d="m99.9 400.5c0.8 0.1 1.7 0.2 2.5 0.3 6.4 1.5 12.9 2.2 19.3 2.7 11.6 0.9 23.2 1.3 34.7 3.3 0.8 0.1 1.7 0.2 2.5 0.3 1-1.2 0.7-2.5 0.7-3.7-0.2-7.9-0.5-15.8-0.6-23.7 0-6 0-12 1.6-17.8 0.5-2.2 0.8-4.5 2.6-6.5 4.3 4.2 8.4 8.3 11.5 13.2 3.1 4.8 4.8 10.2 4.9 16 0 6.1 0 12.3 0.2 18.4 0.1 2.5 0.4 4.9 0.6 7.4 0.2 3 1.6 5.3 3.7 7.3 23.5 22.5 46.2 45.9 70.1 68 1.3 1.2 2.9 2.1 3.5 3.9-0.2 0.3-0.4 0.6-0.6 0.9-3.9 3.5-7.8 7-11.7 10.6-1 0.8-1.8 1-2.8 0.1-0.7-0.6-1.4-1.1-2-1.7-17.3-14.8-34.4-29.7-50.7-45.4-8-7.7-15.8-15.7-23.2-23.9-1.6-1.9-3.4-2.6-5.9-2.7-7 0-14.1-0.3-21.1-0.5-11.8-0.4-21.8-4.8-30-13.4-3.1-3.4-6-7-8.8-10.6-0.5-0.7-1.1-1.3-1-2.5z"/><path fill-rule="evenodd" class="d" d="m285.3 220.8c-1.1 1.5-2 2.9-3.1 4.3q-49.5 62.5-99 125c-0.7 1-1.5 2-2.3 2.9-0.7 0.8-1.6 1.1-2.2 0.2-6.7-8.8-12.7-18.1-17.5-28.2-0.6-1.5 0.1-2.3 1-3.2 5.2-5.7 10.4-11.5 15.8-17.1 10.3-10.7 20.8-21.4 31.4-32.1 11-11.1 22.1-22.2 33.1-33.3 1-1 2.1-1.9 3.1-2.8 11.3-5.8 23-10.7 34.3-16.5 1.6-0.9 4.1-3 5.4 0.8z"/><path fill-rule="evenodd" class="e" d="m335.5 123.7c-5-0.3-9.3 1.3-13.4 4-2.7 1.9-5.2 4.1-8.4 5.4-9.5 3.7-18.5 8.2-27.6 12.7-6.6 3.3-13 6.8-20 9.3-2.1 0.7-4.2 2.1-6.4 0.1 5.1-3 10.2-6.1 15.4-9.1q17.6-10.2 35.2-20.3c0.6-0.4 1.3-0.6 1.4-1.5q-0.1-0.5-0.7-0.5c-1.4 0.1-2.9 0.1-4.2 0.3-5.5 0.8-10.5 3.1-15.2 5.9-9.4 5.9-19.3 11-29.1 16-32.5 16.5-65 32.9-97.5 49.5-12.3 6.3-24.6 12.8-36.9 19.2-1.1 0.6-2.2 1.2-3.3 1.7-2.6 1.3-2.9 1.2-3.4-1.5q-1.1-6-2.2-11.9c-1.1-3.5 2-4.3 4-5.2 15.4-7.4 30.3-15.5 45.8-22.6 1.8-0.8 3.6-1.5 5.3-2.4 37.5-18.9 75.6-36.5 113-55.5 1.6-0.8 3.1-1.7 5-1.6 17.3 0 34.6 0 51.9 0 2.2 0.4 2.2 2 1 2.9-2.8 2.3-5.5 5.3-9.7 5.1z"/><path fill-rule="evenodd" class="d" d="m331.7 200.7c-2.3 5.3-5.6 10.1-8.6 15q-30.6 52.1-61.3 104c-0.5 0.9-1.2 1.7-1.8 2.5-12.1 4.9-23.4 11.4-35.4 16.5-1.9 0.8-3.8 2.1-5.9 0.4 0.5-0.9 0.9-1.8 1.5-2.7 30.5-43.4 60.9-86.8 91.3-130.2 0.6-0.8 1.4-1.6 2-2.4 4.9-1.9 9.3-4.7 14.2-6.4 1.8-0.6 4.3-2.2 5.1 1.4q-0.2 0.4-0.4 1-0.2 0.5-0.7 0.9z"/><path fill-rule="evenodd" class="f" d="m359.9 52.4h30.6c1.4 0 2.8 0 4.2 0.1 0.8 0 1.3 0.5 1.4 1.3 0.1 0.8 0.1 1.7 0.1 2.6v43.8c0 0.8 0 1.8-0.1 2.6-0.1 0.4-0.5 1-1.1 1-0.7 0-1.4 0.1-2.1 0.1q-13.7 0-27.5 0c-0.7 0-1.4 0-2.1-0.1-0.7 0-1.4-0.5-1.4-1.3q-0.1-5.8 0-11.5c0-0.8 0.8-1.2 1.5-1.2q1.9-0.1 3.7-0.1c2.7 0 5.3 0 7.9 0 1.8-0.1 2.2-0.4 2.3-2.1q0-9.6 0-19.1 0-0.2 0-0.5c0-1.3-0.7-1.8-2-1.8-8.4 0-16.9-0.1-25.3 0-1.9 0-2.3 0.5-2.3 2.7q0 12.6 0 25.3c0 2.5 0 4.9-0.1 7.4 0 1.8-0.3 2.3-2 2.3-3.9 0-7.8 0-11.6 0-1.3 0-2-0.7-2-2q0-1.8 0-3.7v-26.4q-0.1-1.8-0.1-3.6c0-1.3-0.5-2-1.8-2q-2.7-0.1-5.3-0.1-1.9-0.1-2-2c0-0.3 0-0.7 0-1.1 0.2-3.3-0.5-6.6 0.4-9.9 3.1-1.6 6.5-0.6 9.8-0.7 8.9-0.1 17.9 0 26.9 0z"/><path fill-rule="evenodd" class="f" d="m58.4 52.4h29c1.2 0 2.5 0 3.7 0 2.6 0.1 2.8 0.3 2.9 2.6 0 0.6 0 1.1 0 1.6v43.3c0 0.9 0 1.8-0.1 2.6-0.1 0.8-0.6 1.3-1.4 1.3q-1.3 0.1-2.6 0.1h-52.3c-0.8 0-1.7 0-2.6-0.1-0.8 0-1.3-0.5-1.4-1.3-0.1-1.2-0.1-2.4-0.1-3.7v-26.4c0-1.2 0.1-2.4 0-3.7-0.1-2-0.5-2.5-2.4-2.6-2.3 0-4.6 0-6.9 0-1.2-0.1-1.9-0.8-1.9-2.1 0-3.1 0-6.3 0-9.4 0-1.7 0.6-2.1 2.3-2.2 1.2 0 2.5 0 3.7 0z"/><path fill-rule="evenodd" class="g" d="m290.6 116.4c-0.7 1.3-2.1 1.8-3.3 2.5-10.1 5-19.9 10.4-30.2 15-13.5 6-26.3 13.3-39.8 19.4-15 6.8-29.5 14.8-44.5 21.6-14.3 6.6-28.3 14-42.5 20.9-3.2 1.5-6.4 2.7-9.4 4.7-0.9 0.6-1.5 1.4-1.7 2.5-1.3-1.2-1.1-3-1.4-4.4-1-4.7-1.8-9.3-1.7-14.1 0-1.6 0.5-2.7 2-3.3q5.4-2.1 10.8-4.2c25.4-9.8 50.8-19.5 76.2-29.4 19.2-7.4 38.3-14.8 57.4-22.3 1.6-0.6 3.1-1.4 5-2.2-3.5-0.7-6.2-0.7-9.3-0.1-6.8 1.2-13.3 3.2-19.8 5.4-7.3 2.5-14.6 4.9-22 7.3-1 0.3-2 0.4-3 0.6-0.5-2.4 1.2-3.5 2.8-4.5 9.6-6.3 20.7-9.7 30.5-15.6 0.9-0.6 2-0.5 3-0.5h39c0.7 0 1.4 0.1 1.9 0.7z"/><path fill-rule="evenodd" class="d" d="m292.7 308.5c0.5-1.3 0.9-2.6 1.6-3.9 19.6-39.6 39.2-79.1 58.8-118.7 0.6-1.1 1.3-2.1 1.9-3.2 2.9-3.7 7.4-4.4 11.5-5.7 1.8-0.5 3.2 0.3 2.2 2.6-1.3 5.3-3.7 10.2-5.6 15.3-12.5 32.3-25 64.5-37.6 96.7-0.5 1.5-1.3 2.9-1.9 4.3-8.4 3.7-16.5 8.1-24.9 11.9-1.9 0.9-3.9 1.6-6 0.7z"/><path fill-rule="evenodd" class="c" d="m128.3 296.8c4.5 5.9 7.9 11.8 9.4 18.6 0.7 3.4 0.8 6.7 0.2 10-0.8 3.8-1.6 7.6-2.6 11.3-1.9 6.8-3 13.7-4.3 20.6q-0.8 4.4-2.1 8.8c-0.6 2.2-1.1 2.5-3.4 2.3-6.1-0.6-12.3-1-18.3-2-10.3-1.6-20.3-4.4-30.1-8-6.3-2.3-10.8-6.3-14.2-11.9-3.5-5.9-6.1-12.3-8.8-18.6-0.1-0.3 0-0.7 0.1-1 0.3-0.6 1-0.4 1.4-0.2 2.5 1.2 5.2 2.2 7.6 3.6 7.2 4.1 14.9 7.2 23.2 8.4 7.1 1 13.5 3.6 19.6 7.4 2.4 1.5 4.8 2.8 7.3 4.1 0.7 0.3 1.4 0.2 1.5-0.8q0.1-1.3 0.1-2.6c0-14.5 3.4-28.2 9.1-41.5 1.2-2.7 2.1-5.6 4.3-8.5z"/><path fill-rule="evenodd" class="c" d="m144.5 327.3c7.5 8.4 13.3 17.1 12.2 28.8q-0.5 5.3-1.3 10.5c-1 6.4-1.4 12.9-1.3 19.5 0 3.7-0.5 7.3-1.1 11-0.3 1.6-0.8 2.1-2.4 2.1q-1.6 0.1-3.2-0.1c-9.8-1-19.6-1.4-29.4-3q-6.7-1.1-13.3-2.9c-7.6-2.2-14.2-6.1-19.7-11.8-4.5-4.7-8.4-9.9-12-15.5 0.7-0.2 1.3-0.4 1.7-0.3 9.7 3.1 19.8 4.8 29.8 6.7 10.5 2 21.1 4 31.1 8 1.3-1.4 1-2.8 1-4.1-0.3-8.5 0.1-16.9 0.7-25.4 0.5-6.3 1.7-12.5 4.1-18.4 0.7-1.7 1.4-3.5 3.1-5.1z"/><path fill-rule="evenodd" class="h" d="m217.8 52.4h29.5c1.4 0 2.9 0 4.2 0 1 0.1 1.7 0.7 1.7 1.7q0.1 1.4 0.1 2.7 0 21.3 0 42.7c0 0.9 0 1.8-0.1 2.6 0 1.1-0.6 1.7-1.6 1.7-3.8 0.1-7.7 0-11.6 0-0.8 0-1.3-0.5-1.3-1.3-0.1-1.2-0.1-2.4-0.1-3.7v-26.9q0-1.8 0-3.7c0-1.2-0.6-1.9-1.9-2q-0.5-0.1-1-0.1c-8.3 0-16.6 0-24.8 0.1-2.6 0-2.8 0.2-2.8 2.6 0 6.7 0 13.4 0 20.1 0 4 0 8 0 12.1-0.1 2.6-0.3 2.9-2.6 2.9-3.9 0-7.7 0.3-11.6-0.3-1.4-3.7-0.5-7.6-0.6-11.4-0.2-6.3-0.1-12.6-0.1-19v-2.1c0-5.1 0.4-5-4.7-5-1.4 0-2.8 0.1-4.2 0-1.8-0.1-2.2-0.6-2.3-2.3 0-3.1 0-6.3 0-9.5 0.1-1.2 0.8-1.9 2.1-1.9q1.8 0 3.7 0z"/><path fill-rule="evenodd" class="i" d="m290.6 116.4q-16-0.1-32-0.1c-2.8-0.1-5.6 0-8.4 0-1.3 0-2.4 0.2-3.5 1-5.6 4.2-12.1 6.9-18.5 9.6-4.6 1.8-8.6 4.6-12.9 7-0.8 0.5-1.3 1.6-1.9 2.4-1 1.3-2.6 1-3.9 1.5-9.9 3.2-19.9 6.4-30 9.6-18 5.6-36.1 11.1-54.1 16.7-2.7 0.8-5.3 1.7-8 2.6-1.2 0.3-2.1-0.2-2.2-1.5-0.2-2.9-1.6-5.8-1-8.8 2.6 0.9 4.9 1 7.5-0.4 17.6-9.5 36.1-17.4 53.6-27.1 1-0.3 2-0.8 3-0.9 6.8-0.9 13.6-1.6 20.3-2.4 2.4-0.3 4.7-1.2 7.2-1.4-4.5-1-9.1-0.2-13.5-0.7 1.1-3.5 5.5-2.5 7.4-5.8-5.4-0.1-10.6 0-15.8-0.1-1.9-0.1-4.3 0.6-5.2-2.2 1.9 0 3.8-0.2 5.8-0.2q103.2-0.1 206.4-0.1c1.8 0 3.5 0.2 5.3 0.2-0.8 2.7-3.2 2.4-5.2 2.5-4.3 0.1-8.7 0.2-13-0.1-8.5 0.3-17 0.2-25.5 0.2-2.4 0-4.9 0.2-6.9-1.5z"/><path fill-rule="evenodd" class="j" d="m259.7 155.2c1.8 0.4 3.5-0.4 5.1-1 3.4-1.3 6.8-2.7 10.1-4.3 6-2.9 11.9-6 17.9-8.9 5.1-2.5 10.4-4.9 15.7-7.3 1.2-0.6 2.6-1 3.9-1.3 0.4-0.1 0.9 0.4 1.3 0.7q-0.4 0.5-1 0.8-1.1 0.7-2.2 1.3c-0.2 0.4-0.6 0.6-1 0.8q-1 0.7-2.1 1.3-0.5 0.5-1 0.8-1.1 0.7-2.2 1.4c-0.3 0.3-0.6 0.5-0.9 0.7q-1.2 0.7-2.3 1.4c-0.2 0.3-0.6 0.5-0.9 0.7q-1.1 0.7-2.3 1.4-0.4 0.5-0.9 0.8-1.1 0.7-2.2 1.3-0.4 0.5-0.9 0.8-1.2 0.7-2.3 1.4-0.4 0.4-0.9 0.7-1.1 0.7-2.3 1.4-0.4 0.4-0.8 0.7c-6.1 4.1-12.2 8.3-18.4 12.4q-18.2 12.2-36.4 24.3c-1.5 1-2.8 2.2-4.6 2.7-5.3 1.2-10 3.9-14.9 6.3q-39.6 19.7-79.5 38.7c-1.9 1-3.2 2.6-5 3.7-1.4-2-0.9-4.4-1.3-6.6-0.2-1.2 0.8-1.8 1.7-2.4 4.8-2.8 9.7-5.7 14.5-8.6 26.4-15.6 53.1-30.8 79.8-45.8 11.5-6.4 22.9-13 34.4-19.4 0.6-0.4 1.3-0.6 1.9-0.9z"/><path fill-rule="evenodd" class="f" d="m151 103.9h-25.3c-1.2 0-2.5 0-3.7-0.1-0.8 0-1.4-0.5-1.4-1.2q-0.1-5.8 0-11.6c0-0.8 0.7-1.2 1.5-1.2q2.1-0.1 4.2-0.1h31.1c1.2 0 2.4 0 3.7 0 1.3 0 1.8-0.8 1.8-2 0.1-1.1 0.1-2.1 0.1-3.2q-0.1-8.2-0.1-16.3c0-1.3-0.5-2-1.8-2-1.4 0-2.8-0.1-4.2-0.1h-29.6q-2.1 0-4.2-0.1c-0.7-0.1-1.4-0.5-1.4-1.3q-0.1-5.5-0.2-11c0-0.8 0.7-1.2 1.5-1.2q1.6-0.1 3.2-0.1 22.7 0 45.3 0c0.7 0 1.4-0.1 2.1 0 2.1 0.1 2.5 0.5 2.6 2.4 0.1 1.2 0.1 2.5 0.1 3.7q-0.1 12.7 0 25.3-0.1 2.1 0 4.2c0.1 1 0.6 1.6 1.6 1.7 0.9 0 1.8 0 2.7 0.1 0.7 0 1.4 0.4 1.4 1.2q0 5.8 0 11.6c-0.1 0.8-0.7 1.2-1.5 1.2q-2.1 0.1-4.2 0.1z"/><path fill-rule="evenodd" class="k" d="m354.8 345.5q-1 5.4-2 10.8c-1.4 7.2-2.2 14.6-4.2 21.7-1.2 4.4-3.2 8.5-6.1 12.1-4.5 5.5-9 11.1-13.6 16.7-0.3 0.4-0.7 0.7-1.1 1.1-5.7 2.5-11.2 5.4-16.8 8-2.2 1-4.4 2.3-6.8 0.3 0.6-3.8 2.1-7.4 3.3-11q6.3-19.8 12.8-39.6c0.5-1.5 0.5-3.2 1.7-4.3 10.8-5.7 21.4-11.7 32.8-15.8z"/><path fill-rule="evenodd" class="l" d="m248.2 211q-0.9 0.7-1.7 1.5c-0.7 0.1-1.1 0.5-1.3 1.1-2.6 2.4-5.2 4.8-7.8 7.1q-10.6 9.5-21.4 18.8c-1.4 1.3-3 2.4-4.5 3.6-21.6 10.1-42.6 21.5-64.4 31.3-2.1 1-4.2 2.9-6.9 1.5-1.7-3.1-2.4-6.6-3.5-9.9-0.3-0.9 0-1.7 0.7-2.3q0.2-0.2 0.4-0.4 10.1-7.1 20.3-14.2c9.5-4.2 18.9-8.4 28.1-13.1 19-9.7 38.3-18.6 57.4-28 2.3-1.1 5.3-4.3 7.8 0.1-0.3 0.4-0.7 0.7-1.1 1h-0.1q-0.3 0.6-1 0.9l-0.1 0.2q-0.2 0.6-0.9 0.8z"/><path fill-rule="evenodd" class="d" d="m392 170.2c-0.5 5.6-2.1 11-3.2 16.5q-8.4 40.2-17 80.3c-0.1 0.9-0.5 1.7-0.8 2.5-5.7 2.7-11.4 5.4-17 8.2-1.8 0.8-3.6 1.7-5.4 0.2 0.2-1.2 0.4-2.5 0.8-3.6q15.7-49.4 31.4-98.7c0.5-1.5 1.1-3 1.7-4.5 1.6-1.5 3.6-2.6 5.8-2.9 1.6-0.2 3.6-0.8 3.7 2z"/><path fill-rule="evenodd" class="k" d="m292.4 377.1c-2.8 7.3-5.5 14.5-8.2 21.7-4.5 11.9-9.1 23.6-13.6 35.5-0.4 1-0.5 2-1.6 2.6-6-2.5-23.5-14.1-29.7-19.7-0.3-1.4 0.6-2.3 1.1-3.4q3.8-8.1 7.8-16.2c0.6-1.2 0.9-2.7 2.1-3.6 2.6 0.6 4.8-0.5 7-1.6 8.4-4.3 16.8-8.7 25.3-12.6 3-1.5 6-3.9 9.8-2.7z"/><path fill-rule="evenodd" class="m" d="m251.4 208.1c-0.9-1.2-2.1-1.2-3.3-0.8-1.2 0.4-2.3 1-3.4 1.5-5.5 2.8-10.9 5.7-16.5 8.2-16.4 7.4-32.1 15.9-48.3 23.6-4.7 2.3-9.5 4.4-14.3 6.7-2.3 1.1-4.7 2.3-7.5 1.8 0.6-1.1 1.8-1.6 2.8-2.3 19.2-13.5 38.5-27 57.8-40.5 0.7-0.5 1.5-0.9 2.3-1.3 18.9-8.9 37.8-18 56.6-27.3 2.2-1.1 4.3-2.4 6.8-2.6 1.5-0.1 3 0.2 1.9 2.4h-0.1q-0.4 0.5-1 0.9l-0.1 0.1q-0.4 0.6-1 0.9l-0.2 0.1q-0.2 0.6-0.8 0.8c-3.5 3.1-6.9 6.3-10.4 9.4q-9.2 8.2-18.4 16.3c-0.9 0.8-1.9 1.4-2.9 2.1z"/><path fill-rule="evenodd" class="f" d="m287.7 52.4h22.2q1.8 0 3.7 0.1c0.8 0 1.3 0.5 1.4 1.2 0.1 0.9 0.1 1.8 0.1 2.7v43.8q0 1-0.1 2.1c0 0.7-0.4 1.5-1.1 1.5q-5.8 0-11.6-0.1c-0.9 0-1.1-0.7-1.2-1.5q-0.1-2 0-4.2v-26.3q0-1.9-0.1-3.7c0-1-0.5-1.7-1.5-1.8q-2.1-0.1-4.3-0.1h-30c-1.4 0-2.9 0-4.3-0.1-1 0-1.6-0.7-1.6-1.7q-0.1-5 0-10c0-1.3 0.8-1.9 2-1.9q1.9 0 3.7 0z"/><path fill-rule="evenodd" class="n" d="m307.5 337.3c-0.1 0.7-0.1 1.4-0.4 2.1q-4.7 12.2-9.5 24.5c-0.5 1.3-1.2 2.5-1.7 3.8-1.1 1.5-2.7 2.2-4.2 3.1-10.4 5.2-21 9.9-31.4 14.9-1.7 0.8-4 3.7-5.8-0.1q0.2-0.5 0.4-1.1 0.3-0.6 0.6-1.1c0.9-1.9 1.7-3.9 2.6-5.7q6.1-12.5 12.4-24.9c0.6-1.4 1.5-2.8 2.2-4.2 9.6-5.7 19.6-10.7 30-14.9 1.9-0.7 4.6-2.5 5.8 1.2q-0.2 0.5-0.3 1.1-0.4 0.6-0.7 1.3z"/><path fill-rule="evenodd" class="o" d="m404.7 151.1c0.2 24.8 0.7 49.6-0.4 74.4-0.3 7.1-1.1 14.1-2.7 20.9-1.5 6-2.8 12-4.3 18-1.9 7.1-4.6 14-8.5 20.2-1.3 0-1-0.9-1-1.5q0.4-5.7 0.9-11.6c1.3-14.5 2.6-29 3.9-43.6 0.8-8.9 1.5-17.9 2.4-26.8q2.2-24.4 4.4-48.9c1.5-1.5 3.3-2 5.3-1.1z"/><path fill-rule="evenodd" class="p" d="m218.7 339.1c1.7 0.2 3.1-0.5 4.5-1.2 9.6-4.6 19.2-9.1 28.7-13.9 2.6-1.3 5.2-2.1 8.1-1.8q-0.3 0.6-0.6 1.2c0 0.3-0.3 0.6-0.6 0.8-3.1 6.5-7 12.5-10.6 18.6-2.4 4.1-4.4 8.4-7.4 12-12.9 4.6-24.6 11.7-37 17.4-2.9 1.4-5.7 3.8-9.3 1.8 0.4-0.8 0.8-1.6 1.2-2.3q10.7-15.3 21.3-30.6c0.5-0.7 1.1-1.3 1.7-2z"/><path fill-rule="evenodd" class="q" d="m128.7 238.9c-0.2-2.6 1.6-3.7 3.6-4.5 7.9-3 15.2-7.2 22.8-10.9 5.1-2.4 10-5.2 15.1-7.5 15.6-7 30.7-15 46-22.5 3-1.4 6.1-2.7 9.2-4 1-0.5 2-0.4 2.7 0.6-0.2 0.4-0.6 0.6-1 0.8q-0.3 0.4-0.8 0.4c-0.5 0.2-0.9 0.6-1.3 0.9l-0.1 0.1q-0.4 0.5-0.9 0.8c-0.3 0.2-0.5 0.3-0.8 0.3-0.6 0.2-1 0.6-1.4 0.9l-0.1 0.1q-0.3 0.5-0.9 0.7-0.3 0.4-0.8 0.5c-0.6 0.1-1 0.5-1.3 0.8l-0.1 0.1q-0.4 0.5-0.9 0.8c-0.3 0.2-0.6 0.4-0.9 0.4-0.5 0.1-0.9 0.5-1.3 0.9h-0.1q-0.4 0.5-0.9 0.8-0.4 0.4-0.9 0.4c-0.5 0.1-0.9 0.5-1.3 0.9h-0.1c-0.2 0.4-0.5 0.6-0.9 0.8-9.9 6.6-19.8 13.3-29.7 20-14.6 9.7-29.2 19.4-43.8 29.2-1.3 0.9-2.6 1.7-4.3 2.7-2.4-4.7-4.2-9.4-4.8-14.5z"/><path fill-rule="evenodd" class="r" d="m308.5 334.9c-1.1-1.3-2.5-1.2-3.8-0.7-2.9 1.2-5.9 2.4-8.7 3.8-6.1 3-12.2 6.1-18.3 9.1-1.6 0.8-3.1 1.7-5 1.5 0.4-0.9 0.7-1.9 1.2-2.9q8.6-17.3 17.2-34.5c0.5-1 1.1-1.8 1.6-2.7 7.8-2.2 14.7-6.6 21.9-10 2.9-1.3 5.7-2.8 9-2.6q-0.2 0.5-0.4 1c-0.7 0.6-0.4 1.6-0.9 2.3-0.3 1-0.5 2-0.9 3q-5.7 15-11.5 29.9c-0.4 1-1 1.9-1.4 2.8z"/><path fill-rule="evenodd" class="s" d="m361.4 314.9c-0.8 6.6-2.6 12.9-3.9 19.3-0.4 1.7-0.5 3.4-1.4 4.9-8.8 5.2-18 9.5-27.4 13.4-2.5 1.1-2.6 0.9-3.4-1.8 1.4-4.4 2.7-8.9 4.1-13.4q3.7-11.7 7.5-23.4c0.2-0.8 0.6-1.5 1-2.3 6.6-3.1 13-6.6 19.7-9.5 2.3-1 6-3 6 2.5q-0.2 0.9-0.3 1.8c-0.8 1-0.2 2.4-0.8 3.4q-0.2 0.9-0.3 1.9c-0.7 1-0.1 2.3-0.8 3.2z"/><path fill-rule="evenodd" class="t" d="m286.2 177.5c0-0.7-0.2-1.6-1.1-1.4q-2.3 0.6-4.4 1.6c-3.2 1.5-6.3 3.1-9.5 4.7-13.2 6.4-26.5 13-39.8 19.3-3.3 1.5-6.5 3.5-10.4 3.3 4-3.6 8.7-6.4 13.2-9.5 15.4-10.8 30.9-21.5 46.4-32.2 1-0.7 2.1-1.2 3.2-1.9 10.1-4.2 19.7-9.4 29.8-13.8 2-0.8 4.4-3.6 6.4 0.2v0.1q-0.4 0.5-1 0.9l-0.2 0.1q-0.2 0.6-0.8 0.8c-8.4 7.5-16.8 15-25.3 22.4-2.1 1.9-3.9 4.1-6.5 5.4z"/><path fill-rule="evenodd" class="u" d="m320 147.8c-0.4-0.6-1-1-1.8-0.8-0.8 0.2-1.6 0.6-2.4 0.9-8.5 4.1-17 8.2-25.5 12.3-2.1 1-4.2 1.8-6.6 1.2 4.6-4.1 10-7.2 14.9-10.7 10.9-7.8 21.8-15.4 32.7-23.2 1.5-1.1 3.5-1.8 4.2-3.8 2.9-1.8 5.5-4 8.6-5.3 0.9-0.4 1.2-1.2 1.5-2q16.3-0.1 32.6-0.1c1 1.3 0.3 2.4-0.8 3-2.9 1.7-5.4 4.1-8.9 4.6-3.2-0.6-5.8 0.6-7.9 2.8-1.6 1.6-2.9 3.4-4.3 5.1-1.2 1.5-1.9 3.3-3.6 4.4-3.6 0-6.8 4.2-10.7 1 2.6-3.7 6.1-6.8 9.1-10.2 0.8-0.8 1.9-1.5 2.1-2.9-2.1-0.9-3.8-0.4-5.6 0.4-2.3 1-4 2.7-5.9 4.4-6.9 6.2-13.8 12.3-20.8 18.5-0.2 0.2-0.6 0.3-0.9 0.4z"/><path fill-rule="evenodd" class="v" d="m194.6 374c3-0.2 5.7-1.4 8.4-2.7 8.1-4.1 16.3-8.2 24.4-12.2 3.5-1.7 7.1-3.2 10.6-4.8 1-0.5 2-0.4 2.8 0.6-0.4 0.9-0.8 1.9-1.3 2.8-7.3 12.3-14.5 24.7-21.8 37.1-0.3 0.6-0.8 1.1-1.1 1.5-1.4 0.3-2.1-0.6-2.8-1.3-7-5.6-13-12.2-19.1-18.7-0.7-0.7-0.8-1.5-0.1-2.3z"/><path fill-rule="evenodd" class="w" d="m175.3 128.9c-1.3 2.8-4.1 3.8-6.4 5.3-2.2 1.4-4.6 2.6-7.1 3.5-4.5 1.6-8.6 3.9-12.8 6-9 4.4-18 8.9-26.9 13.4-1.3 0.6-2.5 1.3-3.8 1.9-1.8 0.8-2.1 0.6-3.2-1.3-0.2-0.5-0.6-0.9-0.9-1.3-0.6-5.8-1.2-11.5-1.8-17.2-0.1-1.5 0.4-2.4 1.9-2.7 2.8-0.4 5.5-0.7 8.3-1 6.4-0.8 12.9-1.6 19.3-2.4 6.7-0.9 13.5-1.8 20.3-2.7 2.2-0.3 4.5-0.4 6.8-0.6 0.9-0.7 2.2-0.1 3.1-0.7 1.1 0 2.2-0.1 3.2-0.2z"/><path fill-rule="evenodd" class="x" d="m363.6 304.6c-0.3-0.6-0.5-1.3-0.9-1.8-0.6-0.7-1.6-0.7-2.4-0.5-1.2 0.4-2.3 1-3.3 1.5-4.4 2.2-8.8 4.3-13.1 6.6-1.9 1-3.9 1.4-6 1.2 0.1-0.9 0.1-1.7 0.4-2.6q4.7-14.6 9.4-29.3c0.2-0.6 0.6-1.2 0.9-1.9 1.8 0.3 3.3-0.5 4.9-1.3 3.8-2 7.7-3.8 11.5-5.8 1.9-1.1 3.9-1.5 6-1.2-0.1 3.8-1.3 7.5-2.1 11.3q-2.2 10.7-4.5 21.4c-0.1 0.8-0.6 1.6-0.8 2.4z"/><path fill-rule="evenodd" class="y" d="m266.8 214.3c0.8-1.3 1.8-2.3 3-3.2q0-0.5 0.6-0.5 0-0.4 0.3-0.4 0.1-0.6 0.7-0.7c0.4-0.6 0.8-1.1 1.3-1.6q16-16.4 32.1-32.8c0.4-0.4 0.8-0.6 1.3-0.9 5.1-2.4 10.2-5 15.5-7.3 1.9-0.8 4.4-2.5 5.8 1-0.3 0.4-0.7 0.8-1 1.2h0.1c-0.5 0.3-0.9 0.7-1 1.3-6.9 8.7-13.8 17.6-20.7 26.3-0.6 0.7-1.2 1.3-1.8 1.9q-0.4 0.6-0.9 1.1c-9 4.4-18 9-27.1 13.4-2.5 1.2-5.1 3.4-8.2 1.2z"/><path fill-rule="evenodd" class="z" d="m368.5 123.9c2-2.4 4.8-3.7 7.6-5 1-0.6 2.1-1.2 2.1-2.6 4.7-0.1 9.3-0.1 14-0.2 1.4 0 2.8 0.2 4-0.8 4.9 0 9.8-0.1 14.7-0.1 0.8 0 1.7 0 2.1 1-4.3 4.6-9.3 7.8-15.7 8.5-1.3-1.4-2.9-0.9-4.4-0.9-1.2 0-2 0.8-2.5 1.8-0.9 1.6-1.7 3.4-2.6 5.1-0.7 1.5-0.8 3.4-2.1 4.7-2.4 0-4.9 1.6-7.3-0.1q2.4-5.5 4.9-11.1c-2.4-1.1-4.4-0.7-6 0.9-1 1.2-1.9 2.5-2.7 3.9-2.7 4.3-5.2 8.7-7.8 13.1-0.6 1.1-1 2.2-2.1 3-4-0.3-7.3 4-11.6 1.8q5.8-8.4 11.5-16.9c1.3-2 3-3.8 3.9-6.1z"/><path fill-rule="evenodd" class="A" d="m266.8 214.3c2.9-0.1 5.4-1.2 7.9-2.5 7-3.5 14-7 21-10.5 2-1.1 4.1-1.9 6.4-1.6-5.2 7.3-10.8 14.4-16.8 21.1-0.6-0.7-1.4-1.2-2.3-0.8-1 0.3-1.9 0.8-2.9 1.2-3.1 1.6-6.3 3.2-9.4 4.8-6.8 3.2-13.7 6.4-20.5 9.7-1.5 0.7-2.9 1.1-4.6 0.8 2.2-3.2 5.2-5.6 7.8-8.4 4.4-4.7 8.9-9.2 13.4-13.8z"/><path fill-rule="evenodd" class="B" d="m140.2 275.9c1.4-0.5 2.7-0.9 4-1.5q29-14.2 57.9-28.4c3-1.5 6-3 9.4-2.9-2.9 3.5-6.6 6.1-10 9.1-3.7 3.3-7.3 6.9-11.5 9.7-14.1 5.8-27.1 13.8-41.2 19.6-1.9 0.8-3.6 2.2-5.9 1.6-1.1-2.3-2.3-4.6-2.7-7.2z"/><path fill-rule="evenodd" class="C" d="m311.8 39c1.7-5.3 4.4-9.8 5.8-14.8-1.9-1.3-4.1 0-5.9-1.3-0.5-2.4-0.3-5.1-0.3-7.7 0-3.7 0.1-3.7 3.9-3.6 2.8 0 2.9 0.1 3 3 0.1 1.8 0 3.7 0.1 5.5 1 0.1 1.3-0.3 1.5-0.8 0.7-1.6 1.5-3.2 2-4.9 0.7-2.2 2-3.1 4.3-2.9 2.9 0.3 6-0.3 8.9 0.4 1.3 2.9 0.5 5.9 0.6 8.8 0.1 5.5 0.1 10.9 0 16.4 0 2-0.4 2.4-2.4 2.6q-1.1 0-2.1 0c-6.7-0.1-5.8 0.5-5.8-6.6 0-1.1 0.6-1.6 1.6-1.6 1.1-0.1 1.5-0.7 1.6-1.7 0.6-4.5-0.2-10-0.9-9.4-2.4 1.9-2.8 5.1-4 7.7-1.5 3.1-2.8 6.4-4.1 9.7-0.6 1.3-1.5 1.9-2.9 1.9-1.5-0.1-3.1 0.3-4.9-0.7z"/><path fill-rule="evenodd" class="D" d="m397.3 124.7c2.4-1.3 4.9-2.5 7.3-3.8 2.2-1 4.4-2 6.1-3.8 0.6-0.5 1.6-0.6 2.3-0.9q0.4 0.4 0.2 0.8c0.9 3.9-0.2 7.8 0.6 11.7 0.3 4.3 0.3 8.7-0.1 13-0.4 2.9-2 3.7-4.7 3q-0.1-6.9-0.3-13.7c0-0.5-0.3-1-1-1-0.3 0.1-0.7 0.2-0.9 0.4-0.4 0.6-0.9 1.2-1.1 1.8-0.2 1.5-0.3 3.1-0.3 4.7q0 7.1-0.7 14.2c-1.7 0.9-3.5 1.2-5.3 1.1-0.5-4.6 1-9.2 0.6-14.3-2.1 5.1-2.4 10.4-4.1 15.3-2.5 1.9-4.9 4.1-8.4 2.1 0.6-2 1.1-4.1 1.7-6.1q4-12.3 8.1-24.5z"/><path fill-rule="evenodd" class="E" d="m115 69.1q0 6.5 0 13.1c-0.1 1.8-0.5 2.2-2.2 2.3q-0.2 0-0.5 0c-4.1-0.4-8.4 0.9-12.4-0.7-0.9-3.8-0.3-7.6-0.4-11.5-0.1-5.8 0-11.5 0-17.3 0-2 0.5-2.6 2.4-2.6q5.3-0.1 10.5 0c2.1 0 2.5 0.5 2.6 2.5 0 4.7 0 9.4 0 14.2z"/><path fill-rule="evenodd" class="F" d="m142.9 283.1c9.1-4.5 18.2-8.9 27.4-13.3 4.1-2 8.2-4 12.2-6.1 2.4-1.3 4.8-1.9 7.5-1.7-1.8 2.4-4.3 4.1-6.5 6-7.4 6.5-14.7 13-21.7 19.8-3.1 2.9-6.3 5.6-9.7 8-0.8 0.7-1.6 1.4-3.1 1.5-2.3-4.5-4.4-9.3-6.1-14.2z"/><path fill-rule="evenodd" class="G" d="m87.8 25.9c0 3.9 0 7.7 0 11.6 0 1.7-0.5 2.1-2.3 2.1q-0.8 0.1-1.5 0.1c-2.7-0.1-3-0.4-3.1-3.1 0-4.9 0-9.8 0-14.8q0-1.9-1.9-1.9c-0.2 0-0.4-0.1-0.6 0-8.6 0.1-7.3-1.3-7.4 7-0.1 3.7 0 7.4-0.1 11.1 0 1-0.6 1.6-1.6 1.6q-1.4 0.1-2.7 0.1c-5.7 0-6.5-0.9-5.5-6.8 0.1-0.4 0.5-1.1 0.8-1.2 2.5-0.4 2.2-2.3 2.2-4 0-4.6 0-9.2 0.1-13.7 0-2.1 0.3-2.4 2.5-2.4q9.5-0.1 18.9 0c1.8 0 2.2 0.4 2.2 2.2q0 6 0 12.1z"/><path fill-rule="evenodd" class="E" d="m262.9 27.6c2.1 3.5 3.8 6.4 5.5 9.2 0.2 0.5 0.6 0.9 0.7 1.4 0.2 0.8-0.1 1.4-1 1.4q-10.5 0-21.1 0c-1.2 0-2-0.5-2.1-1.8q0-0.2 0-0.5c0.1-6.5-0.8-5.8 5.5-5.8 1.8 0 3.7 0 5.4 0 0.7-1.4 0-2.1-0.4-2.8-2.8-4.5-5.6-9-8.3-13.5-0.6-1-1.6-1.9-1.3-3.3 0.5-0.1 1-0.3 1.5-0.3 7 0.1 5.3-0.8 8.7 4.7 1.7 2.6 3.3 5.3 5 8 0.1 0.1 0.3 0.1 0.5 0.1 1-0.5 0.5-1.5 0.6-2.3 0.1-0.8 0-1.7 0-2.6 0-1.6 0-3.2 0-4.7 0.1-3.1 0.2-3.2 3.4-3.2 3.7 0 3.7 0 3.7 3.8 0.1 3.3 0 6.7 0 10 0 1.2-0.5 2-1.8 2-1.2 0-2.5 0.1-4.5 0.2z"/><path fill-rule="evenodd" class="C" d="m162.7 21.5q-2.6-4.5-5.2-9.1c2.7-0.8 5.2-1 6.7-0.8 1 0.2 1.4 0.9 1.9 1.7 1.5 2.5 3.1 5.1 4.7 7.6 0.9 1.4 2.5 1.3 3.1-0.3 0.4-0.8 0.5-1.7 0.5-2.6 0.1-1.5 0.1-3.1 0.1-4.7 0-1 0.6-1.6 1.6-1.7q1.9 0 3.7 0c1 0 1.7 0.5 1.7 1.6 0 2.9 0 6 0 8.9 0.1 1.6-0.9 2.6-1.9 3.6-4.4 4.6-4 3-0.9 8.6 0.9 1.5 1.7 3 2.7 4.8-2.5 0.9-4.7 0.6-7 0.4-0.9 0-1.4-0.9-1.9-1.6-1.5-2.6-3-5.1-4.6-7.7-0.8-1.2-1.5-1.2-2.5-0.3-0.9 0.9-1.6 1.9-1.5 3.2 0.1 1.1 0 2.1 0 3.2-0.1 3.3-0.2 3.4-3.7 3.4-3-0.1-3.2-0.3-3.3-3.4 0-2.1 0.1-4.2 0-6.3 0-1.7 0.5-3.1 1.8-4.2 1.4-1.3 3-2.4 4-4.3z"/><path fill-rule="evenodd" class="H" d="m353.1 146.9c3.1-0.2 5.7-1.5 8.4-2.8q2-0.9 3.2 1c-4.3 7.4-8.5 14.8-12.9 22.2-2 3.5-4.2 6.8-6.4 10.3-0.3 0.3-0.8 0.6-0.8 1.2h0.1q-6 3.3-12.3 6c-1.7 0.8-3.9 2.3-5-0.9 0.2-0.3 0.2-0.7 0.4-1q12.7-18 25.3-36z"/><path fill-rule="evenodd" class="I" d="m327.4 167.9c-1.3-1.5-2.8-1.1-4.2-0.4-3 1.4-5.9 2.9-8.8 4.4-2.7 1.3-5.3 2.6-8.4 2.3 3.8-4 7.5-8 11.2-11.9 7.7-8 15.4-15.9 23.2-23.8 0.5-0.5 1-0.9 1.6-1.3 2.3 0.5 4.4-0.3 6.4-1.3 1.5-0.8 3-1.2 4.3 0.2v0.1q-0.4 0.6-0.9 1.1v0.1c-0.4 0.3-0.8 0.7-1 1.2-2.7 3.6-5.4 7.2-8.2 10.7-4.1 5.2-8.2 10.4-12.4 15.6-0.8 1-1.5 2.3-2.8 3z"/><path fill-rule="evenodd" class="C" d="m297 21.7c0 2.5-0.1 5 0 7.4 0.1 1.9-0.4 3.4-1.6 4.9-5.5 6.7-2.9 5.5-11.1 5.7-3 0-6-0.1-9-0.1-1-0.1-1.6-0.6-1.7-1.7 0-1.6 0-3.2 0-4.7 0-1.1 0.6-1.7 1.6-1.7 1.4-0.1 1.8-1 1.8-2.1 0-4.1 0-8.1 0-12.2 0-1.4 0-2.8 0.1-4.2 0.1-0.8 0.6-1.2 1.4-1.3 0.5-0.1 1-0.1 1.5-0.1 4.1-0.1 4.1-0.1 4.1 4 0.1 4.7 0 9.5 0.1 14.2 0 1.3 0.8 1.8 2.1 1.6 2.1-0.2 3.5-1.6 3.7-3.8 0.2-1.5 0.1-3.1 0.1-4.7 0-3 0-6 0.1-9 0-2 0.3-2.3 2.5-2.3q1.3 0 2.7 0c1 0 1.5 0.7 1.5 1.7 0 2.8 0 5.6 0.1 8.4z"/><path fill-rule="evenodd" class="J" d="m304.2 416.3c2.2 0.1 4.1-0.4 6-1.4 3.7-2 7.4-3.7 11.1-5.6 2.1-1.1 4.2-1.8 6.5-1.4-2.9 4.4-6.4 8.3-9.7 12.4q-9.4 11.6-19.8 22.3c-0.7 0.8-1.4 1.7-2.5 1.9-0.4 0.1-0.7 0-0.7-0.5-0.1-0.3-0.2-0.7 0-1q4.5-13.4 9.1-26.7z"/><path fill-rule="evenodd" class="K" d="m254.5 385.5c0.4 0.3 0.8 0.8 1.3 0.8 0.5 0.1 1-0.3 1.5-0.5 9.3-4.5 18.6-8.9 28-13.4 3.4-1.7 6.9-3.5 10.5-4.7-0.5 3.3-2.2 6.3-3.5 9.4q-6.3 2.3-12.4 5.3c-7.9 4.1-15.9 8-23.9 12-1 0.5-2.1 1.1-3.3 1.5-1.5 0.5-2.2-0.5-2.4-1.9 1.1-3 2.2-5.9 4.2-8.5z"/><path fill-rule="evenodd" class="L" d="m124.6 25.6c0 3.9 0 7.7 0 11.6-0.1 2-0.5 2.4-2.6 2.5q-0.5 0-1 0c-3.7 0.1-3.6-0.7-3.5-3.6q0-6.9-0.1-13.7c0-2.3-0.2-2.5-2.3-2.5-3.5-0.1-7 0-10.5-0.1-1.3 0-2-0.6-2-1.9-0.1-7.1-1-6.3 5.9-6.3 4.7-0.1 9.4 0 14.1 0 1.3 0 2 0.6 2 1.9z"/><path fill-rule="evenodd" class="C" d="m241.1 26c0 3.6 0.1 7.3 0 11 0 2.3-0.4 2.6-2.9 2.7q-0.7 0-1.5 0c-2-0.1-2.4-0.5-2.4-2.6-0.1-4.9 0-9.8-0.1-14.8 0-2-0.4-2.4-2.4-2.4-4.1-0.1-8.1 0-12.1-0.1-1.7 0-2.1-0.5-2.2-2.2-0.1-1.4 0-2.8 0-4.2 0-1.4 0.8-1.8 2-1.8q9.8 0 19.5 0c1.7 0 2.1 0.4 2.1 2.2 0 4.1 0 8.1 0 12.2z"/><path fill-rule="evenodd" class="M" d="m178.7 115.4c1 1 2.3 0.7 3.5 0.8 5.3 0 10.5 0 15.8 0 1.3 0 2.8 0.1 4.1 0.2 0.6 0 1.1 0.3 1.2 0.8 0 0.3-0.2 0.8-0.4 0.9-3.2 1.8-5.9 4.5-9.8 4.8-0.3 0-0.6 0.4-0.8 0.6q-16.5 0.6-32.9 1.2c-1.7 0-3.5-0.1-5.2-0.2 0.5-2.6 2.9-2.2 4.6-2.2 3.9-0.1 7-1.7 10.3-4.5-8.8-0.3-17.1 0-25.4-0.1q-6.7 0.3-13.4 0.1c-2.1 0-4.2 0.1-5.7-1.8 0.8-0.2 1.7-0.6 2.5-0.6 17.2 0 34.4 0 51.6 0z"/><path fill-rule="evenodd" class="h" d="m360.6 25.4v12c0 1.3-0.6 2-1.9 2q-1.6 0-3.1 0c-1.4 0-1.9-0.8-1.9-2q0-6.3 0-12.6c0-1.1 0-2.1 0-3.2-0.1-1.3-0.8-1.8-2-1.9-2.3 0-4.6 0-6.9 0-1.2 0-2.4 0-3.6 0-2-0.1-2.3-0.6-2.4-2.6 0-0.7 0-1.4 0-2.2 0-3.4 0-3.4 3.5-3.5 5.1 0 10.2 0.1 15.2 0 3.1 0 3.1 0.7 3.1 2.9 0 0 0 11.1 0 11.1z"/><path fill-rule="evenodd" class="N" d="m327.4 183.9c1 1.2 2.1 1 3.3 0.4 3-1.5 6-2.9 9-4.5 1.5-0.7 3.1-1.5 5-1-3.6 6.9-7.5 13.6-11.9 20-0.5-0.8-1.2-1.3-2.1-1-2.1 0.7-4.3 1.4-6.3 2.4q-3.8 1.7-7.4 3.7c-1.2 0.6-2.3 0.5-3.5-0.1 2.2-4.2 5.2-7.7 7.8-11.6 1.9-2.8 4.1-5.5 6.1-8.3z"/><path fill-rule="evenodd" class="O" d="m206.2 25.5v12.2c0 1-0.5 1.6-1.6 1.7q-0.2 0-0.5 0c-4.6 0.2-4.7 0.2-4.7-4.4q0-6.7 0-13.3c0-1.2-0.7-1.9-2-1.9-3.5-0.1-7-0.1-10.5-0.1-1.9-0.1-2.4-0.6-2.5-2.6 0-0.7 0-1.4 0-2.1 0.1-3.5 0.1-3.5 3.6-3.5 5.4-0.1 10.9 0 16.3 0 1.3 0 1.9 0.6 1.9 1.9 0 0 0 12.1 0 12.1z"/><path fill-rule="evenodd" class="P" d="m378.4 135.3c1.2 0 2.4-0.4 3.5-0.8 1.4-0.5 2.8-0.5 3.8 0.9q0 0.5-0.3 0.9c-0.5 0.6-0.3 1.5-0.8 2.2q-0.1 0.5-0.3 1c-0.4 0.6-0.2 1.5-0.7 2.1-2.3 6.8-4.9 13.6-7.8 20.1q-0.4 0.6-0.6 1.2v-0.1c-2.1 2.6-5.1 3.5-8 4.5-1.5 0.5-3.6 1.5-3.9-1.5 0.8-2.9 2.4-5.4 3.7-8.1 3.1-6.1 6.2-12.2 9.3-18.3q0.4-0.6 0.7-1.2-0.1-0.5 0.3-0.9 0.5-0.6 0.7-1.2 0-0.5 0.4-0.8z"/><path fill-rule="evenodd" class="Q" d="m153 15.6c0 0.9 0 1.8 0 2.6-0.1 0.8-0.5 1.5-1.2 1.5-2 0.2-2.1 1.5-2.1 3q0 7.1 0 14.2c-0.1 2.3-0.5 2.7-2.9 2.8-1 0-2.1-0.1-3.1-0.3-0.4 0-0.9-0.6-1-1-0.1-1-0.1-2.1-0.1-3.2 0-4.3 0-8.8 0-13.1 0-1.2-0.3-2.1-1.7-2.2-1.3-0.1-1.7-1.1-1.7-2.2q0-1.3 0-2.6c0-3.5 0-3.5 3.5-3.5 2.8-0.1 5.6 0 8.4 0q1.9 0 1.9 1.9c0 0 0 2.1 0 2.1z"/><path fill-rule="evenodd" class="R" d="m144.6 116.4q13.4 0 26.8 0c0.3 0 0.7 0.1 0.8 0.4 0.3 0.5 0 1-0.4 1.3-2.4 1.9-5.2 3-7.4 5-1.1 0.9-2.8 0.3-4.2 0.5-2 0.2-4.2-0.6-6 0.9-13.2 0.5-26.4 1.4-39.7 1.3-1.2 0-2.8 0.6-3.5-1.2 2.2-1.9 5-1.7 7.5-1.3 9.7 1.4 18-2.2 26.1-6.9z"/><path fill-rule="evenodd" class="S" d="m325.3 350.7c0.3 0.9 0.5 1.8 1.7 1.3 2.1-0.9 4.2-1.7 6.3-2.7 5.8-2.8 11.6-5.7 17.3-8.5 1.7-0.9 3.4-1.9 5.5-1.7 0.2 2.3-0.7 4.3-1.3 6.4-1.1 0.9-1.7 2.1-3.2 2.6-8.4 3.1-16 7.8-24.1 11.6-1.7 0.8-3.4 1.8-5.5 1.6 0.2-0.7 0.3-1.5 0.5-2.1 0.2-0.5 0.4-0.9 0.6-1.3 0.3-2.5 0.9-5 2.2-7.2z"/><path fill-rule="evenodd" class="T" d="m144.6 116.4c0 1.3-0.8 1.8-1.8 2.3-2.9 1.6-6 2.7-8.5 5.1-1 1-2.6 0.8-4 0.8q-9.6 0-19.3 0c-0.2-2.5-0.5-5.1-0.6-7.6 0.7-1.2 1.8-0.9 2.8-0.9 3.8-0.1 7.6-0.1 11.4-0.1 4 0.7 8 0.2 12.1 0.3 2.6 0.1 5.2 0.1 7.9 0.1z"/><path fill-rule="evenodd" class="U" d="m135.3 25.5v12.1c0 1.2-0.5 2-1.8 2.1q-0.5 0-1.1 0c-3.9 0.1-4.1-0.1-4.1-4q0-9.8 0-19.5 0-1.3 0.1-2.6c0-1.2 0.5-2 1.8-2 0.6 0 1.1-0.1 1.6-0.1 3.5 0 3.5 0 3.5 3.5 0.1 3.5 0 7 0 10.5z"/><path fill-rule="evenodd" class="V" d="m363.3 165.8c0.9 1.3 2 1.2 3.2 0.6 2.8-1.5 5.7-2.7 8.7-3.6-1.6 5.8-3.9 11.4-6.5 16.8-0.2-1-0.5-2.2-1.9-1.6-3.9 1.5-7.9 3.1-11.8 4.7q3.5-8.7 8.3-16.9z"/><path fill-rule="evenodd" class="h" d="m307.6 25.7c0 3.8 0 7.7 0 11.6-0.1 2-0.5 2.3-2.6 2.3q-1.3 0.1-2.6 0c-1.1-0.1-1.5-0.8-1.6-1.7-0.1-0.6-0.1-1.1-0.1-1.6 0-7.2 0-14.4 0-21.6 0.1-3 0.2-3.1 3.4-3.1 0.5 0 1.1 0 1.6 0 1.4 0 1.8 0.7 1.8 1.9q0.1 6.1 0.1 12.2z"/><path fill-rule="evenodd" class="W" d="m387.5 155.3c1.7 0.1 3.1-0.3 4.5-1.1 1.2-0.7 2.5-1.1 3.9-1-1 5.7-2.1 11.4-3.9 17-1.2-1.6-2.7-1.3-4.2-0.7-1.7 0.8-3.3 1.9-5.3 1.7 1.2-5.5 2.9-10.8 5-15.9z"/><path fill-rule="evenodd" class="C" d="m224.3 32.9v2.1c0.1 4.9 0 4.8-5.1 4.6-1.3-0.1-1.7-0.9-1.7-2.1 0-2.3-0.1-4.6 0-6.9 0-1.3-0.6-3 0.7-3.9 1.5-0.8 3.4-0.4 5.1-0.2 0.4 0.1 0.9 0.8 0.9 1.2 0.1 1.7 0 3.5 0.1 5.2z"/><path fill-rule="evenodd" class="X" d="m91.8 17.1v-1.5c0-4.1 0-4.1 4-4.1 2.7 0.1 2.9 0.3 3 2.9 0.1 1.4 0.1 2.8 0 4.2 0 5 0 5-4.8 4.8-1.8-0.1-2.1-0.3-2.2-2.1 0-1.4 0-2.8 0-4.2z"/><path fill-rule="evenodd" class="Y" d="m191.4 33.9v1c0 5 0.2 4.6-5 4.6-1.3-0.1-1.8-0.9-1.8-2 0-2.7 0-5.3 0-7.9 0-1.1 0.6-1.9 1.9-1.9h3.1c1 0 1.7 0.5 1.7 1.5 0.1 1.5 0 3.1 0.1 4.7z"/><path fill-rule="evenodd" class="Y" d="m345.8 33.8v1.6c0 4.3-0.1 4.1-4.5 4.1-2.1-0.1-2.3-0.3-2.4-2.5q0-2.6 0-5.2c0-4.3 0.1-4.3 4.4-4.2 2 0.1 2.3 0.4 2.4 2.5 0.1 1.3 0.1 2.5 0.1 3.7z"/><path fill-rule="evenodd" class="Z" d="m409 144.7c1.6-1 3.8-1 4.8-3 0 3 0.2 5.9 0.2 8.8 0 2.5-1.1 3.8-2.7 3.7-1.5 0-2.5-1.3-2.5-3.8-0.1-1.9 0.1-3.8 0.2-5.7z"/><path fill-rule="evenodd" class="z" d="m413.8 128.7c-0.8-0.8-0.7-1.9-0.7-2.9q0-4.4 0.1-8.8c1.3 3.9 0.8 7.8 0.6 11.7z"/><path fill-rule="evenodd" class="x" d="m362.5 309.8c-0.2-1.2-0.4-2.5 0.8-3.4 0.1 1.2 0 2.4-0.8 3.4z"/><path fill-rule="evenodd" class="x" d="m361.4 314.9c-0.1-1.1-0.4-2.3 0.8-3.2 0.1 1.2 0 2.3-0.8 3.2z"/><path fill-rule="evenodd" class="i" d="m172.1 129.1c-0.8 1-2 0.9-3.1 0.7 0.8-1 2-0.9 3.1-0.7z"/><path fill-rule="evenodd" class="z" d="m384.6 138.5c-0.2-0.9 0-1.7 0.8-2.2 0.1 0.9-0.1 1.6-0.8 2.2z"/><path fill-rule="evenodd" class="z" d="m383.6 141.6c-0.2-0.9 0-1.6 0.7-2.1 0.2 0.9-0.1 1.6-0.7 2.1z"/><path fill-rule="evenodd" class="d" d="m322.3 299.1c-0.1-0.9 0-1.7 0.9-2.2 0.1 0.9-0.2 1.7-0.9 2.2z"/><path fill-rule="evenodd" class="j" d="m215.5 198.6c0.3-0.5 0.7-0.9 1.3-0.9q-0.4 0.8-1.3 0.9z"/><path fill-rule="evenodd" class="A" d="m271.4 209.5q-0.2 0.5-0.7 0.7 0.4-0.4 0.7-0.7z"/><path fill-rule="evenodd" class="m" d="m248.2 211q0.4-0.4 0.9-0.8c-0.1 0.4-0.4 0.7-0.9 0.8z"/><path fill-rule="evenodd" class="A" d="m270.4 210.6q-0.2 0.4-0.6 0.5 0.1-0.5 0.6-0.5z"/><path fill-rule="evenodd" class="m" d="m245.2 213.6q0.2-1 1.3-1.1-0.4 0.9-1.3 1.1z"/><path fill-rule="evenodd" class="j" d="m217.6 197.3q0.5-0.4 1-0.8c-0.1 0.5-0.4 0.8-1 0.8z"/><path fill-rule="evenodd" class="j" d="m218.7 196.5q0.4-0.8 1.3-0.9c-0.3 0.5-0.7 0.8-1.3 0.9z"/><path fill-rule="evenodd" class="j" d="m220.8 195.2q0.5-0.4 1-0.8c-0.2 0.4-0.5 0.8-1 0.8z"/><path fill-rule="evenodd" class="j" d="m221.8 194.3q0.4-0.8 1.4-0.9-0.5 0.9-1.4 0.9z"/><path fill-rule="evenodd" class="j" d="m224 193q0.5-0.3 0.9-0.7c-0.1 0.4-0.4 0.7-0.9 0.7z"/><path fill-rule="evenodd" class="j" d="m225 192.2q0.4-0.8 1.3-0.9-0.4 0.8-1.3 0.9z"/><path fill-rule="evenodd" class="j" d="m227.1 191l1-0.9c-0.1 0.5-0.4 0.9-1 0.9z"/><path fill-rule="evenodd" class="t" d="m285.2 178.4l1-0.9q-0.2 0.8-1 0.9z"/><path fill-rule="evenodd" class="N" d="m344.6 178.8c0-0.6 0.3-1 0.8-1.2 0 0.5-0.2 1-0.8 1.2z"/><path fill-rule="evenodd" class="I" d="m326.4 169.1c0.1-0.6 0.4-0.9 1-1.2q-0.1 1-1 1.2z"/><path fill-rule="evenodd" class="e" d="m296.9 144.5q0.5-0.4 0.9-0.8-0.4 0.4-0.9 0.8z"/><path fill-rule="evenodd" class="e" d="m303.3 140.2q0.4-0.3 0.9-0.7-0.5 0.4-0.9 0.7z"/><path fill-rule="evenodd" class="z" d="m377 138.2q0.1 0.9-0.7 1.2c-0.1-0.6 0.1-1 0.7-1.2z"/><path fill-rule="evenodd" class="m" d="m249.2 210q0.5-0.4 1-0.9c-0.1 0.6-0.4 0.9-1 0.9z"/><path fill-rule="evenodd" class="A" d="m302.1 199.7q0.4-0.6 0.9-1.1c-0.1 0.6-0.4 0.9-0.9 1.1z"/><path fill-rule="evenodd" class="u" d="m350.8 138.6q0.1-0.9 1-1.2c-0.1 0.5-0.4 1-1 1.2z"/><path fill-rule="evenodd" class="j" d="m212.3 200.7q0.7-0.5 1.3-0.9-0.4 0.8-1.3 0.9z"/><path fill-rule="evenodd" class="e" d="m306.4 138.1q0.5-0.4 1-0.7-0.5 0.3-1 0.7z"/><path fill-rule="evenodd" class="d" d="m258.8 324.2q0.3-0.4 0.7-0.8c0 0.4-0.3 0.7-0.7 0.8z"/><path fill-rule="evenodd" class="e" d="m300.1 142.3c0.3-0.2 0.6-0.5 0.9-0.7-0.3 0.2-0.6 0.5-0.9 0.7z"/><path fill-rule="evenodd" class="z" d="m378 136.1q0.1 0.9-0.7 1.2c0-0.6 0.2-1 0.7-1.2z"/><path fill-rule="evenodd" class="r" d="m307.5 337.3q0-0.9 0.7-1.3 0.1 0.9-0.7 1.3z"/><path fill-rule="evenodd" class="u" d="m351.8 137.3q0.4-0.5 0.9-1.1c-0.1 0.6-0.4 1-0.9 1.1z"/><path fill-rule="evenodd" class="t" d="m284.1 179.4q0.5-0.5 1-0.9c-0.1 0.5-0.4 0.9-1 0.9z"/><path fill-rule="evenodd" class="e" d="m293.8 146.6q0.4-0.4 0.9-0.8-0.5 0.4-0.9 0.8z"/><path fill-rule="evenodd" class="e" d="m309.6 136l0.9-0.8z"/><path fill-rule="evenodd" class="V" d="m375.2 162.9c-0.1-0.5 0.1-0.9 0.6-1.2q0.1 0.9-0.6 1.2z"/><path fill-rule="evenodd" class="e" d="m312.7 133.9q0.5-0.4 1-0.8-0.5 0.4-1 0.8z"/><path fill-rule="evenodd" class="j" d="m214.5 199.4c0.3-0.3 0.6-0.5 0.9-0.8-0.1 0.5-0.4 0.8-0.9 0.8z"/><path fill-rule="evenodd" class="k" d="m323 357.9q0.2 0.8-0.5 1.2-0.2-0.8 0.5-1.2z"/><path fill-rule="evenodd" class="N" d="m331.7 200.7q0.3-0.5 0.7-0.9c0 0.4-0.3 0.7-0.7 0.9z"/><path fill-rule="evenodd" class="m" d="m250.3 209.1q0.6-0.5 1.1-1-0.2 0.9-1.1 1z"/><path fill-rule="evenodd" class="K" d="m255.5 383.4c0.1 0.6-0.1 0.9-0.6 1.1-0.1-0.5 0.1-0.9 0.6-1.1z"/><path fill-rule="evenodd" class="I" d="m325.5 170.4c0-0.7 0.4-1.1 1-1.3q-0.1 0.9-1 1.3z"/><path fill-rule="evenodd" class="t" d="m283.1 180.3q0.4-0.4 0.8-0.8-0.1 0.8-0.8 0.8z"/><path fill-rule="evenodd" class="e" d="m287.5 150.8c0.2-0.3 0.5-0.5 0.8-0.7-0.3 0.2-0.6 0.4-0.8 0.7z"/><path fill-rule="evenodd" class="u" d="m318 149.7q0.4-0.4 0.8-0.8c-0.1 0.5-0.3 0.8-0.8 0.8z"/><path fill-rule="evenodd" class="u" d="m319 148.8q0.5-0.5 1-0.9c-0.2 0.5-0.5 0.8-1 0.9z"/><path fill-rule="evenodd" class="j" d="m211.3 201.5c0.3-0.3 0.6-0.5 0.9-0.8-0.1 0.5-0.4 0.8-0.9 0.8z"/><path fill-rule="evenodd" class="e" d="m290.6 148.7l0.9-0.7z"/><g style="opacity:1"><path fill-rule="evenodd" class="a0" d="m62.3 89.7c-4.6 0-9.1 0-13.7 0-1.2 0-1.9-0.7-1.9-1.9q0-10 0-20c0-1.1 0.6-1.6 1.6-1.7q0.8-0.1 1.6-0.1h24.8c0.5 0 1 0 1.5 0.1 0.8 0.1 1.2 0.6 1.4 1.4q0.1 0.5 0.1 1c0 6.4 0 12.7 0 19-0.1 1.7-0.6 2.2-2.2 2.2-4.4 0.1-8.8 0-13.2 0z"/></g></svg>