<svg version="1.2" xmlns="http://www.w3.org/2000/svg" viewBox="0 0 368 433" width="368" height="433"><defs><clipPath clipPathUnits="userSpaceOnUse" id="cp1"><path d="m-1051.52 517.19h1417.62v-538.6h-1417.62z"/></clipPath><clipPath clipPathUnits="userSpaceOnUse" id="cp2"><path d="m-1051.52 517.19h1417.62v-538.6h-1417.62z"/></clipPath><clipPath clipPathUnits="userSpaceOnUse" id="cp3"><path d="m169.99 76.26c-10.56 23.91-40.42 41.17-66.4 38.33-25.97-2.81-34.59 12.12-19.16 33.21 15.42 21.09 15.42 55.58 0 76.66-15.43 21.09-6.81 36.03 19.16 33.19 25.98-2.81 55.84 14.43 66.4 38.35 10.55 23.9 27.78 23.9 38.34 0 10.52-23.92 40.41-41.16 66.39-38.35 25.98 2.84 34.59-12.1 19.16-33.19-15.44-21.08-15.44-55.57 0-76.66 15.43-21.09 6.82-36.02-19.16-33.21-25.98 2.84-55.87-14.42-66.39-38.33-5.28-11.93-12.22-17.93-19.18-17.93-6.96 0-13.91 6-19.16 17.93z"/></clipPath><clipPath clipPathUnits="userSpaceOnUse" id="cp4"><path d="m-1051.52 517.19h1417.62v-538.6h-1417.62z"/></clipPath><clipPath clipPathUnits="userSpaceOnUse" id="cp5"><path d="m-1051.52 517.19h1417.62v-538.6h-1417.62z"/></clipPath><clipPath clipPathUnits="userSpaceOnUse" id="cp6"><path d="m-1051.52 517.19h1417.62v-538.6h-1417.62z"/></clipPath><clipPath clipPathUnits="userSpaceOnUse" id="cp7"><path d="m-1051.52 517.19h1417.62v-538.6h-1417.62z"/></clipPath><clipPath clipPathUnits="userSpaceOnUse" id="cp8"><path d="m-1051.52 517.19h1417.62v-538.6h-1417.62z"/></clipPath><clipPath clipPathUnits="userSpaceOnUse" id="cp9"><path d="m-1051.52 517.19h1417.62v-538.6h-1417.62z"/></clipPath></defs><style>.a{fill:#fff}.b{fill:#33b652}.c{fill:none;stroke:#231f20;stroke-width:5.5}.d{fill:#f7973b}.e{fill:none;stroke:#231f20;stroke-width:2.8}.f{fill:#231f20}.g{fill:none;stroke:#231f20;stroke-miterlimit:10;stroke-width:5.5}.h{fill:none;stroke:#231f20;stroke-width:1.4}.i{fill:none;stroke:#231f20;stroke-width:1.9}.j{fill:none;stroke:#231f20;stroke-width:1.2}.k{fill:none;stroke:#231f20;stroke-width:2.5}</style><g style="opacity:1"><path class="a" d="m226.9 222.6v11.6l33.7 22.6c0 0 2-1.2 14 0 11.9 1.2 25-2.7 26.2-7.5 1.1-4.7-1.1-16.3-4.9-21.1-3.8-4.8-5.6-5.6-5.6-5.6z"/><path class="b" d="m359.8 53.4l-63.2-50.1-9.1 5.2h-100.7-1-100.7l-9.1-5.2-63.2 50.1c26.1 1.1 23.9 24.1 23.9 24.1v258.8c0 0 13 52 110.6 67.6 26.1 4.2 35.8 20.2 38.5 26.2h1c2.7-6 12.4-22 38.5-26.2 97.6-15.6 110.6-67.6 110.6-67.6v-258.8c0 0-2.3-23 23.9-24.1z"/><path class="c" d="m359.8 53.4l-63.2-50.1-9.1 5.2h-100.7-1-100.7l-9.1-5.2-63.2 50.1c26.1 1.1 23.9 24.1 23.9 24.1v258.8c0 0 13 52 110.6 67.6 26.1 4.2 35.8 20.2 38.5 26.2h1c2.7-6 12.4-22 38.5-26.2 97.6-15.6 110.6-67.6 110.6-67.6v-258.8c0 0-2.3-23 23.9-24.1z"/><path class="d" d="m105.5 292.2c0 0 11 11.5 31.2 19.1l-10.8 25c0 0-23.4-7.7-36.4-22.9z"/><path class="e" d="m105.5 292.2c0 0 11 11.5 31.2 19.1l-10.8 25c0 0-23.4-7.7-36.4-22.9z"/><path class="f" d="m114.7 307.6l22.6 3.7-5 6.8c0 0-8.7-2.5-17.6-10.5z"/><path class="d" d="m268.4 292.2c0 0-11.1 11.5-31.3 19.1l10.9 25c0 0 23.3-7.7 36.3-22.9z"/><path class="e" d="m268.4 292.2c0 0-11.1 11.5-31.3 19.1l10.9 25c0 0 23.3-7.7 36.3-22.9z"/><path class="f" d="m259.1 307.6l-22.6 3.7 5.1 6.8c0 0 8.6-2.5 17.5-10.5z"/><path class="f" d="m5.3 55.8c0 0-11.8 12.7-0.2 30.9l28.6-17c0 0-4.3-16.8-28.4-13.9z"/><path class="a" d="m275.5 337.5l-16.5-28c0 0-28.7 19.2-71.9 19.2-43.2 0-71.9-19.2-71.9-19.2l-16.6 28c38.7 25.4 88.5 24.5 88.5 24.5 0 0 48.8 0.9 88.4-24.5z"/><path class="e" d="m275.5 337.5l-16.5-28c0 0-28.7 19.2-71.9 19.2-43.2 0-71.9-19.2-71.9-19.2l-16.6 28c38.7 25.4 88.5 24.5 88.5 24.5 0 0 48.8 0.9 88.4-24.5z"/><path class="f" d="m154.6 334.7q0 0.3-0.1 0.7-0.1 0.6-0.8 1.6-0.5 0.7-0.9 1.5-0.5 0.7-0.8 1.7-0.2 0.8-0.5 2.2-0.3 1.9-0.5 2.5-0.1 0.6-0.6 3.4-0.3 2.5-0.4 2.5l-2.7 2.2-0.9-0.2q0.3-2.8 0.6-4.2 1.8-7.9 2.4-8.8 0.3-0.4 0.7-0.9 0.4-0.7 0.5-1.1 0.2-0.6-0.3-0.9-0.7-0.5-2.1-1.7-0.5-0.5-0.4-0.9 0-0.1 0.2-0.3l2.4-3.4 0.7 0.2q0.1 0.3 0.1 0.5 0.2 0.5 0.8 1 0.8 0.5 1.7 1.2 0.8 0.6 0.9 1.2z"/><path class="f" d="m162.1 348q0 0.1-0.1 0.2l-2.3 2-0.7-0.1q-0.1-0.5-0.2-2.3 0.2-0.9 0.3-1.8 0.1-0.9-0.2-0.9-0.2-0.1-0.5 0.9-0.6 1.2-1.5 2.2-1.3 1.4-3.5 0.8l1.1-4.4q0.5 0.1 2.2-0.8 2.2-1 2.6-2.5 0.2-0.3 0.2-0.6 0.2-1.1-0.6-1.9-0.8-0.6-1.7-1.2-0.9-0.7-1-1.2l2.6-4.3 0.6 0.1q0.1 0.3 0.1 0.6 0.3 0.5 0.8 1 0.2 0.2 1.4 0.9 0.8 0.5 1 1.2 0.4 1.2-0.7 5.6-0.3 1.1-0.1 3.6 0.2 2.6 0.2 2.9z"/><path class="f" d="m165.7 343.8l11.8 1.2 1-2.5-11.9-1.1z"/><g clip-path="url(#cp1)"><path class="f" d="m197.5 349.6l-2.4 2.8h-0.7q0 0.2 0-0.9-0.1-1.2-0.1-2.8-0.2-4-0.2-3.6-0.1-2.7-0.6-3.3-0.4-0.6-1.1-0.7-0.3-0.1-1.2-0.1l-3.3 0.1q0 1.2 0.2 3.8 0.1 0.7 0.3 1.9 0.1 1.2 0.1 1.1l-1 4.1q-1 0.1-2.1 0.2 0.4-0.1-3.1 0.2l-0.3-0.2 0.8-4.2q0.7-0.2 1.1-0.2 0.4 0 1.3-0.1l-0.4-5.7q-0.3-1-1.3-1.3-1-0.3-1.5-1.1l1.7-4.5h0.8q0.2 0.3 0.8 0.9 0.6 0.4 2.4 0.4l5.4-0.3q2.3-0.1 3.3 1.2 0.5 0.7 0.6 3.1 0.1 0.9 0 2.3 0 1.3 0 1.4 0 0.4 0.3 2.8 0.2 2.5 0.2 2.7z"/><path class="f" d="m213.6 335.6q1.5 1.7 2.1 4.4 0.8 3.9 0.6 5l-0.5 4.4-7.6 1.1-0.3-0.2 0.8-4.5q0.4-0.1 1.3-0.2 0.7-0.1 1-0.2 0.3-0.1 0.6-0.1l1.6-0.2q-0.2-1.5-0.6-3.1-0.3-1.7-1.5-2.5-0.9-0.6-2-0.5-1.3 0.2-2.2 1.7-0.9 1.5-1 3.4-0.1 1.2 0.2 3 0.1 0.8 0.2 1.6l-2.1 2.9-1.1 0.2q-0.3-1.9-0.3-3.3 0.1-1.6 0.5-3.5 0.2-1.5 0-2.5-0.2-0.9-1-1.7-0.7-0.6-1.4-1.3-0.4-0.4-0.7-1l1.6-4.3 0.9-0.1q0.1 0.3 0.5 1 0.1 0.2 1 0.9 0.7 0.5 1.3 1.5 0.1 0.3 0.3 0.8 0.1 0.4 0.2 0.4l0.2-1.1q0.3-1.3 1-2.2 0.9-1.2 2.5-1.4 2.2-0.3 3.9 1.6z"/><path class="f" d="m230 342.5q0.3 0.9 0.6 1.8l-1.7 3.1-0.9 0.2q-0.6-1.8-1.1-4-1.2-5.7-1.5-6-1-1.1-3.1-0.6l-1.4 0.3q-1.6 0.3-2.3 0.1-0.7-0.1-1.1-0.7l0.8-5 0.7-0.2q0.3 0.3 0.7 0.7 0.9 0.2 2.3-0.1l0.8-0.2q3.3-0.7 4.6 0.7 0.7 0.7 1 2 0.2 0.7 0.3 2.3 0.2 1.6 0.4 2.6 0.3 1.2 0.9 3z"/></g><path class="a" d="m194.5 33.8h-5.8l-2.5-4-2.4 4h-5.7l2.9 4.6-2.9 4.6h5.8l2.4 4 2.5-4h5.7l-2.9-4.5z"/><path class="a" d="m194.5 276.4h-5.8l-2.5-4-2.4 4h-5.7l2.9 4.6-2.9 4.6h5.8l2.4 4 2.5-4h5.7l-2.9-4.6z"/><path class="a" d="m260.3 274.5h-5.7l-2.5-3.9-2.5 3.9h-5.7l2.9 4.6-2.9 4.7h5.8l2.5 3.9 2.5-3.9h5.6l-2.8-4.6z"/><path class="a" d="m128.7 274.5h-5.8l-2.5-3.9-2.5 3.9h-5.7l2.9 4.6-2.9 4.7h5.8l2.5 3.9 2.5-3.9h5.7l-2.9-4.6z"/><g clip-path="url(#cp2)"><path class="a" d="m120.8 212.1c0 0-2.5 13.3 17.8 50.3 0 0-13.2-8.7-35.5-4.3 0 0-30.4 0.5-26.3-18.7l18-26.7z"/><path class="a" d="m170 76.3c10.5-23.9 27.8-23.9 38.3 0 10.6 23.9 40.4 41.1 66.4 38.3 26-2.8 34.6 12.1 19.2 33.2-15.4 21.1-15.4 55.6 0 76.7 15.4 21.1 6.8 36-19.2 33.2-26-2.8-55.8 14.4-66.4 38.3-10.5 23.9-27.8 23.9-38.3 0-10.6-23.9-40.4-41.1-66.4-38.3-26 2.8-34.6-12.1-19.2-33.2 15.5-21.1 15.5-55.6 0-76.7-15.4-21.1-6.8-36 19.2-33.2 26 2.8 55.8-14.4 66.4-38.3z"/></g><g clip-path="url(#cp3)"><path class="d" d="m181.7 136l-4.5-67.8c0 0 7.8-11.4 12.8-10.5 5.1 0.9 11 7.8 11 10.8l-4.4 67.5z"/><path class="d" d="m240 222.6l-11.3-7.4 7.4-12.9 41.4 20.3"/><path class="d" d="m239.1 178.3l67.8-4.4c0 0 11.4 7.7 10.5 12.8-0.9 5-7.8 11-10.8 11l-67.7-4.5z"/><path class="d" d="m209.7 140l30.1-60.9c0 0 12.4-6 16.3-2.7 4 3.3 5.6 12.3 4.1 14.9l-38.2 57.2z"/><path class="d" d="m227.8 155.2l56.5-37.7c0 0 13.8 1 15.5 5.8 1.8 4.9-1.3 13.5-3.8 14.9l-60.7 29.9z"/><path class="d" d="m139.4 178.3l-67.8-4.4c0 0-11.4 7.7-10.5 12.8 0.9 5 7.8 11 10.8 11l67.5-4.5z"/><path class="d" d="m168.8 140l-30.1-60.9c0 0-12.4-6-16.3-2.7-4 3.3-5.6 12.3-4.1 14.9l38.4 57.2z"/><path class="d" d="m150.7 155.2l-56.5-37.7c0 0-13.8 1-15.5 5.8-1.8 4.9 1.3 13.5 3.8 14.9l60.7 29.9z"/></g><g clip-path="url(#cp4)"><path class="g" d="m170 76.3c10.5-23.9 27.8-23.9 38.3 0 10.6 23.9 40.4 41.1 66.4 38.3 26-2.8 34.6 12.1 19.2 33.2-15.4 21.1-15.4 55.6 0 76.7 15.4 21.1 6.8 36-19.2 33.2-26-2.8-55.8 14.4-66.4 38.3-10.5 23.9-27.8 23.9-38.3 0-10.6-23.9-40.4-41.1-66.4-38.3-26 2.8-34.6-12.1-19.2-33.2 15.5-21.1 15.5-55.6 0-76.7-15.4-21.1-6.8-36 19.2-33.2 26 2.8 55.8-14.4 66.4-38.3z"/><path class="d" d="m189.2 236.2c27.8 0 50.4-22.6 50.4-50.4 0-27.9-22.6-50.4-50.4-50.4-27.9 0-50.4 22.5-50.4 50.4 0 27.8 22.5 50.4 50.4 50.4z"/></g><path class="h" d="m230.4 222.3h60.7l-62.1 0.3m1.4 8.6h68.3m-68.3 8.9h69.8m-69.8 8.9h69.6"/><path class="e" d="m91 212.3h35.8"/><path class="f" d="m94.8 223.9h8.3v-7.4h-8.3z"/><path class="f" d="m107.4 223.9h8.4v-7.4h-8.4z"/><path class="e" d="m94.8 174.2h70.5l17.8 19.2"/><path class="h" d="m252.8 222.5v8.8m16.5-8.8v8.8m-17.4 8.4v8.8m17-8.8v8.8m17-8.8v8.8m-0.1-26.4v8.8m-49.5-8.8v8.8m24.9 0v8.8m17.1-8.8v8.8m17.1-8.8v8.8m-51.3-8.8v8.8m51.3 9.6v4.4m-34.2-4.4v8.8m17.1-8.8v8.8"/><path class="a" d="m112.5 211.5h12.3l-1.9-63h-8.3z"/><path class="i" d="m112.5 211.5h12.3l-1.9-63h-8.3z"/><path class="f" d="m112 159.1h13.3v-6.1h-13.3z"/><path class="f" d="m118.6 210.9v-62.4h4.3l2.8 63.6z"/><path class="e" d="m226.9 201.4l55.9-17.8"/><path class="a" d="m180.7 216.6l2.8-15.5h43.4l5.1 42z"/><path class="e" d="m180.7 216.6l2.8-15.5h43.4l5.1 42z"/><g clip-path="url(#cp5)"><path class="f" d="m137.3 261.2c-2-1.1-31.8-51.3-10.7-62.2 0 0 41-22.8 137.1 57.7 0 0-49.1 10.8-60.6 45.2 0 0-7.4 10.9-14.2 10.9-6.8 0-17.2-6.8-22.1-21.6 0 0-4.1-16.2-29.5-30z"/><path class="a" d="m221.7 241.5c0 0-3.2 7.5-32.7 7.5 0 0-30.2 1.3-36.3-6.3l0.7-0.4c0 0 1.6 1.7 4.6 2.2 0 0-2.1-4.8-1.1-8.7 0 0-5.2 1.5-7 6.5l7.4 22.5c0 0 6.9 8 31.2 7.6 0 0 20.3-0.7 27.6-7.6z"/><path class="a" d="m217.4 237.4c0 0 2.6 0.9 4.2 2.6 0 0-2 2.6-5.1 3.6 0 0 0.5-0.1 0.9-3 0.4-3 0-3.2 0-3.2z"/><path class="b" d="m175.9 220.3c0 0-5.9 6-14.1 6 0 0-1.7-10.2 14.1-11.8 0 0 2.5 0.1 2 14h-1.3c0 0 0.8-6-0.7-8.2z"/><path class="f" d="m166.7 220.3c0 0 2.9-3.8 7.3-4l0.7 0.5c0 0-5.3 2.4-6.2 3.8z"/><path class="d" d="m171.1 246.4c4 0 7.3 2.2 9.5-0.8 1.5-2 2.3-4.5 2.3-7.2 0-6.7-5.4-12.1-12-12.1-6.7 0-12 5.4-12 12.1 0 2.3 0.5 4.5 1.7 6.3 0.4 0.6 6.1 1.7 10.5 1.7z"/><path class="d" d="m199.4 241.7c0 0-1.6-8.4 11.7-10.5 0 0 3.4-2 3.7-0.9 0.4 0.9 2.9 9.6 0.2 13.6-0.6 0.8-8.5 3-14 2.9-2.7-0.1-1.6-5.1-1.6-5.1z"/><path class="b" d="m192.4 240c0 0 3.4-6.7 3.4-9.1 0 0 2.1-2.4 3.6-1.7 1.4 0.8 2.5 4.4 2.5 4.4l-1.9-0.7c0 0 0.6 3.7-1 5.3l-1.5-1.2-2.6 3.1z"/><path class="b" d="m186.6 245.1c0 0-0.8-6.9 4.2-9.1l0.8-1.5c0 0-6.9 1.5-7.6 0.7-0.6-0.7 1.6-2.8 0.9-3.5-0.8-0.6 3-6.2 8.2-4l1.1 0.8c0 0-4.4 1.2-5.1 2.8 0 0 3.6-1.3 5.1-1.3 0 0 0.6 5.2-2.6 9.3l-0.8 7.5z"/><path class="f" d="m202.7 244.9c0-2.1-1.7-3.8-3.7-3.8-0.8 0-1.6 0.3-2.2 0.7-0.4-1.6-1.8-2.9-3.6-2.9-2 0-3.7 1.7-3.7 3.8 0 0.6 0.2 1.2 0.5 1.7-0.1-0.5-1.1-1.3-2.1-1.6-1.5-0.4-2.7 0.2-3.3 0.8 0 0-0.1-0.1-0.1-0.1-0.7-0.9-1-1-1.8-1.3 1.1-0.6 1.9-1.9 1.9-3.3 0-2-1.6-3.7-3.7-3.7-2 0-3.7 1.7-3.7 3.7q0 0.3 0 0.5c-0.5-0.3-1.1-0.5-1.7-0.5-2 0-3.7 1.7-3.7 3.8 0 0.6 0.2 1.1 0.4 1.6-0.4-0.2-0.9-0.3-1.4-0.3-2.1 0-3.7 1.7-3.7 3.7 0 2 1.6 3.7 3.6 3.7-0.6 0.7-0.9 1.5-0.9 2.4 0 1.9 1.4 3.4 3.1 3.6-0.2 0.6-0.4 1.2-0.4 1.8 0 2 1.6 3.7 3.7 3.7 0.6 0 1.2-0.2 1.7-0.4-0.5 0.6-0.7 1.3-0.7 2.1 0 2 1.7 3.7 3.7 3.7 0.9 0 1.6-0.3 2.3-0.8 0.5 1.5 1.8 2.5 3.4 2.5 2.1 0 3.8-1.7 3.8-3.7 0-1-0.4-1.9-1.1-2.6 0.4-0.3 0.6-0.7 0.8-1.2 0.1 0 0.2 0.1 0.3 0.1 2.2 0 3.7-1.7 3.7-3.7q0-0.4-0.1-0.6c1.7-0.4 2.9-1.9 2.9-3.7q0-0.6-0.2-1.1c1.6-0.4 2.8-1.9 2.8-3.6q0-0.7-0.3-1.4c1.9-0.1 3.5-1.7 3.5-3.6zm-24.9 0.7v0.1c0 0-0.1 0-0.1 0q0.1-0.1 0.1-0.1zm5 15.8q0.1-0.1 0.1-0.2"/><path class="d" d="m175.9 250.4c1.1 0 2-0.9 2-2 0-1.2-0.9-2.1-2-2.1-1.1 0-2 0.9-2 2.1 0 1.1 0.9 2 2 2z"/><path class="d" d="m180.9 260.5c1.1 0 2.1-0.9 2.1-2 0-1.1-1-2-2.1-2-1.1 0-2 0.9-2 2 0 1.1 0.9 2 2 2z"/><path class="d" d="m180.7 266.7c1.1 0 2-0.9 2-2 0-1.1-0.9-2-2-2-1.2 0-2.1 0.9-2.1 2 0 1.1 0.9 2 2.1 2z"/><path class="d" d="m175.9 261.4c1.2 0 2.1-0.9 2.1-2 0-1.1-0.9-2-2.1-2-1.1 0-2 0.9-2 2 0 1.1 0.9 2 2 2z"/><path class="d" d="m173.2 256c1.1 0 2.1-0.9 2.1-2 0-1.2-1-2.1-2.1-2.1-1.1 0-2 0.9-2 2.1 0 1.1 0.9 2 2 2z"/><path class="d" d="m186.7 268.7c1.1 0 2-0.9 2-2 0-1.1-0.9-2-2-2-1.1 0-2 0.9-2 2 0 1.1 0.9 2 2 2z"/><path class="d" d="m193.5 256.7c1.1 0 2-0.9 2-2 0-1.1-0.9-2-2-2-1.1 0-2 0.9-2 2 0 1.1 0.9 2 2 2z"/><path class="d" d="m199 246.7c1.1 0 2-0.9 2-2 0-1.2-0.9-2.1-2-2.1-1.1 0-2 0.9-2 2.1 0 1.1 0.9 2 2 2z"/><path class="d" d="m170.6 249.9c1.1 0 2.1-0.9 2.1-2 0-1.2-1-2.1-2.1-2.1-1.1 0-2 0.9-2 2.1 0 1.1 0.9 2 2 2z"/><path class="d" d="m178.6 255.5c1.1 0 2-0.9 2-2 0-1.2-0.9-2.1-2-2.1-1.1 0-2 0.9-2 2.1 0 1.1 0.9 2 2 2z"/><path class="d" d="m175.2 244.4c1.2 0 2.1-1 2.1-2.1 0-1.1-0.9-2-2.1-2-1.1 0-2 0.9-2 2 0 1.1 0.9 2.1 2 2.1z"/><path class="d" d="m193.2 244.4c1.1 0 2-1 2-2.1 0-1.1-0.9-2-2-2-1.2 0-2.1 0.9-2.1 2 0 1.1 0.9 2.1 2.1 2.1z"/><path class="d" d="m190.5 261.1c1.1 0 2-0.9 2-2 0-1.1-0.9-2.1-2-2.1-1.2 0-2.1 1-2.1 2.1 0 1.1 0.9 2 2.1 2z"/><path class="d" d="m180.6 246.8c1.1 0 2-0.9 2-2 0-1.2-0.9-2.1-2-2.1-1.2 0-2.1 0.9-2.1 2.1 0 1.1 0.9 2 2.1 2z"/><path class="d" d="m188.8 253.6c1.1 0 2-0.9 2-2 0-1.1-0.9-2-2-2-1.1 0-2 0.9-2 2 0 1.1 0.9 2 2 2z"/><path class="d" d="m185.3 257.5c1.1 0 2-0.9 2-2 0-1.2-0.9-2.1-2-2.1-1.1 0-2.1 0.9-2.1 2.1 0 1.1 1 2 2.1 2z"/><path class="d" d="m185.6 263.3c1.1 0 2-0.9 2-2.1 0-1.1-0.9-2-2-2-1.1 0-2.1 0.9-2.1 2 0 1.2 1 2.1 2.1 2.1z"/><path class="d" d="m191.7 249.4c1.2 0 2.1-0.9 2.1-2.1 0-1.1-0.9-2-2.1-2-1.1 0-2 0.9-2 2 0 1.2 0.9 2.1 2 2.1z"/><path class="d" d="m186.8 248c1.1 0 2.1-1 2.1-2.1 0-1.1-1-2-2.1-2-1.1 0-2 0.9-2 2 0 1.1 0.9 2.1 2 2.1z"/><path class="d" d="m182.9 251.9c1.2 0 2.1-0.9 2.1-2 0-1.1-0.9-2-2.1-2-1.1 0-2 0.9-2 2 0 1.1 0.9 2 2 2z"/><path class="d" d="m181.1 241.2c1.2 0 2.2-1 2.2-2.2 0-1.3-1-2.3-2.2-2.3-1.3 0-2.3 1-2.3 2.3 0 1.2 1 2.2 2.3 2.2z"/><path class="d" d="m196.1 251.9c1.1 0 2-0.9 2-2 0-1.1-0.9-2-2-2-1.1 0-2.1 0.9-2.1 2 0 1.1 1 2 2.1 2z"/></g><path class="a" d="m236.6 222.2h9.9v-8.1h-9.9z"/><path class="h" d="m236.6 222.2h9.9v-8.1h-9.9z"/><path class="f" d="m247.2 222h2.9v-6.1l-2.9-2.5z"/><g clip-path="url(#cp6)"><path class="b" d="m241.5 211.4c3 0 5.4-2.4 5.4-5.4 0-2.9-2.4-5.3-5.4-5.3-2.9 0-5.3 2.4-5.3 5.3 0 3 2.4 5.4 5.3 5.4z"/><path class="j" d="m241.5 211.4c3 0 5.4-2.4 5.4-5.4 0-2.9-2.4-5.3-5.4-5.3-2.9 0-5.3 2.4-5.3 5.3 0 3 2.4 5.4 5.3 5.4z"/></g><path class="k" d="m241.5 211.3v2.9"/><g clip-path="url(#cp7)"><path class="b" d="m257.8 211.4c3 0 5.4-2.4 5.4-5.4 0-2.9-2.4-5.3-5.4-5.3-2.9 0-5.3 2.4-5.3 5.3 0 3 2.4 5.4 5.3 5.4z"/><path class="j" d="m257.8 211.4c3 0 5.4-2.4 5.4-5.4 0-2.9-2.4-5.3-5.4-5.3-2.9 0-5.3 2.4-5.3 5.3 0 3 2.4 5.4 5.3 5.4z"/></g><path class="k" d="m257.8 211.3v2.9"/><path class="a" d="m252.9 222.2h9.9v-8.1h-9.9z"/><path class="h" d="m252.9 222.2h9.9v-8.1h-9.9z"/><path class="f" d="m263.5 222h2.9v-6.1l-2.9-2.5z"/><g clip-path="url(#cp8)"><path class="b" d="m274.2 211.4c2.9 0 5.3-2.4 5.3-5.4 0-2.9-2.4-5.3-5.3-5.3-3 0-5.4 2.4-5.4 5.3 0 3 2.4 5.4 5.4 5.4z"/><path class="j" d="m274.2 211.4c2.9 0 5.3-2.4 5.3-5.4 0-2.9-2.4-5.3-5.3-5.3-3 0-5.4 2.4-5.4 5.3 0 3 2.4 5.4 5.4 5.4z"/></g><path class="k" d="m274.2 211.3v2.9"/><path class="a" d="m269.2 222.2h9.9v-8.1h-9.9z"/><path class="h" d="m269.2 222.2h9.9v-8.1h-9.9z"/><path class="f" d="m279.8 222h2.9v-6.1l-2.9-2.5z"/><path class="a" d="m313.1 179h-5.8l-2.5-4-2.5 4h-5.7l2.9 4.5-2.9 4.7h5.8l2.5 4 2.5-4h5.7l-2.9-4.6z"/><path class="a" d="m260.3 84.6h-5.7l-2.5-4-2.5 4h-5.7l2.9 4.6-2.9 4.6h5.8l2.5 4 2.5-4h5.6l-2.8-4.5z"/><path class="a" d="m129 84.6h-5.7l-2.5-4-2.5 4h-5.7l2.9 4.6-2.9 4.6h5.8l2.5 4 2.4-4h5.7l-2.8-4.5z"/><path class="a" d="m80.8 179h-5.8l-2.5-4-2.4 4h-5.7l2.8 4.5-2.8 4.7h5.7l2.5 4 2.5-4h5.7l-2.9-4.6z"/><g clip-path="url(#cp9)"><path class="f" d="m367.1 55.8c0 0 11.8 12.7 0.3 30.9l-28.7-17c0 0 4.3-16.8 28.4-13.9z"/><path class="f" d="m194.8 186.4c0-1.1-0.3-2.1-0.8-3 0.4-0.8 0.7-1.7 0.7-2.7 0-1.1-0.3-2.1-0.8-2.9 0.4-0.8 0.7-1.8 0.7-2.8 0-1.1-0.3-2.1-0.8-2.9 0.4-0.8 0.7-1.7 0.7-2.7 0-1.1-0.3-2.1-0.9-3 0.5-0.8 0.8-1.7 0.8-2.7 0-1.1-0.3-2.1-0.9-3 0.5-0.7 0.8-1.7 0.8-2.7 0-1.1-0.3-2.1-0.9-2.9 0.5-0.8 0.8-1.7 0.8-2.7 0-1.1-0.4-2.1-0.9-3 0.5-0.8 0.8-1.7 0.8-2.7 0-1.1-0.4-2.1-0.9-2.9 0.5-0.8 0.8-1.8 0.8-2.8 0-1.1-0.4-2.1-0.9-2.9 0.5-0.8 0.7-1.7 0.7-2.7 0-1.1-0.3-2.1-0.8-3 0.5-0.7 0.7-1.7 0.7-2.7 0-1.1-0.3-2.1-0.9-2.9 0.6-0.8 0.8-1.7 0.8-2.8 0-1.1-0.3-2.1-0.9-2.9 0.5-0.8 0.8-1.7 0.8-2.7 0-1.1-0.3-2.1-0.9-2.9 0.5-0.8 0.8-1.8 0.8-2.8 0-1.1-0.3-2.1-0.9-2.9 0.5-0.8 0.8-1.7 0.8-2.8 0-2.6-2-4.7-4.4-4.7-2.5 0-4.5 2.1-4.5 4.7 0 1.1 0.4 2.1 0.9 2.8-0.5 0.9-0.9 1.8-0.9 2.9 0 1 0.3 2 0.9 2.8-0.6 0.8-0.9 1.8-0.9 2.9 0 1 0.3 2 0.9 2.8-0.6 0.8-0.9 1.8-0.9 2.8 0 1.1 0.3 2 0.9 2.9-0.6 0.8-0.9 1.8-0.9 2.8 0 1 0.3 2 0.9 2.8-0.6 0.8-0.9 1.8-0.9 2.9 0 1 0.3 2 0.8 2.8q-0.8 1.2-0.8 2.8 0.1 1.6 0.8 2.9c-0.5 0.8-0.8 1.7-0.8 2.8q0.1 1.6 0.8 2.8c-0.5 0.9-0.8 1.8-0.8 2.9 0 1 0.3 2 0.8 2.8-0.5 0.8-0.8 1.8-0.8 2.8 0 1.1 0.3 2 0.8 2.8-0.5 0.9-0.8 1.8-0.8 2.9 0 1.1 0.3 2 0.8 2.8-0.5 0.9-0.8 1.8-0.8 2.9 0 1 0.3 2 0.8 2.8-0.5 0.8-0.8 1.8-0.8 2.8 0 1.1 0.3 2 0.8 2.9-0.5 0.8-0.8 1.8-0.8 2.8 0 1 0.3 2 0.8 2.8-0.5 0.9-0.8 1.8-0.8 2.9q0 1.2 0.5 2.2-0.5 1-0.5 2.1c0 2.9 2.3 5.2 5.2 5.2 2.9 0 5.2-2.3 5.2-5.2q0-1.1-0.5-2.1 0.5-1 0.5-2.2z"/><path class="b" d="m203.7 93c0 0-0.4-8-7.4-8.6 0 0-1.8-2.8-7.4-3.1-5.5 0.3-7.3 3.1-7.3 3.1-6.9 0.6-7.4 8.6-7.4 8.6-11.2 6-3.8 15.2-3.8 15.2-1.3-6.7 7.5-8.8 8.1-8.9 3-0.6 1.2 2.8 1.2 2.8-2.6 2.9 0.2 6.1 0.2 6.1 1.3-1.7 3.5-3.1 5.4-4l3.6 4 4-3.9c1.8 1 3.9 2.3 5.1 3.9 0 0 2.8-3.2 0.2-6.1 0 0-1.8-3.4 1.2-2.8 0.6 0.1 9.4 2.2 8.1 8.9 0 0 7.5-9.2-3.8-15.2z"/></g><path class="a" d="m183.6 201.2h43.1v-8.5h-43.1z"/><path class="e" d="m183.6 201.2h43.1v-8.5h-43.1zm102.2-36.1l-58.9 28.3"/></g></svg>