<svg version="1.2" xmlns="http://www.w3.org/2000/svg" viewBox="0 0 260 341" width="260" height="341"><style>.a{opacity:1;fill:#006f5a}.b{opacity:1;fill:#30ae8c}.c{opacity:1;fill:#231f20}.d{opacity:1;fill:#db2726}</style><path class="a" d="m210.5 268.5c-18.8 0-15 4.7-31.3 4.7-4.8 0-8.3-2.4-11.1-5.8l-10.9 28.8h100.5c0 0-27.7-27.7-47.2-27.7z"/><path class="a" d="m132.3 247.7c-4.9 0.7-10.8 1.3-18.6 1.3-46 0-40.2-32-66.5-32-1.7 0-5 0.7-5 0.7l-41.7 78.5h131.8z"/><path class="b" d="m132.3 165.3h20v23.7h16.4v-36.7h13.6v-14.6l-50.3-95.7-77.7 150c0 0 10 0.3 26.7 19.3 15.7 16 31 13 43.3 11.4 2.7-0.4 5.3-0.4 8-0.3z"/><path class="b" d="m202.6 176.2l-26 68.8c4.7 1.7 9.2 2.7 12.1 2.7 7.3 0 9-4.7 27.6-4.7 18.7 0 31 18.3 31 18.3z"/><path class="c" d="m146.8 315.6v-1q0-0.8 0.3-1.1 0.3-0.4 1.1-0.4h3.4q1.7 0 2.4 0.7 0.7 0.8 0.7 2.5v20.2q0 0.3 0.1 0.4 0.1 0.1 0.5 0.1h1.3q0.8 0 1.1 0.4 0.3 0.3 0.3 1.1v1q0 0.8-0.3 1.1-0.3 0.4-1.1 0.4h-2.7q-1.7 0-2.5-0.8-0.7-0.7-0.7-2.4v-20.2q0-0.3-0.1-0.4-0.1-0.1-0.4-0.1h-2q-0.8 0-1.1-0.4-0.3-0.3-0.3-1.1z"/><path class="c" d="m158.8 315.6v-1q0-0.8 0.3-1.1 0.4-0.4 1.1-0.4h4.9q1.7 0 2.5 0.7 0.7 0.8 0.7 2.5v6.6q0 0.8-0.4 1.2-0.3 0.3-1.1 0.3h-1q-0.8 0-1.2-0.3-0.3-0.4-0.3-1.2v-5.3q0-0.3-0.1-0.4-0.1-0.1-0.5-0.1h-3.5q-0.7 0-1.1-0.4-0.3-0.3-0.3-1.1z"/><path class="c" d="m171.2 315.6v-1q0-0.8 0.4-1.1 0.3-0.4 1.1-0.4h3.5q1.7 0 2.4 0.7 0.7 0.8 0.7 2.5v14.9q0 0.5 0.5 0.5 3.5 0.1 5.1-1.7 0.7-0.8 1-2 0.3-1.3 0.3-3.7v-6.7q0-0.3-0.1-0.4-0.1-0.1-0.5-0.1h-1.6q-0.8 0-1.2-0.4-0.3-0.3-0.3-1.1v-1q0-0.8 0.3-1.1 0.4-0.4 1.2-0.4h3q1.7 0 2.4 0.8 0.7 0.7 0.7 2.4v8.3q0 3.3-0.3 4.8-0.6 2.2-2.1 3.7-1.6 1.5-3.8 2.1-1.7 0.5-4.5 0.5h-6.5q-0.7 0-1.1-0.3-0.3-0.4-0.3-1.2v-1q0-0.8 0.3-1.1 0.3-0.3 1.1-0.3h1.9q0.3 0 0.4-0.2 0.1-0.1 0.1-0.4v-13.6q0-0.3-0.1-0.4-0.1-0.1-0.4-0.1h-2.1q-0.8 0-1.1-0.4-0.4-0.3-0.4-1.1z"/><path class="c" d="m193.5 315.6v-1q0-0.8 0.3-1.1 0.4-0.4 1.2-0.4h4.9q1.7 0 2.4 0.7 0.7 0.8 0.7 2.5v6.6q0 0.8-0.4 1.2-0.3 0.3-1.1 0.3h-1q-0.8 0-1.1-0.3-0.4-0.4-0.4-1.2v-5.3q0-0.3-0.1-0.4-0.1-0.1-0.4-0.1h-3.5q-0.8 0-1.2-0.4-0.3-0.3-0.3-1.1z"/><path class="c" d="m206 315.6v-1q0-0.8 0.3-1.1 0.3-0.4 1.1-0.4h15.2q0.8 0 1.2 0.4 0.3 0.3 0.3 1.1v1q0 0.8-0.3 1.1-0.4 0.4-1.2 0.4h-1.9q-0.3 0-0.4 0.1-0.1 0.1-0.1 0.4v16.6q0 0.8-0.4 1.2-0.3 0.3-1.1 0.3h-1q-0.8 0-1.2-0.3-0.3-0.4-0.3-1.2v-16.6q0-0.3-0.1-0.4-0.1-0.1-0.5-0.1h-8.2q-0.8 0-1.1-0.4-0.3-0.3-0.3-1.1z"/><path class="c" d="m226.7 315.6v-1q0-0.8 0.4-1.1 0.3-0.4 1.1-0.4h3.7q2.3 0 3.3 1 0.9 0.9 0.9 3.2v16.9q0 0.8-0.3 1.2-0.4 0.3-1.1 0.3h-1.1q-0.7 0-1.1-0.3-0.3-0.4-0.3-1.2v-16.6q0-0.3-0.1-0.4-0.2-0.1-0.5-0.1h-3.4q-0.8 0-1.1-0.4-0.4-0.3-0.4-1.1z"/><path class="c" d="m239.5 315.6v-1q0-0.8 0.3-1.1 0.4-0.4 1.1-0.4h3.8q1.1 0 1.6 0.5 0.5 0.5 0.4 1.6v0.8q0 0.4 0.2 0.5 0.2 0.1 0.5-0.4 0.8-1.3 2.3-2.3 1.4-0.9 3.2-0.9 3.2 0 4.9 2.1 0.9 1.1 1.3 2.8 0.4 1.6 0.4 4.2v10.6q0 1.7-0.8 2.4-0.7 0.7-2.4 0.7h-4.3q-0.8 0-1.1-0.3-0.3-0.4-0.3-1.2v-1q0-0.8 0.3-1.1 0.3-0.4 1.1-0.4h2.9q0.4 0 0.5-0.1 0.1-0.1 0.1-0.4v-9.9q0-2.6-0.8-3.7-0.9-1-2.5-1-1.9 0-3.3 1.6-1.4 1.5-1.8 3.5-0.4 1.5-0.4 3.4v9.1q0 0.8-0.3 1.1-0.3 0.4-1.1 0.4h-1q-0.8 0-1.2-0.4-0.3-0.3-0.3-1.1v-16.6q0-0.3-0.1-0.4-0.1-0.1-0.5-0.1h-1.3q-0.7 0-1.1-0.4-0.3-0.3-0.3-1.1z"/><path class="c" d="m23 312.1v22.3h-5.1v-15.1l-2 15.1h-3.7l-2.1-14.7v14.7h-5.1v-22.3h7.5q0.4 2 0.7 4.7l0.9 5.7 1.3-10.4z"/><path class="c" d="m42.9 325.2q0 3.3-0.2 4.7-0.2 1.4-1 2.6-0.8 1.2-2.3 1.8-1.4 0.6-3.3 0.6-1.8 0-3.2-0.6-1.4-0.6-2.3-1.7-0.9-1.2-1-2.6-0.2-1.4-0.2-4.8v-3.9q0-3.3 0.1-4.8 0.2-1.4 1-2.5 0.9-1.2 2.3-1.8 1.4-0.6 3.3-0.6 1.8 0 3.3 0.6 1.4 0.6 2.3 1.7 0.8 1.2 1 2.6 0.2 1.4 0.2 4.8c0 0 0 3.9 0 3.9zm-5.9-7.4q0-1.6-0.1-2-0.2-0.4-0.8-0.4-0.4 0-0.6 0.3-0.3 0.4-0.3 2.1v10.5q0 1.9 0.2 2.4 0.1 0.4 0.7 0.4 0.6 0 0.8-0.5 0.1-0.5 0.1-2.5c0 0 0-10.3 0-10.3z"/><path class="c" d="m49.3 312.1h4.3q4.2 0 5.7 0.3 1.5 0.4 2.3 1.3 0.8 0.9 1 2 0.2 1.1 0.2 4.2v7.9q0 3-0.3 4-0.3 1-1 1.6-0.7 0.6-1.8 0.8-1 0.2-3.1 0.2h-7.3c0 0 0-22.3 0-22.3zm5.8 3.8v14.7q1.2 0 1.5-0.5 0.3-0.5 0.3-2.7v-8.7q0-1.6-0.1-2-0.1-0.4-0.4-0.6-0.4-0.2-1.3-0.2z"/><path class="c" d="m75 312.1v22.3h-5.8v-22.3z"/><path class="c" d="m84.7 312.1v2q0 1.5-0.4 2.5-0.4 1.1-1.3 1.7-0.9 0.7-2.1 1v-1.6q0.8-0.5 0.9-1.3h-0.9v-4.3z"/><path class="c" d="m96.4 312.1v22.3h-5.8v-22.3z"/><path class="c" d="m116 312.1v22.3h-5.1l-3.1-10.1v10.1h-4.8v-22.3h4.8l3.3 10v-10z"/><path class="d" d="m123.7 0c0 0 7 10.7 13 16.3 6 5.7 13.6 11.4 13.6 18.4 0 18.3-11.3 22.3-11.3 40.6 0 18.4 22 23.7 22 43.7 0 31-25.3 45.7-25.3 45.7 0 0 6.6-16 6.6-26.7 0-10.7-5.6-27.7-16.3-35.3-10.7-7.7-21-14.7-21-22.7 0-8 13-18.7 18.7-26.3 5.6-7.7 8-9.7 8-16.7 0-7-8-15.7-8-37z"/><path fill-rule="evenodd" class="c" d="m133.3 314.3h-2v-150h22v23.7h14.4v-36.7h13.6v-17.6h37v2h-35v17.6h-13.6v36.7h-18.4v-23.7h-18z"/></svg>