<svg version="1.2" xmlns="http://www.w3.org/2000/svg" viewBox="0 0 333 507" width="333" height="507"><style>.a{fill:#9cf}.b{fill:#009}.c{fill:#f00}.d{fill:#fff}.e{fill:none;stroke:#fff;stroke-linecap:round;stroke-linejoin:round;stroke-width:1.4}.f{stroke:#fff;stroke-linecap:round;stroke-linejoin:round;stroke-width:1.4}.g{fill:#fff;stroke:#009;stroke-width:2.1}</style><g style="opacity:1"><path class="a" d="m172.4 412.4c-6.4-10.7-16.2-15.6-27-19.5-10.7-3.8-23.5-7.3-35.9-10.2-41.9-9.9-50.7-20.4-50.7-45.1v-208.5h223.8v210.3c0 21-14.8 37.2-33.4 42.6-10.6 3.1-33.7 7.1-45.1 10.5-14.2 4.2-26.2 9.2-31.7 19.9z"/><path class="b" d="m284.5 349l-109.9-175.6c-2.9-4.7-4.8-4.7-7.7 0l-110 176.5c3.6 18.1 16.9 27.4 52 35.6 12.2 2.9 25 6.4 35.5 10.1 10.9 3.9 19.9 8.6 25.8 18.8 0.6 1.2 1.4 2.8 2.5 2.8 0.3 0 0.7-0.2 1.7-2.2 4.6-10.3 15.8-15.4 30.5-19.7 11.1-3.3 34.2-7.3 45.2-10.5 16.6-4.9 30.6-18.1 34.4-35.8z"/><path class="a" d="m108.3 77.2l-17.2-31.4q9.2-4.7 18.3-8.3l4.5 11.2q4.9-2.2 9.7-3.9l-3.9-11.1q12.2-4 24.1-5.9l2.2 10.8q5.1-1 10.1-1.5l-0.6-10.8q12.3-1.1 24.3-0.1l-0.2 10.7q6.1 0.6 12 1.7l2.8-10.4q6.9 1.2 13.6 3.2 5.3 1.5 10.6 3.4l-3.5 10.4q4.5 1.7 8.8 3.7l4.6-10.2q8 3.6 15.9 8l-16.4 30.7c-39.2 16.9-79.6 16.1-119.7-0.2z"/><path class="c" d="m110.8 78.2c39.2 15 78.2 15.7 115.1 0.1-39.7-23.4-79.6-20.5-115.1-0.1z"/><path class="b" d="m114.3 64.9l-5.6 2.8 3.4 7.2 5.6-2.8z"/><path class="b" d="m132.9 57.6q-7.1 2.3-14 5.3l2.9 7.4q6.7-2.9 13.5-5z"/><path class="b" d="m153.3 53q-7.9 1.1-15.5 3.2l2.1 7.8q7-1.9 14.2-2.9z"/><path class="b" d="m176.2 52.2q-9.4-0.6-18.6 0.3l0.3 8.1q9-1 18-0.4z"/><path class="b" d="m197 55.5q-8.5-2.2-16.9-3c-0.6-0.1-1 8-0.5 8q7.7 0.8 15.5 2.7z"/><path class="b" d="m214.6 61.4q-6.8-2.8-13.5-4.8l-2.5 7.5q6.5 1.9 13 4.5z"/><path class="b" d="m228.2 68.1q-4.7-2.6-9.4-4.8l-3.2 7q4.5 2.1 9 4.5z"/><path class="b" d="m203.3 52.9l2.3-7.4q-7.8-2.4-15.7-3.7l-0.8 7.8q7.1 1.2 14.2 3.3z"/><path class="b" d="m167.5 47.9q8.4-0.1 16.8 0.9l0.6-7.7q-9-1.1-17.9-0.9z"/><path class="b" d="m106.1 56l-2.9 1.4 3.4 7 2.7-1.4z"/><path class="b" d="m123.1 48.8q-7 2.5-13.9 5.7l2.9 7.1q6.8-3.2 13.5-5.6z"/><path class="b" d="m141.5 43.4q-7.1 1.6-14.2 3.9l2.4 7.3q6.6-2.2 13.2-3.7z"/><path class="b" d="m162.5 40.4q-8.2 0.5-16.3 2l1.1 7.6q7.7-1.4 15.3-1.9z"/><path class="b" d="m210 46.9l-2.3 7.3q5.9 2 11.8 4.7l2.9-7.1q-6.2-2.8-12.4-4.9z"/><path class="b" d="m226.4 53.7l-3.2 6.9q3.6 1.7 7.3 3.7l3.5-6.6q-3.8-2.1-7.6-4z"/><path class="b" d="m236 54.2l2.9-5.9q-4.2-2.4-8.4-4.5l-2.8 6.3q4.1 1.9 8.3 4.1z"/><path class="b" d="m211.2 43.4l1.8-6.9q-7.9-2.6-15.8-4.2l-1.5 6.9q7.8 1.6 15.5 4.2z"/><path class="b" d="m106.9 43.6q-4.2 2-8.4 4.2l3.1 6.3q4.3-2.2 8.5-4.1z"/><path class="b" d="m139.7 32.8q-7 1.4-13.9 3.6l1.9 6.8q6.9-2.2 13.8-3.7z"/><path class="b" d="m175.9 30.2q-7.8-0.5-15.5-0.1l-0.2 6.7q7.7-0.5 15.4-0.2z"/><path class="c" d="m91.7 106.6c4.1-5.2 10-6 15.3-10.2 2.7-2.1 4.1-3.5 6.1-6.2 6.6-9.3 12.9-14.1 22.1-17.1 0.3 4.4-0.5 6.7-1.9 9.3 1.7-1.8 2.8-2.5 4.3-4.1 0-2.4 0.2-4.5 1-6.6 0.7-2 2.1-3.4 3.5-4.2 1 1.1 2 1.9 2.4 3.5 0.7-2.9 1.3-4.8 2.1-6.9 8.6-1.6 18.9-2.8 29.5-1.7-1.2 2.5-2.8 4.1-7.3 6.7 6.9-1.6 12.4-2.1 18.4-1.6 1.8 0.1 2.4 0.8 1.4 1.9-10 11.2-21.2 14.2-39 13.1-2.6-0.1-8.1 2.4-11.2 4.1 2.2 1 5.3 2.9 4.8 5.7-0.5 2.7-3.5 4-6 3.5-2.7-0.5-4.3-2.6-4.8-5-6.3 4-15 6.5-23.7 12.3-3.9 2.7-6.8 4-9.2 8-3.2-0.1-6.2-1.7-7.8-4.5z"/><path class="d" d="m110.9 97.7c7.1-2.8 17.3-7 22.4-10.4 7.5-5.1 8.9-5.2 16.7-6.6 14 1.1 25.2 0.9 37-11.8-8.4-0.5-22.3 0.9-29.5 6.4-0.8 0-2.2 0.1-2.8 0 2.4-2.2 4.8-4.1 7.8-6 6.3-0.9 9.2-2.5 10.3-5.9-1.5 0-3.9-0.2-6.1 0.2-2 2.9-3.8 4.4-8.1 6.3-3.3 2.6-7.4 6.9-11.6 9.1-1 0.4-1.1 0.7-1.9-0.6 5.9-4.6 10.6-8.1 15.1-14.3-0.9 0.2-2.5 0.3-4 0.5-1.3 2.3-2.8 4.1-5.8 5.6 0.4-1.8 1-3.1 1.4-5.3-0.6 0.2-1.7 0.3-2.9 0.5-1 1.6-2.6 6.6-5 9.8-0.6-1.6-1-3.2-2.4-4.6-2.1 2.5-2.8 4.6-2.4 9.5-4.6 4.5-10.5 8.4-17.8 11.3-0.6-0.3 0.4-1.4 0.6-2.1 6.7-3.1 10.4-6.1 11.7-13.6-4.9 2.1-11 5.9-14.7 12.3-1.8 3.1-4.6 5.8-8 9.7z"/><path class="c" d="m157 78.4c8.7 0.1 16.6-2.9 19.9-5.9-6.4 0.7-14.4 2.9-19.9 5.9z"/><path class="d" d="m136.3 89.7c-0.6 0.8 0.2 2.1 1.1 2.4 1 0.2 2.1-0.7 1.9-1.6-0.3-1.2-2.2-1.7-3-0.8z"/><path class="c" d="m229.5 33.4c-7.3-0.3-9.2-2.7-20.2-2.8-1.2-0.4-2.5-1-3-2 11.1-6.3 31.6-9.6 47.4-1.4 2 1.1 2.3 3.6-0.2 4.1-8.4 1.8-15.9 2.4-24 2.1z"/><path class="c" d="m181.3 35.9c0.9-2 1.8-3.9 3.5-6.1-0.1-7.4 2.4-15 9.4-20.7 3.8-3 6.1-5.9 9.4-8.2 1.5-0.9 4.5-0.8 4 2.2-1.7 9.7-10.7 17.6-18.5 26.8-1.9 2.3-3.6 3.9-4.8 6-0.8 0.3-2 0.2-3 0z"/><path class="c" d="m199.3 26.8c3-2.7 7.5-4.5 11.2-7.5 11-9.1 26.1-16.1 36.5-16.4 5-0.2 8-0.6 12.7-1.5 3.9-0.8 4 2.7 1.9 3.9-15 8.1-25.6 11.7-41.5 15-7.7 1.6-12.1 3.6-18.3 8.2-0.7-0.1-2-0.9-2.5-1.7z"/><path class="d" d="m208.6 28.3c15.6 0.7 22 5.9 44.3 0.5-12.7-6.2-27.9-5-44.3-0.5z"/><path class="d" d="m213 20.1c17.1-3.9 32-9.1 46.4-16.4-13 0.7-28.7 3.5-46.4 16.4z"/><path class="d" d="m187.2 27.6c7.8-6.1 12.5-14.1 16.4-22.7-8.8 5.2-15.6 11.8-16.4 22.7z"/><path class="c" d="m203.9 22.3c-1.8-0.1-3.3-1.5-3.2-3.4 0.1-1.8 1.7-3.2 3.5-3.2 1.8 0 3.4 1.4 3.4 3.1 0 2-1.7 3.5-3.7 3.5z"/><path class="c" d="m212.9 27.9c7.5 1 18 2.1 25 0-6.5-2.4-17-1.9-25 0z"/><path class="c" d="m218.5 17.5c3.1-2.3 15.7-7.3 22.9-8.8-4.4 3.5-15.8 8.2-22.9 8.8z"/><path class="c" d="m188.6 24.8c0.2-3 5.5-9.8 9.5-14.2-2.7 6.6-5.4 11.6-9.5 14.2z"/><path class="c" d="m188 37.2c-0.6-2.1 1.5-3.3 3.9-2.8-0.2 0.9-0.6 2.4-0.9 3.3-1-0.1-2.1-0.4-3-0.5z"/><path class="c" d="m132.4 458.5l-32.3 16.2v16.1h-100.1v-32.3z"/><path class="a" d="m121.5 461.1h-118.9v27.1h94.9v-15.1z"/><path class="c" d="m200.3 458.5l32.3 16.2v16.1h100.1v-32.3z"/><path class="c" d="m97.5 474.7h137.6v32.3h-137.6z"/><path class="a" d="m211.2 461.1h118.9v27.1h-95v-15.1z"/><path class="a" d="m100.1 477.3v27.1h132.5v-27.1z"/><path class="c" d="m200.3 474.7v-16.2l32.3 16.2z"/><path class="c" d="m281 442.3l51.7 16.2h-51.7z"/><path class="c" d="m132.4 474.7v-16.2l-32.3 16.2z"/><path class="c" d="m51.7 442.3v16.2h-51.7z"/><path class="b" d="m131.9 491.5h5.2v7.1h-5.2z"/><path class="b" d="m131.9 488.2v-5.1h16.2v15.5h-5.2v-10.4z"/><path class="b" d="m153.3 483.1h14.2v15.5h-14.4v-5.2h9.2v-5.2h-3.9v2h-5.1z"/><path class="b" d="m171.2 483.1h7.7v9.2h-5.1v-4.1h-2.6z"/><path class="b" d="m182.8 483.1h16.2v15.5h-5.2v-10.4h-5.8v10.4h-5.2z"/><path class="b" d="m12.3 467.6h5.1v5.1h4.6v-5.1h5.1v14.2h-5.1v-5.2h-4.6v5.2h-5.1z"/><path class="b" d="m30.7 481.8l6.4-14.2h3.9l6.5 14.2h-5.2l-1.3-2.6h-3.9l-1.2 2.6z"/><path class="b" d="m55.6 467.6v14.2h-5.2v-14.2z"/><path class="b" d="m66.2 477.9v3.9h-5.2v-14.2h10.7v3.8h-5.5v2.6h5.5v3.9z"/><path class="b" d="m74.6 481.8l6.5-14.2h3.9l6.4 14.2h-5.2l-1.2-2.6h-3.9l-1.3 2.6z"/><path class="a" d="m82.4 475.3l0.7-1.9 0.6 1.9z"/><path class="a" d="m38.5 475.3l0.7-1.9 0.6 1.9z"/><path class="b" d="m298.7 484.4l3.3-2.6 1.4 1.5 1.8-1.3 2.9 2.6-2.6 2.4-2.1-1.9-1.9 1.6z"/><path class="b" d="m291.7 466.2l2.8-2.7 2.7 2.3-2.6 2.4z"/><path class="b" d="m243.5 463.9c1.1-1 2.4-1.4 3.6-1.4-0.1 3.2 0 5.1 0 8.1 0 6.1 3.9 9.6 11.7 10.2 11.2 0.9 16.8-0.4 28.6-4 0.6-2.8 3.5-6 7.3-5.8 1.1 0.1 2.1 0.7 2.1 1.7 0 1.5-0.6 2.8-1.7 3.8 2.2 1.8 5 0.1 6.6-1 1.1-0.7 2.8-0.8 3.3 0.1 2.9 0.3 5.5-0.1 6.7-2.8-1.2-1.3-3-1.4-4.7-0.6-0.6-0.3-1-0.5-1.1-1.1 5-4.5 6.9-3.4 8.5-1.8 1.1 0.1 2.1 0.2 3.4 0.2 1 1.6-0.6 3.8-3 4.3-1.2 1.9-3.8 4.6-7 5.7-1.5 0.6-3.6 0.6-5.8-0.4-2.3 0.7-4.2 1.3-7 1.4-2.3 0-3.8-0.2-5.8-0.9-9 3.6-15.1 6-25.3 6.3-14 0.3-20.7-5-20.7-14.9 0-2.8 0.2-3.1 0.3-7.1z"/><path class="e" d="m159.6 308.3l-0.8 22.1z"/><path class="e" d="m159 325.2c1.1 0.3 2.2 0.4 3.2 0.4 1.1 0 2.2-0.2 3.3-0.5"/><path class="f" d="m159.2 320.8q1.5 0.4 3.1 0.4 1.6 0 3.2-0.4"/><path class="e" d="m159.3 316.8q1.6 0.5 3.1 0.5c1.1 0 2.1-0.2 3.1-0.5"/><path class="e" d="m159.5 313c1.1 0.2 2.1 0.4 3.1 0.4 0.9 0 1.8-0.1 2.9-0.5"/><path class="g" d="m171.3 217.3c0 2.2 0.2 4.6 0.2 7.1 2.4 0 4.9 0.4 7.1 1.3 2.1 0.9 3.8 2 5.7 0.8 0.2-1 1.5-3.6 1.8-5-1.9-0.2-3.4-0.3-5.1-1.4-2.8-2-5.7-3-9.7-2.8z"/><path class="g" d="m168 213.9l-2.5 116.6c2.6-0.4 4.7-0.5 7-1.5l-1.2-115.1z"/><path class="g" d="m147.5 236.7c2.7 11.5 2.2 21.3-1.9 32.4 1 0.5 2.1 1.3 3 1.9 13.9-3.4 23.9-2.1 32.6 7.8 7.1-6.8 8.9-19.3 2.4-28.2-5.9-8.2-17.3-10-36.1-13.9z"/><path class="g" d="m140.5 310.6l1.2-55.6c2.9-2.6 2-6.1-0.4-7.1-0.4-1.9-1-3.3-2.5-3.3-1.5 0-2.4 1.4-3.1 3.2-2.7 0.8-3.2 5.3 0.1 7.2l-1.4 53.7z"/><path class="g" d="m121.4 260.3c3.8 15.7 1.4 28-7.6 42.6l3.7 1c3.9-4.7 9-7.3 15.5-8.3 4.5-0.8 10.3-0.1 10.6 4.3 0.2 4-0.4 6.6-2.7 10l2.2 0.7c7.6-6.4 10.2-12.9 11.9-22.8 1.9-10.4-3.2-15.8-12.2-20.2-6.5-3.1-12.7-5.1-21.4-7.3z"/><path class="g" d="m176.9 309.8q-2.3-1-4.5-1.6c0 7 0.2 14 0.2 20.8q2.3-0.9 4.4-2.2z"/><path class="g" d="m156 278.4c9.4-1.1 17.2-0.7 25.7 4.9 12.2 7.9 9.8 21.3 0.3 29.1-11.5-6.6-20.2-6.9-34.2 0.6-0.6 0-4.8-1.5-4.8-1.7 13-9.3 15.9-17.9 13-32.9z"/><path class="g" d="m224.5 293c2.4-0.1 3.9-0.3 6-0.8 0.5-1.8-0.7-3.7-2.5-3.7-2.2-0.1-3.3 2.2-3.5 4.5z"/><path class="g" d="m281.7 357.7c1-2.3 2-5.1 2.6-7.7-3.1-3.5-7.6-5.4-12.7-5.4-5.8 0-11.2 2.9-17 6.4-3.8 2.3-8.5 3.9-13.7 3.9-4.9 0-8.5-0.4-13.7-2.7-5.7-2.5-9.8-4.4-16.2-4.4-7.1 0-11.2 2.2-17.2 4.7-5.4 2.3-8.6 3.4-14.3 3.4-5.5 0-8.5-1.1-13.7-3.5-5.4-2.6-9.6-4.6-15.8-4.6-6.3 0-10.9 1.6-15.7 3.4-5.5 2-9.4 2.6-14.5 2.6-6.9 0-10.9-0.4-17-2.6-5.3-2-11.4-3.5-17.4-3.5-6.1 0-11 1.3-16.6 3.5-4.1 1.6-7 3.2-10 5.2 1 2.7 2.3 5.1 4 7.3 1.6-0.8 3.4-1.8 6-2.8 5.6-2.2 10.5-3.5 16.6-3.5 6 0 12.1 1.5 17.4 3.5 6.1 2.2 10.1 2.6 17 2.6 5.1 0 9-0.6 14.5-2.6 4.8-1.8 9.4-3.4 15.7-3.4 6.2 0 10.4 2 15.8 4.6 5.2 2.4 8.2 3.5 13.7 3.5 5.7 0 8.9-1.1 14.3-3.4 6-2.5 10.1-4.7 17.2-4.7 6.4 0 10.5 1.9 16.2 4.4 5.2 2.3 8.8 2.7 13.7 2.7 5.2 0 9.9-1.6 13.7-3.9 5.8-3.5 11.2-6.4 17-6.4 4 0 7.2 0.8 10.1 3.4z"/><path class="g" d="m278.6 363.6c-2.7-1.3-5.5-1.5-7-1.5-5.8 0-11.2 2.9-17 6.4-3.8 2.3-8.5 3.9-13.7 3.9-4.9 0-8.5-0.4-13.7-2.7-5.7-2.5-9.8-4.4-16.2-4.4-7.1 0-11.2 2.2-17.2 4.7-5.4 2.2-8.6 3.4-14.3 3.4-5.5 0-8.5-1.1-13.7-3.6-5.4-2.5-9.6-4.5-15.8-4.5-6.3 0-10.9 1.6-15.7 3.3-5.5 2.1-9.4 2.7-14.5 2.7-6.9 0-10.9-0.5-17-2.7-5.3-1.9-11.4-3.5-17.4-3.5-6.1 0-11 1.4-16.6 3.5l-0.9 0.4c2.9 2.4 6.4 4.6 10.6 6.6 2.1-0.4 4.4-0.8 6.9-0.8 6 0 12.1 1.6 17.4 3.5 6.1 2.2 10.1 2.7 17 2.7 5.1 0 9-0.6 14.5-2.7 4.8-1.7 9.4-3.3 15.7-3.3 6.2 0 10.4 2 15.8 4.5 5.2 2.5 8.2 3.6 13.7 3.6 5.7 0 8.9-1.2 14.3-3.4 6-2.5 10.1-4.7 17.2-4.7 6.4 0 10.5 1.9 16.2 4.4 5.2 2.3 8.8 2.7 13.7 2.7 5.2 0 9.9-1.6 13.7-3.9 5.8-3.5 11.5-6.3 17.3-6.3 2.6-2.6 4.7-5.2 6.7-8.3z"/><path class="g" d="m205.3 348.4c7.7-9.5 11-17.8 4.3-30.5 7.8-1 21.7-3.4 29.1-5.2 0.8-3.6 0.6-6.5-1-9.4-2.1-0.2-4.5 0.2-6.8 0.4-0.4-1.3-0.4-2.6-0.3-4.3 1.5-2 2.3-4.6 1.4-7.6-2.7 0.8-5.9 1.3-9 1.3-0.7 3.5 1.7 5.5 2.9 7.3 0.2 1.2 0.2 2.2 0.2 3.6-3.9 0.6-10.1 1.3-14.5 1.9 4.4-5.4 10.9-13.7 12.2-23.5 1-7.6-2.4-14.4-9.3-17.2-4.4-1.8-8.5-2.5-11.9-3l0.1-6.6c2.9-2.6 2.1-6.2-0.4-7.1-0.3-2-1-3.4-2.5-3.4-1.5 0-2.3 1.4-3.1 3.3-2.7 0.7-3.1 5.3 0.1 7.2l-0.1 6.6c-2.8 0.2-6 0.6-8.7 2-0.3 0.8-0.1 1.7-0.3 2.6 5.9 6.9 4 16.7 0.5 23 0.9 1.8 1.3 3.3 1.6 5 5.4-3.2 12.9-4.8 16.9-2.5 3.3 1.9 3.7 6.3 1.3 9.9-1.6 2.3-2.8 3.4-5.2 4-0.2-3.9-0.3-9.1-0.3-14.2-2.2-0.2-3.9-0.1-5.8 0.7-0.2 3.8-0.2 10-0.2 14.6-3.9 1-9.2 1.7-12.4 2.8 1.6 5.2 1.8 8.8-1.6 12.3-9.2 9.5-22.1 10.4-33.5 5.3-1.7-4.2-1.5-9.8-1.4-14.7-11.8-4.2-27.1-8.4-39.1-11.3-1.3 2.4-2.2 5.2-1.6 7.8 5.3 2.1 10.4 3.9 15.8 6.8-0.6 8-1.3 18.5-1.6 26.1 3.4 3.4 7 6.2 11.3 9.4 6.3-2.3 11.3-4 17.6-4 6.2 0 10.4 2 15.8 4.6 5.2 2.4 8.2 3.5 13.7 3.5 5.7 0 8.9-1.1 14.3-3.4 4.2-1.7 7.5-3.3 11.5-4.1z"/><path class="c" d="m53 123.3h235.4v216.1c0 23.8-16.9 42.2-37.5 48.2-11.2 3.3-34.4 7.3-45.1 10.5-14.6 4.3-24.8 9.2-28.8 18.1-1.2 2.6-2.7 4-4.3 4-1.6 0-3.4-1.4-5.1-4.4-5.3-9.3-13.5-13.6-24.2-17.4-10.3-3.7-23-7.2-35.2-10-42.6-10.1-55.2-22.2-55.2-50.8zm119.4 289.1c5.5-10.7 17.5-15.7 31.7-19.9 11.4-3.4 34.5-7.3 45.1-10.4 18.6-5.5 33.4-21.6 33.4-42.7v-210.3h-223.8v208.5c0 24.7 8.8 35.3 50.7 45.1 12.4 2.9 25.2 6.4 35.9 10.2 10.8 3.9 20.6 8.9 27 19.5z"/><path class="c" d="m118.2 193.9v-0.5l2.2-0.5z"/><path class="c" d="m116.9 194.3v-0.5q-3.4 0.6-6.8 0.6-0.8 0-1.5 0l-0.2 1.6c3.2-0.2 5.8-0.7 8.5-1.7z"/><path class="c" d="m107.1 196.2l0.2-1.9q-4-0.3-8-1.6l-0.5 2.7c2.2 0.6 4.4 0.8 6.9 0.8q0.8 0 1.4 0z"/><path class="c" d="m97.6 195.1l0.5-2.8c-1-0.3-3.2-1.3-4.2-1.7l-0.7 2.9c0.2 0 1.5 0.6 1.6 0.6 1 0.3 1.8 0.7 2.8 1z"/><path class="c" d="m122.2 186.4l0.4 4.6q1.8-0.6 3.6-1.4v-4.7q-2 0.9-4 1.5z"/><path class="c" d="m113.9 188l0.3 4.9q3.5-0.4 7.1-1.5l-0.4-4.6q-3.5 1-7 1.2z"/><path class="c" d="m104.4 187.5l-0.8 5q3.2 0.6 6.5 0.6 1.4 0 2.8-0.1l-0.3-4.9q-0.7 0-1.4 0-3.3 0-6.8-0.6z"/><path class="c" d="m95.1 184.8l-1 4.4c2.7 1.4 5.9 2.5 8.2 3l0.9-4.9c-2.3-0.5-5.7-1.4-8.1-2.5z"/><path class="c" d="m117.3 180.4l0.7 5.8q4.1-0.8 8.2-2.7c0-2.7 0-3.7 0-3.7 0-1.8-0.4-2.1-1.9-1.5q-3.5 1.4-7 2.1z"/><path class="c" d="m108.9 180.9l-0.5 5.8q1.4 0.1 2.8 0.1 2.8 0 5.5-0.4l-0.7-5.8q-2.5 0.4-5 0.4-1 0-2.1-0.1z"/><path class="c" d="m100.7 179.6l-1.1 5.5q3.9 1.1 7.6 1.5l0.4-5.8q-3.4-0.3-6.9-1.2z"/><path class="c" d="m96.6 178.3l-1.2 5.4 2.9 1 1.1-5.5c-0.5-0.1-2.3-0.7-2.8-0.9z"/><path class="c" d="m148 193.5c-4.4-2.7-8.4-3.8-14.1-3.8-4.9 0-8.5 1.5-13.1 3.7-4.7 2.3-9 3.5-15.1 3.5-4.1 0-7.3-0.7-11.2-2.2-4.3-1.7-7.4-3-12.5-3-3.4 0-6 0.8-8.8 2.1-3.3 1.6-5.9 2.8-9.9 2.8-3 0-4.6-0.6-6.3-1.8v7.1c1.7 1.2 3.3 1.9 6.3 1.9 4 0 6.6-1.3 9.9-2.8 2.8-1.3 5.4-2.2 8.8-2.2 5.1 0 8.2 1.3 12.5 3 3.9 1.5 7.1 2.2 11.2 2.2 6.1 0 10.4-1.2 15.1-3.5 4.6-2.2 8.2-3.6 13.1-3.6 4.4 0 7.5 0.3 10.9 1.9z"/><path class="c" d="m101.9 154.3l-4.2 22.9c3.7 1.3 6.9 2 11.3 2.4l0.2-13.5c0-1.2 0.5-2.4 1.7-2.4 1.2-0.1 2.1 1 2.2 2.3l0.3 13.6c3.7-0.4 6.7-1.1 10.1-2.4l-3.9-22.8 2.1-0.9c1-0.4 1.3-0.9 1.4-2.1l0.9-4.2c0.2-1.4 0-2.1-1.5-2.2l-2.8-0.3-7.1-7.1c-1.2-1.2-2.4-1.1-3.5-0.1l-7.4 7.1-2.7 0.3c-1.5 0.1-1.8 0.8-1.5 2.2l0.8 4.2c0.1 1.2 0.5 1.7 1.4 2.1z"/><path class="c" d="m72.8 192.6c-3.2 1.4-5.7 2.6-9.5 2.6q-0.4 0-0.7 0v-2.6z"/><path class="c" d="m61.3 195.1v-2.5h-4.5v0.5c1.5 1 2.8 1.7 4.5 2z"/><path class="c" d="m92 192.9l4.6-21.5h-40.4v2h38l-4 18.9q0.9 0.3 1.8 0.6z"/><path class="c" d="m87.5 190.9c0.5 0.1 0.9 0.2 1.4 0.4h1.6l1-4.9h-4z"/><path class="c" d="m76.6 186.4v4.6c1.9-0.5 3.6-0.7 5.4-0.7 1.4 0 2.8 0.1 4.2 0.3v-4.2z"/><path class="c" d="m65.9 186.4v4.9h9.4v-4.9z"/><path class="c" d="m56.8 186.4v4.9h7.8v-4.9z"/><path class="c" d="m81.3 180.4v4.7h10.6l1-4.7z"/><path class="c" d="m71.5 180.4v4.7h8.5v-4.7z"/><path class="c" d="m56.8 180.4v4.7h13.4v-4.7z"/><path class="c" d="m56.8 173.4v5.7h7.5v-5.7z"/><path class="c" d="m65.6 173.4v5.7h9.3v-5.7z"/><path class="c" d="m76.2 173.4v5.7h9.1v-5.7z"/><path class="c" d="m86.6 173.4v5.7h6.7l1.2-5.7z"/><path class="a" d="m107.5 146.4c-1.1 0-1.8 0.4-1.8 1.6v1.8c0 1.4 0.5 2 1.8 2h6.7c1.4 0 2-0.7 2-1.9v-1.7c0-1.2-0.7-1.8-1.7-1.8z"/><path class="a" d="m108.9 158.4c0 1.2 0.9 2.2 2.1 2.2 1.1 0 2-1 2-2.2 0-1.2-0.9-2.1-2-2.1-1.2 0-2.1 0.9-2.1 2.1z"/><path class="c" d="m138.4 209.4l3.8-6.3c-2.5-0.9-5-1.1-8.3-1.1-4.9 0-8.5 1.5-13.1 3.7-4.7 2.3-9 3.4-15.1 3.4-4.1 0-7.3-0.6-11.2-2.1-4.3-1.7-7.4-3-12.5-3-3.4 0-6 0.8-8.8 2.1-3.3 1.5-5.9 2.8-9.9 2.8-3 0-4.6-0.6-6.3-1.8v7.1c1.7 1.2 3.3 1.8 6.3 1.8 4 0 6.6-1.2 9.9-2.8 2.8-1.3 5.4-2.1 8.8-2.1 5.1 0 8.2 1.3 12.5 3 3.9 1.5 7.1 2.2 11.2 2.2 6.1 0 10.4-1.2 15.1-3.5 4.6-2.2 8.2-3.7 13.1-3.7 1.7 0 3.1 0.1 4.5 0.3z"/><path class="c" d="m239.6 154.3l2.1-0.9c0.9-0.4 1.3-0.9 1.4-2.1l0.8-4.2c0.3-1.4 0.1-2.1-1.5-2.2l-2.7-0.3-7.4-7.1c-1.1-1-2.2-1.1-3.5 0.1l-7.1 7.1-2.8 0.3c-1.5 0.1-1.7 0.8-1.4 2.2l0.8 4.2c0.1 1.2 0.4 1.7 1.4 2.1l2.1 0.9-3.9 22.8c3.4 1.3 6.4 2 10.1 2.4l0.4-13.6c0-1.3 0.9-2.4 2.1-2.3 1.2 0 1.7 1.2 1.7 2.4l0.3 13.5c4.3-0.4 7.5-1.1 11.3-2.4z"/><path class="a" d="m233.9 146.4h-6.9c-1.1 0-1.7 0.6-1.7 1.8v1.7c0 1.2 0.5 1.9 1.9 1.9h6.7c1.3 0 1.8-0.6 1.8-2v-1.8c0-1.2-0.7-1.6-1.8-1.6z"/><path class="a" d="m232.5 158.4c0-1.2-0.9-2.1-2-2.1-1.2 0-2.1 0.9-2.1 2.1 0 1.2 0.9 2.2 2.1 2.2 1.1 0 2-1 2-2.2z"/><path class="c" d="m223.2 193.9v-0.5l-2.1-0.5z"/><path class="c" d="m224.6 194.3v-0.5q3.3 0.6 6.7 0.6 0.8 0 1.6 0l0.1 1.6c-3.2-0.2-5.8-0.7-8.4-1.7z"/><path class="c" d="m234.3 196.2l-0.1-1.9q4-0.3 7.9-1.6l0.5 2.7c-2.2 0.6-4.4 0.8-6.9 0.8q-0.7 0-1.4 0z"/><path class="c" d="m243.9 195.1c0.9-0.3 1.7-0.7 2.8-1 0 0 1.3-0.6 1.5-0.6l-0.7-2.9c-0.9 0.4-3.2 1.4-4.2 1.7z"/><path class="c" d="m219.2 186.4q-2-0.6-4-1.5v4.7q1.8 0.8 3.6 1.4z"/><path class="c" d="m227.5 188q-3.5-0.2-7-1.2l-0.4 4.6q3.6 1.1 7.2 1.5z"/><path class="c" d="m237 187.5q-3.4 0.6-6.8 0.6-0.7 0-1.4 0l-0.2 4.9q1.3 0.1 2.7 0.1 3.3 0 6.5-0.6z"/><path class="c" d="m246.3 184.8c-2.3 1.1-5.8 2-8 2.5l0.8 4.9c2.3-0.5 5.5-1.6 8.2-3z"/><path class="c" d="m224.1 180.4q-3.5-0.7-7-2.1c-1.5-0.6-1.9-0.3-1.9 1.5 0 0 0 1 0 3.7q4.1 1.9 8.2 2.7z"/><path class="c" d="m232.5 180.9q-1.1 0.1-2.1 0.1-2.5 0-5-0.4l-0.7 5.8q2.7 0.4 5.5 0.4 1.4 0 2.8-0.1z"/><path class="c" d="m240.7 179.6q-3.5 0.9-6.9 1.2l0.4 5.8q3.8-0.4 7.6-1.5z"/><path class="c" d="m244.8 178.3c-0.5 0.2-2.3 0.8-2.8 0.9l1.1 5.5 2.9-1z"/><path class="c" d="m193.5 193.5l3.1 5.3c3.4-1.6 6.5-1.9 10.9-1.9 4.9 0 8.5 1.4 13.1 3.6 4.8 2.3 9.1 3.5 15.1 3.5 4.1 0 7.3-0.7 11.2-2.2 4.3-1.7 7.5-3 12.5-3 3.4 0 6 0.9 8.8 2.2 3.3 1.5 5.9 2.8 9.9 2.8 3 0 4.6-0.7 6.4-1.9v-7.1c-1.8 1.2-3.4 1.8-6.4 1.8-4 0-6.6-1.2-9.9-2.8-2.8-1.3-5.4-2.1-8.8-2.1-5 0-8.2 1.3-12.5 3-3.9 1.5-7.1 2.2-11.2 2.2-6 0-10.3-1.2-15.1-3.5-4.6-2.2-8.2-3.7-13.1-3.7-5.7 0-9.7 1.1-14 3.8z"/><path class="c" d="m268.6 192.6c3.3 1.4 5.7 2.6 9.5 2.6q0.4 0 0.7 0v-2.6z"/><path class="c" d="m280.1 195.1v-2.5h4.5v0.5c-1.4 1-2.8 1.7-4.5 2z"/><path class="c" d="m249.4 192.9q1-0.3 1.9-0.6l-4.1-18.9h38v-2h-40.4z"/><path class="c" d="m253.9 190.9v-4.5h-4l1 4.9h1.6c0.5-0.2 0.9-0.3 1.4-0.4z"/><path class="c" d="m264.9 186.4h-9.7v4.2c1.5-0.2 2.9-0.3 4.2-0.3 1.8 0 3.6 0.2 5.5 0.7z"/><path class="c" d="m275.5 186.4h-9.3v4.9h9.3z"/><path class="c" d="m284.6 186.4h-7.8v4.9h7.8z"/><path class="c" d="m260.1 180.4h-11.6l1.1 4.7h10.5z"/><path class="c" d="m269.9 180.4h-8.5v4.7h8.5z"/><path class="c" d="m284.6 180.4h-13.4v4.7h13.4z"/><path class="c" d="m284.6 173.4h-7.5v5.7h7.5z"/><path class="c" d="m275.8 173.4h-9.3v5.7h9.3z"/><path class="c" d="m265.2 173.4h-9.1v5.7h9.1z"/><path class="c" d="m254.9 173.4h-8l1.3 5.7h6.7z"/><path class="c" d="m203 209.4c1.5-0.2 2.8-0.3 4.5-0.3 4.9 0 8.5 1.5 13.1 3.7 4.8 2.3 9.1 3.5 15.1 3.5 4.1 0 7.3-0.7 11.2-2.2 4.3-1.7 7.5-3 12.5-3 3.4 0 6 0.8 8.8 2.1 3.3 1.6 5.9 2.8 9.9 2.8 3 0 4.6-0.6 6.4-1.8v-7.1c-1.8 1.2-3.4 1.8-6.4 1.8-4 0-6.6-1.3-9.9-2.8-2.8-1.3-5.4-2.1-8.8-2.1-5 0-8.2 1.3-12.5 3-3.9 1.5-7.1 2.1-11.2 2.1-6 0-10.3-1.1-15.1-3.4-4.6-2.2-8.2-3.7-13.1-3.7-3.3 0-5.8 0.2-8.3 1.1z"/></g></svg>