<svg version="1.2" xmlns="http://www.w3.org/2000/svg" viewBox="0 0 819 1129" width="819" height="1129"><style>.a{opacity:1;fill:#00007e}.b{opacity:1;fill:#017efe}</style><path class="a" d="m0.1 0v39.1c0 50.5-3.3 46.6 38.6 46.7 21.7 0 44.6-1.8 42.7 24.9-1.9 26.5-11.7 39.8-34 50.8-7.6 3.8-14.7 6.9-14.7 6.9l18.5 27.3c0 0 8.7-3.4 17-7.5 34.6-17.1 51.7-45.4 52-85.7 0.1-28.3-15.8-50.7-54.9-51.2h-18.4c-7.6 0-8.8-1.4-8.8-9.3l-0.3-16.4-0.6-25.6h-18.6zm507.5 42.2l-15.1 28.2c9.6 16.7 18.9 14.7 41.5 15.3 23.9 0.8 32.8 0.7 32.8 28.1v74.5h18.6 18.7v-79.7c-0.1-46.6-18.1-56.6-55.9-56.6l-20-0.4c-11.5-0.2-15.9-1.2-20.6-9.4zm-306.4 0.1l-24 24.9 31.7 26.1c3.2 2.7 5.5 6.7 1.6 10.6l-3.4 3.5c-9.9 10.7-21.2 34.5-26.1 55-5.1 21.3-5.8 23.5-5.8 23.5l36.4 7.9c4-29.7 13.2-47.2 27.9-72.4l8.9 6.5c21.1 20.5 58.4 65 58.4 65l25.1-23.4c0 0-22.2-30-32.1-40.3l-7.5-7.8 8.3-9.9c10.6-12.4 17.2-23.9 22-37.8 5.7-16.6 4.9-16.2 4.9-16.2l-34.9-14c-4.2 19.2-10.1 38.8-23.2 53.8l-14.9-13.5c-14.1-12.9-36.8-30.8-48-38.1zm486.5 0l-24 24.9 31.6 26.1c3.3 2.7 5.5 6.7 1.7 10.6l-3.5 3.5c-9.9 10.7-21.2 34.5-26.1 55-5.1 21.3-5.8 23.5-5.8 23.5l36.4 7.9c4-29.7 13.2-47.2 27.9-72.4l8.9 6.5c21.2 20.5 58.4 65 58.4 65l25.2-23.4c0 0-22.3-30-32.2-40.3l-7.5-7.8 8.4-9.9c10.5-12.4 17.2-23.9 21.9-37.8 5.7-16.6 4.9-16.2 4.9-16.2l-34.8-14c-4.3 19.2-10.2 38.8-23.3 53.8l-14.9-13.5c-14.1-12.9-36.7-30.8-48-38.1zm-290.5 3.3l-17.3 30.6c0 0 3.9 1.9 8.1 4.3 11.5 6.4 12.9 10.6 12.9 38.8v24.4l18.2-0.6 18.1-0.5v-30.8c0-29.1-0.1-45.6-27.4-61.7-6-3-12.6-4.5-12.6-4.5z"/><path class="b" d="m282.4 406.8q10.7-4.5 21.9-8.3l-80.1-182.8h-42.2z"/><path class="b" d="m285.6 215.7h-36.9l67.6 179q9.7-2.8 19.6-5z"/><path class="b" d="m90.8 215.7h-42.2l181.6 220.4q7.6-5.5 15.7-10.4z"/><path class="b" d="m343.9 215.7h-30.6l38.5 170.9q9.9-1.6 20-2.6z"/><path class="b" d="m0 463.7v39.8l143.9 49q3.1-10.4 7.4-20.5z"/><path class="b" d="m252.6 421.6q8.7-4.9 17.8-9.3l-117.7-196.6h-35z"/><path class="b" d="m15.4 215.7h-15.4v51.8l203.1 190.8q8-7.6 16.9-14.6z"/><path class="b" d="m404.7 382.3l-1.8-166.6h-31.3l16.7 167q8-0.4 16.2-0.4 0.1 0 0.2 0z"/><path class="b" d="m170.9 496l-170.9-104.9v43.4l159 81.2q5.4-10.1 11.9-19.7z"/><path class="b" d="m0 306.5v48.5l179.8 128.9q7.8-10 16.8-19.2z"/><path fill-rule="evenodd" class="b" d="m49.5 639.2h-49.5v30h22z"/><path fill-rule="evenodd" class="b" d="m64.1 623.2l20.8-22.7-84.9-16.3v33.8z"/><path class="b" d="m0 526.4v33.3l136.5 32.3c0.7-8.5 2-16.8 3.7-25z"/><path class="b" d="m488.3 393.5q9.4 2.6 18.5 5.7l81.8-183.5h-36.5z"/><path class="b" d="m818.3 425.8l-167.7 91.1q5.2 9.8 9.2 20.1l158.5-70z"/><path class="b" d="m818.3 395v-43.8l-188.4 133.6q5.9 7.5 11 15.5z"/><path class="b" d="m818.3 265.5l-209.1 196q8 7.9 15.2 16.4l193.9-156.1z"/><path class="b" d="m579.1 436.3q9.2 6.5 17.6 13.8l221.6-218.4v-16h-49.3z"/><path class="b" d="m818.3 536.9v-45l-153 61.2q3.4 11.7 5.4 23.9z"/><path class="b" d="m464.1 215.7h-35l-11.4 166.9q10.3 0.4 20.3 1.4z"/><path fill-rule="evenodd" class="b" d="m769.6 611.5l48.7 40.7v-40.7z"/><path class="b" d="m452.1 385.8q10.9 1.7 21.4 4l55.7-174.1h-40.1z"/><path class="b" d="m618.3 215.7l-94.5 189.9q10.1 4.2 19.7 9.1l116.8-199z"/><path class="b" d="m733.5 215.7h-44.7l-134.5 204.8q8.9 5 17.4 10.6z"/><path fill-rule="evenodd" class="b" d="m818.3 556.8l-89.2 21.1 25.7 21.4 63.5-6.9z"/><path class="b" d="m672.4 591.3q0.6 7.7 0.7 15.6 0 0.6-0.1 1.2l14-1.5 14.9-22.3z"/><path class="a" d="m194.3 1064.4l163.2-180 187.9 214 6.2 6.8c23.5-9 45.2-20 65.2-32.5l-0.7-2.3-260.2-298.6-225.6 246.9-1 0.8c18.6 17.7 39.3 34.5 62.4 49.4z"/><path class="a" d="m276.2 839.8l47.3-56.3-72.9-80.7-197 223.3-0.6 0.4c13.6 21.1 29.9 43.2 49.1 64.9l1.5-2 150.3-169.9z"/><path class="a" d="m100.3 747.8l-85 93-4.8 3.4c7 18 17.8 41.1 32.8 66.4l1.3-1.2 99-109.9z"/><path class="a" d="m616.4 703.2l50 51.6 56-55 87.8 86.2q0.1-2.3 0.1-4.5c0-49.2 0-85.1 0-103.9l-90.9-89.4z"/><path class="a" d="m0.7 720.5c0 29.5 0 70.3 0 89q0 1.7 0.4 4.5l101.2-89.2 52.6 58.7 49.3-49.3-106.1-122.2z"/><path class="a" d="m499.5 616.2l-126.3 136.6 48 54.7 80.6-77.7 225.6 240.3 0.6 0.7c16.6-21.6 30.5-43.7 41.8-65z"/><path class="a" d="m723.7 730.5l-44.3 45 100.9 109.5c12.3-26 20.6-50.1 25.3-70z"/><path class="a" d="m522.8 1107.7l-161.3-191.9-145.9 162.6-3.6 2.9c23.5 13.3 49.2 24.6 77 33.1l0.2-2.7 75.7-81.7 89.7 98.6c24.4-2.7 47.3-7.5 68.9-13.9z"/><path class="a" d="m713.6 988.6l-214.8-233.8-64.6 64.7 45.9 54.9 15-10.3 163.6 177.6 0.3 0.7c20.4-16.8 38.6-35 54.6-53.8z"/></svg>