<svg version="1.2" xmlns="http://www.w3.org/2000/svg" viewBox="0 0 115 148" width="115" height="148"><style>.a{fill:#002d71;stroke:#002d71;stroke-width:6}.b{fill:#fff}.c{fill:#fff;stroke:#002d71;stroke-width:1.1}</style><g style="opacity:1"><path class="a" d="m13.9 3l-10.6 104.4c-0.2 2.2-0.3 3.9-0.3 5.5 0.1 1.6 0.4 3.2 1.3 4.6 1.8 2.9 4.7 4.1 9.5 6.3l43.7 20.8 43.6-20.8c4.8-2.2 7.7-3.4 9.5-6.3 0.9-1.4 1.3-3 1.3-4.6 0.1-1.6-0.1-3.3-0.3-5.5l-14.8-104.4h-16.1v10h-5.5v-10h-17.4v10h-0.3-4.3-0.3v-10h-17.4v10h-5.5v-10z"/><path class="b" d="m26.1 100.9l-3.6 2c0.4 1 1.2 2 3.1 3l3.9 2c0.7 0.4 1 0.9 1.1 1.4 0 0.5-0.2 1-0.4 1.4l-3.3 6.2 4.1 2.2 4-7.9c0.4-0.8 0.6-1.9 0.3-3-0.3-1.1-1.1-2.2-2.6-3l-3.7-1.9c-1.2-0.6-1.8-1-2.2-1.4-0.3-0.4-0.5-0.7-0.7-1zm64.3 0.1l-9.7 4.6c-1.1 0.4-1.8 0.4-2.7 0.3v4.2h1.4c0.9 0 1.5-0.2 2.2-0.4l5.1-2.8-0.2 0.6c0 0.4-0.1 0.7 0.2 1.2l3.8 6.7 4-2-3.7-7.1v0.1c-0.1-0.3-0.2-0.7-0.2-1 0.1-0.3 0.2-0.7 0.6-0.8l0.5-0.3zm-69.1 6l-2.8 5.5 4.1 2.1 3.4-6.6zm18.5 0.7l-2.7 3 2.7 1.8-1.3 5.4-3.2-0.5-1.5 3.9 8.4 1.1 1.9-7.9c0.5-1.7 0.5-2.8 0.2-3.5-0.2-0.6-0.7-1-1.2-1.4zm31.6 0.3l-0.8 4.3h1.1c0.4 0 0.7 0.2 0.9 0.5 0.2 0.2 0.2 0.5 0.3 0.8l1.1 3.9 4.1-2.3-1.4-4.4c-0.2-0.8-0.6-1.5-1-2-0.5-0.5-1-0.8-1.5-0.8zm-23.5 1.2l-2.1 3.4 0.6 0.4c0.4 0.2 0.7 0.3 0.8 0.7 0.2 0.3 0.1 0.7 0 1.2l-1.1 8.2 4.6 0.6 1.1-10.2c0.1-1 0-1.7-0.3-2.2-0.3-0.5-0.7-0.9-1.3-1.1zm16.8 0.5c-3.2 0-4.5 1.1-5.8 2.1l-0.1 0.2-0.2-0.2c-0.9-0.7-1.6-1.4-3.9-1.6l-1.6 3.8 1 0.2q0.5 0.1 0.7 0.4c0.1 0.2 0.1 0.5 0.1 0.7v-0.1l0.6 8.9 4.7-0.2-0.6-6.6c0-1.6 1.3-3.4 3.6-3.4 0.5 0 0.9 0.1 1.3 0.4 0.3 0.2 0.6 0.7 0.6 1.3v2.8 0.1q-0.1 0.6-0.5 1-0.3 0.3-0.7 0.4c-0.6 0-1.1-0.1-1.8-0.3l-0.7 3.3c1.1 0.4 2.9 1.1 4.7 0.8 0.7-0.1 1.6-0.5 2.4-1.1 0.8-0.5 1.3-1.3 1.3-2.3l-0.3-6c0-1-0.3-2.2-1.1-3.1-0.7-0.9-1.9-1.5-3.7-1.5z"/><path class="c" d="m13.9 3l-10.6 104.4c-0.2 2.2-0.3 3.9-0.3 5.5 0.1 1.6 0.4 3.2 1.3 4.6 1.8 2.9 4.7 4.1 9.5 6.3l43.7 20.8 43.6-20.8c4.8-2.2 7.7-3.4 9.5-6.3 0.9-1.4 1.3-3 1.3-4.6 0.1-1.6-0.1-3.3-0.3-5.5l-14.8-104.4h-16.1v10h-5.5v-10h-17.4v10h-0.3-4.3-0.3v-10h-17.4v10h-5.5v-10zm5.3 5.8h5v10.1h17.2v-10.1h5.7v10.1h6.1 4.3 6.1v-10.1h5.7v10.1h17.2v-10.1h5l14.3 99.2c0.2 2.1 0.3 3.7 0.3 4.7 0 1-0.2 1.3-0.4 1.7-0.4 0.7-2.3 1.9-7 4.1l-41.2 19.7-41.2-19.7c-4.7-2.2-6.7-3.4-7.1-4.1-0.2-0.4-0.3-0.7-0.4-1.7 0-1 0.1-2.6 0.3-4.7z"/><path class="b" d="m41.6 23.3q-0.8 0-1.3 0.3c-0.6 0.3-1.1 1.2-1.5 2.8q0 0 0 0c-1.5 6.5-1.9 10-1.1 15.3v0.2l-0.2 0.1c-4.9 2-7.7 4-12.7 8.5q0 0 0 0c-1.1 1.2-1.6 2.1-1.6 2.8 0 0.7 0.5 1.6 1.6 2.7 5 4.6 7.8 6.6 12.7 8.6l0.2 0.1v0.2c-0.8 5.3-0.4 8.7 1.1 15.3 0.4 1.6 0.9 2.4 1.5 2.8 0.6 0.3 1.6 0.3 3.2-0.1q0 0 0 0c6.4-2 9.6-3.4 13.8-6.7l0.2-0.1 0.1 0.1c4.3 3.3 7.4 4.7 13.8 6.7q0 0 0 0c1.6 0.4 2.6 0.4 3.2 0.1 0.6-0.4 1.1-1.2 1.6-2.8q0 0 0 0c1.4-6.6 1.8-10 1.1-15.3l-0.1-0.2 0.2-0.1c5-2 7.8-4 12.7-8.6q0 0 0 0c1.2-1.1 1.7-2 1.6-2.7 0.1-0.7-0.4-1.6-1.6-2.8-4.9-4.5-7.7-6.5-12.7-8.5l-0.2-0.1 0.1-0.2c0.7-5.3 0.3-8.8-1.1-15.3-0.5-1.6-1-2.5-1.6-2.8-0.6-0.4-1.6-0.4-3.2 0q0 0 0 0c-6.4 2.1-9.5 3.5-13.8 6.7l-0.1 0.2-0.2-0.2c-4.2-3.2-7.4-4.6-13.8-6.7q0 0 0 0-1.2-0.3-1.9-0.3zm2.2 6.2l0.2 0.1c4.4 0.6 6.7 2.5 11.7 6.3l0.2 0.1-4.4 7.5h-8.2v-0.2c-0.8-6.4-1.3-9.3 0.4-13.6zm27.4 0l0.1 0.2c1.7 4.2 1.2 7.2 0.4 13.6l-0.1 0.2h-8.1l-4.4-7.5 0.2-0.1c4.9-3.8 7.3-5.7 11.7-6.3zm-13.7 13.7l2.9 5.1h5.8l-2.9 5 2.9 4.9h-5.8l-2.9 5.1-3-5.1h-5.7l2.9-4.9-2.9-5h5.7l2.8-4.7zm-16 2.8l4.2 7.5-4 7-0.2-0.1c-5.8-2.4-8.6-3.5-11.3-7l-0.2-0.2 0.2-0.2c2.7-3.4 5.4-4.5 11-6.9zm32 0l0.3 0.1c5.6 2.4 8.3 3.4 11 6.9l0.2 0.2-0.2 0.2c-2.7 3.5-5.5 4.6-11.3 7h-0.2l-4-7 4.1-7.2zm-30.2 17.4h8.3l4.1 7.2-0.2 0.2c-4.8 3.7-7.1 5.5-11.5 6.1h-0.2l-0.1-0.1c-1.6-4.2-1.2-7.1-0.4-13.1zm20.2 0h8.2v0.2c0.8 6 1.2 9-0.4 13.1l-0.1 0.2-0.2-0.1c-4.4-0.6-6.7-2.4-11.5-6.1l-0.2-0.1 4.1-7.1z"/><path class="b" d="m57.4 73.2c-1.7 0.1-3 1.4-3 3.1v2h0.3v0.2 16.4l-9.1-7c-2.1-1.6-4.4-3-7.2-3.2-2.8-0.2-5.7 0.9-8.7 3.3l-10.7 8.7c-0.9 0.8-1.1 1.8-0.8 2.7 0.3 0.9 1.1 1.6 2.3 1.6h34.2v5.1c0 1.6 1.2 2.8 2.8 2.8 1.5 0 2.8-1.2 2.7-2.8v-5.1h34.3c1.1 0 1.9-0.8 2.2-1.6 0.3-0.9 0.1-2-0.8-2.7l-11.4-8.8c-2.1-1.6-4.4-3-7.2-3.2-2.7-0.2-5.7 0.9-8.7 3.3l-8.4 6.8v-16.3-0.2h0.3v-2c0-1.7-1.4-3.1-3.1-3.1zm-19.9 16.3q0.3-0.1 0.6 0c1.4 0.1 2.9 0.8 4.6 2.2l5.9 4.5h-21.4l5.5-4.5c1.9-1.6 3.3-2.1 4.6-2.2zm38.9 0q0.3 0 0.5 0c1.4 0.1 2.9 0.8 4.7 2.2l5.8 4.5h-21.4l5.6-4.5c1.9-1.6 3.3-2.1 4.5-2.2z"/></g></svg>