<svg version="1.2" xmlns="http://www.w3.org/2000/svg" viewBox="0 0 92 140" width="92" height="140"><style>.a{fill:#00f}.b{fill:#fefc01}.c{fill:#00c9eb;stroke:#00c9eb;stroke-width:.5}.d{fill:#ff0101;stroke:#fff;stroke-width:.8}.e{fill:#fff}.f{fill:#36c1e2}.g{fill:#ff0101}</style><g style="opacity:1"><path fill-rule="evenodd" class="a" d="m60.7 17.9l-1.4 1.8c-0.3 0.2-0.5 0.7-0.5 1.3q0 0.8 0.6 1.3c0.3 0.4 0.7 0.7 2.7 1.1 2 0.4 5.2 1.5 8.3 2.9q4.4 2.1 8.4 4.9l0.1 0.1-2.3 1.7h-0.1c-0.8 0.5-1 1.6-0.6 2.4l4.6 3.4 9.7-5c1.9-1.1 1.4-4.1 0.2-5.3q-2.2-2.5-4-4.1-1.9-1.6-4.8-3.5-3-2-5.4-3.1-2.3-1.1-5.9-2.2h-0.2c-6.4-1.6-6.7-1.3-9.4 2.3z"/><path fill-rule="evenodd" class="b" d="m70.6 18.7l2.2 0.6-1.7 1.7 0.4 2-1.9-0.5-1.3 1.1v0.2l-0.4-1.8-2.2-0.7 1.8-1.6-0.5-2.1 1.9 0.6 1.3-1.3z"/><path fill-rule="evenodd" class="b" d="m75.3 20.5l1.8 1 1.6-0.8v1.6l1.9 1.2-2.1 1.2v2.1l-1.7-1-1.5 0.9-0.1 0.1 0.1-1.8-2.1-1.2 2.1-1.2c0 0 0-2.1 0-2.1z"/><path fill-rule="evenodd" class="b" d="m84.1 26.1l1.7-0.7-0.3 1.7 1.8 1.4-2.2 1-0.3 2-1.6-1.2-1.6 0.7h-0.1l0.3-1.8-1.8-1.4 2.3-0.9 0.3-2z"/><path fill-rule="evenodd" class="a" d="m32 17.9l1.5 1.8c0.2 0.2 0.4 0.7 0.4 1.3q0 0.8-0.5 1.3c-0.4 0.4-0.8 0.7-2.8 1.1-1.9 0.4-5.2 1.5-8.2 2.9q-4.5 2.1-8.4 4.9l-0.2 0.1 2.4 1.7c0.9 0.5 1 1.6 0.6 2.4l-4.5 3.4-9.7-5c-1.9-1.1-1.5-4.1-0.3-5.3q2.2-2.5 4.1-4.1 1.8-1.6 4.7-3.5 3-2 5.5-3.1 2.3-1.1 5.9-2.2h0.2c6.3-1.6 6.6-1.3 9.3 2.3z"/><path fill-rule="evenodd" class="b" d="m22.1 18.7l-2.1 0.6 1.7 1.7-0.4 2 1.9-0.5 1.2 1.1 0.1 0.2 0.4-1.8 2.1-0.7-1.7-1.6 0.5-2.1-2 0.6-1.3-1.3z"/><path fill-rule="evenodd" class="b" d="m17.4 20.5l-1.7 1-1.6-0.8v1.6l-1.9 1.2 2 1.2 0.1 2.1 1.7-1 1.5 0.9v0.1-1.8l2-1.2-2.1-1.2c0 0 0-2.1 0-2.1z"/><path fill-rule="evenodd" class="b" d="m8.6 26.1l-1.6-0.7 0.2 1.7-1.8 1.4 2.2 1 0.4 2 1.5-1.2 1.7 0.7-0.3-1.8 1.8-1.4-2.2-0.9-0.3-2z"/><path class="c" d="m34.6 46.5l-2-3.3 5.4-3.9 2.6 4.2z"/><path class="c" d="m58.5 27.5l2 3.3-5.4 3.9-2.6-4.2z"/><path class="c" d="m37 25.1l3.4-2 3.9 5.4-4.3 2.5z"/><path class="c" d="m56.1 48.9l-3.3 2-3.9-5.4 4.2-2.5z"/><path class="c" d="m41 51.2l-3.4-1.9 2.7-6.1 4.4 2.4z"/><path class="c" d="m52.1 22.8l3.4 1.9-2.7 6.1-4.3-2.4z"/><path class="c" d="m32.4 31.4l1.8-3.4 6.1 2.8-2.4 4.3z"/><path class="c" d="m60.8 42.6l-1.9 3.4-6.1-2.8 2.4-4.3z"/><path class="c" d="m31.5 39.3l-0.1-3.9 6.6-0.7 0.1 5z"/><path class="c" d="m61.6 34.7l0.1 3.9-6.6 0.7-0.1-5z"/><path class="c" d="m48.9 52.1l-3.9 0.1-0.7-6.7 4.9-0.1z"/><path class="c" d="m44.3 21.9l3.9-0.1 0.6 6.7-4.9 0.1z"/><path class="d" d="m46.4 28.1c-4.9 0.1-8.8 4.2-8.7 9.1 0.1 4.9 4.2 8.8 9.1 8.7 4.9-0.1 8.7-4.2 8.6-9.1-0.1-4.9-4.1-8.8-9-8.7zm0.2 12.4c-1.9 0.1-3.5-1.5-3.6-3.4 0-2 1.5-3.6 3.5-3.6 1.9-0.1 3.5 1.5 3.6 3.4 0 2-1.5 3.6-3.5 3.6z"/><path class="a" d="m85.2 52.4v4.9h-5.3v-4.9h-6.7v4.9h-5.3v-4.9h-6.8v4.9h-5.3v-4.9h-6.7v4.9h-5.3v-4.9h-6.7v4.9h-5.3v-4.9h-6.8v4.9h-5.3v-4.9h-6.7v4.9h-5.3v-4.9h-6.7v6c0.1 2.7 0.5 10.4 1.5 19.9 1.2 11.9 4.4 21.7 4.4 21.7 0 0 6.5 3.3 10.2 3.3 3.7 0 8.1-1.1 8.1-1.1l35-2.8 7.8 3.6c0 0 10.2-3.3 13.3-3.3 3.2 0 3.6 1.1 3.6 1.1 0 0 3.6-9.2 5.2-20.9 1.4-9.5 1.7-18.5 1.8-21.5v-6z"/><path class="e" d="m44.8 56.6l-0.5 0.1 0.1 1.8c0.2 1.5 0.1 1.9-0.7 3.4l-15.6 29.4c0 0-0.8 2.2-3.7 2.2h-1v0.9h17.2l0.2 0.4 8.1-2 0.3-0.1v-0.7l22.1-1.1v0.9l4.2-0.6z"/><path class="a" d="m46.3 64.6c0.4 0.3 5.7 3.7 5.7 11.8 0 7.9-2.6 10.6-3 10.9z"/><path class="f" d="m13.5 116.7c3.2 0.4 5.6 1.6 9.7 1.6 5 0 5.8-2.3 9.8-2.3 4 0 7 2.1 10.2 2.1 3.1 0 4.8-2.4 8.1-2.4 3.3 0 5.7 2.7 8.3 2.7 2.6 0 5.7-2.9 9-2.9 3.4 0 4.5 2.5 7.6 2.5q0.9 0 1.9-0.4c1.3-2 2.4-4 3.3-5.8h-70.7c0.8 1.5 1.7 3.2 2.8 4.9zm7.3 9.6c1.9 1.9 4.1 3.6 6.5 5.1 0.9 0.2 1.8 0.4 2.7 0.4 3.2 0 4.9-2.3 8.1-2.3 3.3 0 5.7 2.6 8.3 2.6 2.7 0 5.7-2.9 9.1-2.9 3.3 0 4.5 2.5 7.5 2.5q0.9 0 1.8-0.3c2.4-1.5 4.6-3.2 6.5-5.1q0.3-0.3 0.5-0.5h-51.5q0.3 0.2 0.5 0.5zm-1.5-1.6c4.5-0.1 5.5-2.2 9.3-2.2 4 0 7 2 10.2 2 3.2 0 4.8-2.3 8.1-2.3 3.3 0 5.7 2.6 8.3 2.6 2.6 0 5.7-2.9 9-2.9 3.4 0 4.5 2.5 7.6 2.5q0.7 0 1.4-0.2c1.4-1.6 2.6-3.2 3.8-4.9h-61.8c1.2 1.8 2.6 3.7 4.1 5.4zm-11.6-19.7c0 0 0.6 1.7 1.8 4.2 3 0.4 5.3 1.5 9.3 1.5 5 0 5.8-2.2 9.8-2.2 4 0 7 2 10.2 2 3.2 0 4.8-2.3 8.1-2.3 3.3 0 5.7 2.6 8.3 2.6 2.6 0 5.7-2.9 9-2.9 3.4 0 4.5 2.5 7.6 2.5 3.1 0 5.8-3 8.7-3 0.8 0 1.8 0.3 2.7 0.6 0.8-1.8 1.2-3 1.2-3zm38.3 34.2c0 0 8.1-2 15.9-6.2h-31.8c7.8 4.2 15.9 6.2 15.9 6.2z"/><path class="g" d="m50 92.5v3.5c10.6-3.4 20.2-4.4 30.2-5.6l-9.2 12.8-43.4-0.8-3.1-3.5c9.4-1.2 25.5-6.4 25.5-6.4z"/><path class="a" d="m46.1 71.2c-0.2 0.2-1.7 4.3-2 8.1-0.2 3.7 0.7 7.3 4.5 12.5z"/><path fill-rule="evenodd" class="b" d="m64 6.9l-0.9 4.1-5.3-1.2-0.5 2.1 8.5 1.9 0.4-2.1-1.1-0.3 1.4-6.2-7.3-1.6-0.5 2.1z"/><path fill-rule="evenodd" class="b" d="m50.4 11.1l0.4-6.6 3.8 0.2-0.4 6.6 2.1 0.1 0.5-8.6-8-0.4-0.4 6.4-1.7-0.1-0.1 2.2z"/><path fill-rule="evenodd" class="b" d="m42.5 5.7h3.6v2.2h-3.6z"/><path fill-rule="evenodd" class="b" d="m38.7 6.4l-0.5-3.6 2.1-0.3 0.5 3.6z"/><path class="b" d="m28.1 5.3l2.5 8.1 7.2-2.2-2.5-8.1zm7.2 4.4l-3.5 1.1-1.3-4 3.6-1.2z"/><path class="a" d="m46.5 0c-8.8 0-17.8 3-24.8 8.6l2.2 2.4 5.5 6.4c5.4-3.3 10.2-6.1 17.1-6.1 6.8 0 11.7 3.1 17 6.1l5.5-6.4 2.2-2.4c-7.3-5.7-16.5-8.6-24.7-8.6z"/><path class="b" d="m34.5 3.8l-8.3 3.7 1 2.1 1.6-0.8 1.7 4.2 6.7-3.5zm-1.2 2.8l1 2.2-2.5 1.3-1.1-2.2z"/><path class="b" d="m37.2 2.9l0.7 2.9 2.2-0.6-0.6-2.8z"/><path class="b" d="m41.8 4l0.1 1.6 3-0.2-0.2-1.7z"/><path class="b" d="m46.7 6.1l1.3 0.2 0.9-4.4 7 1.5-1.1 6.3-2.3-0.6 0.7-4-2.4-0.4-0.7 4-3.7-0.6z"/><path class="b" d="m60.9 10.2l0.7-1.9-4.2-2.1 0.9-2.1 6.3 3-1.6 4.1 0.9 0.4-0.8 2.1-7.3-3.5 0.9-2.1z"/></g></svg>