<svg version="1.2" xmlns="http://www.w3.org/2000/svg" viewBox="0 0 141 149" width="141" height="149"><style>.a{fill:#008e49}.b{fill:#ffd200}.c{fill:#231f20}</style><g style="opacity:1"><path class="a" d="m24.6 121.4c0 9 5.1 9.6 5.1 9.6l25.7 8.4v-74h-29.2l-1.8 56c0 0 0.2-9 0.2 0zm12-42.2h6.7v38.5l-6.5-1.9-0.3-36.6"/><path class="a" d="m59.3 64.8h27.8l0.4 81.1-6.8 3.1-5-2.3v-67.9h-16.6z"/><path class="a" d="m59.1 83.2h11.5v61.6l-11.7-4.1z"/><path class="a" d="m74 62.5h17.5v82.1l39.1-14.8c0 0 3.6-0.5 3.6-9.3v-74.9l-12.2 13.5v56.1l-17.5 5.5v-4.9l13.1-4.4 1.9-80.7-6.7 16.4-5.5-11-3.3 53.7-1.8-27.6 1-46.2-7.4-16z"/><path class="b" d="m114.2 63.3c13.6 0 24.6-11 24.6-24.5 0-13.5-11-24.5-24.6-24.5-13.5 0-24.5 11-24.5 24.5 0 13.5 11 24.5 24.5 24.5z"/><path class="a" d="m114.2 12.2c-14.6 0-26.5 12-26.5 26.6 0 14.7 11.9 26.6 26.5 26.6 14.7 0 26.6-11.9 26.6-26.6 0-14.6-11.9-26.6-26.6-26.6zm0 4.2c12.5 0 22.5 10 22.5 22.4 0 12.4-10 22.4-22.5 22.4-12.4 0-22.4-10-22.4-22.4 0-12.4 10-22.4 22.4-22.4z"/><path class="a" d="m104.7 105.3l13.1-4.5 1.9-80.7-6.7 16.5-5.5-11.1-3.3 53.8z"/><path class="c" d="m0 61h4.3l4.9-13.6h2.9l-4.9 13.6h3.2l6.1-16.8h-9.3l-4.9 13.6h-1.1zm17.3-9.4h3.2l2.7-7.4h-3.2zm3.3 9.3h3.3l9.2-13.7-3.9 10.5h-2l-1.2 3.2h5.3l6.1-16.7h-5.8l-3.8 5.8 2.1-5.8h-3.2l-2.3 6.3h3zm14.2 0h3.2l6.1-16.8h-3.2zm6.2 2.4h3.2l4.9-13.5h-3.1zm5.8-16h6.5l-2.9 7.9-4.9 5.7h3.4l4.6-5.2 4.2-11.6h-9.8zm8.5 13.5h3.3l9.2-13.7-3.9 10.5h-2l-1.2 3.2h5.3l6.1-16.7h-5.8l-3.9 5.8 2.2-5.8h-3.2l-2.3 6.3h3z"/><path class="c" d="m12.3 36.2h3.3l4.1-11.3h-3.3zm4.9-13.6h6.7l-4.9 13.6h3.4l6.1-16.8h-10.1zm9.3 13.6h10.2l-0.2-8.2h3.2l3.1-8.6h-3.3l-2.9 7.9-0.5-7.9h-3.5l0.6 13.5h-5.6zm14.6 0h7.9l3.6-3.5 4.9-13.2h-3.4l-4.5 12.2-1.2 1.3h-1.4l4.9-13.5h-3.3l-5 13.5h-1.3zm14.4 0h3.3l6.1-16.7h-3.3zm8.2 0h3.5l9.4-13.8-3.9 10.5h-2.1l-1.2 3.3h5.5l6.1-16.8h-6l-4 5.8 2.2-5.8h-3.4l-2.3 6.3h3.2z"/></g></svg>