<svg version="1.2" xmlns="http://www.w3.org/2000/svg" viewBox="0 0 322 431" width="322" height="431"><defs><linearGradient id="P" gradientUnits="userSpaceOnUse"/><linearGradient id="g1" x2="1" href="#P" gradientTransform="matrix(40.37,132.043,-241.34,73.785,182.923,224.219)"><stop stop-color="#bc6729"/><stop offset="1" stop-color="#845335"/></linearGradient><clipPath clipPathUnits="userSpaceOnUse" id="cp1"><path d="m89.87 351.45l2.51-1.97c8.11-3.11 24.48-7.77 30.85-7.29 11.66 0.88 14.47 12.53 31.96 2.59 15.81-8.99 18.12 7.19 39.25-0.32 18.07-6.43 20.85 10.97 40.45-0.37 4.86-2.81 8.41-3.24 11.69-2.49-104.43 61.67-156.71 9.85-156.71 9.85zm169.15-18.65q-2.31 2.08-4.75 3.88c-20.76-9.89-22.51 9.74-39.61 1.89-19.54-8.96-23.2 5.55-39.93-1.56-18.52-7.88-21.13 4.15-31.35 4.24-11.79 0.11-10.65-11.15-34.95-4.33l10.64-8.32c2-0.27 3.89-0.38 5.55-0.25 11.66 0.87 14.47 12.52 31.97 2.58 15.81-8.98 18.11 7.2 39.25-0.32 18.07-6.42 20.84 10.97 40.44-0.37 10.13-5.86 14.55-1.37 22.74 2.56zm29.38-43.75c-6.08 13.46-13.98 27.45-23.8 38.2-3.26-1.31-5.82-2.89-8.42-4.17-21.25-10.46-22.88 9.56-40.12 1.65-19.55-8.97-23.2 5.54-39.93-1.57-18.53-7.87-21.13 4.15-31.35 4.24-7.45 0.07-9.74-4.4-16.54-5.98l40.62-31.78c6.64-2.93 17.49-6.43 24.48-5.91 11.65 0.88 14.47 12.53 31.96 2.59 15.81-8.99 18.12 7.19 39.25-0.32 11.32-4.03 16.64 1.3 23.85 3.05zm-103.3-12.12l8-6.25c9.38 2.3 13.12 11.2 29.08 2.12 15.81-8.98 18.11 7.2 39.25-0.32 15.34-5.45 19.66 6.28 32.62 2.98q-1.22 3.2-2.6 6.52c-1.96-0.14-4.16-0.7-6.68-1.86-19.55-8.97-23.2 5.54-39.94-1.57-18.52-7.87-21.12 4.15-31.34 4.25-10.62 0.1-10.75-9.02-28.39-5.87zm14.47-11.32l45.41-35.53c10.01 1.95 13.5 11.64 29.92 2.31 12.85-7.31 16.78 2.02 29.16 1.73v9.6c0 0-2.18 9.43-6.69 22.57-4.24 2.11-8.68 3.55-15.73 0.31-19.54-8.97-23.19 5.54-39.93-1.57-18.52-7.87-21.12 4.15-31.34 4.25-4.93 0.04-7.59-1.89-10.8-3.67zm52.09-40.75l5.7-4.47c7.19-2.79 22.05-5.4 28.79-4.9 7.55 0.57 11.39 5.66 17.91 6.47v4.68c-2.76 0.08-5.87-0.43-9.62-2.03-18.53-7.87-21.12 4.16-31.35 4.25-5.24 0.05-7.93-2.15-11.43-4zm18.11-14.18l27.3-21.36 6.99-0.46v25.57c-9.73-1.24-10.08-11-34.29-3.75z"/></clipPath><linearGradient id="g2" x2="1" href="#P" gradientTransform="matrix(92.12,301.312,-299.476,91.559,163.588,131.884)"><stop stop-color="#bc6729"/><stop offset="1" stop-color="#845335"/></linearGradient></defs><style>.a{fill:#fff}.b{fill:#fcaf17}.c{fill:#034ea2}.d{fill:none;stroke:#034ea2;stroke-miterlimit:3.864;stroke-width:5.2}.e{fill:none;stroke:#153f91;stroke-miterlimit:3.864;stroke-width:2.2}.f{fill:#21409a}.g{fill:#153f91}.h{fill:#845339}.i{fill:#ffda1e}.j{fill:none;stroke:#ffda1e;stroke-miterlimit:3.864;stroke-width:2.9}.k{fill:none;stroke:#fcaf17;stroke-miterlimit:3.864;stroke-width:2.9}.l{fill:none}.m{fill:#009649}.n{fill:url(#g1)}.o{fill:url(#g2)}</style><g style="opacity:1"><path class="a" d="m21 81.8l282.2-2.2v160c0 0-17.8 128.8-144.5 128.8-60.2 0-89.7-24.6-107.8-50.1-20-28-25.5-57.4-25.5-63.2 0-2.3-3.8-11.5-4.1-23.7-1.1-47.5-0.3-149.6-0.3-149.6z"/><path class="b" d="m141.9 255.4v24.1h24.1v13l35.7-30.7v-6.4c0 0-59.8 0-59.8 0zm23.6 17.1h-17.3v-12.6h17.3z"/><path class="b" d="m79.1 303.1v40.9l8.8 4.7 40.9-29.3v-16.3c0 0-49.7 0-49.7 0zm22.8 28h-17.7v-21.5h17.7c0 0 0 21.5 0 21.5z"/><path class="c" d="m179 78.8h-38.8v-45.2h38.8z"/><path class="d" d="m179 78.8h-38.8v-45.2h38.8z"/><path fill-rule="evenodd" class="a" d="m145.4 71.7v-29.7l7.1-1.3v27.1l-7.1 3.9"/><path fill-rule="evenodd" class="a" d="m175.1 71.7v-29.7l-7.1-1.3v27.1l7.1 3.9"/><path fill-rule="evenodd" class="c" d="m204.2 34.9h116.9l-12.9 36.8h-89.8l-14.2-36.8"/><path fill-rule="evenodd" class="c" d="m117 34.9h-117l13 36.8h89.8l14.2-36.8"/><path fill-rule="evenodd" class="a" d="m3.9 387l16.1-22.6v22.6z"/><path fill-rule="evenodd" class="e" d="m3.9 387l16.1-22.6v22.6z"/><path fill-rule="evenodd" class="f" d="m3.2 384.4h96.3v29.7h-96.3z"/><path fill-rule="evenodd" class="a" d="m23.8 408.7h-3.6v-8.1h-6.9v8.1h-3.7v-18.4h3.7v7.4h6.9v-7.4h3.6v18.4"/><path class="a" d="m43.2 399.7q0 3.9-1.9 6.5-2.2 3.1-6.5 3.1-4.3 0-6.5-3.1-2-2.6-2-6.5 0-3.9 2-6.6 2.3-3.1 6.5-3.1 4.3 0 6.5 3.1 1.9 2.7 1.9 6.6zm-3.7 0q0-2.6-0.9-4.3-1.2-2.3-3.8-2.3-2.6 0-3.8 2.2-0.9 1.7-0.9 4.4 0 2.6 0.9 4.3 1.2 2.2 3.8 2.2 2.6 0 3.8-2.3 0.9-1.7 0.9-4.2z"/><path fill-rule="evenodd" class="a" d="m58.1 408.7h-12v-18.4h3.6v15.5h8.4v2.9"/><path class="a" d="m76.7 399.7q0 3.9-1.9 6.5-2.3 3.1-6.5 3.1-4.3 0-6.6-3.1-1.9-2.6-1.9-6.5 0-3.9 1.9-6.6 2.3-3.1 6.6-3.1 4.2 0 6.5 3.1 1.9 2.7 1.9 6.6zm-3.8 0q0-2.6-0.9-4.3-1.2-2.3-3.7-2.3-2.6 0-3.8 2.2-0.9 1.7-0.9 4.4 0 2.6 0.9 4.3 1.1 2.2 3.8 2.2 2.5 0 3.7-2.3 0.9-1.7 0.9-4.2z"/><path fill-rule="evenodd" class="a" d="m93.5 408.7h-3.6l-7.1-12.8v12.8h-3.6v-18.4h3.6l7.1 12.7v-12.7h3.6v18.4"/><path fill-rule="evenodd" class="g" d="m95.6 402.5l3.9-17.5h17.4z"/><path fill-rule="evenodd" class="e" d="m95.6 402.5l3.9-17.5h17.4z"/><path fill-rule="evenodd" class="a" d="m98.8 401.8l17.5-17.4v17.4z"/><path fill-rule="evenodd" class="e" d="m98.8 401.8l17.5-17.4v17.4z"/><path fill-rule="evenodd" class="a" d="m195.1 402.5v-17.5l16.8 16.8z"/><path fill-rule="evenodd" class="e" d="m195.1 402.5v-17.5l16.8 16.8z"/><path fill-rule="evenodd" class="g" d="m195.8 385h109.2v31.1h-94.4v-13.6z"/><path fill-rule="evenodd" class="e" d="m195.8 385h109.2v31.1h-94.4v-13.6z"/><path fill-rule="evenodd" class="f" d="m99.5 400.5h110.5v29.8h-110.5z"/><path class="a" d="m222.3 395.6c0.5-0.9 1.3-1.6 2.2-2.3q-1.8-0.7-3.2-1.7c-0.7 0.8-1.4 1.7-2.3 2.3 1.2 0.4 2.3 1 3.3 1.7zm7.6 8.4c-1.9 1.3-5.3 2.1-7.5 2.1-3 0-5.3-0.6-5.3-2.5 0-0.7 0.4-1.6 1.1-2.7 0.3-0.5 0.1-0.7-0.2-0.7-0.8 0-2.6 2.7-2.6 4.8 0 2.8 3.1 4.5 6.6 4.5 5.7 0 9.3-2.8 9.3-6.4 0-2-1.1-5.8-3.3-7.4l-1.4 2.9c1.6 1.6 2.8 3.4 3.3 5.4z"/><path class="a" d="m250.6 402.1c0-0.3-0.5-0.4-0.9-0.4h-1.7c-0.1-1-1-3.9-2.6-3.9-2 0-5.1 3.7-5.1 5 0 1.6 1.4 2.3 5.4 2-0.7 3.1-4.8 4.6-8.6 4.6-3.7 0-4.5-1.3-4.5-0.2 0 0.5 2.8 3.2 5.4 3.2 3.4 0 8-2.5 9.6-7.6h1.8c0.5 0 1.2-0.2 1.2-0.4zm-4.4-0.5c-0.5 0.1-1 0.2-1.5 0.2-0.7 0-1.2-0.1-1.5-0.2-0.3-0.8 0.7-1.8 1.2-1.8 0.6 0 1.6 0.9 1.8 1.8z"/><path class="a" d="m248.1 404.4c0 0.2 0.7 0.4 1.2 0.4h-0.3c3.3 0 5.1-0.3 6.2-0.8 0.5-0.7 1.7-2.3 1.7-4.3 0-1.8-0.8-5.6-1.4-7.8-0.4-1.6-0.1-2.3 1.1-3.1-0.6-0.1-2.1-1.7-2.6-2.6-0.5 0.5-1.3 1.2-2 1.8 0.8 1.4 0.9 3.8 1.3 6.1 0.4 2.2 1.1 4.9 1.1 5.6 0 1.4-1.3 2-3 2h-2.4c-0.4 0-0.9 0.1-0.9 0.4z"/><path class="a" d="m276.1 402.1c0-0.3-0.4-0.4-0.8-0.4h-1.8c0-1-1-3.9-2.5-3.9-2 0-5.1 3.7-5.1 5 0 1.6 1.4 2.3 5.4 2-0.7 3.1-4.8 4.6-8.6 4.6-3.7 0-4.5-1.3-4.5-0.2 0 0.5 2.8 3.2 5.4 3.2 3.4 0 7.9-2.5 9.5-7.6h1.9c0.5 0 1.1-0.2 1.1-0.4zm-4.4-0.5c-0.4 0.1-1 0.2-1.4 0.2-0.7 0-1.2-0.1-1.6-0.2-0.2-0.8 0.8-1.8 1.3-1.8 0.6 0 1.6 0.9 1.7 1.8z"/><path class="a" d="m273.9 404.4c0 0.2 0.7 0.4 1.1 0.4 2.5 0 3.9-0.2 7.3-1.7 2.3-1.1 7.6-2.3 13.2-1.9l1.4-2.8h-2.2c-7.3 0-11-2.7-13.7-2.7-2.4 0-3.7 1.6-4.5 3-0.2 0.3 0.1 0.5 0.5 0.3 1.1-0.3 2.2-0.4 3.3-0.4 1.9 0 3.9 0.6 5.5 1.1v0.1c-2.4 0.4-6.4 1.9-9 1.9h-2.1c-0.4 0-0.8 0.1-0.8 0.4z"/><path fill-rule="evenodd" class="a" d="m109.5 407.9h5.3v18.7h-5.3z"/><path fill-rule="evenodd" class="a" d="m123.6 407.9h5.3v15.8h-5.3z"/><path fill-rule="evenodd" class="a" d="m138.3 405.9h5.3v2h13.2v10.2l-5.7 5.6h-6.9l7.3-7.1v-4.3h-13.2v-6.4"/><path fill-rule="evenodd" class="a" d="m165.6 407.9h5.3v15.8h-5.3z"/><path fill-rule="evenodd" class="a" d="m179.9 407.9h18.3v15.8h-5.3v-11.4h-7.7v11.4h-5.3v-15.8"/><path fill-rule="evenodd" class="a" d="m116.3 34.2l-7.8-31.6h101.5l-6.5 31.6z"/><path fill-rule="evenodd" class="d" d="m116.3 34.2l-7.8-31.6h101.5l-6.5 31.6z"/><path class="h" d="m177.1 191.2l4.7-1.9c0 0 1.3 5.2 3.6 5.6 2.3 0.5 2.3 0.5 2.8-2.3 0.5-2.8 0-4.7 0-4.7l2.8-0.9c0 0-0.5 7.9 2.3 9.3 2.8 1.4 7 4.2 7 2.4 0-1.9-1.8-6.1-2.3-8.9-0.5-2.8-0.9-6.5-0.9-6.5l1.8-1c0 0 0.5 10.3 5.6 12.2 5.1 1.8 10.7 7 15.9 7.9 5.1 0.9 10.1 3.2 10.5 0.9 0.5-2.3-2.4-4.6-4.6-6.5-2.2-1.9-6.4-4.2-8.3-7-1.8-2.8-5.1-4.7-5.6-6.5-0.4-1.9-2.3-3.8-2.3-3.8l5.6-5.1c0 0 0.9 1.4 1.9 3.3 0.9 1.8 6.8 15.8 9.1 16.8 2.4 0.9 7 6 8.4 2.8 1.4-3.3 1.9-3.8 1-8.4-1-4.7-2.8-7.5-3.8-9.8-0.9-2.4-3.2-5.9-3.2-5.9h5.6c0 0 1.4 10.5 5.6 10.5 4.2 0 6.5 0.5 7.9-3.2 1.4-3.8 1.9-6.1 1.9-6.1l8.3 8.9c0 0-8.8-2.4-9.7 1.8-1 4.2-4.2 8.9-1.9 11.2 2.3 2.4 9.3 6.1 13 8.9 3.8 2.8 7.5 4.6 7.5 4.6l-26.1 21.3c0 0-0.9-5.5-4.7-7.9-3.7-2.3-9.6-0.4-14.3-2.8-4.6-2.3-7-7.3-7.9-10.1-0.9-2.8-0.5-2.3-5.6-3.3-5.1-0.9-9.3 0-10.7-2.3-1.4-2.3-2.8-5.1-5.1-5.1-2.4 0-6.4 0-8.8-1.9-2.3-1.8-7-6.5-7-6.5z"/><path fill-rule="evenodd" class="i" d="m106.9 274.8h59.5v16.8l-37.1 27.8v-17.7h-22.4z"/><path fill-rule="evenodd" class="j" d="m106.9 274.8h59.5v16.8l-37.1 27.8v-17.7h-22.4z"/><path fill-rule="evenodd" class="b" d="m113.9 282.7h16.3v11.7h-16.3z"/><path fill-rule="evenodd" class="k" d="m113.9 282.7h16.3v11.7h-16.3z"/><path fill-rule="evenodd" class="j" d="m135.7 282.7h16.3v11.7h-16.3z"/><path fill-rule="evenodd" class="b" d="m135.7 282.7h16.3v11.7h-16.3z"/><path fill-rule="evenodd" class="k" d="m135.7 282.7h16.3v11.7h-16.3z"/><path fill-rule="evenodd" class="e" d="m289.4 384.9v-16.7l16.2 17.4z"/><path class="l" d="m89.3 352l2.5-2c8.2-3.1 24.5-7.7 30.9-7.3 11.6 0.9 14.5 12.6 31.9 2.6 15.9-9 18.2 7.2 39.3-0.3 18.1-6.4 20.8 11 40.4-0.4 4.9-2.8 8.5-3.2 11.7-2.5-104.4 61.7-156.7 9.9-156.7 9.9zm169.2-18.7q-2.3 2.1-4.8 3.9c-20.7-9.9-22.5 9.8-39.6 1.9-19.5-8.9-23.2 5.6-39.9-1.6-18.5-7.8-21.1 4.2-31.4 4.3-11.8 0.1-10.6-11.2-34.9-4.3l10.6-8.4c2-0.2 3.9-0.3 5.6-0.2 11.6 0.9 14.4 12.5 31.9 2.6 15.9-9 18.2 7.2 39.3-0.3 18.1-6.5 20.8 10.9 40.4-0.4 10.2-5.9 14.6-1.4 22.8 2.5zm29.4-43.7c-6.1 13.4-14 27.4-23.8 38.2-3.3-1.3-5.9-2.9-8.5-4.2-21.2-10.4-22.8 9.6-40.1 1.7-19.5-9-23.2 5.5-39.9-1.6-18.5-7.9-21.1 4.2-31.4 4.2-7.4 0.1-9.7-4.4-16.5-5.9l40.6-31.8c6.7-2.9 17.5-6.4 24.5-5.9 11.6 0.9 14.5 12.5 32 2.6 15.8-9 18.1 7.2 39.2-0.4 11.3-4 16.6 1.3 23.9 3.1zm-103.3-12.1l8-6.3c9.3 2.3 13.1 11.2 29 2.1 15.8-8.9 18.1 7.2 39.3-0.3 15.3-5.4 19.6 6.3 32.6 3q-1.2 3.2-2.6 6.5c-2-0.1-4.1-0.7-6.7-1.8-19.5-9-23.2 5.5-39.9-1.6-18.5-7.9-21.1 4.1-31.4 4.2-10.6 0.1-10.7-9-28.3-5.8zm14.4-11.3l45.4-35.6c10 2 13.5 11.7 30 2.3 12.8-7.3 16.7 2.1 29.1 1.8v9.6c0 0-2.2 9.4-6.7 22.5-4.2 2.1-8.7 3.6-15.7 0.3-19.5-8.9-23.2 5.6-39.9-1.5-18.6-7.9-21.2 4.1-31.4 4.2-4.9 0.1-7.6-1.9-10.8-3.6zm52.1-40.8l5.7-4.5c7.2-2.8 22.1-5.4 28.8-4.9 7.6 0.6 11.4 5.7 17.9 6.5v4.7c-2.7 0.1-5.8-0.4-9.6-2-18.5-7.9-21.1 4.1-31.4 4.2-5.2 0.1-7.9-2.1-11.4-4zm18.1-14.2l27.3-21.3 7-0.5v25.6c-9.7-1.3-10.1-11-34.3-3.8z"/><path fill-rule="evenodd" class="f" d="m132.4 16.2h7.1v7.1h-7.1z"/><path fill-rule="evenodd" class="f" d="m155.7 16.2h7.1v7.1h-7.1z"/><path fill-rule="evenodd" class="f" d="m179 16.2h7.1v7.1h-7.1z"/><path fill-rule="evenodd" class="f" d="m187.4 1.9h7.1v7.1h-7.1z"/><path fill-rule="evenodd" class="f" d="m166 1.9h7.1v7.1h-7.1z"/><path fill-rule="evenodd" class="f" d="m145.4 1.9h7.1v7.1h-7.1z"/><path fill-rule="evenodd" class="f" d="m123.4 1.9h7.1v7.1h-7.1z"/><path fill-rule="evenodd" class="a" d="m216.8 42.6h2.7v9.7h-2.7z"/><path fill-rule="evenodd" class="a" d="m221.2 42.6h9.6v5.9l-2.2 2.3h-7.4v-2.3h6l0.9-0.9v-2.7h-6.9v-2.3"/><path fill-rule="evenodd" class="a" d="m238.3 42.6h2.7v3.5h-2.7z"/><path fill-rule="evenodd" class="a" d="m247 46.6h-2.7v-1.7h-1.4v-2.3h10v8.2h-10v-2.3h7.2v-3.6h-3.1v1.7"/><path fill-rule="evenodd" class="a" d="m260.5 41.5h2.7v1.1h6.9v5.3l-2.9 2.9h-3.7l3.8-3.7v-2.2h-6.8v-3.4"/><path fill-rule="evenodd" class="a" d="m276.1 48.5h1.7l0.8-0.9v-5h2.8v5.9l-2.3 2.3h-7.3v-2.3h1.5v-5.9h2.8v5.9"/><path fill-rule="evenodd" class="a" d="m293.2 46.6h-2.8v-1.7h-1.3v-2.3h9.9v10h-2.8v-7.7h-3v1.7"/><path fill-rule="evenodd" class="a" d="m303.8 42.6l2.7 3.3 1.3-0.9v-2.4h2.8v3.5l-2.4 1.8 2.4 2.9h-3.4l-2.7-3.3-1.2 0.9v2.4h-2.8v-3.6l2.4-1.6-2.5-3h3.4"/><path fill-rule="evenodd" class="a" d="m10.8 41.5h2.8v1.1h6.9v5.3l-3 2.9h-3.6l3.8-3.7v-2.2h-6.9v-3.4"/><path fill-rule="evenodd" class="a" d="m22.1 42.6h9.6v5.9l-2.2 2.3h-7.4v-2.3h6l0.9-0.9v-2.7h-6.9v-2.3"/><path class="a" d="m33.6 46.8h2.8v4h-2.8zm0-4.3h9.5v8.2h-2.7v-5.9h-6.8z"/><path fill-rule="evenodd" class="a" d="m52.4 42.6h9.5v8.2h-2.8v-5.9h-4v5.9h-4.6v-2.3h1.9v-5.9"/><path fill-rule="evenodd" class="a" d="m63.4 42.6h2.8v8.2h-2.8z"/><path fill-rule="evenodd" class="a" d="m67.8 42.6h9v8.2h-2.8v-5.9h-6.2v-2.3"/><path fill-rule="evenodd" class="a" d="m78.3 42.6h2.9v3.3l2-3.3h5v8.2h-4.2v-2.3h1.5v-3.6h-0.6l-3.6 5.9h-3.1l2.9-4.7h-2.8v-3.5"/><path fill-rule="evenodd" class="a" d="m90.1 41.5h2.8v1.1h6.9v5.3l-3 2.9h-3.6l3.8-3.7v-2.2h-6.9v-3.4"/><path fill-rule="evenodd" class="a" d="m101.2 42.6h2.7v8.2h-2.7z"/><path class="m" d="m278.3 145.7c-3.2-3.3-2.8-5.6-6.5-7.5-3.7-1.9-11-0.5-14.8-3.3-3.7-2.8-1.8-5-3.2-7.3-1.4-2.3 11.6-2.3 16.6-1.9 5 0.5 5.6 0 6.1-2.7 0.4-2.8 0.4-4.2-3.3-6.6-3.7-2.3-14.8-2.8-25.5-3.7-10.7-0.9-44.6-6.5-53-8.4-8.4-1.9-40.9-7-46.5-8.8-5.5-1.9-34.8-3.8-40.4-3.8-5.6 0-6.4 2.8-8.2 2.8-1.9 0-1.4-0.4-3.3-1.4-1.8-0.9-6.5-3.1-11.2-3.6-4.6-0.4-7.9 2.2-11.2 3.2-3.2 0.9-2.3 0-2.3 0l-6.5-2.2c-2.3-0.8-5.9 1.7-5.9 1.7 0 0 2.6 2.3 9.1 5.6 6.6 3.2 8 2.8 10.3 6 2.3 3.3-6.5 3.3-11.6 5.6-5.2 2.4-9.7 11.2-13 13.6-3.2 2.3-0.4 4.6 2.4 6.5 2.8 1.8 6.8-3.8 10.1-7 3.2-3.3 7.4-3.7 10.2-3.7 2.8 0 1 2.8-1.8 5.1-2.8 2.3 0 0.5-0.5 3.7-0.5 3.3 3.3 1.9 5.6 3.7 2.3 1.9 2.3 3.6 2.3 6 0 2.3-1.4 1.4-4.2 1.4-2.8 0-4.6 2.3-7.4 4.6-2.8 2.4-6.1 3.3-11.1 4.2-5 1-11.6 3.3-14.9 5.1-3.2 1.9-1.4 4.7 0.5 8 1.8 3.2 2.8 1.8 6-1.4 3.3-3.3 9.4-4.7 11.6-4.7 2.1 0 0 2.8-1.4 6.1-1.4 3.2-3.6 4.2-6.4 5.6-2.8 1.4-1.9 4.6-2.4 7.4-0.4 2.8 5.6-0.4 8-0.4 2.3 0 1.2 1.2 0.3 4-0.9 2.8 1.9 1.9 3.7 1.9 1.9 0 7.9-3.3 14.5-5.9 6.5-2.7 6.5-1 7.4 2.1 1 3.2-6.5 5.6-8.8 9.4-2.4 3.7 3.2 2.8 6 4.2 2.8 1.4 10.3 0.4 14 0 3.7-0.5 8.3-6.1 10.6-8 2.3-1.8 1.9 3.8-0.9 6.6-2.8 2.8-2.4 3.7-1.4 6 0.9 2.4 7 0 11.2 0.5 4.1 0.5 1.3-1.4 3.7-5.1 2.3-3.8 4.6 0.9 8.8 1.8 4.2 1 5.6-1.4 8.9-3.7 3.3-2.3 9.6-6.1 12.9-5.6 3.3 0.5 1.9 4.7-2.8 7.9-4.7 3.3-7.3 1.4-11 2.4-3.8 0.9-2.8 3.7-1.9 7 0.9 3.2 9.6 0.4 17.1-0.5 7.5-0.9 5.1-0.9 8.9-2.3 3.7-1.4 2.8 0.9 3.7 3.2 0.9 2.4 1.9 0.5 7-4.2 5.1-4.6 8.4-4.6 11.6-5.1 3.3-0.5 3.6 0.9 6 0 2.3-0.9 2.3-3.7 2.3-3.7 0 0 4.2-1 6-1.4 1.9-0.5 4.2-3.8 10.8-4.2 6.5-0.5 6.5-3.3 8.4-6.1 1.8-2.8 5.1-0.5 9.1 0 4.1 0.5 8.9-0.5 11.7-1.7 2.8-1.3 4.7 0.9 9.8 2.6 5.1 1.8 5.6 7 8.8 7 3.3 0 9.4 1.4 14.4 1.4 4.9 0 2.3-5.6 2.3-10.5 0-5 4.6-3.3 8.4-3.8 3.7-0.4 4.2-6 4.2-13 0-7-4.7-7.5-8-10.7zm-177.3-7.5c-2.4 0.9-6.1 2.8-9.8 1.4-3.7-1.4-7.5-0.9-7.5-3.3 0-2.3 1-5.4 1-5.4l7.4-4.7c0 0 7.2 3.4 8.9 6.1 1.7 2.6 2.3 5 0 5.9zm16.2-3.3c-3.3 1.4-7 1.4-8.9 0.5-1.9-0.9-6.1-4.5-6.1-4.5l-0.8-5.6 2.2-2.8c0 0 3.3 1.4 5.2 3.2 1.8 1.9 11.6 7.8 8.4 9.2zm24.7 0.5c-6.1 0.5-11.7 2.2-15-0.5-3.2-2.6-6.9-6.8-6.9-6.8l-1.9-2.8c0 0-0.9 2.3-4.2 0.4-3.3-1.8-5.6-4.6-3.7-5.1 1.8-0.4 3.7 3.3 7 1.9 3.2-1.4 8.8-3.7 12.1-3.3 3.2 0.5 12.2 8.4 13.5 10.7 1.3 2.4 5.1 5-0.9 5.5zm40.4-3.6c-3.8 1.7-11.2 2.7-13.1 2.2-1.8-0.5-9.8-2.7-12.6-4.5-2.8-1.9-6-3.8-7.9-6.1-1.9-2.3-2.3-3.2-1.9-5.1 0.5-1.9 4.2-1.9 4.2-1.9 0 0 2.4 8 7 9.3 4.7 1.4 11.2 2.8 15.9 3.3 4.6 0.5 12.1 1.1 8.4 2.8zm31.5 5c-3.2 2.8-11.2 3.3-14.4 1.9-3.3-1.4-4.7-3.3-6.5-3.3-1.9 0-4.2-1.3-4.7-3.1-0.5-1.9 0.5-6.6 0.5-6.6l5.6-2.3h2.3c0 0 10.2 2.3 12.6 5.1 2.3 2.8 7.9 5.5 4.6 8.3zm18.5 0.5c-0.4 1.8-2.6 4.6-6.3 3.7-3.8-0.9-8.4-2.3-9.8-4.7-1.4-2.3-3.3-7.8-3.3-7.8l1.9-2.3 1.8 2.8c0 0 5.3 5.9 8.9 6.4 3.6 0.5 7.3 0 6.8 1.9zm15.9-6.4c-0.5 2.6-2.8 9.2-2.8 9.2 0 0-4.7-0.5-7-1.9-2.3-1.4-7.5-2.9-9.3-5.1-1.9-2.2-3.3-4.1-2.4-6.4 1-2.3 4.2-1 4.2-1 0 0 2.8 0 4.7 1.9 1.9 1.9 4.2 5 4.2 5l-0.5-6.4c0 0 1-3.7 3.3-1.8 2.3 1.8 6.1 3.8 5.6 6.5z"/><path class="n" d="m89.9 351.4l2.5-1.9c8.1-3.1 24.5-7.8 30.8-7.3 11.7 0.9 14.5 12.5 32 2.6 15.8-9 18.1 7.2 39.2-0.3 18.1-6.5 20.9 10.9 40.5-0.4 4.8-2.8 8.4-3.3 11.7-2.5-104.5 61.7-156.7 9.8-156.7 9.8zm169.1-18.6q-2.3 2.1-4.7 3.9c-20.8-9.9-22.5 9.7-39.6 1.9-19.6-9-23.2 5.5-40-1.6-18.5-7.9-21.1 4.2-31.3 4.3-11.8 0.1-10.7-11.2-35-4.4l10.7-8.3c2-0.3 3.9-0.4 5.5-0.3 11.7 0.9 14.5 12.6 32 2.6 15.8-9 18.1 7.2 39.2-0.3 18.1-6.4 20.9 11 40.5-0.4 10.1-5.8 14.5-1.3 22.7 2.6zm29.4-43.8c-6.1 13.5-14 27.5-23.8 38.2-3.3-1.3-5.8-2.8-8.4-4.1-21.3-10.5-22.9 9.5-40.1 1.6-19.6-8.9-23.2 5.6-40-1.5-18.5-7.9-21.1 4.1-31.3 4.2-7.5 0.1-9.8-4.4-16.6-6l40.7-31.8c6.6-2.9 17.4-6.4 24.4-5.9 11.7 0.9 14.5 12.6 32 2.6 15.8-9 18.1 7.2 39.3-0.3 11.3-4 16.6 1.3 23.8 3zm-103.3-12.1l8-6.2c9.4 2.3 13.1 11.2 29.1 2.1 15.8-9 18.1 7.2 39.2-0.3 15.4-5.5 19.7 6.3 32.6 3q-1.2 3.2-2.5 6.5c-2-0.2-4.2-0.7-6.7-1.9-19.6-8.9-23.2 5.6-40-1.5-18.5-7.9-21.1 4.1-31.3 4.2-10.6 0.1-10.8-9-28.4-5.9zm14.5-11.3l45.4-35.5c10 1.9 13.5 11.6 29.9 2.3 12.9-7.3 16.8 2 29.2 1.7v9.6c0 0-2.2 9.5-6.7 22.6-4.3 2.1-8.7 3.5-15.8 0.3-19.5-9-23.2 5.5-39.9-1.6-18.5-7.8-21.1 4.2-31.3 4.3-5 0-7.6-1.9-10.8-3.7zm52.1-40.7l5.7-4.5c7.1-2.8 22-5.4 28.7-4.9 7.6 0.6 11.4 5.6 18 6.5v4.6c-2.8 0.1-5.9-0.4-9.7-2-18.5-7.9-21.1 4.2-31.3 4.3-5.3 0-7.9-2.2-11.4-4zm18.1-14.2l27.3-21.4 7-0.4v25.5c-9.8-1.2-10.1-11-34.3-3.7z"/><g clip-path="url(#cp1)"><path fill-rule="evenodd" class="o" d="m321.2 413.2l-248.7-43.6 14.6-214.3 258.6 36.8z"/></g><path class="f" d="m146.7 371.9c-46.4 0-83.8-24-108.1-69.4-18.2-34-22.7-67.4-22.9-68.8v-0.5-156.8h288.4v114.8h-7.4v-107.4h-273.7v149.2c0.5 2.9 5.3 34.8 22.2 66.2 23.3 43.4 57.4 65.4 101.5 65.4z"/></g></svg>