<svg version="1.2" xmlns="http://www.w3.org/2000/svg" viewBox="0 0 647 744" width="647" height="744"><style>.a{opacity:1;fill:#10218b}.b{opacity:1;fill:#fff}.c{opacity:1;fill:none;stroke:#fff;stroke-miterlimit:3.864;stroke-width:17}</style><path class="a" d="m0 69.2c0 0 16.1-8.2 44.6-19.1v53.6h4.6c13.3-8.7 29.2-16.7 47.2-23.9v-47.2c14.8-4.4 31-8.8 48.4-12.8v44.1c16.3-4.3 33.7-8.1 51.9-11.2v-43c15.5-2.5 31.6-4.7 48.5-6.3v42.8c16.7-1.6 34.1-2.7 51.8-3.2v-42.8c15.7-0.4 31.9-0.3 48.4 0.5v42.3c17.2 0.5 34 1.5 50.4 3.1v-41.5c15.9 1.9 32.1 4.4 48.5 7.5v40.4c18.4 3.1 36 6.9 52.5 11.2v-39.1q24 6.7 48.4 15.6v39.3c18.9 7.5 35.4 15.8 49.2 25h2.6v-42.5c16.5 7.7 33.1 16.4 49.7 25.9v383.4c0 0-46 272-324.4 272-278.4 0-322.3-288.5-322.3-288.5z"/><path class="b" d="m37 383.3v-9h37.9l6.6 2.3v-5.4h8.6v10.9q0 1.4-0.3 2.1c-0.1 0.5-0.4 0.9-0.8 1.1-0.4 0.2-0.9 0.3-1.6 0.3h-1.2-4.7l-5.9-2.3c0 0-38.6 0-38.6 0z"/><path class="b" d="m90.1 406.3v27.7c0 0.4-0.1 0.8-0.3 1.3q-0.2 0.7-0.9 1.2c-0.5 0.4-0.9 0.7-1.3 0.8-0.4 0.2-0.7 0.3-1.1 0.3h-5v-3.6h-32v-8.9h32v-18.8z"/><path class="b" d="m84.1 470l-3.5-20 8.4-1.5 4 22.4q0.4 2.5-0.3 3.5c-0.4 0.8-0.8 1.5-1.1 1.9-0.3 0.5-0.9 1-1.8 1.6-0.9 0.6-1.8 1-2.6 1.1l-33 5.8-1.7-9.2z"/><path class="b" d="m83.1 511.8l-2.5-8.7 10.1-2.9-1.7-6 8.3-2.4 3.4 12c0 0.4 0 0.8 0 1.2-0.1 0.4-0.2 0.8-0.4 1.1-0.2 0.3-0.6 0.6-1.1 0.8-0.5 0.3-0.8 0.5-1.1 0.5z"/><path class="b" d="m68.6 535l20.5-10.5 4.1 8-20.5 10.5zm39.9 7.8l-11.4-22.3 7.6-3.9 13.7 26.8c0.4 0.8 0.5 1.4 0.5 2 0 0.6-0.1 1-0.3 1.3-0.1 0.3-0.3 0.7-0.6 1.2-0.3 0.5-0.8 0.9-1.5 1.3l-32.3 16.5-4.3-8.4z"/><path class="b" d="m135.8 596.5l-26 24.3-6.1-6.6 26-24.2zm6.5-18.8l20.8 22.2q0.6 0.8 0.8 1.2 0.3 0.5 0.2 1.1-0.1 0.6-0.7 1.2-0.7 0.6-1.1 0.9l-18.3 17.1c-1.3 1.2-2.6 2-4.1 2.3q-2.1 0.5-5.1 0.2c-2-0.2-3.6-0.5-4.9-1.2-1.3-0.6-2.5-1.5-3.7-2.8l-2.7-2.9 6.2-5.8 1.9 2q1.3 1.4 3.5 1.4c1.5 0 2.4-0.1 2.9-0.2q0.6-0.3 1.4-0.9l13.1-12.3-16.4-17.6z"/><path class="b" d="m192 622.5c3.5 2.6 5.7 6.1 6.5 10.3 0.9 4.2 0 8-2.4 11.3l-15.8 20.9-16.8-12.6 5.1-6.9 9.7 7.3 10.3-13.7c1.3-1.7 1.6-3.6 1-5.7-0.6-2.1-1.8-3.8-3.7-5.2l-0.6-0.5c-1.8-1.3-3.7-1.9-5.8-1.8-2 0.1-3.7 1-4.9 2.6l-15.5 20.6-7.2-5.4 16.2-21.6c0.2-0.3 0.6-0.6 1-1 0.4-0.2 0.8-0.6 1.1-0.8 0.4-0.1 0.9-0.4 1.5-0.5q1-0.1 1.6-0.2l-4.6-3.4 5.2-6.9 6.8 5.2c0.5 0.4 0.8 0.7 1 1 0.2 0.3 0.3 0.7 0.4 1.4 0.1 0.6 0 1.1-0.1 1.4q-0.1 0.5-0.5 1.2c2-0.2 3.9 0 5.5 0.4q2.6 0.7 5 2.6z"/><path class="b" d="m234.6 656.1l-5.2-2.5 3.8-7.7 10.8 5.3c0.7 0.3 1.1 0.6 1.3 0.8 0.2 0.2 0.3 0.6 0.3 1q0.1 0.8-0.1 1.3c-0.2 0.4-0.3 0.8-0.6 1.1l-12.5 25.8c-0.5 1-1.1 1.8-2 2.3-0.8 0.7-1.8 1.2-3.1 1.6-1.3 0.5-2.4 0.7-3.4 0.7q-1.3 0.1-3-0.7l-24.5-12 3.7-7.7 6 2.9 10.3-21.1-4.9-2.4 3.7-7.7 10.9 5.3q0.8 0.4 1.2 0.7 0.4 0.3 0.4 1.1c0.1 0.5 0.1 0.9-0.1 1.3-0.1 0.4-0.3 0.9-0.5 1.2l-12.5 25.8 6.6 3.2q0.6 0.3 1.1 0.2 0.5 0 1.7-0.3c0.8-0.2 1.4-0.7 1.9-1.6z"/><path class="b" d="m291.2 671.8l-1.7 32-13.6-0.7 0.4-8.5 4.7 0.2 0.9-16.9 3-6.4-3.8-0.2 0.5-8.6 28 1.5c1.4 0.1 2.4 0.3 3.1 0.8q0.9 0.5 1.8 1.5 0.7 0.9 1.3 2.4c0.3 1 0.5 1.9 0.5 2.7l-1.8 33.5-9-0.5 1.7-32z"/><path class="b" d="m346.7 682.8l-9 0.4-0.5-10.5-6.2 0.3-0.5-8.6 12.5-0.6c0.3 0.1 0.7 0.2 1 0.3 0.5 0.1 0.8 0.3 1.1 0.6 0.2 0.3 0.4 0.7 0.5 1.2 0.2 0.6 0.3 0.9 0.3 1.2z"/><path class="b" d="m377.2 666.3l-19.6 5.3-2.2-8.3 21.9-5.9c1.6-0.4 2.8-0.4 3.6-0.1 0.8 0.4 1.5 0.7 2 1 0.5 0.3 1.1 0.8 1.7 1.7q1 1.2 1.3 2.4l8.7 32.4-9.1 2.5z"/><path class="b" d="m427.9 683.7l-8.8 3.2-11-30.1-5.1 1.9-3-8.1 11.4-4.2c0.7-0.2 1.2-0.3 1.5-0.2 0.3-0.1 0.7 0.1 1.1 0.5 0.5 0.3 0.9 1 1.3 2z"/><path class="b" d="m428.8 638.2l12.1-5.6c0.4-0.2 0.9-0.3 1.4-0.3q0.7-0.1 1.2 0.1c0.3 0.2 0.7 0.4 1.1 0.8 0.5 0.3 0.7 0.7 0.9 1.1l2.1 4.6-1.7 0.8 0.4 7.6 10.6 22.6-8.1 3.8-10.5-22.6-0.5-7.6-5.4 2.5z"/><path class="b" d="m476.2 657.7l-5.1-6.9 2.8-2.1-8.6-7.7q-0.8-0.9-1-1.2c-0.9-1.2-1.5-2.9-1.7-5.1-0.2-2.1 0.4-4.2 1.9-6.2l-11.6-4.1 8.9-6.4 20.1 7.5q1-1.3 1.1-2.7c0.3-1.5 0-2.8-0.7-3.8l-2.6-3.5-3.1 2.3-5-6.9 7.9-5.8c0.3-0.2 0.7-0.4 1.1-0.6q0.6-0.3 1.6 0 0.8 0.3 1.6 1.4l6 8.2c1.2 1.6 2 3.2 2.4 4.7q0.7 2.2 0 5.1c-0.5 1.7-1.2 3.3-2.3 4.6l17.3 6.7-8.9 6.5-25.8-9.9q-0.7 0.8-0.5 1.8 0.1 1.1 0.9 1.9l14.6 13.9z"/><path class="b" d="m541.7 599.4l-17.9-14.5 5.6-6.9 18 14.5zm-9.2-39.6l-15.8 19.4-6.6-5.4 18.9-23.3c0.6-0.7 1.1-1.1 1.6-1.3 0.6-0.3 1-0.4 1.4-0.3 0.3 0 0.8 0 1.3 0.1 0.6 0 1.1 0.3 1.8 0.8l28.2 22.8-5.9 7.3z"/><path class="b" d="m560.3 509.6l4.1 2.2q3.6 1.8 4.7 4c0.8 1.5 1.3 3.3 1.5 5.2 0.2 1.9 0.2 2.9 0.2 3l10-3.1 7.6 4.1-16.7 31.3-7.5-4 10.6-20-23.7 7.3-5.3-2.8-2.3 4.4-7.6-4 5.1-9.6c0.2-0.3 0.5-0.5 0.9-0.8 0.3-0.3 0.6-0.5 1-0.6 0.3 0 0.8 0 1.3 0.2 0.5 0.1 0.9 0.2 1.1 0.4l7 3.7 10.7-3.3v-1.9q-0.1-1.4-0.3-1.9c0-0.5-0.3-1.2-0.8-2q-0.7-1.1-3.1-2.5l-2.7-1.4-2.6 4.8-7.5-4 5.6-10.7q0.3-0.3 0.7-0.8c0.3-0.2 0.6-0.5 0.9-0.5 0.4 0 0.9 0.1 1.5 0.4 0.6 0.3 1 0.4 1.1 0.4z"/><path class="b" d="m567.4 477.8l-1 5.7-8.4-1.4 2.1-11.9c0.1-0.7 0.3-1.2 0.5-1.5 0.1-0.2 0.4-0.5 0.8-0.6 0.5-0.2 1-0.3 1.3-0.2 0.5 0 0.9 0.1 1.3 0.2l28.2 4.9q1.6 0.3 2.8 1.3c0.8 0.6 1.6 1.5 2.3 2.6 0.8 1.1 1.4 2.1 1.7 3q0.4 1.3 0.1 3.1l-4.8 26.9-8.4-1.5 1.1-6.5-23.1-4.1-0.9 5.4-8.5-1.5 2.1-11.9c0.1-0.6 0.3-1 0.4-1.3 0.1-0.4 0.4-0.6 0.9-0.8 0.5-0.2 0.9-0.3 1.3-0.2 0.4 0 0.9 0.1 1.3 0.1l28.2 5 1.3-7.3c0-0.4 0-0.7-0.1-1-0.1-0.4-0.4-0.9-0.8-1.7-0.4-0.7-1-1.1-2-1.3z"/><path class="b" d="m603.5 440.4l-0.5 9.5-32-1.7-0.3 5.4-8.6-0.5 0.7-12c0-0.8 0.1-1.3 0.2-1.5q0.2-0.4 1-0.8 0.7-0.5 2.4-0.4z"/><path class="b" d="m562.6 397.9c0-4.3 1.4-8.2 4.2-11.4 2.9-3.2 6.4-4.8 10.6-4.8h26.2v21.1h-8.6v-12.1h-17.2c-2.1 0-3.8 0.8-5.1 2.6q-1.9 2.6-1.9 6.1v0.8c0 2.2 0.7 4.1 2 5.7q2 2.3 5 2.3h25.8v9.1h-27c-0.4 0-0.8-0.1-1.3-0.2q-0.8-0.2-1.4-0.5c-0.3-0.1-0.7-0.4-1.3-0.9-0.5-0.4-0.8-0.8-1.1-1.1v5.8h-8.5v-8.7c0-0.6 0-1 0.2-1.3q0.1-0.5 0.8-1.1c0.4-0.5 0.8-0.8 1.2-0.9q0.5-0.2 1.3-0.2-2.1-2.3-3-4.7-0.9-2.5-0.9-5.6z"/><path class="b" d="m274.8 514.2v-46.3c-8.1-38.3-31.3-56.1-31.3-95.4v-29.7c0-37.1-48.9-48.4-48.9-85.5 0-24.8 26.2-37.3 39.6-57.2 15.7-23.2 41.1-16.8 65.4-31.3 9.1-5.4 12.9-15.6 23.1-18.8 23.2-7.6 42.6-3.8 60.4-20.5h25.3c5.4 15.1-1.1 27.5 6.5 41.5 12.9 23.7 37.5 37.6 37.5 65.1 0 16.7-20.3 23.8-20.3 40.5v38.6c0 42-31.8 60.5-31.8 102.5 0 10.8-4.4 9-4.4 19.7 0 25.4-16.6 38.5-31.7 57.9-19.9 25.3-42.5 39.4-75.4 39.4-9.7 0-11.4-11.3-14-20.5z"/><path class="c" d="m389 153.6c5-7.2 2.8-14.8 6.7-22.5 3.1-5.6 9.8-2.9 13.4-7.9 4.8-6.7 3.1-13.6 2.3-22.5m-113.1 398.7c-6.4 4.3-20.1 12.2-20.1 21.2 0 9.2 10.1 12 10.1 21.2 0 12.9-15.8 11.5-19 23.8-4.5 17.2 21.2 33.2 17.9 47.7"/></svg>