<svg version="1.2" xmlns="http://www.w3.org/2000/svg" viewBox="0 0 428 466" width="428" height="466"><style>.a{fill:#047962}</style><g style="opacity:1"><path fill-rule="evenodd" class="a" d="m143.5 28.3h143.1v55.6h-143.1z"/><path class="a" d="m215 0c-21.9 0-41.9 8.3-56.6 21.8h113.2c-14.7-13.5-34.6-21.8-56.6-21.8z"/><path class="a" d="m118.5 212.5l16.5-41.5h26.4l-6 28.3c-8.8 3.6-16.9 8.1-24.2 13.2h72.8c4.2-4 8.4-18.2 11-18.2 2.6 0 6.8 14.2 11 18.2h72.9c-7.5-5.3-15.9-9.8-24.9-13.6l-6-27.9h27l16.6 41.5h13.8l-41.5-103.1 4.8-16h-147.3l4.8 16-41.5 103.1c0 0 13.8 0 13.8 0zm152.5-101.8l19.7 49.4h-24.9l-10.5-49.4zm-48.5 0h20.1l10.5 49.4h-30.6zm0 60.3h32.9l4.8 23.1c-11.8-3.5-24.5-5.7-37.7-6.3 0 0 0-16.8 0-16.8zm-15.5 16.8c-13.3 0.7-26 2.9-37.8 6.6l4.9-23.4h32.9zm-20.1-77.1h20.1v49.5h-30.6zm-27.7 0h15l-10.5 49.5h-24.2z"/><path class="a" d="m253.5 222.6c3 4.4 3.7 8.9 0.9 10.7h81.4v-10.7z"/><path class="a" d="m176.5 222.6h-82.2v10.7h81.3c-2.8-1.8-2.1-6.3 0.9-10.7z"/><path class="a" d="m403.7 373.9l-18.1 2.5c-1.2-3.5-4-11.5-6.8-16.3-3.7-6.3-13.3-12-13.3-12v-6l-29.6-21.3v-81.2h-96.2c1.9 8.3 5.2 23.3 5.2 33.8 0 19.2-23.9 25.4-23.9 25.4v36.6l15.3-9.6c0 0-6.5-20.5 7.7-29.4 10.4-6.5 29.5-12.3 32.2-13.5 2.6-1.1-5-6.3-6.6-10.5-1.6-4.1 3.2-6.3 9.2-5.7 6 0.6 14.7 11.6 17.5 14.7 2.7 3.2 18.7-1.7 20 0.5 1.4 2.3-9.9 14.5-8.3 18.3 1.7 3.9 7.8 16.5 5.7 22.2-2.1 5.6-6.2 9-9.3 5.7-3-3.2-4.4-12.3-6.5-10.5-2.2 1.9-15.9 16.6-26.2 23-14.2 8.9-29.9-5.9-29.9-5.9l-20.8 13v4.3c0 0-0.3 2.8 2.2 3 2.5 0.3 5.5-1.2 5.5-1.2 0 0-7.2 12.9-7.2 15.7 0 2.7 0 9 0 9h4.5c0 0 3 30.4-11 30.4-14 0-11-30.4-11-30.4h4.5c0 0 0-6.3 0-9 0-2.8-7.2-15.7-7.2-15.7 0 0 3 1.5 5.5 1.2 2.5-0.2 2.2-3 2.2-3v-3.9l-21.3-13.4c0 0-15.7 14.8-29.9 5.9-10.4-6.4-24-21.1-26.2-23-2.1-1.9-3.5 7.3-6.5 10.5-3.1 3.3-7.2-0.1-9.3-5.7-2.1-5.7 4-18.3 5.7-22.2 1.6-3.8-9.7-16-8.4-18.3 1.4-2.2 17.4 2.7 20.1-0.5 2.8-3.1 11.4-14.1 17.5-14.7 6-0.6 10.8 1.6 9.2 5.7-1.6 4.2-9.2 9.4-6.6 10.5 2.6 1.2 21.8 7 32.2 13.5 14.2 8.9 7.7 29.4 7.7 29.4l15.8 9.9v-36.9c0 0-24-6.2-24-25.4 0-10.5 3.4-25.5 5.3-33.8h-96.1v81.2l-29.6 21.3v6c0 0-9.6 5.7-13.3 12-2.9 5-5.8 13.4-6.9 16.6l-20.4-2.8-24 51h1.6c0.3 0 33.3-0.7 42.4-0.3 4.7 0.3 7.9 1.2 10.7 2.1 2.5 0.7 4.8 1.4 7.8 1.4 4.8 0 10.7 0 10.7-5.7 0-1.2-0.3-2.4-0.7-3.5 16.5 12.1 71.5 47.2 141.3 47.2 69.8 0 124.8-35.1 141.3-47.2-0.4 1.1-0.7 2.3-0.7 3.5 0 5.7 5.9 5.7 10.7 5.7 3 0 5.4-0.7 7.9-1.4 2.7-0.9 5.9-1.8 10.7-2.1 9-0.4 42 0.3 42.3 0.3h1.6zm-341.2 52.3c-2.6 0-4.7-0.6-7.2-1.4-2.9-0.9-6.2-1.8-11.2-2.1-8-0.4-34.1 0.1-40.9 0.2l22-46.8 19.8 2.7v-0.4l12.7 4.5-24 18.8c-0.5 0.4-0.6 1.3-0.6 2.7 0 5.6 13.6 12.2 20.9 12.2 4.9 0 10.5-0.6 13.9-1 1.1 1.2 3.4 4 3.4 6.8 0 2.9-2 3.8-8.8 3.8zm151.4 37.9c-75.6 0-133.5-41.5-143.7-49.3-1.5-1.4-6.9-5.6-16.1-8.2-5.8-1.7-12.1-4-15.7-5l41.2-32-0.4-0.5 0.5-0.3c0 0 64.2 47.2 135.4 47.2 64.2 0 122.7-38.4 133.6-45.9l40.6 31.5c-3.5 1-9.8 3.3-15.6 5-9.2 2.6-14.6 6.8-16.2 8.2-10.2 7.8-68.1 49.3-143.6 49.3zm169.7-41.4c-5 0.3-8.3 1.2-11.2 2.1-2.4 0.8-4.5 1.4-7.2 1.4-6.8 0-8.7-0.9-8.7-3.8 0-2.8 2.3-5.6 3.4-6.8 3.3 0.4 9 1 13.8 1 7.4 0 21-6.6 21-12.2 0-1.4-0.2-2.3-0.6-2.7l-23-18 13.9-5.2 17.5-2.4 22 46.8c-6.8-0.1-32.9-0.6-40.9-0.2z"/><path class="a" d="m108.6 391.5l-20.4 30.8-6.6-4.3 20.4-30.9z"/><path class="a" d="m121.6 399l-13 23.3-6.9-3.8 13-23.4z"/><path class="a" d="m137.5 435.6l-7.1-3 5.2-12.1q1.7-3.9 0.3-6.5-1.4-2.6-6-4.6-2.4-1-6.5-2.2l1.7-5.4q3.9 0.8 8.7 2.8 7.1 3.1 9.5 7.4 2.4 4.3-0.2 10.3z"/><path class="a" d="m157.5 432.2q0.1 2.1 1.9 4 1.9 1.9 4.6 2.5 4.5 1.1 7.9-1.2 3.4-2.3 4.8-8.4l3.1-9.3 7.3 1.8-3.3 9.7q-2.1 6.2-4.5 8.8-2.3 2.6-6.5 3.9-4.2 1.3-10-0.1-7.4-1.8-10.7-7.3-3.3-5.5-1.1-14.5l1.8-8.9 7.4 1.8-1.6 6.9q-0.4 1.4-0.8 4-0.2 1.2-0.3 1.6 1.8 0.5 3.4 0 1.6-0.5 2.4-1.8 0.9-1.3 1.7-4.6l1.4-4.6 7.2 1.8-1.9 6.3q-0.8 2.5-1.5 3.8-0.7 1.3-2.2 2.4-1.4 1.2-4 1.6-2.6 0.4-6.5-0.2z"/><path class="a" d="m199.6 435.2l-0.6 13.8-7.7-0.3 0.7-13.9zm18.7 14.8l-7.7-0.4 0.6-12.6q0.2-4.9-2.3-6.9-2.5-2-7.8-2.2-4-0.2-8.7 0.2l-0.3-5.7q4.5-0.5 10.6-0.2 6.6 0.3 10.1 2.2 3.5 1.9 4.9 4.6 1.4 2.7 1.2 7.4z"/><path class="a" d="m244.7 442.7q1.7 0.1 3-0.2 1.6-0.4 1.9-1.2 0.4-0.8-0.1-2.8l-2.8-12.5q-1.9 0.4-5.6 1.7l-1.8-5.2q6.7-2.4 14.1-4.1 6.3-1.4 10.2-1.2 3.8 0.2 6.3 2.5 2.4 2.2 3.6 7.1l3.1 14.1-7.5 1.7-2.8-12.8q-1.2-5-3.3-6.1-2.1-1.2-8.9 0.3l3 13.1q0.7 3.3 0.5 4.9-0.2 1.5-1.7 2.8-1.5 1.3-4.7 2-3.4 0.8-6.7 0.6z"/><path class="a" d="m285.6 415.3q1.6-7.2 7.3-9.6 4.7-2 9 0.3 4.2 2.3 7.5 10.1l4.3 10.2-13.6 5.7-2.4-5.6 6.6-2.7-2.1-5q-2.1-4.8-3.8-6.4-1.7-1.6-3.9-0.7-2.3 1-2.8 4-0.5 2.9 0.9 9.8l1.9 9-7.5 3.1-1-5.9q-0.9-5.2-1-7.8l-9.6-10.4 6.4-2.7z"/><path class="a" d="m341.8 409.7l-6.5 4-6.8-11.2q-2.3-3.6-5.2-4-2.9-0.4-7.2 2.3-2.2 1.3-5.6 3.9l-3.4-4.4q2.9-2.8 7.3-5.5 6.7-4 11.6-3.5 4.9 0.5 8.3 6.1z"/></g></svg>