<svg version="1.2" xmlns="http://www.w3.org/2000/svg" viewBox="0 0 69 100" width="69" height="100"><style>.a{opacity:1;fill:#0078be;stroke:#0078be;stroke-width:.7}.b{opacity:1;fill:#0078be}</style><path class="a" d="m41.5 39.3h12.5m-15.5 10.1h15.5m-40 10.5h40m-40 11.7h40m-24.4 10.4h8.9m-4.4-10.3v10.3m18-10.6v-11.5m-35.5 11.5v-11.7m6.3 0.3v-9.8m21.9-0.8v-10.1m7.3-13.9v-3.3m-7.2 7.9v-4.6m-28.5 0v-3.2m12.3 3.2v-3.1m12.6 3.1v-3.1m-19.9 3.1v4.6m-4.2 9.3v7.7m-3.2-7.7h10.5m-10.5-9.3h16.3m7.9-4.6h15.8m-40 0h20.2m6.8 4.5h13.6"/><path class="b" d="m46.4 84.9c1.3-0.7 2.6-1.1 3.2-1.2l0.6-0.1c0 0 3.2-0.1 4.2-0.2 1.1 0 2.2-0.1 2.5-0.3l-0.5 0.4c-0.5 0.2-0.7 0.3-1.7 0.4-1.3 0.1-2.6 0-4.5 0.2-0.7 0-1.2 0.1-2.5 0.4-1.6 0.5-3.7 1.9-5 2.6 0 0 2.1-0.8 2.9-0.7v0.3c0 0-1.8-0.3-3.5 0.9l-4.4 2.5-0.1-0.1 4.2-2.6c1.8-1 1.4-2.2 1.4-2.2h0.6c0.1 0.6-1.2 1.8-1.2 1.8 1.1-0.8 3.4-2 4.3-2.9 0.6-0.9 0.6-1.1 0.7-1.6 0.3-1.2 0.3-1.9 0.5-2.7 0.1-0.6 0.3-0.7 0.7-1l0.5-0.2c-0.3 0.1-0.7 0.7-0.8 1.3-0.1 0.6-0.4 2.6-0.4 2.6l-0.1 0.5c-0.3 0.4-0.6 1-1.8 1.8zm-30.3-9.5c-0.1 0.6 1.3 1.3 1.3 1.3l3.3 2c0.3 0.2 0.8 0.5 0.9 1.1 0.1 0.6 0.5 3 0.5 3 0 0 0 1 1.2 1.8-0.4-0.4-0.5-1.1-0.7-1.7-0.2-1.1-0.3-2.5-0.4-3.2-0.2-0.7-0.4-0.8-0.8-1.1z"/><path class="b" d="m22.3 84.9c-1.3-0.7-2.4-0.9-3-1l-0.8-0.1c0 0-3.2-0.2-4.2-0.2-1-0.1-2-0.2-2.3-0.4l0.4 0.3c0.4 0.2 0.6 0.3 1.7 0.4 1.3 0.1 2.5 0 4.4 0.2 0.8 0 1.2 0.1 2.6 0.4 1.5 0.5 3.6 1.9 4.9 2.6 0 0-2-0.8-2.9-0.7v0.4c0 0 1.9-0.4 3.5 0.8l4.4 2.5 0.2-0.1-4.3-2.6c-1.8-1-1.4-2.1-1.4-2.1h-0.5c-0.2 0.5 1.2 1.7 1.2 1.7-1.2-0.8-3.5-2-4.3-2.9-0.7-0.8-0.7-1.1-0.8-1.6-0.3-1.2-0.3-1.9-0.4-2.7-0.2-0.6-0.3-0.7-0.7-1l-0.5-0.2c0.3 0.1 0.6 0.7 0.7 1.4 0 0.6 0.4 2.5 0.4 2.5l0.2 0.5c0.2 0.4 0.6 1 1.7 1.8zm-7.7 0.7c1 0 2.1 0.8 2.1 0.8l3.2 1.9c0.3 0.2 0.8 0.5 1.8 0.5 0.9 0.1 4.8 0.3 4.8 0.3 0 0 0.8-0.1 2 0.5-0.7-0.1-0.9-0.1-1.9-0.2-1.8-0.2-3.9-0.2-5.2-0.3-1 0-1.2-0.2-1.6-0.4zm9-5.6c0 0.6 1.3 1.2 1.3 1.2l3.1 1.9c0.3 0.2 0.8 0.5 0.9 1.1 0 0.6 0.4 3 0.4 3 0 0 0 0.9 1.2 1.6-0.4-0.3-0.5-1-0.7-1.6-0.2-1.1-0.3-2.4-0.4-3.1-0.2-0.6-0.4-0.7-0.7-1z"/><path class="b" d="m33.1 90.7c-1.2-0.6-2.9-1.2-3.7-2.1-0.7-0.9-0.7-1.1-0.8-1.6-0.3-1.1-0.3-1.9-0.4-2.7-0.2-0.6-0.4-0.7-0.8-1l-0.4-0.2c0.3 0.2 0.6 0.8 0.6 1.4 0.1 0.6 0.5 2.5 0.5 2.5l0.2 0.5c0.2 0.3 0.6 1 1.7 1.8l-0.2 0.2c-1.3-0.8-2.4-1-3-1.1l-0.8-0.1c0 0-3.2-0.2-4.1-0.3-1.1 0-2.1-0.2-2.4-0.3l0.4 0.2c0.5 0.3 0.7 0.4 1.7 0.5 1.3 0.1 2.5 0 4.4 0.2 0.8 0.1 0.7-0.1 2 0.3 1.5 0.5 2.3 1.3 3.5 2.3zm-30.1-66.7c0.5 0.6 0.4 1.9 0.4 1.9v3.8c0 0.3 0 0.9 0.5 1.5 0.5 0.6 2.5 3.1 2.5 3.1 0 0 0.8 0.8 0.9 2.3-0.2-0.6-0.7-1.3-1.2-2-0.9-1.2-2-2.4-2.6-3.2-0.5-0.7-0.5-0.9-0.5-1.4 0 0 0-6 0-6zm10 0c-0.6 0.6-0.5 2-0.5 2v3.9c0.1 0.4 0 0.9-0.4 1.6-0.6 0.6-2.5 3.2-2.5 3.2 0 0-0.9 0.9-0.9 2.4 0.1-0.7 0.6-1.3 1.1-2 0.9-1.3 2-2.6 2.6-3.4 0.5-0.7 0.5-1 0.6-1.5z"/><path class="b" d="m8 46.9l0.1-5c0-2 1.2-2.8 1.2-2.8l-0.3-0.3c-0.6 0.4-0.9 2.3-0.9 2.3 0-1.4-0.1-3.9 0.3-5.2 0.4-1.2 0.6-1.5 0.9-2 1-1.2 1.7-1.9 2.3-2.8 0.4-0.7 0.4-0.9 0.5-1.4l-0.1-0.5c0.1 0.4-0.3 1.1-0.8 1.7-0.6 0.7-2.1 2.7-2.1 2.7l-0.3 0.6c-0.2 0.5-0.6 1.3-0.7 2.8 0 0-0.1-3.1 0.4-4.8 1.1-4.5-0.4-10.1-0.5-10.4v1.9c0.2 1.7 0.8 5 0 9.4-0.9-4.4-0.2-7.7 0-9.4v-1.9c0 0-1.7 5.8-0.5 10.4 0.4 1.7 0.3 4.8 0.3 4.8 0-1.5-0.4-2.3-0.6-2.8l-0.4-0.6c0 0-1.5-2-2-2.7-0.5-0.6-0.9-1.3-0.9-1.7l-0.1 0.5c0.1 0.5 0.1 0.7 0.6 1.4 0.6 0.9 1.3 1.6 2.2 2.8 0.3 0.5 0.6 0.8 0.9 2 0.4 1.3 0.3 3.8 0.4 5.2 0 0-0.4-1.9-1-2.3l-0.3 0.3c0 0 1.3 0.8 1.2 2.8l0.1 5zm-5.1-14.1c0.6 0.6 0.5 1.9 0.5 1.9v3.8c0 0.3 0 0.9 0.5 1.5 0.5 0.6 2.4 3.1 2.4 3.1 0 0 0.9 0.8 0.9 2.3-0.1-0.6-0.6-1.3-1.1-2-0.9-1.2-2-2.4-2.6-3.2-0.5-0.7-0.5-0.9-0.6-1.4 0 0 0-6 0-6zm10.1 0c-0.6 0.6-0.5 2-0.5 2v3.9c0 0.4 0 0.9-0.5 1.6-0.5 0.6-2.5 3.2-2.5 3.2 0 0-0.8 0.9-0.9 2.4 0.2-0.7 0.7-1.3 1.2-2 0.9-1.3 2-2.6 2.6-3.4 0.5-0.7 0.5-0.9 0.6-1.5z"/><path class="b" d="m7.8 45.6c0-1.4-0.4-2.3-0.7-2.8l-0.3-0.6c0 0-1.5-2-2-2.7-0.5-0.6-0.9-1.4-0.9-1.7l-0.1 0.5c0.1 0.5 0.1 0.7 0.6 1.4 0.6 0.9 1.3 1.6 2.2 2.9 0.3 0.5 0.5 0.7 0.9 1.9 0.4 1.4 0.3 4 0.4 5.4 0 0-0.4-2-1-2.4l-0.3 0.3c0 0 1.3 0.8 1.2 2.9l0.1 5h0.1l0.1-5c0-2.1 1.2-2.9 1.2-2.9l-0.3-0.3c-0.6 0.4-0.9 2.4-0.9 2.4 0-1.5-0.1-4 0.3-5.4 0.4-1.2 0.6-1.4 1-1.9 0.9-1.3 1.6-2 2.2-2.9 0.5-0.7 0.5-0.9 0.5-1.4v-0.5c0 0.3-0.4 1.1-1 1.7q-0.2 0.4-0.5 0.7-0.2 0.3-0.5 0.7-0.2 0.3-0.5 0.7-0.2 0.3-0.5 0.6l-0.3 0.6c-0.2 0.5-0.6 1.4-0.7 2.8zm-4.9-4c0.6 0.6 0.4 1.9 0.4 1.9v3.8c0 0.3 0 0.9 0.6 1.5 0.5 0.6 2.4 3.1 2.4 3.1 0 0 0.9 0.8 0.9 2.3-0.1-0.6-0.7-1.3-1.1-2-0.9-1.2-2.1-2.4-2.7-3.2-0.4-0.7-0.4-0.9-0.5-1.4 0 0 0-6 0-6zm10 0c-0.5 0.6-0.4 2-0.4 2v3.9c0 0.4 0 1-0.5 1.6-0.5 0.6-2.5 3.2-2.5 3.2 0 0-0.9 0.9-0.9 2.4 0.1-0.7 0.7-1.3 1.2-2 0.8-1.3 2-2.6 2.6-3.4 0.5-0.7 0.5-0.9 0.5-1.4z"/><path class="b" d="m7.8 54.4c0-1.4-0.4-2.3-0.7-2.8l-0.3-0.6c0 0-1.5-2-2-2.6-0.5-0.7-0.9-1.4-0.9-1.8l-0.1 0.5c0.1 0.5 0.1 0.8 0.6 1.4 0.6 0.9 1.3 1.6 2.2 2.9 0.3 0.5 0.5 0.8 0.9 1.9 0.4 1.4 0.3 4 0.4 5.4 0 0-0.4-2-1-2.4l-0.3 0.3c0 0 1.3 0.8 1.2 2.9l0.1 5h0.1l0.1-5c0-2.1 1.2-2.9 1.2-2.9l-0.3-0.3c-0.6 0.4-0.9 2.4-0.9 2.4 0-1.5-0.1-4 0.3-5.4 0.4-1.1 0.6-1.4 1-1.9 0.9-1.3 1.6-2 2.2-2.9 0.5-0.6 0.5-0.9 0.5-1.4v-0.5c0 0.4-0.4 1.1-1 1.8-0.5 0.6-2 2.6-2 2.6l-0.3 0.6c-0.2 0.5-0.6 1.4-0.7 2.8zm-4.9-4c0.6 0.6 0.4 1.9 0.4 1.9v3.8c0 0.3 0 0.9 0.6 1.5 0.5 0.6 2.4 3.1 2.4 3.1 0 0 0.9 0.8 0.9 2.3-0.1-0.6-0.7-1.3-1.1-2-0.9-1.2-2.1-2.4-2.7-3.2-0.4-0.7-0.4-0.9-0.5-1.4 0 0 0-6 0-6zm10 0c-0.5 0.6-0.4 2-0.4 2v3.9c0 0.4 0 1-0.5 1.6-0.5 0.6-2.5 3.2-2.5 3.2 0 0-0.9 0.9-0.9 2.4 0.1-0.7 0.7-1.3 1.2-2 0.8-1.3 2-2.6 2.6-3.4 0.5-0.7 0.5-0.9 0.5-1.4z"/><path class="b" d="m7.8 63.2c0-1.4-0.4-2.3-0.7-2.8l-0.3-0.6c0 0-1.5-2-2-2.6-0.5-0.7-0.9-1.4-0.9-1.8l-0.1 0.5c0.1 0.5 0.1 0.8 0.6 1.4 0.6 0.9 1.3 1.6 2.2 2.9 0.3 0.5 0.5 0.8 0.9 1.9 0.4 1.4 0.3 4 0.4 5.4 0 0-0.4-2-1-2.4l-0.3 0.3c0 0 1.3 0.8 1.2 2.9l0.1 4.6h0.1l0.1-4.6c0-2.1 1.2-2.9 1.2-2.9l-0.3-0.3c-0.6 0.4-0.9 2.4-0.9 2.4 0-1.4-0.1-4 0.3-5.4 0.4-1.1 0.6-1.4 1-1.9 0.9-1.3 1.6-2 2.2-2.9 0.5-0.6 0.5-0.9 0.5-1.4v-0.5c0 0.4-0.4 1.1-1 1.8-0.5 0.6-2 2.6-2 2.6l-0.3 0.6c-0.2 0.5-0.6 1.4-0.7 2.8zm-4.9-4c0.6 0.6 0.4 2 0.4 2v3.7c0 0.4 0 0.9 0.6 1.5 0.5 0.6 2.4 3.1 2.4 3.1 0 0 0.9 0.8 0.9 2.3-0.1-0.6-0.7-1.3-1.1-1.9-0.9-1.3-2.1-2.5-2.7-3.3-0.4-0.7-0.4-0.9-0.5-1.4 0 0 0-6 0-6zm10 0c-0.5 0.7-0.4 2-0.4 2v3.9c0 0.4 0 1-0.5 1.6-0.5 0.6-2.5 3.2-2.5 3.2 0 0-0.9 0.9-0.9 2.4 0.1-0.6 0.7-1.3 1.2-2 0.8-1.3 2-2.6 2.6-3.4 0.5-0.7 0.5-0.9 0.5-1.4z"/><path class="b" d="m7.8 72c0-1.4-0.4-2.3-0.6-2.8l-0.3-0.6c0 0-1.6-2-2.1-2.6-0.5-0.7-0.9-1.4-0.9-1.8l-0.1 0.5c0.1 0.5 0.1 0.8 0.6 1.4 0.6 0.9 1.3 1.6 2.2 2.9 0.3 0.5 0.6 0.7 0.9 1.9 0.4 1.3-0.6 2.2 2.7 5.6 0 0-1.8-1.6-2.7-1.8v0.4c0 0 1.8 0.8 3.3 2.2 0 0 0.6 0.5 0.9 0.7 1 0.8 3.2 2.3 3.2 2.3v-0.1c0 0-1.9-1.4-3-2.4l-0.5-0.5c-1.4-1.4-0.7-3.2-0.7-3.2h-0.4c-0.4 0.7 0.1 2.3 0.1 2.3-2.5-2.7-2.4-4.2-2-5.5 0.4-1.2 0.6-1.4 1-1.9 0.9-1.3 1.6-2 2.2-2.9 0.5-0.6 0.5-0.9 0.5-1.4v-0.5c0 0.4-0.4 1.1-0.9 1.8-0.5 0.6-2.1 2.6-2.1 2.6l-0.3 0.6c-0.2 0.5-0.6 1.3-0.7 2.8 0 0-0.3 0-0.3 0zm58-48c-0.6 0.6-0.4 2-0.4 2v3.9c0 0.4 0 0.9-0.5 1.6-0.5 0.6-2.5 3.2-2.5 3.2 0 0-0.9 0.9-0.9 2.4 0.1-0.7 0.7-1.3 1.2-2 0.8-1.3 2-2.6 2.6-3.4 0.4-0.7 0.5-1 0.5-1.5 0 0 0-6.2 0-6.2zm-10 0c0.6 0.6 0.4 1.9 0.4 1.9v3.8c0 0.3 0 0.9 0.6 1.5 0.5 0.6 2.4 3.1 2.4 3.1 0 0 0.9 0.8 0.9 2.3-0.1-0.6-0.7-1.3-1.1-2-0.9-1.2-2.1-2.4-2.7-3.3-0.4-0.6-0.4-0.8-0.5-1.3z"/><path class="b" d="m60.8 46.9l-0.2-5c0.1-2-1.1-2.8-1.1-2.8l0.3-0.3c0.6 0.4 0.9 2.3 0.9 2.3-0.1-1.4 0.1-3.9-0.3-5.2-0.4-1.2-0.6-1.5-1-2-0.9-1.2-1.6-1.9-2.2-2.8-0.5-0.7-0.5-0.9-0.5-1.4v-0.5c0 0.4 0.4 1.1 0.9 1.7 0.5 0.7 2.1 2.7 2.1 2.7l0.3 0.6c0.2 0.5 0.6 1.3 0.7 2.8 0 0 0.1-3.1-0.4-4.8-1.1-4.5 0.4-10.1 0.5-10.4v1.9c-0.2 1.7-0.9 5 0 9.4 0.9-4.4 0.2-7.7 0-9.4v-1.9c0 0 1.7 5.8 0.5 10.4-0.4 1.7-0.4 4.8-0.4 4.8 0.1-1.5 0.5-2.3 0.7-2.8l0.3-0.6c0 0 1.6-2 2.1-2.7 0.5-0.6 0.9-1.3 0.9-1.7v0.5c0 0.5 0 0.7-0.5 1.4-0.6 0.9-1.3 1.6-2.2 2.8-0.3 0.5-0.6 0.8-1 2-0.3 1.3-0.2 3.8-0.3 5.2 0 0 0.4-1.9 0.9-2.3l0.3 0.3c0 0-1.2 0.8-1.1 2.8l-0.1 5zm5-14.1c-0.5 0.6-0.4 2-0.4 2v3.9c0 0.4 0 1-0.5 1.6-0.5 0.6-2.5 3.2-2.5 3.2 0 0-0.8 0.9-0.9 2.4 0.2-0.6 0.7-1.3 1.2-2 0.8-1.3 2-2.6 2.6-3.4 0.5-0.7 0.5-0.9 0.5-1.4 0 0 0-6.3 0-6.3zm-10 0c0.6 0.6 0.5 1.9 0.5 1.9v3.8c0 0.3 0 0.9 0.5 1.5 0.5 0.6 2.4 3.1 2.4 3.1 0 0 0.9 0.8 0.9 2.3-0.1-0.6-0.7-1.3-1.1-2-0.9-1.2-2-2.4-2.6-3.2-0.5-0.7-0.5-0.9-0.6-1.4z"/><path class="b" d="m60.9 45.6c0.1-1.4 0.5-2.3 0.7-2.8l0.3-0.6c0 0 1.6-2 2.1-2.7 0.5-0.6 0.9-1.4 0.9-1.7l0.1 0.5c-0.1 0.5-0.1 0.7-0.6 1.4-0.6 0.9-1.3 1.6-2.2 2.9-0.3 0.5-0.6 0.7-1 1.9-0.3 1.4-0.2 3.9-0.3 5.4 0 0 0.4-2 0.9-2.4l0.3 0.3c0 0-1.2 0.8-1.1 2.9l-0.1 5h-0.1l-0.2-5c0.1-2.1-1.1-2.9-1.1-2.9l0.3-0.3c0.6 0.4 0.9 2.4 0.9 2.4-0.1-1.5 0.1-4-0.3-5.4-0.4-1.2-0.6-1.4-1-1.9-0.9-1.3-1.6-2-2.2-2.9-0.5-0.7-0.5-0.9-0.5-1.4v-0.5c0 0.3 0.4 1.1 0.9 1.7 0.6 0.7 2.1 2.7 2.1 2.7l0.3 0.6c0.2 0.5 0.6 1.3 0.7 2.8zm4.9-4c-0.6 0.6-0.5 2-0.5 2v3.9c0.1 0.4 0 1-0.5 1.6-0.5 0.6-2.4 3.2-2.4 3.2 0 0-0.9 0.9-0.9 2.4 0.1-0.6 0.6-1.3 1.1-2 0.9-1.3 2-2.6 2.6-3.4 0.5-0.7 0.5-0.9 0.6-1.4 0 0 0-6.3 0-6.3zm-10 0c0.5 0.6 0.4 1.9 0.4 1.9v3.8c0 0.3 0 0.9 0.5 1.5 0.5 0.6 2.5 3.1 2.5 3.1 0 0 0.8 0.8 0.9 2.3-0.2-0.6-0.7-1.3-1.2-2-0.9-1.2-2-2.4-2.6-3.2-0.5-0.7-0.5-0.9-0.5-1.4z"/><path class="b" d="m60.9 54.4c0.1-1.4 0.5-2.3 0.7-2.8l0.3-0.6c0 0 1.6-2 2.1-2.7 0.5-0.6 0.9-1.4 0.9-1.7l0.1 0.5c-0.1 0.5-0.1 0.7-0.6 1.4-0.6 0.9-1.3 1.6-2.2 2.9-0.3 0.5-0.6 0.7-1 1.9-0.3 1.4-0.2 4-0.3 5.4 0 0 0.4-2 0.9-2.4l0.3 0.3c0 0-1.2 0.8-1.1 2.9l-0.1 5h-0.1l-0.2-5c0.1-2.1-1.1-2.9-1.1-2.9l0.3-0.3c0.6 0.4 0.9 2.4 0.9 2.4-0.1-1.5 0.1-4-0.3-5.4-0.4-1.2-0.6-1.4-1-1.9-0.9-1.3-1.6-2-2.2-2.9-0.5-0.7-0.5-0.9-0.5-1.4v-0.5c0 0.3 0.4 1.1 0.9 1.7 0.6 0.7 2.1 2.7 2.1 2.7l0.3 0.6c0.2 0.5 0.6 1.4 0.7 2.8zm4.9-4c-0.6 0.6-0.5 2-0.5 2v3.9c0.1 0.4 0 1-0.5 1.6-0.5 0.6-2.4 3.2-2.4 3.2 0 0-0.9 0.9-0.9 2.4 0.1-0.6 0.6-1.3 1.1-2 0.9-1.3 2-2.6 2.6-3.4 0.5-0.7 0.5-0.9 0.6-1.4 0 0 0-6.3 0-6.3zm-10 0c0.5 0.6 0.4 1.9 0.4 1.9v3.8c0 0.3 0 0.9 0.5 1.5 0.5 0.6 2.5 3.1 2.5 3.1 0 0 0.8 0.8 0.9 2.3-0.2-0.6-0.7-1.3-1.2-2-0.9-1.2-2-2.4-2.6-3.2-0.5-0.7-0.5-0.9-0.5-1.4z"/><path class="b" d="m60.9 63.2c0.1-1.4 0.5-2.3 0.7-2.8l0.3-0.6c0 0 1.6-2 2.1-2.7 0.5-0.6 0.9-1.4 0.9-1.7l0.1 0.5c-0.1 0.5-0.1 0.7-0.6 1.4-0.6 0.9-1.3 1.6-2.2 2.9-0.3 0.5-0.6 0.8-1 1.9-0.3 1.4-0.2 4-0.3 5.4 0 0 0.4-2 0.9-2.4l0.3 0.3c0 0-1.2 0.8-1.1 2.9l-0.1 4.7h-0.1l-0.2-4.7c0.1-2.1-1.1-2.9-1.1-2.9l0.3-0.3c0.6 0.4 0.9 2.4 0.9 2.4-0.1-1.5 0.1-4-0.3-5.4-0.4-1.1-0.6-1.4-1-1.9-0.9-1.3-1.6-2-2.2-2.9-0.5-0.7-0.5-0.9-0.5-1.4v-0.5c0 0.3 0.4 1.1 0.9 1.7 0.6 0.7 2.1 2.7 2.1 2.7l0.3 0.6c0.2 0.5 0.6 1.4 0.7 2.8zm-56.7 14.1c-1.3-1.6-1.3-5.7-1.3-5.7 0.8 0.6 0.6 1.2 0.7 1.9 0.2 1.4 0.4 2.4 1.1 3.4 0.5 0.8 1.3 1.2 2.3 1.4 1 0.2 4.9 1.4 4.9 1.4 0 0 1.5 0.2 2.7 1.2-0.6-0.3-1.6-0.6-2.7-0.9-1.9-0.5-4-0.9-5.2-1.3-1-0.2-1.8-0.6-2.5-1.4zm8.2 7c0 0-1.6-0.9-2.5-1.4-1.3-0.8-3.1-2.2-3.1-2.2 0.9 0.2 1.9 1 1.9 1 0 0 0.9 0.6 1.5 0.9q0.2 0.2 0.5 0.4 0.3 0.2 0.6 0.3 0.3 0.2 0.6 0.4 0.3 0.1 0.6 0.3c0.2 0.2 0.8 0.4 1.8 0.4 1 0 5 0.3 5 0.3 0 0 1.6-0.1 2.9 0.7-0.6-0.3-1.7-0.3-2.8-0.4-1.9-0.2-4.1-0.2-5.3-0.3-1.1 0-1.2-0.2-1.7-0.4z"/><path class="b" d="m13.7 78c-0.3-1.2-0.1-1.4-0.1-2.1-0.1-0.7-0.2-1.4-0.7-1.8l-0.4-0.7 0.1 0.7c0.2 0.4 0.5 0.6 0.5 1.9 0 0.6 0.1 1.9 0.1 1.9l0.2 0.5c0.2 0.4 0.3 1 1.5 1.8h-0.1c-1.2-1-2-1.2-2.6-1.5l-0.7-0.2c0 0-3-0.9-4-1.1-1-0.3-1.9-0.7-2.5-1.5l0.4 0.7 0.2 0.2c0.4 0.4 0.6 0.5 1.6 0.8 1.2 0.4 2.4 0.6 4.2 1.2 0.7 0.2 1.2 0.3 2.4 1 1.3 0.7 3.5 2.1 4.7 2.8 0 0-2-0.9-2.9-0.7l0.1 0.3c0 0 1.8-0.3 3.4 0.8l4.4 2.6 0.1-0.1-4.2-2.7c-1.8-1-1.3-2.1-1.3-2.1h-0.6c-0.2 0.5 1.2 1.8 1.2 1.8-1.1-0.8-3.4-2.1-4.2-3-0.7-0.8-0.7-1.1-0.8-1.5zm-1.3 6.3c0 0-1.6-0.9-2.5-1.4-1.3-0.8-3-2.2-3-2.2 0.9 0.2 1.8 1 1.8 1 0 0 0.9 0.6 1.5 0.9q0.3 0.2 0.6 0.4 0.3 0.2 0.6 0.3 0.2 0.2 0.5 0.4 0.3 0.1 0.6 0.3c0.3 0.2 0.8 0.4 1.8 0.4 1.1 0 5.1 0.3 5.1 0.3 0 0 1.5-0.1 2.9 0.7-0.7-0.3-1.8-0.3-2.8-0.4-1.9-0.2-4.1-0.2-5.4-0.3-1 0-1.2-0.2-1.7-0.4z"/><path class="b" d="m14.4 75c-0.1-0.6-0.2-0.9-0.4-1-1-1.2-0.9-2.8-0.9-3.4v-0.9l-0.4 0.5c-0.1 1.4 0 2.7 0.7 3.8 0.2 0.2 0.5 0.7 0.6 1.4 0.1 0.5 0.4 2.7 0.4 2.7 0 0-0.1 0.9 1 1.7-0.3-0.4-0.4-1-0.6-1.7-0.2-1.1-0.2-2.4-0.4-3.1zm39.7 10.7c-1 0-2.1 0.7-2.1 0.7l-3.3 2c-0.3 0.2-0.8 0.4-1.8 0.4-1 0-5 0.2-5 0.2 0 0-1.6 0.2-2.9 0.9 0.6-0.2 1.7-0.3 2.7-0.4 2-0.1 4.1-0.2 5.4-0.3 1-0.1 1.2-0.1 1.7-0.4zm-9-5.6c0 0.6-1.3 1.2-1.3 1.2l-3.2 2.1c-0.3 0.1-0.9 0.4-1 1 0 0.6-0.4 3-0.4 3 0 0-0.2 1.2-1.1 1.7 0.4-0.5 0.5-1.1 0.6-1.7 0.3-1.1 0.4-2.4 0.5-3.2 0.1-0.6 0.3-0.7 0.7-1z"/><path class="b" d="m38.9 89.5c1.3-0.7 2.4-1.1 3-1.2l0.8-0.2c0 0 3.2-0.1 4.2-0.2 1.1 0 2.1-0.1 2.4-0.3l-0.5 0.4c-0.4 0.2-0.7 0.3-1.7 0.4-1.2 0.1-2.5 0-4.5 0.2-0.7 0.1-1.1 0.1-2.5 0.5-1.5 0.5-4 2-5.2 2.7 0 0 1.8-0.7 3 0l-0.2 0.6c0 0-1.5-1-3.2-0.1l-3.3 2.1-1.2-0.7c0 0 2.1-0.8 3.4-1.5l0.8-0.5c1.2-1.3 0.5-4.3 0.5-4.3h0.7c0.5 2.4-0.7 4.2-0.7 4.2 1.2-0.8 3.8-2.1 4.6-3 0.7-0.8 0.7-1.1 0.8-1.6 0.3-1.1 0.3-1.9 0.4-2.7 0.2-0.6 0.4-0.7 0.8-1l0.4-0.2c-0.3 0.1-0.7 0.7-0.7 1.3-0.1 0.6-0.4 2.7-0.4 2.7l-0.1 0.4c-0.3 0.4-0.6 1.1-1.8 1.8zm26.9-30.2c-0.6 0.6-0.5 2-0.5 2v3.9c0 0.3 0 0.9-0.5 1.6-0.5 0.6-2.4 3.2-2.4 3.2 0 0-0.9 0.8-0.9 2.3 0.1-0.6 0.6-1.3 1.1-2 0.9-1.3 2-2.5 2.6-3.4 0.5-0.7 0.5-0.9 0.6-1.4zm-10 0c0.5 0.6 0.4 1.9 0.4 1.9v3.8c0 0.3 0 0.9 0.5 1.5 0.5 0.6 2.4 3.1 2.4 3.1 0 0 0.9 0.8 0.9 2.3-0.1-0.6-0.6-1.3-1.1-2-0.9-1.2-2-2.4-2.6-3.2-0.5-0.7-0.5-0.9-0.5-1.4z"/><path class="b" d="m60.9 72c0.1-1.4 0.5-2.3 0.7-2.8l0.3-0.6c0 0 1.6-2 2.1-2.7 0.5-0.6 0.9-1.3 0.9-1.7v0.5c0 0.5 0 0.7-0.5 1.4-0.6 0.9-1.3 1.6-2.2 2.9-0.4 0.4-0.6 0.7-1 1.9-0.4 1.3 0.6 2.2-2.6 5.6 0 0 1.8-1.6 2.7-1.8v0.4c0 0-1.8 0.8-3.4 2.2 0 0-0.5 0.5-0.8 0.7-1.1 0.8-3.3 2.3-3.3 2.3v-0.1c0 0 2-1.4 3.1-2.4l0.4-0.5c1.5-1.4 0.7-3.2 0.7-3.2h0.4c0.4 0.7-0.1 2.3-0.1 2.3 2.5-2.7 2.4-4.2 2-5.5-0.3-1.2-0.6-1.5-0.9-1.9-0.9-1.3-1.6-2-2.2-2.9-0.5-0.7-0.6-0.9-0.6-1.4v-0.5c0 0.4 0.5 1.1 1 1.7 0.5 0.7 2 2.7 2 2.7l0.3 0.6c0.3 0.5 0.7 1.3 0.7 2.8zm3.2 4.9c-0.6 0.8-1.4 1.2-2.4 1.4-0.9 0.2-4.8 1.4-4.8 1.4 0 0-1.6 0.2-2.7 1.2 0.5-0.3 1.6-0.6 2.6-0.9 1.9-0.5 4.1-0.9 5.3-1.3 1-0.2 1.8-0.6 2.4-1.5 1.3-1.5 1.3-5.6 1.3-5.6-0.8 0.6-0.5 1.2-0.6 1.9-0.3 1.4-0.5 2.4-1.1 3.4z"/><path class="b" d="m55.1 78c0.2-1.2 0.1-1.4 0.1-2.2 0.1-0.6 0.2-1.3 0.7-1.7l0.5-0.7-0.2 0.7c-0.1 0.4-0.4 0.6-0.4 1.9 0 0.6-0.2 1.9-0.2 1.9l-0.2 0.5c-0.2 0.4-0.4 1-1.6 1.8h0.2c1.1-1 2-1.2 2.6-1.5l0.7-0.2c0 0 3-0.9 4-1.1 1-0.3 1.8-0.7 2.5-1.5l-0.4 0.7-0.2 0.2c-0.4 0.4-0.6 0.5-1.6 0.8-1.2 0.4-2.5 0.6-4.3 1.2-0.7 0.2-1.1 0.3-2.3 1-1.4 0.7-3.6 2.1-4.8 2.8 0 0 2-0.9 2.9-0.7v0.3c0 0-1.9-0.3-3.5 0.8l-4.4 2.6-0.1-0.1 4.2-2.7c1.8-1 1.4-2.1 1.4-2.1h0.5c0.2 0.5-1.2 1.8-1.2 1.8 1.2-0.8 3.5-2.1 4.3-3 0.7-0.8 0.7-1.1 0.8-1.5z"/><path class="b" d="m54.8 75.4c-0.1 0.6-0.4 2.7-0.4 2.7 0 0 0 0.9-1.1 1.7 0.3-0.4 0.5-1 0.6-1.6 0.2-1.1 0.3-2.4 0.4-3.2 0.1-0.6 0.3-0.9 0.5-1.1 1.1-1.1 0.9-2.7 0.9-3.4v-0.9l0.4 0.6c0.1 1.4 0 2.7-0.7 3.8-0.2 0.2-0.6 0.8-0.6 1.4z"/><path class="b" d="m68.3 71.8c-0.1 2.4 1 7.5-9 13.3l-25 14.5-24.9-14.5c-9.9-5.8-8.8-11.1-8.9-13.5l1.7-0.7c0.1 2.4-1.3 7.5 8.6 13.3l23.5 13.6 23.6-13.6c10-5.8 8.5-10.9 8.6-13.3v-50.2h-64.3l0.1 52.2-1.9 0.2 0.1-53.3h67.8z"/><path class="b" d="m20.1 47.3c-0.4-0.3-0.6-0.7-1.1-1-0.2-0.1-2.6-0.3-3-0.1-0.4 0.2-0.7 0.4-0.9 0.9l-0.2 0.6c-0.1 0.2-0.2 0.6-0.1 1.1h0.1l0.5-0.6 1.6-0.1v0.6c-0.4 0-1.1-0.1-1.4 0l-0.7 0.7c0 0.1 0.1 0.8 0 1.1 0 0.2 0 0.6 0 0.8h0.1l0.6-0.6h1.5v0.5c-0.3 0.1-1 0-1.3 0.1l-0.8 0.6-0.1 0.1q0 0.2 0 0.4 0 0.2-0.1 0.4 0 0.2 0 0.4 0 0.2 0 0.4c0.1 0.4 0.5-0.1 0.6-0.4 0.9 0.1 1.6 0.1 2.2 0.2h0.3l0.3-0.3c0.3-0.3 0.4-0.6 0.9-0.7 0.6 0 1.3 0.1 1.6-0.1 0.3-0.2 0.3-0.6 0.5-0.8 0.6-0.5 1.4-0.8 2.4-1.3 2-1.1 2.8-0.7 5.2-2.5l1.2-0.8 0.4 0.5c-0.7 0.5-1.9 1.3-1.9 1.3 0.4 1.5 1.4 2.4 2.7 3.7 0.8 1 3.7 3.1 5 3.5-1.2 0.6-3.9 2.4-6 4.3-1.5 1.5-3.4 3.1-3.6 4.2-0.3 1.5 0.6 4 1.6 6.8l0.3 0.7-0.2 0.3-0.5 0.2c-0.8 0.1-2 0-2.5 0.2-0.5 0.3-1 0.8-1.2 1-0.3 0.2-0.8 1.5-0.8 2.8l0.2 0.2 0.3-0.4c0.1 0 0.6-0.2 1.1-0.1 0.3-0.9 0.5-1.8 1.3-1.8l0.2 0.1c0 0.2-0.8 0.6-0.9 1.9l0.2 0.2c0.2-0.1 0.4-0.5 0.7-0.5 0.5-0.1 0.7 0 1.5 0l0.1-0.1c0-0.8 0.2-1 0.3-1.3l0.6 0.1c-0.2 0.4-0.4 0.5-0.4 1.8 0 0.1 0.1 0.2 0.4-0.2l0.4-0.3c0.7-0.1 1.7 0 2.1-0.2 0.2-0.1 0.8-0.9 1.2-1.3l0.2-0.5c0.1-0.5 0.3-1.5 0.4-2.1-1-1.4-0.9-3.7 0.1-4.8 0.9-1 2.1-1.1 4.4-2.1-0.5-0.7-1.1-1.9-1.1-3.4l0.6 0.1c0 0.7 0.3 1.6 0.6 2.1 0.4 0.9 1.2 1.9 2.1 2.6 0.7 0.7 3 1.9 3 2.3 0 0.4 0.3 1.5 0.3 3.1-0.1 0.6-1.4 0.7-2.4 0.9-0.5 0.3-1.1 0.8-1.3 1-0.2 0.3-0.7 1.5-0.8 2.8l0.2 0.2 0.4-0.4c0 0 0.6-0.2 1.1-0.1 0.3-0.8 0.4-1.8 1.2-1.8l0.2 0.1c0 0.2-0.7 0.6-0.8 1.8l0.1 0.3c0.3-0.1 0.4-0.5 0.7-0.5 0.6-0.1 0.7 0 1.5 0l0.1-0.1c0.1-0.8 0.2-1 0.3-1.3l0.6 0.1c-0.2 0.4-0.4 0.5-0.4 1.8 0.1 0.1 0.1 0.2 0.4-0.1l0.5-0.4c0.6-0.1 1.4 0 1.8-0.2 0.5-0.6 0.7-0.8 1.1-1.5l0.1-0.2c0-0.2-0.2-1.4-0.3-2.4-0.1-1.3 0.1-2.7 0.2-3.6v-0.5c-0.4-0.8-1.1-1.6-1.6-4.7-0.2-0.9-0.1-2.1 0.3-2.8l0.3-1.1c0-0.3-0.1-0.7-0.1-1.2l0.2-0.1c1.6 0 3-0.8 3.8-1.3 0.4-0.4 1.1-1.5 1.2-2.1 0.3-1.5 0.3-2.9-0.2-5.2-0.3-1.4-0.3-2.7-0.4-3.8-0.2-2.1-0.3-3.9-0.1-6.4 0-0.4 0-0.6 0.1-0.9q0.3-0.1 0.5-0.3 0.2-0.2 0.3-0.4 0.2-0.2 0.3-0.5 0.1-0.2 0.1-0.5l0.5-2.2c0.1-0.8-0.7-2.3-1.5-2.4l-0.6-0.1c-0.7-0.2-1.9 1.1-2 1.9l-0.2 2.2c-0.1 0.8 0.1 1.5 0.6 2 0 0.5-0.1 0.6-0.1 1.2 0 0-0.3 3.3-0.2 5.5 0 1 0.1 1.7 0.2 2.7 0.1 1 0.2 1.5 0.4 2.4 0.1 0.7 0.1 1.4 0.1 2 0 1.7-0.5 2.9-2.4 3.2-0.8 0.2-1.5 0.1-1.6 0.1-0.2-0.2-0.4-0.9-0.9-1.2-2.7-1.5-3.6-2-4.1-4.3-0.9-3.6-0.5-5.6 1.4-10.4 0.1-0.9 0.4-1.6 0.5-2.2 0.2-2.3 0.8-2.9-0.8-6.9-0.4 0.4-0.3 1.3-0.7 1.2-0.6-0.8-1-1.4-1.1-2.4-0.3-1.2-0.1-1.7-0.2-2 0-0.1-0.5-0.6-0.8-0.8-0.4-0.3-0.1-0.8-0.2-1.1-0.1-0.9-1-1.3-1.7-1.1-0.5 0.1-0.7 0.6-1.3 0.8-0.5 0.2-3.4 0.8-3.4 0.8-0.5 0-0.9 0-1.4 0.2q-0.1 0.1-0.3 0.2-0.1 0.1-0.2 0.3-0.1 0.1-0.2 0.3-0.1 0.1-0.1 0.3c-0.1 0.1-0.8 0.5-1.3 0.4h-0.3c-0.4 0.2-0.7 0.3-1.1 0.4l-0.1 0.3c0 0.2 0.1 0.8 0.2 1.4l0.3 0.6 0.2 0.1c0.1 0.7 0.1 0.6 0.3 1.2h0.2c0.5-0.1 1.6-0.7 2.8-0.2l0.2 0.2c0.1 0.4 0.1 0.8 0.1 1.1l-0.2 0.3-0.4 0.1c-1 0-1.3 0.1-2.4-0.1 0 0.7 0 1.6 0.4 1.7 0.4 0.1 1.1 0.1 1.1 0.1 0 0.6-0.1 0.9 0.2 1.4 0.3 0.2 0.9-1.1 1.9-1.7l0.1 0.1c-0.4 0.7-1.8 2.5-2 2.5-0.5-0.5-0.5-1.2-0.5-2-0.8 0.7-1.1 1.6-0.7 3 0.3-0.1 0.6-0.5 0.9-0.7l0.1 0.1c-0.5 0.6-0.5 1.6-1 1.5-0.4-0.5-0.5-1.2-0.5-1.8l-0.3 0.1c-0.3 0.6-0.7 2.3-0.4 3.4l0.1 0.1c0.3-0.4 0.4-1.1 0.7-1.4h0.2c-0.2 0.6-0.8 2-0.8 3.1l-0.1 0.2c-0.8-1.1-0.9-3.3-0.2-5-1.2 0.4-1.6 0-2.8-0.6 0 0-0.7-0.5-1.2-0.9l-3.9-2.8c0-0.8 0-1.6-0.6-2.1-0.3-0.2-3.2-0.1-3.6-0.1l-0.8 0.8c-0.1 0.2-0.2 1.1-0.1 1.5h0.1l0.6-0.6h1.1v0.5c-0.3 0.1-0.7 0-1 0.1l-0.7 0.6c-0.1 0.3-0.2 1.1-0.1 1.5h0.1l0.5-0.6h1.2v0.5c-0.4 0.1-0.7 0-1 0.1l-0.7 0.6c-0.1 0.2-0.2 1.1-0.1 1.5h0.1l0.5-0.6h1.2l1.1 0.9 1.8 0.1c0.4 0.8 1.2 1.3 2 2 1 0.8 3.6 3.3 4.3 3.6l1.5-1 0.3 0.4c-0.7 0.6-1.9 1.5-1.9 1.5-3 2.3-3.9 2.3-5.4 3.4zm15.6-5.2c-0.2 2.1-0.7 3.4-0.3 4.4l0.2 0.1c0.1-0.5 0.3-0.9 0.6-1.3h0.1c-0.2 0.7-0.5 1.6-0.5 2.9l-0.2 0.2c-1.5-1.3-0.8-4.1 0-6.3zm-2.4-0.6c-0.1 1.9-0.2 2.1 0.1 3.9l0.2 0.1c0.3-0.2 0.4-0.7 0.6-1.1l0.1 0.1c-0.1 1-0.3 1.7-0.5 2.7h-0.3c-1.6-2.3-0.9-3.7-0.2-5.7zm5.9-0.8c-0.3 0.8-1.2 2.4-1 3.9l0.2 0.2c0.5-0.2 0.6-0.7 0.9-1.1h0.1c-0.1 0.6-0.5 1.4-1.1 2.9l-0.1-0.1c-1.1-2.6-0.5-3.3 0.9-5.8zm-7.4-1c-0.3 1-0.8 3.3-0.3 3.9h0.2c0.2-0.6 0.4-1 0.8-1.6h0.1c-0.3 1.2-0.7 2-0.7 3.2h-0.2c-1.6-1.8-1.2-3.4 0-5.5zm5.4-0.2c-0.3 1-1.2 2.1-0.6 4.1l0.1 0.1c0.2 0 0.3-0.5 0.5-0.9h0.2v0.1c-0.2 0.5-0.4 1.8-0.5 2.2h-0.2c-1.3-1.4-0.8-3.7 0.4-5.5zm3.3-0.9c-0.1 1-0.7 2.3-0.5 2.9h0.2l0.4-0.4h0.1c-0.2 0.4-0.6 1.2-0.9 1.7h-0.2c-0.6-1.6 0-2.5 0.8-4.2zm-5.7 0.3c-0.6 1.7-0.8 2.7-0.3 3.5l0.2 0.1 0.5-0.8 0.1 0.1c-0.1 0.6-0.6 1.5-0.8 2.2h-0.2c-1-1.6-0.9-3.3 0.4-5.1zm-4.5-1.4c-0.3 1.4-1.3 3.4-0.8 4.5h0.2c0.6-1.1 0.7-1.3 1-1.4l0.1 0.1c-0.5 1-0.6 1.4-1 3l-0.2 0.1c-0.6-0.9-1.1-2.7-0.7-3.8 0.3-0.9 0.7-1.7 1.3-2.4zm8.4-0.1c-0.5 1.2-1.1 2-0.9 3.4l0.1 0.1c0.4-0.1 0.4-0.4 0.7-0.6l0.2 0.1c-0.3 0.5-0.7 1.1-1 2h-0.1c-0.9-1.6-0.2-3.6 0.9-5zm-5.2-0.5c-0.3 1.4-1.2 2.8-0.7 3.7l0.2-0.1c0.3-0.5 0.5-0.8 0.9-1.1h0.1c-0.1 0.3-0.4 0.9-0.6 1.3-0.1 0.3-0.3 0.7-0.5 1h-0.2c-1.2-1.9-0.3-3.5 0.7-4.7zm3-0.7c-0.6 1.4-1.1 2.2-0.8 3.6l0.1 0.1c0.4-0.1 0.6-0.4 0.9-0.6h0.1c-0.2 0.5-0.8 1.4-1.2 1.8l-0.2-0.1c-0.6-2.1-0.3-2.8 0.9-4.6zm5.5-0.1c-0.3 0.8-1 2.3-0.6 2.5l0.4-0.3 0.1 0.1c-0.2 0.5-0.4 0.8-0.7 1.2h-0.1c-0.5-1.5 0.2-2.3 0.8-3.6zm-2.1-0.4c-0.2 0.8-0.7 2-0.5 2.8l0.1 0.1c0.2 0 0.3-0.3 0.5-0.5h0.2c-0.1 0.3-0.3 0.7-0.5 1l-0.5 0.7h-0.2c-0.8-1.2 0.1-2.9 0.9-4.2zm-8.2-0.3c-0.3 1-1 2.2-0.8 3.2l0.2 0.1c0.3-0.3 0.5-0.7 1-1h0.1c-0.4 0.9-0.9 1.5-1.3 2.4h-0.1c-0.9-1-0.3-2.8 0.8-4.6zm3.1-0.4c-0.3 1-0.7 2-0.5 2.7h0.2c0.3-0.2 0.4-0.5 0.8-0.8l0.1 0.1c-0.3 0.6-0.9 1.4-1.2 1.8l-0.2-0.1c-0.4-0.7-0.8-1.5 0.7-3.7zm6.1-1.3c0 0.8-0.4 1.4-0.3 2.4l0.2 0.2c0.3-0.2 0.4-0.4 0.6-0.7h0.1c-0.1 0.5-0.4 1-0.7 1.6l-0.2 0.1c-0.7-1-0.2-3 0.2-3.6zm-2.8 0c-0.5 1.4-0.8 2.5-0.8 4h0.2c0.4-0.3 0.4-0.6 0.8-0.8l0.1 0.1c-0.2 0.5-0.7 1-1.1 1.5h-0.3c-0.6-1.5 0-3.3 1-4.8zm-4.9-0.3c-0.6 1.5-0.6 1.1-0.6 2.6l0.1 0.1c0.4-0.2 0.6-0.6 1.1-0.7h0.1l-0.8 1-0.5 0.8h-0.3c-0.6-1.5-0.2-2.6 0.7-3.7zm1.3-1.9c-0.1 0.8-0.7 1.8-0.4 2.4l0.2 0.1c0.3-0.3 0.5-0.7 0.8-1h0.1c-0.1 0.3-0.3 0.9-0.5 1.3l-0.5 0.7-0.2-0.1c-1-1.4-0.2-2.3 0.3-3.3zm4.8 0.1c-0.1 1-0.5 1.9-0.3 3.5l0.2 0.1c0.4-0.2 0.6-0.9 0.9-1.3h0.1c-0.1 0.7-0.6 1.8-1.1 2.5l-0.2-0.1c-0.7-1.4-0.4-2.3 0.3-4.7zm-2.7-0.2c-0.2 1.1-1.2 2.5-0.9 3.7l0.1 0.1c0.5 0.1 0.8-0.5 1.1-0.7h0.1c-0.1 0.6-0.8 1.5-1.1 1.8l-0.1 0.1c-0.6-0.7-0.7-1.6-0.4-2.5 0.1-0.8 0.5-1.5 1.1-2.5zm5.2-0.4c0.1 1-0.5 2.2 0.5 2.7l0.1 0.1-0.1 0.6-0.2 0.1c-1.3-0.6-0.7-2.3-0.4-3.5 0 0 0.1 0 0.1 0zm-4.4-1.1c-0.1 1-0.4 2-0.1 3l0.1 0.1c0.4-0.1 0.6-0.5 0.9-0.9h0.2c-0.2 0.7-0.7 1.4-1.2 1.9h-0.2c-0.9-1.1-0.3-2.6 0.1-4zm2.5-0.8c0 1.3 0.1 2.1 0.4 3.2l0.2 0.2c0.4-0.1 0.4-0.5 0.7-0.9h0.1c-0.1 0.6-0.3 1.2-0.6 1.8l-0.2 0.1c-0.9-0.5-0.9-2.4-0.7-4.4zm-4.2-0.9c-0.5 2-0.4 2.5-0.3 3.2l0.1 0.1c0.5-0.1 0.6-0.6 0.9-1l0.1 0.1q-0.1 0.2-0.2 0.5-0.1 0.2-0.2 0.5-0.1 0.2-0.3 0.4-0.1 0.3-0.3 0.5h-0.2c-0.4-0.4-0.9-1.9 0.2-4.3zm-0.6-0.2c0.2 0.5-0.5 2.8-1.5 4.3-0.2 0.4-0.4 0.8-1 0.9l-0.1-0.1c0.2-0.9 0.9-1.2 1.4-2.1 0.3-0.5 0.7-1.1 1.1-2.9zm2.4-0.6c0 0.6 0 1.2-0.5 2.6l-0.2 0.1q-0.2-0.2-0.4-0.5-0.1-0.3-0.2-0.5-0.1-0.3-0.1-0.6 0-0.3 0.1-0.6h0.1c0 0.5 0 0.9 0.4 1.2h0.1c0.2-0.2 0.3-1.1 0.5-1.7zm0.5-0.2c0.3 1.5-0.1 2.9 0.6 3.3h0.2c0.2-0.3 0.3-0.6 0.5-1.1l0.1 0.1c0 0.8-0.2 1.4-0.5 2l-0.3 0.1c-1.3-1.3-0.9-2.7-0.7-4.4zm-7.2-0.4l1-0.1 0.3 0.2c0.2 0.2-0.3 0.5-0.8 0.8l-0.1 0.5c-0.4 0.1-0.7-0.6-0.6-1.1zm8.6-0.2c0.2 0.5 0.3 1.4 0.1 2.2h-0.2c-0.9-0.5-0.9-0.9-0.9-1.8l0.1-0.1c0.2 0.4 0.2 0.9 0.6 1.1l0.1-0.1c0.1-0.4 0.1-0.8 0.1-1.2zm-2.3-2.5c1-0.3 1.5 1.3 1 2.1-0.2 0.3-0.3 0.4-0.7 0.6-0.4 0.2-0.9 0.4-1.5 0.7l-0.1-0.1 0.3-0.7c0.4-0.1 1.3-0.4 1.5-0.7 0.1-0.2 0.4-1.1-0.2-1.4-0.5-0.3-0.8 0.7-1.3 0.7-0.8 0-0.6-0.3-0.4-0.3 0.5-0.1 0.8-0.8 1.4-0.9zm4.4 5c-0.4-0.8-0.7-1.6-1.2-2.2h-0.1c-0.2 1.3 0.4 2.4 1 3.1l0.1-0.1c0.2-0.3 0.2-0.8 0.2-0.8zm-26-23.9h0.3c0.1 0.4 0 0.9 0.3 1.1 0.3 0.1 1.4 0.7 2.1 1.1l0.4 0.5 0.1 0.6c-0.1 1.5-1.1 3.2-2.3 4.5l-0.7-0.1v-0.2l0.4-0.5c0.2-0.4 0.8-1 0.8-1.9l-0.3-0.7c-0.5-0.3-1.8-1.1-2-1.1l-0.4-0.4v-0.6c0.2-0.5 0.4-1.3 1.3-2.3zm5-5.5h0.1l0.4 0.4c0.4 0.4 1.2 0.8 1.5 1.1v0.1c0 0.3-0.1 1.1-0.3 1.6l-0.1 0.2c-0.2 0.6-0.2 1.1-0.1 2.5 0 0.2 0.1 0.6 0.6 0.5 0.9 0 3 0.1 4.3 0.1 0.7 0 0.9 0.3 0.9 0.3 0.3 0.4 0.4 1.5 0 2.8-0.1 0.4-0.2 0.7-0.5 1.3-0.3 0.7-2 1.9-0.9 3.7 0.2 0.2 0.1 0.3 0.1 0.3-0.6 0.8-1.6 2-1.6 2h-0.1-0.1c-0.2-0.4-0.6-1.1-0.7-1.8l0.1-0.3c0.3-0.8 0.9-1.3 1.4-2.3l0.1-0.1c0.5-1 0.5-2.2 0.3-2.9-0.1-0.3-0.5-0.5-0.8-0.5-3.2 0-4.1 0.2-4.5-0.4-0.3-0.6-0.4-1.1-0.4-1.8 0-0.7-0.2-1 0.1-1.7 0.3-0.6 0.6-1.1 0.7-1.9l-0.1-0.2c-0.6-0.1-1-0.4-1.1-0.7-0.2-0.5 0.5-2.3 0.7-2.3zm11.6 5.2v0.5c0.2 0.7 2.1 1 2.7 1.6 0.1 0 0.2 0.1 0.2 0.4-0.1 1.1-0.4 1.4-0.9 2.2l-0.3 0.1c-1-0.6-0.5 2.9-0.2 4.3h0.2l0.1-0.4c1.4-3.3 3.2-8.4 3.2-8.4l0.1-0.1 0.2 0.1c0.6 0.6 1.6 1.1 2.1 1.4l0.2 0.2v0.3c0 0.4-0.2 1.3-0.4 2.2l-0.2 0.2c-0.8-0.2-1.2-0.6-2.1-1.1 0 0-1.3 3.3-2 5.4l0.1 0.2c1.7 0 3-0.3 4.1-0.5 0.5-0.2 0.5-0.4 0.8-0.6 0.4-0.4 1.5-1.5 1.9-3 0.2-0.9-0.6-1-0.7-1.9-0.1-0.5 0.1-0.9 0.3-1.3 0.4-0.7 0.9-1.6 1.2-1.8l0.3 0.1c0.1 0.2-0.1 1.2 0.4 1.6 0.5 0.5 1.1 0.8 1.3 1.5 0.2 0.8-0.5 1.8-1 2.3l-0.7 0.1c0 0-0.8 1.6-1.4 2.5-0.6 1.1-2 2.7-2 2.7-0.4 0.4-4.7 0.8-7.5 0.8-0.3 0-0.2-0.2-0.3-0.2-0.4-3.4-0.5-4.7-0.5-4.9 0.1-0.3 0.5-1.2 1.2-2.5-0.8-0.2-1.5-0.8-1.9-1.3l-0.1-0.3c0.2-0.9 0.9-2.3 1.3-2.4 0 0 0.3 0 0.3 0zm15.7 0.1l0.3 0.2v0.6c0 0.2 0.2 0.5 0.4 0.5 1.7 0.7 2.1 0.8 2.2 1 0.5 0.6 0.4 1.4 0.4 3.2v4.3c-0.2 0.9-1.3 2-1.7 2.3l-0.2-0.1-0.1-0.3c0.1-1.3 0.1-4.5 0.1-6.2-0.1-0.3-0.2-0.9-0.6-1-1.5-0.4-2-0.9-2-1-0.4-0.5-0.3-0.8-0.1-1.3 0.1-0.5 0.7-1.5 1.3-2.2zm6.4 0.1l0.3 0.2c-0.1 0.3-0.1 0.9 0.4 1.2h4.4l0.7 0.1c0.6 0.3 0.9 1.2 1 1.4 0.1 1.5-0.1 0.6 0.1 4.7 0 0.8 0 2.4 0.1 2.5l-1.9 2.1h-0.1c-0.2-0.5 0-4.4-0.2-7.3l-0.2-0.6-0.6-0.3c-3.1 0-4 0-4.3 0-0.3-0.1-1.1-0.6-1.2-0.9-0.2-1.1 1.1-2.9 1.5-3.1zm10.1 0.3h0.3c0.1 0.4-0.1 1.1 0.3 1.2 0.3 0.2 1.4 0.8 2 1.3l0.4 0.5c0.1 1.7-0.8 4.1-2.2 5l-0.1 0.1c-0.8-0.4 1-1.5 0.8-3.2-0.5-0.4-1.3-0.8-1.6-1-0.4-0.1-1.1-0.7-1.2-1.1-0.1-0.6 0-1.3 1.3-2.8zm-8.8 75.6l-0.8 0.1c-0.4 0-0.7 0.3-0.7 0.7q0 0.1 0.1 0.3 0.1 0.1 0.2 0.2 0.1 0 0.2 0.1 0.1 0 0.2 0h0.9c0.4 0 0.7-0.3 0.7-0.7 0-0.4-0.4-0.7-0.8-0.7v0.3c0.2 0 0.4 0.2 0.5 0.4l-0.5 0.4-0.7 0.1-0.5-0.4 0.5-0.5h0.7zm-12.7 2v0.5c-0.1 0.4 0.2 0.7 0.5 0.8q0.2 0 0.3 0 0.1 0 0.2-0.1 0.1-0.1 0.2-0.2 0.1-0.1 0.1-0.3l0.1-0.5c0-0.4-0.2-0.7-0.6-0.8-0.3 0-0.7 0.2-0.8 0.6l0.3 0.1 0.5-0.4 0.3 0.5v0.4l-0.5 0.4-0.4-0.5 0.1-0.4v-0.1zm7.7-4.7l-0.1 0.5c0 0.4 0.2 0.7 0.6 0.8 0.4 0.1 0.7-0.2 0.8-0.6l0.1-0.5c0-0.4-0.2-0.7-0.6-0.8-0.4 0-0.7 0.2-0.8 0.6l0.3 0.1 0.5-0.4 0.3 0.5-0.1 0.4-0.5 0.4-0.3-0.5 0.1-0.4v-0.1zm-24.9 4.8l0.1 0.5q0 0.1 0 0.2 0 0.2-0.1 0.3-0.1 0.1-0.2 0.2-0.1 0-0.2 0.1h-0.1q-0.1 0-0.2-0.1-0.2 0-0.3-0.1-0.1-0.1-0.2-0.2 0-0.1 0-0.2l-0.2-0.6q0-0.1 0.1-0.2 0-0.2 0.1-0.3 0.1-0.1 0.2-0.1 0.1-0.1 0.2-0.1c0.4-0.1 0.8 0.2 0.8 0.6h-0.2l-0.5-0.4-0.4 0.6 0.1 0.4 0.5 0.4 0.3-0.6v-0.4h-0.1zm-7.1-4.4l0.1 0.5q0 0.1 0 0.2 0 0.2-0.1 0.3-0.1 0.1-0.2 0.2-0.1 0-0.2 0.1h-0.1q-0.1 0-0.2-0.1-0.2 0-0.3-0.1-0.1-0.1-0.1-0.2-0.1-0.1-0.1-0.2l-0.1-0.6c-0.1-0.3 0.2-0.7 0.5-0.7 0.4-0.1 0.8 0.2 0.8 0.6h-0.2l-0.5-0.4-0.4 0.6 0.1 0.4 0.5 0.4 0.3-0.5v-0.5h-0.1zm-12.2-41.2l-0.5-0.6c-0.2-0.3-0.7-0.3-1-0.1q-0.1 0.1-0.2 0.2 0 0.1 0 0.3-0.1 0.1 0 0.2 0 0.2 0.1 0.3l0.5 0.6c0.2 0.3 0.7 0.4 1 0.2v-0.1c0.3-0.2 0.3-0.7 0.1-1l-0.3 0.2v0.6l-0.6-0.1-0.5-0.5 0.1-0.7 0.6 0.2 0.4 0.5h0.1zm2.8 0l0.5-0.6q0.1-0.1 0.2-0.1 0.1-0.1 0.3-0.1 0.1 0 0.2 0 0.2 0 0.3 0.1c0.3 0.3 0.3 0.7 0.1 1l-0.5 0.6c-0.2 0.3-0.7 0.4-0.9 0.2l-0.1-0.1c-0.3-0.2-0.3-0.7-0.1-0.9l0.3 0.1v0.6l0.6-0.1 0.5-0.5-0.1-0.7-0.6 0.2-0.4 0.5zm-2.9 8.8l-0.5-0.6c-0.2-0.2-0.7-0.3-1-0.1q-0.1 0.1-0.2 0.2 0 0.2 0 0.3-0.1 0.1 0 0.3 0 0.1 0.1 0.2l0.5 0.6c0.2 0.3 0.7 0.4 1 0.2v-0.1c0.3-0.2 0.3-0.6 0.1-0.9l-0.3 0.1v0.6l-0.6-0.1-0.5-0.5 0.1-0.6 0.6 0.1 0.4 0.5h0.1zm2.8 0l0.5-0.6c0.2-0.3 0.7-0.3 1-0.1q0.1 0.1 0.2 0.2 0 0.2 0 0.3 0.1 0.1 0 0.3 0 0.1-0.1 0.2l-0.5 0.6c-0.2 0.3-0.7 0.4-1 0.2v-0.1c-0.3-0.2-0.3-0.6-0.1-0.9l0.3 0.1v0.6l0.6-0.1 0.5-0.5-0.1-0.6-0.6 0.1-0.4 0.5h-0.1zm-2.8 8.9l-0.5-0.7c-0.2-0.2-0.7-0.3-1-0.1q-0.1 0.1-0.2 0.2 0 0.2-0.1 0.3 0 0.1 0.1 0.3 0 0.1 0.1 0.2l0.5 0.6c0.2 0.3 0.7 0.4 0.9 0.2l0.1-0.1c0.3-0.2 0.3-0.6 0.1-0.9l-0.3 0.1v0.6l-0.6-0.1-0.5-0.5 0.1-0.6 0.6 0.1 0.4 0.5 0.1 0.1zm2.8 0l0.5-0.7c0.2-0.2 0.7-0.3 1-0.1q0.1 0.1 0.2 0.2 0 0.2 0 0.3 0.1 0.1 0 0.3 0 0.1-0.1 0.2l-0.5 0.6c-0.2 0.3-0.7 0.4-1 0.2v-0.1c-0.3-0.2-0.3-0.6-0.1-0.9l0.3 0.1v0.6l0.6-0.1 0.5-0.5-0.1-0.6-0.6 0.1-0.4 0.5-0.1 0.1zm-2.8 8.8l-0.5-0.7c-0.3-0.2-0.7-0.3-1-0.1q-0.1 0.1-0.2 0.3 0 0.1-0.1 0.2 0 0.1 0.1 0.3 0 0.1 0.1 0.2l0.5 0.7c0.2 0.2 0.7 0.3 0.9 0.1l0.1-0.1c0.3-0.2 0.3-0.6 0.1-0.9l-0.3 0.1v0.6l-0.6-0.1-0.5-0.5 0.1-0.6 0.6 0.1 0.4 0.5 0.1 0.1zm2.8 0l0.5-0.7c0.2-0.2 0.7-0.3 1-0.1q0.1 0.1 0.2 0.2 0 0.2 0 0.3 0.1 0.1 0 0.3 0 0.1-0.1 0.2l-0.5 0.7c-0.2 0.2-0.7 0.3-1 0.1v-0.1c-0.3-0.2-0.3-0.6-0.1-0.9l0.3 0.1v0.6l0.6-0.1 0.5-0.5-0.1-0.6-0.6 0.1-0.4 0.5-0.1 0.1zm-2 9.1l-0.7-0.4c-0.3-0.2-0.7-0.2-1 0.1-0.2 0.3-0.1 0.8 0.2 1l0.6 0.5q0.2 0.1 0.3 0.1 0.1 0 0.3 0 0.1 0 0.2-0.1 0.1-0.1 0.2-0.2c0.3-0.3 0.2-0.7-0.1-1l-0.2 0.2 0.1 0.6-0.7 0.1-0.5-0.4-0.1-0.6 0.6-0.1 0.6 0.5zm3.4-0.4l0.1-0.8c0.1-0.3 0.5-0.6 0.8-0.5h0.1c0.3 0.1 0.6 0.5 0.5 0.8l-0.2 0.8c-0.1 0.4-0.4 0.7-0.8 0.6-0.4-0.1-0.6-0.5-0.5-0.9h0.2l0.3 0.6 0.6-0.4 0.1-0.7-0.3-0.5-0.5 0.4-0.1 0.6-0.1 0.1zm51.6-35.2l0.5-0.6q0.1-0.1 0.2-0.2 0.1-0.1 0.2-0.1 0.2 0 0.3 0 0.1 0.1 0.2 0.1l0.1 0.1c0.2 0.2 0.3 0.6 0.1 0.9l-0.5 0.7c-0.3 0.3-0.7 0.3-1 0.1-0.3-0.2-0.3-0.7-0.1-1l0.3 0.1v0.7l0.6-0.2 0.4-0.5v-0.6l-0.6 0.1-0.4 0.5-0.1 0.1zm-2.9 0l-0.4-0.6c-0.3-0.3-0.7-0.4-1-0.2v0.1q-0.1 0.1-0.2 0.2-0.1 0.1-0.1 0.2 0 0.2 0 0.3 0.1 0.1 0.2 0.2l0.5 0.7c0.2 0.3 0.6 0.3 0.9 0.1h0.1c0.2-0.2 0.3-0.7 0-1l-0.2 0.1v0.7l-0.7-0.1-0.4-0.6v-0.6l0.7 0.1 0.4 0.5v0.1zm2.9 8.8l0.5-0.6q0.1-0.1 0.2-0.2 0.1-0.1 0.2-0.1 0.2 0 0.3 0 0.1 0.1 0.2 0.2h0.1q0.1 0.1 0.1 0.2 0.1 0.1 0.1 0.2 0 0.2 0 0.3 0 0.1-0.1 0.2l-0.5 0.7c-0.3 0.3-0.7 0.3-1 0.1-0.3-0.2-0.3-0.7-0.1-1l0.2 0.1 0.1 0.7 0.6-0.1 0.4-0.6v-0.6l-0.6 0.1-0.5 0.6zm-2.9 0l-0.5-0.6c-0.2-0.3-0.6-0.4-0.9-0.1q-0.1 0.1-0.2 0.2-0.1 0.1-0.1 0.2 0 0.2 0 0.3 0.1 0.1 0.1 0.2l0.6 0.7c0.2 0.3 0.6 0.3 0.9 0.1 0.3-0.2 0.4-0.7 0.1-1l-0.2 0.1v0.7l-0.7-0.1-0.4-0.6v-0.6l0.7 0.1 0.4 0.6zm2.9 8.8l0.5-0.6c0.2-0.3 0.7-0.4 0.9-0.1h0.1q0.1 0.1 0.1 0.2 0.1 0.1 0.1 0.2 0 0.2 0 0.3-0.1 0.1-0.1 0.2l-0.5 0.7c-0.3 0.3-0.7 0.3-1 0.1-0.3-0.2-0.3-0.7-0.1-1l0.2 0.1 0.1 0.7 0.6-0.1 0.4-0.6v-0.6l-0.6 0.1-0.5 0.6zm-2.9 0l-0.5-0.6c-0.2-0.3-0.6-0.4-0.9-0.1h-0.1q-0.1 0.1-0.1 0.2-0.1 0.1-0.1 0.2 0 0.2 0 0.3 0.1 0.1 0.1 0.2l0.5 0.7c0.3 0.3 0.7 0.3 1 0.1 0.3-0.2 0.4-0.7 0.1-1l-0.2 0.1-0.1 0.7-0.6-0.1-0.4-0.6v-0.6l0.7 0.1 0.4 0.6zm2.9 8.8l0.5-0.6q0.1-0.1 0.2-0.2 0.1 0 0.2-0.1 0.2 0 0.3 0.1 0.1 0 0.2 0.1h0.1q0.1 0.1 0.1 0.2 0.1 0.1 0.1 0.2 0 0.2 0 0.3-0.1 0.1-0.1 0.2l-0.5 0.7c-0.3 0.3-0.7 0.3-1 0.1-0.3-0.2-0.3-0.7-0.1-1l0.2 0.2 0.1 0.6 0.6-0.1 0.4-0.6v-0.6l-0.6 0.1-0.5 0.6zm-2.9 0l-0.5-0.6c-0.2-0.3-0.6-0.4-0.9-0.1h-0.1q-0.1 0.1-0.1 0.2-0.1 0.1-0.1 0.2 0 0.2 0 0.3 0.1 0.1 0.1 0.2l0.5 0.7c0.3 0.3 0.7 0.3 1 0.1 0.3-0.2 0.4-0.7 0.1-1l-0.2 0.2-0.1 0.6-0.6-0.1-0.4-0.6v-0.6l0.7 0.1 0.4 0.6zm-11.2 22h-0.8c-0.4 0-0.7 0.3-0.7 0.7q0 0.2 0.1 0.3 0 0.1 0.1 0.2 0.1 0.1 0.3 0.1 0.1 0.1 0.2 0h0.9c0.3 0 0.7-0.3 0.6-0.7 0-0.4-0.3-0.6-0.7-0.6v0.2c0.2 0 0.4 0.2 0.4 0.4l-0.4 0.5h-0.7l-0.5-0.4 0.5-0.4 0.7-0.1zm-26.5 0.1h0.8c0.3 0 0.6 0.3 0.6 0.7q0 0.2 0 0.3-0.1 0.1-0.2 0.2-0.1 0.1-0.2 0.1-0.1 0.1-0.3 0h-0.8c-0.4 0-0.7-0.3-0.7-0.7 0-0.4 0.4-0.6 0.8-0.6v0.2l-0.5 0.4 0.5 0.5h0.7l0.5-0.4-0.5-0.4-0.7-0.1h-0.1zm-7.4-4.5h0.8q0.1 0 0.2 0.1 0.2 0 0.3 0.1 0 0.1 0.1 0.2 0 0.2 0.1 0.3-0.1 0.2-0.1 0.3-0.1 0.1-0.2 0.2-0.1 0.1-0.2 0.1-0.1 0.1-0.3 0.1l-0.8-0.1c-0.4 0-0.7-0.3-0.7-0.7h0.1c0-0.3 0.3-0.6 0.7-0.6v0.2l-0.5 0.4 0.5 0.5h0.7l0.5-0.4-0.5-0.4h-0.7zm26.1 10.9l-0.7-0.4q-0.1-0.1-0.2-0.1-0.1 0-0.3 0-0.1 0-0.2 0.1-0.1 0-0.2 0.2h-0.1q0 0.1-0.1 0.2 0 0.2 0 0.3 0.1 0.1 0.1 0.2 0.1 0.1 0.2 0.2l0.7 0.5c0.3 0.2 0.7 0.2 1-0.2 0.2-0.3 0.1-0.7-0.2-0.9l-0.2 0.2 0.1 0.6h-0.6l-0.6-0.4-0.1-0.6h0.6l0.6 0.4zm21.3-17.6l0.7-0.4q0.1-0.1 0.2-0.1 0.1 0 0.3 0 0.1 0 0.2 0.1 0.1 0 0.2 0.1v0.1c0.2 0.2 0.2 0.7-0.1 0.9l-0.6 0.5c-0.4 0.2-0.8 0.2-1-0.1v-0.1c-0.2-0.3-0.2-0.7 0.1-0.9l0.2 0.2-0.1 0.6h0.6l0.6-0.4 0.1-0.6h-0.6l-0.6 0.4zm-2.4-1.7l-0.1-0.7c-0.1-0.4-0.5-0.6-0.8-0.5h-0.1q-0.1 0-0.2 0.1-0.1 0.1-0.2 0.2-0.1 0.1-0.1 0.2 0 0.2 0 0.3l0.2 0.8c0.1 0.4 0.5 0.6 0.8 0.5h0.1c0.3-0.1 0.5-0.5 0.5-0.9l-0.3 0.1-0.3 0.5-0.5-0.3-0.2-0.7 0.3-0.6 0.5 0.4 0.2 0.7zm-23.3 13l-0.2-0.8c-0.1-0.3-0.5-0.6-0.8-0.5h-0.1c-0.3 0.1-0.5 0.5-0.4 0.8l0.1 0.8c0.1 0.4 0.5 0.6 0.8 0.6l0.1-0.1c0.3 0 0.5-0.4 0.5-0.8h-0.3l-0.3 0.6-0.5-0.4-0.2-0.7 0.3-0.5 0.5 0.4 0.2 0.6v0.1zm-23.6-79.8l-0.5-0.2c-2.3-0.1-5.9-0.1-7.5-0.1-0.6 0-1-0.1-1-0.1-0.3-0.2-0.2-0.8-0.3-1.2l-0.1-0.1-0.2 0.1c-1.2 1.6-1.3 2.4-0.9 3.3l0.1 0.2 0.3 0.2c0.6 0.3 1.5 0.1 1.7 0.1l0.1 0.1-0.2 0.5-0.7 0.7c-0.2 0.2-0.4 0.6-0.4 1-0.1 0.9-0.1 2-0.1 2.8 0 0.9-0.1 1.6 0.4 2.2 0.4 0.5 7 0.2 8.3 0l0.5-0.2c0.3-0.4 0.7-0.9 0.9-1.6 0-0.1 0.2-1.6 0.2-2.2 0-2.6 0.1-4.2-0.6-5.5zm-1.1 7.2c0 0.2-1.9 0.3-3.7 0.3-0.9 0-1.8 0-2.5 0l-0.3-0.4c-0.1-0.7-0.3-3 0-4.2l0.1-0.5 0.4-0.2 0.4 0.1 0.1-0.1c0.7-0.1 3.2 0 4.5 0 0.4 0 0.5 0 0.8 0.2 0.4 0.4 0.4 4.6 0.2 4.8z"/><path class="b" d="m52.7 75.5c0 0.6-1.3 1.2-1.3 1.2l-3.3 2.1c-0.3 0.2-0.8 0.5-0.9 1-0.1 0.6-0.4 3-0.4 3 0 0-0.2 1.3-1.1 1.7 0.4-0.4 0.5-1 0.6-1.6 0.3-1.2 0.3-2.5 0.5-3.2 0.1-0.7 0.3-0.8 0.7-1.1zm3.6 8.5c-0.3 0.2-0.8 0.3-1.8 0.3-1 0.1-5.1 0.3-5.1 0.3 0 0-1.5 0.1-2.9 0.8 0.7-0.2 1.8-0.3 2.8-0.4 1.9-0.1 4.1-0.1 5.4-0.2 1-0.1 1.2-0.2 1.7-0.4 0 0 1.6-0.9 2.5-1.5 1.2-0.7 3-2.2 3-2.2-0.8 0.2-1.9 1-1.9 1 0 0-0.8 0.6-1.4 1-0.9 0.5-2.3 1.3-2.3 1.3z"/></svg>