<svg version="1.2" xmlns="http://www.w3.org/2000/svg" viewBox="0 0 88 111" width="88" height="111"><style>.a{fill:#75c5e3}.b{fill:#0994dc}.c{fill:#fff}.d{fill:#7c3812}.e{fill:#1c8934}.f{fill:#254aa5}</style><g style="opacity:1"><path class="a" d="m0 0l5.5 93.2c0.3 4 0.7 5.2 2.4 6.4 1.8 1.3 2.8 1.5 5.5 1.1 4.8-0.7 13.9-0.2 17.8 1 4.5 1.4 9 5.3 12.3 8.7 3.4-3.4 7.8-7.3 12.3-8.7 3.9-1.2 13.1-1.7 17.9-1 2.7 0.4 3.7 0.2 5.4-1.1 1.8-1.2 2.2-2.4 2.5-6.4l5.5-93.2h-9.6v6.6h-13.2v-6.6h-13.9l-0.2 6.6h-13.4l-0.1-6.6h-13.9v6.6h-13.3v-6.6z"/><path class="b" d="m34.3 87.4l-0.6-0.7c0 0 0.8-0.6 1.8-1.3 0.1-0.1 0.2-0.1 0.3-0.2 0.8-0.7 1-1 2.7-1.9 2.9-1.6 4.6-3.5 6.3-6 0.9-1.5 2.9-2.2 4.6-2.7 1.8-0.5 3.3-0.6 3.3-0.6l0.5-0.1v0.5 2.8l-1.7-0.2c-0.4 0-1.6 0.2-2.7 0.8-1.1 0.5-2.3 1.4-2.9 2.6-0.7 1.4-1.8 2.2-2.9 2.8-1.1 0.6-2.4 0.8-3.6 1.1-1 0.3-2.2 1-3.2 1.7-0.4 0.3-1.4 0.9-1.5 1-0.1 0.1-0.4 0.4-0.4 0.4zm-13.4-0.1l0.6-1.4c0 0 0.7-1.8 2.8-3.9 1.1-1.2 2.6-1.7 4.1-2.2 1.4-0.5 2.7-0.9 3.4-1.6 1.6-1.7 4.4-3.2 8-4.7 3.6-1.5 4-2.4 6.8-5.4 1.5-1.6 4.3-2.5 6.6-3 2.4-0.6 4.4-0.7 4.4-0.7l0.9-0.1-0.5 0.7c0 0-0.7 1-1.6 2-1 1-2.3 2.1-3.8 2.4-1.3 0.4-2.2 0.5-3 0.8-0.7 0.2-1.3 0.5-1.8 0.9-1.2 1-3.2 3.1-5.5 4.5-1.2 0.8-2.3 1.1-3.4 1.6-1.1 0.5-2.2 1.1-3.2 2.2-2.1 2.5-4.5 3.4-7.1 3.6-1.1 0.1-2.7 1-4.1 1.8-1.3 0.8-2.4 1.6-2.4 1.6zm2.7-3c0.3-0.1 0.2-0.1 0.5-0.3 1.4-0.8 3.1-1.7 4.5-1.9 2.4-0.2 4.5-1 6.5-3.3 1.1-1.3 2.3-1.9 3.5-2.4 1.1-0.5 2.2-0.9 3.3-1.5 2.1-1.4 4.2-3.4 5.4-4.5 0.6-0.5 1.3-0.8 2.1-1.1 0.8-0.2 1.8-0.4 3.1-0.7 1.1-0.3 2.4-1.3 3.3-2.3 0.5-0.5 0.6-0.6 0.8-0.9-0.6 0-1.4 0.1-3.1 0.4-2.3 0.6-4.9 1.5-6.2 2.9-2.8 2.9-3.4 4-7.1 5.6-3.6 1.5-6.3 3-7.8 4.5-0.9 0.9-2.3 1.3-3.7 1.8-1.4 0.4-2.9 1-3.8 1.9-1 1-0.9 1.2-1.3 1.8zm15.9-0.9c1.1-0.3 2.2-0.5 3.2-1 1-0.5 1.9-1.2 2.5-2.4 0.8-1.4 2-2.4 3.3-3 1.2-0.6 2.4-0.9 3.1-0.8h0.8v-1.3c-0.4 0-1.3 0.1-2.7 0.5-1.6 0.5-3.5 1.2-4.2 2.3-1.5 2.3-3.4 4.1-6 5.7z"/><path class="c" d="m52 78.5c0 0-1.1 1.9-2.9 4-1.8 2-3 2.7-3 2.7 0 0 3-1 4.7-2.6 1.7-1.6 2.2-2.2 2.2-2.2z"/><path class="b" d="m13.8 88.7l-0.7-0.5h0.1c0-0.1 0.3-0.5 0.8-1.3 0.4-0.7 1-2.3 1.6-3.9 0.6-1.5 1.2-3.1 1.6-4.1 0.5-1.3 1.9-2.4 3.3-3.4 0.7-0.6 1.4-1 1.9-1.4 0.6-0.5 1-0.8 1.1-1 0.5-0.7 1.3-1.4 2.1-2 0.8-0.6 1.4-1 1.4-1 0.1-0.1 2.3-1.8 4.7-3.8 1.2-1.1 2.4-2.1 3.4-3.1 1-0.9 1.7-1.8 1.8-2.1 0.8-1.9 1.7-3.2 4.5-5.8 2.9-2.6 6.2-4.8 6.2-4.8l0.2-0.1 0.2 0.1c0 0 0.6 0.2 1.1 0.7 0.3 0.2 0.5 0.5 0.7 0.9 0.1 0.3 0.1 0.8-0.1 1.2-0.4 0.8-1.5 1.9-2.8 2.9-1.3 1.1-2.7 2.2-4 2.7-1.2 0.5-1.8 1.3-2.3 1.9 1.6-0.5 5.2-1.6 8.2-3 3.6-1.8 6.2-5 6.2-5l0.2-0.2 2.4 1.3-0.4 0.4c0 0-2.4 2.5-6.8 5-4.3 2.5-12 4.4-12.1 4.4-0.1 0.1-6.8 6.1-9.5 8.2-1.4 1-3.3 2.4-5.1 3.8-1.7 1.4-3.3 3-4.1 4.2-1.1 2-3.5 5.5-4.8 7.4q0 0 0 0.1 0 0 0 0-0.2 0.2-0.3 0.4l-0.7 0.9zm32.5-3.1l-0.4-0.8c0 0 1.1-0.6 2.9-2.6 1.8-2 2.9-3.9 2.9-3.9l0.4-0.7 0.3 0.7 1.1 2.2-0.1 0.2c0 0-0.6 0.6-2.3 2.2-1.8 1.7-4.6 2.6-4.7 2.7q-0.1 0-0.1 0c0 0 0 0 0 0zm-29.8-2.4c0.9-1.4 1.9-2.8 2.4-3.7 0.9-1.5 2.5-3 4.3-4.5 1.8-1.4 3.7-2.8 5.1-3.8 2.6-2 9.5-8.2 9.5-8.2v-0.1h0.1c0 0 7.9-1.9 12.1-4.3 4-2.3 5.8-4.3 6.1-4.6l-0.8-0.4c-0.2 0.3-2.5 3.2-6.2 4.9-3.8 1.9-9.6 3.5-9.6 3.5l-0.9 0.3 0.4-0.9c0 0 1.1-2.2 3.6-3.3 1.1-0.5 2.5-1.5 3.8-2.5 1.2-1.1 2.3-2.2 2.6-2.7 0.1-0.2 0.1-0.4 0-0.5-0.1-0.2-0.2-0.4-0.4-0.6-0.3-0.2-0.6-0.4-0.7-0.4-0.3 0.1-3.2 2-5.9 4.5-2.8 2.6-3.5 3.6-4.3 5.5-0.3 0.7-1 1.5-2 2.4-1 1-2.2 2.1-3.4 3.1-2.5 2-4.8 3.8-4.8 3.8 0 0-0.6 0.5-1.4 1.1-0.7 0.6-1.6 1.3-1.9 1.8-0.2 0.3-0.7 0.7-1.3 1.1-0.5 0.4-1.2 0.9-1.9 1.4-1.3 1-2.6 2.2-3 3.1-0.4 0.9-0.9 2.5-1.5 4zm32.3 0.3q1-0.5 1.7-1.2c1.6-1.5 1.9-1.9 2-2l-0.5-1c-0.3 0.5-1 1.7-2.6 3.4-0.2 0.3-0.4 0.6-0.6 0.8z"/><path class="d" d="m27.7 50.4c0.9-1.2 1.9-2.5 1.9-2.5 0 0 1.2 0.5 1.8-0.6 0.6-1.1-0.3-1.7-0.3-1.7 0 0-0.1 1.8-1.5 1.5-1.4-0.3-2.1-1.7-2.1-1.7l-1 0.6c0 0 1.9 1.5 1.6 2-0.4 0.5-1.6 1.2-2.4 2.3-0.8 1-0.7 1.1-0.7 1.1 0 0-1.4-0.3-1.5-2 0-1.7-1.8-1.7-1.8-1.7 0 0 0.4 3.2 1.6 3.8 1.2 0.7 1.2 1.4 0.9 2.1-0.4 0.7-2.1 2.3 0.2 10.2 1.2 4.3-1.5 9.5-2.6 10.7l11.1-9.2c0 0-4.2 1.9-5.4-0.3-1.2-2.2-3.4-9.2-1.9-10.9 0.7-0.8 1.9 0.9 4.5 0.1 2.6-0.8 2.5-1.2 2.5-1.2l-1.4 0.2c0 0-2.3 0.8-3.9 0.1-1.6-0.6-0.4-1.7 0.4-2.9z"/><path class="e" d="m29.7 51.4c0.5 0.1 0.2 0.4 0.2 0.4 0 0-0.8 2.1 0.3 2.3 1.1 0.3 1.4-0.2 1.4-0.2 0 0 0.2 0.8 1.1 0.6 0.9-0.3 1-0.6 1-0.6 0 0 0.2 0.7 0.8 0.9 0.7 0.2 0.8 0.1 0.8 0.1 0 0 0.5 1 1.5 0.9 1 0 1.6-1.1 1.6-1.1 0 0 0.5 0.8 1.5 0.3 1-0.5 1.2-1.1 1.2-1.1 0 0 3.1 0.5 2.8-1-0.3-1.5-1.1-1.7-1.7-1.9-0.6-0.2-1.2-0.2-1.2-0.2 0 0 0.1-0.3-0.4-0.6-0.6-0.4-0.6 0-0.6 0 0 0-0.9-2.6-2.1-2.6-1.2 0-2.2 0.1-2.4 0.5-0.2 0.4 0.1 1.2 0.1 1.2 0 0-0.5-0.1-0.8 0.3l-0.4 0.5c0 0-0.5-0.4-1 0.2-0.6 0.6-0.9 0.4-0.9 0.4 0 0-0.7-1.3-1.8-0.9-1.1 0.5-1.5 1.5-1 1.6z"/><path class="e" d="m11.5 57.5c0 0 0.1 1.3 1.3 1.3 1.2 0 3.4 0.3 3.4 0.3 0 0-0.1 1.6 1.4 1.8 1.5 0.2 1.9-0.5 1.9-0.5 0 0 2 0.9 2.1-0.2 0.1-1-0.6-1.7-1.3-1.6-0.6 0-1.3-0.2-1.3-0.2l-0.3-1.5c0 0 0.7-0.3 0.2-1.2-0.5-1-0.8-0.8-0.8-0.8 0 0 1.3-1.3 0.1-2-1.2-0.7-1.7 0.4-1.7 0.4 0 0-0.2-1-0.7-1.1-0.5-0.1-0.6-0.1-0.6-0.1 0 0 0.4-0.4 0.3-1.2v-0.7c0 0 1.4-0.2 1.3-0.6 0-0.5 1.3 0.7 1.8-0.2 0.5-0.8 0.3-0.9 0.3-0.9 0 0 1-1.1 1.4-0.3 0.5 0.8 1.1 1 1.6 1.4 0.6 0.5 2.1 1.1 2.8 0.4 0.7-0.6 1.2-1.7 0.5-2-0.7-0.3-0.8-1.9-0.2-1.4 0.5 0.6 1.8 0.9 2.8 0.5 0.9-0.4 0.9-1.4 1-2.2 0.1-0.7 0.6-0.3 0.6-0.3 0 0-0.3 2.2 0.8 2.5 1.1 0.4 1.5-0.2 1.5-0.2 0 0 0 0.7 1.2 0.5 1.2-0.1 1.1-0.8 0.8-1.5-0.3-0.6 0.3-0.2 0.8-0.7 0.6-0.5 0.3-2.1 0.3-2.1 0 0 0.6 0.4 1.9 1.4 1.4 1.1 2 2.3 2.3 1 0.4-1.4 0.4-1.7 0.4-1.7l1.5 0.6c0 0-1.7 1.6 0.6 2.1 2.4 0.5 4.3-0.4 3.6-2.5-0.7-2.2-1.4-3.6-2.9-3.5-1.4 0.2-1.7-0.1-1.7-0.1 0 0 0.6-1.5-0.7-1.8-1.3-0.3-2 0.7-2.4-0.3-0.5-1 1.1-2-1.7-2.3-2.7-0.2-1.9-1.9-3.5-1.4-1.5 0.5-1.7 2.1-1.7 2.1 0 0-0.3-1.6-1.4-1.6-1.1-0.1-2.2 0.3-2.2 0.3 0 0-0.6-1.5-2.2-0.9-1.6 0.6-1.8 3.5-1.8 3.5 0 0-0.8-1.4-2.6-0.7-1.8 0.8-3.6 3.4-3.6 3.4 0 0-2.5-0.5-2.9 1.2-0.5 1.7 0.2 3.1 0.2 3.1 0 0-0.6 1.1-0.8 1.8-0.2 0.6-0.1 1.5-0.1 1.5 0 0-0.9-0.4-1.2-0.3-0.4 0 0.2-2.1-0.9-2.1-1.1 0-5 0.7-4.1 4 0.1 0.5 1.3 0.4 1.3 0.4 0 0 0.4 1.1 1.4 0.7 1.1-0.5 2 0.4 2 0.4 0 0-1.9 0.7-2.8 1.5-0.8 0.8-0.4 2.9-0.4 2.9l1 1.4c0 0 0.2 0.7 1.4 0.6 1.2-0.1 0.7-0.3 0.7-0.3z"/><path class="f" d="m19.4 94.3q-0.3 0-0.7 0-0.3 0-0.6 0l-0.3-2.5q-0.1-0.5-0.3-0.7-0.2-0.2-0.7-0.2h-0.5l0.4 2.7q0.1 0.3-0.3 0.7h-1.8q0.2-0.6 0.4-0.9h0.4l-0.3-2.5h-0.6q0.1-0.7 0.4-1 0.6 0.1 1.1 0.1h1.1q1.1 0 1.5 0.6 0.3 0.3 0.4 1.2zm1.6-2.6q-0.1 0.2-0.2 0.3-0.3 0.4-0.9 0.6l-0.4-2.5q0.2-0.1 0.6-0.1 0.3 0 0.7 0zm3.8-1.7q1.3 0.9 1.5 2.3 0.1 0.9-0.2 1.4-0.5 0.6-1.5 0.6h-1q0.1-0.7 0.4-0.9h0.2q0.6 0 0.8-0.3 0.2-0.3 0.1-0.9-0.1-0.6-0.8-1.2-0.8 0.1-0.9 1.2l-0.2 2.1q-0.2 0.1-0.6 0.1-0.3 0-0.7-0.1 0.1-1 0.3-2.5-0.4-0.5-0.8-0.9 0.1-0.6 0.7-1.1 0.2 0.2 0.7 1 0.3-0.4 0.8-0.6 0.4-0.1 1.2-0.2zm3.7 4.3q-0.3 0.1-0.6 0.1-0.3 0-0.7-0.1l-0.6-4.2q0.3-0.1 0.6-0.1 0.3 0 0.7 0zm4.3-2.9q0.2 1.3-0.2 2-0.5 0.8-1.9 1.1 0-0.8 0.3-1.2 0.8-0.2 0.6-1.4v-0.1l-0.1-0.8h-2.9q0.1-0.7 0.4-1 0.5 0.1 1 0.1h2.3q0.4 0 0.4 0.4zm-2.2 4q-0.3 0.4-1.1 0.5l-0.5-3.7q0.3-0.1 0.6-0.1 0.3 0 0.6 0.1zm6-5.3q1.3 0.9 1.5 2.4 0.1 0.8-0.2 1.3-0.5 0.6-1.5 0.6h-1q0.1-0.7 0.4-0.9h0.2q0.6 0 0.8-0.3 0.2-0.3 0.1-0.9-0.1-0.6-0.8-1.2-0.8 0.1-0.9 1.2l-0.2 2.1q-0.2 0.1-0.6 0.1-0.3 0-0.7-0.1 0.1-1 0.3-2.4-0.4-0.6-0.8-1 0.1-0.6 0.7-1.1 0.2 0.2 0.7 1 0.3-0.4 0.8-0.6 0.4-0.1 1.2-0.2zm8.2 4.3q-0.2 0.1-0.6 0.1-0.3 0-0.6-0.1l-0.3-2.3q-0.1-0.4-0.3-0.7-0.2-0.3-0.9-0.3h-1.8q0.1-0.7 0.4-1.1 0.5 0.1 1.1 0.1h0.7q1.1 0 1.5 0.6 0.4 0.5 0.5 1.4zm-2.6 0q-0.3 0-0.7 0-0.3 0-0.6 0l-0.3-2.3q0.2-0.1 0.6-0.1 0.3 0 0.7 0.1zm6.3-4.4q0.2 0.8 0.2 1.1 0.2 1.1-0.6 1.6l0.9 1.1q0 0.4-0.4 0.6h-3.5q0.2-0.4 0.3-0.5 0.1-0.2 0.3-0.4h1.6l-2.6-2.8q0.4-0.6 1-0.7l1.7 1.9q0.2-0.2 0.1-0.7 0-0.1-0.2-0.8 0.3-0.4 1.1-0.4 0.1 0 0.1 0zm4.7 1.4q0.1 0.2 0.1 0.4 0.1 1-0.4 1.8-0.5 0.6-1.5 1-0.4 0.1-1.1 0.4l-0.6 0.2q0-0.9 0.2-1.3 0.3 0 0.9-0.2l-1.6-3.2q0.3-0.4 1-0.5l1.6 3.2q0.4-0.4 0.3-1.2-0.1-0.4-0.2-0.9 0 0-0.2-0.7 0.3-0.4 1.1-0.4 0 0 0.1 0zm2.3 3.1q-0.2 0-0.6 0-0.3 0-0.6 0l-0.6-4.3q0.2 0 0.5 0 0.4 0 0.7 0zm3.5-4.3q1.3 0.9 1.5 2.4 0.1 0.8-0.2 1.3-0.5 0.7-1.5 0.7h-1q0.1-0.7 0.4-1h0.2q0.6 0 0.8-0.3 0.1-0.3 0.1-0.8-0.1-0.7-0.8-1.3-0.8 0.1-0.9 1.2l-0.2 2.1q-0.2 0.1-0.6 0.1-0.3 0-0.7-0.1 0.1-1 0.3-2.4-0.4-0.6-0.8-1 0.1-0.6 0.7-1.1 0.2 0.3 0.7 1 0.3-0.4 0.8-0.6 0.4-0.1 1.2-0.2z"/><path class="c" d="m53.7 46.3q-0.7 1.8-2.1 2.5-1.3 0.5-3.3 0.3 0.6-1.1 1.1-1.3 0.9 0.1 1.4-0.2 0.7-0.3 1-1.1l0.4-1.1-2.7-1q-0.2 0-0.3-0.2-0.1-0.2 0-0.4l0.8-2.2q0.7-0.3 1.8 0l-0.8 2 2.7 1q0.5 0.2 0.3 0.8zm5.2 5.5q-0.8 0.6-1.6 0.5l-1.4-3.7q-0.5 0.2-1 1.4l-0.3 1.1q-0.4 0-0.8-0.2-0.4-0.1-0.8-0.4l0.5-1.3q0.5-1.3 1.9-1.8l-0.6-1.8q0.8-0.5 1.7-0.3l1.2 3.4q0.5-0.1 0.7-0.8 0.1-0.3 0.3-1.2 0.6-0.3 1.7 0.1 0 0 0.1 0.1l-0.2 0.8q-0.1 0.2-0.2 0.4-0.5 1.5-2 1.8zm2.1 1.5q-0.4 0-0.8-0.1-0.4-0.2-0.8-0.4l2-5.5q0.3 0 0.8 0.2 0.4 0.1 0.8 0.3zm3.9 0.6q-0.5 0.4-0.9 0.6l-2.6-1q0.6-0.7 1.2-0.9l1 0.3 0.7-1.9q0.4-1.1-0.3-1.6l-0.5-0.4q1.1-0.8 1.4-0.8 1.6 1.4 0.8 3.4zm7-2.9q1 1.8 0.3 3.7-0.3 1-1.1 1.5-1 0.6-2.4 0.1l-1.3-0.5q0.7-0.8 1.2-0.9l0.3 0.1q0.7 0.2 1.1-0.1 0.4-0.2 0.7-1 0.3-0.8-0.1-1.8-1.2-0.3-2 0.9l-1.7 2.6q-0.3 0-0.8-0.2-0.4-0.2-0.8-0.4 0.7-1.2 1.9-2.9-0.1-0.8-0.3-1.5 0.5-0.7 1.6-1.1 0.1 0.4 0.2 1.5 0.6-0.3 1.4-0.2 0.7 0 1.8 0.2zm6.4 4.3q0 0.3-0.1 0.6-0.5 1.3-1.7 2-1 0.6-2.5 0.5-0.7 0-1.8 0h-0.9q0.5-1.1 1.1-1.5 0.4 0 1.4 0.1l-0.1-4.6q0.7-0.4 1.6-0.2v4.7q0.8-0.2 1.2-1.4 0.2-0.5 0.3-1.1 0-0.1 0.2-1 0.7-0.3 1.7 0.1 0 0 0.1 0z"/><path class="b" d="m42.8 51.3l-10.6-3.8v-15.5l10.6 3.9"/><path class="c" d="m43.3 64.6v-31.8c0 0 0.5-6.8 8.1-6.8 5.6 0 7.3 4 7.3 4 0 0 1.6-4 7.2-4 7.6 0 8.1 6.8 8.1 6.8v31.8h-15.3zm3.4-4.2h12.1 12v-24.9c0 0 0-5.4-5.9-5.4-4.4 0-6.1 6.1-6.1 6.1 0 0-1.8-6.1-6.2-6.1-5.9 0-5.9 5.4-5.9 5.4z"/><path class="f" d="m58.7 65h-15.4v-0.4h0.4-0.4v0.4h-0.5v-32.2c0.1-0.1 0.2-1.9 1.3-3.7 1.2-1.8 3.4-3.6 7.3-3.6 4.3 0 6.5 2.4 7.3 3.6 0.8-1.2 2.9-3.6 7.2-3.6 4 0 6.2 1.8 7.3 3.6 1.1 1.8 1.3 3.6 1.3 3.7v32.2zm0-0.9h14.9v-31.3q0 0 0-0.2 0-0.3-0.2-0.8c-0.1-0.6-0.4-1.4-0.9-2.2-1-1.6-2.9-3.2-6.5-3.2-4.8 0-6.5 2.9-6.9 3.6q0 0.2 0 0.2l-0.4 1-0.4-1q0 0-0.1-0.2-0.1-0.1-0.2-0.4c-0.3-0.3-0.6-0.8-1.2-1.3-1-1-2.7-1.9-5.4-1.9-5.5 0-7 3.6-7.5 5.4-0.1 0.6-0.2 0.9-0.2 1v31.3zm0.1-3.3h-12-0.5v-25.3c0-0.1 0-1.5 0.8-2.9 0.8-1.5 2.5-2.9 5.6-2.9 2.4 0 4 1.7 5.1 3.2 0.4 0.8 0.8 1.5 1 2.1 0.3-0.6 0.6-1.3 1.1-2.1 1-1.5 2.6-3.2 5.1-3.2 3.1 0 4.7 1.4 5.5 2.9 0.8 1.4 0.8 2.8 0.8 2.9v25.3zm0-0.8h11.7v-24.5c-0.1 0 0-0.3-0.1-0.8-0.1-0.4-0.3-1.1-0.6-1.7-0.7-1.2-2-2.4-4.9-2.5-1.4 0-2.6 0.8-3.5 1.8-0.9 1.1-1.5 2.3-1.9 3.1-0.2 0.6-0.3 1-0.3 1l-0.4 1.4-0.4-1.4c0 0-0.1-0.4-0.3-1-0.2-0.5-0.6-1.3-1.1-2-0.9-1.5-2.3-2.9-4.3-2.9-4.2 0.1-5.1 2.8-5.4 4.2-0.1 0.5-0.1 0.8-0.1 0.8v24.5z"/><path class="b" d="m47.1 37.5l32.9 12v15.3l-32.9-11.9z"/><path class="c" d="m53.7 46.3q-0.7 1.8-2.1 2.5-1.3 0.5-3.3 0.3 0.6-1.1 1.1-1.3 0.9 0.1 1.4-0.2 0.7-0.3 1-1.1l0.4-1.1-2.7-1q-0.2 0-0.3-0.2-0.1-0.2 0-0.4l0.8-2.2q0.7-0.3 1.8 0l-0.8 2 2.7 1q0.5 0.2 0.3 0.8zm5.2 5.5q-0.8 0.6-1.6 0.5l-1.4-3.7q-0.5 0.2-1 1.4l-0.3 1.1q-0.4 0-0.8-0.2-0.4-0.1-0.8-0.4l0.5-1.3q0.5-1.3 1.9-1.8l-0.6-1.8q0.8-0.5 1.7-0.3l1.2 3.4q0.5-0.1 0.7-0.8 0.1-0.3 0.3-1.2 0.6-0.3 1.7 0.1 0 0 0.1 0.1l-0.2 0.8q-0.1 0.2-0.2 0.4-0.5 1.5-2 1.8zm2.1 1.5q-0.4 0-0.8-0.1-0.4-0.2-0.8-0.4l2-5.5q0.3 0 0.8 0.2 0.4 0.1 0.8 0.3zm3.9 0.6q-0.5 0.4-0.9 0.6l-2.6-1q0.6-0.7 1.2-0.9l1 0.3 0.7-1.9q0.4-1.1-0.3-1.6l-0.5-0.4q1.1-0.8 1.4-0.8 1.6 1.4 0.8 3.4zm7-2.9q1 1.8 0.3 3.7-0.3 1-1.1 1.5-1 0.6-2.4 0.1l-1.3-0.5q0.7-0.8 1.2-0.9l0.3 0.1q0.7 0.2 1.1-0.1 0.4-0.2 0.7-1 0.3-0.8-0.1-1.8-1.2-0.3-2 0.9l-1.7 2.6q-0.3 0-0.8-0.2-0.4-0.2-0.8-0.4 0.7-1.2 1.9-2.9-0.1-0.8-0.3-1.5 0.5-0.7 1.6-1.1 0.1 0.4 0.2 1.5 0.6-0.3 1.4-0.2 0.7 0 1.8 0.2zm6.4 4.3q0 0.3-0.1 0.6-0.5 1.3-1.7 2-1 0.6-2.5 0.5-0.7 0-1.8 0h-0.9q0.5-1.1 1.1-1.5 0.4 0 1.4 0.1l-0.1-4.6q0.7-0.4 1.6-0.2v4.7q0.8-0.2 1.2-1.4 0.2-0.5 0.3-1.1 0-0.1 0.2-1 0.7-0.3 1.7 0.1 0 0 0.1 0z"/></g></svg>