<svg version="1.2" xmlns="http://www.w3.org/2000/svg" viewBox="0 0 146 100" width="146" height="100"><defs><linearGradient id="P" gradientUnits="userSpaceOnUse"/><radialGradient id="g1" cx="0" cy="0" r="1" href="#P" gradientTransform="matrix(5.086,-11.044,11.044,5.086,22.53,89.634)"><stop stop-color="#426dad"/><stop offset=".5" stop-color="#2a497f"/><stop offset="1" stop-color="#2a3d69"/></radialGradient><radialGradient id="g2" cx="0" cy="0" r="1" href="#P" gradientTransform="matrix(.709,-9.839,9.839,.709,25.942,85.692)"><stop stop-color="#bd9223"/><stop offset=".5" stop-color="#e0c451"/><stop offset="1" stop-color="#827e68"/></radialGradient><radialGradient id="g3" cx="0" cy="0" r="1" href="#P" gradientTransform="matrix(.644,3.895,-3.895,.644,30.478,94.661)"><stop stop-color="#426dad"/><stop offset=".5" stop-color="#2a497f"/><stop offset="1" stop-color="#2a3d69"/></radialGradient><radialGradient id="g4" cx="0" cy="0" r="1" href="#P" gradientTransform="matrix(.701,3.885,-3.885,.701,13.017,93.682)"><stop stop-color="#426dad"/><stop offset=".5" stop-color="#2a497f"/><stop offset="1" stop-color="#2a3d69"/></radialGradient><radialGradient id="g5" cx="0" cy="0" r="1" href="#P" gradientTransform="matrix(.709,-9.839,9.839,.709,25.942,85.692)"><stop stop-color="#bd9223"/><stop offset=".5" stop-color="#e0c451"/><stop offset="1" stop-color="#827e68"/></radialGradient><linearGradient id="g6" x2="1" href="#P" gradientTransform="matrix(14.986,0,0,8.94,27.146,27.613)"><stop stop-color="#4a59b1"/><stop offset=".01" stop-color="#4a59b1"/><stop offset="1" stop-color="#2f386f"/></linearGradient><linearGradient id="g7" x2="1" href="#P" gradientTransform="matrix(22.864,12.82,-30.138,53.751,7.873,47.722)"><stop stop-color="#802896"/><stop offset=".01" stop-color="#802896"/><stop offset="1" stop-color="#53195c"/></linearGradient><linearGradient id="g8" x2="1" href="#P" gradientTransform="matrix(24.352,0,0,40.312,22.721,48.797)"><stop stop-color="#b41462"/><stop offset=".01" stop-color="#b41462"/><stop offset="1" stop-color="#7b0d3e"/></linearGradient><linearGradient id="g9" x2="1" href="#P" gradientTransform="matrix(29.532,0,0,21.707,42.139,23.904)"><stop stop-color="#3b9990"/><stop offset=".01" stop-color="#3b9990"/><stop offset="1" stop-color="#27635b"/></linearGradient><clipPath clipPathUnits="userSpaceOnUse" id="cp1"><path d="m-444.74 867.01h645.27v-918.84h-645.27z"/></clipPath><linearGradient id="g10" x2="1" href="#P" gradientTransform="matrix(34.798,0,0,33.123,37.94,47.381)"><stop stop-color="#cb1f2e"/><stop offset=".01" stop-color="#cb1f2e"/><stop offset="1" stop-color="#85131c"/></linearGradient><linearGradient id="g11" x2="1" href="#P" gradientTransform="matrix(15.946,0,0,18.966,100.33,14.759)"><stop stop-color="#3e8f37"/><stop offset=".01" stop-color="#3e8f37"/><stop offset="1" stop-color="#2b6224"/></linearGradient><linearGradient id="g12" x2="1" href="#P" gradientTransform="matrix(31.091,0,0,88.719,103.918,49.853)"><stop stop-color="#74c82c"/><stop offset=".01" stop-color="#74c82c"/><stop offset="1" stop-color="#4b811a"/></linearGradient><linearGradient id="g13" x2="1" href="#P" gradientTransform="matrix(22.59,0,0,55.68,101.36,47.452)"><stop stop-color="#e8ed26"/><stop offset=".01" stop-color="#e8ed26"/><stop offset="1" stop-color="#e3972b"/></linearGradient><linearGradient id="g14" x2="1" href="#P" gradientTransform="matrix(28.933,0,0,34.803,71.415,17.435)"><stop stop-color="#56abe3"/><stop offset=".01" stop-color="#56abe3"/><stop offset="1" stop-color="#3c759e"/></linearGradient><linearGradient id="g15" x2="1" href="#P" gradientTransform="matrix(51.805,0,0,33.36,71.419,25.236)"><stop stop-color="#604130"/><stop offset=".01" stop-color="#604130"/><stop offset="1" stop-color="#3a261a"/></linearGradient><linearGradient id="g16" x2="1" href="#P" gradientTransform="matrix(35.17,0,0,45.266,71.452,46.874)"><stop stop-color="#f36318"/><stop offset=".01" stop-color="#f36318"/><stop offset="1" stop-color="#e43f1c"/></linearGradient><clipPath clipPathUnits="userSpaceOnUse" id="cp2"><path d="m-444.74 867.01h645.27v-918.84h-645.27z"/></clipPath><clipPath clipPathUnits="userSpaceOnUse" id="cp3"><path d="m-444.74 867.01h645.27v-918.84h-645.27z"/></clipPath></defs><style>.a{fill:url(#g1)}.b{fill:#e0e5ea}.c{fill:#2f3858}.d{fill:#fff}.e{fill:#212263}.f{fill:url(#g2)}.g{fill:url(#g3)}.h{fill:url(#g4)}.i{fill:url(#g5)}.j{fill:url(#g6)}.k{fill:url(#g7)}.l{fill:url(#g8)}.m{fill:url(#g9)}.n{fill:#5b5b5d}.o{fill:url(#g10)}.p{fill:url(#g11)}.q{fill:url(#g12)}.r{fill:url(#g13)}.s{fill:url(#g14)}.t{fill:url(#g15)}.u{fill:url(#g16)}.v{fill:#24265d}.w{fill:#86c935}</style><g style="opacity:1"><path fill-rule="evenodd" class="a" d="m15.7 74.8v1h-1v-1h-1.2v22.1c0 1.1 0.9 2 2 2h5.8c0.6 0 1.3 0.5 1.4 1.1 0.1-0.6 0.7-1.1 1.3-1.1h6c1.1 0 1.9-0.9 1.9-2v-22.1h-1.1v1h-1v-1h-1.2v1h-1v-1h-1.1v1h-1.1v-1h-1.1v1h-1v-1h-1.2v1h-0.9v-1h-1.2v1h-1v-1h-1.2v1h-1v-1z"/><path fill-rule="evenodd" class="b" d="m12.2 94.4v3.4h-4.8c0.2-0.5 0.4-1.1 0.4-1.7q0-1-0.4-1.7z"/><path class="c" d="m12.3 97.9h-5.2l0.1-0.2c0.3-0.5 0.4-1.1 0.4-1.6q0-0.9-0.4-1.6l-0.1-0.2h5.2c0 0 0 3.6 0 3.6zm-4.7-0.3h4.4v-3h-4.4q0.3 0.7 0.3 1.5c0 0.5-0.1 1-0.3 1.5z"/><path fill-rule="evenodd" class="c" d="m10.1 96.3l0.1-0.2 2.1 1.5-0.2 0.3z"/><path fill-rule="evenodd" class="b" d="m33.2 94.4v3.4h4.9c-0.3-0.5-0.5-1.1-0.5-1.7q0-1 0.4-1.7z"/><path class="c" d="m33.1 97.9v-3.6h5.2l-0.1 0.2q-0.4 0.7-0.4 1.6c0 0.5 0.1 1.1 0.4 1.6l0.1 0.2zm0.3-3.3v3h4.4c-0.2-0.5-0.3-1-0.3-1.5q0-0.8 0.3-1.5z"/><path fill-rule="evenodd" class="c" d="m33.1 97.6l2.1-1.5 0.1 0.2-2 1.6z"/><path fill-rule="evenodd" class="b" d="m10.2 93.1h25.1v3.1h-25.1z"/><path class="c" d="m35.4 96.4h-25.4v-3.4h25.4c0 0 0 3.4 0 3.4zm-25.1-0.3h24.8v-2.9h-24.8z"/><path fill-rule="evenodd" class="d" d="m19.8 93.3c0-0.8 0.7-1.4 1.5-1.4 0.8 0 1.5 0.6 1.5 1.4 0-0.8 0.6-1.4 1.4-1.4 0.8 0 1.4 0.6 1.4 1.4v4.4h-5.8z"/><path class="e" d="m25.7 97.8h-6v-4.5c0-0.8 0.7-1.5 1.6-1.5 0.7 0 1.2 0.4 1.5 1 0.2-0.6 0.7-1 1.4-1 0.8 0 1.5 0.7 1.5 1.5zm-5.8-0.2h5.6v-4.2c0-0.8-0.6-1.4-1.3-1.4-0.8 0-1.3 0.6-1.3 1.4h-0.2c0-0.8-0.6-1.4-1.4-1.4-0.8 0-1.4 0.6-1.4 1.4z"/><path class="f" d="m18.4 77.3q-0.1 0-0.3 0 1.1 2.3 2.2 4.6-0.1 0.1-0.1 0.1-1.4-2.4-2.8-4.7-0.2 0-0.3 0 1.4 2.4 2.8 4.9-0.1 0-0.1 0-1.8-2.4-3.5-4.9-0.2 0-0.4 0 1.8 2.5 3.6 5.1-0.1 0.1-0.1 0.1-2.2-2.6-4.4-5.2-0.2 0-0.4 0 2.3 2.7 4.5 5.4 0 0-0.1 0.1-2.2-2.2-4.5-4.5 0 0.2 0 0.5 2.2 2.1 4.3 4.2-0.1 0.1-0.1 0.1-2.1-1.7-4.2-3.4c0 0.1 0 0.2 0 0.4q1.9 1.5 3.8 3.1c0.1 0.1 0.1 0.1 0.2 0.2q-0.1 0-0.1 0.1-1.9-1.4-3.9-2.7c0 0.1 0 0.3 0 0.4q1.9 1.2 3.7 2.5-0.1 0.1-0.1 0.2-1.8-1.1-3.6-2.1 0 0.2 0 0.4 1.7 0.9 3.4 1.9 0 0.1 0 0.1c0.7 0.1 1.3 0.5 1.8 0.9 0.7 0.6 1.3 1.2 1.9 1.9 0.4 0.4 0.8 0.8 1.2 1.1 0 0 1.1 0.9 1.8 0.6-0.4-0.2-0.8-0.4-1-0.8q0.7-0.7 1.6-1.2c0.6-0.2 1.2-0.5 1.8-0.5q0.6 0 1.2 0.1 0.1 0 0.3 0 1.2-0.1 2.4-0.2 0-0.1 0-0.3-1.4 0.1-2.8 0.3 0-0.1 0-0.2 1.4-0.3 2.8-0.5 0-0.2 0-0.3-1.4 0.2-2.9 0.5 0-0.1 0-0.2 1.4-0.4 2.9-0.8 0-0.1 0-0.3-1.5 0.4-3 0.8 0-0.1-0.1-0.1 1.6-0.6 3.1-1.2 0-0.1 0-0.3-1.6 0.6-3.2 1.2 0-0.1-0.1-0.2 1.7-0.7 3.3-1.5 0-0.2 0-0.3-1.7 0.8-3.4 1.6 0-0.1-0.1-0.2c1.2-0.7 2.3-1.3 3.5-2q0-0.2 0-0.3-1.8 1-3.6 2.1-0.1-0.1-0.1-0.2 1.8-1.3 3.7-2.6 0-0.2 0-0.4-2 1.4-3.9 2.8-0.1-0.1-0.1-0.1 0.5-0.5 1.1-1 1.4-1.2 2.9-2.4 0-0.2 0-0.4-2.1 1.8-4.2 3.5-0.1 0-0.1-0.1 2.1-2.2 4.3-4.3 0-0.2 0-0.5-2.3 2.3-4.6 4.6 0-0.1-0.1-0.1 2.3-2.7 4.6-5.4c-0.2 0-0.3 0-0.4 0q-2.2 2.6-4.4 5.2-0.1 0-0.2-0.1 1.8-2.6 3.6-5.1-0.1 0-0.3 0-1.8 2.5-3.5 4.9-0.1 0-0.1 0 1.4-2.5 2.8-4.9-0.2 0-0.4 0-1.3 2.3-2.7 4.7-0.1 0-0.2-0.1 1.1-2.3 2.2-4.6-0.1 0-0.3 0-1.1 2.2-2.1 4.5-0.1 0-0.2 0 0.8-2.3 1.7-4.5-0.2 0-0.4 0-0.8 2.2-1.6 4.4 0-0.1-0.1-0.1 0.6-2.2 1.1-4.3-0.1 0-0.3 0-0.5 2.1-1.1 4.2-0.1 0-0.2 0 0.4-2.1 0.8-4.2-0.2 0-0.3 0-0.4 2.1-0.8 4.2 0-0.1-0.1-0.1 0.2-2 0.3-4.1-0.1 0-0.3 0-0.1 2-0.3 4.1-0.1 0-0.2 0 0-2.1 0-4.1-0.1 0-0.3 0 0 2 0 4.1-0.1 0-0.1 0-0.2-2.1-0.4-4.1-0.1 0-0.3 0 0.2 2.1 0.4 4.1-0.1 0-0.2 0.1-0.4-2.1-0.7-4.2-0.2 0-0.3 0 0.3 2.1 0.7 4.2-0.1 0-0.1 0-0.6-2.1-1.2-4.2-0.1 0-0.3 0 0.6 2.1 1.2 4.3-0.1 0-0.2 0.1-0.8-2.2-1.6-4.4-0.1 0-0.3 0 0.8 2.2 1.6 4.5-0.1 0-0.1 0-1.1-2.3-2.2-4.5zm-3.9 5.6q0 0.2 0 0.4 1.1 0.4 2.2 0.9c0.1 0.1 0.1 0.1 0.2 0.1q0.4 0 0.7 0-1.5-0.7-3.1-1.4zm0 0.9q0 0.1 0 0.3 0.6 0.2 1.3 0.4 0.2-0.1 0.5-0.1-0.1 0-0.1 0-0.8-0.3-1.7-0.6zm0 0.7q0 0.2 0 0.3 0.2 0.1 0.4 0.1 0.2-0.1 0.3-0.2-0.3-0.1-0.7-0.2zm15 2.2q-0.1 0-0.3 0 0.4 0.2 0.8 0.3 0.4 0 0.9 0 0-0.1 0-0.3-0.7 0-1.4 0z"/><path class="g" d="m32.4 93.7q-0.1 0-0.1 0.1 0 0 0 0l0.3 1.4-0.3 0.2q0 0 0 0 0 0 0 0.1v0.1q0 0.1 0.1 0.1 0 0 0-0.1l0.6-0.2q0.4-0.1 0.5-0.3 0.2-0.2 0.2-0.5v-0.8q0-0.1 0-0.1h-0.3q-0.1 0-0.1 0 0 0 0 0.1v0.9q0 0.2-0.1 0.3-0.1 0.1-0.2 0.1l-0.3-1.3q0-0.1-0.1-0.1zm-0.5 0q-0.1 0-0.1 0 0 0 0 0.1v1q0 0 0.1 0 0 0 0 0l0.3-0.1q0-0.1 0-0.2v-0.7q0-0.1 0-0.1zm-2.1 0q0 0 0 0 0 0 0 0.1v1q0 0 0 0 0 0 0 0l0.3-0.1q0.1-0.1 0.1-0.1v-0.8q0-0.1-0.1-0.1zm-0.6 0q0 0-0.1 0 0 0 0 0.1v1q0 0 0.1 0 0 0 0 0l0.3-0.1q0-0.1 0-0.1v-0.8q0-0.1 0-0.1zm1.7 0q-0.4 0-0.6 0.1 0 0 0 0 0 0 0 0 0 0 0 0.1l0.1 0.1q0 0.1 0 0.1 0.2-0.1 0.4-0.1 0.3 0 0.3 0.3v1.1q0 0 0.1 0h0.3q0 0 0 0v-1.1q0-0.6-0.6-0.6zm-2.8 0q-0.4 0-0.7 0.1-0.1 0-0.1 0 0 0 0 0.1l0.1 0.1q0 0.1 0.1 0.1l0.1-0.1-0.1 1q0 0.1 0 0.2-0.1 0-0.2 0-0.1 0.1-0.1 0.1 0 0 0 0l0.1 0.2q0 0 0 0 0.6 0 0.6-0.5l0.1-1q0-0.1 0.1-0.1 0.4 0 0.4 0.4v1.1q0 0 0.1 0h0.2q0.1 0 0.1 0v-1.1q0-0.4-0.3-0.5-0.1-0.1-0.5-0.1z"/><path class="h" d="m15.3 94.4q0 0 0 0.1v0.2q0 0 0 0h0.9q0 0 0 0v-0.2q0-0.1 0-0.1zm-4.4-0.1q0 0 0 0.1v1.6q0 0 0 0h0.3q0.1 0 0.1 0v-1.6q0-0.1-0.1-0.1zm5.4-0.6q0 0 0 0 0 0 0 0.1v1q0 0 0 0 0 0 0 0l0.3-0.1q0.1-0.1 0.1-0.2v-0.7q0-0.1-0.1-0.1zm2 0q-0.4 0-0.5 0.1 0 0 0 0 0 0 0 0 0 0 0 0v0.2q0.1 0.1 0.1 0 0.1 0 0.3 0 0.1 0 0.2 0 0.1 0.1 0.1 0.3v0.8h-0.7q0 0 0 0.1v0.2q0 0 0 0h1.2q0.1 0 0.1 0v-0.2q0-0.1-0.1-0.1h-0.1v-0.8q0-0.3-0.1-0.4-0.2-0.2-0.5-0.2zm-4.1 0q-0.3 0-0.5 0.1 0 0 0 0 0 0 0 0 0 0 0 0l0.1 0.2q0 0.1 0 0 0.2 0 0.3 0 0.2 0 0.2 0 0.2 0.1 0.2 0.3v0.8h-0.7q-0.1 0-0.1 0.1v0.2q0 0 0.1 0h1.2q0 0 0 0v-0.2q0-0.1 0-0.1h-0.1v-0.8q0-0.3-0.2-0.4-0.2-0.2-0.5-0.2zm-1.3 0q-0.4 0-0.6 0.1 0 0 0 0 0 0 0 0 0 0 0 0.1l0.1 0.1q0 0.1 0 0.1 0.2-0.1 0.4-0.1 0.3 0 0.3 0.3v1.1q0 0 0.1 0h0.3q0 0 0 0v-1.1q0-0.6-0.6-0.6zm4.1 0q-0.1 0-0.1 0v0.2q0 0 0 0 0 0.1 0 0.1 0.3 0 0.3 0.3v0.8h-0.4q0 0 0 0.1v0.2q0 0 0 0h0.8q0 0 0 0v-1.1q0-0.6-0.6-0.6 0 0 0 0zm-5.6 0q-0.4 0-0.6 0.1-0.1 0-0.1 0 0 0 0 0.1l0.1 0.1q0 0.1 0.1 0.1 0 0 0 0 0.2-0.1 0.5-0.1 0.2 0 0.3 0.1 0.1 0 0.1 0.2 0 0.4-0.1 0.6-0.1 0.3-0.2 0.3 0 0-0.1 0 0 0 0 0v0.2q0 0 0 0 0.1 0.1 0.2 0.1 0.3 0 0.5-0.4 0.1-0.3 0.1-0.8 0-0.4-0.2-0.5-0.2-0.1-0.6-0.1z"/><path class="i" d="m18.4 77.3q-0.1 0-0.3 0 1.1 2.3 2.2 4.6-0.1 0.1-0.1 0.1-1.4-2.4-2.8-4.7-0.2 0-0.3 0 1.4 2.4 2.8 4.9-0.1 0-0.1 0-1.8-2.4-3.5-4.9-0.2 0-0.4 0 1.8 2.5 3.6 5.1-0.1 0.1-0.1 0.1-2.2-2.6-4.4-5.2-0.2 0-0.4 0 2.3 2.7 4.5 5.4 0 0-0.1 0.1-2.2-2.2-4.5-4.5 0 0.2 0 0.5 2.2 2.1 4.3 4.2-0.1 0.1-0.1 0.1-2.1-1.7-4.2-3.4c0 0.1 0 0.2 0 0.4q1.9 1.5 3.8 3.1c0.1 0.1 0.1 0.1 0.2 0.2q-0.1 0-0.1 0.1-1.9-1.4-3.9-2.7c0 0.1 0 0.3 0 0.4q1.9 1.2 3.7 2.5-0.1 0.1-0.1 0.2-1.8-1.1-3.6-2.1 0 0.2 0 0.4 1.7 0.9 3.4 1.9 0 0.1 0 0.1c0.7 0.1 1.3 0.5 1.8 0.9 0.7 0.6 1.3 1.2 1.9 1.9 0.4 0.4 0.8 0.8 1.2 1.1 0 0 1.1 0.9 1.8 0.6-0.4-0.2-0.8-0.4-1-0.8q0.7-0.7 1.6-1.2c0.6-0.2 1.2-0.5 1.8-0.5q0.6 0 1.2 0.1 0.1 0 0.3 0 1.2-0.1 2.4-0.2 0-0.1 0-0.3-1.4 0.1-2.8 0.3 0-0.1 0-0.2 1.4-0.3 2.8-0.5 0-0.2 0-0.3-1.4 0.2-2.9 0.5 0-0.1 0-0.2 1.4-0.4 2.9-0.8 0-0.1 0-0.3-1.5 0.4-3 0.8 0-0.1-0.1-0.1 1.6-0.6 3.1-1.2 0-0.1 0-0.3-1.6 0.6-3.2 1.2 0-0.1-0.1-0.2 1.7-0.7 3.3-1.5 0-0.2 0-0.3-1.7 0.8-3.4 1.6 0-0.1-0.1-0.2c1.2-0.7 2.3-1.3 3.5-2q0-0.2 0-0.3-1.8 1-3.6 2.1-0.1-0.1-0.1-0.2 1.8-1.3 3.7-2.6 0-0.2 0-0.4-2 1.4-3.9 2.8-0.1-0.1-0.1-0.1 0.5-0.5 1.1-1 1.4-1.2 2.9-2.4 0-0.2 0-0.4-2.1 1.8-4.2 3.5-0.1 0-0.1-0.1 2.1-2.2 4.3-4.3 0-0.2 0-0.5-2.3 2.3-4.6 4.6 0-0.1-0.1-0.1 2.3-2.7 4.6-5.4c-0.2 0-0.3 0-0.4 0q-2.2 2.6-4.4 5.2-0.1 0-0.2-0.1 1.8-2.6 3.6-5.1-0.1 0-0.3 0-1.8 2.5-3.5 4.9-0.1 0-0.1 0 1.4-2.5 2.8-4.9-0.2 0-0.4 0-1.3 2.3-2.7 4.7-0.1 0-0.2-0.1 1.1-2.3 2.2-4.6-0.1 0-0.3 0-1.1 2.2-2.1 4.5-0.1 0-0.2 0 0.8-2.3 1.7-4.5-0.2 0-0.4 0-0.8 2.2-1.6 4.4 0-0.1-0.1-0.1 0.6-2.2 1.1-4.3-0.1 0-0.3 0-0.5 2.1-1.1 4.2-0.1 0-0.2 0 0.4-2.1 0.8-4.2-0.2 0-0.3 0-0.4 2.1-0.8 4.2 0-0.1-0.1-0.1 0.2-2 0.3-4.1-0.1 0-0.3 0-0.1 2-0.3 4.1-0.1 0-0.2 0 0-2.1 0-4.1-0.1 0-0.3 0 0 2 0 4.1-0.1 0-0.1 0-0.2-2.1-0.4-4.1-0.1 0-0.3 0 0.2 2.1 0.4 4.1-0.1 0-0.2 0.1-0.4-2.1-0.7-4.2-0.2 0-0.3 0 0.3 2.1 0.7 4.2-0.1 0-0.1 0-0.6-2.1-1.2-4.2-0.1 0-0.3 0 0.6 2.1 1.2 4.3-0.1 0-0.2 0.1-0.8-2.2-1.6-4.4-0.1 0-0.3 0 0.8 2.2 1.6 4.5-0.1 0-0.1 0-1.1-2.3-2.2-4.5zm-3.9 5.6q0 0.2 0 0.4 1.1 0.4 2.2 0.9c0.1 0.1 0.1 0.1 0.2 0.1q0.4 0 0.7 0-1.5-0.7-3.1-1.4zm0 0.9q0 0.1 0 0.3 0.6 0.2 1.3 0.4 0.2-0.1 0.5-0.1-0.1 0-0.1 0-0.8-0.3-1.7-0.6zm0 0.7q0 0.2 0 0.3 0.2 0.1 0.4 0.1 0.2-0.1 0.3-0.2-0.3-0.1-0.7-0.2zm15 2.2q-0.1 0-0.3 0 0.4 0.2 0.8 0.3 0.4 0 0.9 0 0-0.1 0-0.3-0.7 0-1.4 0z"/><path class="j" d="m29.1 23.1q-1 4.5-2 9 6.9-1.2 14.4-1.3 0.3-3.2 0.6-6.4c-4.6-0.8-8.9-1.3-12.8-1.3z"/><path class="k" d="m14.8 35.3q-6.1 18-12.2 36 8.5-2.7 17.1-4.5 3.7-17.3 7.4-34.7-6.4 1.1-12.3 3.2z"/><path class="l" d="m27.1 32.1q-3.7 17.4-7.4 34.7 9.1-1.9 18.2-2.9 1.8-16.6 3.6-33.1-7.5 0.1-14.4 1.3z"/><path class="m" d="m42.1 24.4c8.9 1.7 18.9 5.1 29.6 10.4-10.9-9.8-20.5-16.9-28.4-21.7q-0.6 5.6-1.2 11.3z"/><g clip-path="url(#cp1)"><path class="n" d="m71.7 34.8c-10.7-5.3-20.7-8.7-29.6-10.4q-0.3 3.2-0.6 6.4c9.4-0.1 19.6 1.2 30.2 4z"/></g><path class="o" d="m41.5 30.8q-1.8 16.5-3.6 33.1c11.7-1.3 23.3-1.4 34.9-0.5q-0.6-14.3-1.1-28.6c-10.2-2.7-19.9-4-29.1-4q-0.6 0-1.1 0z"/><path class="p" d="m100.4 15.5q0.5 4.4 1 8.7 7.5-2.4 14.9-4.6-1-7.2-2-14.3-6.8 5.1-13.9 10.2z"/><path class="q" d="m116.3 19.6q3.8 27.9 7.7 55.7c5.3 2.1 11 6 16.2 8.6-3.3-22.2-7-45.9-10.3-68.2q-6.7 1.9-13.6 3.9z"/><path class="r" d="m101.4 24.2q2.6 22.7 5.2 45.3 8.8 2.5 17.4 5.8-3.9-27.8-7.7-55.7-7.4 2.2-14.9 4.6z"/><path class="s" d="m71.4 34.8c10.3-6.4 19.8-12.8 29-19.3q-0.9-7.7-1.8-15.5c-8.2 12.4-17.1 23.9-27.2 34.8z"/><path class="t" d="m71.4 34.8c10.3-4 20.3-7.4 30-10.6q-0.5-4.3-1-8.7c-9.2 6.5-18.7 12.9-29 19.3z"/><path class="u" d="m71.4 34.8q0.6 14.3 1.1 28.6c11.5 1 22.9 3 34.1 6.1q-2.6-22.6-5.2-45.3c-9.7 3.2-19.7 6.6-30 10.6z"/><g clip-path="url(#cp2)"><path class="d" d="m4.6 65.4c-0.3 0.7-1.6 4.5-1.9 5.7 4.2-4.2 28.3-25.7 53.9-7.8 0 0-1.9-1.8-5.5-3.8q0-2.1 0-4c4.9-9.6 14.5-13.3 21.8-7.2 2.5 2.1 4.4 3.8 5.7 6.8-1.7 1.9-3.2 4.3-4.3 6.9l0.5-0.1q-1.6 0.5-3.2 1.2 1 0.3 2 0.8 0.2-0.1 0.4-0.1 0.8 0.3 1.6 0.8c10.7-2.6 24.8-2.7 40.2 5.9-0.9-0.8-8.3-7.2-20.4-9.2 5.6 0.4 11.4 1.8 17.4 4.6 0 0-2.9-2.3-8-4.2-0.8-2.6-1.9-5-3.3-7l16.2-10c-0.4 8 0 16.3-0.2 26q0.6 0.6 1.1 1.2c0.5-12.7 1.2-23.2 1.6-28.2l14.8 10.8c0 0-0.7-0.4-6.9 24.2 0.2 0.2 2.6 3 2.9 3.2 1.8-12.7 3.8-23.1 5-27.7l-16-14.5-20.1 13q-0.8-1-1.8-1.8c-5.8-4.7-13.7-2.3-19.3 3.9-1.3-4-3.4-7.3-6.4-9.8-7.3-6.1-16.5-3-21.2 6.9 0.1-5.8 0.2-10.2 0.2-10.2-8.7-0.7-15.7 2.7-21.5 5.7-5.2-3.6-9.6-7.3-9.6-7.3-2.4 5.3-3.4 16.9-3.5 18.4-3.9 1.6-8 3.8-12.2 6.9zm45-6.7q0.1 0 0.3 0.2c-6.5-3.4-17.6-6.5-31.8-0.9 0.1-3.1 2.7-15.4 2.7-15.4 11.7 12.1 20.3 11.2 20.3 11.2-2.7-0.9-6.3-3.1-9.7-5.4 10.7-5.1 19.5-2.8 19.5-2.8-1 5.1-1.4 8.6-1.3 13.1zm55 2.9c-6.2-2.3-15.6-4.1-27.2-0.6 5-10.3 15.8-13.7 22.6-6.6 3.1 3.2 3.8 4.5 4.6 7.2z"/><path class="v" d="m0 74.8c10.9-5.3 81.6-28.4 146.4 13.9 0 0-49.9-46.3-146.1-17.2-0.1 0-0.2 2.3-0.3 3.3z"/><path class="v" d="m69.1 92.6h-4.8v-10.1q-0.1-3.3-3-3.3-2.4 0-4.2 0.7v-5.4q1.7-0.3 4.1-0.3 4.1-0.1 5.9 1.7 2 2 2 6.5z"/><path class="v" d="m83.9 92.5l-13.5 0.1v-5l5.2-0.1q1.5 0 1.8-0.3 0.5-0.5 0.5-3.1 0-4.9-3.7-4.9-1.9 0-3.6 0.8l-0.1-5.3q2-0.5 4.7-0.5 3.8-0.1 5.6 1.8 2 2 2 6.4 0 3.2-1 5.1h2.1z"/><path class="v" d="m93.8 84.6h-4.8v-10.3l4.8-0.1z"/><path class="v" d="m103.8 92.5h-8.8v-5h3.9v-6.3q0-2-1.7-2-0.9 0-2 0.7v-5.2q1-0.6 2.8-0.6 3.3 0 4.6 2 1.1 1.7 1.1 5.3z"/><path class="v" d="m118.6 92.4l-13.6 0.1v-5.1h5.3q1.4 0 1.7-0.3 0.6-0.5 0.6-3.2-0.1-4.9-3.8-4.8-1.8 0-3.6 0.8v-5.3q1.9-0.6 4.7-0.6 3.7 0 5.6 1.9 2 2 2 6.4 0 3.2-1 5.1h2.1z"/></g><g clip-path="url(#cp3)"><path class="v" d="m51 98.8h-2.5l0.4-3q0.6-0.1 1.1-0.1h0.1q0.6 0 0.9 0.2 0.4 0.3 0.3 1zm-0.7-0.8l0.1-0.9q0.1-0.5-0.4-0.5-0.2 0-0.4 0l-0.2 1.4z"/><path class="v" d="m53.8 96.6q0 0.4-0.5 1.1 0 0.1-0.7 1.1h-0.9v-0.1q0.3-0.4 0.6-0.9 0.4-0.5 0.6-0.9 0.1 0 0.1-0.1 0-0.2-0.2-0.2h-1.2l0.2-1.8h0.9l-0.2 0.9h0.6q0.9 0 0.7 0.9z"/><path class="v" d="m54.6 98.8h-0.8l0.4-3.1h0.9z"/><path class="v" d="m57.6 96.9q-0.1 1-0.6 1.5-0.5 0.4-1.1 0.4h-1.1l0.2-0.8h0.6q-0.2-1.2-0.3-2.3h0.9q0 0.8 0.2 2.2 0.1 0 0.2-0.2 0.1-0.1 0.2-0.4l0.2-1.6h0.8z"/><path class="v" d="m61.2 98.8h-0.9q-0.2-0.5-0.6-1.4-0.2 0.2-0.3 0.6l-0.1 0.8h-0.8l0.1-0.7q0.1-0.9 0.8-1.4-0.2-0.3-0.5-0.9v-0.1h0.9q0.2 0.4 0.6 1.2 0.1-0.1 0.2-0.5l0.1-0.7h0.8l-0.1 0.7q0 0.4-0.3 0.7-0.1 0.2-0.4 0.4 0.1 0.4 0.5 1.2z"/><path class="v" d="m62.4 97.5h-0.8l0.2-1.8h0.9z"/><path class="v" d="m64.9 98.8h-0.8l0.3-1.6q0.1-0.7-0.6-0.7-0.4 0-1 0.2l0.1-0.9q0.6-0.1 1.1-0.1 0.8 0 1 0.3 0.3 0.4 0.2 1.1zm-1.6 0h-0.8l0.2-1.7h0.8z"/><path class="v" d="m68.7 97q-0.1 0.5-0.2 0.9-0.2 0.3-0.5 0.6-0.5 0.4-1.2 0.4h-0.1q-0.7 0-1-0.4-0.2-0.3-0.2-0.6-0.1-0.3 0-0.8l0.2-1.4h0.8l-0.2 1.7q-0.1 0.4 0.1 0.5 0.1 0.1 0.5 0.1 0.4 0 0.6-0.1 0.2-0.2 0.3-0.6l0.3-1.6h0.8zm-1.3 0.6h-0.8l0.3-1.9h0.8z"/><path class="v" d="m71.5 98.8h-0.8l0.3-1.7q0.1-0.6-0.4-0.6-0.4 0-0.8 0.2l0.2-0.9q0.3-0.1 0.7-0.1 0.7 0 0.9 0.3 0.3 0.3 0.2 1.1z"/><path class="v" d="m72.9 97.5h-0.9l0.3-1.8h0.8z"/><path class="v" d="m75.7 96.9q-0.2 1-0.7 1.5-0.5 0.4-1.1 0.4h-1l0.1-0.8h0.6q-0.1-1.2-0.2-2.3h0.8q0.1 0.8 0.2 2.2 0.2 0 0.3-0.2 0.1-0.1 0.1-0.4l0.2-1.6h0.9z"/><path class="v" d="m81.8 98.8h-0.9l0.3-1.8q0.1-0.5-0.4-0.5-0.1 0-0.3 0.1l-0.2 1.1q-0.1 0.5-0.3 0.8-0.3 0.3-0.7 0.3-0.2 0-0.3 0l0.1-0.9q0.1 0.1 0.2 0.1 0.2 0 0.2-0.2l0.3-2q0.5-0.1 1.1-0.1 0.6 0 0.9 0.2 0.3 0.3 0.2 1.1z"/><path class="v" d="m82.9 98.8h-0.8l0.5-3.1h0.8z"/><path class="v" d="m85.7 96.4q-0.2 0.1-0.3 0.2-0.1 0.1-0.1 0.4l-0.3 1.8h-0.8q0-0.4 0.1-1.1 0.1-0.7 0.3-1.1h-1.1l0.1-0.9h2.3z"/><path class="v" d="m86.7 97.5h-0.9l0.3-1.8h0.8z"/><path class="v" d="m89.6 97.2q-0.1 0.8-0.6 1.3-0.4 0.4-1 0.4h-0.1q-0.5 0-0.8-0.4-0.2-0.5-0.1-1.2l0.2-1.5q0.5-0.1 1.3-0.1 1.4 0 1.1 1.5zm-0.8 0q0-0.4-0.1-0.6-0.2-0.1-0.4-0.1-0.2 0-0.4 0.1l-0.1 0.7q-0.1 0.7 0.4 0.7 0.2 0 0.4-0.2 0.1-0.1 0.2-0.6z"/><path class="v" d="m92.2 98.8h-0.8l0.2-1.7q0.1-0.6-0.4-0.6h-0.1q-0.1 0-0.3 0.1l-0.3 2.2h-0.8l0.4-3q0.6-0.1 1.2-0.1 1.4 0 1.2 1.3z"/><path class="v" d="m97.7 99.9h-0.8l0.4-2.7q0.1-0.3-0.1-0.5-0.1-0.1-0.3-0.1-0.4 0-0.8 0.1l0.2-0.9q0.3-0.1 0.8-0.1 1.3 0 1 1.5z"/><path class="v" d="m99.1 98.8h-0.9l0.5-3.1h0.8z"/><path class="v" d="m100.8 98.8h-1.5l0.2-0.8h0.6l0.2-1.1q0.1-0.3-0.2-0.3-0.2 0-0.4 0.1l0.1-0.9q0.2-0.1 0.5-0.1 0.6 0 0.8 0.3 0.1 0.3 0 0.9z"/><path class="v" d="m102.2 97.5h-0.9l0.3-1.8h0.8z"/><path class="v" d="m104.8 98.8h-0.8l0.2-1.7q0.1-0.6-0.4-0.6-0.2 0-0.4 0.1l-0.3 2.2h-0.8l0.4-3q0.6-0.1 1.2-0.1 1.4 0 1.2 1.3z"/><path class="v" d="m110.9 98.8h-0.8l0.3-1.6q0.1-0.7-0.6-0.7-0.4 0-1 0.2l0.1-0.9q0.6-0.1 1.1-0.1 0.8 0 1 0.3 0.3 0.4 0.2 1.1zm-1.6 0h-0.9l0.3-1.7h0.8z"/><path class="v" d="m113.2 98.8h-0.8l0.3-1.7q0.1-0.6-0.4-0.6-0.4 0-0.8 0.2l0.2-0.9q0.3-0.1 0.7-0.1 0.7 0 0.9 0.3 0.3 0.3 0.2 1.1z"/><path class="v" d="m114.4 98.8h-0.8l0.4-3.1h0.9z"/><path class="v" d="m117.4 98.8h-0.8l0.3-1.8q0-0.5-0.4-0.5-0.1 0-0.3 0.1l-0.2 1.1q-0.1 0.5-0.3 0.8-0.3 0.3-0.7 0.3-0.2 0-0.4 0l0.2-0.9q0.1 0.1 0.2 0.1 0.1 0 0.1-0.2l0.4-2q0.5-0.1 1-0.1 0.7 0 1 0.2 0.3 0.3 0.2 1.1z"/><path class="w" d="m78.3 97c0 0.3-0.3 0.5-0.5 0.5-0.3 0-0.5-0.2-0.5-0.5 0-0.2 0.2-0.5 0.5-0.5 0.2 0 0.5 0.3 0.5 0.5z"/><path class="w" d="m94.9 97c0 0.3-0.2 0.5-0.5 0.5-0.3 0-0.5-0.2-0.5-0.5 0-0.2 0.2-0.5 0.5-0.5 0.3 0 0.5 0.3 0.5 0.5z"/><path class="w" d="m107.3 97c0 0.3-0.2 0.5-0.5 0.5-0.3 0-0.5-0.2-0.5-0.5 0-0.2 0.2-0.5 0.5-0.5 0.3 0 0.5 0.3 0.5 0.5z"/><path class="v" d="m46.2 99.3h-4.9v-17.4h4.8zm10.1-18.7q0 2.6-1.2 5.6-1.9 4.4-2.8 6.5h-4.9v-0.6q1.4-3 3.7-8.5 0.4-1 0.4-1.8 0-1-0.6-1.7-0.6-0.6-1.6-0.6h-8.3v-5.1h9.2q2.8 0 4.4 1.6 1.7 1.7 1.7 4.6z"/></g></g></svg>