<svg version="1.2" xmlns="http://www.w3.org/2000/svg" viewBox="0 0 649 856" width="649" height="856"><style>.a{opacity:1}.b{opacity:1;fill:#fff}.c{opacity:1;fill:#fff200}.d{opacity:1;fill:#01a650}.e{opacity:1;fill:#ed1c25}</style><path class="a" d="m648.5 191.2l-61.7-123.5c-152.9 0-200.7-28.2-263.1-67-126.1 73.8-199.5 69.5-265.2 75.5 0 0-39.3 87.4-57.8 128.1 37.7 21.6 63.2 68.4 59.6 110.8-5.2 62.1-7.7 120-15.2 185.4-3.2 27.9-10.9 92.1-6.9 123.2 9.6 74 41.7 141.8 140.9 176.3 27.5 9.5 86.3 6.2 106.2 16.2 17.6 8.9 38.5 24.4 47 39.8 5.2-11.2 21.1-28 31.3-34 41.2-24.3 85.4-15.9 127.1-31 99.3-35.8 146.2-130.5 133.3-229-5.7-43.8-10.7-87.9-18-131.4-6.3-37.6-14.5-73.1-14.5-111.3 0-42.1 5.3-89.5 57-128.1z"/><path class="b" d="m593.9 232.5c-3.4 7-14.2 34.8-14.2 55.4v34.7c-0.9 0.9-0.1 0.4-2.5 0.4-9.7 0-34.9-30.8-37.5-32.4-5.4-3.4-14.6-8.2-21.3-9.8-13.2-3.2-19-3.8-33.2 3.3-10.3 5.2-26.4 19.9-38.6 15.3-2.7-1-5.6-6.2-8-9.2-4.7-5.9-10.6-9.6-16.3-12.6-3.1-1.6-18.3 1.6-22.2 1.6-16.4 0-7-14-28.4-14-15.9 0-34.2 16.9-41.2 21.1-6.4 3.9-16.8 9-23.4 14.2h-3.3c0 0-0.2-1.4-1.1-2.3 6.5-3.7 14.8-8.8 21.5-14.1v-2.5c-1-0.9-0.5-1.5-2.9-1.5-1.9 0-14.8 8.2-21.3 11.9 9.3-9.3 20.5-20 31.6-29.3v-2.5c-0.9-0.9-0.5-1.5-2.8-1.5-2.1 0-21.5 16.9-33.9 27-0.9 0-3.4-1.4-4.3-2.3l30.8-39.3v-4.2c-0.9 0-0.5-0.8-2.8-0.8-3.7 0-25.5 31.4-33 38.5h-2.4l22.4-40v-3.3c-0.9 0-0.6-0.8-2.9-0.8-4.2 0-18.5 30.7-26.4 40.1-2-0.9-4.6-3.2-5.3-5.2l19.7-50.4v-4.2c-0.9 0-0.6-0.8-2.9-0.8-4.2 0-15.8 35.1-23.6 54.9-2.8-1.2-6.2-2.1-9-3 2.8-8.4 7.4-23.1 7.5-25.5v-4.2c-0.9 0-0.5-0.8-2.9-0.8-4.4 0-9.2 24.5-10.6 30.5-0.3 0.8-2.4 2.1-4.7 2.1-2.4 0-3.3-1.2-4.2-2.1v-47.5c-1-0.4-3.6-0.2-5.8 0.9v49.6c-1.7-0.5-4.2 1-6.1 1.9-2.7-10.3-5.8-21.7-9-32.9-0.6-0.9-2-1.6-3-1.6-0.9-0.2-2.4 1.5-2.2 3.2l8.3 32.9c-1.9 1.1-3.7 2.2-6 2.2-3.9 0-16-27.2-24.5-39.2h-2.4c-0.9 0.9-1.5 0.9-1.5 3.3 0 2.3 18.6 35.9 18.6 38.2 0 2.1-1.5 4.6-3.1 6h-3.2l-24.2-30.7h-2.4c-1 0.9-1.6 0.5-1.6 2.8 0 2.3 15.9 21.9 25.2 33.1-1 0.9-2.5 3.2-3.4 3.2l-37.3-23.3h-3.3c0 0.7-0.8 2.2-0.8 4.1 12.1 8.3 25.2 16.8 38.2 25.2 0 0-1.1 1.4-1.1 2.4l-31.1-13.1h-4.3c0 0.8-0.8 2.2-0.8 4.2 10.2 5.4 21.4 10.1 32.6 13.8-0.4 3.6-2.3 5.4-4.6 5.4-12.9 0-48-20.5-50.9-20.6h-4.2c0 0.8-0.9 2.2-0.9 4.2 10.3 5.4 20.6 10.4 31.3 15.1-27.9 5.1-57.7 39-88.9 60.1 1.7-15.9 5.1-49.7 5.1-52.3 0-30.5-3-41.6-18.7-75.6-3.4-7.4-37.6-40-37.6-40l47.8-112.6c97.6-1.9 174.9-21.4 256.8-72.9 81.9 51.5 123.7 65.2 254.9 65.3 4.8 0 57.2 109.6 57.2 109.6-15.7 13.5-30.3 23.9-39.5 43.2z"/><path fill-rule="evenodd" class="a" d="m108.4 123l11 22.6-6.7 10.8-7-11.1-8.6 4.8-6.6-17.7z"/><path fill-rule="evenodd" class="a" d="m132.8 112.4l9 23.6-7.6 10.1-6-11.6-9 4-5-18.2z"/><path class="a" d="m243.7 81.3l-1.5 58.4c0 0-1.1 14.1-13.1 16.7l-26.6 6.6-1.8-14.2 16.6-4.6-14.6-37.3-7.7 1.7-0.8-17.9 15.3-3.4 19.8 53.5 1.5-39.9-9.3 1.7-0.9-18.7z"/><path fill-rule="evenodd" class="a" d="m455.7 87.5l-7.4 24.1-12.2 3.3 2.4-12.9-9.5-2.3 7.2-17.5z"/><path fill-rule="evenodd" class="a" d="m481.3 96.4l-9.4 23.3-12.5 2.3 3.5-12.6-9.3-3.3 8.7-16.7z"/><path fill-rule="evenodd" class="a" d="m419.8 148.8l-14.9-2.7 5-50.3-14.4-0.8-4.7 50.5-26.8 0.1 4.3-15 10.4 0.8 4-37.3-8.9 0.3 4.6-17.4 50.4 4.3z"/><path class="b" d="m418.5 418.3c8.3-11.9 10.1-25.9 10.1-40.3 0-2.3-3.9-24-5.1-36.2-1.5-0.9-2.6-2-4.7-2-6.2 0-12.6 3.8-12.6 10.7 0 2.3 5.6 19.6 5.6 21.9 0 5.1-1 12.7-3.5 18.9-2.7 6.9-6.6 18.7-9.8 22.3-9.6 10.8-19.1 22.7-27.1 33.5-3.2 4.5-6.7 11.6-7.8 15.3-0.9 2.7 2.3 6.9 1.3 9.1-2.8 5.8-14.3 21.1-17.5 21.1-2.3 0-15.5-1.6-22.7-3.9-3.1-1-3.9-4.9-4.5-7.1-14.9 0.9-19.4 0.8-21.7 0.8-1.6 0-8 1.5-8.6-1.5-5.5-28.8-9-58.4-12.4-87.5 5.5-3.5 15.9-10.5 15.9-16.8 0-2.1-1.1-15-3-20.9h-52.7c-2.1 3.9-3 13.9-3 18.1 0 7.2 5.8 14.7 15.9 19.8l-7.4 98.1c14.9-0.1 20.9 0 23 0 3.5 0 14.7-2.2 11.4 6.4h26.7c2.8-2.7 7.7-7.3 9.6-7.3 5.5 0 41.1 31.2 46.3 40.8 6.4 11.7 10.6 18.6 10.6 29.1 0 15.2-9.4 53.5-17.1 62.6-11.2 13.4-24.7 25.3-37.8 35.1-19.5 14.8-53.2 32.8-56.7 37.7-22.9 31.9-45.1 95.1-45.1 97.2 0 2.3 0.3 2.3 1.2 3.2 37.3 0.9 29.8-1.2 50.8 2.8 8.3-28.2 21.7-71.3 33.1-98.1 3-7.1 8.3-12.4 12-15.7 9.4-8.7 20.3-14.2 27.3-19.8 14.2-11.3 24.8-22.2 37-34.3 14.6-14.4 21.3-46.1 21.3-62.8 0-17-2.2-29.9-10.6-45.5-3.1-5.7-9-10.9-12.5-16.3-1.3-2-2-24.7-0.9-27.5 8.6-20.7 32.1-41.5 45.7-61zm-145 69.9h-12.8v-21.3h12.8z"/><path class="c" d="m530.6 508.5c-18.2 0-18.2 9.6-20.7 19.9h-92.9v59.5h136.4v-59.5c0-8.2-8.6-19.9-22.8-19.9zm-83.1 70.1h-22.1v-13.6h22.1zm0-23h-22.1v-13.7h22.1zm35 23h-22.1v-13.6h22.1zm0-23h-22.1v-13.7h22.1zm35 23h-22.1v-13.6h22.1zm0-23.1h-22.1v-13.6h22.1z"/><path class="b" d="m238.9 581.8l-4.4-2.9c-15.1-10.4-21.2-23.8-35.7-23.8-5.4 0-10.1 0.4-12.5 6.3l14.8-0.7c2.3 0 3.3 1.1 4.8 2.7 10.1 10.1 31.2 33.8 31.2 33.8h-10.7v34.6h59.9v-50zm29.5 31.1h-17.8v-20.6h17.8z"/><path class="b" d="m130.2 598.9v47.1h91.3v-47.1zm39.2 27.6h-31.5v-17.1h31.5zm42.7 0h-31.5v-17.2h31.5z"/><path class="a" d="m85.8 137.1l-43.3 24.4v13.6l6.7-3.6 29 44.8 37.8-21.9zm-23 28.7l17-8.5 19.3 31.7-16.7 8.7z"/><path class="a" d="m197.3 164.4l-13.7 4.7c-5.1-21.3-2.9-11.8-11.6-51.1l-10 4.6 10.2 50.1c-30.3 12.4-24.1 9.3-24.1 9.3l-2.6-17.1 12-4.3-6.8-34.1-7.8 2.6-3.1-19.4 42.4-14.7z"/><path fill-rule="evenodd" class="a" d="m299.1 130.8l-0.9 16.2-48.5 4.4-0.1-16.3 27.2-2.8 0.1-35.6-26.3 1.4 3.8-17.7 36.2-1.6-0.3 52.4z"/><path class="a" d="m350.3 145.3h-13.7l-4.3-6.8-7.5 7.1c-13.7 1.3-9.9 1.1-20.1 1.1l0.4-15.9 25.7-1.7c-0.9-1.3-1.1-2.1-12-37l-14-0.4 0.3-13.8h29z"/><path fill-rule="evenodd" class="a" d="m494 173.8l-14.1-4.9 21.4-47.5-22.4-8.5 9.6-13.6 33.2 11z"/><path class="a" d="m601.9 148.9c0 0-33.8 30.9-44.3 39-12.7 9.9-14.5 7.7-24.8 2.6l-22.2-11.1 8.4-11 14.7 7.6c0 0 10.6-25 11.1-27.3 0.9-4.4 4.8-6-1.6-8.8 3.2-4.4 10.1-15.9 10.1-15.9l13.6 7.6c-7.6 18.8-19 46-19 49.1 0.5 0.5 29.3-23.5 29.3-23.5l-7.9-4.2c0 0 6.9-10.9 10.6-15.5z"/><path fill-rule="evenodd" class="a" d="m546.9 122l-11.5 22.4-12.6 1.2 4.6-12.3-9-4 10.1-15.9z"/><path class="d" d="m132.1 654.2c-0.9 0-2.5-1.2-6.2-1.2l-47.8 51.1c0 1.4 1.6 4.8 3.3 5.8 19-15.9 34.5-38.3 50.7-55.7z"/><path class="d" d="m121.9 645.5c0-4.1-1.5-5.5-5.3-5.5l-47.9 49.3c1 2.3 2.5 5.9 4.3 6.6 8.6-6.2 48.9-47.8 48.9-50.4z"/><path class="d" d="m157.3 657.8c0-7.6-12.5-4.5-15.7-1.5-13.6 12.4-53.3 61.8-53.3 63.8 0 3.9 4.9 8.3 8.1 8.3z"/><path class="d" d="m176.9 660.9c-2.3-2.3-2.7-7.9-7.5-3.3-24.7 24.2-66.2 77.2-66.2 79.3 0 1.8 7.6 9.3 9.9 10.2z"/><path class="d" d="m122.8 625.2c0-4.1-1.5-5.7-5.3-5.7-13 9.7-56.2 50.4-56.2 54.5 0 3.6 3.6 4.1 6.2 4.1z"/><path class="d" d="m202.9 654.2c-0.9 0-2.2-1.2-2.2-1.2-3.7 0.9-9.6 1-10.7 2.4-23.9 29-46 61.9-68.8 92.9-1.7 2.3-2.3 5.6-2.1 7.1 3.8 2.7 9.1 6.7 11.1 6.7 4.5 0 53.5-79.7 72.7-107.9z"/><path class="d" d="m125.5 602.8c0-1.4-1.6-6-3.6-4.8-19.8 12.2-28.4 26.8-67.2 59.6-3.3 2.9 1.1 6.5 5.3 6.5z"/><path class="d" d="m225.3 653.2c-5.2 0.9-9.5-0.2-11.8 1.1-6.7 3.7-10.4 13.9-12.7 17.6-17.7 27.9-62.2 91.8-62.2 93.9 0 1.9 9 9.3 12.2 9.3 5.1 0 64.9-106.3 74.5-121.9z"/><path class="d" d="m68.6 582c0-4.2 0.8-3.3-4.1-4.5-5.6 2.8-11.5 5.7-16.2 8.5 0 5-0.3 4.5 5.2 4.5 4.6-2.8 10.5-5.8 15.1-8.5z"/><path class="d" d="m84.5 582c0-4.2 0.8-3.3-4.2-4.5-12.1 8.3-24.3 17.4-32.9 23.4 0 4.2-0.8 3.4 4.2 4.6 11.2-7.5 22.7-16.1 32.9-23.5z"/><path class="d" d="m124.2 567.6c0-4.1-12 0.6-12 0.6-2.3 0.1-43.4 33.8-64.9 50.4 0 3 0.1 7.3 1.1 10.1h3.2z"/><path class="d" d="m250.5 653c0-2.3-3.3-2.8-5.6-2.8-2.3 0-8.4 0.7-9.9 3-28.9 44.5-55.6 90.6-74.9 124.4 5.6 2.8 14.2 7.7 16.3 7.7 3.4 0 9.3-11.2 9.4-11.4 21.6-40 64.7-118.8 64.7-120.9z"/><path class="d" d="m143.3 570.2c0.5-6-1.4-4.8-3.7-4.8-3.6 0-87.6 71.6-87.6 75.5 0 2.3 1.4 4.6 3.3 5.6z"/><path class="d" d="m298 809.4c-1.9-11.2-2.9-19.3-3.8-25.8h-3.6c0 9.7 1.4 17.3 3 26.8z"/><path class="d" d="m98.9 571.2c2.7-5.2-1.1-6.2-1.1-6.2-1.7 1.2-39.5 1.2-45.1 2.1-0.9 0.6-3 3.2-3 4.1 12.2 1 37.8 3.1 49.2 0z"/><path class="d" d="m313.8 819.6l-13-50.7c-3.1 4.2-2.4 2.4-3.7 9.5 3.7 14 7.7 28.3 12.4 42.3z"/><path class="d" d="m275.6 636.4h-10l-78.5 152.6c0 0.4 0.3 1.9 1.2 2.8 4.7 0 10.9 1 13.3 1 2.3 0 4.6-0.2 5.6-1.1 23-51.3 46.2-104 68.4-155.3z"/><path class="d" d="m331.5 834.7v-3.3l-26.5-65.6-1.3 5.1 22.5 64.7c2.8 0 4.3-0.9 5.3-0.9z"/><path class="d" d="m307.1 714.6c-6.4 0-27.9 63.5-31.2 73.9-1.4 4.4 0 9.7-0.2 13.5 2.9 1.3 8.5 3.4 11.1 0.8v-5.9c0.1-15.6-3.5-7.6 19.2-49.1 0.7-25.7 1.1-33.2 1.1-33.2z"/><path class="d" d="m344.7 825.5l-28.2-69c-2.8 0-5.3 1.1-6.2 1.1 9.3 24.2 18.7 48.9 27.2 73.2 0.7 0.9 2.2 1.1 3.1 1.1 1.9-1.8 3.1-4.1 4.1-6.4z"/><path fill-rule="evenodd" class="d" d="m135.7 560.1l-1-4.2h-82.6l1 4.2z"/><path class="d" d="m355.8 814.3l-22.5-56.8h-9.1v3.3l25.4 60c1.9-1 4.4-4.1 6.2-6.5z"/><path class="d" d="m368.2 809.8c-8-17.5-15.4-35-23.8-52.3h-5.3c8.9 18.5 15.4 40.7 24.7 55.8z"/><path class="d" d="m376.3 804.4l-18.8-46.9h-6.3c0 9.1 22.4 52.1 22.4 52.1 3.6 0 2.7-1.7 2.7-5.2z"/><path class="d" d="m192.4 538.4c-12.1-1-33.7-1-36-1h-23.3l-56.5 0.9c-8.4 0.9-17.1 2.2-24.6 3l1.1 3.6c13.9 0.8 12.9 0 15.3 0h23 98c3.4 0 5.5-4.2 3-6.5z"/><path class="e" d="m229.1 593.1c0 0-26.3-26.8-28.6-26.8h-45.7c-9.3 9.4-18 19.3-27.3 28.6 34-1.1 67.7-1.4 101.6-1.8z"/><path class="d" d="m390.3 795.1l-18.8-38.6c-4.7 0-7.2 1.1-8.1 1.1 4.1 12.7 10.9 29.5 16.9 43.3 5.6 1.4 10 0.2 10-5.8z"/><path class="d" d="m199 519.7h-7.6c-18.6 0-38 1.1-56.9 1.8l-80.6 3 1 3.6h96.2c2.3 0 22.5-0.4 33.7 0.3 6.5 0.4 19.5 2 14.2-8.7z"/><path fill-rule="evenodd" class="d" d="m232 636.8h23v8.6h-23z"/><path class="d" d="m182.4 559.6l-1.1-4.8h-34.2l1 4.9c11.2 0 23.1 0.8 34.3-0.1z"/><path class="d" d="m404.9 796.2l-19.4-39.6h-6.3c4 10.8 17 41.8 20.5 41.8 3.6 0 5.2-2.2 5.2-2.2z"/><path class="d" d="m197.2 506.7h-141.4c0 5.4 0.2 7.4 7.8 7.4h69.9c2.3 0 55-1.9 57.3-1.9 4.9 0 8-0.6 6.4-5.5z"/><path class="d" d="m419.4 794.5c-6.6-12.1-13.4-26.8-18.1-37.9h-10.9c0 7.9 14.5 30.5 18.7 38.7 0.7 1 9.5 0.6 10.3-0.8z"/><path class="d" d="m300.8 626.3c-0.9-0.9-9.9-1.2-9.9-1.2-1.9 2.8-3.2 6.7-3.4 9.5-2.6 2.1-5.3 3.1-6 4.7-4.8 12.1-12.4 35.5-12.4 37.5 0 3.5 0.9 3.2 4.4 3.2 6.5-6.5 15.1-14.4 17.6-19.8 5.3-11.4 7-22.7 9.7-33.9z"/><path class="d" d="m201.9 499.1c0-4.1-1.5-5.4-5.9-5.5l-127.7-2.8c-2.4 0-9.7 1.1-13.5 2.9 0 4-0.2 3.2 1.2 4.5l69.1-2.3z"/><path class="e" d="m189 489.3c-28.1-13.2-32.4-14.4-51.3-14.4l-80.1 6.9c3.7 4 11.4 0.6 15.9 0.6 23.2 0 43.5 1.9 64.8 1.9 9 0 46.3 9.4 50.7 5z"/><path class="d" d="m438.1 793.6l-23.7-37.1c-6.1 0-4.9-0.3-6.4 1.9l17 35.3c11.6 0 9.1 0 13.1-0.1z"/><path class="c" d="m213.2 486.5c-14.2-7.1-25.2-14.1-40.4-19.2-14.7-5.1-26.7-8.2-43.5-8.2-26.1 0-35.6 6.4-68 14.5 5.1 0.4 13.2-0.1 18.2-0.8 16.5-2 28.2-4.7 44.7-5.6 42.4-2.3 33.4 1.6 71.7 16.7 3.2 1.3 12.4 4.1 14.5 4.1 2.3 0 1.9-0.6 2.8-1.5z"/><path class="d" d="m352.8 675.9c-0.9-1.9-5.5-8.8-6.5-10.7h-3.3c-1.8 2.7-3 6.1-3.9 8.9 10.1 5.1 5.3 2.2 13.7 1.8z"/><path class="d" d="m458.6 786l-39.1-49.1c0.9 4.1-0.3 12.3-0.3 14.4 0 2.4 15.1 26.5 22.6 38.4 5.3 1.3 12.1-1.4 16.8-3.7z"/><path class="e" d="m422 701.2c-5.6-6.5-10.5-13.7-15.1-20.2h-79.4c-4.3 0-18.2 18.5-18.1 19.4z"/><path class="d" d="m341.8 629.6c0-4.1 0.2-3.2-1.2-4.5h-34c-1.6 11.2-4.5 23.2-7 34.3z"/><path class="e" d="m229 479.8c-12.9-6.4-25.9-14.2-38.4-20.3-11.4-5.6-28.9-16.3-48.2-16.3-2.4 0-28.1 2.3-41.6 6-13.6 3.7-29.5 9.9-40.4 13.8v3.5h4c2.3 0 25.6-7.8 37.5-10.8 4.3-1.1 21.2-3.1 26-3.1 13.5 0 31.9 1.8 44.6 6.8 18 7.2 51.2 24.9 53.3 24.9 3.6 0 3.2-0.9 3.2-4.5z"/><path class="d" d="m365.1 672.9c-2.7-4.7-6.1-12.1-8.9-15.8l-4.2 5.2c1 1.4 6.5 14.9 10.4 14.9 3.2 0 2.7-1.1 2.7-4.3z"/><path fill-rule="evenodd" class="e" d="m298.8 578l-25.2-26.2h-59.2l25.1 26.2z"/><path class="c" d="m232.8 474.4c-16.8-13.9-33.8-28.7-52.4-40.1-10.8-6.6-40.5-12.2-53.5-8.4-20.5 6-41.8 14-67.4 25.8 0 4.1-1 3.2 5.1 4.6 13.5-6.7 23.2-8 35.5-12.7 10.5-4.1 22.8-7.8 34.8-7.8 18 0 52.9 11.6 63.6 18 10.5 6.2 29.4 22.1 31.5 22.1 2.3 0 1.9-0.5 2.8-1.5z"/><path class="d" d="m478.9 779.8c0-2.1-41.4-50.7-60.4-72.3-0.7-0.3 0.7 17.1 1.7 18.7 8.1 13.2 45.3 60.1 48.9 60.1 0 0 9.8-2.6 9.8-6.5z"/><path class="b" d="m250.5 547.1c-6-4.5-13.9-7.3-18-13.7-5.9-9.4-6.2-15.8-6.2-22.1 0-2.4-0.3-6.3 1.1-8.6 3.7-6.4 8.2-6.7 8.2-11 0-2.3-0.3-2.8-1.2-3.7h-10.4c-2.3 0-10.1 4.6-13.4 7.9-2.2 2.1-4.3 5.5-4.6 7.4-0.5 2.8-1.4 7.3-0.9 9.5 2.3 11.3 1.4 20.2-1.5 26.7-1.5 3.3-3.9 6.3-3.2 8.5 16.7-0.1 25.3-1.8 50.1-0.9z"/><path class="d" d="m350.9 611.1h-60.2l1 9.1c14-0.9 39.9 0.1 42.2 0.1 2.6 0 10.5-0.8 15.2-2.1 2.4-1.8 4.9-4.3 1.8-7.1z"/><path class="d" d="m382.7 675c-3.7-6.5-11.2-16.3-15.9-22.9-3.9 0-3.1-0.7-4.4 4.2 1.4 2.7 11 20 14 20 3.7 0 0-1.1 6.3-1.3z"/><path class="e" d="m236.4 466.5v-3.4c-13-11.2-25.9-21-37.3-30.9-22.4-19.6-12.3-24.4-45.1-24.4-33.7 0-60.1 16.2-90.6 27.4-6.5 4.1 2 4.9 4 5.2 28.3-12.1 45.4-23.3 76.4-23.3 11.4 0 43.9 9.6 51.8 18 12.1 12.6 27.3 23.5 40.8 31.4z"/><path class="d" d="m352.8 599.9l-61.1-4.6-1 10c11.8-1.4 22.3 1.1 34 1.1h28.1c2.5-2.6 2.6-3.9 0-6.5z"/><path class="d" d="m401.5 675l-25.4-30.3c-3.9 0-3.1-0.8-4.4 4.2 1.1 1.1 16.7 25.5 20.5 25.5 4.4 0 9.3 0.6 9.3 0.6z"/><path class="d" d="m359.4 582.9h-67.7l-1 6.5c22.8 0 42.3 3 68.7 3 0.9-2.9 0.9-6.4 0-9.5z"/><path class="d" d="m503.1 768.5l-116.3-136c-1.4 0-3.9 3.3-4.8 5.6l48.4 65.3c-0.1 1.6-1.9 3.4-3.7 4l62.6 70c2.9-0.3 12.7-3.8 13.8-8.9z"/><path class="e" d="m240.2 437c-3.2-4-5.7-8.2-7.9-10.4-16.1-16.1-43.5-43.2-51.9-48.2-3.2-1.9-19.9-3.9-23.8-1.9-30.8 16.4-64.8 34.3-91.6 49.5l2 0.8c15.3-6.9 32-13.7 44.4-20.2 19.9-10.5 21.5-21.2 48.2-21.2 1.9 0 14.6 0.7 18.5 2.2 6.9 2.7 20.1 10.4 25.9 16.3 17.3 17.7 31.8 37.5 33.9 37.5 3.2 0 2.3-1.8 2.3-4.4z"/><path fill-rule="evenodd" class="d" d="m271.8 500.5v-4.4h-31.4l1 4.4z"/><path class="d" d="m363.2 577.4c0-3.8 0.8-7.3-0.1-9.2h-57.3c-0.9 0.9-2.1 1.8-2.1 4.2 0 2.1 3.1 5.1 5.2 5h54.3z"/><path class="c" d="m240.2 453.9c-15.8-15.9-29.3-37.4-49.6-51.2-16.4-11.3-43.1-14.3-59.4-1 4.9 5.3 10.5-2.3 16.8-2.3 39.5 0.2 62.9 33.7 90.9 56.9 0.9-1 1.3-2.4 1.3-2.4z"/><path class="c" d="m240.2 415.6c0-2.3-12.1-11.6-17.5-17.9-7.1-8.2-26.9-32-34.9-36.1-8.5-4.4-23.1-6.6-32.1-1.9-34.3 18.3-65 36.9-92.4 53.9v3.5c18.7-9.3 37.2-18.4 53.7-28.2 11.9-7.1 27.8-19.3 42.1-19.3 9.8 0 25.7 0.9 32 8.7 9.1 11.2 25.3 24.6 44.8 43.4 5.1 0 4.2 1.2 4.3-6.1z"/><path class="d" d="m346.4 527v-3.4c-1.8-0.9-4.7-1.1-7-1.1-8.7 0-13-0.1-17.3-0.1-10 0.2-19.9 1.1-82.7 5.8l1 4.4z"/><path class="d" d="m354.8 537.3v-4.4h-18.9c-25.5 0-51.3 2.7-76.7 3.9-0.9 0.6-3 2.3-3 3.2 1 0 2.1 1.1 3 2 9.1 0 13.6 0.1 18.1 0.1 9.7-0.2 19.5-1 77.5-4.8z"/><path class="d" d="m365 562.2l-0.9-6h-53.8c-2.4-0.2-12.9-0.3-18.5 0.2-0.9 0.6-2.1 3.1-2.1 4l2.1 1.8h73.2z"/><path class="d" d="m529.3 756.4l-133.8-143.6c-0.7 1.7-4.5 8.6-4.2 10.1l122.3 144.7c5.4 0 12.6-6.7 15.7-11.2z"/><path fill-rule="evenodd" class="d" d="m335.2 515.8v-3.4l-7.8-1.1-87 7.6 1 4.4z"/><path fill-rule="evenodd" class="d" d="m324.9 507.4v-4.1l-90.1 4.4 1 4.4z"/><path class="d" d="m359.4 548.4c0-1.8-0.9-4.3-0.9-5.3-17.6 0.4-79.8 1.7-69.8 1.8-2.1 0-7.4 1.4-7.4 4.3l2.1 2.1c20.5 0 19.4-0.9 21.8-0.9h35.1c2.4 0 13.6-1.1 19.1-2z"/><path class="e" d="m239.1 391.4c-6.1-2.6-10-8.6-13.9-12.9-8.4-9.6-19-18.9-26.5-28.1-35.3-18.3-42-7.2-129.8 48.3v3.5c28.7-17.2 56.1-29.4 86.3-51.9 3-2.2 22.4-1.4 25.7 0 15.3 6.7 31 20.9 43.8 37.7 3.4 4.5 9.6 7.6 14.1 11.4 2.5-2.3 3.9-5.7 0.3-8z"/><path class="c" d="m229 363.3c-19.2-12.6-38-37.5-62.4-37.5-26.1 0-73.6 48.1-97.8 62.5 0 4.2-0.8 3.4 4.2 4.6 26.6-19.4 62.5-47.5 82.2-57.5 7.1-3.6 14.2-0.3 21.1 0.4 14.1 1.4 28 12.8 43.2 28.1 2.9 2.8 1.6 6.6 6.5 6.6 3.3-3.3 3-1.5 3-7.2z"/><path class="e" d="m229 349.4c-17.6-20.2-41.4-35.7-61.9-35.7-30.8 0-57.8 32.5-92.6 58v3.4c12.2-8.4 27.1-18.9 36-25.4 20.6-15.2 39.4-30.4 56.6-30.4 7.1 0 23.6 5.6 27.7 8.6 4.5 3.4 12 8.1 14.9 10.3 5.5 4.1 14.9 15.6 17 15.6 3.2-0.1 2.3-1.8 2.3-4.4z"/><path class="d" d="m551.6 738.7c0-2.3-83.1-82.9-125-123.1-4.6-4.4-12.8-11.3-13.7-13.6-3.5-8.6-2.1-17-4.1-25.4h-3.4c-2.8 10.3-3.9 20.1-4.8 29l136.9 145.2c1-0.1 14.1-7.9 14.1-12.1z"/><path class="d" d="m566.5 721l-128.5-122c-6.2 0-11.8-1-18.7-1v3.5l137.8 128.9c3.3-1.9 7.6-6.2 9.4-9.4z"/><path class="d" d="m413.6 569.7v-12.6l-6-1.1c-5.8 0.5-7 4.5-7 8 0 2.3 1 5.9 2.1 7.9h5.7c2.3 0 4.3-1.2 5.2-2.2z"/><path class="e" d="m346.5 484c0-3.4 0.1-3.9-3-5.9-7.7-2.6-13.4-6.2-20.6-9.3-4.8-2.1-15.8-2.3-17.9-2.3-4.7 0-5.8-0.2-10.6 2.9v3.5c15.1 0.1 16.5 0.2 18.6 0.2 2.3 0 15.5 5 22.7 6.8 2.8 0.7 5.9 5.3 8 5.3 2.4 0 1.9-0.3 2.8-1.2z"/><path class="d" d="m584.2 700.9l-118.6-103.7h-18.4l127.1 116.3c6 0 7.5-7.7 9.9-12.6z"/><path class="d" d="m413.6 550.3v-18.3c-6.4-1.4-13.3 0.4-18.6 4.6 0.7 5.9 3.5 15.7 9.3 15.7 2.4 0 6.4-1.1 9.3-2z"/><path class="e" d="m354.9 470.5c-10.3-7.4-21.9-12.4-30-19-7.7-6.4-19.4-7-26.7-5.7-0.7 0.3-1.8-0.6-4.7-0.6-0.8 5.6-2.2 13.9 5.5 13.9 16.9 2.8 22.7 1.1 26.4 2.2 8.7 2.4 25.4 13.6 26.7 13.6 3.3 0 2.8-1.2 2.8-4.4z"/><path class="e" d="m359.5 460.3c-8.4-5.6-15.1-12.8-23.5-17.6-8-4.5-20-8.2-27.2-9-9.3-1-6.9-2.7-18.2 0.4l1.1 3.6c9.3 0.8 9.6 0 12 0 11.5 0 31.9 10 43 19.8 0.2 0.1 4.4 7.2 10.1 7.2 3.3 0 2.7-1.2 2.7-4.4z"/><path class="d" d="m597.2 678.4l-100.9-82.1h-21.1l110.7 95.8c2.4-0.1 11.6-10.9 11.3-13.7z"/><path class="c" d="m361.4 445.4c-2.6-2.6-5.6-7.6-8.9-10.1-4.8-3.7-13.5-8.5-17.4-10.3-9.2-4.4-22-9.7-30.8-13.1-4.7-1.7-10.6-1.2-15.5-1.2 0 5-0.8 10.3 2 14.8 2.8 0 3.5-1.8 5.8-1.8 2.4 0 13.6 0.7 17.6 2.1 10.5 3.8 20.3 9.1 29.7 14.9 4.9 3 12.2 10 14.3 10 4 0 3.2-1.3 3.2-5.3z"/><path class="d" d="m443.8 521.4v-14.6l-6.4-1.1-44.2 14.1v3.4c2.8 1.8 5.7 3 7.9 3 2.3 0 42.7-4.8 42.7-4.8z"/><path class="e" d="m371.6 438.3v-5.1c-7.8-3.9-13.4-12.5-16-13.8-5.3-2.6-18.2-8.7-23.4-10.3-6.8-2.1-26-7.7-31-7.7h-14.2l0.9 5.4c5.2 0.9 13.5-0.6 18 0.4 10.4 2.4 20.6 7.5 29.8 10.3 5.9 1.8 11.9 4.2 16.6 8.3 6.6 5.8 12.8 12.1 17.1 14.6z"/><path class="d" d="m443.8 499v-3.3c0 0-5.5-2.1-6.4-2.1l-52.6 14.2c1.2 5.2 0.1 4.3 5.9 4.4 8.9 0.1 17.7-2.6 26.3-4.9 8-2.1 26.8-8.3 26.8-8.3z"/><path class="d" d="m606.2 658c-28-21.3-58.6-42.3-85.7-62.6h-15.5l94.5 77.1c0.9 0 2.4-1.1 2.4-1.1 0.9-5.1 4.4-9.6 4.3-13.4z"/><path class="d" d="m443.8 486.9v-4.2c0 0-6.4-2.2-7.8-2.2l-54.9 13.3 1 4.4c13 0 26.2-3.1 38.7-6.7 7.2-2.2 23-4.6 23-4.6z"/><path class="c" d="m383.8 422.2c-3.7-3.7-8.4-7.4-11.8-9.3-3.4-1.9-7.8-3-9.9-4.3-14.8-9.7-35.8-16.9-54.2-18.7-2.8-0.3-6.4-2.6-8.4-2.6-2.4 0-7.9 2-11.7 4l1.1 2.5c9.6 4.1 8.3 0 12.4 0 6.9 0 57.4 18.1 58.5 18.9 5.3 4.2 14.8 14.7 16.6 14.7 2.3 0 5.8-3.1 7.4-5.2z"/><path class="d" d="m443.8 471.1v-3.4l-11.1-1.1-53.5 13.2 1 4.4h4.9c5.5 0 23.3-2.9 29.1-3.9 9.4-1.7 29.6-9.2 29.6-9.2z"/><path class="c" d="m294.3 302.5c0-2.4-2.9-4.3-3.5-6.2-2.9-8.6-24.6-23.6-38.9-23.6-2.3 0-7.7 0-10.5 0.3-13.9 1.3-30.9 8.8-42.4 26-2 2.9-7.2 8.6-7.2 10.6v2.9c12.2 6.5 24.7 16.1 36.8 23.5 3.8-2.8 9-7.2 11.4-8 12.7-4.8 27.6-7.8 40.1-13.7 4.4-2.1 14.2-8 14.2-11.8z"/><path class="d" d="m611.2 638.2c-9.2-6.3-62.2-43.9-68-43.9l-12.1 0.3 75 56.5c3.4-2.3 5.1-9.8 5.1-12.9z"/><path class="e" d="m390.3 413.2v-4.2c-4.7-2-10.4-3.5-14.2-6-5.1-3.6-10.6-9.2-14-10.6-5.7-2.5-15.8-6.4-21.5-7.5-12-2.4-36-7.8-37.9-7.8-2.3 0-3.8 2.6-3.6 3.5 8.1 4.4 17.7 1.7 21.6 3.3 14.9 5.9 24.5 5 43.8 16.7 7.2 4.4 21.5 13.7 23.5 13.7 2.3 0 2.3-1.1 2.3-1.1z"/><path class="c" d="m317.5 327.5v-3.5l-4.1-1c-3.3 1.7-9.5 2.8-11.6 2.8-2.3 0-14.9-2.8-17.3-2.8-5.4 0-6.4 0.3-15.1 3.5-4.3 1.6-11.3 0.9-14.9 2.5-1.9 0.7-4.9 1.6-4.9 3.7v3.1c14.3 0.2 22.5-1.6 24.8-1.6h23.1c2.3 0 7.8-0.4 10.5-1.2 3.2-1 6.8-3.6 9.5-5.5z"/><path class="d" d="m443.8 459.9c0 0-4.8-6.4-6.8-6.4-2.4 0-33.5 6.7-49.4 10.5l1.1 4.3z"/><path class="e" d="m344.6 346.1v-3.5l-4.2-1c-5.6 1.9-11.2 2.7-16.7 3.2-5.5 0.5-18.8 4.7-24.6 6.3-0.9 2.8-1 5.4-0.9 8.1 14-3.7 29.4-7.5 43.4-10.4 0.9-0.7 2.1-1.8 3-2.7z"/><path class="d" d="m443.8 447.8v-5.2c0 0-4.5-2.2-6.8-2.2-2.4 0-18.2 3.5-27.6 4.1-2.8 0.2-7.1 3.7-9.7 4.5l1.1 4.4h5.7c2.4 0.1 37.3-5.6 37.3-5.6z"/><path class="d" d="m613 631.5l1.7-15.6-52.9-24.4c-1.4 0.9-3.6 2.5-3.6 3.4z"/><path class="e" d="m401.5 398.5c0-2-2.8-5.4-5-6.2-20-6.7-39-17.5-61.6-21.1-6.4-1-3.4-1.5-13.4-1.5 0 1-1 2.5-1 3.5 18.7 3.1 35 8.1 52.4 17.6 7.7 4.1 13.8 13.3 22.6 13.3 2.3 0 6-3.6 6-5.6z"/><path fill-rule="evenodd" class="e" d="m449.2 427.5h8.6v93.9h-8.6z"/><path class="c" d="m406.1 373v-3.2c-12.3-3.5-21.1-4.4-31-7-5.4-1.3-23.6-9.1-33.2-9.1-2.4 0-6.4 4-9 4.5-10.7 1.9-23.5 4.2-32.9 6.9 0 4.7 1 6.3 1 7.2 3.7-0.9 7.9-0.9 10.7-1.1 1.9-1.6 3.9-4.8 5.5-5 4.2-0.6 11.4-2.2 13.5-2.2 19.4 0 37.5 10.3 55.2 18 2.9 1.3 9.6 7.2 14.7 7.2 2.3 0 2.7-0.3 3.7-1.2v-3.2c-5-3.3-9.5-7.6-15.2-9.2-7.1-2.1-15.3-2.6-21.5-4.4-6.8-1.9-19.5-6.8-25.7-10.4l6.9-0.5c12.4 3.6 22.2 9.7 37.3 9.6 4.9 0 13.6 5.3 15.4 5.3 2.4 0 3.7-1.1 4.6-2.2z"/><path class="d" d="m443.8 432.8v-3.3c0 0-2.7-2.1-5-2.1-2.3 0-16.5 2.8-24.8 5-3.7 1-7.7 4.4-3.8 8h4.7c2.4 0 28.9-7.6 28.9-7.6z"/><path class="d" d="m520.8 488.7v-3.2c-1.8-1.9-4.1-3.1-5-4l-51.8 22.5v12.8z"/><path fill-rule="evenodd" class="d" d="m615.3 595.4l-54.2-17.8v6.2l54.2 24.3z"/><path class="d" d="m531.1 497.8c-1.9-1.8-3.3-4.2-5.1-5.2l-52.7 28.8h19c2.3 0.1 16.7-10.9 24.6-16.4 4.2-2.9 9.5-4.3 14.2-7.2z"/><path class="d" d="m511.5 475.5c-1.8-1.9-2.8-5.2-5.1-5.2-2.3 0-42.4 16.9-42.4 16.9v10c0 0 33.5-14.3 47.5-21.7z"/><path class="d" d="m614.7 588v-4.4c-16.7-6.5-37.7-12.6-54.5-18.1v5.3z"/><path class="c" d="m448.1 317.7l-8-1.2c-6.1 2.9-12.2 5.8-15.8 6.3-10.1 1.2-27.2 2-29.3 2-2.3 0-24.2-1.8-26.1-1.8-2.3 0-19.1 4.2-28.5 5.3-4.6 0.6-11.6-1.4-14.8 0.1-30.4 14-55.3 10.6-87.1 16.2 0 2.8 1 4.4 1 5.3 5.6-0.5 16.4 1.1 18.5 1.1 2.3 0 16.4-0.1 24.7-1.2 4.8-0.7 9.9-2.1 13.1-2.8 4.8-1.1 10.2-4.3 13.1-5 13.8-3.6 38.3-4.8 42-6.2 17.4-6.8 16.8-8.2 23.1-8.2 2.4 0 25.2 5.6 27.5 5.6 6.4 0 11.1 0.1 19.4-5.3 2-1.3 6-0.9 7.1-1.5 5.8-2.9 16.3-3.8 20.1-8.7z"/><path class="d" d="m500.3 466.3c-0.9-2.8-4-7.2-6.9-10-9.3 3.7-29.4 11.4-29.4 11.4v11.8z"/><path class="d" d="m605.6 573.5c-11.9-9.4-30.5-21-45.4-28.6v11.9z"/><path class="e" d="m405.1 343.4v-4.4c-8-1.3-22.2-4.8-29.7-4.8-2.3 0-10.8 2.7-16.4 4.1-1.7 0.4-5 2.8-6.8 3.6 0.9 2.8-0.9 6.2-0.9 7.9 14.4 6.2 27.7 5.7 35.6 8.9 4.1 1.6 10.4 3.4 12.3 3.4 2.3 0 4.3-0.2 5.1-1.2v-4.1c-1.9-1.8-3.1-4.9-4.2-6.3-2.7-1.3-7.3-3.3-9.3-3.3-2 0-2.6 1.9-4.7 1.9-7.5 0-18.8-1.2-24.7-4.3 0-3-0.2-2.4 0.7-3.2 14.3 0 19.6 1.8 43 1.8z"/><path class="d" d="m488.2 452.3c-0.5-1.6-15.6-23-20.1-23h-4.1v30.6c0 0 17.6-5.8 24.2-7.6z"/><path class="d" d="m587 547.9l-26.9-21.3 0.9 8.8c7.4 5.5 24.1 19.4 26.4 19.4 0.6 0-0.4-5.8-0.4-6.9z"/><path class="d" d="m611.2 553.4c-37.7-36.8-118.6-128.8-124.9-128.8-2.3 0-5.7 1.2-8.3 1.2l135.9 144.3c0-4.6-2.7-12.4-2.7-16.7z"/><path class="e" d="m387.5 284.6v-3.2c-3.6-7.3-12.1-8.8-17.2-8.8-2.3 0-9.5 0.7-12.4 2.3-5.4 3-9.7 7-12.8 9.4-5 3.8-11.6 10.8-16.1 14.3-4.1 3.1-12.9 4.7-17.6 7.1-4 1.9-7.7 3.6-11.4 5.2 0 4.1-4 5.4-2.6 6.7l7.5-2.1c2.4 0 13.4-5.9 19-8 3.4-1.4 8.3-2.5 12.1-2.5 1.8-1.6 3.1-3.8 3.7-4.1 5.4-2.4 13.1-6.9 15.8-7.4 10.4-2 21.1-6.2 32-8.9z"/><path class="d" d="m612.2 543.7l-2.9-18.2-106-102.7c-1.4 0-3.8 1.1-5.7 1.1z"/><path class="c" d="m434.1 296.9c0-7.3-18.1-14-21.9-14-2.3 0-9.7 3.4-14.1 5-3.1 1.2-7 2.6-9.4 3.3-2.7 0.7-5.7 2.8-7.3 3.3-10.1 2.9-30.2 1.9-40.3 20.9-5.9 0.3-19-2.1-17.8 4.5 3.3 0 10.4 2.2 12.5 2.2 8 0 7.8-4.6 19.8-11.5 1.6-1 2.8-3.8 3.7-4.1 9.3-3.3 26.6-9.6 28.7-9.6 8.4 0 22.5 1.9 31.6 4.1 1.7 0.4 3.6 2.4 5.7 2.4 1.3 0 8.8-3.7 8.8-6.5z"/><path class="e" d="m443 308.7c0.3-0.7-2.3-2.5-2.3-2.5-2.3 0.9-7.3 2.8-9.3 2.8-2.4 0-39.2-6.5-41.5-6.5-10.6 0-26.5 10.6-35.9 14 0 4.1-0.2 3.2 1.2 4.6 11.1 0 21.6-3.5 32.6-3.5 2.3 0 23.8 0.9 32-0.5 7.7-1.2 16.7-6.6 23.2-8.4z"/><path class="c" d="m590.6 413.2v-5.2c-10.2-1.9-22.4-5.5-30.1-6.4-14-1.5-39.4-5-41.5-5-2.3 0-15.5 2.9-18.4 4.1-19.1 8.1-19.7 4.5-36.3 8.4-14.1 3.4-31.7 9.9-43.1 12l1 4.4c5.4 0 9.8-0.9 15-1.2 8.5-6.5 26.9-9.3 36.7-11.5 31.6-7 37.6-10.6 53.5-10.6 6.7 0 9.7-0.1 12.7 0.4 3.9 0.6 7.7 2.4 20.2 6.8 4.3 1.5 10.3 0 13.1 0.6 5.1 1.2 12.1 4.6 17.2 3.2z"/><path class="d" d="m606.5 510.3c0-0.8 0.6-13.8-1.3-15.7-26.8-25.8-63.9-57-84.6-73.7-4.9 0-3.9-0.3-5.3 1.4z"/><path class="e" d="m544.1 411.2c-5.3-3.3-12.1-3.4-16.7-3.4-17.7 0-30.1 8.7-51.3 10.7 46.9 0 68-7.3 68-7.3z"/><path class="c" d="m588.8 390v-5.2c-4.5-3.2-25.5-1-32.9-4.9-17.4-9.2-36.5-9.5-54.4-0.6-5.8 2.9-11.8 10.1-15.8 11.5-19.9 7.4-42.7 11.5-57.8 18.9l-2.9 4.5c12.6-3 26.5-9.4 47-12.2 8.2-1.2 12.2-5.7 17.9-10.7 8.1-7.1 27-10.5 37.5-10.5 26.6 0 20 5.4 61.4 9.2z"/><path class="c" d="m529.2 351.3c-5.6-6.5-9.9-5.9-13-5.9-13.6 0-24.5 9.3-38.2 9.3-14.2 0-26.4 3-45.6 8.5 0 9.7 0.6 5.6 0.1 20.3 4.6 0 25.2-12.8 33-15.4 9.5-3.3 40.8-13.4 50.7-13.4 2.1 0 4.9 0.9 7 0.9 1.8 0 4.6-0.5 6-4.3z"/><path class="d" d="m602.7 481.4c0 0 0-9.9-3.1-15.3-20.1-15.2-41.1-31-60.4-46.9h-9z"/><path class="e" d="m587.4 378.9v-3.3c-22.5-7-22.6-3.4-47.2-16.8-10-5.4-25.2 4.5-33.9 5.9-9.1 1.5-23.1 4.1-31.8 7.1-14.6 5.2-27.1 9.9-38.5 17.1l37.4-10c1.4 0 3.8 2.2 3.7 4-14.7 7.3-30.4 9.8-43.6 13.2-0.9 0.6-1.8 3.3-0.8 4.2 20.6-7.4 42.6-7.8 66.5-26.7 6.6-5.2 27.2-8.7 35.2-8.7 20.1 0 18 14 43.8 14 2.3 0 8.3 0.9 9.2 0z"/><path class="d" d="m596.2 443.3c-13.1-9.4-41.4-27.1-43.2-27.1-2.3 0-5.1 1.3-6.9 1.3l52.7 39.7c1-4-2.6-13.9-2.6-13.9z"/><path class="e" d="m497 301.4c-14 8.4-24.8 15.3-38.3 21.4-8.7 3.9-21.6 6.1-31.9 8.7v3.5h6.8c2.1 0.1 9-1.2 12.3-2 7.9-2.1 21.4-7.1 32.7-13.1 6.3-3.3 11.7-8.9 15.7-12.9 2.4-2.5 0.6-4 2.7-5.6z"/><path class="e" d="m590.8 402.1l-3-5.3c-12.1-1.9-28-6-37.1-8.4-3.9-1-19.8-2-23.3-2-6.3 0-23.5 6.2-33.8 8 5.1-0.9 27.7-1.7 29.8-1.7 24 0 44.2 3.9 67.4 9.4z"/><path class="d" d="m596.2 434.8c-0.7-4.3-0.9-8.3-3.8-11.6-9.9-3.8-19.8-7.9-21.8-7.8h-5z"/><path class="e" d="m584 370.5v-5.2c-3.9-5.8-9.4-2.9-14.1-4.3-16.5-5-19.4-12.2-32.5-20.8-2.4-1.6-17.1-11.6-21.2-11.6-4.5 0-22.8 6.4-27.7 8.8-21.2 10.2-37.5 8.7-56.1 12.8l-0.7 6.2c14.3-2.6 28.7-4.8 43.1-7.6 14.4-2.7 29.6-10 45.6-10 3.8 0 21.2 14.9 25.9 17.5 9.6 5.1 30.9 14.2 32.9 14.2z"/><path class="c" d="m583.2 356.8l-1.8-9.4c-6.6-1.9-13.9-2.6-18.8-5.9-9.9-6.8-17.2-15.7-22.4-18.1-2-0.9-24.2-7-25.4-7-9.8 0-18.9 6.1-28.1 9.2-13 4.3-26 10.5-38.2 13-5.4 1.1-12.6 1.6-16.2 2.9 0.9 1.4-2.5 5.1-0.1 5.1 2.3 0 21.5-6 23.8-6 19.5 0 42.7-18.5 59.7-18.5 2.1 0 10 1.2 12.8 3 13.6 8.9 33.3 30.5 49.7 30.5 2.3 0 4.1 2.2 5 1.2z"/><path class="e" d="m508.6 284c-7.4 2.8-16.4 3.7-22 6.7-16.6 9-13.5 11.8-35.7 20.1l0.9 2.5 4.2 4.3c6.6-3.7 18.5-13.2 25.5-17.6 7.5-4.8 20.5-8.8 27.1-16z"/><path class="e" d="m582.3 340.6l-0.9-10c-6.6-0.9-13.8-3.1-17-5-7.7-4.6-15.3-11-20.5-13.4-10.7-4.8-29.8-7.9-31.9-7.9-5.5 0-9 2.2-15.4 8.9 2.5 2.7 1.2 2.3 7.2 2.3 18.5-7.2 13.4 0 29.6 0 20.1 8 30.9 24.3 42.5 24.3 2.1 0 4.7 1.9 6.4 0.8z"/><path class="c" d="m544.1 305c-8.4-8.9-14.6-14.6-25.6-14.6-8 0-6.8 2.4-16.3 7 1.9 0 4.9-0.5 7-0.5 2.3 0 23.7 5.4 34.9 8.1z"/><path class="b" d="m310.3 706.7v44h16v-32.4h24.3v32.2h62.7v-43.8c0 0-103 0-103 0zm89.2 23.5h-32.3v-13.7h32.3z"/></svg>