<svg version="1.2" xmlns="http://www.w3.org/2000/svg" viewBox="0 0 301 173" width="301" height="173"><style>.a{opacity:1;fill:#3d3d3f}.b{opacity:1;fill:none;stroke:#3d3d3f;stroke-width:.4}.c{opacity:1;fill:#5295ab}.d{opacity:1;fill:#58936e}.e{opacity:1;fill:#bbb731}.f{opacity:1;fill:#dc7725}.g{opacity:1;fill:#9d0331}.h{opacity:1;fill:none;stroke:#3d3d3f;stroke-width:1.5}.i{opacity:1;fill:#bcd0aa}</style><path class="a" d="m141.1 148.7v-3.5c0-0.8-0.2-1.2-1.3-1.2h-1.8v-16.5c0-6.3-4.2-11.3-13-11.3-3.5 0-7.9 1-10 2.2-0.8 0.4-1 0.6-0.6 1.4l1.4 3.3c0.3 0.5 0.9 0.4 1.3 0.2 1.4-0.6 3.5-1.6 6.5-1.6 3 0 6.5 1.3 6.5 6.1v16.2h-14.7c-0.8 0-1.3 0.6-1.3 1.3v3.3c0 0.8 0.1 1.2 1 1.2h24.8c1 0 1.2-0.3 1.2-1.1zm24.3-1.1c-2.4-5.2-3.1-11-4-20.1-0.6-6.5-5.5-10.4-12.7-11.3-1.1-0.1-1.5 0.1-1.7 0.9l-0.9 2.7c-0.3 1.1-0.3 1.5 0.9 1.8 3 0.7 5.7 2.7 6.3 7l1.4 11.6c-2.5 1.8-6.2 3.8-9.8 4.9-0.9 0.2-1 0.5-0.7 1.5l1 3.6c0.3 1 0.5 1 1.4 0.9 3.1-0.5 7.7-3.7 9.5-5.9 0.6 1.7 1.7 3.4 2.6 4.5 0.6 0.6 1.2 0.6 1.8 0.5l4.4-1.3c0.8-0.2 0.9-0.5 0.5-1.3zm35.2-29c0.1-0.9-0.1-1.5-1.2-1.6l-5-0.5c-1.2-0.1-1.7 0.4-1.8 1.2l-1.2 15.5c-0.6 7.5-3.8 11.9-8.4 11.9-2.1 0-4.9-1.5-6.3-4.3 6.9-2.3 10.2-8.8 10.2-15.3v-7.2c0-1-0.2-1.5-1.5-1.5h-4.7c-1.2 0-1.6 0.4-1.6 1.5v7.5c0 5.6-0.9 9.1-3.5 11.2-0.3-0.7-0.6-2.5-0.8-4.5l-1.5-14.8c-0.1-1-0.4-1.3-1.4-1.3l-5.7 0.5c-1.2 0.1-1.1 0.5-1 1.3l2 14.4c1.5 12.1 7.6 17.9 16.1 17.9 8.5 0 14.5-6.7 15.7-17.5zm32.5 18.8l-0.9-11.6c-0.6-7.3-4.1-9.8-9.7-9.8-3.2 0-7.1 1.9-9.1 3.9-1.4-1.8-3.8-3.3-6.3-4-0.9-0.3-1.4-0.5-1.9 0.6l-1.2 2.6c-0.5 1.1-0.3 1.1 0.7 1.8 2 1.2 2.3 3.7 2 5.6l-2.8 21.6c-0.1 1.1 0 1.5 1 1.6l5.3 0.5c0.8 0.1 1.3-0.2 1.4-1.2l3.2-24.6c1.4-1.4 3.4-2.4 5.8-2.4 2.1 0 3.4 1.5 3.6 4.1l1.2 12.6c0.4 4-1.8 5.8-4.5 5.8-1 0-1.6-0.1-2.7-0.4-0.5-0.1-1-0.2-1.3 0.7l-0.8 3.3c-0.3 1-0.2 1.1 0.6 1.4 1.1 0.5 4.1 0.7 5.4 0.7 7.8 0 11.6-4.8 11-12.8z"/><path class="a" d="m122.9 108.3l-0.1-4.6c-0.1-2-1.5-2.6-3.3-2.6-1.2 0-2.5 0.3-3.1 0.6-0.3 0.1-0.3 0.2-0.2 0.4l0.3 0.7c0.1 0.1 0.3 0.1 0.4 0.1l0.4-0.1-0.2 3.8c0 0.8-0.5 1.2-1.1 1.2-0.3 0-0.3 0.2-0.2 0.3l0.1 0.6c0.1 0.2 0.2 0.3 0.4 0.3 1.6-0.2 2.5-0.9 2.5-2.4l0.2-4.3c0.2 0 0.4-0.1 0.5-0.1 1 0 1.5 0.7 1.5 1.6l0.2 4.6q0 0.3 0.3 0.3l1.2-0.1c0.2 0 0.3 0 0.2-0.3zm7.1-3.4v-3.3c0-0.2-0.1-0.3-0.3-0.3h-1.2c-0.3 0-0.3 0.1-0.3 0.3v4.1c0 0.2 0.2 0.3 0.3 0.2l1.2-0.6c0.2-0.1 0.3-0.2 0.3-0.4zm10.5 3.5v-4.5c0-1.7-1-2.8-3-2.8-1.2 0-2 0.3-2.5 0.6-0.2 0.1-0.2 0.1-0.1 0.3l0.3 0.7c0.1 0.1 0.2 0.1 0.3 0.1 0.3-0.2 0.9-0.5 1.7-0.5 0.8 0 1.6 0.5 1.6 1.5v4.6q0 0.2 0.2 0.2h1.3c0.2 0 0.2-0.1 0.2-0.2zm7.5-0.1v-6.7c0-0.1 0-0.3-0.3-0.3h-1.1c-0.3 0-0.4 0.1-0.4 0.3v6.7c0 0.2 0.1 0.3 0.3 0.3h1.2c0.3 0 0.3-0.1 0.3-0.3zm9.8-6.3l-0.2-0.6q-0.1-0.2-0.3-0.2c-0.3 0.1-0.9 0.1-1.3 0.1-0.5 0-1-0.1-1.5-0.2-0.1 0-0.2 0-0.2 0.1l-0.3 0.8c0 0.2 0 0.2 0.2 0.3 0.2 0.1 0.8 0.2 1.3 0.2 0.1 0 0.3 0 0.4 0-0.9 0.6-1.2 1.4-1.2 2.8v3c0 0.3 0.1 0.3 0.3 0.3h1.2c0.2 0 0.3-0.1 0.3-0.3v-4c0-1 0.2-1.5 1.2-2 0.2-0.1 0.1-0.1 0.1-0.3zm11.6 6.2l-1.9-2.6c0.5-0.2 1.1-0.8 1.4-1.9l0.4-2.1c0-0.2 0.1-0.3-0.2-0.3l-1.2-0.1c-0.2-0.1-0.3 0-0.3 0.2l-0.5 2.6c-0.1 0.3-0.1 0.6-0.2 0.7l-2.3-3.4c-0.1-0.2-0.2-0.2-0.4-0.2l-1.1 0.4c-0.2 0-0.3 0.1-0.2 0.2l1.6 2.5c-0.4 0.3-1 0.8-1.2 1.9l-0.3 2.3c-0.1 0.1 0 0.2 0.2 0.2l1.1 0.1c0.2 0 0.3 0 0.3-0.2l0.4-2.6c0-0.4 0.1-0.6 0.2-0.7l2.5 3.5c0.1 0.2 0.2 0.1 0.3 0.1l1.3-0.3q0.2 0 0.1-0.3zm18.3 0.2v-4.5c0-1.8-1.1-2.8-3.3-2.8-0.7 0-1.9 0.1-2.5 0.5-0.2 0.1-0.2 0.2-0.2 0.4l0.4 0.6q0.1 0.3 0.3 0.1c0.4-0.2 1.1-0.4 1.7-0.4 0.9 0 1.8 0.4 1.8 1.6v4.4c0 0.2 0.1 0.3 0.3 0.3h1.2q0.3 0 0.3-0.2zm-4-0.1v-4.1c0-0.1 0-0.3-0.3-0.3h-1.1c-0.3 0-0.3 0.1-0.3 0.3v4.1c0 0.3 0 0.3 0.3 0.3h1.1c0.2 0 0.3-0.1 0.3-0.3zm15.4-6.6c0.1-0.2 0-0.3-0.2-0.3l-1.2-0.2c-0.3 0-0.3 0-0.4 0.3l-0.3 2.2c-0.2 0.6-0.3 1.2-0.6 1.4-0.7-0.9-1.2-2.5-1.5-3.6-0.1-0.3-0.1-0.3-0.4-0.3l-1.2 0.2c-0.3 0-0.3 0.2-0.2 0.4 0.8 2.6 1.5 4.1 3.5 5.5h-3.2c-0.2 0-0.2 0.1-0.2 0.3v0.8c0 0.1 0 0.2 0.2 0.2h5.3c0.2 0 0.2 0 0.2-0.3v-0.6c0-0.2-0.1-0.3-0.3-0.4-0.5-0.3-1.2-1-1.6-1.4 0.7-0.4 1.3-1 1.6-2zm11.4-0.2c0-0.2-0.1-0.2-0.2-0.2l-1.3-0.1c-0.2 0-0.3 0-0.3 0.3l-0.2 4.2c0 1.1-0.6 1.6-1 1.8l-1.3-6.1c0-0.2-0.1-0.2-0.3-0.2l-1.3 0.2c-0.2 0-0.2 0.1-0.1 0.3l1.5 6.3-1.2 0.3c-0.2 0-0.2 0.2-0.2 0.4l0.2 0.6c0.1 0.2 0.1 0.2 0.4 0.1l2.1-0.6c2.2-0.6 2.8-1.9 3-3.5zm7.4 6.7v-6.7c0-0.1-0.1-0.3-0.3-0.3h-1.2c-0.2 0-0.3 0.1-0.3 0.3v6.7c0 0.2 0.1 0.3 0.3 0.3h1.2c0.2 0 0.3-0.1 0.3-0.3zm12.2-2.4l-0.2-2.6c-0.2-1.7-1-2.2-2.2-2.2-0.7 0-1.6 0.4-2.1 0.9-0.3-0.4-0.8-0.8-1.3-0.9-0.3-0.1-0.4-0.2-0.5 0.1l-0.2 0.6c-0.2 0.2-0.1 0.2 0.1 0.4 0.4 0.3 0.5 0.8 0.4 1.2l-0.6 4.9c0 0.2 0 0.3 0.2 0.3l1.2 0.1q0.3 0.1 0.3-0.2l0.8-5.5c0.3-0.4 0.7-0.6 1.3-0.6 0.4 0 0.7 0.4 0.8 0.9l0.2 2.9c0.1 0.8-0.4 1.3-1 1.3-0.2 0-0.3-0.1-0.6-0.1-0.1-0.1-0.2-0.1-0.3 0.1l-0.2 0.8c0 0.2 0 0.2 0.2 0.3 0.2 0.1 0.9 0.1 1.2 0.1 1.7 0 2.6-1 2.5-2.8z"/><path class="a" d="m121.9 156.4l-0.6 1 1.5 0.9 0.5-1zm2.1 4.4q-0.4-1.5-1.1-1.5-0.6 0-1.2 0.9-0.6 0.9-0.6 1.5 0 0.7 0.6 1.1 0.1 0 1.2 0.5-0.1 0.1-2 0.2-1.5 0.1-2.3 0-3.2 0-3.9-0.4-0.5-0.5-0.5-1.1 0-0.2 0.1-1.2-0.4 0.7-0.4 0.8-0.2 0.4-0.2 0.9 0 0.7 0.5 1.5 0.5 0.8 4 0.8 3 0 5.7-0.3 0.3 0 0.3-1.6 0-1.1-0.2-2.1zm-0.3 1.7l-2-1.1q0-0.2 0.3-0.6 0.4-0.4 0.6-0.4 0.3 0 0.7 0.9 0.4 0.7 0.4 1.1 0 0 0 0.1zm5.7 0.8q-0.2 0-0.5 0-0.6 0-1.1-0.1-0.7-0.1-0.7-0.3v-7.6l-0.9 1.2v5.9q0 0.2 0.1 0.4 0.1 0.3 0.1 0.4 0.1 0.6 0.5 0.9 0.5 0.4 1.1 0.4h1.4c0 0 0-1.2 0-1.2zm8.4 0h-1.1q-0.4 0-1.3-0.6-0.7-0.4-1.2-0.9-1.5-1.3-2.6-1.3-0.7 0-1.2 0.5-0.2 0.2-0.6 1.1 1.1-0.5 1.6-0.5 0.6 0 1.3 0.4 0.7 0.4 1.1 0.9 0.4 0.3 0.4 0.4 0.4 0-5.9 0v1.2h9.5zm-6 2.9l-0.6 1 1.5 0.9 0.6-1.1zm16.1-2.9h-1.1q0-1.4-0.2-2.2l-1 0.9q0.3 0.2 0.3 0.9 0 0.3-0.3 0.4-0.1 0-0.7 0-0.9 0-0.9-0.2 0.1-0.5 0.1-1.2l0.1-0.7-0.9 0.9q0 0.2 0 0.6 0 0.6-0.4 0.6 0 0-0.2 0-0.2 0-0.3 0-1.4 0-2.1-0.1-0.3 0-0.3-0.1 0.2-0.7 0.2-1.3 0-0.4 0-0.7l-0.9 1q0.1 0.2 0.1 0.5 0 0.4-0.1 0.5-0.2 0.2-2.3 0.2-0.3 0-0.3 0v1.2h1.3q1.2 0 1.5-0.4 0.9 0.4 2.2 0.4 0.8 0 1.7-0.4 1.1 0.5 2.3 0.5 0.1 0 0.4-0.1 0.2 0 0.3 0h1.5c0 0 0-1.2 0-1.2zm4.4-1.5q-0.6-1-1.3-1-0.5 0-0.9 0.5-0.2 0.3-0.5 1.1-0.3 0.7-0.4 0.8-0.2 0.1-2.4 0.1v1.2h1.5q0.9 0 1.1-0.8 0.3 0.4 1.1 0.6 0.8 0.3 1.3 0.3 1 0 1-1 0-0.8-0.5-1.8zm-0.7 1.6q-0.3 0-0.9-0.2-0.7-0.3-0.7-0.5 0-0.2 0.4-0.5 0.3-0.4 0.6-0.4 0.3 0 0.7 0.5 0.4 0.5 0.4 0.8 0 0.3-0.5 0.3zm14-0.1h-1.1q-3.5 0-3.5 2.5 0 0.2 0 0.3 0.1 0.1 0.7 0.4 0.7 0.3 0.7 0.4 0 0.2-1.3 0.5-1.1 0.2-1.6 0.2-2.2 0-2.2-1.7 0-0.5 0.2-1.2 0.2-0.6 0.4-1.2-0.1-0.1-0.6 1-0.6 1.3-0.6 2.2 0 1.1 0.9 1.8 0.9 0.6 2 0.6 1.4 0 2.8-0.9 1.2-0.6 1.3-0.9l0.3-1.6q-0.2 0.1-1.1-0.2-1-0.4-1-0.5 0-0.4 1.8-0.5 0.3 0 1.9 0zm-4.5 8.1l-2.7-1.6-0.5 0.9 1.3 0.8 1.1-1.8 1.3 0.8zm10.6-8.2h-1.1q0 0 0-0.1 0-0.6-0.6-1.5-0.7-0.9-1.2-0.9-0.5 0-0.9 0.5-0.3 0.4-0.6 1.1-0.2 0.7-0.4 0.8-0.2 0.1-2.3 0.1v1.2h1.5q0.8 0 1.1-0.7 0.4 0.3 1.1 0.6 0.7 0.2 1.3 0.2 0.4 0 0.6-0.1h1.5zm-2.4 0.1q-0.3 0-0.9-0.2-0.7-0.3-0.7-0.4 0-0.3 0.4-0.6 0.4-0.4 0.6-0.4 0.4 0 0.8 0.5 0.3 0.5 0.3 0.8 0 0.3-0.5 0.3zm6.5-0.1h-1.1q0-0.6-0.3-1.5-0.3-0.9-0.7-1.4l-0.5 1.3q0.1 0 0.4 0.6 0.3 0.6 0.3 0.8 0 0.2-0.1 0.2h-3.2v1.2h5.2zm-1.9 4.9l-2.5-1.6-0.5 1 1.2 0.7 1-1.7 1.3 0.7zm5.1-4.9h-1.1v-8l-1 1.5v6.5h-2.2v1.2h4.3zm3.1-5.2l-2.7-1.7-0.5 1 1.3 0.8 1.1-1.9 1.3 0.8zm0.6 2.9q-0.4-1.8-1.2-1.8-0.6 0-1.3 1-0.6 1-0.6 1.6 0 0.6 0.7 1 0 0.1 1.2 0.6h-3.6v1.1h4.3q0.5 0 0.6 0 0.1-0.2 0.1-1.1 0-1.3-0.2-2.4zm-0.5 1.5l-2-1.1q0.1-0.2 0.4-0.5 0.3-0.4 0.5-0.4 0.4 0 0.8 0.8 0.4 0.7 0.4 1.1 0 0.1-0.1 0.1zm1.9-6.5h-0.4q-0.3 0-0.3-0.3 0-0.3 0.3-0.5 0.3-0.2 0.6-0.2 0.4 0 0.5 0.1l0.2-0.6q-0.2 0-0.4 0-0.8 0-1.2 0.5-0.4 0.6-0.4 1 0 0.3 0.5 0.7-0.1 0-0.2 0.3-0.1 0.2-0.1 0.3 0 0.1 0.1 0.1 0.6-0.6 0.9-0.8 0.3-0.2 1-0.4l0.2-0.6zm5.3 0.5l-0.3-1.1-0.8 0.8q0.2 0.7 0.2 1.5 0 1.6-0.7 3.2-0.7-1.2-1.5-2.1-1.1-1.5-1.8-1.5-0.3 0-0.4 0.3-0.2 0.2-0.2 0.5 0 0.9 1.2 1.9l0.3-0.4q0.9 0.6 1.8 1.9 0.1 0.1 0.1 0.2-0.8 1.1-2 1.8l-0.1 1.3 2.6-0.1q0.7 0 0.7-1.3 0-0.9-0.4-2 0.9-1.6 1.1-3.3l0.3 0.1 0.5-1zm-1.6 6.9h-1.4q0.7-0.6 1.2-1.3h-0.1q0.3 0.6 0.3 1 0 0.1 0 0.3zm4.6-7.5q-0.2 0-0.5-0.1-0.3 0-0.3-0.2 0-0.3 0.4-0.5 0.3-0.2 0.6-0.2 0.4 0 0.5 0.1l0.2-0.6q-0.2 0-0.4 0-0.8 0-1.2 0.5-0.4 0.5-0.4 0.9 0 0.4 0.5 0.7-0.3 0.3-0.3 0.7 0 0.1 0 0.1 0.5-0.4 0.9-0.8 0.4-0.2 1.1-0.4l0.2-0.6zm1.1 1.5l-1 1v6.8l1-1.1zm18.2 5.9h-1.2q0-0.4 0-1.1-0.1-0.9-0.2-1.1l-1 0.9q0.3 0.3 0.3 1 0 0.3-0.4 0.4-0.2 0-0.7 0-0.8 0-0.8-0.2 0.2-0.9 0.2-1.2 0-0.5 0-0.8l-0.9 0.9q0.1 0.1 0.1 0.3 0 0.7-0.2 0.8-0.1 0.2-0.7 0.2-0.7 0-0.8-0.3-0.2-0.8-0.6-1.7l-1 1.2q0.4 0.3 0.6 1 0.3 0.7 0.3 1.2 0 0.4-0.1 0.5-0.1 0.2-0.5 0.4-0.2 0.1-0.5 0.3-1.1 0.5-2.2 0.5-2.4 0-2.4-1.8 0-0.5 0.3-1.2 0.2-0.7 0.5-1.1-0.6 0.6-1 1.6-0.5 1-0.5 1.7 0 2 2.9 2l0.2-0.1q1.5 0 2.7-0.8 1.4-0.9 1.4-2.3 0.7 0 0.8 0 0.5-0.1 0.8-0.4 0 0 0.1 0.1 0.2 0.1 0.3 0.1 0.9 0.3 2.9 0.2h-0.1 1.4c0 0 0-1.2 0-1.2zm3.2 0h-1.1v-8l-1 1.5v6.5h-2.2v1.2h4.3zm8.4 0h-1.1q-0.4 0-1.3-0.6-0.7-0.5-1.2-0.9-1.5-1.3-2.6-1.3-0.7 0-1.2 0.5-0.2 0.2-0.6 1.1 1.1-0.5 1.6-0.5 0.6 0 1.3 0.4 0.7 0.4 1.1 0.8 0.4 0.4 0.4 0.5 0.4 0-5.9 0v1.2h9.5zm-6 2.9l-0.6 1 1.5 0.8 0.6-1zm9.9-2.5l-1.8-1.4v-4l0.6-0.9q-0.6-0.4-0.7-0.9-0.1-0.2-0.1-1.2l-1.1 1 0.5 1.4v5.2q-0.7 0.3-1.2 0.4-0.2 0-1.2 0v1.2h1.3q0.8 0 2.1-0.6l1.3 1q0.4-0.3 0.4-0.9 0-0.1-0.1-0.3zm3.4-8.4l-0.9 1.1v8.1l0.9-1.4z"/><path class="b" d="m121.9 156.4l-0.6 1 1.5 0.9 0.5-1zm2.1 4.4q-0.4-1.5-1.1-1.5-0.6 0-1.2 0.9-0.6 0.9-0.6 1.5 0 0.7 0.6 1.1 0.1 0 1.2 0.5-0.1 0.1-2 0.2-1.5 0.1-2.3 0-3.2 0-3.9-0.4-0.5-0.5-0.5-1.1 0-0.2 0.1-1.2-0.4 0.7-0.4 0.8-0.2 0.4-0.2 0.9 0 0.7 0.5 1.5 0.5 0.8 4 0.8 3 0 5.7-0.3 0.3 0 0.3-1.6 0-1.1-0.2-2.1zm-0.3 1.7l-2-1.1q0-0.2 0.3-0.6 0.4-0.4 0.6-0.4 0.3 0 0.7 0.9 0.4 0.7 0.4 1.1 0 0 0 0.1zm5.7 0.8q-0.2 0-0.5 0-0.6 0-1.1-0.1-0.7-0.1-0.7-0.3v-7.6l-0.9 1.2v5.9q0 0.2 0.1 0.4 0.1 0.3 0.1 0.4 0.1 0.6 0.5 0.9 0.5 0.4 1.1 0.4h1.4c0 0 0-1.2 0-1.2zm8.4 0h-1.1q-0.4 0-1.3-0.6-0.7-0.4-1.2-0.9-1.5-1.3-2.6-1.3-0.7 0-1.2 0.5-0.2 0.2-0.6 1.1 1.1-0.5 1.6-0.5 0.6 0 1.3 0.4 0.7 0.4 1.1 0.9 0.4 0.3 0.4 0.4 0.4 0-5.9 0v1.2h9.5zm-6 2.9l-0.6 1 1.5 0.9 0.6-1.1zm16.1-2.9h-1.1q0-1.4-0.2-2.2l-1 0.9q0.3 0.2 0.3 0.9 0 0.3-0.3 0.4-0.1 0-0.7 0-0.9 0-0.9-0.2 0.1-0.5 0.1-1.2l0.1-0.7-0.9 0.9q0 0.2 0 0.6 0 0.6-0.4 0.6 0 0-0.2 0-0.2 0-0.3 0-1.4 0-2.1-0.1-0.3 0-0.3-0.1 0.2-0.7 0.2-1.3 0-0.4 0-0.7l-0.9 1q0.1 0.2 0.1 0.5 0 0.4-0.1 0.5-0.2 0.2-2.3 0.2-0.3 0-0.3 0v1.2h1.3q1.2 0 1.5-0.4 0.9 0.4 2.2 0.4 0.8 0 1.7-0.4 1.1 0.5 2.3 0.5 0.1 0 0.4-0.1 0.2 0 0.3 0h1.5c0 0 0-1.2 0-1.2zm4.4-1.5q-0.6-1-1.3-1-0.5 0-0.9 0.5-0.2 0.3-0.5 1.1-0.3 0.7-0.4 0.8-0.2 0.1-2.4 0.1v1.2h1.5q0.9 0 1.1-0.8 0.3 0.4 1.1 0.6 0.8 0.3 1.3 0.3 1 0 1-1 0-0.8-0.5-1.8zm-0.7 1.6q-0.3 0-0.9-0.2-0.7-0.3-0.7-0.5 0-0.2 0.4-0.5 0.3-0.4 0.6-0.4 0.3 0 0.7 0.5 0.4 0.5 0.4 0.8 0 0.3-0.5 0.3zm14-0.1h-1.1q-3.5 0-3.5 2.5 0 0.2 0 0.3 0.1 0.1 0.7 0.4 0.7 0.3 0.7 0.4 0 0.2-1.3 0.5-1.1 0.2-1.6 0.2-2.2 0-2.2-1.7 0-0.5 0.2-1.2 0.2-0.6 0.4-1.2-0.1-0.1-0.6 1-0.6 1.3-0.6 2.2 0 1.1 0.9 1.8 0.9 0.6 2 0.6 1.4 0 2.8-0.9 1.2-0.6 1.3-0.9l0.3-1.6q-0.2 0.1-1.1-0.2-1-0.4-1-0.5 0-0.4 1.8-0.5 0.3 0 1.9 0zm-4.5 8.1l-2.7-1.6-0.5 0.9 1.3 0.8 1.1-1.8 1.3 0.8zm10.6-8.2h-1.1q0 0 0-0.1 0-0.6-0.6-1.5-0.7-0.9-1.2-0.9-0.5 0-0.9 0.5-0.3 0.4-0.6 1.1-0.2 0.7-0.4 0.8-0.2 0.1-2.3 0.1v1.2h1.5q0.8 0 1.1-0.7 0.4 0.3 1.1 0.6 0.7 0.2 1.3 0.2 0.4 0 0.6-0.1h1.5zm-2.4 0.1q-0.3 0-0.9-0.2-0.7-0.3-0.7-0.4 0-0.3 0.4-0.6 0.4-0.4 0.6-0.4 0.4 0 0.8 0.5 0.3 0.5 0.3 0.8 0 0.3-0.5 0.3zm6.5-0.1h-1.1q0-0.6-0.3-1.5-0.3-0.9-0.7-1.4l-0.5 1.3q0.1 0 0.4 0.6 0.3 0.6 0.3 0.8 0 0.2-0.1 0.2h-3.2v1.2h5.2zm-1.9 4.9l-2.5-1.6-0.5 1 1.2 0.7 1-1.7 1.3 0.7zm5.1-4.9h-1.1v-8l-1 1.5v6.5h-2.2v1.2h4.3zm3.1-5.2l-2.7-1.7-0.5 1 1.3 0.8 1.1-1.9 1.3 0.8zm0.6 2.9q-0.4-1.8-1.2-1.8-0.6 0-1.3 1-0.6 1-0.6 1.6 0 0.6 0.7 1 0 0.1 1.2 0.6h-3.6v1.1h4.3q0.5 0 0.6 0 0.1-0.2 0.1-1.1 0-1.3-0.2-2.4zm-0.5 1.5l-2-1.1q0.1-0.2 0.4-0.5 0.3-0.4 0.5-0.4 0.4 0 0.8 0.8 0.4 0.7 0.4 1.1 0 0.1-0.1 0.1zm1.9-6.5h-0.4q-0.3 0-0.3-0.3 0-0.3 0.3-0.5 0.3-0.2 0.6-0.2 0.4 0 0.5 0.1l0.2-0.6q-0.2 0-0.4 0-0.8 0-1.2 0.5-0.4 0.6-0.4 1 0 0.3 0.5 0.7-0.1 0-0.2 0.3-0.1 0.2-0.1 0.3 0 0.1 0.1 0.1 0.6-0.6 0.9-0.8 0.3-0.2 1-0.4l0.2-0.6zm5.3 0.5l-0.3-1.1-0.8 0.8q0.2 0.7 0.2 1.5 0 1.6-0.7 3.2-0.7-1.2-1.5-2.1-1.1-1.5-1.8-1.5-0.3 0-0.4 0.3-0.2 0.2-0.2 0.5 0 0.9 1.2 1.9l0.3-0.4q0.9 0.6 1.8 1.9 0.1 0.1 0.1 0.2-0.8 1.1-2 1.8l-0.1 1.3 2.6-0.1q0.7 0 0.7-1.3 0-0.9-0.4-2 0.9-1.6 1.1-3.3l0.3 0.1 0.5-1zm-1.6 6.9h-1.4q0.7-0.6 1.2-1.3h-0.1q0.3 0.6 0.3 1 0 0.1 0 0.3zm4.6-7.5q-0.2 0-0.5-0.1-0.3 0-0.3-0.2 0-0.3 0.4-0.5 0.3-0.2 0.6-0.2 0.4 0 0.5 0.1l0.2-0.6q-0.2 0-0.4 0-0.8 0-1.2 0.5-0.4 0.5-0.4 0.9 0 0.4 0.5 0.7-0.3 0.3-0.3 0.7 0 0.1 0 0.1 0.5-0.4 0.9-0.8 0.4-0.2 1.1-0.4l0.2-0.6zm1.1 1.5l-1 1v6.8l1-1.1zm18.2 5.9h-1.2q0-0.4 0-1.1-0.1-0.9-0.2-1.1l-1 0.9q0.3 0.3 0.3 1 0 0.3-0.4 0.4-0.2 0-0.7 0-0.8 0-0.8-0.2 0.2-0.9 0.2-1.2 0-0.5 0-0.8l-0.9 0.9q0.1 0.1 0.1 0.3 0 0.7-0.2 0.8-0.1 0.2-0.7 0.2-0.7 0-0.8-0.3-0.2-0.8-0.6-1.7l-1 1.2q0.4 0.3 0.6 1 0.3 0.7 0.3 1.2 0 0.4-0.1 0.5-0.1 0.2-0.5 0.4-0.2 0.1-0.5 0.3-1.1 0.5-2.2 0.5-2.4 0-2.4-1.8 0-0.5 0.3-1.2 0.2-0.7 0.5-1.1-0.6 0.6-1 1.6-0.5 1-0.5 1.7 0 2 2.9 2l0.2-0.1q1.5 0 2.7-0.8 1.4-0.9 1.4-2.3 0.7 0 0.8 0 0.5-0.1 0.8-0.4 0 0 0.1 0.1 0.2 0.1 0.3 0.1 0.9 0.3 2.9 0.2h-0.1 1.4c0 0 0-1.2 0-1.2zm3.2 0h-1.1v-8l-1 1.5v6.5h-2.2v1.2h4.3zm8.4 0h-1.1q-0.4 0-1.3-0.6-0.7-0.5-1.2-0.9-1.5-1.3-2.6-1.3-0.7 0-1.2 0.5-0.2 0.2-0.6 1.1 1.1-0.5 1.6-0.5 0.6 0 1.3 0.4 0.7 0.4 1.1 0.8 0.4 0.4 0.4 0.5 0.4 0-5.9 0v1.2h9.5zm-6 2.9l-0.6 1 1.5 0.8 0.6-1zm9.9-2.5l-1.8-1.4v-4l0.6-0.9q-0.6-0.4-0.7-0.9-0.1-0.2-0.1-1.2l-1.1 1 0.5 1.4v5.2q-0.7 0.3-1.2 0.4-0.2 0-1.2 0v1.2h1.3q0.8 0 2.1-0.6l1.3 1q0.4-0.3 0.4-0.9 0-0.1-0.1-0.3zm3.4-8.4l-0.9 1.1v8.1l0.9-1.4z"/><path class="c" d="m248.9 73c1.5-0.5 3 0.2 3.5 1.7 0.5 1.4-0.2 3-1.7 3.5-1.4 0.5-3-0.3-3.5-1.7-0.5-1.5 0.3-3 1.7-3.5z"/><path class="c" d="m241.5 76.8c1.8-0.7 3.8 0.3 4.5 2.1 0.6 1.9-0.4 3.9-2.2 4.5-1.8 0.6-3.8-0.3-4.5-2.2-0.6-1.8 0.4-3.8 2.2-4.4z"/><path class="c" d="m231.1 79.4c2.2-0.8 4.7 0.4 5.4 2.6 0.8 2.2-0.4 4.7-2.6 5.4-2.2 0.8-4.7-0.4-5.4-2.6-0.8-2.2 0.4-4.7 2.6-5.4z"/><path class="c" d="m217.9 77.1c2.7-0.9 5.5 0.5 6.4 3.1 0.9 2.6-0.5 5.5-3.1 6.4-2.6 0.9-5.5-0.5-6.4-3.1-0.9-2.7 0.5-5.5 3.1-6.4z"/><path class="c" d="m203.6 67.5c3-1 6.3 0.6 7.3 3.6 1.1 3-0.5 6.3-3.6 7.3-3 1.1-6.3-0.5-7.3-3.5-1.1-3.1 0.5-6.4 3.6-7.4z"/><path class="c" d="m195.2 49.5c3.4-1.2 7.2 0.6 8.4 4 1.1 3.5-0.7 7.2-4.1 8.4-3.4 1.2-7.2-0.7-8.3-4.1-1.2-3.4 0.6-7.1 4-8.3z"/><path class="c" d="m196.9 28.7c3.8-1.3 7.9 0.7 9.3 4.5 1.3 3.8-0.8 8-4.6 9.3-3.8 1.3-7.9-0.7-9.3-4.5-1.3-3.9 0.8-8 4.6-9.3z"/><path class="d" d="m237.1 69.7c1.2 1 1.3 2.7 0.3 3.9-1 1.1-2.7 1.2-3.9 0.2-1.1-1-1.2-2.7-0.2-3.9 1-1.1 2.7-1.2 3.8-0.2z"/><path class="d" d="m230.2 65.2c1.4 1.2 1.6 3.4 0.3 4.9-1.3 1.5-3.5 1.6-5 0.4-1.4-1.3-1.6-3.5-0.3-5 1.3-1.5 3.5-1.6 5-0.3z"/><path class="d" d="m222.7 57.4c1.8 1.6 2 4.3 0.4 6.1-1.5 1.7-4.2 1.9-6 0.4-1.8-1.6-2-4.3-0.4-6.1 1.5-1.7 4.2-1.9 6-0.4z"/><path class="d" d="m218.1 44.9c2.1 1.8 2.3 5 0.5 7.1-1.8 2.1-5 2.3-7.1 0.5-2.1-1.8-2.3-5-0.5-7.1 1.8-2.1 5-2.3 7.1-0.5z"/><path class="d" d="m219.2 27.7c2.4 2.1 2.7 5.7 0.6 8.1-2.1 2.4-5.8 2.7-8.2 0.6-2.4-2.1-2.7-5.8-0.6-8.2 2.1-2.4 5.8-2.6 8.2-0.5z"/><path class="d" d="m230.6 11.4c2.8 2.4 3.1 6.5 0.7 9.3-2.4 2.7-6.5 3-9.3 0.6-2.7-2.4-3-6.5-0.6-9.2 2.4-2.8 6.5-3 9.2-0.7z"/><path class="d" d="m249.5 2.4c3 2.7 3.4 7.3 0.7 10.3-2.6 3.1-7.3 3.4-10.3 0.8-3.1-2.7-3.4-7.3-0.7-10.3 2.6-3.1 7.2-3.4 10.3-0.8z"/><path class="e" d="m234.1 57.8c-0.3 1.5-1.7 2.5-3.2 2.2-1.5-0.3-2.5-1.7-2.2-3.2 0.3-1.5 1.7-2.5 3.2-2.2 1.5 0.3 2.5 1.7 2.2 3.2z"/><path class="e" d="m234.5 49.5c-0.3 1.9-2.2 3.2-4.1 2.8-1.9-0.4-3.1-2.2-2.8-4.1 0.4-1.9 2.2-3.2 4.1-2.8 2 0.4 3.2 2.2 2.8 4.1z"/><path class="e" d="m237.5 39.2c-0.5 2.3-2.7 3.8-5 3.4-2.3-0.5-3.8-2.7-3.4-5 0.5-2.4 2.7-3.9 5-3.4 2.3 0.4 3.8 2.7 3.4 5z"/><path class="e" d="m246.1 28.9c-0.6 2.8-3.2 4.5-5.9 4-2.8-0.5-4.6-3.2-4-5.9 0.5-2.7 3.1-4.5 5.9-4 2.7 0.6 4.5 3.2 4 5.9z"/><path class="e" d="m261.5 21.3c-0.6 3.1-3.6 5.2-6.8 4.6-3.1-0.7-5.2-3.7-4.5-6.8 0.6-3.2 3.6-5.2 6.7-4.6 3.2 0.6 5.2 3.6 4.6 6.8z"/><path class="e" d="m281.3 23.1c-0.7 3.5-4.1 5.8-7.7 5.1-3.5-0.7-5.9-4.1-5.2-7.6 0.7-3.6 4.2-5.9 7.7-5.2 3.6 0.7 5.9 4.1 5.2 7.7z"/><path class="e" d="m298.5 34.9c-0.8 3.9-4.6 6.5-8.6 5.8-3.9-0.8-6.5-4.6-5.7-8.6 0.7-4 4.6-6.6 8.5-5.8 4 0.8 6.6 4.6 5.8 8.6z"/><path class="f" d="m242.9 49.3c-1.5 0.5-3.1-0.3-3.5-1.7-0.5-1.5 0.2-3 1.7-3.5 1.4-0.5 3 0.2 3.5 1.7 0.5 1.4-0.3 3-1.7 3.5z"/><path class="f" d="m250.3 45.5c-1.9 0.6-3.9-0.4-4.5-2.2-0.6-1.8 0.3-3.8 2.2-4.5 1.8-0.6 3.8 0.4 4.4 2.2 0.7 1.8-0.3 3.8-2.1 4.5z"/><path class="f" d="m260.7 42.9c-2.3 0.7-4.7-0.4-5.4-2.7-0.8-2.2 0.4-4.6 2.6-5.4 2.2-0.8 4.7 0.4 5.4 2.6 0.8 2.3-0.4 4.7-2.6 5.5z"/><path class="f" d="m273.8 45.2c-2.6 0.9-5.4-0.5-6.3-3.2-1-2.6 0.4-5.4 3.1-6.4 2.6-0.9 5.5 0.5 6.4 3.2 0.9 2.6-0.5 5.5-3.2 6.4z"/><path class="f" d="m288.2 54.7c-3 1.1-6.3-0.5-7.4-3.6-1-3 0.6-6.3 3.6-7.3 3.1-1.1 6.4 0.6 7.4 3.6 1 3-0.6 6.3-3.6 7.3z"/><path class="f" d="m296.6 72.7c-3.5 1.2-7.2-0.6-8.4-4-1.1-3.4 0.7-7.2 4.1-8.3 3.4-1.2 7.1 0.6 8.3 4 1.2 3.4-0.6 7.2-4 8.3z"/><path class="f" d="m294.9 93.6c-3.8 1.3-8-0.7-9.3-4.6-1.3-3.8 0.7-7.9 4.6-9.3 3.8-1.3 7.9 0.8 9.2 4.6 1.4 3.8-0.7 8-4.5 9.3z"/><path class="g" d="m254.6 52.6c-1.1-1-1.2-2.8-0.2-3.9 1-1.2 2.7-1.3 3.9-0.3 1.1 1 1.2 2.7 0.2 3.9-1 1.1-2.7 1.3-3.9 0.3z"/><path class="g" d="m261.6 57.1c-1.4-1.3-1.6-3.5-0.3-5 1.3-1.4 3.5-1.6 4.9-0.3 1.5 1.2 1.7 3.5 0.4 4.9-1.3 1.5-3.5 1.7-5 0.4z"/><path class="g" d="m269.1 64.8c-1.8-1.5-2-4.2-0.4-6 1.5-1.8 4.2-2 6-0.4 1.8 1.5 2 4.2 0.4 6-1.5 1.8-4.2 2-6 0.4z"/><path class="g" d="m273.7 77.4c-2.1-1.9-2.3-5.1-0.5-7.1 1.8-2.1 5-2.4 7.1-0.5 2.1 1.8 2.3 5 0.5 7.1-1.8 2.1-5 2.3-7.1 0.5z"/><path class="g" d="m272.6 94.6c-2.4-2.1-2.7-5.8-0.6-8.2 2.1-2.4 5.8-2.7 8.2-0.6 2.4 2.1 2.6 5.8 0.5 8.2-2.1 2.4-5.7 2.7-8.1 0.6z"/><path class="g" d="m261.1 110.8c-2.7-2.4-3-6.5-0.6-9.2 2.4-2.8 6.5-3 9.2-0.7 2.8 2.4 3.1 6.5 0.7 9.3-2.4 2.7-6.5 3-9.3 0.6z"/><path class="g" d="m242.3 119.8c-3-2.7-3.4-7.3-0.7-10.3 2.6-3.1 7.2-3.4 10.3-0.7 3 2.6 3.4 7.2 0.7 10.3-2.6 3-7.3 3.3-10.3 0.7z"/><path fill-rule="evenodd" class="h" d="m94.6 100.8v68.5"/><g style="opacity:1"><path class="d" d="m76.6 164.3l-9.6-36.2-2.8 12.8-7.1-28.4-3.1 18.4-7.5-30.2-5.7 33-0.1 13q0.1 0 0.2 0l0.6-1.9 2.9 1.3-0.9 1.7c0.4 0.2 0.7 0.5 1.1 0.8l1.4-1.4 2.1 2.3-1.6 1.2c0.3 0.4 0.5 0.8 0.7 1.2l1.9-0.8 1 3-1.9 0.5q0.1 0.6 0.2 1.4h2l-0.4 3.1-1.8-0.3c-0.1 0.5-0.3 0.9-0.5 1.3l1.8 0.9-1.6 2.7-1.5-1.1c-0.3 0.4-0.7 0.7-1 1.1l0.6 0.6c0 0 30.6 0 30.6 0zm-35.5-7.7c0-0.6-0.1-1.1-0.4-1.5v2.9c0.2-0.4 0.4-0.9 0.4-1.4z"/><path class="i" d="m52.3 142l-21.7-16.8-21.5 16.2h6.6v7.2l-15 9.3 5.5 0.1 0.1 6.3h24.7l0.3-0.4c-0.3-0.3-0.6-0.7-0.9-1l-1.7 1.1-1.5-2.7 1.7-0.8c-0.2-0.4-0.4-0.9-0.5-1.4l-1.9 0.4-0.3-3.1h1.8c0-0.5 0.1-1 0.2-1.5l-1.9-0.4 0.9-3 1.8 0.7c0.2-0.4 0.5-0.8 0.8-1.2l-1.7-1.2 2.1-2.3 1.4 1.4q0.5-0.4 1.1-0.8l-1-1.8 2.9-1.3 0.7 1.8c0.4-0.1 0.9-0.1 1.3-0.2l-0.1-2.1h3.1l-0.2 2c0.5 0 1 0.1 1.5 0.2l0.6-1.9 2.9 1.3-0.9 1.7c0.4 0.2 0.7 0.5 1.1 0.8l1-1v-5.6c0 0 6.7 0 6.7 0zm-6.7 21.5q-0.1 0.1-0.2 0.2l0.2 0.1zm-7.3-4c1.5 0 2.8-1.3 2.8-2.9 0-1.6-1.2-2.9-2.8-2.9-1.6 0-2.9 1.3-2.9 2.9 0 1.6 1.3 2.9 2.9 2.9z"/></g></svg>