<svg version="1.2" xmlns="http://www.w3.org/2000/svg" viewBox="0 0 346 359" width="346" height="359"><style>.a{fill:#fff}.b{fill:#221715}.c{fill:#fc0101}.d{fill:#32903a}</style><g style="opacity:1"><path class="a" d="m85.3 36.9c2.7-5.4 7-11 13.7-11.2 2.2 5.3 2.1 11.1 4.1 16.4 1 2.6 0.2 5.2-0.2 7.8 5.3-2.9 11.1-4.8 17.1-5.6 0.3 4.7-0.9 9.6-4 13.3-3.7 4-9.6 5-14.8 4.3 1.6 4.3 3.6 8.7 3.2 13.4-0.3 2-2.6 3.3-4.2 1.9-4.4-2.6-7.9-6.6-11.9-9.8-1.8 4-6.4 4.4-9.4 7-3 2.6-7.2 1-10.6 0.5-2.3-0.3-2.7-3.3-1.9-5 2.3-4.4 6-7.8 9.5-11.2-2.1-0.5-4.1-0.2-6 0.3-3.8-3.5-8.1-7.7-7.1-13.5 2.7-3.5 8-3.2 11.9-2.6 3.8 0.6 5.7 4.2 8 6.7 1.1-4.2 1.1-8.6 2.6-12.7zm7.6-1.2c-1.4 6.8-2 13.9-5.1 20.2-6.1 0.5-9-7.6-15.2-6.4 3.7 3.9 8.7 6.1 12.9 9.3-2.3 3-5.7 4.8-7.9 7.9 4.4-1.2 8.6-3 13.1-3.8 2.5 0.8 4.7 2.1 7.1 2.9q-0.8-2.4-1.8-4.6c4.6-2.5 9.3-5 13.8-7.9 1.5-0.8 1.9-2.5 2.5-3.9-5.6 2.8-10.6 7.1-16.8 8.5-1.6 0.6-3.1-0.2-4.5-0.5 0.4-7.7 4.3-14.6 5.4-22.1-0.8 0.1-2.6 0.3-3.5 0.4z"/><path class="a" d="m239.4 44.3c-1.5-5.3 1.2-10.6 3.1-15.5 4.9 5.1 8.8 11 12.2 17.1 0.8 6.3 1.1 12.7 3.5 18.6 3.6 7.7 8.3 14.8 14.5 20.5 2.5 2.2 6.1 3.2 7.5 6.4-2.9-0.9-5.4-2.4-7.8-4.1-3.4-2.3-7.2-3.9-10.2-6.7-3.2-2.7-4.3-6.9-6.8-10.1-5.7-8.5-13.3-16.1-16-26.2zm1.6-4.8c1.7 6.1 5.5 11.4 8.4 16.9 1.8 3 2.9 6.7 6.1 8.5-0.4-3-1.4-5.9-3-8.5-4-6.3-5.2-14.1-10.1-20-0.4 0.8-1.1 2.3-1.4 3.1z"/><path class="a" d="m276.4 46.9c6.9 7.4 13.6 15.9 15.3 26.2 0.9 4.7 0.6 9.5 0 14.2 0.3 3.1 0.6 6.2 0.3 9.4-2.5-1.7-5.5-3.2-7.1-5.9-0.7-3.3-0.3-6.9-2.4-9.6-6.7-9.9-9.9-22.7-6.1-34.3zm4.7 12.1c0.8 5 2.5 9.9 2.9 15 0.3 4.9 2.1 9.4 3.6 14.1 0.6 0 1.9 0.2 2.5 0.3-1.2-7.5-2.8-14.9-4.6-22.2-0.9-2.8-0.6-7-4.4-7.2z"/><path class="a" d="m227.7 71.1c5.3-1.2 10.7 0.5 15.7 2.3 14.6 5 24.9 18.1 40.2 21.8 7.9 1.3 11.9 9.1 14.1 16-6.7-4.2-13.2-9.3-21.2-11-9.4-2.1-19.5-1.4-28.4-5.5-7.1-3.1-11.6-9.9-16-15.9-1.9-2.3-4.3-4.5-4.4-7.7zm7.1 8c9.2 5.6 19.4 9.3 29.6 12.5-1.1-5.1-6.4-6.7-10.6-8.6-5.2-2-10.2-4.6-15.5-6.2-1.8-0.9-2.5 1.4-3.5 2.3z"/><path class="a" d="m32 74.3c1.6-1.2 3.3-3.7 5.6-2.6 3.1 2.2 2.2 6.5 3.5 9.6 1.4 3.4-1.4 6.5-2.1 9.8 4-1.1 4.1-6.7 8-7.8 5.4-1.2 10.7-2.8 16.3-3.1 0 8.7-8.1 13.9-14.4 18.3 1 2.4 2.9 4.4 4.5 6.5 0.9 2.1 0.3 4.5 0.2 6.7-5 0.3-9.7-1.3-14.6-1.7-1.8-0.3-3.4 0.7-4.9 1.6 0.5 2.2 3.2 2.7 4.1 4.8 0.2 3.3-0.2 6.6 0 9.9 6.8-0.7 11.9-5.8 16.4-10.4 5.9-6.4 13.2-11.6 18.1-18.9 3.7-4.8 6.3-10.3 10.2-14.9-0.6 4.4-2.1 8.6-3.4 12.9-1 3.8-4.4 6.1-6.9 9-2.4 2.5-4.3 5.6-7.1 7.8-5.4 3.5-10.5 7.5-15.9 11.1-3.2 2-4.9 6.1-8.7 7.1-4.5 1.4-8.8 3.1-13.1 4.9-4.5 1.2-8.9 3.4-11.9 7.2-1.9 4-0.1 8.8-2 12.9-3.5 8.4-3 17.7-1 26.4 0.9 4.1-2.3 7.5-3.8 11q-2 0-3.9 0c0.2-5.1 0.7-10.2-0.2-15.2-1.8-10.3 1.2-20.7 0.1-31 0.2-6.5-2.9-12.7-1.5-19.1q2.6 2 5.2 4.1c-0.9 3.3-2.9 6.5-2 10 2.8-3.3 4.9-7.4 9-9.3 5.7-2.3 12.5-2.6 17.2-6.7-0.3-3.7-1.2-7.3-1.7-10.9-2.8 1.2-5.5 3.5-8.7 2.4-2.6-0.7-6-0.9-7.5-3.5 0.3-2.1 1.6-3.8 2.1-5.8-1.5-1.8-4-2.4-5.3-4.3-0.5-2.5-1.1-4.9-1.4-7.4 2.7-2.8 7-2.6 10.6-2.9 2.3 1 3.1 3.7 4.7 5.5 2.1-2.9-1.2-5.8-0.6-8.8 0.9-5.5 2.3-11.5 6.8-15.2zm0.4 22.1c0.1 1.6 0.1 4.4-2.3 4-4.1-1.8-8.7-2.7-13.2-2.5 2.5 4.1 7.8 3.9 11.2 6.7 1.4 2.7-2.1 5-2.8 7.6 4.4-1 7.8-4.3 11.7-6.4 2.3 0.8 4.6 1.9 7.1 2.2 1.6 0 4.1 0.6 4.3-1.7-2-1.6-4.2-2.8-6.4-4.1 3.6-5.3 7.8-10.1 12.5-14.4 0.9-0.9 2.3-1.9 1.7-3.4-8 2.6-12.9 10.3-19.5 15.2-0.3-5.1-0.3-10.2-0.7-15.3 0.2-1.7-1-2.9-2-4.1-2.1 5.1-2.1 10.7-1.6 16.2z"/><path class="a" d="m305.4 81.8c6 7 11 15.1 13.2 24.1 2.2 6.6-0.2 13.5-0.6 20.2-0.8 5.3 0.7 10.5 2.1 15.6 0.7-1.4 1.3-2.8 1.9-4.3 0.6 0 1.8 0.1 2.4 0.2-0.7 4.2-2.5 8.2-2.8 12.5-0.4 5.9 0.4 12 3.6 17 0.8 1.8 2.4 3.5 1.8 5.6-1.5 1.5-3.3 2.7-5 4.1-5.6-6.9-12.3-12.9-20-17.3-8.1-5-18.1-3.9-26.9-6-3-4.7-8-7.3-12.2-10.8-5.9-6.5-12.9-12.2-20.9-16-2.1-1.2-4.6-0.9-7-0.6 1.3 2.5 3.2 4.6 5.8 5.8 6.1 2.8 12.6 5.6 16.9 11-6.5-0.5-13.4-2-18-6.9-3.9-4.2-7.6-8.6-10.6-13.5 8.4 1 17.7 0.9 24.6 6.5 3.5 2.4 5.6 6.3 8.4 9.5 3.2 3.2 7.2 5.4 10.7 8.2 3.1 2.3 5.9 5.1 9.5 6.3 1-0.8 1.3-2.2 0.6-3.3-2.6-3.5-7.2-4.8-9.6-8.3-3.1-4.3-4.9-9.3-7-14-1.6-5.8-1-12-1.7-17.9 7.2 4.8 12.4 12 15.6 20 0.7 3.3 0.2 6.9 1.8 10 2.3 4.8 4.4 10 8.8 13.3 4.6 3.7 10.7 4.7 16.1 6.8 3 1.2 5.7 2.9 8.4 4.7 1.9-8.8-0.6-17.6-2.1-26.2-0.6-2.2 1-4 1.4-6-0.2-3-1.6-5.9-2-8.9 0.3-1.8 1.3-3.3 1.4-5.1 0-9-3.1-17.7-3.5-26.7-0.8 0.1-2.4 0.2-3.3 0.3 0.5 4.2 1.4 8.4 0.8 12.6-0.5 3.3 1.4 6.3 0.6 9.6-2.7-3.4-5.1-7.2-5.4-11.6-0.5-6.9 0.5-13.8 2.2-20.5zm-38.4 35.8c1.5 3.7 4.5 6.7 5.5 10.6 0.8 3.4 0.8 7 1.3 10.4q1.8 0.4 3.5 0.8c-0.9-7.7-2.8-15.4-7.2-22-0.8 0.1-2.3 0.2-3.1 0.2z"/><path class="a" d="m85.4 87.3c2.9 0.9 6.3 2.1 7 5.4 2 3.4-0.6 6.6-1.9 9.7 1.8-0.6 3.5-1 5.2-1.7 1.9-1.7 3-4.2 5.3-5.2 4.8-0.2 9.7 0.2 14.4 1.4 0.2 1.7 0.9 3.5 0.5 5.2-1.1 2.5-2.7 4.7-4.6 6.6-2.5 1.1-5.3 0.8-7.6 2.4-1.6 0.8-3.3 2.9-5.3 1.8-1.5-0.7-2.2-2.2-3.2-3.4 4.7-2.9 10.8-5.1 13.2-10.5-6.4 3-12.1 7.7-19.3 8.5-1.1-3.3-1.7-6.8-3.7-9.6-1-1.6-2.4-2.8-2.8-4.6 0.5-2.2 1.7-4.1 2.8-6z"/><path class="a" d="m80.3 100q1.8-0.4 3.5-0.7c0.7 1.9 1.5 3.7 1.7 5.7-0.7 1.7-3.5 1.6-4.3 0-1.2-1.4-0.8-3.4-0.9-5z"/><path class="a" d="m71.8 107.6c1.2-2.4 2.9-5.3 6-4.2 1.8 3.3-3.4 5.2-6 4.2z"/><path class="a" d="m72.1 111.5c3.8-1.5 7.9-2.1 12.1-2.3-2.9 1.2-6.3 1.5-8.4 4 0.6 1.4 1.4 2.6 2.1 3.9q-2.4 0-4.7 0-0.6-2.8-1.1-5.6z"/><path class="a" d="m104.8 114.1c1.8-1.4 4.2-2.5 6.4-1.3 3.8 2.6 7.1 6.2 8.9 10.5 0.2 1.6-0.4 4.1-2.5 3.9-3.7 0.1-6.9-2.2-10.3-3.4-2.6-1.1-5.3-1.1-8-1.4-0.9-2.2-0.5-4.5 1.6-5.8 4.3-0.2 6.1 5.3 10.4 5.2-0.9-3.5-4.1-5.3-6.5-7.7z"/><path class="a" d="m90.6 116.3c0.9-2.5 3.7-1.7 5.7-1.8 0.5 4 1 8.2-0.1 12.1-1.3 2-4.1 0.9-6.1 0.9 1.5-3.6 0.9-7.4 0.5-11.2z"/><path class="a" d="m85.2 117.6c3-1.1 4.8 4.4 1.7 5.6-2.4-0.6-4.3-4.3-1.7-5.6z"/><path class="a" d="m56.1 131.4c3.5-2.4 6.4-6.4 11.2-5.3-5.8 7.1-15.4 10.2-24.3 9.5-4-0.3-8.1-0.1-12.1 0.4 4.1-2 8.4-3.9 13-3.7 4.1-0.2 8.6 1.7 12.2-0.9z"/><path class="a" d="m80.2 132c3.3 0.2 6.4 2.8 6.2 6.3-0.3 2.2 1.2 5.7-1.6 6.6-3.2-1.7-2.8-6.1-5.5-8.4 0.1 2.2 0.3 4.3 0.5 6.4q-2.5-0.6-4.9-1.3c1.5-3.3 3.4-6.5 5.3-9.6z"/><path class="a" d="m94.1 133.3c3-0.8 6.8 2.2 5 5.3-2.9 3.7-9.4-2.4-5-5.3z"/><path class="a" d="m89 136.7c1.1 1.4 1.6 3.2 2 4.9-0.6 0.1-1.7 0.3-2.3 0.4 0.1-1.8 0.1-3.5 0.3-5.3z"/><path class="a" d="m72.4 143.1c3.5 0.6 6.8 1.7 9.6 3.9-2.1 1-4.3 1.8-6.2 3-1.8 1.4-2.6 3.7-4 5.5-1.5-0.2-3-0.7-4.5-1.1-0.6-4.5 3.5-7.5 5.1-11.3z"/><path class="a" d="m99.3 144.6c4.9-1.4 9.6 2 13.1 5 1.7 1.7 4 4.2 2.7 6.8-1.9 3.2-6.1 2.8-9.3 3.2-5.2 0.6-10.2-1.5-14.5-4.4-0.8-3.4 3.1-3.6 5.5-3.2 3.7 0.6 6.8 2.9 10.4 4.2-0.6-1.2-0.6-2.8-1.8-3.6-4.1-2.8-9.2-2.7-13.8-4.2 1.8-2.5 5-2.8 7.7-3.8z"/><path class="a" d="m34.7 146.9c4.6-1.6 10.9 0.1 11.8 5.5-1.8 0.1-3.6 0.4-5.3 0-2-2.1-4-4.1-6.5-5.5z"/><path class="a" d="m214.5 154.2c10-7.6 23.5-5.5 35.1-4.1 6.3 1.9 13.2 0.8 19.3 3.7-5.2 1.5-10.7 1.1-15.9 3-8.9 1.8-18.6 5.2-27.5 1.3-3.6-1.4-7.5-2.2-11-3.9zm9.2-2.6c0 0.7-0.1 1.9-0.1 2.5 8.5 1.2 17.1 2.7 25.8 2.4-0.9-1.3-1.7-2.8-3.4-3-7.3-1.8-14.8-2.2-22.3-1.9z"/><path class="a" d="m75.3 154.3c1.7-4.3 9.1-5.2 10.7-0.4 1.9 4.4 5.6 7.5 8.4 11.3-2.8 1.7-7.1 1.3-8.7-1.8-2.4-3.1-2.9-7-4.4-10.5q-1.2 2.2-2.2 4.5c-1.5-0.5-3.8-1-3.8-3.1z"/><path class="a" d="m330.6 171.6c2.8 2.4 1.8 6.3 0.2 9.1-1.2 0.6-2.6 1-3.9 1.4 0.1-3.8 2.1-7.1 3.7-10.5z"/><path class="a" d="m321.9 184.7q3.9 0.1 7.8-0.2c-1.3 1.4-2.6 2.9-4.4 3.5-1.4-0.8-2.4-2.1-3.4-3.3z"/><path class="a" d="m12.9 191.1c1.1 0.3 2.2 0.7 3.3 1.1-1.2 1.4-2.5 2.7-3.7 4q0.1-2.6 0.4-5.1z"/><path class="a" d="m5 198.9c-0.1-2.1 1.1-3.6 2.7-4.8q1.1 1 2.2 2c-0.1 0.6-0.4 1.8-0.5 2.4q-2.2 0.2-4.4 0.4z"/><path class="a" d=""/><path class="b" d="m178.5 2.5c0.8-1.1 2-1.8 3.1-2.5 1 2.1 1.8 4.2 2.1 6.5 1.3 9.2 2.3 18.8 7 27 0.5 0.6 1.3 2.8 2.5 1.6 7.8-6.2 15.5-14 26.1-14.7-2.5 6.8-8.8 11.7-9.7 19.1-1.5 11.2 3.9 21.7 8 31.8 3.2 8 7.6 16.6 5.1 25.4-4.9 16.3-22 25.9-25 43.1 6.4 1.2 12.6-1.8 19-2.6-0.4 2-0.6 4.4-2.3 5.8-6 5.4-14.4 6.5-21.3 10.3-0.6 3.1 0.9 7.2-1.8 9.5-3.1 1.6-6.8 0.9-10.2 1.1q0 3.5 0.1 6.9c10.6 1 19.6 7.1 29.2 11 4.4-2.8 8.7-6.5 14.2-6.5 5.5-0.3 9.8 3.8 14.7 5.5 7.7-1.7 13.9-7.2 21.5-9 4.8-1.2 9.8-0.9 14.6 0.4 12.9 3.4 24.5 10.4 34.6 19q1 1.4 1.4 3.2c-5.9-0.8-10.6-4.8-15.5-7.9-8.7-6-18.4-12.9-29.5-11.6-16.2 2-29.8 11.5-44 18.6-10.3-5.9-20.5-12.2-31.6-16.5-3.1-1.3-6.5-1.9-9.8-2 0.6 45.1 0 90.2-2.8 135.2-3.5 0-6.9 0-10.4 0.1-5.3-44.6-6.1-89.5-7.7-134.3-13.4 3.3-25.9 9.7-37.7 16.6-2 1-4.2 1.9-6.4 1.2-12.4-3.1-20.6-14.2-32.7-18.1-4.8-1.6-10.1-1.5-15-0.1-9.8 2.7-18.5 8.2-26.7 14-2.8 1.9-5.4 4.7-9 4.8 0.5-1.4 1-2.8 2.2-3.7 8.3-7.3 17.6-13.9 28.2-17.5 8.8-3 18.7-2.4 26.9 1.8 4.8 2 8.9 5.7 13.8 7.2 4.5-2.6 8.6-6.6 14.1-6.9 4.8 0.1 7.8 4.5 12 6.1 10.1-3.4 19.6-8.2 29.5-12.1q-0.1-2.6-0.2-5.2c-3 0.1-6.2 0.6-9.2 0.2-3.6-1.8-1.5-7.3-4.9-9.5-6.2-4.7-14.2-6.6-20.5-11.4-1.1-0.8-1.9-2-2.5-3.3 4.7-2.1 10.1 0.2 15.1 0.4-6.6-7.9-13.3-16.4-16-26.6-1.8-7-0.7-14.5 2.4-21 4.3-9.6 9.6-18.9 11-29.5 1.6-8.7 0.4-18-4-25.7-3-5.1-9.7-8.1-10.3-14.5 4.7 0.8 8.4 4 12 6.9 4.4 3.8 9 7.6 12.7 12.2 2.8 3.9 5 8.2 7.8 12.2 2-2.9 3-6.5 2-10-2.2-8.5-8.5-15-12.3-22.8-0.9-1.8-1.7-4.8 0.8-5.7 4.8-1.6 10-0.1 14.8 1.3 3.6 0.9 6.5 3.4 9.7 5.3 2.2-7.4 6.3-13.9 10.8-20.1zm-8.1 22.9c1.3 4.4 4.8 7.6 6.5 11.7 8.4 19.5 8.6 43-1.6 61.9q-1.7 0-3.4 0.1c2.7-11.2 7.9-21.9 7.5-33.7 0.9-13.2-2.7-27-11.7-36.9-5.1-5.7-12.4-10.4-20.3-9.2 1.9 5.5 6.3 9.8 8 15.5 2.7 6.3 1.6 13.3 2.6 19.9 0.6 5.3-2.7 9.8-4.4 14.6-3.3 10-3.1 20.7-4.2 31-0.5 6.1 1.6 11.9 3.4 17.6-0.7 0-2.2 0-2.9 0-1.3-4.1-2.5-8.3-3-12.6-0.8-5.5 0.2-11.1 0.4-16.6 0.9-6.3 1.4-12.7 2.9-18.9 1.2-4.6 1.5-9.7-0.5-14.2-2.9-7.5-9.5-12.5-14.2-18.8-0.7 0-2 0-2.6 0 1.8 4.7 4.3 9.4 4.3 14.6 0.1 6.3 0.7 12.7-0.2 19-2.3 9.2-7 17.6-10.8 26.3-2.6 5.7-2.3 12.3-1.1 18.3 1.4 6.6 6.2 11.6 10 16.9 2.1 2.9 3.5 6.3 6.1 8.9 3.7 1.3 7.7 0.7 11.5 0.8 13.1-0.2 26.3 0.7 39.4-0.7 4.7-13 13.6-24.1 22.8-34.2 5.2-5.9 5.9-14.4 5-21.9-1.4-5.7-4.7-10.7-6.8-16.1-3.5-8.6-6.8-17.8-5.8-27.3 0.3-4.8 2.1-9.2 3.2-13.9-5.5 2.5-10.1 6.4-14.5 10.4-2.3 1.7-0.6 4.7 0.1 6.8 5.3 11.6 8.4 24.7 6.1 37.4-1.1 5.5-3 10.8-4.9 16.1-0.5 1.9-1.9 3.3-3.3 4.5-0.3-5.4 1.6-10.6 3.3-15.7 3.8-11.8 3.4-24.7-0.8-36.3-3.6-9.2-10.7-16.7-13.9-26.1-2-5.6-1.7-11.6-2.6-17.4-4.4 5.3-8.5 11.4-9.6 18.2zm42.1 157.9c3.2 2.5 6.7 5.8 11 6 4.5-1.4 8.5-4.2 12.3-6.9-3.9-3.2-9-5.7-14.2-4.5-3.6 0.6-6.5 3-9.1 5.4zm-106.9 0.9c3.5 2.4 7 5.3 11.2 5.9 3.9-0.5 6.9-3.4 10.1-5.5-2.3-2.9-5.3-5.4-9.1-5.8-4.8-0.6-8.8 2.5-12.2 5.4z"/><path class="b" d="m256.4 196.8c18-0.2 35.9 0.4 53.8-0.3-1 5.1-2.3 10.2-3.5 15.3-32.8-4-65.6-8.2-98.4-12.2-4.1 0-8.2 0.4-12.2-0.7 0.6 0.3 1.8 0.9 2.4 1.3 32.7 12.8 65.4 25.4 97.9 38.4-1.8 2.6-3.4 5.3-5.1 8-24.2-11.9-48.5-23.7-72.7-35.7-5.9-2.6-11.4-6-17.5-8.1 27.6 18.3 55.9 35.7 83.6 53.9-2.8 3.1-5.5 6.3-8.3 9.5-24.3-19.7-48.5-39.5-72.8-59.2-0.7-0.5-2.2-1.4-3-1.9 8.6 10 18.6 18.6 27.5 28.3 13.5 13.5 27 27 40.4 40.6-2.4 1.9-4.8 3.9-7.3 5.7-19.3-22.8-38.5-45.7-57.7-68.6-3.1-3.5-5.8-7.4-9.3-10.6 1 1.9 2.2 3.7 3.4 5.5 18.4 26.6 36.6 53.2 54.9 79.9-4.3 2.4-8.6 4.9-13 7.4-14.3-28.5-28.5-57-43-85.4 1.4 5.4 3.6 10.5 5.4 15.8 8.8 25 17.7 50 26.5 75q-4.9 1.6-9.7 3.1c-8.2-32.2-16.4-64.3-24.4-96.6-0.4-1.7-1-3.4-1.7-5-0.1 4.2 0.9 8.4 1.4 12.5 4.5 30.7 9.1 61.4 13.5 92.1-5.3 0.9-10.6 2.1-15.9 3 0.1-36.8-0.1-73.7 0.1-110.5 21.6-0.7 43.2 0.1 64.7-0.5z"/><path class="b" d="m35.4 197c22.1 0.1 44.3 0.5 66.4 0.3 17.5 0.3 35.1 0.4 52.6 0.1-0.5 36.9 0 73.9-0.2 110.9-5.4-1.1-10.7-2-16.1-3.1q6.9-47.1 13.8-94.2c0.5-3 1.2-6.1 1-9.3-1.1 2.1-1.4 4.4-2.2 6.6-0.4 1.2-1.3-0.5-1.7-0.9-1.3 4.6-4 8.6-6 12.8q-18.4 36.8-36.9 73.5c-4.3-2.5-8.7-4.9-13-7.5 19.4-28.1 38.8-56.2 58-84.4-1.9 1.5-4 2.7-6.2 3.8-2.5 1.3-4.4 3.2-6.6 5-23.1 18.6-46 37.4-69.1 56q-4.1-4.8-8.3-9.5c26-16.7 51.9-33.4 78-50 2.1-1.3 4.2-2.6 6.1-4.1-3.9 1.2-7.5 3.3-11.2 5.1-26.5 12.9-52.9 26-79.5 38.8q-2.5-4-5-8c33.7-13.2 67.4-26.3 101-39.6-3.4 0.5-6.8 0.5-10.2 0.4-33.7 4.2-67.4 8.3-101.1 12.6q-1.9-7.6-3.6-15.3z"/><path class="b" d="m140 200.3q1.8-1.3 2.1 0.6-2 1.4-2.1-0.6z"/><path class="b" d="m203.4 200c2.1-0.1 4.2 0.1 6.3 0.6 31.7 6.4 63.5 12.6 95.3 19q-1.5 3.9-3 7.8c-30.3-8.1-60.6-16.6-90.9-24.7-2.7-0.8-5.3-1.4-7.7-2.7z"/><path class="b" d="m134.2 201.3c1.4-0.2 2.9-0.8 4.3-0.1-0.1 0.2-0.2 0.7-0.3 0.9-31.5 8.5-62.9 17.2-94.4 25.7-1.1-2.5-2.1-5.1-3.1-7.7 31.1-6.4 62.3-12.4 93.5-18.8z"/><path class="b" d="m144.9 205.6c0.6-0.2 1.9-0.5 2.5-0.6-20.6 25.3-42 50-62.9 75.2-2.5-1.9-4.9-3.8-7.3-5.7q22.1-22.5 44.4-44.7c7.4-8.4 16.2-15.5 23.3-24.2z"/><path class="b" d="m327.8 206.7c5.7-1.1 12.4-1.1 17.2 2.6 0.6 3.4-0.3 6.8-0.6 10.1q-2.1-1.2-4.2-2.4c0.3-2.7 0.6-5.5 0.7-8.2-3.9-0.3-8-0.3-11.7 1.2-2.1 0.7-3 3.7-1.4 5.4 4.5 5.2 13.4 3.1 17.3 9.3-5.9-0.6-11.7-5.1-17.6-2.5-1.1 0.4-2.1 1-3.1 1.5q-2-1.4-3.9-2.9c2.3-1.3 4.9-2.1 7.6-2.5-2.7-1.6-5.7-3.3-6.7-6.4 0.4-3.1 3.6-4.9 6.4-5.2z"/><path class="b" d="m148.6 210.4c0.3-0.1 0.7-0.2 1-0.3 0.7 1.8-0.3 3.5-0.6 5.3q-10 39.3-19.9 78.6c-0.7 2.7-1.2 5.5-2.3 8.1-3.2-0.8-6.4-2-9.6-3 10.5-29.6 21-59.1 31.4-88.7z"/><path class="b" d="m28.1 223.6q2.3 0.7 4.6 1.4c-1.8 3.2-2.6 7.9-6.7 8.9-6.3 1.3-12.7 2.3-19 3.5-2 0.4-3.6-1.1-5.3-1.9 6.4-1.4 12.8-2.2 19.2-3.6 4.2-0.5 5.3-5.2 7.2-8.3z"/><path class="b" d="m318.2 232.9c2.4-1.8 4.5-5.1 7.9-4.6 4.6 0.7 9.2 1.7 13.8 2.9 1.4 0.9 2.2 2.4 3.3 3.7-4.8-0.8-9.4-2.1-14.2-2.8-3.1-0.9-5 2.1-7.2 3.7q-1.9-1.5-3.6-2.9z"/><path class="b" d="m31.4 237.5q2.2 0.4 4.6 0.9c-1.5 3.1-1.8 8.1-6 8.6-3.7-0.1-8 0-10.7-3 2.9-0.1 5.8 0.3 8.6 0 2.2-1.3 2.4-4.3 3.5-6.5z"/><path class="b" d="m316.2 239.8c4.9 0 10 1 14 4.1 5.9 4 8.3 11.3 8.4 18.2-1.7-1.2-3.4-2.4-4.9-3.8-0.7-1.7-0.8-3.5-1.2-5.3-5.7-0.7-11.4-0.5-17.1 0-1.2-0.9-1.9-2.4-2.8-3.6 6.6 0.2 13.2 0.9 19.8 1-1.8-6-8.8-6.2-14-6.6q-1.1-2-2.2-4z"/><path class="b" d="m36.4 251c1.6 0 3.2 0.6 4.8 0.9-5.1 4.1-10.6 7.6-15.4 11.9 5.4 2.9 10.8-1.1 15.1-4.2q2.3 0.9 4.5 1.8c-4.6 3.7-10.4 6.2-16.4 5.6-6.3-0.3-11.8-3.8-16.3-8.1 2.1-0.1 4.2-0.4 6.3-0.2 1.8 0.6 3.2 2 4.9 3 4.6-3 8.5-6.8 12.5-10.7z"/><path class="b" d="m309.3 256.8c4.5 0.3 8.5 2.8 10.7 6.8 2-0.1 4.1-0.4 6.1-0.1 1.8 0.8 2.7 2.7 4 4.2-2.1 3.8-4.2 7.5-6.2 11.2q-1.5-2-2.9-4.1c1.6-2.8 3.1-5.5 4.5-8.3-6.2 0.5-11.9 3.8-18.2 3.6-1.2-1.2-2-2.8-2.9-4.2 4.6 0 9.4 0.5 13.6-1.6-1.9-1.5-4.2-2.4-6.5-2.8q-1.2-2.3-2.2-4.7z"/><path class="b" d="m44.3 267.6q2.4 0 4.7 0c-0.8 3.2 0.2 8.3-3.7 9.6-3.6 0.7-8 2.1-10.9-0.7 2.9-0.9 6.2-0.7 8.9-2.3 0.7-2.2 0.7-4.4 1-6.6z"/><path class="b" d="m294.9 283.7c3-3.3 4.9-9.7 10.3-9.1 4.2 1.6 7.6 4.6 11.5 6.9 2.2 1 2.4 3.6 2.9 5.7-4.7-2.4-8.8-6-13.5-8.4-1.3-0.9-2.5 0.6-3.2 1.6-2.5 3.1-4.9 6.4-7.3 9.6-1.1-2.2-2.2-4.4-3.3-6.5q1.3 0.1 2.6 0.2z"/><path class="b" d="m49.4 280.2q3-0.4 6.1-0.7c1.1 4.6 6.3 6.5 7.3 11.1-2.2 0.3-4.4 0.3-6.6 0.5-4 2-7.2 5.3-11.2 7.2-1-0.1-2.9-0.4-3.9-0.5 4.6-3.6 9.6-6.7 14.4-10-2.1-2.5-4.2-5.1-6.1-7.6z"/><path class="b" d="m299.8 286.2c3.4 1.9 6.7 4 9.8 6.3 1.5 1 1.6 3.1 2.3 4.7-4.5-2.9-10.7-5.1-12.1-11z"/><path class="b" d="m64.4 294.3q2.3-0.6 4.6-1.2c0.2 2.6 1.3 5.5 0.3 8-2.9 3.1-6.3 5.6-9.5 8.5-1.7 1.9-4.3 1.4-6.6 1.7 3.7-3.9 8-7 11.8-10.7q-0.2-3.2-0.6-6.3z"/><path class="b" d="m73.7 303q2.3-0.7 4.7-1.4c-0.3 2.4-0.9 4.7-1.6 7 3-0.8 6.8-2.8 9.7-0.6 2.9 4.1-0.2 9.1-2.7 12.6-2.5 2.8-5.6 6.4-9.7 6.1-3-1.6-5.4-4-8.1-6q2.5-0.9 4.9-1.7c2.2 1.7 4.5 3.4 6.8 5 2.4-3 5.1-6.2 5.4-10.2 0.1-2.5-2.8-4.2-5.1-3.4-6.3 1.6-10.2 8.5-17.2 8.3 3.2-2.9 6.9-5.2 10.1-8 2.3-1.8 2.3-5 2.8-7.7z"/><path class="b" d="m275 300.9c5 1.1 6.7 6.4 7.8 10.8 2.7 0.5 5.4 0.9 8.1 1.5q0.8 2.2 1.6 4.4c-6.8-1-13.4-2.3-20.2-2.9 0.9 2.7 2.4 5.1 4.3 7.1q1.7-0.4 3.4-0.8 0.6 1.9 1.2 3.9-2.1 1.6-4.2 3.2c-2.6-4.4-6.9-8.1-7.2-13.5-2.1-0.1-4.1-0.2-6.2-0.2q-0.3-2.1-0.5-4.1c5.8 0.3 11.6 1 17.4 1.1-1.3-2.6-3.6-4.5-5.7-6.5 0.1-1 0.2-3 0.2-4z"/><path class="b" d="m109.2 318.2q2-0.8 4-1.2c-0.9 2.5-2.1 4.8-3.2 7.1 2.9 1.6 6.1 2.6 8.9 4.5 0.6 1.1 0.8 2.4 0.5 3.6-3.6 7.7-12.7 12.6-21.1 10.6 1.9-1.7 3.7-4 6.5-3.4 4.6 0.2 10.3-2.6 10.5-7.7-2.7-2-5.9-2.9-8.9-4.3 0.7-3.1 1.5-6.3 2.8-9.2z"/><path class="b" d="m251.4 317.5c3.5 0.3 6.9 0.6 10.4 0.8q0.1 1.9 0.3 3.8-2.3 0.1-4.7 0.3c1.7 3.5 5.5 4.8 8.4 6.9 2 1.1 2 3.6 2.8 5.5-5.1-3.5-12.5-6-13.4-13.1q-1.9-0.1-3.7-0.3-0.1-1.9-0.1-3.9z"/><path class="b" d="m239.7 323.4c3.2 0.7 7.8 0 9.5 3.6 1.9 3.6 4 7.2 5.7 11 0 1.6-0.5 3.2-0.8 4.8-2.6-3.8-4.4-8-6.8-12-1.3-2.9-5-2.3-7.6-3q0-2.2 0-4.4z"/><path class="b" d="m123.1 334.3c1.6-1.4 3.3-2.8 5-4.2 2.2 3.6 9 1.7 9.6 6.6-0.5 4.3-2.4 8.3-3.8 12.3q1.1 0.8 2.2 1.7-1.7 1.4-3.5 2.8-7.2-2-14.4-4.3c1.2-1.1 2.4-2.1 3.6-3.2 2.9 0.8 5.9 1.7 8.8 2.5 1.2-3.6 2.5-7.2 3.4-10.9-3.6-1.2-7.3-2.2-10.9-3.3z"/><path class="b" d="m222.6 330.3c2.7 0.6 5.3-0.1 7.9-0.5 2.9-0.2 5 2.2 6.1 4.6 2 4.5 5.8 8.8 3.7 14-2.9-4.2-4.4-9.2-7.3-13.4-3.9-2.4-8.3 1.5-12.2 2.1 0.6-2.3 1.3-4.6 1.8-6.8z"/><path class="b" d="m207.6 333.8c3 1.4 7.3 1.8 8.8 5.1 0.3 3.8-0.5 8.1-3.4 10.9-0.4-2.9 0.2-5.9 0.3-8.8-2.2-1.2-4.7-1.9-6.8-3.2 0.3-1.4 0.7-2.7 1.1-4z"/><path class="b" d="m144.5 340.7c-0.4-2.7 2.1-4.1 3.6-5.9 3.1 3.8 9.4 1 12.1 5.4 2.4 4.6 0.3 9.8-0.3 14.6 0 2-2.1 2.9-3.4 4.1 0.4-5.4 2.7-11.3 0.3-16.5-2.6-1.3-5.7-1.2-8.6-1.7-0.9 4.7-1.1 9.7-3.3 14.1-0.6 0.5-1.9 1.4-2.6 1.9 1-5.3 2.2-10.6 2.2-16z"/><path class="b" d="m185.9 336.9c3.9 2.5 8.5 0.3 12.7 0.6 1.8 0.2 3.1 1.8 3.3 3.6 0.8 4.2 1.3 8.4 2 12.6 0.5 1.8-0.9 3.1-1.8 4.5-1.2-5.4-2-10.9-3.4-16.2-2.8-0.2-5.5 0.1-8.3 0.3 0.9 5 3.1 10.2 1.1 15.2-2.2 1.2-4.8 0.8-7.2 1.2q1-2.2 2.1-4.4 1.9-0.2 3.9-0.5c-1-3.7-2.3-7.3-3.4-10.9q-2.3 0-4.5 0c1.2-2 2.4-4 3.5-6z"/><path class="c" d="m170.4 25.4c1.1-6.8 5.2-12.9 9.6-18.2 0.9 5.8 0.6 11.8 2.6 17.4 3.2 9.4 10.3 16.9 13.9 26.1 4.2 11.6 4.6 24.5 0.8 36.3-1.7 5.1-3.6 10.3-3.3 15.7 1.4-1.2 2.8-2.6 3.3-4.5 1.9-5.3 3.8-10.6 4.9-16.1 2.3-12.7-0.8-25.8-6.1-37.4-0.7-2.1-2.4-5.1-0.1-6.8 4.4-4 9-7.9 14.5-10.4-1.1 4.7-2.9 9.1-3.2 13.9-1 9.5 2.3 18.7 5.8 27.3 2.1 5.4 5.4 10.4 6.8 16.1 0.9 7.5 0.2 16-5 21.9-9.2 10.1-18.1 21.2-22.8 34.2-13.1 1.4-26.3 0.5-39.4 0.7-3.8-0.1-7.8 0.5-11.5-0.8-2.6-2.6-4-6-6.1-8.9-3.8-5.3-8.6-10.3-10-16.9-1.2-6-1.5-12.6 1.1-18.3 3.8-8.7 8.5-17.1 10.8-26.3 0.9-6.3 0.3-12.7 0.2-19 0-5.2-2.5-9.9-4.3-14.6 0.6 0 1.9 0 2.6 0 4.7 6.3 11.3 11.3 14.2 18.8 2 4.5 1.7 9.6 0.5 14.2-1.5 6.2-2 12.6-2.9 18.9-0.2 5.5-1.2 11.1-0.4 16.6 0.5 4.3 1.7 8.5 3 12.6 0.7 0 2.2 0 2.9 0-1.8-5.7-3.9-11.5-3.4-17.6 1.1-10.3 0.9-21 4.2-31 1.7-4.8 5-9.3 4.4-14.6-1-6.6 0.1-13.6-2.6-19.9-1.7-5.7-6.1-10-8-15.5 7.9-1.2 15.2 3.5 20.3 9.2 9 9.9 12.6 23.7 11.7 36.9 0.4 11.8-4.8 22.5-7.5 33.7q1.7-0.1 3.4-0.1c10.2-18.9 10-42.4 1.6-61.9-1.7-4.1-5.2-7.3-6.5-11.7z"/><path class="d" d="m236.8 19.4c1.3 0.4 3.3 0.2 3.7 2 1.1 3 3.6 5 5.6 7.4 4.4 6.8 11.4 12.9 11.6 21.6 0 11 5.5 21.1 12.6 29 3.1 3.3 6.6 6.5 11.1 7.7-1.2-5.8-5-10.6-6.4-16.3-1.4-5.7-2.5-11.6-1.9-17.4 0.8-4.1 1.6-8.3 2.9-12.3 2.5 3.7 4.5 7.8 7.6 11.1 8.9 9.6 11.6 23.4 11 36.1 0 4.4-1.1 9.3 1.5 13.2 2.4 3.5 3.7 7.5 4 11.7q2.1 1.1 4.4 2c-0.7-4.5-3.4-8.3-4.2-12.8-2.5-10 2.7-19.6 3.7-29.4 5.5 6.2 10.2 13.2 13.6 20.9 2.7 5.9 3.1 12.4 4.7 18.6 1.7 7.6-2.3 15.2-0.4 22.7 5-0.9 6.6-7.1 11.3-8.1 0.4 1.1 1 2.4 0.3 3.6-1.6 3.4-4.6 5.9-6.4 9.3-3.2 9.4-3.6 20.1 1.4 29 3.4-0.4 6.5-1.9 9.9-2.3-1.2 3.5-3.5 6.6-4.1 10.4-0.9 4.1-1.5 9-5.5 11.5-2.2 1.7-5.7 1.8-7.5-0.6-2.4-2.7 1.3-6.9-1.4-9.5-4.7-5.3-9.8-10.6-16.3-13.7-7-3.4-14.1-7.6-22.2-7.5-7.5 0-15 0.9-22.6 1.4-8.5 0.7-16.6 4.9-25.3 4.1-5.8-0.7-11.4-2.6-16.7-4.8-3.5-1.6-7.4-1.7-10.9-3.2 6.6-3.9 13.6-7.1 20.8-9.3 13.5-1.8 26.4 4.4 39.8 4.4-6-6.1-15.5-4.3-22.8-7.9-4.4-2.2-8.8-5.2-11.6-9.3-2.2-3.8-4-7.8-7.1-10.9-2.3-2.4-4.4-4.9-5.8-7.9 4.2-1.5 5.1 4 8.4 5.3 8.6 2.9 18.3 2 26.6 6.2 5.2 3 8.6 8.2 13.3 11.8-1.2-3.1-3.1-5.9-4-9.2-1.5-5.4-1.7-11.1-1.8-16.7-0.5-2.9-2.4-5.3-3.3-8.1 13.7 5.4 21.7 18.6 27.8 31.2 2.2 5 0.3 11.9 5.1 15.8 6.2 4.9 14.4 5.7 21.3 9.3 0.7-7.9-2.1-15.6-3.1-23.3-1.4-6.1-3.5-12-7-17.1-2.7-3.8-7-5.7-10.4-8.6-6.6-5.1-14.4-8.6-22.7-9.4-9.2-0.9-18.8-2-26.8-7-7.6-5.7-11.4-14.9-18.5-21.1 1.4-1.9 2.7-4.5 5.4-4.6 4.2-0.4 8.5 0.5 12.6 1.5 4.4 1 8 4.2 12.5 4.8-5.7-8.7-12.6-16.8-16.9-26.4-3.1-7.2 0.4-15-0.9-22.4-0.5-2.1-0.4-4.4 0-6.5zm2.6 24.9c2.7 10.1 10.3 17.7 16 26.2 2.5 3.2 3.6 7.4 6.8 10.1 3 2.8 6.8 4.4 10.2 6.7 2.4 1.7 4.9 3.2 7.8 4.1-1.4-3.2-5-4.2-7.5-6.4-6.2-5.7-10.9-12.8-14.5-20.5-2.4-5.9-2.7-12.3-3.5-18.6-3.4-6.1-7.3-12-12.2-17.1-1.9 4.9-4.6 10.2-3.1 15.5zm37 2.6c-3.8 11.6-0.6 24.4 6.1 34.3 2.1 2.7 1.7 6.3 2.4 9.6 1.6 2.7 4.6 4.2 7.1 5.9 0.3-3.2 0-6.3-0.3-9.4 0.6-4.7 0.9-9.5 0-14.2-1.7-10.3-8.4-18.8-15.3-26.2zm-48.7 24.2c0.1 3.2 2.5 5.4 4.4 7.7 4.4 6 8.9 12.8 16 15.9 8.9 4.1 19 3.4 28.4 5.5 8 1.7 14.5 6.8 21.2 11-2.2-6.9-6.2-14.7-14.1-16-15.3-3.7-25.6-16.8-40.2-21.8-5-1.8-10.4-3.5-15.7-2.3zm77.7 10.7c-1.7 6.7-2.7 13.6-2.2 20.5 0.3 4.4 2.7 8.2 5.4 11.6 0.8-3.3-1.1-6.3-0.6-9.6 0.6-4.2-0.3-8.4-0.8-12.6 0.9-0.1 2.5-0.2 3.3-0.3 0.4 9 3.5 17.7 3.5 26.7-0.1 1.8-1.1 3.3-1.4 5.1 0.4 3 1.8 5.9 2 8.9-0.4 2-2 3.8-1.4 6 1.5 8.6 4 17.4 2.1 26.2-2.7-1.8-5.4-3.5-8.4-4.7-5.4-2.1-11.5-3.1-16.1-6.8-4.4-3.3-6.5-8.5-8.8-13.3-1.6-3.1-1.1-6.7-1.8-10-3.2-8-8.4-15.2-15.6-20 0.7 5.9 0.1 12.1 1.7 17.9 2.1 4.7 3.9 9.7 7 14 2.4 3.5 7 4.8 9.6 8.3 0.7 1.1 0.4 2.5-0.6 3.3-3.6-1.2-6.4-4-9.5-6.3-3.5-2.8-7.5-5-10.7-8.2-2.8-3.2-4.9-7.1-8.4-9.5-6.9-5.6-16.2-5.5-24.6-6.5 3 4.9 6.7 9.3 10.6 13.5 4.6 4.9 11.5 6.4 18 6.9-4.3-5.4-10.8-8.2-16.9-11-2.6-1.2-4.5-3.3-5.8-5.8 2.4-0.3 4.9-0.6 7 0.6 8 3.8 15 9.5 20.9 16 4.2 3.5 9.2 6.1 12.2 10.8 8.8 2.1 18.8 1 26.9 6 7.7 4.4 14.4 10.4 20 17.3 1.7-1.4 3.5-2.6 5-4.1 0.6-2.1-1-3.8-1.8-5.6-3.2-5-4-11.1-3.6-17 0.3-4.3 2.1-8.3 2.8-12.5-0.6-0.1-1.8-0.2-2.4-0.2-0.6 1.5-1.2 2.9-1.9 4.3-1.4-5.1-2.9-10.3-2.1-15.6 0.4-6.7 2.8-13.6 0.6-20.2-2.2-9-7.2-17.1-13.2-24.1zm-90.9 72.4c3.5 1.7 7.4 2.5 11 3.9 8.9 3.9 18.6 0.5 27.5-1.3 5.2-1.9 10.7-1.5 15.9-3-6.1-2.9-13-1.8-19.3-3.7-11.6-1.4-25.1-3.5-35.1 4.1zm116.1 17.4c-1.6 3.4-3.6 6.7-3.7 10.5 1.3-0.4 2.7-0.8 3.9-1.4 1.6-2.8 2.6-6.7-0.2-9.1zm-8.7 13.1c1 1.2 2 2.5 3.4 3.3 1.8-0.6 3.1-2.1 4.4-3.5q-3.9 0.3-7.8 0.2z"/><path class="d" d="m89.6 27.2c3.3-2.1 7.1-4.2 11.2-4.2 1.3 0.7 1 2.6 1.5 3.8 1 6 3.9 11.5 4.2 17.6 4.8-1.3 9.9-5 14.9-2.8 4.4 6.6 1.1 16.1-5.6 19.9-3.1 2.4-7.6 1.7-10.8 3.8 0.3 3.1 1.4 6 1.8 9.1 0.4 2.6-1 5.1-1.9 7.5-4.7-2.3-9.5-4.6-13.1-8.5-0.8-1.2-2.2-1.1-3.4-0.7-2.4 3.1-3.8 6.9-3.9 10.9 5.5 0.8 9.3 5.7 11.5 10.5 6.9-4.4 15.3-1.5 22.6 0.3-0.3 3.4 0.4 7.1-1.6 10-1.3 2.1-2.8 4-4.2 6 3.1 3.8 9.4 6.1 9.1 11.8 0.1 3.5-0.2 7.1-0.6 10.6-4-0.9-7.1-3.8-11.2-4.2-3.4-0.4-6.5-1.8-9.6-3.1q-1 1.6-1.9 3.3c1.4 1.1 3 2.1 4.3 3.4 0.8 3 0.2 6.2 0.2 9.3 8.4 0.9 15.9 7.7 17.7 16-4 2-7.6 5.4-12.2 6.1-3.8 0.3-7.5-0.3-11.2-0.4-0.8 2.6-1.5 5.2-2.5 7.7-2.9-1.1-5.8-1.9-8.9-2.1-1.6-2.7-2.9-5.5-4.8-8-2.9-1-5.8-1.9-8.6-3.1-3.1-0.4-6.3 0.4-9.5 0.4 0.5-2.5 0.8-5 1.5-7.4 1.4-2.8 3.5-5.1 5.1-7.8-4.6-2.1-9.4-3.7-13.7-6.2-5 2.8-10.8 2.9-16.3 2.1-6.1-1-12 1.3-17.6 3.4-1.8 0.7-2.5 2.7-3.6 4.2 5.5 1.1 11.8 1.2 16.5-2.2 3.5-2.1 7.6 0.3 10.5 2.5 4.1 2.5 6.6 6.8 9.2 10.7-5 0.1-10 0-14.8-1.2-4.5-1.2-7-6.2-11.8-6.3-3.5 0-7.7 0.3-9.9 3.4-3.5 4.1-5.2 9.5-4.8 14.8 0.2 4.1 0.4 8.5 2.5 12.1 1.4 0.8 3.1 0.4 4.6 0.6 1.1 1.7 2.3 3.3 2.8 5.3-0.5 3.8-3.4 6.6-5.9 9.2-2.4 2.3-4.6 4.8-7.4 6.5-2.5 1.1-5.5 0.9-8.1 0.2-0.6-1.6 0.1-3.3 0.1-4.9 1.6-11.9-0.8-23.7-0.6-35.5 0.3-4.9 1.2-9.6 1.5-14.4 0.5-6.2-3.2-11.8-2.9-18 0-3 1.2-5.8 2.7-8.3 3.3 2.7 6.3 5.7 8.8 9.1 0.8-3.1 2.6-5.8 6.1-6.1q0.9 2.2 1.9 4.3c3.5-0.9 7-2.1 10.4-3.4-0.1-2-0.3-4.1-0.4-6.1-6.1 0.7-12.8 0.9-18.4-1.9 0.6-3 1.6-5.8 2.6-8.6-1.7-1.5-3.4-2.9-5-4.4 0.1-2.8-0.8-5.4-1.3-8.1 3.4-5 10-4.8 15.2-6.4 1.4-5 2-10.7 5.8-14.5 2.4-2.4 4.6-5.1 7.7-6.6 2.5 0.4 4.1 2.7 6.2 4.1 0.2 3-0.6 6.7 1.9 9 7.7-0.7 15.2-5.8 23.1-3.1-0.7 4.5-2.5 8.7-5.2 12.3-2.7 3.7-6.8 5.9-10.2 8.9 1.6 1.5 3.2 2.9 4.8 4.4 0.4 1.9-1.5 5.3 1.1 5.9 8.9-9.6 18.7-19.3 22.5-32.2-5.5-0.6-13 2.6-17-2.6-2.2-5.3 2.6-9.9 4.7-14.4-2.2-2.5-5.5-4.2-6.5-7.5-0.8-3-1.6-6.3-0.6-9.3 2.1-2.8 5.8-3.6 9-3.8 3.7-0.3 7.1 1.5 10.6 2.5 2.3-5.4 4.1-11.6 9.1-15.2zm-4.3 9.7c-1.5 4.1-1.5 8.5-2.6 12.7-2.3-2.5-4.2-6.1-8-6.7-3.9-0.6-9.2-0.9-11.9 2.6-1 5.8 3.3 10 7.1 13.5 1.9-0.5 3.9-0.8 6-0.3-3.5 3.4-7.2 6.8-9.5 11.2-0.8 1.7-0.4 4.7 1.9 5 3.4 0.5 7.6 2.1 10.6-0.5 3-2.6 7.6-3 9.4-7 4 3.2 7.5 7.2 11.9 9.8 1.6 1.4 3.9 0.1 4.2-1.9 0.4-4.7-1.6-9.1-3.2-13.4 5.2 0.7 11.1-0.3 14.8-4.3 3.1-3.7 4.3-8.6 4-13.3-6 0.8-11.8 2.7-17.1 5.6 0.4-2.6 1.2-5.2 0.2-7.8-2-5.3-1.9-11.1-4.1-16.4-6.7 0.2-11 5.8-13.7 11.2zm-53.3 37.4c-4.5 3.7-5.9 9.7-6.8 15.2-0.6 3 2.7 5.9 0.6 8.8-1.6-1.8-2.4-4.5-4.7-5.5-3.6 0.3-7.9 0.1-10.6 2.9 0.3 2.5 0.9 4.9 1.4 7.4 1.3 1.9 3.8 2.5 5.3 4.3-0.5 2-1.8 3.7-2.1 5.8 1.5 2.6 4.9 2.8 7.5 3.5 3.2 1.1 5.9-1.2 8.7-2.4 0.5 3.6 1.4 7.2 1.7 10.9-4.7 4.1-11.5 4.4-17.2 6.7-4.1 1.9-6.2 6-9 9.3-0.9-3.5 1.1-6.7 2-10q-2.6-2.1-5.2-4.1c-1.4 6.4 1.7 12.6 1.5 19.1 1.1 10.3-1.9 20.7-0.1 31 0.9 5 0.4 10.1 0.2 15.2q1.9 0 3.9 0c1.5-3.5 4.7-6.9 3.8-11-2-8.7-2.5-18 1-26.4 1.9-4.1 0.1-8.9 2-12.9 3-3.8 7.4-6 11.9-7.2 4.3-1.8 8.6-3.5 13.1-4.9 3.8-1 5.5-5.1 8.7-7.1 5.4-3.6 10.5-7.6 15.9-11.1 2.8-2.2 4.7-5.3 7.1-7.8 2.5-2.9 5.9-5.2 6.9-9 1.3-4.3 2.8-8.5 3.4-12.9-3.9 4.6-6.5 10.1-10.2 14.9-4.9 7.3-12.2 12.5-18.1 18.9-4.5 4.6-9.6 9.7-16.4 10.4-0.2-3.3 0.2-6.6 0-9.9-0.9-2.1-3.6-2.6-4.1-4.8 1.5-0.9 3.1-1.9 4.9-1.6 4.9 0.4 9.6 2 14.6 1.7 0.1-2.2 0.7-4.6-0.2-6.7-1.6-2.1-3.5-4.1-4.5-6.5 6.3-4.4 14.4-9.6 14.4-18.3-5.6 0.3-10.9 1.9-16.3 3.1-3.9 1.1-4 6.7-8 7.8 0.7-3.3 3.5-6.4 2.1-9.8-1.3-3.1-0.4-7.4-3.5-9.6-2.3-1.1-4 1.4-5.6 2.6zm53.4 13c-1.1 1.9-2.3 3.8-2.8 6 0.4 1.8 1.8 3 2.8 4.6 2 2.8 2.6 6.3 3.7 9.6 7.2-0.8 12.9-5.5 19.3-8.5-2.4 5.4-8.5 7.6-13.2 10.5 1 1.2 1.7 2.7 3.2 3.4 2 1.1 3.7-1 5.3-1.8 2.3-1.6 5.1-1.3 7.6-2.4 1.9-1.9 3.5-4.1 4.6-6.6 0.4-1.7-0.3-3.5-0.5-5.2-4.7-1.2-9.6-1.6-14.4-1.4-2.3 1-3.4 3.5-5.3 5.2-1.7 0.7-3.4 1.1-5.2 1.7 1.3-3.1 3.9-6.3 1.9-9.7-0.7-3.3-4.1-4.5-7-5.4zm-5.1 12.7c0.1 1.6-0.3 3.6 0.9 5 0.8 1.6 3.6 1.7 4.3 0-0.2-2-1-3.8-1.7-5.7q-1.7 0.3-3.5 0.7zm-8.5 7.6c2.6 1 7.8-0.9 6-4.2-3.1-1.1-4.8 1.8-6 4.2zm0.3 3.9q0.5 2.8 1.1 5.6 2.3 0 4.7 0c-0.7-1.3-1.5-2.5-2.1-3.9 2.1-2.5 5.5-2.8 8.4-4-4.2 0.2-8.3 0.8-12.1 2.3zm32.7 2.6c2.4 2.4 5.6 4.2 6.5 7.7-4.3 0.1-6.1-5.4-10.4-5.2-2.1 1.3-2.5 3.6-1.6 5.8 2.7 0.3 5.4 0.3 8 1.4 3.4 1.2 6.6 3.5 10.3 3.4 2.1 0.2 2.7-2.3 2.5-3.9-1.8-4.3-5.1-7.9-8.9-10.5-2.2-1.2-4.6-0.1-6.4 1.3zm-64.3 0.4c0 3-0.1 6 0.3 9 3.2-1.4 6.3-3.2 8.6-5.9q1.5-1.4 0.7-3.3c-3.1-0.6-6.4-0.1-9.6 0.2zm50.1 1.8c0.4 3.8 1 7.6-0.5 11.2 2 0 4.8 1.1 6.1-0.9 1.1-3.9 0.6-8.1 0.1-12.1-2 0.1-4.8-0.7-5.7 1.8zm-38.2 7.4c-2.3 1.6-4.2 3.8-5.9 6.2 2.5 0 5.3 0.8 7.4-0.8 2.8-1.8 5.5-3.8 8.4-5.4 2.6-0.1 5.7 0.8 7.5-1.6 2.9-2.6-0.9-6.6-3.8-7.2-5.1 2-9.2 5.7-13.6 8.8zm32.8-6.1c-2.6 1.3-0.7 5 1.7 5.6 3.1-1.2 1.3-6.7-1.7-5.6zm-10.1 4.8c-4.9 4.4-9.3 9.5-15.3 12.6 3.5 1.7 6.8 4.2 10.9 4.1 2-1.9 2.7-4.7 2.8-7.4 4.9-1 7.1-5.6 9.5-9.5-2.1-2.6-5.7-1.9-7.9 0.2zm-19 9c-3.6 2.6-8.1 0.7-12.2 0.9-4.6-0.2-8.9 1.7-13 3.7 4-0.5 8.1-0.7 12.1-0.4 8.9 0.7 18.5-2.4 24.3-9.5-4.8-1.1-7.7 2.9-11.2 5.3zm24.1 0.6c-1.9 3.1-3.8 6.3-5.3 9.6q2.4 0.7 4.9 1.3c-0.2-2.1-0.4-4.2-0.5-6.4 2.7 2.3 2.3 6.7 5.5 8.4 2.8-0.9 1.3-4.4 1.6-6.6 0.2-3.5-2.9-6.1-6.2-6.3zm13.9 1.3c-4.4 2.9 2.1 9 5 5.3 1.8-3.1-2-6.1-5-5.3zm-5.1 3.4c-0.2 1.8-0.2 3.5-0.3 5.3 0.6-0.1 1.7-0.3 2.3-0.4-0.4-1.7-0.9-3.5-2-4.9zm-16.6 6.4c-1.6 3.8-5.7 6.8-5.1 11.3 1.5 0.4 3 0.9 4.5 1.1 1.4-1.8 2.2-4.1 4-5.5 1.9-1.2 4.1-2 6.2-3-2.8-2.2-6.1-3.3-9.6-3.9zm26.9 1.5c-2.7 1-5.9 1.3-7.7 3.8 4.6 1.5 9.7 1.4 13.8 4.2 1.2 0.8 1.2 2.4 1.8 3.6-3.6-1.3-6.7-3.6-10.4-4.2-2.4-0.4-6.3-0.2-5.5 3.2 4.3 2.9 9.3 5 14.5 4.4 3.2-0.4 7.4 0 9.3-3.2 1.3-2.6-1-5.1-2.7-6.8-3.5-3-8.2-6.4-13.1-5zm-64.6 2.3c2.5 1.4 4.5 3.4 6.5 5.5 1.7 0.4 3.5 0.1 5.3 0-0.9-5.4-7.2-7.1-11.8-5.5zm40.6 7.4c0 2.1 2.3 2.6 3.8 3.1q1-2.3 2.2-4.5c1.5 3.5 2 7.4 4.4 10.5 1.6 3.1 5.9 3.5 8.7 1.8-2.8-3.8-6.5-6.9-8.4-11.3-1.6-4.8-9-3.9-10.7 0.4zm-62.4 36.8q-0.3 2.5-0.4 5.1c1.2-1.3 2.5-2.6 3.7-4-1.1-0.4-2.2-0.8-3.3-1.1zm-7.9 7.8q2.2-0.2 4.4-0.4c0.1-0.6 0.4-1.8 0.5-2.4q-1.1-1-2.2-2c-1.6 1.2-2.8 2.7-2.7 4.8z"/><path class="d" d="m92.9 35.7c0.9-0.1 2.7-0.3 3.5-0.4-1.1 7.5-5 14.4-5.4 22.1 1.4 0.3 2.9 1.1 4.5 0.5 6.2-1.4 11.2-5.7 16.8-8.5-0.6 1.4-1 3.1-2.5 3.9-4.5 2.9-9.2 5.4-13.8 7.9q1 2.2 1.8 4.6c-2.4-0.8-4.6-2.1-7.1-2.9-4.5 0.8-8.7 2.6-13.1 3.8 2.2-3.1 5.6-4.9 7.9-7.9-4.2-3.2-9.2-5.4-12.9-9.3 6.2-1.2 9.1 6.9 15.2 6.4 3.1-6.3 3.7-13.4 5.1-20.2z"/><path class="d" d="m241 39.5c0.3-0.8 1-2.3 1.4-3.1 4.9 5.9 6.1 13.7 10.1 20 1.6 2.6 2.6 5.5 3 8.5-3.2-1.8-4.3-5.5-6.1-8.5-2.9-5.5-6.7-10.8-8.4-16.9z"/><path class="d" d="m281.1 59c3.8 0.2 3.5 4.4 4.4 7.2 1.8 7.3 3.4 14.7 4.6 22.2-0.6-0.1-1.9-0.3-2.5-0.3-1.5-4.7-3.3-9.2-3.6-14.1-0.4-5.1-2.1-10-2.9-15z"/><path class="d" d="m234.8 79.1c1-0.9 1.7-3.2 3.5-2.3 5.3 1.6 10.3 4.2 15.5 6.2 4.2 1.9 9.5 3.5 10.6 8.6-10.2-3.2-20.4-6.9-29.6-12.5z"/><path class="d" d="m32.4 96.4c-0.5-5.5-0.5-11.1 1.6-16.2 1 1.2 2.2 2.4 2 4.1 0.4 5.1 0.4 10.2 0.7 15.3 6.6-4.9 11.5-12.6 19.5-15.2 0.6 1.5-0.8 2.5-1.7 3.4-4.7 4.3-8.9 9.1-12.5 14.4 2.2 1.3 4.4 2.5 6.4 4.1-0.2 2.3-2.7 1.7-4.3 1.7-2.5-0.3-4.8-1.4-7.1-2.2-3.9 2.1-7.3 5.4-11.7 6.4 0.7-2.6 4.2-4.9 2.8-7.6-3.4-2.8-8.7-2.6-11.2-6.7 4.5-0.2 9.1 0.7 13.2 2.5 2.4 0.4 2.4-2.4 2.3-4z"/><path class="d" d="m267 117.6c0.8 0 2.3-0.1 3.1-0.2 4.4 6.6 6.3 14.3 7.2 22q-1.7-0.4-3.5-0.8c-0.5-3.4-0.5-7-1.3-10.4-1-3.9-4-6.9-5.5-10.6z"/><path class="d" d="m223.7 151.6c7.5-0.3 15 0.1 22.3 1.9 1.7 0.2 2.5 1.7 3.4 3-8.7 0.3-17.3-1.2-25.8-2.4 0-0.6 0.1-1.8 0.1-2.5z"/></g></svg>