<svg version="1.2" xmlns="http://www.w3.org/2000/svg" viewBox="0 0 784 957" width="784" height="957"><style>.a{opacity:1;fill:#e8aa01}.b{opacity:1;fill:#97c11f}.c{opacity:1;fill:#0070ba}</style><path class="a" d="m34.4 12.5c-0.2-6.3 5.2-12.5 11.7-11.9 6.6-0.2 11.4 6.6 11 12.9 0 45.9 0.1 91.7-0.1 137.6-6.9-7.3-13-15.4-19.6-23-1.3-1.7-3.2-3.3-3-5.6 0-36.7 0-73.3 0-110z"/><path class="a" d="m85.3 1c4.2-1.2 9.1-0.3 11.8 3.3 2.7 3.1 2.2 7.4 2.2 11.2 0 50.6 0 101.3 0 152 0.3 6.6-7 12-13.2 9.9-4.4-1.1-7.6-5.4-7.5-9.9-0.1-52 0-104-0.1-156-0.3-4.5 2.6-9 6.8-10.5z"/><path class="a" d="m120.8 13.5c-0.2-5.4 2.9-11 8.3-12.6 7.2-2.4 14.7 4.2 14.4 11.5 0 36.7 0 73.5 0 110.2 0.2 2-1.4 3.4-2.5 4.9-6.8 7.9-13.3 16.1-20.2 24-0.1-46 0-92 0-138z"/><path class="a" d="m131.7 174.3c13.8-14.9 28.7-28.7 43-43.2 4.3 20.6 4.7 42.5-2.1 62.5-5.2 15.6-14.3 29.4-24.7 41.9-12 14.6-25.7 27.5-38.5 41.4-2.8 2.9-5.4 5.9-8.3 8.7-4.3-20.7-5.7-42.6 0.7-63.1 5.6-18.3 17.1-34.2 29.9-48.2z"/><path class="a" d="m3.5 131.7c11.8 12.3 24.2 23.9 36.1 36.1 12.7 13 24.7 27.1 32.3 43.8 10.9 23.3 10.5 50.1 5 74.8-13.9-15.4-28.8-29.8-42.5-45.3-12.3-14.1-23.4-29.7-29.1-47.6-6.6-19.9-6.1-41.5-1.8-61.8z"/><path class="a" d="m3.6 252.3c13.9 14.9 29.3 28.4 43 43.6 11 11.9 20.8 25.1 26.9 40.2 9.3 22.3 8.6 47.5 3.5 70.8-9.2-9.6-18.2-19.4-27.5-28.9-13.5-14-26.9-28.5-36.3-45.7-8.6-15.4-13.1-33.1-12.9-50.8-0.1-9.8 1.1-19.7 3.3-29.2z"/><path class="a" d="m161 265.5c4.7-4.5 8.9-9.4 13.8-13.6 4.1 20.6 4.7 42.4-2.2 62.5-7.2 21.5-21.7 39.4-37 55.6-11.4 12.2-23.2 24.1-34.5 36.4-4.1-19.5-5.6-40-0.4-59.4 3.7-14.2 11-27.3 20-38.9 11.9-15.6 26.5-28.8 40.3-42.6z"/><path class="a" d="m3.6 367.6c19.2 20.8 41.6 38.8 58.1 62.1 11.5 16.3 18.5 35.8 18.9 55.8 0.5 12.3-1 24.6-3.7 36.7-11.2-12-22.6-23.8-34-35.7-14.5-15.6-28.5-32.5-36.1-52.7-8.1-21-8-44.4-3.2-66.2z"/><path class="a" d="m145.5 396c9.8-9.5 19.4-19.3 29.2-28.8 4.3 20.7 4.7 42.7-2.3 62.8-6.2 18.6-18 34.6-30.9 49-13.2 14.5-27.1 28.2-40.3 42.6-5-22.6-5.9-46.8 2.5-68.7 8.5-22.4 25.1-40.3 41.8-56.9z"/><path class="a" d="m160.6 498.1c4.8-4.5 9.2-9.5 14.1-13.9 4.2 20.1 4.7 41.5-1.7 61.3-5.1 16-14.4 30.2-25 43-14.7 17.5-31.5 33.1-46.6 50.2-4.7-19.7-5.8-40.6-0.4-60.2 3.9-14.5 11.4-27.7 20.6-39.4 11.7-14.8 25.7-27.7 39-41z"/><path class="a" d="m6.7 550.5c-8-20.9-7.9-44.2-3.2-65.8 13.1 13.7 27.1 26.5 40.1 40.3 11.5 12.1 22.1 25.5 28.9 40.9 10.3 23 9.8 49.3 4.4 73.5-12.4-13.8-25.6-26.9-38.2-40.5-13-14.4-25.3-30-32-48.4z"/><path class="a" d="m3.6 606.4c13.2 14.3 27.9 27.2 41.1 41.5 11.5 12.2 22 25.8 28.4 41.3 9.8 22.7 9 48.3 3.9 72-11.4-12.5-23.3-24.5-34.9-36.8-13.9-15-27.2-31.1-34.7-50.3-8.6-21.4-8.8-45.4-3.8-67.7z"/><path class="a" d="m162 618.6c4.3-4.2 8.3-8.7 12.8-12.6 3.8 19.5 4.6 40.1-1.3 59.4-5.7 19.5-17.8 36.4-31.2 51.4-13.4 14.9-27.6 28.9-41.2 43.6-3.8-18.3-5.4-37.5-1.2-56 3.5-15.7 11.3-30.2 21.2-42.8 12.2-15.7 27-29 40.9-43z"/><path class="b" d="m214.4 166.4q-0.1-15.1 0-30.3c19.7 0.1 39.5 0 59.2 0.1q-29.6 15.1-59.2 30.2z"/><path class="b" d="m314.9 137.4c2.7-1.8 6.1-1.2 9.1-1.3 20.9 0.1 41.7 0 62.5 0.1-57.3 38.2-114.8 76.2-172.1 114.4-0.1-18.7 0-37.4-0.1-56.1 33.5-19.1 67.1-38 100.6-57.1z"/><path class="b" d="m413.9 144.4c4.1-2.6 7.6-6.4 12-8.2 17.5-0.2 35.1 0 52.6 0-88 76.2-176.1 152.2-264.1 228.5-0.1-24.5-0.1-48.9 0-73.3 66.5-48.9 133-98 199.5-147z"/><path class="b" d="m214.4 414.9q146.1-139.4 292.3-278.8c18.3 0.1 36.6 0 54.9 0-115.7 137.7-231.5 275.2-347.2 412.9-0.1-44.7 0-89.4 0-134.1z"/><path class="b" d="m229.2 607.6c118.5-157.1 236.9-314.3 355.4-471.5 16.1 0.1 32.2 0 48.3 0.1-105 183.9-210.1 367.8-315.1 551.8-34.5 0-69 0-103.5 0 0.2-20.1-0.2-40.3 0.2-60.4 4.4-7 9.9-13.3 14.7-20z"/><path class="b" d="m377.1 688c91.6-184 183.3-367.9 274.9-551.9q26.7 0 53.5 0-81.7 276-163.3 551.9-82.5 0-165.1 0z"/><path class="b" d="m725.3 136.1c19.4 0 38.8 0 58.3 0 0 148.2 0 296.3 0 444.4-0.3 18.2 1 36.6-2.3 54.6-2.6 14.3-7.9 28.8-18.8 38.9-10.2 9.8-24.6 14-38.6 14-40.1 0-80.2 0-120.4 0 40.6-184 81.2-367.9 121.8-551.9z"/><g style="opacity:1"><path class="c" d="m748.6 729.1c6.4-3.2 14.8-3.4 20.4 1.4 7.4 6.4 10.7 16.4 10.4 26-0.2 8.4-2.6 17.6-9.4 23.1-6.2 5.1-15 5.6-22.6 3.8 0-3.7 0-7.5 0-11.2 2.6 0.8 5.4 1.9 8.1 0.9 4.9-1.5 7.4-6.7 8.2-11.4 1.1-6.6 0.9-14.1-3.1-19.8-2.4-3.5-7.6-4.2-11.1-1.9-3.9 2.7-5.9 7.4-7.4 11.7-3.2 10-4.3 20.6-5.9 30.9q-7.8 0-15.5 0c1.6-8.7 3.9-17.3 5-26.1 1-10-3.1-19.5-6.3-28.7q8.1 0 16.1 0c1.3 4.5 2.5 9 3.3 13.6 1.8-5 4.9-9.9 9.8-12.3z"/><path class="c" d="m214.2 727.9c12.6 0 25.2 0 37.8 0 5 0.1 10.4 0.8 14.2 4.4 3.9 3.6 6.1 8.9 6.1 14.2 0.1 12.1 0 24.1 0.1 36.2q-7.3 0-14.5 0c0-10.1 0.1-20.2 0-30.2 0-3.9-0.8-8.3-4-10.8-4.6-3.7-10.8-2.3-16.2-2.5 0 8.8 0.1 17.5 0 26.3-0.1 5.2-1.2 10.9-5.4 14.3-5.3 5.1-13.6 4.1-19.9 1.5 0-3.2 0-6.4-0.1-9.5 4 1.9 10.5 0.9 11-4.3 0.3-9.5 0-18.9 0.1-28.3q-4.6 0-9.2 0 0-5.7 0-11.3z"/><path class="c" d="m284.8 727.9q7.2 0 14.5 0c0 10.5 0 21.1 0 31.6q-7.3 1.7-14.5 3.5 0-17.6 0-35.1z"/><path class="c" d="m309.3 727.9c10.1 0.5 21-1.7 30.4 3 5.6 2.6 8.9 8.6 9 14.7 0.4 12.3 0.1 24.7 0.2 37.1q-7.2 0-14.3 0c-0.1-10.9 0.1-21.9-0.1-32.8-0.1-3.7-1-8.4-5.2-9.7-6.4-2-13.3-0.7-20-1q0-5.7 0-11.3z"/><path class="c" d="m360.3 727.9q7.1 0 14.3 0c0 18.3 0 36.5 0 54.8q-7.2 0-14.3 0 0-27.4 0-54.8z"/><path class="c" d="m382.1 727.9q15.6 0 31.3 0 0 5.4 0 10.9c-6 0.7-9.5 6.7-10.1 12.2-1.3 10.5-0.5 21.1-0.7 31.7q-7.2 0-14.3 0c0-7.7-0.1-15.5 0-23.2-0.1-4.7 0.5-9.6 3-13.7 1.6-2.8 4.3-4.7 6.7-6.6q-7.9 0-15.9 0 0-5.7 0-11.3z"/><path class="c" d="m458.4 727.9q7.6 0 15.1 0c-0.1 7.6 0.8 15.5-2.3 22.7-1.9 4.5-5.8 7.6-9.8 10.3 4.9 7.1 9.4 14.5 13.9 21.8q-8.4 0-16.9 0c-6-9.8-11.5-20-19.1-28.6-5.4 8.5-2.8 19.1-3.4 28.6q-7.6 0-15.1 0c0-8.8-0.6-18 3.2-26.2 2-4.3 5.7-7.3 9.4-10.2-4.7-6.3-9.6-12.5-14.8-18.4 6 0 12.1 0 18.1 0 6.5 8.2 12.7 16.5 19 24.8 1.1-1.9 2.4-3.9 2.4-6.2 0.5-6.2 0.1-12.4 0.3-18.6z"/><path class="c" d="m510.1 727.9c9 0 18-0.1 26.9 0 5.9 0.3 12.4 1.5 16.7 5.9 4.5 4.6 5.6 11.5 5.7 17.7q0 15.6 0 31.2-7.2 0-14.4 0c-0.1-10.4 0-20.8-0.1-31.2 0-3.2-0.3-6.8-2.6-9.2-2.7-2.8-6.8-3.1-10.3-3.1q-11 0-21.9 0 0-5.7 0-11.3z"/><path class="c" d="m569.3 727.9q9.1 0 18.2 0c5 8 10.1 16 15.2 24 1.5-1.2 3.6-2.3 3.5-4.5 0.6-6.5 0.1-13 0.3-19.5q7 0 14 0c-0.2 8.1 1.2 16.8-2.9 24.2-1.8 3.8-5.6 6-9.3 7.7q4.5 6.1 9.1 12.2c2.6 3 1.4 7.1 1.6 10.7q-23.7 0-47.5 0 0-5.7 0-11.3c9.6 0 19.1 0 28.7 0-10.3-14.5-20.6-29-30.9-43.5z"/><path class="c" d="m632.1 727.9c5.2 0 10.5 0 15.7 0 3.1 14.7 6.2 29.4 9.2 44.2 5.1-1.4 9.5-5.2 10.3-10.6 1.9-11.1 0.5-22.4 1-33.6q7.1 0 14.2 0c0 9.2 0.1 18.4 0 27.5-0.2 10.5-6.9 20.7-16.7 24.7-11.2 4.7-22.5 8.9-33.9 13.4 0-4 0-8 0.1-12q5.5-2.1 11-4.2c-3.5-16.5-7.3-32.9-10.9-49.4z"/><path class="c" d="m695.2 727.9q7.1 0 14.3 0c0 18.3 0 36.5 0 54.8q-7.2 0-14.3 0 0-27.4 0-54.8z"/><path class="c" d="m510.6 753.1q7.1-1.7 14.3-3.5 0 16.6 0 33.1-7.2 0-14.3 0c0-9.9 0-19.7 0-29.6z"/><path class="c" d="m65.3 861c0-24-0.1-48 0-71.9 17.8 0 35.6 0 53.4 0 0 12.6 0 25.3 0 38 22.1 0.1 44.1 0 66.1 0 0 7.5 0 15 0 22.4 0.2 3.6-1.7 6.8-2.8 10.1-11.9 31.1-23.6 62.2-35.4 93.3-20 0-40.1 0-60.1-0.1 13.4-30.6 26.7-61.2 40.1-91.8q-30.7 0-61.3 0z"/><path class="c" d="m205.9 827.2c18.7-0.1 37.3-0.1 56-0.1q0 62.9 0 125.8c-18.7-0.1-37.3 0-56-0.1q0-62.8 0-125.6z"/><path class="c" d="m284.4 861q0-16.9 0-33.9c16.9 0 33.7 0 50.6 0 16.7 0.2 34.5 4.6 46.3 17 12.4 12.7 16.6 31.1 16.3 48.4 0 15.8-3.7 32.8-15.3 44.3-11.8 11.8-29.2 15.6-45.4 16-17.5 0.1-35.1 0-52.7 0.1q0-15.4 0-30.8c9.9-0.1 19.8 0 29.8-0.1 7.7-0.1 16-2.2 21.3-8.1 6.1-6.9 7.2-16.6 6.8-25.4-0.4-6.9-1.4-14.5-6.2-19.8-5.4-5.7-13.5-7.4-20.9-7.7-10.2-0.1-20.4 0-30.6 0z"/><path class="c" d="m419.4 895.5c0-22.8 0-45.6 0-68.4q25.5 0 50.9 0c0 20.8-0.1 41.6 0 62.4 0 8.9 2.7 18.2 9 24.8 6.9 7.4 16.8 11.2 26.8 12.3 10.1 1.1 20.6 0.6 30.2-2.9 7.9-2.9 15.2-8.1 19.2-15.6 3.1-5.7 4.4-12.2 4.4-18.6q0-31.1 0-62.4 25.4 0 50.8 0c0 22.2 0.1 44.3 0 66.5-0.2 14.2-5.8 28.5-16.1 38.5-9.5 9.5-22 15.6-34.9 19.2-14.2 4-29 5.3-43.7 5.4-17.7 0-35.6-1.8-52.3-7.9-12.5-4.7-24.4-11.8-33-22.1-7.2-8.7-11.2-19.9-11.3-31.2z"/><path class="c" d="m489.5 913.1q0-43 0-86 25.4 0 50.9 0 0 36.8 0 73.6-25.5 6.2-50.9 12.4z"/><path class="c" d="m630.9 827.1c19 0 37.9 0 56.8 0.1 12 16.5 24.1 33 36.8 49 2.6-16.2 1-32.7 1.4-49.1 17.6 0 35.2 0.1 52.8 0q0.1 16.2 0 32.4c-0.1 10.1-4.2 20.1-11.3 27.4-5.5 5.7-12.5 9.8-19.6 13.1 12.1 17.4 23.7 35.1 35.2 52.8-18.1 0.1-36.2 0-54.3 0.1-7.5-14.6-15.9-28.6-24.7-42.4-3.8-5.8-7.6-11.6-11.9-17.1-2.5 11.2-1.6 22.7-1.8 34.1q0 12.7 0 25.4-26.4 0-52.8 0c0-12.8-0.1-25.6 0-38.3 0.4-13.3 7.1-25.9 17-34.6 4-3.7 8.5-6.9 13.1-9.8-12.4-14.1-24.8-28.4-36.7-43.1z"/></g></svg>