<svg version="1.2" xmlns="http://www.w3.org/2000/svg" viewBox="0 0 316 340" width="316" height="340"><style>.a{fill:#008963}.b{fill:#fff}.c{fill:none;stroke:#fff;stroke-width:4.2}</style><g style="opacity:1"><path class="a" d="m66 0l-23.8 216.9c-3.6 32.6 25.7 44.1 61.7 55.1 20.4 6.3 48.3 11.3 54.1 26 9.6-16.6 34-20 54-26 36.1-10.8 65-25.3 61.7-55.1l-23.7-216.9z"/><path class="b" d="m99.6 247.2l-38.5-66.7h77z"/><path class="b" d="m99.6 158.2l-38.5 66.7h77z"/><path class="a" d="m23 259.9l-23 28.6 40.9 37.1 3.4-4.2-14.9-26.6c-3.6-6.9-3.6-12.3-0.2-16.3l5.9-7.1z"/><path class="a" d="m36.6 278.9c7 9.4 6.6 12.2 21.4 25.2l-10.3 13.1c-7.8-15.8-19.6-27.3-13.5-35.2z"/><path class="a" d="m60.7 250.2l-20.6 25.6c0 0 40.7 63.7 117.9 63.7 77.1 0 117.9-63.7 117.9-63.7l-20.7-25.6c0 0-49.4 46.4-97.2 46.4-47.9 0-97.3-46.4-97.3-46.4z"/><path class="a" d="m292.9 259.9l23 28.6-40.9 37.1-3.4-4.2 14.9-26.6c3.6-6.9 3.6-12.3 0.2-16.3l-5.9-7.1z"/><path class="a" d="m279.3 278.9c-7 9.4-6.6 12.2-21.4 25.2l10.3 13.1c7.8-15.8 19.7-27.3 13.5-35.2z"/><path fill-rule="evenodd" class="b" d="m220.9 248.5h-7.9v-81.5h7.9z"/><path fill-rule="evenodd" class="b" d="m233.9 170.5l6.8 3.9-40.7 70.6-6.8-3.9z"/><path fill-rule="evenodd" class="b" d="m250.3 184l3.9 6.8-70.5 40.7-4-6.8z"/><path fill-rule="evenodd" class="b" d="m257.7 203.8v7.9h-81.5v-7.9z"/><path fill-rule="evenodd" class="b" d="m254.2 224.7l-3.9 6.8-70.6-40.7 4-6.8z"/><path fill-rule="evenodd" class="b" d="m193.2 174.4l6.8-3.9 40.7 70.6-6.8 3.9z"/><path fill-rule="evenodd" class="b" d="m217 233.5c-14.2 0-25.7-11.5-25.7-25.7 0-14.3 11.5-25.7 25.7-25.7 14.2 0 25.7 11.4 25.7 25.7 0 14.2-11.5 25.7-25.7 25.7z"/><path fill-rule="evenodd" class="a" d="m217 225.7c-9.9 0-18-8-18-17.9 0-10 8.1-18 18-18 9.9 0 17.9 8 17.9 18 0 9.9-8 17.9-17.9 17.9z"/><path class="b" d="m183.9 113.8c-9.8 10.4-8.9 23.2-8.9 27.2 0 3.9-5.2 15.2-7.3 18.9-2.1 3.7-5.1 7.5-5.1 7.5 0 0 0-18.2-0.1-22.7-0.1-4.5-0.1-9.6 7.2-22.3 7.2-12.7 9.8-16.8 11-17.5 1.3-0.7 12.6-1.9 25.1-21.6 8.2-13.2 6.3-44.3 6.3-44.3 0 0-29.1 12.5-37 24.6-7.9 12-6.5 37.5-6.5 37.5l-8 14.1-1-43.4c0 0 10.7-12.4 10.7-22.5 0-10.1-6.4-24.3-8.2-28.4-1.7-4-4.1-9.4-4.1-9.4h-0.1c0 0-2.4 5.4-4.2 9.4-1.7 4.1-8.1 18.3-8.1 28.4 0 10.1 10.7 22.5 10.7 22.5l-1 43.4-8-14.1c0 0 1.3-25.5-6.5-37.5-7.9-12.1-37-24.6-37-24.6 0 0-1.9 31.1 6.3 44.3 12.5 19.7 23.8 20.9 25.1 21.6 1.2 0.7 3.8 4.8 11 17.5 7.3 12.7 7.3 17.8 7.2 22.3-0.1 4.5-0.2 22.7-0.2 22.7 0 0-2.9-3.8-5-7.5-2.1-3.7-7.3-15-7.3-18.9 0-4 0.9-16.8-8.9-27.2-9.8-10.4-39.1-25.7-39.1-25.7 0 0 5.8 39.7 10.7 47.7 4.9 7.9 28.4 20.7 33.6 27.5 5.2 6.7 9.8 12.5 9.8 18.6 0 6.1-0.6 18.3-1.5 35.4-1 17.1-2.8 37.6-2.8 37.6h15.2 15.3c0 0-1.8-20.5-2.8-37.6-0.9-17.1-1.5-29.3-1.5-35.4 0-6.1 4.6-11.9 9.8-18.6 5.2-6.8 28.7-19.6 33.6-27.5 4.9-8 10.7-47.7 10.7-47.7 0 0-29.3 15.3-39.1 25.7zm-3.9-39.6c6.9-9.8 20.4-17.6 20.4-17.6 0 0-0.5 18.2-6 26.4-5.6 8.2-16.5 14.8-16.5 14.8 0 0 11.2-16.4 12.8-19.4 1.5-3.1 0.7-6.8 0.7-6.8 0 0-4.7 2.2-6.7 5.5-2 3.4-8.7 18.3-8.7 18.3 0 0-0.9-13.8 4-21.2zm-40.1 21.2c0 0-6.7-14.9-8.7-18.3-2-3.3-6.7-5.5-6.7-5.5 0 0-0.8 3.7 0.8 6.8 1.5 3 12.7 19.4 12.7 19.4 0 0-10.9-6.6-16.5-14.8-5.5-8.2-6-26.4-6-26.4 0 0 13.5 7.8 20.4 17.6 4.9 7.4 4 21.2 4 21.2zm-23.4 30.6c1.8 2.9 14.1 18.5 14.1 18.5 0 0-11.3-5.8-17.4-13.6-6.1-7.8-7.9-25.9-7.9-25.9 0 0 14 6.8 21.6 16 5.4 7.1 6.4 20.8 6.4 20.8 0 0-8.7-14.3-10.9-17.5-2.3-3.2-7.1-5-7.1-5 0 0-0.6 3.8 1.2 6.7zm41.5-81.1c0 0-1.3 1.8-1.3 5.1 0 3.3 0.6 9.8 0.6 9.8 0 0-3.5-5.4-3.5-11 0-5.6 4.2-13.3 4.2-13.3 0 0 4.1 7.7 4.1 13.3 0 5.6-3.5 11-3.5 11 0 0 0.6-6.5 0.6-9.8 0-3.3-1.2-5.1-1.2-5.1zm44.8 86c-6.1 7.8-17.5 13.6-17.5 13.6 0 0 12.3-15.6 14.1-18.5 1.8-2.9 1.2-6.7 1.2-6.7 0 0-4.8 1.8-7 5-2.3 3.2-11 17.5-11 17.5 0 0 1-13.7 6.5-20.8 7.6-9.2 21.5-16 21.5-16 0 0-1.7 18.1-7.8 25.9z"/><path class="c" d="m71.6 7l-22.7 213.2c-2.4 23 23.4 35.4 57.7 45.7 19 5.7 45.2 10.6 51.4 21.2 5.7-9.9 32.3-15.5 51.3-21.2 34.3-10.3 60.1-22.7 57.7-45.7l-22.6-213.2z"/><path class="b" d="m120.3 291.8l-6.4 13.4c4.5 2 9.1 3.8 13.8 5.2q2.6 0.7 5.2 1.4 3.2 0.8 6.5 1.3c-2.7 2.7-5.3 6.1-8.4 8.5q-3.5 2.7-7.2 5.1 2.8 0.8 5.6 1.5 5.5 1.4 11.1 2.2c5.7-5.2 10.7-10.7 14.8-16.5 1.6-2.3 3.2-6.4 4.6-8.7q-2.2 0.1-4.4 0.1c-6.8 0-13.6-0.9-20.3-2.5q-2.3-0.6-4.7-1.3l2-5.1c-4.1-1.3-8.2-2.8-12.2-4.6z"/><path class="b" d="m71.2 265.6c-1.9 2-4.6 5-6.6 7 9.6 8.5 19.6 16.4 30.2 23.2l-8.5 13.5c4 3 7.9 5.9 14.2 8l12.3-23.5c-14.6-7.5-28.7-16.8-41.6-28.2z"/><path class="b" d="m216.8 286.9q2.1 3.6 4.1 7.2c6.4-3.9 12.6-8.2 18.6-12.8l9.7 12.8q6.2-4.8 12.2-9.7l-8.2-9.9-7.3-8.8c-9.4 7.7-19 15-29.1 21.2z"/><path class="b" d="m63.5 275.9l-8.4 9.6q5.8 5.2 12 10.1l8-10.1q-5.9-4.7-11.6-9.6z"/><path class="b" d="m169.4 331.5c0.1 0.1 9.1-1.1 14.9-3.4-5.3-12.4 2.3-18.5 11.3-22.3 5.2-2.1 10.9-2.8 14.2 3.3q-2.7 1.4-5.5 2.7-6.6 3-13.4 5.3 1.4 3.9 2.9 7.7 7.2-2.4 13.9-5.5c6.2-2.8 12.1-6 17.9-9.4l-8.2-11.9c-4.3-6.4-14.7-6.1-26-1.3-19.9 8.4-26.8 20.5-22 34.8z"/><path class="b" d="m166 303.2l-3.1 10.3 16.4 3.9 2.5-10.6z"/><path class="a" d="m99.6 230.8l-24.3-42.1h48.6z"/><path class="a" d="m99.6 174.6l-24.3 42.1h48.6z"/></g></svg>