<svg version="1.2" xmlns="http://www.w3.org/2000/svg" viewBox="0 0 180 297" width="180" height="297"><style>.a{fill:#a31e22}.b{fill:#725d27}.c{fill:#206231}.d{fill:#a71f23}.e{fill:#a51e22}.f{fill:#231f20}</style><g style="opacity:1"><path class="a" d="m89.9 39.6c2.7 0 6 0.2 6 0.2 0 0-1.5-6.2-1.5-12.7 0-6.6 2.3-9.1 2.3-9.1l-1.1-2.7-5.7-5.7-5.7 5.7-1.1 2.7c0 0 2.4 2.5 2.4 9.1 0 6.5-1.6 12.7-1.6 12.7 0 0 3.3-0.2 6-0.2z"/><path class="b" d="m179.5 71.3h0.1v-18.3h-0.1c-0.1-23.4-0.2-40.9-0.2-41.4v-0.5h-25.9v13.9h-47l-15.6-15.2q0.9 0.2 1.9 0.2c3.7 0 6.6-2.6 6.9-6-1.2 1.8-3.4 3.1-5.9 3.1-3.7 0-6.8-3-6.8-6.6q0-0.3 0-0.5c-0.6 1-1 2.2-1 3.5 0 2.5 1.5 4.7 3.7 5.8l-16.2 15.7h-47v-13.9h-25.9v0.5c0 0.5-0.1 18-0.1 41.4h-0.1v15.6c-0.1 43.8-0.3 98-0.3 106 0 6.9 5 18.7 19 28.8 11.5 8.4 33.2 18.3 70.9 18.3 37.8 0 59.4-9.9 70.9-18.3 14.1-10.1 19-21.9 19-28.8 0-7.8-0.1-60-0.3-103.3zm-0.9 12.1c-0.8 0-4 0-13.3 0-10.9 0-28.7 9-28.7 9 0 0-6.6-2.8-10.4-6.5-2.8-2.9-5.7-6.8-7-8.6v-3.9c1.9 0.9 6.1 2 14.9 2 11.1 0 21.8-7.4 28.7-13.5-2.1 2.3-4.3 4.7-6 6.3-4.7 4.5-9.9 4.7-10 4.7h-0.7l0.3 0.6c0 0.1 3.1 8.3 12.6 8.3 8 0 16.7-7.1 19.5-9.5q0.1 5.5 0.1 11.1zm-118-6.3c-1.1 1.6-4.2 5.8-7.1 8.8-3.8 3.7-10.4 6.5-10.4 6.5 0 0-17.8-9-28.8-9-8.7 0-12 0-13 0q0-5.7 0-11.2c2.7 2.4 11.5 9.6 19.6 9.6 9.6 0 12.6-8.2 12.7-8.3l0.2-0.6c3.7 1.5 7.6 2.5 11.6 2.5 9.4 0 13.5-1.2 15.2-2.1 0 0 0 3.8 0 3.8zm-59.2-23.1h7.6c1.2 1.4 8.9 10.6 13.5 14.9 4 3.8 8.2 4.7 9.9 4.9-0.9 1.8-4 7-11.5 7-8.5 0-18.3-8.7-19.6-10v-2.2c0-5 0-9.9 0.1-14.6zm177.1 16.9c-1.5 1.4-11.1 9.9-19.5 9.9-7.4 0-10.6-5.2-11.4-7 1.6-0.2 5.9-1.1 9.9-4.9 4.5-4.3 12.3-13.5 13.4-14.9h7.6c0 5.4 0 11.1 0 16.9zm-44.4 3.5c-9.7 0-13.5-1.4-14.9-2.2v-1c1.8-3.2 7.7-12.7 16-15.9 10.6-4.1 15.8-5 20.7-5 4.4 0 11.5 2.6 13.6 3.4-2.8 3.3-18.7 20.7-35.4 20.7zm-14.9-5.2v-8.9h-6.9c-0.2-8.9-10.2-16.1-22.4-16.1-12.2 0-22.2 7.2-22.4 16.1h-6.9v9.3c-2.2-3.7-7.2-11.1-14.3-14.6 9.2-9.1 25.8-14.8 43.6-14.8 17.8 0 34.4 5.6 43.5 14.8-6.9 3.3-11.8 10.3-14.2 14.2zm-58.6 2.5v0.4c-1.1 0.7-4.8 2.3-15.2 2.3-16.6 0-32.5-17.4-35.3-20.7 2.1-0.8 9.2-3.4 13.6-3.4 4.9 0 10.1 0.9 20.7 5 8.7 3.4 14.8 13.7 16.2 16.4zm-26.9 1.2h-0.6c-0.1 0-5.2-0.2-10-4.7-1.4-1.3-3.1-3.1-4.8-5 4.2 3.5 9.5 7.3 15.4 9.7zm27.9-0.3q0.1-0.1 0.2-0.2l0.2-0.2-0.2-0.3q0-0.1-0.2-0.5v-10.1h6.4l0.5-0.2v-0.5c0-8.5 9.6-15.4 21.4-15.4 11.8 0 21.4 6.9 21.4 15.4h0.5l-0.5 0.2v0.5h6.9v9.6c-0.2 0.6-0.4 0.9-0.4 1l-0.2 0.3 0.2 0.2c0 0.1 0.2 0.2 0.4 0.4v37.8h-56.6zm-60.1-60.4h23.9v13.8h48.4l16.1-15.6 16.1 15.6h48.4v-13.8h23.9c0.1 3 0.1 19.5 0.2 40.8h-8c-0.9-0.3-9.4-3.6-14.6-3.6-5 0-10.3 0.8-21.1 5q-0.2 0.1-0.4 0.2c-9.3-9.5-26.2-15.4-44.5-15.4-18.3 0-35.3 5.9-44.5 15.4q-0.3-0.1-0.6-0.2c-10.8-4.2-16.1-5-21.1-5-5.2 0-13.7 3.3-14.6 3.6h-7.7c0-21.3 0.1-37.8 0.1-40.8zm158.7 190.5q-2.9 2.1-6.8 4.3c-11.4-10.3-35.4-17.4-63.3-17.4-27.9 0-52.1 7.2-63.4 17.6-2.7-1.5-5.1-3.1-7.1-4.5-12.8-9.3-18.6-20.8-18.6-28.1 0-4.6 0.1-25.3 0.1-50.5 1.3 1 7.5 5.2 20.5 5.2 14.7 0 20.1-3.1 20.1-3.1 0 0 5.9 34.9 46.1 34.9l-2.6-30.2-29 2.4c0 0-2.9-20.5-29-20.5-11.8 0-21.6 3.3-21.6 3.3 0 0 12.2-10.6 29.2-10.6 14.7 0 23.7 4.3 25.8 5.4v0.8h58.6v-0.9c2.3-1.2 11.2-5.3 25.7-5.3 17 0 29.2 10.6 29.2 10.6 0 0-9.9-3.3-21.6-3.3-26.2 0-29 20.5-29 20.5l-29.1-2.4-2.6 30.2c40.3 0 46.1-34.9 46.1-34.9 0 0 5.5 3.1 20.2 3.1 13.7 0 19.8-4.6 20.6-5.3 0.1 25.2 0.1 46 0.1 50.6 0 7.3-5.7 18.8-18.6 28.1z"/><path class="c" d="m137.2 96.4c0 0 4.6-4.9 17.3-4.9 12.7 0 22.9 11.5 22.9 11.5 0 0-2.1 2.7-7.9 2.7-5.9 0-15.5-9.5-22.1-9.5-6.6 0-10.2 0.2-10.2 0.2z"/><path class="d" d="m22.2 287v5.8q0 1 0.3 1.7 0.4 1 1.4 1 1.2 0 1.7-1.1 0.2-0.6 0.2-1.6v-5.8h1v5.3q0 1.7-0.4 2.6-0.6 1.7-2.4 1.7-1.8 0-2.4-1.7-0.4-0.9-0.4-2.6v-5.3z"/><path class="d" d="m28.2 287h1.4l2 7.9 2-7.9h1.3v9.3h-0.9v-5.5q0-0.2 0-0.9 0-0.7 0-1.4l-2 7.8h-0.9l-2-7.8v0.3q0 0.3 0 1 0 0.7 0 1v5.5h-0.9c0 0 0-9.3 0-9.3z"/><path class="d" d="m36.3 287h1.4l2 7.9 2-7.9h1.4v9.3h-1v-5.5q0-0.2 0.1-0.9 0-0.7 0-1.4l-2 7.8h-1l-2-7.8v0.3q0 0.3 0 1 0 0.7 0 1v5.5h-0.9z"/><path class="d" d="m48.7 287h1.1l2.5 9.3h-1l-0.8-2.8h-2.7l-0.8 2.8h-0.9zm1.5 5.5l-1-4.1-1.2 4.1z"/><path class="d" d="m53.2 287h0.9v8.2h3.5v1.1h-4.4z"/><path class="d" d="m58.3 292.1h2.4v1.2h-2.4z"/><path class="d" d="m61.9 287h4.9v1.2h-3.9v2.8h3.4v1.1h-3.4v4.2h-1z"/><path class="d" d="m69.3 287h1.1l2.5 9.3h-1l-0.7-2.8h-2.8l-0.7 2.8h-1zm1.6 5.5l-1.1-4.1-1.1 4.1z"/><path class="d" d="m73.8 287h1v3.9h3.6v-3.9h0.9v9.3h-0.9v-4.3h-3.6v4.3h-1z"/><path class="d" d="m80.8 287h1.4l2 7.9 2-7.9h1.3v9.3h-0.9v-5.5q0-0.2 0-0.9 0.1-0.7 0.1-1.4l-2 7.8h-1l-2-7.8v0.3q0 0.3 0 1 0 0.7 0 1v5.5h-0.9c0 0 0-9.3 0-9.3z"/><path class="d" d="m91.7 287h1.3l2 7.9 2-7.9h1.4v9.3h-0.9v-5.5q0-0.2 0-0.9 0-0.7 0-1.4l-2 7.8h-0.9l-2.1-7.8v0.3q0 0.3 0.1 1 0 0.7 0 1v5.5h-0.9c0 0 0-9.3 0-9.3z"/><path class="d" d="m100.8 287v5.8q0 1 0.3 1.7 0.5 1 1.5 1 1.2 0 1.6-1.1 0.3-0.6 0.3-1.6v-5.8h0.9v5.3q0 1.7-0.3 2.6-0.7 1.7-2.5 1.7-1.7 0-2.4-1.7-0.3-0.9-0.3-2.6v-5.3z"/><path class="d" d="m106.9 287h1.1l3.5 7.5v-7.5h0.9v9.3h-1.1l-3.5-7.5v7.5h-0.9z"/><path class="d" d="m114.1 287h1v9.3h-1z"/><path class="d" d="m121.6 287.7q0.7 0.9 0.8 2.1h-0.9q-0.2-0.9-0.7-1.4-0.4-0.5-1.3-0.5-1 0-1.6 0.9-0.6 1-0.6 3 0 1.6 0.5 2.7 0.6 1 1.7 1 1.1 0 1.6-1.1 0.3-0.6 0.4-1.5h0.9q-0.1 1.5-0.8 2.5-0.8 1.2-2.2 1.2-1.2 0-2-1-1.1-1.3-1.1-4 0-2.1 0.8-3.4 0.9-1.4 2.4-1.4 1.3 0 2.1 0.9z"/><path class="d" d="m123.9 287h0.9v9.3h-0.9z"/><path class="d" d="m126.5 287h3.1q0.9 0 1.5 0.7 0.6 0.7 0.6 2 0 1.1-0.5 1.9-0.5 0.8-1.6 0.8h-2.2v3.9h-0.9c0 0 0-9.3 0-9.3zm3.7 1.3q-0.4-0.2-0.9-0.2h-1.9v3.2h1.9q0.6 0 1-0.3 0.4-0.4 0.4-1.3 0-1-0.5-1.4z"/><path class="d" d="m134.2 287h1.1l2.5 9.3h-1l-0.7-2.8h-2.8l-0.8 2.8h-0.9zm1.5 5.5l-1-4.1-1.1 4.1z"/><path class="d" d="m138.7 287h0.9v8.2h3.5v1.1h-4.4c0 0 0-9.3 0-9.3z"/><path class="d" d="m144.3 287h1v9.3h-1z"/><path class="d" d="m151.9 287v1.1h-2.3v8.2h-1v-8.2h-2.4v-1.1z"/><path class="d" d="m152.2 287h1.1l2.1 4.5 2-4.5h1.1l-2.7 5.6v3.7h-0.9v-3.7z"/><path class="a" d="m154.7 247.1v5.8h-4.7v-14.3h-3v14.3h-3.6v-0.5c0-5.1-7.1-7.8-10.2-7.8v3c2.1 0 7.2 2.1 7.2 4.8v0.5h-6.9v3h24.2v-8.8z"/><path class="a" d="m131.1 255.9v-9h-3v6h-4.8v-9l-1.9 0.5c-1 0.3-9.1 2.7-9.1 7.9 0 2.2 1.3 3.6 2.6 3.6h3.8v-3h-3.3q-0.1-0.2-0.1-0.6c0-1.7 2.7-3.4 5-4.3v7.9c0 0 10.8 0 10.8 0z"/><path fill-rule="evenodd" class="a" d="m103 240.1h3v15h-3z"/><path fill-rule="evenodd" class="a" d="m76.8 238.6h3v16.5h-3z"/><path class="a" d="m71.4 252.9h-4.4v-7.9h-5.2c-2.4 0-5.2 3.7-5.2 5.4v2.5h-3.5c-0.9-4.3-5.1-8.3-7.6-8.3h-5.4v3h5.4c0.8 0.1 3.7 2.4 4.5 5.3h-14.8v-7.9h-5.2c-2.3 0-5.2 3.7-5.2 5.4v2.5h-0.1c-1.6 0-4.2 2.1-4.2 4.3v5.9h3v-5.9c0-0.3 0.8-1.1 1.3-1.3h49.5v-17.3h-2.9zm-11.8-2.3c0.1-0.7 1.6-2.4 2.2-2.5h2.2v4.8h-4.4zm-31.8 0c0.1-0.6 1.6-2.3 2.2-2.5h2.2v4.9h-4.4z"/><path class="a" d="m90 250.4v2.5c-2.2 0-3.8 1.8-3.8 4.3v5.9h3v-5.9c0-0.6 0.2-1.3 0.8-1.3h10.3v-10.9h-5.1c-2.4 0-5.2 3.7-5.2 5.4zm7.4 2.5h-4.5v-2.4c0.2-0.6 1.7-2.3 2.3-2.5h2.2z"/><path fill-rule="evenodd" class="a" d="m154.7 256.8h3v3h-3z"/><path fill-rule="evenodd" class="a" d="m128.1 256.8h3v3h-3z"/><path fill-rule="evenodd" class="a" d="m124.2 256.8h3v3h-3z"/><path fill-rule="evenodd" class="a" d="m120.4 240.1h3.1v2.9h-3.1z"/><path fill-rule="evenodd" class="a" d="m116.5 240.1h3.1v2.9h-3.1z"/><path fill-rule="evenodd" class="a" d="m62 240.1h3v2.9h-3z"/><path class="a" d="m104.1 235.4c0-0.6 1.2-1 1.8-1.2l-0.3-0.9c-0.2 0-2.5 0.6-2.5 2.1v2.1h-1.6v1h5.2v-1h-2.6z"/><path class="d" d="m30.8 278.6q0 0.4 0 0.5-0.1 0.1-0.5 0.1h-8.4q-0.2 0-0.3-0.1-0.1 0-0.1-0.3v-8.6q0-0.5 0.5-0.5h5.2q2 0 2.7 0.6 0.9 0.7 0.9 2.7zm-2.8-1.1v-4.6q0-0.9-0.3-1.2-0.4-0.4-1.3-0.4h-2v6.2z"/><path class="d" d="m42.1 279.2h-2.8v-6.2q0-0.9-0.4-1.3-0.4-0.3-1.2-0.3h-1.9v7.8h-2.8v-9q0-0.5 0.4-0.5h5q2 0 2.8 0.7 0.9 0.7 0.9 2.8c0 0 0 6 0 6z"/><path class="d" d="m53.1 275q0.1 0.4 0.1 0.8 0 1.7-1.1 2.6-0.9 0.8-2.4 0.8h-6.1q0.1-0.4 0.3-0.9 0.3-0.6 0.5-0.8h4.3q1 0 1.4-0.5 0.3-0.4 0.2-1.3l-0.2-3.2q-0.1-0.8-0.4-1.1-0.3-0.3-0.9-0.3h-0.5q-0.9 0-1.1 0.9l-0.5 2.7q-0.9 0.5-3 0.5l0.8-3.1q0.6-2.5 3.5-2.5h1.3q1.7 0 2.5 0.6 0.8 0.7 1 2.2z"/><path class="d" d="m62.5 270.7l-0.6 4.5q-0.6 4-4.6 4h-1.6q0.1-0.9 0.6-1.6h0.6q1.1 0 1.6-0.5 0.4-0.4 0.6-1.5l0.5-3.8q0.1-0.5-0.3-0.5h-4.3q-0.7 0-0.7-0.8v-3.7h2.8v2.9h4.6q0.9 0 0.9 0.7 0 0.2-0.1 0.3z"/><path class="d" d="m74.3 279.2h-3.1l-3.7-5.2q-0.5 0.3-0.5 1v4.2h-2.7v-3.3q0-1 0.4-1.6 0.4-0.5 1.9-1.4l-2.5-3v-0.2h3.1l3.4 4.3q0.5-0.3 0.5-1v-3.3h2.8v2.5q0 1-0.6 1.6-0.4 0.5-1.9 1.3l2.9 3.9c0 0 0 0.2 0 0.2z"/><path class="d" d="m89.6 278.6q0 0.4-0.1 0.5-0.1 0.1-0.4 0.1h-8.4q-0.3 0-0.3-0.1-0.1 0-0.1-0.3v-8.6q0-0.5 0.4-0.5h5.3q2 0 2.7 0.6 0.9 0.7 0.9 2.7c0 0 0 5.6 0 5.6zm-2.8-1.1v-4.6q0-0.9-0.4-1.2-0.3-0.3-1.2-0.3h-2.1v6.1z"/><path class="d" d="m94.5 279.2h-2.8v-9.5h2.8z"/><path class="d" d="m106.5 279.2h-3l-3.8-5.2q-0.4 0.3-0.4 1v4.2h-2.7v-3.3q0-1 0.3-1.6 0.4-0.5 2-1.4l-2.6-3v-0.2h3.2l3.4 4.3q0.4-0.3 0.4-1v-3.3h2.8v2.5q0 1-0.5 1.6-0.5 0.5-2 1.3l2.9 3.9z"/><path class="d" d="m122.5 279.2h-2.8v-6.1q0-1-0.4-1.4-0.4-0.4-1.3-0.4h-1.5v5.3q0 1.3-0.6 1.9-0.7 0.7-1.7 0.7h-2.5q0.2-1.1 0.6-1.7h0.7q0.8 0 0.8-0.8v-5.4h-1q-0.4-0.4-0.6-1.6h6.6q1.9 0 2.7 0.7 1 0.7 1 2.8c0 0 0 6 0 6z"/><path class="d" d="m127.3 274.4q-1.3 0.9-2.8 0.9v-5.6h2.8z"/><path class="d" d="m132 274.4q-1.2 0.9-2.8 0.9v-5.6h2.8z"/><path class="d" d="m141.2 279.2h-2.8v-6.2q0-1.6-1.4-1.6h-3q-0.5-0.6-0.7-1.7h4.8q1.8 0 2.5 0.8 0.6 0.7 0.6 2.7c0 0 0 6 0 6z"/><path class="d" d="m146.1 274.4q-1.3 0.9-2.9 0.9v-5.6h2.9z"/><path class="d" d="m157.4 269.7l-0.6 5.2q-0.2 1.9-0.9 2.7-0.9 1.1-3.1 1.6l-5.6 1.2q0.1-1 0.6-1.7l2-0.4-2.1-8.6h3l1.8 8q1-0.2 1.3-0.9 0.1-0.2 0.2-1.4l0.5-5.7z"/><path class="c" d="m61.4 72.1c0 0-6.5-13.3-16.8-17.3-10.3-4-15.6-5-20.9-5-5.3 0-14.5 3.7-14.5 3.7 0 0 17.5 21.4 36.2 21.4 13.8 0 16-2.8 16-2.8z"/><path class="c" d="m118.2 72.1c0 0 6.5-13.3 16.8-17.3 10.3-4 15.6-5 20.9-5 5.3 0 14.5 3.7 14.5 3.7 0 0-17.5 21.4-36.3 21.4-13.7 0-15.9-2.8-15.9-2.8z"/><path class="c" d="m9.2 53.5h-8.4v17.6c0 0 10.7 10.2 20.1 10.2 9.3 0 12.2-7.9 12.2-7.9 0 0-5.4-0.2-10.3-4.8-4.9-4.7-13.6-15.1-13.6-15.1z"/><path class="c" d="m170.7 53.5h8.4v17.6c0 0-10.7 10.2-20.1 10.2-9.3 0-12.2-7.9-12.2-7.9 0 0 5.4-0.2 10.3-4.8 4.9-4.7 13.6-15.1 13.6-15.1z"/><path fill-rule="evenodd" class="e" d="m124 135.1l-4.6-19.1h-58.8l-4.7 19.1z"/><path class="b" d="m124.6 135.6h-69.3l4.9-20.1h59.6zm-68.2-1h66.9l-4.4-18.2h-58z"/><path fill-rule="evenodd" class="e" d="m75.8 191.5l3.7-56.4h20.9l3.7 56.4-19.2 1.7z"/><path class="b" d="m84.9 193.7h-0.1l-9.5-1.7 3.7-57.4h21.9l3.7 57.4zm-8.5-2.6l8.6 1.6 18.6-1.6-3.6-55.5h-20z"/><path fill-rule="evenodd" class="b" d="m87.1 135.4h1l-2.7 57.5-0.9-0.1z"/><path class="c" d="m42.5 96.4c0 0-4.6-4.9-17.3-4.9-12.7 0-23 11.5-23 11.5 0 0 2.2 2.7 8 2.7 5.9 0 15.5-9.5 22.1-9.5 6.6 0 10.2 0.2 10.2 0.2z"/><path fill-rule="evenodd" class="f" d="m49.7 202.5c0.6 1-0.4 2.9-2.3 4.2-1.9 1.4-4.1 1.7-4.8 0.7-0.6-1 0.4-2.9 2.3-4.2 2-1.4 4.1-1.7 4.8-0.7z"/><path fill-rule="evenodd" class="f" d="m81.9 198.8c1.1-2.2 2.6-3.8 3.4-3.4 0.8 0.4 0.6 2.5-0.4 4.8-1 2.2-2.5 3.7-3.3 3.4-0.9-0.4-0.7-2.5 0.3-4.8z"/><path class="f" d="m87 203.8c-0.9 0.1-1.7 1-2.1 2.3-0.8 0.5-1.7 1.7-2.5 3.3q0 0.2-0.1 0.4c-0.8-1.1-1.7-1.7-2.5-1.5 0.2-0.4 0.4-0.9 0.4-1.5 0-1.4-1-2.5-2.2-2.5q-0.6 0-1.1 0.3 0-0.5-0.2-0.6c-0.8-0.6-2.9 1.2-4.8 3.8-1.9 2.7-2.9 5.3-2.2 5.8 0.8 0.5 2.9-1.2 4.8-3.9q0.8-1.1 1.4-2.1c0.2 1 1.1 1.8 2.1 1.8q0.3 0 0.7-0.2c-0.5 1-0.4 2.6 0.2 4.2 0.9 2.3 2.6 3.8 3.8 3.3 1-0.3 1.3-1.7 1.1-3.4q0.5-0.6 0.9-1.3c0.5 2.3 1.7 4 2.9 3.9 1.6-0.1 2.7-2.9 2.5-6.2-0.2-3.3-1.6-6-3.1-5.9z"/><path class="f" d="m93.4 208.4c-1.1 0.8-0.8 3.3 0.7 5.6 1.6 2.3 3.7 3.6 4.9 2.9 1.1-0.8 0.8-3.3-0.8-5.6-1.5-2.4-3.7-3.6-4.8-2.9z"/><path fill-rule="evenodd" class="f" d="m98.2 202.4c0.7 1.1 0.8 2.4 0.1 2.8-0.6 0.4-1.7-0.1-2.4-1.2-0.8-1.1-0.8-2.4-0.2-2.8 0.6-0.4 1.7 0.1 2.5 1.2z"/><path fill-rule="evenodd" class="f" d="m94.9 197.2c-0.4-0.7-0.5-1.4-0.1-1.7 0.4-0.3 1.1 0.1 1.5 0.8 0.5 0.6 0.5 1.4 0.1 1.7-0.4 0.2-1-0.1-1.5-0.8z"/><path fill-rule="evenodd" class="f" d="m105.5 210c1.9 2 3 4.1 2.3 4.8-0.7 0.7-2.8-0.4-4.8-2.3-2-2-3-4.2-2.3-4.9 0.7-0.6 2.8 0.4 4.8 2.4z"/><path fill-rule="evenodd" class="f" d="m106.4 203.1c2 2 3 4.1 2.3 4.8-0.7 0.7-2.8-0.3-4.8-2.3-2-2-3-4.2-2.3-4.8 0.7-0.7 2.8 0.3 4.8 2.3z"/><path fill-rule="evenodd" class="f" d="m102 198.2c-1.8-1.8-2.8-3.7-2.3-4.2 0.5-0.5 2.4 0.5 4.2 2.4 1.8 1.8 2.8 3.6 2.3 4.1-0.5 0.6-2.4-0.5-4.2-2.3z"/><path fill-rule="evenodd" class="f" d="m113.6 203.1c-2.3-1.1-3.8-2.6-3.5-3.2 0.3-0.7 2.4-0.2 4.7 0.9 2.3 1.2 3.8 2.6 3.5 3.3-0.3 0.6-2.4 0.2-4.7-1z"/><path fill-rule="evenodd" class="f" d="m123.3 202c-2.9-1.4-4.9-3.2-4.5-3.9 0.4-0.7 2.9-0.1 5.8 1.4 2.8 1.4 4.8 3.2 4.4 3.9-0.3 0.7-2.9 0.1-5.7-1.4z"/><path fill-rule="evenodd" class="f" d="m120 211.2c-0.3 0.7-1.6 0.6-2.8 0-1.3-0.6-2-1.7-1.7-2.3 0.3-0.6 1.6-0.6 2.8 0.1 1.3 0.6 2 1.6 1.7 2.2z"/><path fill-rule="evenodd" class="f" d="m139.1 204.1c-0.1 0.7-1.4 1.1-3 0.8-1.5-0.3-2.6-1.1-2.5-1.8 0.2-0.7 1.5-1 3-0.8 1.5 0.3 2.7 1.1 2.5 1.8z"/><path fill-rule="evenodd" class="f" d="m130.2 208.6c-0.1 1.2-1.6 2-3.3 1.9-1.8-0.2-3.1-1.3-3-2.5 0.1-1.1 1.6-2 3.4-1.8 1.7 0.2 3 1.2 2.9 2.4z"/><path fill-rule="evenodd" class="f" d="m110.6 195.9c-1.5-0.8-2.5-1.9-2.2-2.4 0.3-0.6 1.8-0.5 3.3 0.3 1.4 0.8 2.4 1.8 2.1 2.4-0.3 0.6-1.7 0.4-3.2-0.3z"/><path fill-rule="evenodd" class="f" d="m76 198.9c-0.3-0.3 0.4-1.2 1.4-2 1.1-0.7 2.2-1 2.5-0.6 0.2 0.3-0.4 1.3-1.5 2-1.1 0.7-2.2 1-2.4 0.6z"/><path class="f" d="m69.5 204.6c-0.7-1-3.5-0.3-6.2 1.6q-0.4 0.3-0.7 0.6c-0.8-0.2-1.7-0.4-2.6-0.4q-1.3 0-2.3 0.3c2.2-1.8 3.4-3.6 2.8-4.5q0 0-0.1 0c0.4-0.3 0.6-0.6 0.6-0.9 0-0.9-1.9-1.7-4.3-1.7-2.3 0-4.2 0.8-4.2 1.7 0 0.8 1.3 1.5 3.1 1.7q-0.7 0.4-1.4 0.9c-2.8 1.9-4.5 4.2-3.8 5.2 0.6 0.9 2.9 0.4 5.3-1q0 0 0 0.1c0 0.9 1.8 1.6 4 1.7-0.4 0.6-0.4 1.2-0.2 1.6 0.7 1 3.5 0.2 6.3-1.7 2.7-1.9 4.4-4.2 3.7-5.2z"/><path fill-rule="evenodd" class="f" d="m63.5 201.2c-0.4-0.8 1.5-2.3 4-3.3 2.6-1 4.9-1.2 5.2-0.5 0.4 0.8-1.5 2.3-4 3.3-2.6 1.1-4.9 1.3-5.2 0.5z"/><path fill-rule="evenodd" class="f" d="m64.3 195.1c-0.1-0.5 0.9-1.1 2.2-1.4 1.3-0.3 2.5-0.1 2.6 0.5 0.1 0.5-0.9 1.1-2.2 1.3-1.3 0.3-2.5 0.1-2.6-0.4z"/><path fill-rule="evenodd" class="f" d="m91 201.2c-0.6 0-1-0.7-1-1.6 0-0.9 0.4-1.7 1-1.7 0.5 0 1 0.8 1 1.7 0 0.9-0.5 1.6-1 1.6z"/></g></svg>