<svg version="1.2" xmlns="http://www.w3.org/2000/svg" viewBox="0 0 876 961" width="876" height="961"><style>.a{opacity:1;fill:#fff}.b{opacity:1;fill:none;stroke:#000;stroke-miterlimit:3.864;stroke-width:.4}.c{opacity:1;fill:#fd0}.d{opacity:1;fill:none;stroke:#fd0;stroke-miterlimit:3.864;stroke-width:.4}.e{opacity:1}.f{opacity:1;fill:#f58220}.g{opacity:1;fill:none;stroke:#f58220;stroke-miterlimit:3.864;stroke-width:.4}.h{opacity:1;fill:#008340}</style><path class="a" d="m426.4 216.5h317.1c0 0-0.1 484.5-1 517.3-1 32.7-19.9 82.4-54.7 109.1-34.8 26.7-73.9 41.9-129.4 65-55.4 23.2-120.1 45.1-120 45.2 0.1 0.2-64.6-22-120-45.2-55.4-23.1-94.6-38.3-129.4-65-34.8-26.7-56.5-76.4-57.4-109.1-0.9-32.8-0.5-517.3-0.5-517.3z"/><path class="b" d="m426.4 216.5h317.1c0 0-0.1 484.5-1 517.3-1 32.7-19.9 82.4-54.7 109.1-34.8 26.7-73.9 41.9-129.4 65-55.4 23.2-120.1 45.1-120 45.2 0.1 0.2-64.6-22-120-45.2-55.4-23.1-94.6-38.3-129.4-65-34.8-26.7-56.5-76.4-57.4-109.1-0.9-32.8-0.5-517.3-0.5-517.3z"/><path class="c" d="m791.8 433l0.5-47.5c0-0.8-0.1-0.9-0.2-1.7-1.8-8.3-4.7-21.6-5.7-24.8-6.1-22.3-7.9-27.2-11.4-38.9-3.3-11.3-8.3-36.3-10-46.8-0.9-5.1-3.8-36.8-3.9-41.8-0.5-16.8 0.3-28.8 3.6-43.7 3.2-13.9 4.7-18.9 9-29 2.7-6.4 10.4-21.9 12.4-25.2 2.4-3.9 10.4-14.3 17.5-24.6 3.3-4.8 30.7-50.7 30.7-50.7 0 0-18.5 73-19.3 74.9-2.3 5.1-3.3 10.6-4.6 20.7-0.5 3.3-0.7 6.9-0.6 9.8 0.3 4.5 12 61.8 15.6 70.9 1.3 3.4 6.1 18.6 6.3 19.5 2.1 6.8 0.8 1.8 2 6.3 0.4 1.2 4.2 18.4 6.4 28 3.2 13.2 4.2 53 0.8 65.9-2.2 8.4-12.9 30.6-17.4 37.5-2.1 3.3-31.7 41.2-31.7 41.2z"/><path class="d" d="m791.8 433l0.5-47.5c0-0.8-0.1-0.9-0.2-1.7-1.8-8.3-4.7-21.6-5.7-24.8-6.1-22.3-7.9-27.2-11.4-38.9-3.3-11.3-8.3-36.3-10-46.8-0.9-5.1-3.8-36.8-3.9-41.8-0.5-16.8 0.3-28.8 3.6-43.7 3.2-13.9 4.7-18.9 9-29 2.7-6.4 10.4-21.9 12.4-25.2 2.4-3.9 10.4-14.3 17.5-24.6 3.3-4.8 30.7-50.7 30.7-50.7 0 0-18.5 73-19.3 74.9-2.3 5.1-3.3 10.6-4.6 20.7-0.5 3.3-0.7 6.9-0.6 9.8 0.3 4.5 12 61.8 15.6 70.9 1.3 3.4 6.1 18.6 6.3 19.5 2.1 6.8 0.8 1.8 2 6.3 0.4 1.2 4.2 18.4 6.4 28 3.2 13.2 4.2 53 0.8 65.9-2.2 8.4-12.9 30.6-17.4 37.5-2.1 3.3-31.7 41.2-31.7 41.2z"/><path class="c" d="m108.8 261.3c-0.1 8-1.5 27.2-3.4 34-4.8 17-13.7 42.7-16.5 51.9-7.5 23.8-7.4 28-9.7 45.7-0.3 2.9-1 26.7-0.9 28 0.7 7.7 8.2 29.7 7 30.3-0.3 0.2-3-1.9-4.3-3.1-16-15.9-24.8-28.8-34.5-49.6-11.5-24.9-12.8-36.1-13.5-63.6-0.3-15.6-0.1-23.8 4.2-37.9 1.4-4.6 10.4-26.1 12.9-33.5 9.5-28.5 9.5-65.6 6.6-94.6-2.3-23.8-4.7-27.6-12.9-52.8-0.4-1.5-0.8-3.8-0.6-4.1 0.4-0.5 1.7 0.2 2.9 0.9 1.4 0.9 16.3 15.1 18.1 17.3 14.1 17.1 23.1 44.6 31.6 67.5 6.8 18.3 13.3 52.8 13 63.6z"/><path class="d" d="m108.8 261.3c-0.1 8-1.5 27.2-3.4 34-4.8 17-13.7 42.7-16.5 51.9-7.5 23.8-7.4 28-9.7 45.7-0.3 2.9-1 26.7-0.9 28 0.7 7.7 8.2 29.7 7 30.3-0.3 0.2-3-1.9-4.3-3.1-16-15.9-24.8-28.8-34.5-49.6-11.5-24.9-12.8-36.1-13.5-63.6-0.3-15.6-0.1-23.8 4.2-37.9 1.4-4.6 10.4-26.1 12.9-33.5 9.5-28.5 9.5-65.6 6.6-94.6-2.3-23.8-4.7-27.6-12.9-52.8-0.4-1.5-0.8-3.8-0.6-4.1 0.4-0.5 1.7 0.2 2.9 0.9 1.4 0.9 16.3 15.1 18.1 17.3 14.1 17.1 23.1 44.6 31.6 67.5 6.8 18.3 13.3 52.8 13 63.6z"/><path class="c" d="m145.1 63.4c0 0-0.8 13.9-1.4 24-0.8 14.9-1.2 31.9 1.6 45.2 0.9 4.4 4 7.4 9.2 11.9 4.4 3.7 16 11.8 19 14.5 2.8 2.5 5.9 5.6 5.9 5.6 0 0-11.4 3.9-15.5 4.9-15.9 3.7-41.4-4-54.4-9.5-3.7-1.6-19.1-9.8-20.8-11.1-1.2-0.9-2.3-1.9-3.5-2.7-2-1.5-4.1-2.6-6-4-1.1-0.7-23.1-27.7-25.8-31.6-3.5-5.1-7-9.7-10.9-14.3-7-8-26.9-28.5-29.4-31.8-3.2-4.1-3.8-5.7-4.5-11.4-1.3-11.7 4.2-20 15.5-25.1 8.8-4 18.1-0.3 28 5.1 5.6 3 10.9 6.8 16.4 9.6 10.2 5.3 37.3 13.8 49.9 16.3 9.6 1.8 26.7 4.4 26.7 4.4z"/><path class="d" d="m145.1 63.4c0 0-0.8 13.9-1.4 24-0.8 14.9-1.2 31.9 1.6 45.2 0.9 4.4 4 7.4 9.2 11.9 4.4 3.7 16 11.8 19 14.5 2.8 2.5 5.9 5.6 5.9 5.6 0 0-11.4 3.9-15.5 4.9-15.9 3.7-41.4-4-54.4-9.5-3.7-1.6-19.1-9.8-20.8-11.1-1.2-0.9-2.3-1.9-3.5-2.7-2-1.5-4.1-2.6-6-4-1.1-0.7-23.1-27.7-25.8-31.6-3.5-5.1-7-9.7-10.9-14.3-7-8-26.9-28.5-29.4-31.8-3.2-4.1-3.8-5.7-4.5-11.4-1.3-11.7 4.2-20 15.5-25.1 8.8-4 18.1-0.3 28 5.1 5.6 3 10.9 6.8 16.4 9.6 10.2 5.3 37.3 13.8 49.9 16.3 9.6 1.8 26.7 4.4 26.7 4.4z"/><path class="c" d="m185.2 158.9c0 0-11.4-7.7-19.1-13-5.9-4-12-8.2-14.1-12.8-2.3-5.1-2.5-23.5-2.7-28.8-0.3-11.5 0.4-30.7 4.2-44.5 1.1-4 3.1-10 3.1-10 0 0 6.5 6.9 9.3 9.2 3.1 2.7 5.7 3.3 10 4.4 1.8 0.5 3.9 0.9 5.2 0.9 2.3-0.1 2.9-0.3 4.8 0.7 0.5 0.3 0.8 0.5 0.9 0.8 0.2 0.6-0.2 7.4-0.7 10.1-1.9 10.8-3.5 17.6-3.8 27.3-0.1 2.3 0 24.1 0.6 29 0.2 1.1 0.5 2.2 0.7 3.4 0.6 3.4 1.7 14.2 1.7 17.5 0 2.7-0.1 5.8-0.1 5.8z"/><path class="d" d="m185.2 158.9c0 0-11.4-7.7-19.1-13-5.9-4-12-8.2-14.1-12.8-2.3-5.1-2.5-23.5-2.7-28.8-0.3-11.5 0.4-30.7 4.2-44.5 1.1-4 3.1-10 3.1-10 0 0 6.5 6.9 9.3 9.2 3.1 2.7 5.7 3.3 10 4.4 1.8 0.5 3.9 0.9 5.2 0.9 2.3-0.1 2.9-0.3 4.8 0.7 0.5 0.3 0.8 0.5 0.9 0.8 0.2 0.6-0.2 7.4-0.7 10.1-1.9 10.8-3.5 17.6-3.8 27.3-0.1 2.3 0 24.1 0.6 29 0.2 1.1 0.5 2.2 0.7 3.4 0.6 3.4 1.7 14.2 1.7 17.5 0 2.7-0.1 5.8-0.1 5.8z"/><path class="c" d="m219.8 23.7c18.4 3.7 59.3 12.2 73.7 14.7 31.6 5.6 62.6 8.9 95 9.8 32.9 0.9 56.9 0.4 86.8-2.2 15.7-1.4 37.5-3.7 47-5.1 9.3-1.4 18-2.9 27.7-4.5 3.8-0.6 55.9-13.8 56.9-14.4 4-2.4 3.9-2.7 9.4-5.1 8-3.5 25.1-9.2 34.5-10.5 8.3-1.1 14.3-0.5 21.5 1.9 10.7 3.7 15.4 5.8 15.3 15.2-0.1 11.7-6.8 19.7-18.1 24.2-1.5 0.6-2.9 1.1-4.7 1.4-5.5 1-7.3 0.2-8.2 3.8-0.6 2.7-0.1 6.4 0.4 9.3 1.1 6.6 3.6 15.4 4.2 20.3 0.6 4.3 0.4 5.7-2.7 7.7-1.7 1.2-41.4 19.3-45.2 20.6-39.4 14-84.2 24.3-124.2 29.5-9.2 1.1-38.1 3.8-45.3 4.1-6.6 0.3-36.8 0-43.7-0.4-18.8-1.1-37.7-3.3-56.1-6.1-6.7-1-37.8-7.2-42.2-8.5-7.2-2-14.8-4.5-21.1-5.9-1.5-0.4-3.2-0.7-4.8-1-4.2-0.9-16.5-4.7-21.2-6.5-10.5-4.1-27.6-11.3-32.1-12.6-3.2-1.1-18.4-7.9-19.1-8.2-3.3-1.8-6.7-3.6-10.9-5.8-0.7-0.3-2.4-1.6-2.6-2-0.2-0.5 0-3.4 0.4-5.7 0.8-5.7 2.4-17 2.9-17.9 0.9-1.4 1-2.4-0.5-3.9-0.4-0.4-3.6-1.8-4.4-1.8-6.6-0.4-7.4 0.8-11.2-0.7-3.8-1.5-14.8-9.1-15.9-14.4-0.9-4.7 6.8-13.7 10.2-15.9 4.9-3.1 23.1-7.9 28.5-7.2 1.5 0.1 3.7 0.2 5.5 0.5 1.2 0.3 10.7 2.5 14.3 3.3z"/><path class="d" d="m219.8 23.7c18.4 3.7 59.3 12.2 73.7 14.7 31.6 5.6 62.6 8.9 95 9.8 32.9 0.9 56.9 0.4 86.8-2.2 15.7-1.4 37.5-3.7 47-5.1 9.3-1.4 18-2.9 27.7-4.5 3.8-0.6 55.9-13.8 56.9-14.4 4-2.4 3.9-2.7 9.4-5.1 8-3.5 25.1-9.2 34.5-10.5 8.3-1.1 14.3-0.5 21.5 1.9 10.7 3.7 15.4 5.8 15.3 15.2-0.1 11.7-6.8 19.7-18.1 24.2-1.5 0.6-2.9 1.1-4.7 1.4-5.5 1-7.3 0.2-8.2 3.8-0.6 2.7-0.1 6.4 0.4 9.3 1.1 6.6 3.6 15.4 4.2 20.3 0.6 4.3 0.4 5.7-2.7 7.7-1.7 1.2-41.4 19.3-45.2 20.6-39.4 14-84.2 24.3-124.2 29.5-9.2 1.1-38.1 3.8-45.3 4.1-6.6 0.3-36.8 0-43.7-0.4-18.8-1.1-37.7-3.3-56.1-6.1-6.7-1-37.8-7.2-42.2-8.5-7.2-2-14.8-4.5-21.1-5.9-1.5-0.4-3.2-0.7-4.8-1-4.2-0.9-16.5-4.7-21.2-6.5-10.5-4.1-27.6-11.3-32.1-12.6-3.2-1.1-18.4-7.9-19.1-8.2-3.3-1.8-6.7-3.6-10.9-5.8-0.7-0.3-2.4-1.6-2.6-2-0.2-0.5 0-3.4 0.4-5.7 0.8-5.7 2.4-17 2.9-17.9 0.9-1.4 1-2.4-0.5-3.9-0.4-0.4-3.6-1.8-4.4-1.8-6.6-0.4-7.4 0.8-11.2-0.7-3.8-1.5-14.8-9.1-15.9-14.4-0.9-4.7 6.8-13.7 10.2-15.9 4.9-3.1 23.1-7.9 28.5-7.2 1.5 0.1 3.7 0.2 5.5 0.5 1.2 0.3 10.7 2.5 14.3 3.3z"/><path class="c" d="m666.7 152c0 0-0.3-2.4-0.6-4.5-0.1-1.7 2.1-9.9 2.8-13.8 4.6-24.4 0.9-42.9-2.8-63.1-1.1-6-3.3-13.3-3.3-13.3 0 0 15.3-7.5 17.2-8.8 2.7-2 7.4-7.2 8.8-10 0.9-2 4.5-14.8 4.5-14.8 0 0 2.1 1.9 3.6 3.5 3.4 3.8 4.7 9.5 5.8 14.2 0.8 3.5 3.1 20.9 3.4 26 0.5 7.7 0.9 34.3 1.2 51.4 0 0.8 0 1-0.4 1.6-5.4 9.1-23.2 23.6-31.9 27.8-3.2 1.6-8.3 3.8-8.3 3.8z"/><path class="d" d="m666.7 152c0 0-0.3-2.4-0.6-4.5-0.1-1.7 2.1-9.9 2.8-13.8 4.6-24.4 0.9-42.9-2.8-63.1-1.1-6-3.3-13.3-3.3-13.3 0 0 15.3-7.5 17.2-8.8 2.7-2 7.4-7.2 8.8-10 0.9-2 4.5-14.8 4.5-14.8 0 0 2.1 1.9 3.6 3.5 3.4 3.8 4.7 9.5 5.8 14.2 0.8 3.5 3.1 20.9 3.4 26 0.5 7.7 0.9 34.3 1.2 51.4 0 0.8 0 1-0.4 1.6-5.4 9.1-23.2 23.6-31.9 27.8-3.2 1.6-8.3 3.8-8.3 3.8z"/><path class="c" d="m673.1 155.6c9-6.2 26-17.5 27-18.6 1.3-1.3 2.3-2.8 3.7-4 0.9-0.9 2-1.7 2.8-2.6 1.7-1.7 5.4-7.3 6.2-9.3 0.4-1.1 0.6-3 0.8-4.8 0.3-7.3 0.3-59.8 0.3-59.8 0 0 26.5-7.9 34.5-10.8 4.9-1.8 10.6-4.2 14.7-6.4 11.3-5.9 34.3-18.6 37.2-19.8 11.5-4.6 24.1-5 33.3 5.5 5.9 6.9 4.5 13.4-0.3 22.2-2 3.6-4.1 7.4-6.3 10.9-3.8 6.1-12.4 17.1-16.7 23.8-2.6 3.9-15.8 29.8-20.3 37.4-9 15.2-26.2 25.5-43.8 32.9-11.1 4.7-28.4 9.6-40.4 10.4-6.9 0.5-21.4-0.1-29.1-2.6-1.7-0.6-5.8-1.6-4.5-3.7 0.1-0.2 0.2-0.3 0.9-0.7z"/><path class="d" d="m673.1 155.6c9-6.2 26-17.5 27-18.6 1.3-1.3 2.3-2.8 3.7-4 0.9-0.9 2-1.7 2.8-2.6 1.7-1.7 5.4-7.3 6.2-9.3 0.4-1.1 0.6-3 0.8-4.8 0.3-7.3 0.3-59.8 0.3-59.8 0 0 26.5-7.9 34.5-10.8 4.9-1.8 10.6-4.2 14.7-6.4 11.3-5.9 34.3-18.6 37.2-19.8 11.5-4.6 24.1-5 33.3 5.5 5.9 6.9 4.5 13.4-0.3 22.2-2 3.6-4.1 7.4-6.3 10.9-3.8 6.1-12.4 17.1-16.7 23.8-2.6 3.9-15.8 29.8-20.3 37.4-9 15.2-26.2 25.5-43.8 32.9-11.1 4.7-28.4 9.6-40.4 10.4-6.9 0.5-21.4-0.1-29.1-2.6-1.7-0.6-5.8-1.6-4.5-3.7 0.1-0.2 0.2-0.3 0.9-0.7z"/><path class="c" d="m222.9 315.8l-26.5 13.7c0 0 1.8 9.9-3.6 14.4-5.3 4.5-32.5 25.4-27.1 46.3 5.3 20.9 28 28.3 27.1 52.8-0.9 24.5-26.9 40-28 69.9-1.8 46.3 48.9 83.6 47.1 93.5-1.8 9.9-20.7 37.1-7.2 43.6 13.4 6.5 174.8 14.6 174.8 14.6l29-61.8-39-0.9c0 0-29.9 20.2-53.4 13.7-23.5-6.5-36.1-11-46.1-37.3-10.2-26.3-6.3-32.8-6.3-32.8l-31.9-3.5c0 0-15.2-14.5-9.8-49.1 5.3-34.6 49.7-42.7 49.7-42.7z"/><path class="d" d="m222.9 315.8l-26.5 13.7c0 0 1.8 9.9-3.6 14.4-5.3 4.5-32.5 25.4-27.1 46.3 5.3 20.9 28 28.3 27.1 52.8-0.9 24.5-26.9 40-28 69.9-1.8 46.3 48.9 83.6 47.1 93.5-1.8 9.9-20.7 37.1-7.2 43.6 13.4 6.5 174.8 14.6 174.8 14.6l29-61.8-39-0.9c0 0-29.9 20.2-53.4 13.7-23.5-6.5-36.1-11-46.1-37.3-10.2-26.3-6.3-32.8-6.3-32.8l-31.9-3.5c0 0-15.2-14.5-9.8-49.1 5.3-34.6 49.7-42.7 49.7-42.7z"/><path class="e" d="m425.8 207.6h-301.9c0 0-0.5 495.2 0.5 528.7 1 33.5 23.1 84.3 58.7 111.5 35.6 27.3 75.6 42.9 132.2 66.6 56.7 23.6 122.9 46.3 122.8 46.1-0.1-0.1 66-22.5 122.7-46.1 56.7-23.7 96.7-39.3 132.3-66.6 35.6-27.2 54.9-78 55.9-111.5 0.9-33.5 1-528.7 1-528.7zm-424-148.8c10.9 16.9 31.1 48 32.6 50.9 13 26.1 16.3 58.3 14.7 88.2-0.2 4.7-4.2 35.9-5.1 40.1-2.3 11.5-20.5 83.9-20.8 86.8-1.8 16.2-1.5 25.9 1.5 43.2 3.9 21.7 6.6 34.9 16.3 51.7 2 3.4 8.9 13.3 11.2 16 3.9 4.5 26.4 26.9 28.7 29.7 0.6 0.8 1.2 1.6 1.7 2.5 0.6 1.2 1.1 2.6 1.9 3.7 0.7 0.8 1.5 1.4 2.2 2.2 1.3 1.6 3.6 7.2 3.9 8.2 4.7 13 4.3 34.3-8.1 40.7-6.4 3.3-13.9 2.6-19.8-1.4-1.6-1.1-3.1-2.3-4.4-3.7-7.9-8.4-9.6-16.7-19.2-17.2-2.1-0.1-6.7 0.8-7.5 2.9-1.1 2.9 5.2 1.5 7.6 2.2 2.2 0.6 3.9 3.3 4.3 5.1 1.1 5.9-0.5 8-1.2 16-0.9 10 2 24 8.9 31.7 5.5 6 13.6 10.3 22.4 8.9 3.3-0.5 8.8-3.2 11.6-5.1 1.6-1 6.6-5.8 8.7-8.1 2.1-2.4 14.8-20.4 16.1-22.9 9.1-16.9 7.8-28.5-1.6-46.9-2.9-5.5-9.4-15.4-13.7-23.3-1.2-2.1-10.7-27.1-11.1-29.1-4.8-24.7 1.7-46.5 8.5-74.8 2.2-8.6 9.6-35 10.6-37.4 1.1-2.3 2.2-4.7 3.3-7.2 6-13.9 7.8-23.8 8.6-39 0.8-15.4 0.4-24.8-2.7-39.4-1-4.8-6.9-25.7-8.8-31.2-3.3-9.6-10.3-27.1-14.4-37.5-0.9-2.1-1.8-4.6-2.5-7.6-0.3-1.7-0.7-3.7-0.7-3.7 0 0 7.8 3 13.4 5.7 5.2 2.5 9.9 5.6 14.4 8 14.6 7.6 30.6 9.9 47.8 9.1 6.2-0.3 11-1.4 16.8-3.8 8.6-3.6 11.3-5.5 12.2-10.5 0.3-2.2-4.1-42.2-2-57.4 0.3-1.6 1.6-9.7 1.6-9.7 0 0 3.2 0.9 6.1 1.8 2.7 0.7 31.4 13.9 45.3 20 22.3 9.7 54.6 17.7 77.3 22.4 33.6 6.8 60.1 10.1 96.8 10.8 42.8 0.9 93.7-5 135.6-15.8 10.9-2.8 55-15.6 66.1-19.7 5.3-2 29.4-13.1 44-19.6 0.7-0.4 0.8-0.4 1-0.3 0.7 0.4 0.9 2.1 1 2.6 1.2 7 0.8 27.7-0.1 36.5-0.8 9.4-3.4 25.8-3.4 25.8 0 0 7.6 3.9 11.8 5.6 10.2 4.2 27.1 3.7 36.9 2.2 26.3-3.7 32.8-8.2 61.9-22.6 0.7-0.4 0.8-0.4 1-0.4 0.2 0 0.4 0.1 0.5 0.2 0.8 0.9 0.8 1.8 0.7 2.4-0.1 1.3-12.2 30-13.3 33.7-1.3 4.5-2.8 15.5-3.3 21-1.4 14-1.9 47.7-1.7 58 0.2 9.2 0.8 12.3 3.6 22.7 3 11.6 13.4 46.5 15.5 52.4 7.9 21.9 11.5 30.1 13.2 50.5 1.9 23.2 0.3 33.1-4.1 56-0.1 0.7-0.2 0.9-0.6 1.5-5.7 8.7-15.4 23-17.1 26.2-6.2 12-10 28.1-5.9 40.6 3.7 11 14.5 24.5 22.7 34.1 5.1 5.9 11.5 12.6 18.7 12.9 12.6 0.7 27.3-7 35.5-14.8 5.2-4.9 18.5-20.7 22.3-27.7 4.4-8.2 12-24.9 12.8-25.7 0.5-0.6 5.7-4.3 4.9-6.5-0.7-2.1-4.3-2.4-6-2.3-4.1 0.1-11.6 3.1-14.5 5-2.4 1.5-18.3 15.9-20.4 17.3-7.4 4.6-22.6 8.7-31.1 8.9-10 0.2-15.9-2-20.1-10.7-2.1-4.5-2.7-7.2-2.9-12.3-0.6-11.8 1.4-21.6 6-31 0.7-1.5 32.2-41.8 35.4-45.4 9.8-10.8 18.8-22.9 25.9-37.3 7.5-15.2 9.4-20 9.3-34.8 0-13.4-3.4-32.3-7.1-43.9-6.9-21.3-31.3-89.4-34.5-121.2-1.1-11.2-1.5-24.4 1-33.4 0.9-3.2 36-88.2 37-91.9 2-6.4 4.8-18.8 2.9-25-2.2-7.1-12.7-14.8-20-15.9-13.5-2.2-26.2 0.5-37.8 5.6-4.8 2.2-18.4 9.9-27.7 14.6-19.2 9.5-29.5 11.2-53.5 14.4-3.3 0.4-4.1 0.6-5.5-1.7-1.8-2.9-4.4-9.1-6.9-13.8-4.8-9.3-8.8-14.4-17.2-18.7-7.5-3.8-19.8-7.7-27.6-8.6-2.1-0.2-13.5 0.2-16.2 0.7-3 0.5-72.5 21.1-80.6 23-21.5 5.2-74 12.5-88.9 14.2-8.2 0.9-54.8 4.1-62.6 4.3-19.3 0.5-30.9-0.3-54.2-2.8-10.5-1.2-66.2-9.1-75.3-10.7-17.3-3.2-51.3-10.4-76.8-15.5-12.5-2.5-17.9-2.8-29.8 0.3-12.7 3.4-20.1 11.5-26.6 24.8-0.5 0.9-0.9 1.7-1.3 2.9-1 2.9-2.5 8-2.5 8 0 0-3.1 0.2-5.9 0.3-1.5 0-28.8-6.1-32-7.1-7.7-2.6-18.9-5.5-24.7-7.7-7.7-2.8-37.4-16.1-39.7-16.7-4.5-1.1-13.4-2.9-18.5-1.4-7.8 2.2-14.2 7.2-18 13.4-3.6 5.8-7.3 15.6-6.3 23.5q0.3 1.8 0.9 3.6c0.2 0.8 0.3 0.9 0.7 1.6zm852.7 447.7c0 0-1.5 4.1-2.8 7.4-0.8 2-7.1 12.6-8.5 14.3-9.4 11.5-14.2 15.9-28.1 21.5-14.9 6.1-24 1-34.6-13.2-2.9-4-12.2-18.5-14-23.3-2.6-6.8-2.9-19-1-26.9 1.3-5.3 7-19.5 11-24.3 0.6-0.7 1.2-1.4 1.2-1.4 0 0 0.8 0.5 1.3 1.1 0.2 0.4 0.4 3.4 0.2 4.2-3.3 12.7-4.4 27.5 1.4 39.3 0.9 1.8 3.6 5.9 5.3 7.8 1.4 1.7 8.4 7.8 9.9 8.6 8 4.7 14.2 4.9 23 2 2.5-0.8 35.7-17.1 35.7-17.1zm-804.3 40.2c0 0 1.9-0.6 3.6-1 2.2-0.5 10-0.5 12.1-1 2.9-0.6 14.2-6.5 15.9-7.6 13.8-8.9 18.9-31.6 16.4-50.8-0.2-1.3-0.4-2.4-0.9-4.1-1.1-3.1-9.1-19.5-9.1-19.5 0 0 0.6-0.1 1 0 0.4 0 1.4 0.7 1.9 1.3 0.9 1.1 2.1 2.3 3.2 3.6 5.7 6.4 13 19.7 15.3 27.3 1.5 5.5 2.6 15.2 1.8 20.7-0.3 1.7-1 4.1-1.8 6.2-1.4 3.3-8.5 16.6-10.7 20-9.9 15.2-19.4 24.4-35.8 17.9-3.9-1.6-9.3-5.2-11.1-8.7-0.8-1.6-1.8-4.3-1.8-4.3zm60-285.1c-0.2 7.9-1.6 27.2-3.6 34-4.8 17.1-13.8 42.9-16.8 52.1-7.6 23.9-7.5 28.1-9.7 45.9-0.4 2.8-1.1 26.7-1 28 0.8 7.8 8.4 29.8 7.1 30.4-0.3 0.2-3-1.9-4.3-3.2-16.3-15.8-25.3-28.8-35.2-49.7-11.7-24.9-13-36.1-13.7-63.7-0.4-15.7-0.1-24 4.2-38 1.4-4.6 10.6-26.2 13.1-33.6 9.7-28.6 9.7-65.8 6.8-94.9-2.4-23.9-4.8-27.7-13.1-53-0.5-1.5-0.8-3.8-0.7-4.1 0.5-0.5 1.8 0.2 3 0.9 1.4 0.9 16.6 15.2 18.5 17.4 14.2 17.1 23.4 44.7 32.1 67.7 6.9 18.4 13.6 52.9 13.3 63.8zm-25.9 28.4c-1.5-0.3-3.1-0.3-4.8-0.3-2.8 0-5.5 0.3-8.1 1-1.4 0.8-2.5 1.7-3.4 2.7q-1.3 1.5-2 2.4l-1.2 1.9 6.5 4.7c1.2-2.5 2.7-4.8 4.5-6.8 1.9-0.8 3.9-1.2 5.9-1.2h0.7l0.8 0.1v6.3l1.8 0.5 1.5 0.5 3.4 0.9v-10.4c-2-1-3.9-1.8-5.6-2.3zm-15.9-23.2c-0.4 0.2-0.7 0.5-0.8 0.9q-0.2 0.5-0.2 1.6l-0.1 10.4c0 0.5-0.2 0.7-0.5 0.7-0.2 0.1-0.4 0.1-0.6 0.1h-1.8c-1.8 0-3.2 0.2-4.3 0.4-1 0.3-1.7 0.8-2.3 1.2l6.1 4.9q0.3-0.6 0.8-1.1 0.6-0.4 1.2-0.4l4.8 0.1h1.4q0.8 0 1.3-0.3c0.3-0.1 0.5-0.3 0.5-0.8q0.2-0.5 0.2-1.5v-0.6-8.4c0-0.6 0.1-0.9 0.4-1 0.2-0.1 0.7-0.2 1.5-0.4 1.6 0.2 2.7 0.4 3.4 0.7q1.1 0.4 2.2 2.6c0.9 1.4 1.4 3.3 1.6 5.4l2.6 1.2 1.1 0.6 4.1 2.1c-0.5-3.5-1.6-6.6-3.1-9.3-1.6-2.8-3.5-4.7-5.7-5.9q-3.4-1.8-6-2.6-2.6-0.8-5.3-0.8-1.4 0-2.5 0.2zm-4.5-23.3l1.4 2.4 0.6 0.9 1.3 2.3q1.1-0.3 2.4-0.3 2.5 0 4.9 1.1 2.5 1 4.7 2.7l0.3-1.5c-2.6-3.1-4.9-5.2-6.9-6.4q-3-1.7-5.7-1.7c-1 0-2 0.2-3 0.5zm18.6-29l-4.4 0.1q-3.9 0.1-6.6 0.1c-1.2 0.4-2.2 1-3 2-0.8 0.9-1.1 2-1.1 3.3l-0.1 10.9-1.9 0.3c-0.6 0.1-1.1 0.1-1.5 0.1 1.4 1.7 2.9 3.1 4.5 4.3q2.3 1.8 5.7 3.7v-16.8q0.1-1.1 0.6-1.7 0.5-0.6 1.6-0.7l1.4-0.1 6-0.2 1.1-0.1 6.5-0.2c-1.3-1.9-2.8-3.5-4.7-4.8zm3.8 15.9h-3.9-6.4c1.7 1.9 3.6 3.7 5.5 5.3h9.8c-1.5-2-3.1-3.8-5-5.3zm-8.5 75.5q-0.5 0-1.2-0.1h-1.2q-1.6 0-3.1 0.3c-0.9 0.2-1.9 0.5-2.7 1-1 0.9-2.1 1.8-3 2.8-0.9 0.9-1.7 1.9-2.6 3.1 2.2 1.9 4.5 3.6 6.8 4.8 0.7-1.1 1.5-2.2 2.3-3.1 0.8-1 1.6-1.9 2.6-2.7 0.7-0.4 1.6-0.7 2.7-0.7l3.9-0.1h1.1 7.9c-2-2.3-4.2-4-6.6-5.2zm713.2 129.5l0.5-47.8c0-0.8 0-0.9-0.2-1.7-1.8-8.4-4.8-21.7-5.7-25-6.3-22.4-8.2-27.3-11.7-39.1-3.4-11.3-8.4-36.4-10.2-47-0.8-5.1-3.8-37-3.9-42-0.5-16.9 0.2-29 3.6-44 3.3-14 4.8-19 9.2-29.2 2.8-6.4 10.6-22 12.6-25.3 2.4-4 10.6-14.4 17.8-24.7 3.4-4.9 31.2-51 31.2-51 0 0-18.8 73.4-19.7 75.3-2.3 5.2-3.3 10.7-4.6 20.8-0.5 3.4-0.7 6.9-0.5 9.9 0.2 4.5 12.2 62.1 15.7 71.3 1.4 3.4 6.3 18.7 6.5 19.5 2.1 6.9 0.7 1.8 2 6.5 0.4 1.2 4.3 18.4 6.5 28 3.3 13.3 4.3 53.3 0.9 66.3-2.3 8.5-13.2 30.7-17.7 37.7-2.1 3.4-32.3 41.5-32.3 41.5zm-0.6-186.5h8.6l2.9-0.1q1.9 0 2.9-0.1 2.2-0.4 3.7-2c1-1.1 1.5-2.3 1.5-3.7l0.1-6.6c0.6-0.3 1.2-0.6 1.6-0.6 0.5-0.1 1.3-0.2 2.3-0.2q-2.7-2.5-5.5-4.1c-1.9-1.1-3.8-2-5.9-2.7v9.5 0.6c0 1.2-0.5 2.3-1.6 3-1.1 0.9-2.4 1.4-4 1.4h-6.3l-1 0.1h-6.4c1.9 2.4 4.3 4.3 7.1 5.5zm10.3 12.8c-2.2-2.3-4.4-4.2-6.7-5.7l-19.4 0.4c2.1 2 4.5 3.7 6.9 5.1h7.5zm7.1 17.9c1.2-0.2 1.9-0.6 2-1.2 0.2-0.6 0.2-1 0.3-1.4 0-0.4 0-0.8 0-1.2l0.1-15.9q1.8-0.6 3.7-0.9c-3.6-2.9-7.4-5.1-11.3-6.7v19.6c-0.1 0.8-0.7 1.2-1.9 1.3-2.3 0-4.1-0.5-5.6-1.4q-1-1-1.6-2.5c-0.3-1-0.7-2.1-0.9-3.4l-3.5-1.1-1.1-0.2-3.6-1.2c0.6 2.4 1.5 4.6 2.8 6.6 1.2 2.1 2.7 3.7 4.6 5 2.1 1.5 4.3 2.7 6.4 3.5q3.4 1.2 7 1.2c0.8 0 1.7 0 2.6-0.1zm-6.5 17.1c0.6 0.2 1.3 0.3 1.9 0.3 1.6 0 3.2-0.8 4.9-2.5 1.7-1.7 3.5-3.8 5.5-6.4l-3.1-2.1-0.9-0.7-3-2q-1.5 2.5-2.6 3.9-1 1.3-1.8 2.1c-0.4 0.6-1.2 0.8-2.1 0.8-0.7 0-1.3-0.1-2.1-0.3-0.9-0.2-1.7-0.6-2.8-1.2-1-0.5-2.1-1.1-3.2-1.8l-0.2 1c1.2 2.1 2.5 3.9 4.1 5.3 1.5 1.5 3.2 2.7 5.4 3.6zm-2.7 14.4c0.4 0 0.9 0.1 1.3 0.1h1.4c1.2 0 2.3-0.1 3.4-0.3 1.1-0.2 2-0.6 2.9-1.1q1.9-1.3 3.3-2.8 1.5-1.4 2.9-3.3-3.6-3-7.4-5c-0.8 1.2-1.6 2.3-2.6 3.3-0.8 1-1.8 1.9-2.9 2.8-0.7 0.4-1.7 0.6-2.9 0.7l-4.3 0.1h-1.3-8.7q3.3 3.6 7.3 5.4zm-7.8-84.4c1.4-1.2 2.6-2.2 3.4-3 0.9-0.9 1.9-2 3-3.2 1.3 1 2.7 1.9 4.3 2.9q2.3 1.4 4.9 1.4c1 0 2-0.2 3.2-0.7q1.7-0.7 3.3-2.4l-1.2-0.8c-2.1-1.4-4-2.7-5.7-4q-0.5 1-1.6 1.5c-0.8 0.4-1.7 0.5-2.5 0.5q-1.6 0-2.5-0.7l3.8-3.7 0.9-0.9q2.1-2.4 4.4-5.2c1.5-1.8 2.9-3.5 4-5-1.2-0.9-2.4-1.8-3.4-2.4-1-0.7-2.1-1.3-3.3-1.9-1.3 2-2.7 4-4.3 6-1.8-1.3-3.5-2.3-5.3-3-1.9-0.8-3.7-1.1-5.7-1.1h-0.6c-0.3 0-0.6 0-0.8 0l-3.8-1.8v9.1l7.4 2.6v-4.9c0.6-0.3 1.3-0.4 2.1-0.4q2.9 0 5 1.9l-3.6 4.1-2.1 2.1c-1.4 1.6-3.1 3.2-4.8 4.8-1.8 1.7-3.6 3.2-5.5 4.7l3.8 2.1zm-118.7-69.9c9-6.2 26.1-17.6 27.2-18.7 1.2-1.4 2.3-2.9 3.7-4.1 0.8-0.9 1.9-1.7 2.9-2.7 1.6-1.7 5.4-7.3 6.1-9.3 0.4-1.1 0.7-3 0.8-4.8 0.3-7.4 0.4-60.4 0.4-60.4 0 0 26.7-8 34.7-10.9 5-1.8 10.7-4.3 14.9-6.5 11.3-5.8 34.4-18.7 37.5-19.9 11.5-4.6 24.2-5 33.4 5.6 6.1 6.9 4.6 13.4-0.2 22.3-2 3.7-4.1 7.5-6.4 11.1-3.9 6.1-12.5 17.2-16.8 23.9-2.6 4-16 30.2-20.4 37.8-9.2 15.3-26.5 25.8-44.2 33.2-11.2 4.7-28.6 9.6-40.8 10.4-6.9 0.5-21.4-0.1-29.2-2.6-1.8-0.5-5.9-1.5-4.6-3.7 0.2-0.2 0.3-0.3 1-0.7zm78.2-73.2l-1.4-4.1q-1.4-3.6-2.2-6.1c-0.7-1.1-1.6-1.9-2.7-2.3-1.1-0.5-2.3-0.5-3.5-0.1l-10 3.3-0.9-1.7c-0.2-0.6-0.4-1-0.5-1.4-1.1 1.9-2 3.7-2.6 5.6-0.6 1.8-1.1 4-1.7 6.5l15.5-5.2c0.8-0.1 1.4-0.1 1.8 0.1 0.5 0.2 0.8 0.6 1.2 1.3l0.5 1.3 2 5.6 0.4 0.9 2.3 6.2c1.3-1.8 2.3-3.8 3-5.9zm21.8-20c-0.9-0.8-2.1-1.4-3.4-1.7-1.4-0.2-2.7-0.2-3.9 0.2-0.8 0.3-1.5 0.6-2 1.1-0.5 0.6-1 1.2-1.2 2-0.4 1-0.7 1.9-0.8 2.7-0.1 0.9-0.3 2-0.4 3.6-0.5-1.4-1.3-2.8-2.4-4.1-1.1-1.3-2.5-2.6-4.1-3.9l-3.2 8.8c1.4 0.5 2.7 1.2 3.7 2q1.6 1.3 2.1 2.9c0.1 0.4 0.2 0.8 0.2 1.2l0.2 2.5 0.1 8.9v1.1c1-1.2 1.8-2.4 2.6-3.7q1-1.9 1.7-3.8-0.1-2.8 0-5.4c0.1-1.8 0.3-3.4 0.6-5 0-0.9 0.4-1.7 1-2.4 0.6-0.7 1.3-1.2 2.2-1.5q1.7-0.5 3.5 0.4c1.1 0.7 2.2 1.6 2.9 2.8 0.9 1.3 1.6 2.7 2.1 4.4l-8.5 2.9-0.4 3.1-0.1 0.7-0.4 3.5 13.6-4.5c0.8-3.4 0.6-6.8-0.5-10.4-1.1-3.1-2.8-6-5.2-8.4zm28.7-16l-1.5 3.5-0.2 0.6-1.4 3.4q2.8 3.3 3.9 6.6l0.3 0.8q0.2 0.6 0.3 1.1c-0.1 1.2-0.7 2.3-1.7 3.5-1 1.1-2.1 2-3.4 2.7l-2.1 1.2-0.5 0.1c-0.4 0.2-0.8 0.2-1 0.1q-0.6 0-0.9-0.7l-1.2-1.8c1.3-2.1 2.3-4 2.9-5.8q1-2.6 0-5.2-0.5-1.8-1.3-3.4c-0.5-1-1.2-2.1-1.9-3.2l-3.2 6.8q0.7 0.9 1.4 1.8c0.5 0.7 0.8 1.3 1 2.1 0.2 0.6 0.3 1.2 0.3 1.7 0 0.6-0.3 1.2-0.6 1.7l-0.6 1-2.3-3.4-3-4.2c-1.2-1.7-2.5-3.2-3.7-4.2l-3.1 7.3q2.2 1.3 4.5 4.1l4.4 5.3 2 2.7 2.1 3.2c1 1.1 2.1 1.5 3.5 1l0.7-0.1c0.2-0.1 0.5-0.2 0.7-0.2 1.9-0.7 3.7-1.7 5.3-3.1q2.4-2.1 4.2-4.9 1.8-3.3 1.9-6.7c0.1-2.3-0.2-4.7-1.1-7.1-1-3-2.5-5.8-4.7-8.3zm-64 44.5l-1.2-3.7-2-6c-1.2 2.2-2.3 4.4-3.1 6.7l3 9.3c1.4-2.1 2.5-4.2 3.3-6.3zm-550.3 68.7c0 0-11.9-7.9-19.9-13.3-6.1-4.1-12.4-8.4-14.6-13.1-2.5-5.3-2.6-24.1-2.8-29.5-0.4-11.8 0.4-31.6 4.3-45.6 1.1-4.2 3.2-10.3 3.2-10.3 0 0 6.8 7.1 9.6 9.5 3.4 2.7 6 3.3 10.6 4.4 1.7 0.5 4 1 5.3 0.9 2.4-0.1 3-0.3 5 0.8 0.6 0.3 0.8 0.5 0.9 0.9 0.3 0.5-0.2 7.5-0.7 10.2-2 11.1-3.6 18.1-4 28.1-0.1 2.2 0 24.7 0.7 29.6 0.2 1.2 0.4 2.4 0.7 3.5 0.7 3.6 1.8 14.6 1.8 18 0 2.8-0.1 5.9-0.1 5.9zm33.2-137c18.5 3.8 59.3 12.4 73.8 14.9 31.6 5.7 62.7 8.9 95.1 9.9 32.9 0.9 57 0.4 86.8-2.3 15.8-1.4 37.6-3.7 47.1-5.1 9.3-1.3 18-3 27.7-4.5 3.9-0.6 56.1-13.9 57.1-14.6 4-2.4 3.9-2.6 9.4-5.1 8-3.5 25.1-9.3 34.5-10.6 8.3-1.1 14.3-0.6 21.6 2 10.6 3.6 15.4 5.8 15.3 15.3-0.2 11.8-6.9 19.9-18.2 24.4-1.5 0.6-2.9 1.1-4.7 1.4-5.4 1-7.3 0.2-8.2 3.9-0.6 2.7-0.1 6.4 0.4 9.3 1.2 6.7 3.6 15.6 4.3 20.5 0.5 4.3 0.3 5.7-2.8 7.8-1.7 1.2-41.4 19.4-45.2 20.8-39.5 14.2-84.4 24.6-124.3 29.7-9.3 1.2-38.3 3.9-45.5 4.2-6.5 0.3-36.8 0-43.7-0.4-18.8-1.1-37.7-3.3-56.1-6.1-6.8-1-37.9-7.4-42.3-8.6-7.2-2.1-14.8-4.6-21.1-6-1.6-0.4-3.2-0.7-4.8-1-4.2-1-16.6-4.8-21.2-6.6-10.5-4.1-27.7-11.4-32.2-12.7-3.2-1-18.4-8-19.1-8.3l-10.9-5.8c-0.7-0.4-2.4-1.6-2.6-2-0.2-0.6-0.1-3.5 0.4-5.8 0.8-5.8 2.4-17.1 2.9-18 0.8-1.5 0.9-2.5-0.6-4-0.3-0.5-3.6-1.8-4.3-1.8-6.6-0.4-7.5 0.8-11.3-0.7-3.8-1.6-14.8-9.2-15.8-14.6-1-4.7 6.7-13.7 10.1-16 4.9-3.2 23.1-8 28.6-7.3 1.5 0.2 3.6 0.3 5.4 0.6 1.3 0.2 10.8 2.5 14.4 3.2zm-73 39.8c0 0-0.8 14.1-1.4 24.3-0.8 15-1.2 32.2 1.6 45.6 0.9 4.4 4.1 7.5 9.3 12 4.4 3.8 16.2 11.9 19.2 14.6 2.9 2.6 6 5.7 6 5.7 0 0-11.5 4-15.7 5-16 3.7-41.9-4.1-55-9.7-3.7-1.6-19.3-9.8-21-11.1-1.2-1-2.4-1.9-3.5-2.8-2.1-1.4-4.1-2.6-6.2-4-1-0.7-23.2-28-26-31.9-3.6-5.1-7.1-9.7-11.1-14.4-7.1-8.1-27.1-28.8-29.6-32.1-3.3-4.2-3.9-5.7-4.6-11.5-1.3-11.8 4.2-20.2 15.6-25.3 8.9-4 18.3-0.3 28.4 5.1 5.7 3.1 11 6.8 16.6 9.7 10.3 5.3 37.7 14 50.4 16.4 9.7 1.9 27 4.4 27 4.4zm-73.4 30.3q0.9-0.5 1.4-1.1 1.5-1.4 1.6-4.6c0-2.2-0.2-4.7-0.6-7.6l-3.4 0.6-0.9 0.2-3.2 0.6c0.3 1.7 0.7 3.1 0.8 4q0.2 1.7 0.2 2.6c0.1 0.6-0.2 1.2-0.8 1.9-0.5 0.4-0.9 0.8-1.6 1.1-0.6 0.3-1.5 0.7-2.4 1-1 0.4-2.1 0.6-3.3 0.9l0.5 0.7q3.2 0.9 6 0.9 2.8 0 5.7-1.2zm11.3 25.1l2.2-2.3 3-3.4q1.6-1.8 2.5-3.5c0.7-1.8 1-3.7 0.6-5.5q-0.5-2.6-2.4-4.5c-0.3-0.3-0.5-0.4-0.6-0.6l-4.5-4.3c0.3-0.3 0.6-0.7 1-1.2l1.2-1.6-9.4 1.3c-0.4 1.1-0.9 2.2-1.6 3.1-0.6 1-1.5 2.2-2.8 3.8l-3.2 3.6-1 1-0.6 0.6-3 3.3c2.3 0.1 4.7-0.1 7.1-0.8l0.6-0.5 3.8-3.8q1.9-2 3.4-3.7c0.2 0.2 0.8 0.7 1.7 1.4 0.9 0.7 1.5 1.3 1.9 1.7q1.3 1.3 1.9 2.6 0.4 1.4-0.1 3.1c-0.4 1.1-0.9 2.2-1.7 3.2l-3 3.5-0.6 0.8-1 1.1-2.6 3c2.5-0.1 4.9-0.6 7.2-1.4zm15.3 15.1l5.4-5.4 1.8-1.9c0.8-0.8 1.4-1.5 1.7-1.9 0.8-1.1 1.2-2.3 1.2-3.7-0.1-1.3-0.5-2.4-1.4-3.3l-4.2-4.2c0.1-0.6 0.4-1.1 0.7-1.4 0.2-0.4 0.6-0.9 1.3-1.6q-3.3 0.2-6.1 0.8c-1.9 0.6-3.8 1.2-5.5 2.1l6 6.1c1.2 1.1 1.5 2.1 1.4 3.2q-0.3 2-1.7 3.4l-4.1 4.1-0.6 0.7-4 4.2c2.8 0.2 5.5-0.1 8.1-1.2zm7.5 9.2l2.7-2.8 4.5-4.4c-2.5-0.1-4.9 0-7.3 0.4l-6.9 6.8q3.5 0.5 7 0zm13.2 7.9l3-3.2q2.7-2.8 4.5-4.7c0.6-1.1 0.9-2.2 0.9-3.4-0.1-1.2-0.5-2.2-1.4-3l-7.2-7.3 1.1-1.5c0.4-0.4 0.7-0.8 1.1-1.1-2.2-0.1-4.2 0-6.1 0.3-1.9 0.3-4 0.8-6.4 1.5l11.2 11.2q0.5 0.8 0.6 1.5c0 0.5-0.2 1.1-0.6 1.6l-1 1.1-4.1 4.3-0.7 0.8-4.4 4.7c2.1 0.4 4.3 0.4 6.5 0zm-14-78q0.9-0.5 1.5-1.1c1-1 1.4-2.5 1.5-4.7 0-2.1-0.2-4.7-0.6-7.5l-3.4 0.5-0.9 0.3-3.2 0.6c0.4 1.6 0.7 3 0.8 4 0.2 1.1 0.2 1.9 0.3 2.5 0 0.7-0.2 1.3-0.9 1.9-0.4 0.5-1 0.8-1.6 1.2-0.6 0.3-1.4 0.7-2.4 1-1 0.3-2.1 0.6-3.3 0.9l0.6 0.7q3.1 0.9 5.9 0.8c1.9 0 3.8-0.4 5.7-1.1zm18.2 10.1q0.1-1.5-0.3-2.7c-0.3-0.8-0.8-1.6-1.6-2.5l-3.9-3.9q0.4-0.9 0.8-1.4 0.4-0.5 1.3-1.5-3 0.2-5.9 1c-2 0.6-3.9 1.2-5.5 2l7.1 7.2c0.7 0.7 0.9 1.6 0.7 2.6-0.2 0.9-0.7 2-1.4 3.1-0.9 0.8-1.7 1.6-2.5 2-0.7 0.4-1.3 0.4-2-0.2l-0.9-0.9-0.6-0.5-5-5-7 2.5 2.1 2 0.7 0.8 7.8 7.8c2.8-0.6 5.2-1.4 7.3-2.2 2.1-0.9 3.9-2 5.4-3.5 0.8-0.9 1.6-1.9 2.2-3q0.9-1.8 1.2-3.7zm-66.6 6.5l-2.6-2.6 5.5-5.3c1.6-1.6 2.8-3.2 3.5-4.7 0.6-1.5 0.2-3-1.2-4.5l-4.7-4.7c0.7-1.1 1.5-2.1 2.3-2.9-4.2 0.4-8 1.5-11.4 3.3l6.7 6.8c0.8 0.7 1 1.2 1 1.9 0 0.7-0.4 1.4-1 2.2l-4 4.6-7-7.1-7 2.5 13.1 13.1 2.2-0.9 1.2-0.5zm607.4 63.8c0 0-0.3-2.4-0.5-4.5-0.1-1.7 2.1-10.1 2.9-14.1 4.7-24.8 0.9-43.7-3-64.2-1.1-6.1-3.4-13.6-3.4-13.6 0 0 15.8-7.6 17.8-8.9 2.8-2.1 7.8-7.4 9.2-10.2 1-2 4.6-15.1 4.6-15.1 0 0 2.2 1.9 3.7 3.6 3.6 3.9 4.9 9.6 6 14.5 0.8 3.5 3.3 21.2 3.6 26.4 0.6 7.8 0.9 35 1.2 52.4 0.1 0.8 0 0.9-0.4 1.6-5.6 9.3-24 24-33.1 28.3-3.2 1.6-8.6 3.8-8.6 3.8zm-239 62.6h317.3c0 0-0.1 484.7-1.1 517.5-0.9 32.8-19.8 82.5-54.7 109.2-34.9 26.7-73.9 42-129.4 65-55.5 23.2-120.2 45.2-120.2 45.3 0.1 0.1-64.6-22.1-120.1-45.3-55.4-23-94.6-38.3-129.4-65-34.9-26.7-56.5-76.4-57.5-109.2-0.9-32.8-0.5-517.5-0.5-517.5zm0.6 7h-284.2c0.9 1.1-0.4 476.2 0.5 507.7 0.9 31.6 21.7 79.3 55.2 105 33.6 25.7 71.2 40.4 124.5 62.6 53.4 22.3 115.6 43.6 115.5 43.5-0.1-0.1 62.2-21.2 115.5-43.5 53.4-22.2 91.1-36.9 124.5-62.6 33.5-25.7 51.7-73.4 52.7-105 0.8-31.5 0.9-507.7 0.9-507.7zm251.5 10.2h44.4c0 0-0.1 469.2-0.9 499.6-0.9 30.3-20 76.2-52.2 100.9-32.3 24.7-68.4 38.8-119.8 60.2-51.3 21.4-111.1 41.7-111 41.8 0.1 0.1-59.8-20.4-111.1-41.8-51.3-21.4-87.5-35.5-119.7-60.2-32.2-24.7-55.5-70.6-56.3-100.9-0.9-30.4 0.4-498.6-0.5-499.6h276.5 248.5c-0.4 0-0.8 0.1-1.1 0.2-0.9 0.3-9.8 8.4-12.6 10.3-3 2.1-5.9 2.7-9.3 2.5-3.6-0.2-15.5-2.1-18.6-3-6.3-1.7-13.2-4.8-18.6-6.2-11.2-3-26.7-3.3-35.9-2-3 0.4-33 8.5-49.5 12.9-0.8 0.2-1 0.2-1.5 0.2-0.4 0-0.8-0.2-1.1-0.3-3.2-1.1-12.6-6.3-18.2-8.6-1.6-0.7-21.6-4.3-24.3-4.5-8.2-0.4-19-0.2-26.5 1.7-4.4 1.2-34.1 12.2-35.3 12.2-2.7 0.1-7.9-0.1-9.5 0.2-2.4 0.5-5.5 1.4-5.5 1.4 0 0 2.1 1.9 4 3.5 11.5 9.9 41.1 18.2 54 19.4 15.6 1.5 31.3 0.3 45-5 6.1-2.4 12.7-5.7 19-8.7 0.8-0.3 0.9-0.3 1.7 0l23 8.2c0 0-12.3 0.2-20.5 0.9-15.6 1.1-36.1 7.1-48.8 14.9-3.9 2.4-9.9 7-14.8 10.7-0.6 0.4-0.8 0.5-1.5 0.3-6.8-1.8-16.3-4.5-20.5-5.1-4.4-0.7-12.6-1.2-18.9-1.7-0.8 0-0.9-0.1-1.5-0.6-19-14.9-20.9-17.8-38.9-24.6-6.3-2.3-13.6-4.5-20.7-6.1-0.8-0.2-0.9-0.2-1.7-0.3l-66.2-4c0 0 1 2.1 2 3.9 0.8 1.5 7.7 9.8 9.6 11.4 14.5 13.2 15.4 14.6 33.4 25.6 3.7 2.2 10.2 5.6 12.8 6.6 6.1 2.2 16.2 6.2 16.7 6.7 0.5 0.5 0.6 0.8 0.5 1.3 0 0.5-5.3 5.2-9.3 8.6-1.2 1-7.3 8.6-7.4 9.2-0.2 1.4 0.3 2.2 1.8 2.3 1.6 0 11.2-2.5 17-3.5 1.7-0.3 12.4-0.3 14.6 0 10 1.6 39.5 7.8 43.8 8.3 10.9 1.1 26.4 0.5 37.3-2.2 5.5-1.3 31-10 34.1-10.6 4.9-1 17-1.8 22.9-2.9 5.3-0.9 17.5-4.3 22.1-6.2 3.1-1.3 31.2-17.5 33.6-18.4 2.8-1 7-2 11.4-2.4 1-0.1 9.6-1.2 10.5-0.6 0.4 0.3 0.8 0.7 0.8 0.7 0 0-17.1 18.9-28.5 32.4-3.8 4.4-14.6 18.8-16.1 21.4-1.1 1.8-2 3.6 0.2 4.1 2.1 0.4 4.8-3.7 6.3-5.9 2-3.1 3.7-5.8 5.7-8.5 1.6-2.4 27.4-30.4 33.5-36.5 9.7-9.7 32.2-31.2 36.1-34.4 11.7-9.6 29.2-21.8 33.8-26 1.2-1 2.1-2.3 0.7-2.8-0.6-0.4-1.8-0.3-2.7-0.4 0 0-0.3 0-0.3 0zm43.9 414l-0.2-6c0-2.1-2.6-19.5-3.5-22.1-2.8-8.6-5.5-17.3-9.3-24.7-2.2-4.3-8.4-14.1-12.7-21-0.4-0.7-0.4-0.9-0.3-1.6 1.4-8.6 3.6-21 4-25.8 1.4-19.1-6.8-54.1-22.5-70.5-1.3-1.3-2.6-2.5-3.9-3.9-1.1-1.1-2.1-2.4-3-3.5-1.7-2-5.5-5.5-7.7-7.2-3.9-2.9-24.6-16-24.6-16 0 0 0.6-3.3 1.2-6.2 0.9-3.4 5.3-15.3 7.3-21.6 0.9-2.7 3.7-16.4 4.1-20.4 0.4-3.6 0.7-24.3 0.4-27.7-1.7-19.6-5.6-32-14-48.7-2-3.9-4.9-9.2-6.8-11.8-1-1.5-5.7-6.4-5.2-9.2 0-0.2 0-0.5 0.2-0.7 0.2-0.2 0.2-0.3 0.8-0.9 9.4-9.4 19.6-19.1 28.7-27.9 3.3-3.2 32-27.4 34.4-29 4.6-3 7.5-5.4 7.7-6 0.4-0.9-1.8-1.8-4-1.3-0.5 0-0.8 0.2-1.2 0.5-1.7 0.8-36.4 29-40 32.4-6.9 6.3-37.5 36.4-42.4 41.8l-7.9 8.6c-6.5 7.1-32 37-32.9 38.5-0.6 1.1-0.7 3.1 1.2 3.4 1.3 0.3 3-1.6 4.1-2.8 2.9-3.7 5.4-8.3 9.5-13.7 1.8-2.4 33.5-34.7 33.5-34.7 0 0-4.6 14.2-7.1 23.1-5.4 19-4.4 43.8 1.1 65.1 1.7 6.5 4 13 5.8 18.7 0.7 2.1 3.4 18.6 3.4 20.4-0.1 2.2-0.3 4.6-0.3 4.6l-34.1 2.2c0 0-6.9-11.2-11.2-18.1-1.6-2.5-10.5-13.6-12.3-15.3-5.1-4.8-13.3-11.8-13.3-11.8 0 0 1.2-1.3 1.9-2.1 1.6-1.3 3.6-2 5-1.8 6.7 0.8 8.4 4 11.1 2.1 2.2-1.6 1-2.5 1.4-7.1 0.2-2.2 2.1-4.6 4.8-5.9 1.6-0.8 4.3-2 4.7-2.6 1.1-1.1 2.7-3.8 2.7-3.8 0 0-4.4-3.4-7.6-5.4-5.3-3.1-8.6-4.3-8.8-4.8-0.6-1.1-1.6-9.1-2.2-10.2-0.4-1-0.9-1.3-1.7-1.1-1.7 0.6-10 5.5-10.9 5.5-0.7 0.2-5.2-1.3-7.4-1.9-0.8-0.2-2.5-0.1-3 0.1-0.3 0.3-1.9 3.2-2 3.8-0.1 2.1 0.6 3.6-0.1 4.8-0.6 0.8-9 7.3-9 7.3 0 0 0.6 1.5 1.4 2.6 0.5 0.7 11.4 6.8 11.9 7.5 0.5 0.6 3.4 7.7 3 9.6-0.2 1.2-0.6 1.5-1.6 1.4-1.4-0.2-14.9-6-22.5-8.8-2.1-0.8-15.1-3.4-18.1-3.7-3.8-0.3-23.3-0.2-26 0.2-18.6 2.5-38.4 11.1-53.8 24.2-2 1.8-11.2 10.2-13.4 13.5-0.4 0.7-0.8 1.3-1.2 1.9-1 1.6-2.4 2.9-3.7 4.5-5.5 6.5-11.6 21.8-14.2 29.4-6.5 19.4-5.9 37-0.4 58.2 8.5 32.6 28.2 58.4 58.8 71.7 14.9 6.5 35.5 10.4 52.2 7.9 7.9-1.2 21.9-4.2 21.9-4.2 0 0 6.5 10.2 9.6 14.2 6.6 8.6 26.9 22.7 37.4 27.9 2.8 1.4 11.2 5.1 14.2 5.5 0.9 0.1 1.6 0.1 2.9 0.5 0.5 0.2 1.1 0.5 1.1 0.5 0 0-3 1.1-5.5 1.9-5.1 1.8-8.1 2.4-11.5 3.4-15.8 4.7-39 17-50.3 26.3-1.9 1.5-6.3 5.2-6.1 6.9 0.2 2.3 7.1 4.7 10.1 5.5 4 1.2 10.1 2.2 13.8 2.6 2.5 0.3 21-0.3 24.2-0.7 9.9-1.4 19.9-3.8 30.1-8.5 5.4-2.5 12.6-6.2 12.6-6.2 0 0 12 31.8 14.4 36.9 6.4 14 24 38.8 38.6 48.9 2.1 1.4 3.6 1 4.7-1.8 0.8-1.7 1.4-4.7 1.9-5.4 0.6-0.9 1.7-1.8 1.7-1.8 0 0 0.2 5.1 0.4 8.9 0.3 4.9 1.1 10.8 4.5 9.5 5.7-2.2 19.4-19.4 21.5-22.2 3.9-5.1 6.4-8.9 8.6-15.7 1.2-3.8 7.7-32.7 7.7-32.7 0 0 2.2 0.2 3.1 0 0.9-0.1 1.3-1 1.9-2.1 1.4-2.3 5.4-11.5 6.1-14 1.6-5.5 2-22.4 2.1-30.3zm-329-161.6c0-55.1 44.5-99.7 99.4-99.7 54.9 0 99.4 44.6 99.4 99.7 0 55-44.5 99.6-99.4 99.6-54.9 0-99.4-44.6-99.4-99.6zm56.1 405.7c0 0 39.9-8.5 69.5-15.1 36.8-8.1 58.5-13.6 87.9-20.3 3.6-0.8 10.2-2.9 11.1-3.5 0.4-0.3 1.3-1.1 1.5-2.2 0.1-0.3 0.1-0.5-0.2-1.3-14.2-42.1-37.9-112.5-42.2-126.5q-3-9.9-5.8-19.7c-0.3-0.8-0.3-0.9-1.1-1.2-4.5-1.9-12.3-5-13.5-5.9-2.2-1.7-6.6-5.9-6.6-5.9 0 0-22.4 5.7-27.3 6.6-3.1 0.5-16.7 1-25 1.3-9.1 0.3-25.1 2-33.3 4.5-5 1.6-24.8 9.9-27 10.3-2.2 0.5-3.2 0.3-5.3-0.4-4.6-1.8-11.8-5.8-18.4-8.5-2.5-1-17.4-4.9-21.5-5.6-7-1.3-13.7-2.1-22.2-2.1-16.2-0.2-19.3 1.5-31.9-0.7-8.2-1.4-21.7-4.5-21.7-4.5 0 0-2.9 4.4-5.1 6.9-0.9 0.9-3.7 3.1-5 3.6-14.8 7.3-15 7.6-19.8 26.6-5 20.2-31.6 118.4-31.9 120.6-0.3 2.8 0.2 3 3.4 4.3 2.3 0.9 15.9 4.4 23.5 6 17.8 3.7 136.9 31.5 138.5 31.5 4.6 0 5-1.6 10-7.6 1-1.2 4.2-4 4.9-4.2 0.3-0.1 1.6 0.4 2.2 0.9 3.2 2.9 12.3 12.1 12.3 12.1zm-167.7-55.2l35.7-140.1c0 0 30.6 4.4 35.7 4.7 6.4 0.4 11.9 0.1 17.9 0.2 23.8 0.4 38.5 6.4 62.1 17.2 0.7 0.4 0.9 0.4 1.6 0 17.7-8.8 25.6-12.3 44.4-14.9 5.1-0.7 10.6-1 16.2-1.1 18.5-0.3 24.3 0.6 40.7-3.6 4.9-1.2 11.5-3 11.5-3l3 6.3c1.3 3.1 37.3 110.5 39.2 117.2 2.2 7.5 4.5 15.9 4.5 15.9 0 0-4.8 2.8-8.6 4.9-3.4 1.8-11.9 5.5-15 6.5-3.8 1.1-20.1 4.8-23.5 5.1-4 0.5-45 0.9-49.5 1.3-20.9 2.2-37 9.5-60.6 19.8-0.8 0.3-0.9 0.3-1.6-0.1-30.9-15.4-48.5-23.5-79.5-21.8-12.9 0.7-19.2 2.1-29.3 1.1-11.7-1.3-24.3-4.7-35-10.2-4.2-2.2-9.9-5.4-9.9-5.4zm169.8-17.8c0 0 20.1-6 28.5-8 6.5-1.6 15.6-3.1 21.9-3.4 4.6-0.2 32 1.2 35.9 0.9 3.5-0.3 15.5-1.5 19.3-3.1 2.3-1 5.1-2.7 5.1-2.7 0 0-2-0.7-3.9-1.2-9.4-2.5-70.3-0.8-72.5-0.6-9.4 1.4-21.9 6.2-30.2 14.1-1.8 1.7-4.1 4-4.1 4zm-128.2-18.3c-1.6 0.1-4.5-0.2-6.3 0-0.6 0.1-2.5 1.2-2.4 1.4 0 0.3 2 1.8 3.1 2.2 1.7 0.7 10.8 2.9 13.3 3.2 3.1 0.3 38.3-0.6 42.8-0.3 6.2 0.5 21 2.8 27.2 4.8 7.8 2.6 20.5 7.2 21.4 7.1 0.9 0 1.2-0.3 0.9-1-1.3-3-10.1-8.8-12.4-10.1-21.8-12.1-35.7-6.7-67.2-8.4-4.5-0.3-16.5 0.1-17.9 0.5-0.9 0.2-1.9 0.6-2.5 0.6zm131.6-5.9c3.6-0.5 20.3-5.7 30-8 3-0.7 14.6-2.1 17.5-2.1 10.9 0 21.1 1.6 30.7 1 3.1-0.2 15.2-1.7 18.3-3.8 1.4-0.9 1.5-1.4 0.6-1.7-0.6-0.3-1.5-0.5-2.4-0.7-2.7-0.5-56.6-2.1-67.1-0.3-8.6 1.5-17.1 5.8-24.4 12-1.4 1.3-3.6 3.7-3.2 3.6zm-127-16.6c-1.6 0.8-4.6 1.6-4.6 1.6 0 0 1 0.9 1.8 1.5 3.3 2.4 14.3 3.3 17.4 3.6 3.3 0.3 19.2 0.3 22.3-0.1 8-0.9 8.1-1.1 20.9 0.8 3.8 0.6 7.1 1.1 11.3 2.1 7.7 2 19.1 6.2 22 6.7 0.3 0 0.6 0.1 0.7 0 0.2-0.2 0.2-0.8 0-1.3-1.1-2.2-11.1-8.6-11.5-8.9-11.4-6.4-27.6-7.2-42.3-6.6-6.3 0.1-12.3 0.5-18.6 0.6-6 0.2-12.2 0.1-18.4-0.1-0.8 0-0.9 0-1 0.1zm128.2-2.1c0 0 1 0.1 2 0.3 0.9 0 10.3-2.9 14.6-4.6 15.7-6.2 41.6-4.3 55.2-4.1 7.5 0.1 10.2-0.7 16.4-2.9 0.5-0.2 0.9-0.4 1.3-1 0.3-0.5 0.7-1.2 0.7-1.2 0 0-2-1.2-3.4-1.5-0.7-0.2-2.3 0.1-3.3 0.1-1 0.1-2.8-0.5-4.5-0.9-2.8-0.7-47.6 0.4-49.8 0.7-7.3 0.8-21 5.6-27.6 13.1-0.8 0.9-1.6 2-1.6 2zm-113.6-15.6c-6 0.5-7.9-0.5-10.9 0.7-1 0.5-1.4 0.8-1.1 1.2 1.4 2.2 9.5 3.7 12.7 4.2 9.8 1.5 23.5 0.1 32.3 0 2.3 0 17.3 1.9 19.4 2.6 9.7 2.9 24.9 8 25.3 7.7 0.3-0.1 0.4-0.9 0.3-1.2-0.4-0.7-7.4-6.6-9.2-7.7-5.4-3.4-14.3-6.6-20.6-7.5-3.9-0.5-7.9-0.5-12.3-0.7-5.4-0.4-32.1-0.4-33.3 0-1 0.3-2 0.7-2.6 0.7zm113.7-1.5c0 0 1.1 0.2 2.1 0.2 1.1 0.1 12.9-3.3 19-5 4-1.2 16.4-2.5 20.5-2.6 5.2-0.1 15.7 1 21.8 0.8 4.6 0 15.2-0.5 19.6-3 1.1-0.7 2.4-1.6 2.4-1.6 0 0-1.6-0.7-3-1.2-1.1-0.3-3.8-0.5-5.5-0.4-4.1 0.3-26.5-0.6-39.5-0.6-7.9 0-21.8 1.1-29.2 6.7-0.9 0.6-1.7 1.4-2.5 2-0.5 0.4-1.2 0.6-1.9 1.2-1.6 1.2-3.8 3.5-3.8 3.5zm-119.5-11.4c0 0 2.1 1.1 3.7 1.7 4.3 1.9 13.2 2.5 17.3 2.6 5.4 0.1 16.6-1 21.9-0.9 7.2 0.2 18.5 2.2 26.5 4.5 6.2 1.8 14.9 4.7 14.9 4.7 0 0-2.2-2.6-3.9-4.4-7.2-7.3-20.2-9.9-29.6-10.9-3-0.3-37.4-0.2-38.2 0.2-0.5 0.1-0.8 0.3-1.2 0.5-1.5 0.3-4.7 0.4-6.7 0.5-1 0.1-1.8 0.1-3 0.7-0.8 0.3-1.7 0.8-1.7 0.8zm117-6.7c0 0 20.4-4.6 29.4-6.2 8-1.4 21.4-2.1 30.9-0.5 1 0.2 1.8 0.4 2.9 0.4 2.8 0.2 14.7-1.9 16.8-2.7 0.7-0.3 2.3-1.7 2.3-1.8-0.2-0.3-0.4-0.5-0.6-0.6-0.3-0.3-0.5-0.3-1.2-0.4-16.7-1-46.6-3.3-60.5 0.6-5 1.4-12.6 4.3-16.7 8-1.6 1.4-3.3 3.2-3.3 3.2zm-99.4-13.8c-3.3 0.1-12.7 1.2-12.7 2.4-0.1 1.8 9.4 3.6 11.2 3.8 3.1 0.4 27.7-0.3 32.3 0 5.3 0.4 16.4 2.3 21.4 4 4.4 1.4 10.4 3.6 12.4 3.9 1.1 0.2 2.2 0.1 2-0.7-0.4-1.5-6.3-5.7-6.7-6-8.1-5.2-18.2-7-27.9-7.5-6.1-0.3-24 0-32 0.1zm99.1-3.7c0 0.7 0.8 0.6 1.5 0.3 6-1.6 12.6-3.9 18.7-5.4 2.9-0.8 15.6-2.5 18.5-2.6 10.1-0.2 27.9 0.6 31 0.4 0.5-0.1 8.7-1.5 11-3.4 0.7-0.5 0.3-1.1-0.3-1.4-0.7-0.4-7.4-1.2-10.5-1.4-8.6-0.2-37.7-0.9-46.9 0.9-7 1.2-17.1 5.3-21.9 11.2-0.5 0.5-0.9 1-1.1 1.4zm-103.4-13.7c-0.6 0-1.5 0.4-2.4 0.5-2.1 0.3-3.5-0.5-4.2 1.1-0.3 0.7 1.6 1.5 3.4 2.2 11.1 4.5 20.8 1 37.3 1.6 7 0.3 15.7 1.9 23.4 4.3 3.3 1 14.5 5.4 16 4.3 1.3-0.9-2.8-4.1-5.9-6.2-12.6-8.5-25.2-8.8-44.5-8.6-7.9 0.1-17.2 0.5-23.1 0.8zm141.6 113.8c-1.2 0.1-3-0.1-4.6 0-1.4 0-11.1 2.5-13.1 3.3-7.5 3.1-11.4 5.3-17.4 10-1.5 1.2-3.1 2.9-3.3 3.5-0.4 1 0.5 1.1 1.7 0.8 3.1-0.6 14.9-4.9 22.6-7.1 8.4-2.4 20.1-3.7 28.8-3.9 7.8-0.2 31.4 1 36.6 0.8 3.1-0.2 18.7-1.4 24.3-4.1 1.1-0.5 2-1.2 1.1-1.7-1.4-0.9-6.3-1.2-7.5-1.2-11.6-0.7-63-1.6-66-1-1.2 0.3-2.4 0.5-3.2 0.6zm-116.7-1l-65.9 0.2c-0.8 0-1 0.1-1.3 0.3-1.2 0.4-1.3 1-1.1 1.3 0.2 0.4 2.5 1.5 4.3 2.2 2.7 1 4.7 1.6 6.9 2.2 2.5 0.5 19.3 2.3 22.5 2.2 8.9-0.1 19.8-1.3 25.9-1.2 10.6 0 25.8 2.1 35.9 5.3 6.6 2 15.8 5.6 19.3 6.3 1.1 0.3 1.8 0.3 1.4-0.9-0.7-1.9-9.8-8.3-11.6-9.4-5.2-3.2-14.3-6.5-20-7.4-3.5-0.6-9.7-0.8-14.6-1.1-0.8 0-0.9 0-1.7 0zm-161.7-498.2l49.9 127.4c0 0-7.7 3.1-12.3 5.2-12.8 5.6-25.5 18.9-30.4 32.6-5.2 14.4-4.3 29 1.1 41.6 2.7 6.7 9.4 18.8 16.1 22.8 0.7 0.4 1.3 0.6 2.1 0.7 1.5 0.3 20.4-1.8 21.1-1.5 2.4 1 1.8 5.4 1.9 9.6 0.1 5.1 3 15.6 4.9 19.7 5.2 12.1 15.7 23 25.3 30.2 14.7 11 30.9 18.3 50.1 20 9.4 0.8 31.5-0.4 40.1-6.9 3.1-2.2 6.3-6.8 7.3-10.5 0.7-2.4 1.7-11.4 1.7-11.4 0 0 11.9 0.1 13.1 0.5 0.6 0.2 1 0.3 1 1.1-0.1 0.2-0.1 0.3-0.6 0.9-9.7 14.6-27.6 41.6-29.4 43.7-1.6 1.9-3.4 3.7-5.1 5.4-0.5 0.6-0.7 0.6-1.4 0.6-34.3-2.1-87.9-5.2-102.8-6.5-18.7-1.6-37.1-3.6-55.6-5.5-0.8-0.1-0.9-0.1-1.4 0.1-1.1 0.4-1.8 1.4-1.5 2 0.3 0.9 2 1.4 2.9 1.7 2.6 0.6 6 0.9 9.2 1.3 13.8 1.6 115.1 9.6 132.8 11.5 4.7 0.4 18.5 0.9 19.9 0.6 2.1-0.5 3.3-1.3 5.3-3.3 7.6-7.6 29.2-38.7 33.3-46 2.5-4.3 3.8-9.6-0.8-11.7-3.8-1.7-12.9-1.3-19.3-1.3-0.8 0-1-0.1-1.5-0.6-14.3-14.8-18.2-19.6-36.1-27.2-7-3-12.4-3.4-20.5-1.5-5.1 1.4-8.2 3.1-12.5 6.3-7.2 5.3-11.9 11.7-9.9 20.9 0.5 2.6 2.1 5.6 3.9 8.6 2 3 5 7.4 5 7.4l-7.3-5.8c-0.6-0.4-0.7-0.5-1.3-0.5q-0.5 0-1 0.1c-0.6 0.2-4.5 5-5.3 5.5-0.8 0.5-2.1 0.3-2.5-0.6-0.2-0.3-0.2-0.8-0.1-1.2 0.4-2 3.2-8.4 3.3-9.7 0.2-2.6-1.1-3.9-4.1-5.5l-3.6-2-6.6 11.3c0 0-4.3-3.4-7.1-5.9-10.2-9.2-14.6-21.4-15.7-35.1-0.1-1.6-0.1-2.8 0-5 0.2-2 0.6-4.7 0.6-4.7 0 0 1.7-0.6 3.2-1.1 2.4-0.8 8.8-2.1 12.1-2.4 14.1-1.5 45.7-5.8 68.6-8.7 0.7-0.1 0.9-0.2 1.4-0.8l23-27.5c0.5-0.6 0.6-0.7 0.9-1.4 1.2-2.1 0.8-3.7-1.6-4.2-0.5-0.1-0.7-0.1-1.5 0l-95.2 13.1c-0.8 0-1 0.1-1.8 0.2-3.4 0.3-9.5 0.8-10.2 0.6-0.8-0.2-4.2-3.7-7.1-5.8-2.1-1.6-7.2-4.4-9.3-4.2-3.1 0.4-8.5 5.3-11.8 7.5-2.7 1.7-10.1 7.8-10.4 8.6-1 1.7-2.2 5.6-2.2 5.6 0 0-0.9-0.5-1.6-1.2-1.9-1.6-3.5-8.2-3.9-10-0.4-1.8-1-17.2-0.7-19.1 1.6-11 7.7-23.3 15.5-30.9 3.3-3 18.5-14.4 26.4-14.1 1.3 0 2.4 0.6 2.4 2 0.1 0.8-0.6 1.5-1.7 2.2-1.5 0.9-4.2 1.7-5.3 2.6-2 1.5-2.5 3.9-2 6.3 1.1 5.1 4.1 11.3 7.5 11.8 0.7 0.1 7.1-1.6 9.5-2.6 6.1-2.3 14.9-5.8 14.9-5.8 0 0 2.9 5.2 5.4 10.7 2.4 5.2 4.4 10.6 4.4 10.6l26.3-10.1c0 0-5.7-18.1-5.6-18.9 0.1-0.8 1.1-1.7 2.7-3 9-6.9 20.3-10.1 20.6-13.6 0.1-0.8-3.1-12-5.4-14.7-0.7-0.8-1.4-1.1-2.3-1.1-1.2 0.1-13.2 4.4-13.2 4.4l-62.3-150.5c0 0-4 1.5-5.9 2-3.9 1.2-7.1-3.4-10.2-7.4-0.9-1.3-1.6-2.3-2.5-3.4-0.6-0.8-4.2-3.6-4.8-3.7-0.5-0.1-4.7 1.1-5.4 1.5-0.7 0.5-1.4 1-2.1 1.4-7.2 4.3-11.8 3.5-13.7 8.6-0.3 1-0.7 8.5-0.5 10.3 0.3 3 0.4 7.6 0.1 8.1-0.3 0.6-1.6 1.8-2.4 2.3-0.9 0.6-2 1.1-2.3 1.7-0.2 0.3-0.1 2.4 0.2 3.1 1.6 4.6 2.7 5.1-0.4 7.4-4.1 2.8-12.7 7.2-13.5 10.7-0.4 1.3-0.1 4-0.3 5.8-0.2 1.4-0.6 2.1-1.6 3.3-1.8 2.2-11 10-16.1 15.1-1.8 1.7-9.1 11.5-10.4 13.9-1.1 1.9-5.1 12.4-5.4 13.9-0.7 5.3-0.8 10.8 1.3 15.5 0.8 2 2 4 3 5.4 1.2 1.5 14.6 12.3 16.1 14.2 3.9 4.5 6.9 13.7 7.8 20.3 0.3 2.1 0.2 12.4 0 14.6-1.2 7.7-3.6 14.4-8.6 20.2-3.3 3.9-8.7 8.7-11.1 11.6-8.4 10.6-11.8 26.6-9.4 39.5 2 11.2 9.1 26.1 14.7 35.6 1.6 2.5 5.8 8.1 6.9 9.2 1.1 0.9 2.2 1.7 3.1 2.7 0.7 0.9 1.3 1.8 2 2.8 1.9 2.6 10.3 10.8 11.5 12.7 0.5 0.7 0.8 1.3 1.3 1.9 0.8 1.1 1.7 2.1 2.5 3.1 3.6 4.6 5.7 11.7 5.7 16.5 0 4.2-0.4 7.4-1.9 10.5-1.5 3.1-5.3 8.3-7.1 11.8-3.2 6.6-2.9 13.5 2.2 19.4 3.9 4.6 8.7 5.2 14.5 6.1 5.6 0.9 45.5 4.6 58.6 5.5 41.6 2.7 105.1 7.1 105.1 7.1 0 0 9.1-11.4 11.8-15.5 3.1-4.7 5.8-9.7 7-11.1 1.1-1 3.5-3.5 2.5-5.4-0.5-1.1-2.1-0.7-2.9-0.2-0.7 0.5-3 3.2-4.5 5.3-5.7 8.4-15.4 22.7-15.4 22.7 0 0-133-8-142.3-9-3.5-0.3-21.9-1.6-26.8-4.3-3.6-2-6.5-5.7-7.4-9.2-0.3-0.9-0.3-4.4 0-5.7 0.4-1.8 9.3-22.3 9.8-24.4 1.7-7.7-1-14.3-5.7-21.1-2.5-3.6-24-28.8-26.3-32.1-6.7-9.8-12.5-23-14.4-33.8-0.4-2.5-0.9-13.1-0.7-15 0.7-4.9 3.3-11.4 6.5-16.3 1.9-2.9 9.8-11.7 14.2-17.6 8.5-11.4 11.1-23.4 9.1-37.9-1.3-9.2-7.5-20.9-14.4-27.6-3.5-3.5-9.6-8.7-10.4-9.9-2.9-4.5-4.2-13-3.7-17.7 1-7.5 7-16.2 11.7-22.7 1.7-2.3 11.7-13 13-13.9 3-2.1 6.6-3.8 7.4-6.9 0.9-4.3-0.3-5.5 1.3-7.4 0.6-0.7 2-1.6 3.7-2.6 3.8-2.2 10-5.4 10-5.4zm8.4 260.7c-0.2 2.2 0.7 3.7 1.6 5.2 0.5 0.7 3.5 3.4 3.7 3.3 0.4-0.1 2.9-5.3 3.7-6.1 1.1-1 3.7-2.5 5.2-2.5 1-0.1 3.6 0.9 5.2 1.1 1.4 0.2 1.5-0.6 1.7-2.4 0.4-4.1-4.2-9.6-7.9-10-2.4-0.3-7 1.7-9 3.5-1.6 1.5-4 5.1-4.2 7.9zm101.8-35.4l-44.3 5.7-2.3 0.9 0.2 2.4 7.4-0.4 66.3-8c0.8-0.1 0.9-0.1 1.7-0.3 5.1-0.8 9.2-6.6 12.6-10.6 6-6.6 15.1-16.9 16-18.5 0.7-1.2 1.1-3.4-0.9-3.9-0.3 0-0.4 0-0.9 0.6l-26.2 28.1-27.9 3.8zm-123.2-151.6c-0.2 0.9 0.7 1.7 1.3 1.9 3.5 1.6 6.6 1.6 8.8-1.5 1.3-1.8 2.2-5.3 0.5-5.5-0.4-0.1-3.9 2.4-5.7 3.1-0.8 0.3-4.3 0.7-4.9 2zm469.5 18.3c1.8 26.5 10.3 50.9 23.5 72.7 1.4 2.3 2.8 4.5 4.4 6.4 1.3 1.5 1.8 1.5 2.7 0.2 3-4.7 8.2-26.6 8.8-32.1 0.8-7.3 1.1-26.8 0.6-32.7-0.3-2.7-4-19.4-5.2-22.7-4.2-12.8-9.7-24.8-17.7-33.8-1.7-1.8-10-9.1-10.7-9.3-1-0.2-1.5 0.6-2 2-2 5.2-3.9 31.2-4.1 34.8-0.3 5.2-0.5 10.9-0.3 14.5zm-478.1-29.9c-0.1 2.6 1.3 7.4 3.8 8.5 3 1.4 3.1-3.4 5.3-6 1.5-1.8 4.8-2.6 7.4-1.8 1.2 0.4 2.4 1.3 3 1.3 0.3 0 1.5-1.1 1.6-1.6 0.8-2.5-2-8.1-4.9-9.6-3.3-1.7-6.8-1-10.3 0.8-1.5 0.7-2.1 1.1-3.1 2.1-2.2 2.3-2.6 3.8-2.8 6.3zm478.6-77.9c-0.1 1.1-0.1 2.1 0.1 3.2 0.6 7.1 7.1 27.2 10.1 34.5 5.4 13.4 12 23 22.3 30.1 1.8 1.3 13.2 6.9 13.8 6.9 0.8-0.2 1.2-0.7 1.5-2 0.4-1-0.2-19.2-0.6-22-3.3-22.1-7.4-36.5-18.2-58-5.1-10.3-14.8-25.3-23.3-32.7-2.3-1.9-5.1-4.2-5.1-4.2l-1.1 38.6 0.4 3.9c0.1 0.8 0.1 1 0.1 1.7zm-426.1-16.6c0.7 1.1-0.5 2.1-0.7 2.3-3.6 2.1-21.3 10.1-22.8 8.9-1.2-1-1.7-13-0.9-15.6 0.7-2.2 4.5-4.4 9.9-6.2 4.2-1.3 5.6-0.6 9 3.2 1.9 2 4.3 5.5 5.5 7.4zm88.8 150.1l-67.1 27.5-2.9 0.6v-1.5l67.3-27.6c0.7-0.3 0.9-0.4 1.7-0.4 2.1-0.2 2.2-0.1 1.9 0.7-0.1 0.3-0.1 0.4-0.9 0.7zm-67.4 36.6c0 0-0.4-0.6-0.4-0.9 0.6-0.6 0.6-0.7 1.4-1l66.2-27.2 1.9-0.1c0 0 0 0.5 0 0.7 0 1.9-3.6 3.4-6.5 4.9-5.4 2.8-14.5 6.9-14.5 6.9l-2-1.4zm45.6 7.2l-6.1-14.5c-0.3-0.7-0.3-0.9-0.4-1.5-0.2-1.3-0.1-1.4 1.1-1.9 1.1-0.4 3.1-1.2 3.1-1.2 0 0 6.8 17.3 6.8 18.2 0 0.3-1.8 3-3.4 2.2q-0.3-0.1-0.5-0.3c-0.2-0.2-0.2-0.3-0.6-1zm7.4-3c-0.5-0.8-0.8-1.6-1.1-2.6-1.5-4.2-3.9-12.9-3.9-12.9 0 0 0.4 0 0.7 0 0.7 0 1.5 0.5 1.9 1.1 0.2 0.2 0.2 0.4 0.5 1.1l4.4 12.8v1.2h-1.4c-0.6 0.1-0.8 0-1.1-0.7zm-12 5.1c0.6 1.6-0.1 2.2-1.3 2.8-3.5 1.7-4.3 2.5-5 1.1-1.2-2.1-5.6-14.2-6-16-0.2-1.2 0-2.6 0.7-3.4 0.5-0.5 3.2-1.9 3.6-1.9 1.4 0.1 5.7 11.4 8 17.4zm-72.4 53.9l16.6-14c0.6-0.6 0.7-0.7 0.9-1.1 0.5-0.8 0.7-1.9 0-2.1-0.1-0.1-0.3 0-0.4 0-0.2 0-0.3 0.1-0.9 0.5l-17.6 12.7c0 0-0.2-2.1-0.2-3.6-0.1-2.2 0.3-4.7 1.5-6 0.4-0.5 0.6-0.6 1.2-1l16.9-12c0.6-0.5 0.7-0.5 1.3-0.6 2.1-0.4 6.2 2.1 7.3 3.7 1.1 1.5 2.6 4.9 2.6 4.9l-13.4 11.4c-3.3 3-12.2 9.4-13.1 9.6-0.5 0.2-0.9 0.2-1.7-0.8-0.4-0.6-1-1.6-1-1.6zm102.8-2l-77.8 9.7c-0.8 0.1-1 0.1-1.7 0.1-4.5 0.4-13.7 1.7-15.7 0-0.9-0.8-2.1-2.2-2.1-2.2 0 0 12.4-10.8 19.1-16.2 3.5-2.9 4.8-3.6 7.9-4.7 1.7-0.6 48.4-6.1 67.2-8.9 6.7-1.1 35.5-3.9 35.7-3.6 0.1 3.1-14.9 19.9-15.9 20.8-3.4 2.8-6.8 3-15 4.7-0.7 0.2-0.9 0.2-1.7 0.3zm50.5 68.3c0.4 1.2-0.5 3.7-0.8 4.3-3.8 8.7-11.4 9.4-22.5 8.7-3.9-0.2-6.4-0.7-9.7-1.9-2.3-0.9-16-8-18.3-9.7-7.1-5-12.4-11.3-13.7-20.1-1.4-9.3 2.6-14.7 11.4-16.2 15-2.7 34.5 9.2 45.8 21 4.1 4.4 5.7 7.9 7.8 13.9zm-69.6-169.3c0.2 0.8 0 1.3-0.5 1.6-0.8 0.4-2.7 1.2-2.7 1.2l-58.8-138.7c-0.2-0.7-0.3-0.8-0.5-1.1-1.1-1.2-2.7-0.8-3.7 0.1-0.3 0.3-0.3 0.4 0 1.1 15.6 38.1 45.4 111.3 46.9 114.2 0.6 1.1 1.2 2.2 1.9 3.6 2.7 5.5 9.3 21.9 9.3 21.9l-38.2 16-57.7-143.5c-0.3-0.7-0.3-0.9-0.5-1.7-0.3-1.9-0.1-2.2 1.9-3 10.7-4.1 42.9-17.6 42.9-17.6l59.3 144.6c0.3 0.7 0.3 0.8 0.4 1.3zm-85.7-122.4c0.9 3.5 4.8 13.8 8.1 21.9 14.6 35.8 33.5 82.9 39.9 97.5 1.8 4.1 3.9 8.5 7.7 7.4 2.5-0.7 2.8-2.9 2.4-5-0.2-1.5-48-119-49.3-121.1-1.3-2.4-2.6-4.2-4.8-4.6-0.3-0.1-2 0.6-2.4 1.1-0.6 0.6-1.7 2.5-1.6 2.8zm-4.8 0.8l-2.6-2.3c0 0 1.3 6 2.7 11.2 1 4.1 11.2 33.9 13.2 38.8 7 16.7 25.6 64.2 31.1 79.1 1 2.8 3.8 8.5 4.2 8.8 0.6 0.4 1.6 0.6 2.6-0.2 0.4-0.5 0.4-0.6 0.1-1.3-22.9-58.4-29.3-75.3-50.3-132.7-0.3-0.7-0.4-0.9-1-1.4zm93.7 296.4c1 0.8 2.6 2 3.7 2.5 1.5 0.8 2.5 1.1 3.4-0.3 0.7-1 0-2.4-0.9-3.7-3-4.4-9.3-9-9.8-12.3-0.2-1.8-0.2-5.1-0.2-5.1 0 0 4.2 7.6 6.5 10.6 2.3 3.3 7.5 7.5 10.8 9.5 4.5 2.6 22 10.5 23.2 11.4 0.7 0.6 1.4 1.3 1.4 1.3 0 0-9.1 0.1-14.7-0.4-3.2-0.3-17.3-2.8-18.6-4.2-0.4-0.6-1.4-4.2-2.2-5.5-0.7-1.2-2.1-2.8-3-3.8zm-0.5-0.2l-0.6-0.6 0.5 0.3zm0.5 0.3l-0.6-0.5-0.2-0.7c0 0 0.7 0.3 0.9 0.7 0.1 0.2 0 0.5 0 0.5zm-81.3-21.3c-0.8 0.5-7.1 2.7-7.5 4.7-0.3 1.5 3.2 2.2 4.3 2 2.5-0.6 4.9-3.3 5.3-5.5 0.2-0.6 0-1.5-0.8-1.7-0.3-0.1-0.5 0-0.7 0.2zm330.8-321.9c0 0 11.9-0.6 20-1.4 18.9-2 26.4-6.7 46.5-15.1 1.3-0.6 4.7-1.3 6.1-1.4 3.1-0.1 7.8 0.4 7.8 0.4 0 0-2.3 2.5-4.4 4.7-3.6 3.6-12.5 10.5-14.8 13l-1.5 1.6c-0.8 0.9-4.5 3.3-5.3 3.6-4 1.3-23.1 0.8-27.9 0.2-4.7-0.7-26.5-5.6-26.5-5.6zm107.9-36.5h-2.1c0.6-0.1 1.3 0 2.1 0zm-105.4 142.9c0 0-1 1.3-2 2.4-1.2 1.2-4.4 3-5.1 3.8-0.4 0.5-0.6 1.5-0.9 3.6-0.2 1.6-0.6 4.1-0.6 4.1 0 0-2.4-0.6-4.1-1.1-3.6-1.2-3.9-2.5-6.7-1.6-1.7 0.6-4.5 2.1-4.5 2.1 0 0-2.1-7.8-2.6-8.7-0.3-0.6-5-3.1-7.5-4.9-1.9-1.4-1.8-2.3 0.3-4.3 1.9-1.8 2.5-1.5 2.9-3.3 0.9-3.3 0.4-5.4 1.8-5.8 0.7-0.3 5.6 0.5 7 0.4 1.2-0.2 4.8-2.1 7-2.6 2-0.6 3 1 3.2 3.9 0.3 2.5-0.1 3 1.3 4.5 1.3 1.3 10.5 7.5 10.5 7.5zm110 256.9c-4.9 13.7-12.4 33.8-15.8 47.9-1.1 4.6-2.4 10.6-2.4 10.6 0 0-3.3-10.4-6.3-18.3-0.8-2.4-13.2-25.5-14.9-28-2.5-3.5-6.2-8.6-5.5-10.4 0.9-2.5 14.1-8.2 16-9.6 0.8-0.5 1.5-1.1 2.2-1.7 1.3-1 2.8-1.7 4.2-2.7 1.9-1.2 13.9-13.3 18.3-16.9 1.7-1.5 2.1-1.6 2.5-0.1 1.7 5.1 2 20.8 2 27.6 0 0.7 0 0.9-0.3 1.6zm-86.1-179c7-2.1 2.9-7.8 10.7-7.8 47.6 0 86.2 41.5 86.2 92.6 0 51.2-38.6 92.7-86.2 92.7-34.6 0-52.8-17.2-66.6-48.7 36.7-14.7 62.6-50.6 62.6-92.6 0-12.8-2.3-25.1-6.7-36.2z"/><path class="b" d="m425.8 207.6h-301.9c0 0-0.5 495.2 0.5 528.7 1 33.5 23.1 84.3 58.7 111.5 35.6 27.3 75.6 42.9 132.2 66.6 56.7 23.6 122.9 46.3 122.8 46.1-0.1-0.1 66-22.5 122.7-46.1 56.7-23.7 96.7-39.3 132.3-66.6 35.6-27.2 54.9-78 55.9-111.5 0.9-33.5 1-528.7 1-528.7zm-424-148.8c10.9 16.9 31.1 48 32.6 50.9 13 26.1 16.3 58.3 14.7 88.2-0.2 4.7-4.2 35.9-5.1 40.1-2.3 11.5-20.5 83.9-20.8 86.8-1.8 16.2-1.5 25.9 1.5 43.2 3.9 21.7 6.6 34.9 16.3 51.7 2 3.4 8.9 13.3 11.2 16 3.9 4.5 26.4 26.9 28.7 29.7 0.6 0.8 1.2 1.6 1.7 2.5 0.6 1.2 1.1 2.6 1.9 3.7 0.7 0.8 1.5 1.4 2.2 2.2 1.3 1.6 3.6 7.2 3.9 8.2 4.7 13 4.3 34.3-8.1 40.7-6.4 3.3-13.9 2.6-19.8-1.4-1.6-1.1-3.1-2.3-4.4-3.7-7.9-8.4-9.6-16.7-19.2-17.2-2.1-0.1-6.7 0.8-7.5 2.9-1.1 2.9 5.2 1.5 7.6 2.2 2.2 0.6 3.9 3.3 4.3 5.1 1.1 5.9-0.5 8-1.2 16-0.9 10 2 24 8.9 31.7 5.5 6 13.6 10.3 22.4 8.9 3.3-0.5 8.8-3.2 11.6-5.1 1.6-1 6.6-5.8 8.7-8.1 2.1-2.4 14.8-20.4 16.1-22.9 9.1-16.9 7.8-28.5-1.6-46.9-2.9-5.5-9.4-15.4-13.7-23.3-1.2-2.1-10.7-27.1-11.1-29.1-4.8-24.7 1.7-46.5 8.5-74.8 2.2-8.6 9.6-35 10.6-37.4 1.1-2.3 2.2-4.7 3.3-7.2 6-13.9 7.8-23.8 8.6-39 0.8-15.4 0.4-24.8-2.7-39.4-1-4.8-6.9-25.7-8.8-31.2-3.3-9.6-10.3-27.1-14.4-37.5-0.9-2.1-1.8-4.6-2.5-7.6-0.3-1.7-0.7-3.7-0.7-3.7 0 0 7.8 3 13.4 5.7 5.2 2.5 9.9 5.6 14.4 8 14.6 7.6 30.6 9.9 47.8 9.1 6.2-0.3 11-1.4 16.8-3.8 8.6-3.6 11.3-5.5 12.2-10.5 0.3-2.2-4.1-42.2-2-57.4 0.3-1.6 1.6-9.7 1.6-9.7 0 0 3.2 0.9 6.1 1.8 2.7 0.7 31.4 13.9 45.3 20 22.3 9.7 54.6 17.7 77.3 22.4 33.6 6.8 60.1 10.1 96.8 10.8 42.8 0.9 93.7-5 135.6-15.8 10.9-2.8 55-15.6 66.1-19.7 5.3-2 29.4-13.1 44-19.6 0.7-0.4 0.8-0.4 1-0.3 0.7 0.4 0.9 2.1 1 2.6 1.2 7 0.8 27.7-0.1 36.5-0.8 9.4-3.4 25.8-3.4 25.8 0 0 7.6 3.9 11.8 5.6 10.2 4.2 27.1 3.7 36.9 2.2 26.3-3.7 32.8-8.2 61.9-22.6 0.7-0.4 0.8-0.4 1-0.4 0.2 0 0.4 0.1 0.5 0.2 0.8 0.9 0.8 1.8 0.7 2.4-0.1 1.3-12.2 30-13.3 33.7-1.3 4.5-2.8 15.5-3.3 21-1.4 14-1.9 47.7-1.7 58 0.2 9.2 0.8 12.3 3.6 22.7 3 11.6 13.4 46.5 15.5 52.4 7.9 21.9 11.5 30.1 13.2 50.5 1.9 23.2 0.3 33.1-4.1 56-0.1 0.7-0.2 0.9-0.6 1.5-5.7 8.7-15.4 23-17.1 26.2-6.2 12-10 28.1-5.9 40.6 3.7 11 14.5 24.5 22.7 34.1 5.1 5.9 11.5 12.6 18.7 12.9 12.6 0.7 27.3-7 35.5-14.8 5.2-4.9 18.5-20.7 22.3-27.7 4.4-8.2 12-24.9 12.8-25.7 0.5-0.6 5.7-4.3 4.9-6.5-0.7-2.1-4.3-2.4-6-2.3-4.1 0.1-11.6 3.1-14.5 5-2.4 1.5-18.3 15.9-20.4 17.3-7.4 4.6-22.6 8.7-31.1 8.9-10 0.2-15.9-2-20.1-10.7-2.1-4.5-2.7-7.2-2.9-12.3-0.6-11.8 1.4-21.6 6-31 0.7-1.5 32.2-41.8 35.4-45.4 9.8-10.8 18.8-22.9 25.9-37.3 7.5-15.2 9.4-20 9.3-34.8 0-13.4-3.4-32.3-7.1-43.9-6.9-21.3-31.3-89.4-34.5-121.2-1.1-11.2-1.5-24.4 1-33.4 0.9-3.2 36-88.2 37-91.9 2-6.4 4.8-18.8 2.9-25-2.2-7.1-12.7-14.8-20-15.9-13.5-2.2-26.2 0.5-37.8 5.6-4.8 2.2-18.4 9.9-27.7 14.6-19.2 9.5-29.5 11.2-53.5 14.4-3.3 0.4-4.1 0.6-5.5-1.7-1.8-2.9-4.4-9.1-6.9-13.8-4.8-9.3-8.8-14.4-17.2-18.7-7.5-3.8-19.8-7.7-27.6-8.6-2.1-0.2-13.5 0.2-16.2 0.7-3 0.5-72.5 21.1-80.6 23-21.5 5.2-74 12.5-88.9 14.2-8.2 0.9-54.8 4.1-62.6 4.3-19.3 0.5-30.9-0.3-54.2-2.8-10.5-1.2-66.2-9.1-75.3-10.7-17.3-3.2-51.3-10.4-76.8-15.5-12.5-2.5-17.9-2.8-29.8 0.3-12.7 3.4-20.1 11.5-26.6 24.8-0.5 0.9-0.9 1.7-1.3 2.9-1 2.9-2.5 8-2.5 8 0 0-3.1 0.2-5.9 0.3-1.5 0-28.8-6.1-32-7.1-7.7-2.6-18.9-5.5-24.7-7.7-7.7-2.8-37.4-16.1-39.7-16.7-4.5-1.1-13.4-2.9-18.5-1.4-7.8 2.2-14.2 7.2-18 13.4-3.6 5.8-7.3 15.6-6.3 23.5q0.3 1.8 0.9 3.6c0.2 0.8 0.3 0.9 0.7 1.6zm852.7 447.7c0 0-1.5 4.1-2.8 7.4-0.8 2-7.1 12.6-8.5 14.3-9.4 11.5-14.2 15.9-28.1 21.5-14.9 6.1-24 1-34.6-13.2-2.9-4-12.2-18.5-14-23.3-2.6-6.8-2.9-19-1-26.9 1.3-5.3 7-19.5 11-24.3 0.6-0.7 1.2-1.4 1.2-1.4 0 0 0.8 0.5 1.3 1.1 0.2 0.4 0.4 3.4 0.2 4.2-3.3 12.7-4.4 27.5 1.4 39.3 0.9 1.8 3.6 5.9 5.3 7.8 1.4 1.7 8.4 7.8 9.9 8.6 8 4.7 14.2 4.9 23 2 2.5-0.8 35.7-17.1 35.7-17.1zm-804.3 40.2c0 0 1.9-0.6 3.6-1 2.2-0.5 10-0.5 12.1-1 2.9-0.6 14.2-6.5 15.9-7.6 13.8-8.9 18.9-31.6 16.4-50.8-0.2-1.3-0.4-2.4-0.9-4.1-1.1-3.1-9.1-19.5-9.1-19.5 0 0 0.6-0.1 1 0 0.4 0 1.4 0.7 1.9 1.3 0.9 1.1 2.1 2.3 3.2 3.6 5.7 6.4 13 19.7 15.3 27.3 1.5 5.5 2.6 15.2 1.8 20.7-0.3 1.7-1 4.1-1.8 6.2-1.4 3.3-8.5 16.6-10.7 20-9.9 15.2-19.4 24.4-35.8 17.9-3.9-1.6-9.3-5.2-11.1-8.7-0.8-1.6-1.8-4.3-1.8-4.3zm60-285.1c-0.2 7.9-1.6 27.2-3.6 34-4.8 17.1-13.8 42.9-16.8 52.1-7.6 23.9-7.5 28.1-9.7 45.9-0.4 2.8-1.1 26.7-1 28 0.8 7.8 8.4 29.8 7.1 30.4-0.3 0.2-3-1.9-4.3-3.2-16.3-15.8-25.3-28.8-35.2-49.7-11.7-24.9-13-36.1-13.7-63.7-0.4-15.7-0.1-24 4.2-38 1.4-4.6 10.6-26.2 13.1-33.6 9.7-28.6 9.7-65.8 6.8-94.9-2.4-23.9-4.8-27.7-13.1-53-0.5-1.5-0.8-3.8-0.7-4.1 0.5-0.5 1.8 0.2 3 0.9 1.4 0.9 16.6 15.2 18.5 17.4 14.2 17.1 23.4 44.7 32.1 67.7 6.9 18.4 13.6 52.9 13.3 63.8zm-25.9 28.4c-1.5-0.3-3.1-0.3-4.8-0.3-2.8 0-5.5 0.3-8.1 1-1.4 0.8-2.5 1.7-3.4 2.7q-1.3 1.5-2 2.4l-1.2 1.9 6.5 4.7c1.2-2.5 2.7-4.8 4.5-6.8 1.9-0.8 3.9-1.2 5.9-1.2h0.7l0.8 0.1v6.3l1.8 0.5 1.5 0.5 3.4 0.9v-10.4c-2-1-3.9-1.8-5.6-2.3zm-15.9-23.2c-0.4 0.2-0.7 0.5-0.8 0.9q-0.2 0.5-0.2 1.6l-0.1 10.4c0 0.5-0.2 0.7-0.5 0.7-0.2 0.1-0.4 0.1-0.6 0.1h-1.8c-1.8 0-3.2 0.2-4.3 0.4-1 0.3-1.7 0.8-2.3 1.2l6.1 4.9q0.3-0.6 0.8-1.1 0.6-0.4 1.2-0.4l4.8 0.1h1.4q0.8 0 1.3-0.3c0.3-0.1 0.5-0.3 0.5-0.8q0.2-0.5 0.2-1.5v-0.6-8.4c0-0.6 0.1-0.9 0.4-1 0.2-0.1 0.7-0.2 1.5-0.4 1.6 0.2 2.7 0.4 3.4 0.7q1.1 0.4 2.2 2.6c0.9 1.4 1.4 3.3 1.6 5.4l2.6 1.2 1.1 0.6 4.1 2.1c-0.5-3.5-1.6-6.6-3.1-9.3-1.6-2.8-3.5-4.7-5.7-5.9q-3.4-1.8-6-2.6-2.6-0.8-5.3-0.8-1.4 0-2.5 0.2zm-4.5-23.3l1.4 2.4 0.6 0.9 1.3 2.3q1.1-0.3 2.4-0.3 2.5 0 4.9 1.1 2.5 1 4.7 2.7l0.3-1.5c-2.6-3.1-4.9-5.2-6.9-6.4q-3-1.7-5.7-1.7c-1 0-2 0.2-3 0.5zm18.6-29l-4.4 0.1q-3.9 0.1-6.6 0.1c-1.2 0.4-2.2 1-3 2-0.8 0.9-1.1 2-1.1 3.3l-0.1 10.9-1.9 0.3c-0.6 0.1-1.1 0.1-1.5 0.1 1.4 1.7 2.9 3.1 4.5 4.3q2.3 1.8 5.7 3.7v-16.8q0.1-1.1 0.6-1.7 0.5-0.6 1.6-0.7l1.4-0.1 6-0.2 1.1-0.1 6.5-0.2c-1.3-1.9-2.8-3.5-4.7-4.8zm3.8 15.9h-3.9-6.4c1.7 1.9 3.6 3.7 5.5 5.3h9.8c-1.5-2-3.1-3.8-5-5.3zm-8.5 75.5q-0.5 0-1.2-0.1h-1.2q-1.6 0-3.1 0.3c-0.9 0.2-1.9 0.5-2.7 1-1 0.9-2.1 1.8-3 2.8-0.9 0.9-1.7 1.9-2.6 3.1 2.2 1.9 4.5 3.6 6.8 4.8 0.7-1.1 1.5-2.2 2.3-3.1 0.8-1 1.6-1.9 2.6-2.7 0.7-0.4 1.6-0.7 2.7-0.7l3.9-0.1h1.1 7.9c-2-2.3-4.2-4-6.6-5.2zm713.2 129.5l0.5-47.8c0-0.8 0-0.9-0.2-1.7-1.8-8.4-4.8-21.7-5.7-25-6.3-22.4-8.2-27.3-11.7-39.1-3.4-11.3-8.4-36.4-10.2-47-0.8-5.1-3.8-37-3.9-42-0.5-16.9 0.2-29 3.6-44 3.3-14 4.8-19 9.2-29.2 2.8-6.4 10.6-22 12.6-25.3 2.4-4 10.6-14.4 17.8-24.7 3.4-4.9 31.2-51 31.2-51 0 0-18.8 73.4-19.7 75.3-2.3 5.2-3.3 10.7-4.6 20.8-0.5 3.4-0.7 6.9-0.5 9.9 0.2 4.5 12.2 62.1 15.7 71.3 1.4 3.4 6.3 18.7 6.5 19.5 2.1 6.9 0.7 1.8 2 6.5 0.4 1.2 4.3 18.4 6.5 28 3.3 13.3 4.3 53.3 0.9 66.3-2.3 8.5-13.2 30.7-17.7 37.7-2.1 3.4-32.3 41.5-32.3 41.5zm-0.6-186.5h8.6l2.9-0.1q1.9 0 2.9-0.1 2.2-0.4 3.7-2c1-1.1 1.5-2.3 1.5-3.7l0.1-6.6c0.6-0.3 1.2-0.6 1.6-0.6 0.5-0.1 1.3-0.2 2.3-0.2q-2.7-2.5-5.5-4.1c-1.9-1.1-3.8-2-5.9-2.7v9.5 0.6c0 1.2-0.5 2.3-1.6 3-1.1 0.9-2.4 1.4-4 1.4h-6.3l-1 0.1h-6.4c1.9 2.4 4.3 4.3 7.1 5.5zm10.3 12.8c-2.2-2.3-4.4-4.2-6.7-5.7l-19.4 0.4c2.1 2 4.5 3.7 6.9 5.1h7.5zm7.1 17.9c1.2-0.2 1.9-0.6 2-1.2 0.2-0.6 0.2-1 0.3-1.4 0-0.4 0-0.8 0-1.2l0.1-15.9q1.8-0.6 3.7-0.9c-3.6-2.9-7.4-5.1-11.3-6.7v19.6c-0.1 0.8-0.7 1.2-1.9 1.3-2.3 0-4.1-0.5-5.6-1.4q-1-1-1.6-2.5c-0.3-1-0.7-2.1-0.9-3.4l-3.5-1.1-1.1-0.2-3.6-1.2c0.6 2.4 1.5 4.6 2.8 6.6 1.2 2.1 2.7 3.7 4.6 5 2.1 1.5 4.3 2.7 6.4 3.5q3.4 1.2 7 1.2c0.8 0 1.7 0 2.6-0.1zm-6.5 17.1c0.6 0.2 1.3 0.3 1.9 0.3 1.6 0 3.2-0.8 4.9-2.5 1.7-1.7 3.5-3.8 5.5-6.4l-3.1-2.1-0.9-0.7-3-2q-1.5 2.5-2.6 3.9-1 1.3-1.8 2.1c-0.4 0.6-1.2 0.8-2.1 0.8-0.7 0-1.3-0.1-2.1-0.3-0.9-0.2-1.7-0.6-2.8-1.2-1-0.5-2.1-1.1-3.2-1.8l-0.2 1c1.2 2.1 2.5 3.9 4.1 5.3 1.5 1.5 3.2 2.7 5.4 3.6zm-2.7 14.4c0.4 0 0.9 0.1 1.3 0.1h1.4c1.2 0 2.3-0.1 3.4-0.3 1.1-0.2 2-0.6 2.9-1.1q1.9-1.3 3.3-2.8 1.5-1.4 2.9-3.3-3.6-3-7.4-5c-0.8 1.2-1.6 2.3-2.6 3.3-0.8 1-1.8 1.9-2.9 2.8-0.7 0.4-1.7 0.6-2.9 0.7l-4.3 0.1h-1.3-8.7q3.3 3.6 7.3 5.4zm-7.8-84.4c1.4-1.2 2.6-2.2 3.4-3 0.9-0.9 1.9-2 3-3.2 1.3 1 2.7 1.9 4.3 2.9q2.3 1.4 4.9 1.4c1 0 2-0.2 3.2-0.7q1.7-0.7 3.3-2.4l-1.2-0.8c-2.1-1.4-4-2.7-5.7-4q-0.5 1-1.6 1.5c-0.8 0.4-1.7 0.5-2.5 0.5q-1.6 0-2.5-0.7l3.8-3.7 0.9-0.9q2.1-2.4 4.4-5.2c1.5-1.8 2.9-3.5 4-5-1.2-0.9-2.4-1.8-3.4-2.4-1-0.7-2.1-1.3-3.3-1.9-1.3 2-2.7 4-4.3 6-1.8-1.3-3.5-2.3-5.3-3-1.9-0.8-3.7-1.1-5.7-1.1h-0.6c-0.3 0-0.6 0-0.8 0l-3.8-1.8v9.1l7.4 2.6v-4.9c0.6-0.3 1.3-0.4 2.1-0.4q2.9 0 5 1.9l-3.6 4.1-2.1 2.1c-1.4 1.6-3.1 3.2-4.8 4.8-1.8 1.7-3.6 3.2-5.5 4.7l3.8 2.1zm-118.7-69.9c9-6.2 26.1-17.6 27.2-18.7 1.2-1.4 2.3-2.9 3.7-4.1 0.8-0.9 1.9-1.7 2.9-2.7 1.6-1.7 5.4-7.3 6.1-9.3 0.4-1.1 0.7-3 0.8-4.8 0.3-7.4 0.4-60.4 0.4-60.4 0 0 26.7-8 34.7-10.9 5-1.8 10.7-4.3 14.9-6.5 11.3-5.8 34.4-18.7 37.5-19.9 11.5-4.6 24.2-5 33.4 5.6 6.1 6.9 4.6 13.4-0.2 22.3-2 3.7-4.1 7.5-6.4 11.1-3.9 6.1-12.5 17.2-16.8 23.9-2.6 4-16 30.2-20.4 37.8-9.2 15.3-26.5 25.8-44.2 33.2-11.2 4.7-28.6 9.6-40.8 10.4-6.9 0.5-21.4-0.1-29.2-2.6-1.8-0.5-5.9-1.5-4.6-3.7 0.2-0.2 0.3-0.3 1-0.7zm78.2-73.2l-1.4-4.1q-1.4-3.6-2.2-6.1c-0.7-1.1-1.6-1.9-2.7-2.3-1.1-0.5-2.3-0.5-3.5-0.1l-10 3.3-0.9-1.7c-0.2-0.6-0.4-1-0.5-1.4-1.1 1.9-2 3.7-2.6 5.6-0.6 1.8-1.1 4-1.7 6.5l15.5-5.2c0.8-0.1 1.4-0.1 1.8 0.1 0.5 0.2 0.8 0.6 1.2 1.3l0.5 1.3 2 5.6 0.4 0.9 2.3 6.2c1.3-1.8 2.3-3.8 3-5.9zm21.8-20c-0.9-0.8-2.1-1.4-3.4-1.7-1.4-0.2-2.7-0.2-3.9 0.2-0.8 0.3-1.5 0.6-2 1.1-0.5 0.6-1 1.2-1.2 2-0.4 1-0.7 1.9-0.8 2.7-0.1 0.9-0.3 2-0.4 3.6-0.5-1.4-1.3-2.8-2.4-4.1-1.1-1.3-2.5-2.6-4.1-3.9l-3.2 8.8c1.4 0.5 2.7 1.2 3.7 2q1.6 1.3 2.1 2.9c0.1 0.4 0.2 0.8 0.2 1.2l0.2 2.5 0.1 8.9v1.1c1-1.2 1.8-2.4 2.6-3.7q1-1.9 1.7-3.8-0.1-2.8 0-5.4c0.1-1.8 0.3-3.4 0.6-5 0-0.9 0.4-1.7 1-2.4 0.6-0.7 1.3-1.2 2.2-1.5q1.7-0.5 3.5 0.4c1.1 0.7 2.2 1.6 2.9 2.8 0.9 1.3 1.6 2.7 2.1 4.4l-8.5 2.9-0.4 3.1-0.1 0.7-0.4 3.5 13.6-4.5c0.8-3.4 0.6-6.8-0.5-10.4-1.1-3.1-2.8-6-5.2-8.4zm28.7-16l-1.5 3.5-0.2 0.6-1.4 3.4q2.8 3.3 3.9 6.6l0.3 0.8q0.2 0.6 0.3 1.1c-0.1 1.2-0.7 2.3-1.7 3.5-1 1.1-2.1 2-3.4 2.7l-2.1 1.2-0.5 0.1c-0.4 0.2-0.8 0.2-1 0.1q-0.6 0-0.9-0.7l-1.2-1.8c1.3-2.1 2.3-4 2.9-5.8q1-2.6 0-5.2-0.5-1.8-1.3-3.4c-0.5-1-1.2-2.1-1.9-3.2l-3.2 6.8q0.7 0.9 1.4 1.8c0.5 0.7 0.8 1.3 1 2.1 0.2 0.6 0.3 1.2 0.3 1.7 0 0.6-0.3 1.2-0.6 1.7l-0.6 1-2.3-3.4-3-4.2c-1.2-1.7-2.5-3.2-3.7-4.2l-3.1 7.3q2.2 1.3 4.5 4.1l4.4 5.3 2 2.7 2.1 3.2c1 1.1 2.1 1.5 3.5 1l0.7-0.1c0.2-0.1 0.5-0.2 0.7-0.2 1.9-0.7 3.7-1.7 5.3-3.1q2.4-2.1 4.2-4.9 1.8-3.3 1.9-6.7c0.1-2.3-0.2-4.7-1.1-7.1-1-3-2.5-5.8-4.7-8.3zm-64 44.5l-1.2-3.7-2-6c-1.2 2.2-2.3 4.4-3.1 6.7l3 9.3c1.4-2.1 2.5-4.2 3.3-6.3zm-550.3 68.7c0 0-11.9-7.9-19.9-13.3-6.1-4.1-12.4-8.4-14.6-13.1-2.5-5.3-2.6-24.1-2.8-29.5-0.4-11.8 0.4-31.6 4.3-45.6 1.1-4.2 3.2-10.3 3.2-10.3 0 0 6.8 7.1 9.6 9.5 3.4 2.7 6 3.3 10.6 4.4 1.7 0.5 4 1 5.3 0.9 2.4-0.1 3-0.3 5 0.8 0.6 0.3 0.8 0.5 0.9 0.9 0.3 0.5-0.2 7.5-0.7 10.2-2 11.1-3.6 18.1-4 28.1-0.1 2.2 0 24.7 0.7 29.6 0.2 1.2 0.4 2.4 0.7 3.5 0.7 3.6 1.8 14.6 1.8 18 0 2.8-0.1 5.9-0.1 5.9zm33.2-137c18.5 3.8 59.3 12.4 73.8 14.9 31.6 5.7 62.7 8.9 95.1 9.9 32.9 0.9 57 0.4 86.8-2.3 15.8-1.4 37.6-3.7 47.1-5.1 9.3-1.3 18-3 27.7-4.5 3.9-0.6 56.1-13.9 57.1-14.6 4-2.4 3.9-2.6 9.4-5.1 8-3.5 25.1-9.3 34.5-10.6 8.3-1.1 14.3-0.6 21.6 2 10.6 3.6 15.4 5.8 15.3 15.3-0.2 11.8-6.9 19.9-18.2 24.4-1.5 0.6-2.9 1.1-4.7 1.4-5.4 1-7.3 0.2-8.2 3.9-0.6 2.7-0.1 6.4 0.4 9.3 1.2 6.7 3.6 15.6 4.3 20.5 0.5 4.3 0.3 5.7-2.8 7.8-1.7 1.2-41.4 19.4-45.2 20.8-39.5 14.2-84.4 24.6-124.3 29.7-9.3 1.2-38.3 3.9-45.5 4.2-6.5 0.3-36.8 0-43.7-0.4-18.8-1.1-37.7-3.3-56.1-6.1-6.8-1-37.9-7.4-42.3-8.6-7.2-2.1-14.8-4.6-21.1-6-1.6-0.4-3.2-0.7-4.8-1-4.2-1-16.6-4.8-21.2-6.6-10.5-4.1-27.7-11.4-32.2-12.7-3.2-1-18.4-8-19.1-8.3l-10.9-5.8c-0.7-0.4-2.4-1.6-2.6-2-0.2-0.6-0.1-3.5 0.4-5.8 0.8-5.8 2.4-17.1 2.9-18 0.8-1.5 0.9-2.5-0.6-4-0.3-0.5-3.6-1.8-4.3-1.8-6.6-0.4-7.5 0.8-11.3-0.7-3.8-1.6-14.8-9.2-15.8-14.6-1-4.7 6.7-13.7 10.1-16 4.9-3.2 23.1-8 28.6-7.3 1.5 0.2 3.6 0.3 5.4 0.6 1.3 0.2 10.8 2.5 14.4 3.2zm-73 39.8c0 0-0.8 14.1-1.4 24.3-0.8 15-1.2 32.2 1.6 45.6 0.9 4.4 4.1 7.5 9.3 12 4.4 3.8 16.2 11.9 19.2 14.6 2.9 2.6 6 5.7 6 5.7 0 0-11.5 4-15.7 5-16 3.7-41.9-4.1-55-9.7-3.7-1.6-19.3-9.8-21-11.1-1.2-1-2.4-1.9-3.5-2.8-2.1-1.4-4.1-2.6-6.2-4-1-0.7-23.2-28-26-31.9-3.6-5.1-7.1-9.7-11.1-14.4-7.1-8.1-27.1-28.8-29.6-32.1-3.3-4.2-3.9-5.7-4.6-11.5-1.3-11.8 4.2-20.2 15.6-25.3 8.9-4 18.3-0.3 28.4 5.1 5.7 3.1 11 6.8 16.6 9.7 10.3 5.3 37.7 14 50.4 16.4 9.7 1.9 27 4.4 27 4.4zm-73.4 30.3q0.9-0.5 1.4-1.1 1.5-1.4 1.6-4.6c0-2.2-0.2-4.7-0.6-7.6l-3.4 0.6-0.9 0.2-3.2 0.6c0.3 1.7 0.7 3.1 0.8 4q0.2 1.7 0.2 2.6c0.1 0.6-0.2 1.2-0.8 1.9-0.5 0.4-0.9 0.8-1.6 1.1-0.6 0.3-1.5 0.7-2.4 1-1 0.4-2.1 0.6-3.3 0.9l0.5 0.7q3.2 0.9 6 0.9 2.8 0 5.7-1.2zm11.3 25.1l2.2-2.3 3-3.4q1.6-1.8 2.5-3.5c0.7-1.8 1-3.7 0.6-5.5q-0.5-2.6-2.4-4.5c-0.3-0.3-0.5-0.4-0.6-0.6l-4.5-4.3c0.3-0.3 0.6-0.7 1-1.2l1.2-1.6-9.4 1.3c-0.4 1.1-0.9 2.2-1.6 3.1-0.6 1-1.5 2.2-2.8 3.8l-3.2 3.6-1 1-0.6 0.6-3 3.3c2.3 0.1 4.7-0.1 7.1-0.8l0.6-0.5 3.8-3.8q1.9-2 3.4-3.7c0.2 0.2 0.8 0.7 1.7 1.4 0.9 0.7 1.5 1.3 1.9 1.7q1.3 1.3 1.9 2.6 0.4 1.4-0.1 3.1c-0.4 1.1-0.9 2.2-1.7 3.2l-3 3.5-0.6 0.8-1 1.1-2.6 3c2.5-0.1 4.9-0.6 7.2-1.4zm15.3 15.1l5.4-5.4 1.8-1.9c0.8-0.8 1.4-1.5 1.7-1.9 0.8-1.1 1.2-2.3 1.2-3.7-0.1-1.3-0.5-2.4-1.4-3.3l-4.2-4.2c0.1-0.6 0.4-1.1 0.7-1.4 0.2-0.4 0.6-0.9 1.3-1.6q-3.3 0.2-6.1 0.8c-1.9 0.6-3.8 1.2-5.5 2.1l6 6.1c1.2 1.1 1.5 2.1 1.4 3.2q-0.3 2-1.7 3.4l-4.1 4.1-0.6 0.7-4 4.2c2.8 0.2 5.5-0.1 8.1-1.2zm7.5 9.2l2.7-2.8 4.5-4.4c-2.5-0.1-4.9 0-7.3 0.4l-6.9 6.8q3.5 0.5 7 0zm13.2 7.9l3-3.2q2.7-2.8 4.5-4.7c0.6-1.1 0.9-2.2 0.9-3.4-0.1-1.2-0.5-2.2-1.4-3l-7.2-7.3 1.1-1.5c0.4-0.4 0.7-0.8 1.1-1.1-2.2-0.1-4.2 0-6.1 0.3-1.9 0.3-4 0.8-6.4 1.5l11.2 11.2q0.5 0.8 0.6 1.5c0 0.5-0.2 1.1-0.6 1.6l-1 1.1-4.1 4.3-0.7 0.8-4.4 4.7c2.1 0.4 4.3 0.4 6.5 0zm-14-78q0.9-0.5 1.5-1.1c1-1 1.4-2.5 1.5-4.7 0-2.1-0.2-4.7-0.6-7.5l-3.4 0.5-0.9 0.3-3.2 0.6c0.4 1.6 0.7 3 0.8 4 0.2 1.1 0.2 1.9 0.3 2.5 0 0.7-0.2 1.3-0.9 1.9-0.4 0.5-1 0.8-1.6 1.2-0.6 0.3-1.4 0.7-2.4 1-1 0.3-2.1 0.6-3.3 0.9l0.6 0.7q3.1 0.9 5.9 0.8c1.9 0 3.8-0.4 5.7-1.1zm18.2 10.1q0.1-1.5-0.3-2.7c-0.3-0.8-0.8-1.6-1.6-2.5l-3.9-3.9q0.4-0.9 0.8-1.4 0.4-0.5 1.3-1.5-3 0.2-5.9 1c-2 0.6-3.9 1.2-5.5 2l7.1 7.2c0.7 0.7 0.9 1.6 0.7 2.6-0.2 0.9-0.7 2-1.4 3.1-0.9 0.8-1.7 1.6-2.5 2-0.7 0.4-1.3 0.4-2-0.2l-0.9-0.9-0.6-0.5-5-5-7 2.5 2.1 2 0.7 0.8 7.8 7.8c2.8-0.6 5.2-1.4 7.3-2.2 2.1-0.9 3.9-2 5.4-3.5 0.8-0.9 1.6-1.9 2.2-3q0.9-1.8 1.2-3.7zm-66.6 6.5l-2.6-2.6 5.5-5.3c1.6-1.6 2.8-3.2 3.5-4.7 0.6-1.5 0.2-3-1.2-4.5l-4.7-4.7c0.7-1.1 1.5-2.1 2.3-2.9-4.2 0.4-8 1.5-11.4 3.3l6.7 6.8c0.8 0.7 1 1.2 1 1.9 0 0.7-0.4 1.4-1 2.2l-4 4.6-7-7.1-7 2.5 13.1 13.1 2.2-0.9 1.2-0.5zm607.4 63.8c0 0-0.3-2.4-0.5-4.5-0.1-1.7 2.1-10.1 2.9-14.1 4.7-24.8 0.9-43.7-3-64.2-1.1-6.1-3.4-13.6-3.4-13.6 0 0 15.8-7.6 17.8-8.9 2.8-2.1 7.8-7.4 9.2-10.2 1-2 4.6-15.1 4.6-15.1 0 0 2.2 1.9 3.7 3.6 3.6 3.9 4.9 9.6 6 14.5 0.8 3.5 3.3 21.2 3.6 26.4 0.6 7.8 0.9 35 1.2 52.4 0.1 0.8 0 0.9-0.4 1.6-5.6 9.3-24 24-33.1 28.3-3.2 1.6-8.6 3.8-8.6 3.8zm-239 62.6h317.3c0 0-0.1 484.7-1.1 517.5-0.9 32.8-19.8 82.5-54.7 109.2-34.9 26.7-73.9 42-129.4 65-55.5 23.2-120.2 45.2-120.2 45.3 0.1 0.1-64.6-22.1-120.1-45.3-55.4-23-94.6-38.3-129.4-65-34.9-26.7-56.5-76.4-57.5-109.2-0.9-32.8-0.5-517.5-0.5-517.5zm0.6 7h-284.2c0.9 1.1-0.4 476.2 0.5 507.7 0.9 31.6 21.7 79.3 55.2 105 33.6 25.7 71.2 40.4 124.5 62.6 53.4 22.3 115.6 43.6 115.5 43.5-0.1-0.1 62.2-21.2 115.5-43.5 53.4-22.2 91.1-36.9 124.5-62.6 33.5-25.7 51.7-73.4 52.7-105 0.8-31.5 0.9-507.7 0.9-507.7zm251.5 10.2h44.4c0 0-0.1 469.2-0.9 499.6-0.9 30.3-20 76.2-52.2 100.9-32.3 24.7-68.4 38.8-119.8 60.2-51.3 21.4-111.1 41.7-111 41.8 0.1 0.1-59.8-20.4-111.1-41.8-51.3-21.4-87.5-35.5-119.7-60.2-32.2-24.7-55.5-70.6-56.3-100.9-0.9-30.4 0.4-498.6-0.5-499.6h276.5 248.5c-0.4 0-0.8 0.1-1.1 0.2-0.9 0.3-9.8 8.4-12.6 10.3-3 2.1-5.9 2.7-9.3 2.5-3.6-0.2-15.5-2.1-18.6-3-6.3-1.7-13.2-4.8-18.6-6.2-11.2-3-26.7-3.3-35.9-2-3 0.4-33 8.5-49.5 12.9-0.8 0.2-1 0.2-1.5 0.2-0.4 0-0.8-0.2-1.1-0.3-3.2-1.1-12.6-6.3-18.2-8.6-1.6-0.7-21.6-4.3-24.3-4.5-8.2-0.4-19-0.2-26.5 1.7-4.4 1.2-34.1 12.2-35.3 12.2-2.7 0.1-7.9-0.1-9.5 0.2-2.4 0.5-5.5 1.4-5.5 1.4 0 0 2.1 1.9 4 3.5 11.5 9.9 41.1 18.2 54 19.4 15.6 1.5 31.3 0.3 45-5 6.1-2.4 12.7-5.7 19-8.7 0.8-0.3 0.9-0.3 1.7 0l23 8.2c0 0-12.3 0.2-20.5 0.9-15.6 1.1-36.1 7.1-48.8 14.9-3.9 2.4-9.9 7-14.8 10.7-0.6 0.4-0.8 0.5-1.5 0.3-6.8-1.8-16.3-4.5-20.5-5.1-4.4-0.7-12.6-1.2-18.9-1.7-0.8 0-0.9-0.1-1.5-0.6-19-14.9-20.9-17.8-38.9-24.6-6.3-2.3-13.6-4.5-20.7-6.1-0.8-0.2-0.9-0.2-1.7-0.3l-66.2-4c0 0 1 2.1 2 3.9 0.8 1.5 7.7 9.8 9.6 11.4 14.5 13.2 15.4 14.6 33.4 25.6 3.7 2.2 10.2 5.6 12.8 6.6 6.1 2.2 16.2 6.2 16.7 6.7 0.5 0.5 0.6 0.8 0.5 1.3 0 0.5-5.3 5.2-9.3 8.6-1.2 1-7.3 8.6-7.4 9.2-0.2 1.4 0.3 2.2 1.8 2.3 1.6 0 11.2-2.5 17-3.5 1.7-0.3 12.4-0.3 14.6 0 10 1.6 39.5 7.8 43.8 8.3 10.9 1.1 26.4 0.5 37.3-2.2 5.5-1.3 31-10 34.1-10.6 4.9-1 17-1.8 22.9-2.9 5.3-0.9 17.5-4.3 22.1-6.2 3.1-1.3 31.2-17.5 33.6-18.4 2.8-1 7-2 11.4-2.4 1-0.1 9.6-1.2 10.5-0.6 0.4 0.3 0.8 0.7 0.8 0.7 0 0-17.1 18.9-28.5 32.4-3.8 4.4-14.6 18.8-16.1 21.4-1.1 1.8-2 3.6 0.2 4.1 2.1 0.4 4.8-3.7 6.3-5.9 2-3.1 3.7-5.8 5.7-8.5 1.6-2.4 27.4-30.4 33.5-36.5 9.7-9.7 32.2-31.2 36.1-34.4 11.7-9.6 29.2-21.8 33.8-26 1.2-1 2.1-2.3 0.7-2.8-0.6-0.4-1.8-0.3-2.7-0.4 0 0-0.3 0-0.3 0zm43.9 414l-0.2-6c0-2.1-2.6-19.5-3.5-22.1-2.8-8.6-5.5-17.3-9.3-24.7-2.2-4.3-8.4-14.1-12.7-21-0.4-0.7-0.4-0.9-0.3-1.6 1.4-8.6 3.6-21 4-25.8 1.4-19.1-6.8-54.1-22.5-70.5-1.3-1.3-2.6-2.5-3.9-3.9-1.1-1.1-2.1-2.4-3-3.5-1.7-2-5.5-5.5-7.7-7.2-3.9-2.9-24.6-16-24.6-16 0 0 0.6-3.3 1.2-6.2 0.9-3.4 5.3-15.3 7.3-21.6 0.9-2.7 3.7-16.4 4.1-20.4 0.4-3.6 0.7-24.3 0.4-27.7-1.7-19.6-5.6-32-14-48.7-2-3.9-4.9-9.2-6.8-11.8-1-1.5-5.7-6.4-5.2-9.2 0-0.2 0-0.5 0.2-0.7 0.2-0.2 0.2-0.3 0.8-0.9 9.4-9.4 19.6-19.1 28.7-27.9 3.3-3.2 32-27.4 34.4-29 4.6-3 7.5-5.4 7.7-6 0.4-0.9-1.8-1.8-4-1.3-0.5 0-0.8 0.2-1.2 0.5-1.7 0.8-36.4 29-40 32.4-6.9 6.3-37.5 36.4-42.4 41.8l-7.9 8.6c-6.5 7.1-32 37-32.9 38.5-0.6 1.1-0.7 3.1 1.2 3.4 1.3 0.3 3-1.6 4.1-2.8 2.9-3.7 5.4-8.3 9.5-13.7 1.8-2.4 33.5-34.7 33.5-34.7 0 0-4.6 14.2-7.1 23.1-5.4 19-4.4 43.8 1.1 65.1 1.7 6.5 4 13 5.8 18.7 0.7 2.1 3.4 18.6 3.4 20.4-0.1 2.2-0.3 4.6-0.3 4.6l-34.1 2.2c0 0-6.9-11.2-11.2-18.1-1.6-2.5-10.5-13.6-12.3-15.3-5.1-4.8-13.3-11.8-13.3-11.8 0 0 1.2-1.3 1.9-2.1 1.6-1.3 3.6-2 5-1.8 6.7 0.8 8.4 4 11.1 2.1 2.2-1.6 1-2.5 1.4-7.1 0.2-2.2 2.1-4.6 4.8-5.9 1.6-0.8 4.3-2 4.7-2.6 1.1-1.1 2.7-3.8 2.7-3.8 0 0-4.4-3.4-7.6-5.4-5.3-3.1-8.6-4.3-8.8-4.8-0.6-1.1-1.6-9.1-2.2-10.2-0.4-1-0.9-1.3-1.7-1.1-1.7 0.6-10 5.5-10.9 5.5-0.7 0.2-5.2-1.3-7.4-1.9-0.8-0.2-2.5-0.1-3 0.1-0.3 0.3-1.9 3.2-2 3.8-0.1 2.1 0.6 3.6-0.1 4.8-0.6 0.8-9 7.3-9 7.3 0 0 0.6 1.5 1.4 2.6 0.5 0.7 11.4 6.8 11.9 7.5 0.5 0.6 3.4 7.7 3 9.6-0.2 1.2-0.6 1.5-1.6 1.4-1.4-0.2-14.9-6-22.5-8.8-2.1-0.8-15.1-3.4-18.1-3.7-3.8-0.3-23.3-0.2-26 0.2-18.6 2.5-38.4 11.1-53.8 24.2-2 1.8-11.2 10.2-13.4 13.5-0.4 0.7-0.8 1.3-1.2 1.9-1 1.6-2.4 2.9-3.7 4.5-5.5 6.5-11.6 21.8-14.2 29.4-6.5 19.4-5.9 37-0.4 58.2 8.5 32.6 28.2 58.4 58.8 71.7 14.9 6.5 35.5 10.4 52.2 7.9 7.9-1.2 21.9-4.2 21.9-4.2 0 0 6.5 10.2 9.6 14.2 6.6 8.6 26.9 22.7 37.4 27.9 2.8 1.4 11.2 5.1 14.2 5.5 0.9 0.1 1.6 0.1 2.9 0.5 0.5 0.2 1.1 0.5 1.1 0.5 0 0-3 1.1-5.5 1.9-5.1 1.8-8.1 2.4-11.5 3.4-15.8 4.7-39 17-50.3 26.3-1.9 1.5-6.3 5.2-6.1 6.9 0.2 2.3 7.1 4.7 10.1 5.5 4 1.2 10.1 2.2 13.8 2.6 2.5 0.3 21-0.3 24.2-0.7 9.9-1.4 19.9-3.8 30.1-8.5 5.4-2.5 12.6-6.2 12.6-6.2 0 0 12 31.8 14.4 36.9 6.4 14 24 38.8 38.6 48.9 2.1 1.4 3.6 1 4.7-1.8 0.8-1.7 1.4-4.7 1.9-5.4 0.6-0.9 1.7-1.8 1.7-1.8 0 0 0.2 5.1 0.4 8.9 0.3 4.9 1.1 10.8 4.5 9.5 5.7-2.2 19.4-19.4 21.5-22.2 3.9-5.1 6.4-8.9 8.6-15.7 1.2-3.8 7.7-32.7 7.7-32.7 0 0 2.2 0.2 3.1 0 0.9-0.1 1.3-1 1.9-2.1 1.4-2.3 5.4-11.5 6.1-14 1.6-5.5 2-22.4 2.1-30.3zm-329-161.6c0-55.1 44.5-99.7 99.4-99.7 54.9 0 99.4 44.6 99.4 99.7 0 55-44.5 99.6-99.4 99.6-54.9 0-99.4-44.6-99.4-99.6zm56.1 405.7c0 0 39.9-8.5 69.5-15.1 36.8-8.1 58.5-13.6 87.9-20.3 3.6-0.8 10.2-2.9 11.1-3.5 0.4-0.3 1.3-1.1 1.5-2.2 0.1-0.3 0.1-0.5-0.2-1.3-14.2-42.1-37.9-112.5-42.2-126.5q-3-9.9-5.8-19.7c-0.3-0.8-0.3-0.9-1.1-1.2-4.5-1.9-12.3-5-13.5-5.9-2.2-1.7-6.6-5.9-6.6-5.9 0 0-22.4 5.7-27.3 6.6-3.1 0.5-16.7 1-25 1.3-9.1 0.3-25.1 2-33.3 4.5-5 1.6-24.8 9.9-27 10.3-2.2 0.5-3.2 0.3-5.3-0.4-4.6-1.8-11.8-5.8-18.4-8.5-2.5-1-17.4-4.9-21.5-5.6-7-1.3-13.7-2.1-22.2-2.1-16.2-0.2-19.3 1.5-31.9-0.7-8.2-1.4-21.7-4.5-21.7-4.5 0 0-2.9 4.4-5.1 6.9-0.9 0.9-3.7 3.1-5 3.6-14.8 7.3-15 7.6-19.8 26.6-5 20.2-31.6 118.4-31.9 120.6-0.3 2.8 0.2 3 3.4 4.3 2.3 0.9 15.9 4.4 23.5 6 17.8 3.7 136.9 31.5 138.5 31.5 4.6 0 5-1.6 10-7.6 1-1.2 4.2-4 4.9-4.2 0.3-0.1 1.6 0.4 2.2 0.9 3.2 2.9 12.3 12.1 12.3 12.1zm-167.7-55.2l35.7-140.1c0 0 30.6 4.4 35.7 4.7 6.4 0.4 11.9 0.1 17.9 0.2 23.8 0.4 38.5 6.4 62.1 17.2 0.7 0.4 0.9 0.4 1.6 0 17.7-8.8 25.6-12.3 44.4-14.9 5.1-0.7 10.6-1 16.2-1.1 18.5-0.3 24.3 0.6 40.7-3.6 4.9-1.2 11.5-3 11.5-3l3 6.3c1.3 3.1 37.3 110.5 39.2 117.2 2.2 7.5 4.5 15.9 4.5 15.9 0 0-4.8 2.8-8.6 4.9-3.4 1.8-11.9 5.5-15 6.5-3.8 1.1-20.1 4.8-23.5 5.1-4 0.5-45 0.9-49.5 1.3-20.9 2.2-37 9.5-60.6 19.8-0.8 0.3-0.9 0.3-1.6-0.1-30.9-15.4-48.5-23.5-79.5-21.8-12.9 0.7-19.2 2.1-29.3 1.1-11.7-1.3-24.3-4.7-35-10.2-4.2-2.2-9.9-5.4-9.9-5.4zm169.8-17.8c0 0 20.1-6 28.5-8 6.5-1.6 15.6-3.1 21.9-3.4 4.6-0.2 32 1.2 35.9 0.9 3.5-0.3 15.5-1.5 19.3-3.1 2.3-1 5.1-2.7 5.1-2.7 0 0-2-0.7-3.9-1.2-9.4-2.5-70.3-0.8-72.5-0.6-9.4 1.4-21.9 6.2-30.2 14.1-1.8 1.7-4.1 4-4.1 4zm-128.2-18.3c-1.6 0.1-4.5-0.2-6.3 0-0.6 0.1-2.5 1.2-2.4 1.4 0 0.3 2 1.8 3.1 2.2 1.7 0.7 10.8 2.9 13.3 3.2 3.1 0.3 38.3-0.6 42.8-0.3 6.2 0.5 21 2.8 27.2 4.8 7.8 2.6 20.5 7.2 21.4 7.1 0.9 0 1.2-0.3 0.9-1-1.3-3-10.1-8.8-12.4-10.1-21.8-12.1-35.7-6.7-67.2-8.4-4.5-0.3-16.5 0.1-17.9 0.5-0.9 0.2-1.9 0.6-2.5 0.6zm131.6-5.9c3.6-0.5 20.3-5.7 30-8 3-0.7 14.6-2.1 17.5-2.1 10.9 0 21.1 1.6 30.7 1 3.1-0.2 15.2-1.7 18.3-3.8 1.4-0.9 1.5-1.4 0.6-1.7-0.6-0.3-1.5-0.5-2.4-0.7-2.7-0.5-56.6-2.1-67.1-0.3-8.6 1.5-17.1 5.8-24.4 12-1.4 1.3-3.6 3.7-3.2 3.6zm-127-16.6c-1.6 0.8-4.6 1.6-4.6 1.6 0 0 1 0.9 1.8 1.5 3.3 2.4 14.3 3.3 17.4 3.6 3.3 0.3 19.2 0.3 22.3-0.1 8-0.9 8.1-1.1 20.9 0.8 3.8 0.6 7.1 1.1 11.3 2.1 7.7 2 19.1 6.2 22 6.7 0.3 0 0.6 0.1 0.7 0 0.2-0.2 0.2-0.8 0-1.3-1.1-2.2-11.1-8.6-11.5-8.9-11.4-6.4-27.6-7.2-42.3-6.6-6.3 0.1-12.3 0.5-18.6 0.6-6 0.2-12.2 0.1-18.4-0.1-0.8 0-0.9 0-1 0.1zm128.2-2.1c0 0 1 0.1 2 0.3 0.9 0 10.3-2.9 14.6-4.6 15.7-6.2 41.6-4.3 55.2-4.1 7.5 0.1 10.2-0.7 16.4-2.9 0.5-0.2 0.9-0.4 1.3-1 0.3-0.5 0.7-1.2 0.7-1.2 0 0-2-1.2-3.4-1.5-0.7-0.2-2.3 0.1-3.3 0.1-1 0.1-2.8-0.5-4.5-0.9-2.8-0.7-47.6 0.4-49.8 0.7-7.3 0.8-21 5.6-27.6 13.1-0.8 0.9-1.6 2-1.6 2zm-113.6-15.6c-6 0.5-7.9-0.5-10.9 0.7-1 0.5-1.4 0.8-1.1 1.2 1.4 2.2 9.5 3.7 12.7 4.2 9.8 1.5 23.5 0.1 32.3 0 2.3 0 17.3 1.9 19.4 2.6 9.7 2.9 24.9 8 25.3 7.7 0.3-0.1 0.4-0.9 0.3-1.2-0.4-0.7-7.4-6.6-9.2-7.7-5.4-3.4-14.3-6.6-20.6-7.5-3.9-0.5-7.9-0.5-12.3-0.7-5.4-0.4-32.1-0.4-33.3 0-1 0.3-2 0.7-2.6 0.7zm113.7-1.5c0 0 1.1 0.2 2.1 0.2 1.1 0.1 12.9-3.3 19-5 4-1.2 16.4-2.5 20.5-2.6 5.2-0.1 15.7 1 21.8 0.8 4.6 0 15.2-0.5 19.6-3 1.1-0.7 2.4-1.6 2.4-1.6 0 0-1.6-0.7-3-1.2-1.1-0.3-3.8-0.5-5.5-0.4-4.1 0.3-26.5-0.6-39.5-0.6-7.9 0-21.8 1.1-29.2 6.7-0.9 0.6-1.7 1.4-2.5 2-0.5 0.4-1.2 0.6-1.9 1.2-1.6 1.2-3.8 3.5-3.8 3.5zm-119.5-11.4c0 0 2.1 1.1 3.7 1.7 4.3 1.9 13.2 2.5 17.3 2.6 5.4 0.1 16.6-1 21.9-0.9 7.2 0.2 18.5 2.2 26.5 4.5 6.2 1.8 14.9 4.7 14.9 4.7 0 0-2.2-2.6-3.9-4.4-7.2-7.3-20.2-9.9-29.6-10.9-3-0.3-37.4-0.2-38.2 0.2-0.5 0.1-0.8 0.3-1.2 0.5-1.5 0.3-4.7 0.4-6.7 0.5-1 0.1-1.8 0.1-3 0.7-0.8 0.3-1.7 0.8-1.7 0.8zm117-6.7c0 0 20.4-4.6 29.4-6.2 8-1.4 21.4-2.1 30.9-0.5 1 0.2 1.8 0.4 2.9 0.4 2.8 0.2 14.7-1.9 16.8-2.7 0.7-0.3 2.3-1.7 2.3-1.8-0.2-0.3-0.4-0.5-0.6-0.6-0.3-0.3-0.5-0.3-1.2-0.4-16.7-1-46.6-3.3-60.5 0.6-5 1.4-12.6 4.3-16.7 8-1.6 1.4-3.3 3.2-3.3 3.2zm-99.4-13.8c-3.3 0.1-12.7 1.2-12.7 2.4-0.1 1.8 9.4 3.6 11.2 3.8 3.1 0.4 27.7-0.3 32.3 0 5.3 0.4 16.4 2.3 21.4 4 4.4 1.4 10.4 3.6 12.4 3.9 1.1 0.2 2.2 0.1 2-0.7-0.4-1.5-6.3-5.7-6.7-6-8.1-5.2-18.2-7-27.9-7.5-6.1-0.3-24 0-32 0.1zm99.1-3.7c0 0.7 0.8 0.6 1.5 0.3 6-1.6 12.6-3.9 18.7-5.4 2.9-0.8 15.6-2.5 18.5-2.6 10.1-0.2 27.9 0.6 31 0.4 0.5-0.1 8.7-1.5 11-3.4 0.7-0.5 0.3-1.1-0.3-1.4-0.7-0.4-7.4-1.2-10.5-1.4-8.6-0.2-37.7-0.9-46.9 0.9-7 1.2-17.1 5.3-21.9 11.2-0.5 0.5-0.9 1-1.1 1.4zm-103.4-13.7c-0.6 0-1.5 0.4-2.4 0.5-2.1 0.3-3.5-0.5-4.2 1.1-0.3 0.7 1.6 1.5 3.4 2.2 11.1 4.5 20.8 1 37.3 1.6 7 0.3 15.7 1.9 23.4 4.3 3.3 1 14.5 5.4 16 4.3 1.3-0.9-2.8-4.1-5.9-6.2-12.6-8.5-25.2-8.8-44.5-8.6-7.9 0.1-17.2 0.5-23.1 0.8zm141.6 113.8c-1.2 0.1-3-0.1-4.6 0-1.4 0-11.1 2.5-13.1 3.3-7.5 3.1-11.4 5.3-17.4 10-1.5 1.2-3.1 2.9-3.3 3.5-0.4 1 0.5 1.1 1.7 0.8 3.1-0.6 14.9-4.9 22.6-7.1 8.4-2.4 20.1-3.7 28.8-3.9 7.8-0.2 31.4 1 36.6 0.8 3.1-0.2 18.7-1.4 24.3-4.1 1.1-0.5 2-1.2 1.1-1.7-1.4-0.9-6.3-1.2-7.5-1.2-11.6-0.7-63-1.6-66-1-1.2 0.3-2.4 0.5-3.2 0.6zm-116.7-1l-65.9 0.2c-0.8 0-1 0.1-1.3 0.3-1.2 0.4-1.3 1-1.1 1.3 0.2 0.4 2.5 1.5 4.3 2.2 2.7 1 4.7 1.6 6.9 2.2 2.5 0.5 19.3 2.3 22.5 2.2 8.9-0.1 19.8-1.3 25.9-1.2 10.6 0 25.8 2.1 35.9 5.3 6.6 2 15.8 5.6 19.3 6.3 1.1 0.3 1.8 0.3 1.4-0.9-0.7-1.9-9.8-8.3-11.6-9.4-5.2-3.2-14.3-6.5-20-7.4-3.5-0.6-9.7-0.8-14.6-1.1-0.8 0-0.9 0-1.7 0zm-161.7-498.2l49.9 127.4c0 0-7.7 3.1-12.3 5.2-12.8 5.6-25.5 18.9-30.4 32.6-5.2 14.4-4.3 29 1.1 41.6 2.7 6.7 9.4 18.8 16.1 22.8 0.7 0.4 1.3 0.6 2.1 0.7 1.5 0.3 20.4-1.8 21.1-1.5 2.4 1 1.8 5.4 1.9 9.6 0.1 5.1 3 15.6 4.9 19.7 5.2 12.1 15.7 23 25.3 30.2 14.7 11 30.9 18.3 50.1 20 9.4 0.8 31.5-0.4 40.1-6.9 3.1-2.2 6.3-6.8 7.3-10.5 0.7-2.4 1.7-11.4 1.7-11.4 0 0 11.9 0.1 13.1 0.5 0.6 0.2 1 0.3 1 1.1-0.1 0.2-0.1 0.3-0.6 0.9-9.7 14.6-27.6 41.6-29.4 43.7-1.6 1.9-3.4 3.7-5.1 5.4-0.5 0.6-0.7 0.6-1.4 0.6-34.3-2.1-87.9-5.2-102.8-6.5-18.7-1.6-37.1-3.6-55.6-5.5-0.8-0.1-0.9-0.1-1.4 0.1-1.1 0.4-1.8 1.4-1.5 2 0.3 0.9 2 1.4 2.9 1.7 2.6 0.6 6 0.9 9.2 1.3 13.8 1.6 115.1 9.6 132.8 11.5 4.7 0.4 18.5 0.9 19.9 0.6 2.1-0.5 3.3-1.3 5.3-3.3 7.6-7.6 29.2-38.7 33.3-46 2.5-4.3 3.8-9.6-0.8-11.7-3.8-1.7-12.9-1.3-19.3-1.3-0.8 0-1-0.1-1.5-0.6-14.3-14.8-18.2-19.6-36.1-27.2-7-3-12.4-3.4-20.5-1.5-5.1 1.4-8.2 3.1-12.5 6.3-7.2 5.3-11.9 11.7-9.9 20.9 0.5 2.6 2.1 5.6 3.9 8.6 2 3 5 7.4 5 7.4l-7.3-5.8c-0.6-0.4-0.7-0.5-1.3-0.5q-0.5 0-1 0.1c-0.6 0.2-4.5 5-5.3 5.5-0.8 0.5-2.1 0.3-2.5-0.6-0.2-0.3-0.2-0.8-0.1-1.2 0.4-2 3.2-8.4 3.3-9.7 0.2-2.6-1.1-3.9-4.1-5.5l-3.6-2-6.6 11.3c0 0-4.3-3.4-7.1-5.9-10.2-9.2-14.6-21.4-15.7-35.1-0.1-1.6-0.1-2.8 0-5 0.2-2 0.6-4.7 0.6-4.7 0 0 1.7-0.6 3.2-1.1 2.4-0.8 8.8-2.1 12.1-2.4 14.1-1.5 45.7-5.8 68.6-8.7 0.7-0.1 0.9-0.2 1.4-0.8l23-27.5c0.5-0.6 0.6-0.7 0.9-1.4 1.2-2.1 0.8-3.7-1.6-4.2-0.5-0.1-0.7-0.1-1.5 0l-95.2 13.1c-0.8 0-1 0.1-1.8 0.2-3.4 0.3-9.5 0.8-10.2 0.6-0.8-0.2-4.2-3.7-7.1-5.8-2.1-1.6-7.2-4.4-9.3-4.2-3.1 0.4-8.5 5.3-11.8 7.5-2.7 1.7-10.1 7.8-10.4 8.6-1 1.7-2.2 5.6-2.2 5.6 0 0-0.9-0.5-1.6-1.2-1.9-1.6-3.5-8.2-3.9-10-0.4-1.8-1-17.2-0.7-19.1 1.6-11 7.7-23.3 15.5-30.9 3.3-3 18.5-14.4 26.4-14.1 1.3 0 2.4 0.6 2.4 2 0.1 0.8-0.6 1.5-1.7 2.2-1.5 0.9-4.2 1.7-5.3 2.6-2 1.5-2.5 3.9-2 6.3 1.1 5.1 4.1 11.3 7.5 11.8 0.7 0.1 7.1-1.6 9.5-2.6 6.1-2.3 14.9-5.8 14.9-5.8 0 0 2.9 5.2 5.4 10.7 2.4 5.2 4.4 10.6 4.4 10.6l26.3-10.1c0 0-5.7-18.1-5.6-18.9 0.1-0.8 1.1-1.7 2.7-3 9-6.9 20.3-10.1 20.6-13.6 0.1-0.8-3.1-12-5.4-14.7-0.7-0.8-1.4-1.1-2.3-1.1-1.2 0.1-13.2 4.4-13.2 4.4l-62.3-150.5c0 0-4 1.5-5.9 2-3.9 1.2-7.1-3.4-10.2-7.4-0.9-1.3-1.6-2.3-2.5-3.4-0.6-0.8-4.2-3.6-4.8-3.7-0.5-0.1-4.7 1.1-5.4 1.5-0.7 0.5-1.4 1-2.1 1.4-7.2 4.3-11.8 3.5-13.7 8.6-0.3 1-0.7 8.5-0.5 10.3 0.3 3 0.4 7.6 0.1 8.1-0.3 0.6-1.6 1.8-2.4 2.3-0.9 0.6-2 1.1-2.3 1.7-0.2 0.3-0.1 2.4 0.2 3.1 1.6 4.6 2.7 5.1-0.4 7.4-4.1 2.8-12.7 7.2-13.5 10.7-0.4 1.3-0.1 4-0.3 5.8-0.2 1.4-0.6 2.1-1.6 3.3-1.8 2.2-11 10-16.1 15.1-1.8 1.7-9.1 11.5-10.4 13.9-1.1 1.9-5.1 12.4-5.4 13.9-0.7 5.3-0.8 10.8 1.3 15.5 0.8 2 2 4 3 5.4 1.2 1.5 14.6 12.3 16.1 14.2 3.9 4.5 6.9 13.7 7.8 20.3 0.3 2.1 0.2 12.4 0 14.6-1.2 7.7-3.6 14.4-8.6 20.2-3.3 3.9-8.7 8.7-11.1 11.6-8.4 10.6-11.8 26.6-9.4 39.5 2 11.2 9.1 26.1 14.7 35.6 1.6 2.5 5.8 8.1 6.9 9.2 1.1 0.9 2.2 1.7 3.1 2.7 0.7 0.9 1.3 1.8 2 2.8 1.9 2.6 10.3 10.8 11.5 12.7 0.5 0.7 0.8 1.3 1.3 1.9 0.8 1.1 1.7 2.1 2.5 3.1 3.6 4.6 5.7 11.7 5.7 16.5 0 4.2-0.4 7.4-1.9 10.5-1.5 3.1-5.3 8.3-7.1 11.8-3.2 6.6-2.9 13.5 2.2 19.4 3.9 4.6 8.7 5.2 14.5 6.1 5.6 0.9 45.5 4.6 58.6 5.5 41.6 2.7 105.1 7.1 105.1 7.1 0 0 9.1-11.4 11.8-15.5 3.1-4.7 5.8-9.7 7-11.1 1.1-1 3.5-3.5 2.5-5.4-0.5-1.1-2.1-0.7-2.9-0.2-0.7 0.5-3 3.2-4.5 5.3-5.7 8.4-15.4 22.7-15.4 22.7 0 0-133-8-142.3-9-3.5-0.3-21.9-1.6-26.8-4.3-3.6-2-6.5-5.7-7.4-9.2-0.3-0.9-0.3-4.4 0-5.7 0.4-1.8 9.3-22.3 9.8-24.4 1.7-7.7-1-14.3-5.7-21.1-2.5-3.6-24-28.8-26.3-32.1-6.7-9.8-12.5-23-14.4-33.8-0.4-2.5-0.9-13.1-0.7-15 0.7-4.9 3.3-11.4 6.5-16.3 1.9-2.9 9.8-11.7 14.2-17.6 8.5-11.4 11.1-23.4 9.1-37.9-1.3-9.2-7.5-20.9-14.4-27.6-3.5-3.5-9.6-8.7-10.4-9.9-2.9-4.5-4.2-13-3.7-17.7 1-7.5 7-16.2 11.7-22.7 1.7-2.3 11.7-13 13-13.9 3-2.1 6.6-3.8 7.4-6.9 0.9-4.3-0.3-5.5 1.3-7.4 0.6-0.7 2-1.6 3.7-2.6 3.8-2.2 10-5.4 10-5.4zm8.4 260.7c-0.2 2.2 0.7 3.7 1.6 5.2 0.5 0.7 3.5 3.4 3.7 3.3 0.4-0.1 2.9-5.3 3.7-6.1 1.1-1 3.7-2.5 5.2-2.5 1-0.1 3.6 0.9 5.2 1.1 1.4 0.2 1.5-0.6 1.7-2.4 0.4-4.1-4.2-9.6-7.9-10-2.4-0.3-7 1.7-9 3.5-1.6 1.5-4 5.1-4.2 7.9zm101.8-35.4l-44.3 5.7-2.3 0.9 0.2 2.4 7.4-0.4 66.3-8c0.8-0.1 0.9-0.1 1.7-0.3 5.1-0.8 9.2-6.6 12.6-10.6 6-6.6 15.1-16.9 16-18.5 0.7-1.2 1.1-3.4-0.9-3.9-0.3 0-0.4 0-0.9 0.6l-26.2 28.1-27.9 3.8zm-123.2-151.6c-0.2 0.9 0.7 1.7 1.3 1.9 3.5 1.6 6.6 1.6 8.8-1.5 1.3-1.8 2.2-5.3 0.5-5.5-0.4-0.1-3.9 2.4-5.7 3.1-0.8 0.3-4.3 0.7-4.9 2zm469.5 18.3c1.8 26.5 10.3 50.9 23.5 72.7 1.4 2.3 2.8 4.5 4.4 6.4 1.3 1.5 1.8 1.5 2.7 0.2 3-4.7 8.2-26.6 8.8-32.1 0.8-7.3 1.1-26.8 0.6-32.7-0.3-2.7-4-19.4-5.2-22.7-4.2-12.8-9.7-24.8-17.7-33.8-1.7-1.8-10-9.1-10.7-9.3-1-0.2-1.5 0.6-2 2-2 5.2-3.9 31.2-4.1 34.8-0.3 5.2-0.5 10.9-0.3 14.5zm-478.1-29.9c-0.1 2.6 1.3 7.4 3.8 8.5 3 1.4 3.1-3.4 5.3-6 1.5-1.8 4.8-2.6 7.4-1.8 1.2 0.4 2.4 1.3 3 1.3 0.3 0 1.5-1.1 1.6-1.6 0.8-2.5-2-8.1-4.9-9.6-3.3-1.7-6.8-1-10.3 0.8-1.5 0.7-2.1 1.1-3.1 2.1-2.2 2.3-2.6 3.8-2.8 6.3zm478.6-77.9c-0.1 1.1-0.1 2.1 0.1 3.2 0.6 7.1 7.1 27.2 10.1 34.5 5.4 13.4 12 23 22.3 30.1 1.8 1.3 13.2 6.9 13.8 6.9 0.8-0.2 1.2-0.7 1.5-2 0.4-1-0.2-19.2-0.6-22-3.3-22.1-7.4-36.5-18.2-58-5.1-10.3-14.8-25.3-23.3-32.7-2.3-1.9-5.1-4.2-5.1-4.2l-1.1 38.6 0.4 3.9c0.1 0.8 0.1 1 0.1 1.7zm-426.1-16.6c0.7 1.1-0.5 2.1-0.7 2.3-3.6 2.1-21.3 10.1-22.8 8.9-1.2-1-1.7-13-0.9-15.6 0.7-2.2 4.5-4.4 9.9-6.2 4.2-1.3 5.6-0.6 9 3.2 1.9 2 4.3 5.5 5.5 7.4zm88.8 150.1l-67.1 27.5-2.9 0.6v-1.5l67.3-27.6c0.7-0.3 0.9-0.4 1.7-0.4 2.1-0.2 2.2-0.1 1.9 0.7-0.1 0.3-0.1 0.4-0.9 0.7zm-67.4 36.6c0 0-0.4-0.6-0.4-0.9 0.6-0.6 0.6-0.7 1.4-1l66.2-27.2 1.9-0.1c0 0 0 0.5 0 0.7 0 1.9-3.6 3.4-6.5 4.9-5.4 2.8-14.5 6.9-14.5 6.9l-2-1.4zm45.6 7.2l-6.1-14.5c-0.3-0.7-0.3-0.9-0.4-1.5-0.2-1.3-0.1-1.4 1.1-1.9 1.1-0.4 3.1-1.2 3.1-1.2 0 0 6.8 17.3 6.8 18.2 0 0.3-1.8 3-3.4 2.2q-0.3-0.1-0.5-0.3c-0.2-0.2-0.2-0.3-0.6-1zm7.4-3c-0.5-0.8-0.8-1.6-1.1-2.6-1.5-4.2-3.9-12.9-3.9-12.9 0 0 0.4 0 0.7 0 0.7 0 1.5 0.5 1.9 1.1 0.2 0.2 0.2 0.4 0.5 1.1l4.4 12.8v1.2h-1.4c-0.6 0.1-0.8 0-1.1-0.7zm-12 5.1c0.6 1.6-0.1 2.2-1.3 2.8-3.5 1.7-4.3 2.5-5 1.1-1.2-2.1-5.6-14.2-6-16-0.2-1.2 0-2.6 0.7-3.4 0.5-0.5 3.2-1.9 3.6-1.9 1.4 0.1 5.7 11.4 8 17.4zm-72.4 53.9l16.6-14c0.6-0.6 0.7-0.7 0.9-1.1 0.5-0.8 0.7-1.9 0-2.1-0.1-0.1-0.3 0-0.4 0-0.2 0-0.3 0.1-0.9 0.5l-17.6 12.7c0 0-0.2-2.1-0.2-3.6-0.1-2.2 0.3-4.7 1.5-6 0.4-0.5 0.6-0.6 1.2-1l16.9-12c0.6-0.5 0.7-0.5 1.3-0.6 2.1-0.4 6.2 2.1 7.3 3.7 1.1 1.5 2.6 4.9 2.6 4.9l-13.4 11.4c-3.3 3-12.2 9.4-13.1 9.6-0.5 0.2-0.9 0.2-1.7-0.8-0.4-0.6-1-1.6-1-1.6zm102.8-2l-77.8 9.7c-0.8 0.1-1 0.1-1.7 0.1-4.5 0.4-13.7 1.7-15.7 0-0.9-0.8-2.1-2.2-2.1-2.2 0 0 12.4-10.8 19.1-16.2 3.5-2.9 4.8-3.6 7.9-4.7 1.7-0.6 48.4-6.1 67.2-8.9 6.7-1.1 35.5-3.9 35.7-3.6 0.1 3.1-14.9 19.9-15.9 20.8-3.4 2.8-6.8 3-15 4.7-0.7 0.2-0.9 0.2-1.7 0.3zm50.5 68.3c0.4 1.2-0.5 3.7-0.8 4.3-3.8 8.7-11.4 9.4-22.5 8.7-3.9-0.2-6.4-0.7-9.7-1.9-2.3-0.9-16-8-18.3-9.7-7.1-5-12.4-11.3-13.7-20.1-1.4-9.3 2.6-14.7 11.4-16.2 15-2.7 34.5 9.2 45.8 21 4.1 4.4 5.7 7.9 7.8 13.9zm-69.6-169.3c0.2 0.8 0 1.3-0.5 1.6-0.8 0.4-2.7 1.2-2.7 1.2l-58.8-138.7c-0.2-0.7-0.3-0.8-0.5-1.1-1.1-1.2-2.7-0.8-3.7 0.1-0.3 0.3-0.3 0.4 0 1.1 15.6 38.1 45.4 111.3 46.9 114.2 0.6 1.1 1.2 2.2 1.9 3.6 2.7 5.5 9.3 21.9 9.3 21.9l-38.2 16-57.7-143.5c-0.3-0.7-0.3-0.9-0.5-1.7-0.3-1.9-0.1-2.2 1.9-3 10.7-4.1 42.9-17.6 42.9-17.6l59.3 144.6c0.3 0.7 0.3 0.8 0.4 1.3zm-85.7-122.4c0.9 3.5 4.8 13.8 8.1 21.9 14.6 35.8 33.5 82.9 39.9 97.5 1.8 4.1 3.9 8.5 7.7 7.4 2.5-0.7 2.8-2.9 2.4-5-0.2-1.5-48-119-49.3-121.1-1.3-2.4-2.6-4.2-4.8-4.6-0.3-0.1-2 0.6-2.4 1.1-0.6 0.6-1.7 2.5-1.6 2.8zm-4.8 0.8l-2.6-2.3c0 0 1.3 6 2.7 11.2 1 4.1 11.2 33.9 13.2 38.8 7 16.7 25.6 64.2 31.1 79.1 1 2.8 3.8 8.5 4.2 8.8 0.6 0.4 1.6 0.6 2.6-0.2 0.4-0.5 0.4-0.6 0.1-1.3-22.9-58.4-29.3-75.3-50.3-132.7-0.3-0.7-0.4-0.9-1-1.4zm93.7 296.4c1 0.8 2.6 2 3.7 2.5 1.5 0.8 2.5 1.1 3.4-0.3 0.7-1 0-2.4-0.9-3.7-3-4.4-9.3-9-9.8-12.3-0.2-1.8-0.2-5.1-0.2-5.1 0 0 4.2 7.6 6.5 10.6 2.3 3.3 7.5 7.5 10.8 9.5 4.5 2.6 22 10.5 23.2 11.4 0.7 0.6 1.4 1.3 1.4 1.3 0 0-9.1 0.1-14.7-0.4-3.2-0.3-17.3-2.8-18.6-4.2-0.4-0.6-1.4-4.2-2.2-5.5-0.7-1.2-2.1-2.8-3-3.8zm-0.5-0.2l-0.6-0.6 0.5 0.3zm0.5 0.3l-0.6-0.5-0.2-0.7c0 0 0.7 0.3 0.9 0.7 0.1 0.2 0 0.5 0 0.5zm-81.3-21.3c-0.8 0.5-7.1 2.7-7.5 4.7-0.3 1.5 3.2 2.2 4.3 2 2.5-0.6 4.9-3.3 5.3-5.5 0.2-0.6 0-1.5-0.8-1.7-0.3-0.1-0.5 0-0.7 0.2zm330.8-321.9c0 0 11.9-0.6 20-1.4 18.9-2 26.4-6.7 46.5-15.1 1.3-0.6 4.7-1.3 6.1-1.4 3.1-0.1 7.8 0.4 7.8 0.4 0 0-2.3 2.5-4.4 4.7-3.6 3.6-12.5 10.5-14.8 13l-1.5 1.6c-0.8 0.9-4.5 3.3-5.3 3.6-4 1.3-23.1 0.8-27.9 0.2-4.7-0.7-26.5-5.6-26.5-5.6zm107.9-36.5h-2.1c0.6-0.1 1.3 0 2.1 0zm-105.4 142.9c0 0-1 1.3-2 2.4-1.2 1.2-4.4 3-5.1 3.8-0.4 0.5-0.6 1.5-0.9 3.6-0.2 1.6-0.6 4.1-0.6 4.1 0 0-2.4-0.6-4.1-1.1-3.6-1.2-3.9-2.5-6.7-1.6-1.7 0.6-4.5 2.1-4.5 2.1 0 0-2.1-7.8-2.6-8.7-0.3-0.6-5-3.1-7.5-4.9-1.9-1.4-1.8-2.3 0.3-4.3 1.9-1.8 2.5-1.5 2.9-3.3 0.9-3.3 0.4-5.4 1.8-5.8 0.7-0.3 5.6 0.5 7 0.4 1.2-0.2 4.8-2.1 7-2.6 2-0.6 3 1 3.2 3.9 0.3 2.5-0.1 3 1.3 4.5 1.3 1.3 10.5 7.5 10.5 7.5zm110 256.9c-4.9 13.7-12.4 33.8-15.8 47.9-1.1 4.6-2.4 10.6-2.4 10.6 0 0-3.3-10.4-6.3-18.3-0.8-2.4-13.2-25.5-14.9-28-2.5-3.5-6.2-8.6-5.5-10.4 0.9-2.5 14.1-8.2 16-9.6 0.8-0.5 1.5-1.1 2.2-1.7 1.3-1 2.8-1.7 4.2-2.7 1.9-1.2 13.9-13.3 18.3-16.9 1.7-1.5 2.1-1.6 2.5-0.1 1.7 5.1 2 20.8 2 27.6 0 0.7 0 0.9-0.3 1.6zm-86.1-179c7-2.1 2.9-7.8 10.7-7.8 47.6 0 86.2 41.5 86.2 92.6 0 51.2-38.6 92.7-86.2 92.7-34.6 0-52.8-17.2-66.6-48.7 36.7-14.7 62.6-50.6 62.6-92.6 0-12.8-2.3-25.1-6.7-36.2z"/><path class="f" d="m394.1 485.7c0-54.7 44.2-99 98.8-99 54.5 0 98.8 44.3 98.8 99 0 54.7-44.3 99.1-98.8 99.1-54.6 0-98.8-44.4-98.8-99.1z"/><path class="g" d="m394.1 485.7c0-54.7 44.2-99 98.8-99 54.5 0 98.8 44.3 98.8 99 0 54.7-44.3 99.1-98.8 99.1-54.6 0-98.8-44.4-98.8-99.1z"/><path class="e" d="m213.4 324.1l49.6 127.1c0 0-7.7 3.1-12.2 5.1-12.7 5.7-25.4 18.9-30.3 32.6-5.1 14.3-4.2 28.9 1.1 41.5 2.7 6.7 9.4 18.8 16 22.7 0.7 0.4 1.3 0.6 2.1 0.8 1.5 0.3 20.4-1.9 21.1-1.6 2.3 1 1.7 5.4 1.8 9.6 0.1 5.1 3.1 15.6 4.8 19.7 5.3 12.1 15.8 22.9 25.4 30.2 14.5 10.9 30.6 18.2 49.7 19.9 9.5 0.7 31.4-0.5 40-6.9 3.1-2.2 6.3-6.9 7.3-10.4 0.7-2.5 1.7-11.5 1.7-11.5 0 0 11.9 0.2 13 0.5 0.6 0.2 1 0.4 1 1.1-0.1 0.2-0.1 0.3-0.6 1-9.6 14.5-27.5 41.5-29.3 43.6-1.6 1.9-3.3 3.6-5 5.3-0.5 0.5-0.7 0.6-1.5 0.5-34.1-2-87.5-5.1-102.3-6.4-18.6-1.5-36.9-3.6-55.4-5.5-0.7-0.1-0.9-0.1-1.4 0.1-1.1 0.4-1.8 1.4-1.5 2.1 0.4 0.8 2 1.3 3 1.5 2.6 0.7 5.9 1.1 9.1 1.4 13.7 1.6 114.6 9.6 132.2 11.5 4.8 0.5 18.5 0.9 19.8 0.6 2.2-0.5 3.3-1.3 5.4-3.3 7.5-7.6 29-38.6 33.1-45.9 2.4-4.3 3.7-9.6-0.8-11.7-3.8-1.7-12.9-1.2-19.2-1.2-0.8 0-1-0.1-1.5-0.7-14.3-14.7-18.2-19.5-35.9-27.1-7.1-3-12.5-3.4-20.5-1.5-5.1 1.3-8.2 3.1-12.5 6.3-7.1 5.3-11.7 11.6-9.8 20.9 0.5 2.5 2.1 5.5 3.9 8.5 2 3.1 5 7.3 5 7.3l-7.3-5.6c-0.6-0.5-0.7-0.5-1.2-0.5-0.4-0.1-0.7-0.1-1.1 0-0.6 0.3-4.4 5-5.3 5.6-0.8 0.4-2 0.2-2.4-0.7-0.2-0.3-0.2-0.8-0.1-1.2 0.3-1.9 3.1-8.4 3.2-9.7 0.2-2.6-1-3.9-4.1-5.5l-3.5-2-6.6 11.3c0 0-4.3-3.4-7.1-5.9-10.2-9.2-14.5-21.3-15.6-35-0.1-1.5-0.1-2.8 0-5 0.3-2 0.6-4.7 0.6-4.7 0 0 1.7-0.6 3.2-1.1 2.4-0.8 8.8-2 12-2.3 14-1.5 45.5-5.9 68.3-8.7 0.8-0.1 0.9-0.2 1.4-0.8l22.9-27.4c0.5-0.6 0.6-0.8 1-1.4 1.1-2.2 0.8-3.8-1.7-4.2-0.5-0.2-0.7-0.2-1.4-0.1l-94.9 13.1c-0.8 0.1-0.9 0.1-1.7 0.2-3.4 0.3-9.5 0.9-10.3 0.6-0.7-0.2-4.1-3.7-6.9-5.8-2.2-1.6-7.2-4.4-9.3-4.1-3.1 0.3-8.5 5.2-11.8 7.4-2.6 1.7-10 7.8-10.4 8.5-0.9 1.7-2.1 5.8-2.1 5.8 0 0-0.9-0.6-1.7-1.2-1.8-1.7-3.4-8.2-3.8-10.1-0.4-1.7-1-17.1-0.7-19 1.5-11 7.6-23.3 15.5-30.8 3.2-3.1 18.4-14.4 26.3-14.1 1.2 0 2.2 0.6 2.3 2 0.1 0.7-0.6 1.5-1.7 2.1-1.4 1-4.1 1.8-5.3 2.6-2 1.5-2.4 3.9-1.9 6.4 1 5.1 4.1 11.2 7.4 11.7 0.7 0.1 7.1-1.6 9.5-2.6 6.1-2.3 14.8-5.8 14.8-5.8 0 0 2.9 5.3 5.4 10.7 2.4 5.1 4.4 10.5 4.4 10.5l26.2-10c0 0-5.7-18-5.6-18.8 0.1-0.8 1.1-1.7 2.7-3 8.9-7 20.3-10.1 20.5-13.6 0.1-0.8-3.1-12-5.4-14.7-0.7-0.8-1.3-1.1-2.2-1-1.3 0-13.2 4.3-13.2 4.3l-62.1-150.1c0 0-4 1.5-5.9 2-3.8 1.1-7-3.4-10-7.5-1-1.2-1.7-2.2-2.5-3.3-0.7-0.8-4.3-3.6-4.8-3.7-0.6-0.1-4.8 1.1-5.5 1.5-0.6 0.5-1.3 1-2 1.4-7.2 4.3-11.8 3.5-13.6 8.6-0.4 1-0.8 8.5-0.6 10.3 0.3 3 0.4 7.5 0.2 8-0.3 0.6-1.7 1.9-2.5 2.4-0.8 0.5-1.9 1-2.2 1.6-0.2 0.3-0.1 2.4 0.2 3.2 1.6 4.6 2.7 5.1-0.5 7.3-4 2.8-12.5 7.2-13.4 10.7-0.4 1.2-0.1 4-0.3 5.8-0.1 1.4-0.6 2-1.5 3.3-1.9 2.1-11 9.9-16.1 15-1.7 1.7-9.1 11.5-10.4 13.9-1.1 1.8-5.1 12.4-5.3 13.8-0.8 5.3-0.8 10.8 1.2 15.6 0.9 1.9 2 3.9 3.1 5.3 1.1 1.5 14.4 12.3 16 14.2 3.8 4.4 6.8 13.6 7.8 20.2 0.3 2.1 0.2 12.4-0.1 14.6-1.2 7.6-3.6 14.3-8.5 20.1-3.3 3.9-8.7 8.7-11 11.6-8.4 10.5-11.8 26.5-9.5 39.4 2.1 11.2 9.1 26.1 14.7 35.5 1.6 2.6 5.8 8.1 6.9 9.2 1 0.9 2.1 1.7 3.1 2.7 0.7 0.8 1.2 1.8 1.9 2.8 2 2.6 10.3 10.8 11.5 12.7 0.5 0.6 0.8 1.3 1.3 1.9 0.8 1.1 1.7 2.1 2.5 3.1 3.5 4.5 5.7 11.6 5.7 16.4 0 4.2-0.4 7.4-2 10.5-1.4 3.1-5.2 8.3-7 11.8-3.2 6.5-2.9 13.4 2.2 19.4 3.9 4.5 8.6 5.2 14.5 6 5.5 0.9 45.2 4.6 58.3 5.4 41.4 2.8 104.6 7.2 104.6 7.2 0 0 9.2-11.4 11.7-15.5 3.1-4.7 5.9-9.7 7.1-11 1-1.1 3.4-3.6 2.5-5.5-0.6-1-2.2-0.6-2.9-0.1-0.8 0.4-3 3.1-4.5 5.2-5.7 8.4-15.4 22.6-15.4 22.6 0 0-132.3-7.9-141.7-8.9-3.5-0.3-21.7-1.6-26.6-4.3-3.6-2-6.6-5.8-7.4-9.2-0.3-0.9-0.3-4.4 0-5.6 0.3-1.9 9.3-22.3 9.7-24.4 1.8-7.6-1-14.2-5.7-21.1-2.4-3.5-23.8-28.7-26.1-32-6.7-9.8-12.4-23-14.3-33.7-0.5-2.5-1-13.1-0.7-15 0.7-4.9 3.2-11.3 6.4-16.2 1.9-2.9 9.7-11.7 14.1-17.6 8.5-11.4 11.1-23.3 9.1-37.8-1.2-9.2-7.4-20.8-14.3-27.5-3.5-3.5-9.6-8.7-10.3-9.9-3-4.6-4.3-13-3.7-17.6 0.9-7.5 6.9-16.3 11.6-22.7 1.6-2.3 11.6-12.9 13-13.9 2.9-2 6.5-3.7 7.3-6.9 0.9-4.2-0.3-5.4 1.3-7.3 0.6-0.7 2-1.6 3.7-2.6 3.8-2.2 10-5.4 10-5.4z"/><path class="b" d="m213.4 324.1l49.6 127.1c0 0-7.7 3.1-12.2 5.1-12.7 5.7-25.4 18.9-30.3 32.6-5.1 14.3-4.2 28.9 1.1 41.5 2.7 6.7 9.4 18.8 16 22.7 0.7 0.4 1.3 0.6 2.1 0.8 1.5 0.3 20.4-1.9 21.1-1.6 2.3 1 1.7 5.4 1.8 9.6 0.1 5.1 3.1 15.6 4.8 19.7 5.3 12.1 15.8 22.9 25.4 30.2 14.5 10.9 30.6 18.2 49.7 19.9 9.5 0.7 31.4-0.5 40-6.9 3.1-2.2 6.3-6.9 7.3-10.4 0.7-2.5 1.7-11.5 1.7-11.5 0 0 11.9 0.2 13 0.5 0.6 0.2 1 0.4 1 1.1-0.1 0.2-0.1 0.3-0.6 1-9.6 14.5-27.5 41.5-29.3 43.6-1.6 1.9-3.3 3.6-5 5.3-0.5 0.5-0.7 0.6-1.5 0.5-34.1-2-87.5-5.1-102.3-6.4-18.6-1.5-36.9-3.6-55.4-5.5-0.7-0.1-0.9-0.1-1.4 0.1-1.1 0.4-1.8 1.4-1.5 2.1 0.4 0.8 2 1.3 3 1.5 2.6 0.7 5.9 1.1 9.1 1.4 13.7 1.6 114.6 9.6 132.2 11.5 4.8 0.5 18.5 0.9 19.8 0.6 2.2-0.5 3.3-1.3 5.4-3.3 7.5-7.6 29-38.6 33.1-45.9 2.4-4.3 3.7-9.6-0.8-11.7-3.8-1.7-12.9-1.2-19.2-1.2-0.8 0-1-0.1-1.5-0.7-14.3-14.7-18.2-19.5-35.9-27.1-7.1-3-12.5-3.4-20.5-1.5-5.1 1.3-8.2 3.1-12.5 6.3-7.1 5.3-11.7 11.6-9.8 20.9 0.5 2.5 2.1 5.5 3.9 8.5 2 3.1 5 7.3 5 7.3l-7.3-5.6c-0.6-0.5-0.7-0.5-1.2-0.5-0.4-0.1-0.7-0.1-1.1 0-0.6 0.3-4.4 5-5.3 5.6-0.8 0.4-2 0.2-2.4-0.7-0.2-0.3-0.2-0.8-0.1-1.2 0.3-1.9 3.1-8.4 3.2-9.7 0.2-2.6-1-3.9-4.1-5.5l-3.5-2-6.6 11.3c0 0-4.3-3.4-7.1-5.9-10.2-9.2-14.5-21.3-15.6-35-0.1-1.5-0.1-2.8 0-5 0.3-2 0.6-4.7 0.6-4.7 0 0 1.7-0.6 3.2-1.1 2.4-0.8 8.8-2 12-2.3 14-1.5 45.5-5.9 68.3-8.7 0.8-0.1 0.9-0.2 1.4-0.8l22.9-27.4c0.5-0.6 0.6-0.8 1-1.4 1.1-2.2 0.8-3.8-1.7-4.2-0.5-0.2-0.7-0.2-1.4-0.1l-94.9 13.1c-0.8 0.1-0.9 0.1-1.7 0.2-3.4 0.3-9.5 0.9-10.3 0.6-0.7-0.2-4.1-3.7-6.9-5.8-2.2-1.6-7.2-4.4-9.3-4.1-3.1 0.3-8.5 5.2-11.8 7.4-2.6 1.7-10 7.8-10.4 8.5-0.9 1.7-2.1 5.8-2.1 5.8 0 0-0.9-0.6-1.7-1.2-1.8-1.7-3.4-8.2-3.8-10.1-0.4-1.7-1-17.1-0.7-19 1.5-11 7.6-23.3 15.5-30.8 3.2-3.1 18.4-14.4 26.3-14.1 1.2 0 2.2 0.6 2.3 2 0.1 0.7-0.6 1.5-1.7 2.1-1.4 1-4.1 1.8-5.3 2.6-2 1.5-2.4 3.9-1.9 6.4 1 5.1 4.1 11.2 7.4 11.7 0.7 0.1 7.1-1.6 9.5-2.6 6.1-2.3 14.8-5.8 14.8-5.8 0 0 2.9 5.3 5.4 10.7 2.4 5.1 4.4 10.5 4.4 10.5l26.2-10c0 0-5.7-18-5.6-18.8 0.1-0.8 1.1-1.7 2.7-3 8.9-7 20.3-10.1 20.5-13.6 0.1-0.8-3.1-12-5.4-14.7-0.7-0.8-1.3-1.1-2.2-1-1.3 0-13.2 4.3-13.2 4.3l-62.1-150.1c0 0-4 1.5-5.9 2-3.8 1.1-7-3.4-10-7.5-1-1.2-1.7-2.2-2.5-3.3-0.7-0.8-4.3-3.6-4.8-3.7-0.6-0.1-4.8 1.1-5.5 1.5-0.6 0.5-1.3 1-2 1.4-7.2 4.3-11.8 3.5-13.6 8.6-0.4 1-0.8 8.5-0.6 10.3 0.3 3 0.4 7.5 0.2 8-0.3 0.6-1.7 1.9-2.5 2.4-0.8 0.5-1.9 1-2.2 1.6-0.2 0.3-0.1 2.4 0.2 3.2 1.6 4.6 2.7 5.1-0.5 7.3-4 2.8-12.5 7.2-13.4 10.7-0.4 1.2-0.1 4-0.3 5.8-0.1 1.4-0.6 2-1.5 3.3-1.9 2.1-11 9.9-16.1 15-1.7 1.7-9.1 11.5-10.4 13.9-1.1 1.8-5.1 12.4-5.3 13.8-0.8 5.3-0.8 10.8 1.2 15.6 0.9 1.9 2 3.9 3.1 5.3 1.1 1.5 14.4 12.3 16 14.2 3.8 4.4 6.8 13.6 7.8 20.2 0.3 2.1 0.2 12.4-0.1 14.6-1.2 7.6-3.6 14.3-8.5 20.1-3.3 3.9-8.7 8.7-11 11.6-8.4 10.5-11.8 26.5-9.5 39.4 2.1 11.2 9.1 26.1 14.7 35.5 1.6 2.6 5.8 8.1 6.9 9.2 1 0.9 2.1 1.7 3.1 2.7 0.7 0.8 1.2 1.8 1.9 2.8 2 2.6 10.3 10.8 11.5 12.7 0.5 0.6 0.8 1.3 1.3 1.9 0.8 1.1 1.7 2.1 2.5 3.1 3.5 4.5 5.7 11.6 5.7 16.4 0 4.2-0.4 7.4-2 10.5-1.4 3.1-5.2 8.3-7 11.8-3.2 6.5-2.9 13.4 2.2 19.4 3.9 4.5 8.6 5.2 14.5 6 5.5 0.9 45.2 4.6 58.3 5.4 41.4 2.8 104.6 7.2 104.6 7.2 0 0 9.2-11.4 11.7-15.5 3.1-4.7 5.9-9.7 7.1-11 1-1.1 3.4-3.6 2.5-5.5-0.6-1-2.2-0.6-2.9-0.1-0.8 0.4-3 3.1-4.5 5.2-5.7 8.4-15.4 22.6-15.4 22.6 0 0-132.3-7.9-141.7-8.9-3.5-0.3-21.7-1.6-26.6-4.3-3.6-2-6.6-5.8-7.4-9.2-0.3-0.9-0.3-4.4 0-5.6 0.3-1.9 9.3-22.3 9.7-24.4 1.8-7.6-1-14.2-5.7-21.1-2.4-3.5-23.8-28.7-26.1-32-6.7-9.8-12.4-23-14.3-33.7-0.5-2.5-1-13.1-0.7-15 0.7-4.9 3.2-11.3 6.4-16.2 1.9-2.9 9.7-11.7 14.1-17.6 8.5-11.4 11.1-23.3 9.1-37.8-1.2-9.2-7.4-20.8-14.3-27.5-3.5-3.5-9.6-8.7-10.3-9.9-3-4.6-4.3-13-3.7-17.6 0.9-7.5 6.9-16.3 11.6-22.7 1.6-2.3 11.6-12.9 13-13.9 2.9-2 6.5-3.7 7.3-6.9 0.9-4.2-0.3-5.4 1.3-7.3 0.6-0.7 2-1.6 3.7-2.6 3.8-2.2 10-5.4 10-5.4z"/><path class="f" d="m597.6 454.8c7-2 3-7.7 10.6-7.7 47.1 0 85.4 41.3 85.4 92.1 0 50.8-38.3 92-85.4 92-34.2 0-52.3-17.1-65.9-48.4 36.3-14.5 61.9-50.2 61.9-92 0-12.7-2.3-24.9-6.6-36z"/><path class="g" d="m597.6 454.8c7-2 3-7.7 10.6-7.7 47.1 0 85.4 41.3 85.4 92.1 0 50.8-38.3 92-85.4 92-34.2 0-52.3-17.1-65.9-48.4 36.3-14.5 61.9-50.2 61.9-92 0-12.7-2.3-24.9-6.6-36z"/><path class="c" d="m853.8 506.7c0 0-1.4 4-2.7 7.2-0.7 2-6.9 12.4-8.3 14.1-9.2 11.3-13.9 15.5-27.5 21.1-14.5 6-23.5 0.9-33.8-12.9-2.9-4-11.9-18.3-13.7-22.9-2.6-6.7-2.9-18.7-1-26.5 1.3-5.1 6.8-19.1 10.8-23.8 0.6-0.7 1.2-1.4 1.2-1.4 0 0 0.7 0.5 1.2 1.1 0.2 0.3 0.4 3.3 0.2 4.1-3.3 12.5-4.3 27.1 1.4 38.6 0.8 1.8 3.5 5.8 5.2 7.7 1.3 1.6 8.2 7.6 9.7 8.5 7.8 4.5 13.8 4.7 22.5 1.9 2.4-0.8 34.8-16.8 34.8-16.8z"/><path class="d" d="m853.8 506.7c0 0-1.4 4-2.7 7.2-0.7 2-6.9 12.4-8.3 14.1-9.2 11.3-13.9 15.5-27.5 21.1-14.5 6-23.5 0.9-33.8-12.9-2.9-4-11.9-18.3-13.7-22.9-2.6-6.7-2.9-18.7-1-26.5 1.3-5.1 6.8-19.1 10.8-23.8 0.6-0.7 1.2-1.4 1.2-1.4 0 0 0.7 0.5 1.2 1.1 0.2 0.3 0.4 3.3 0.2 4.1-3.3 12.5-4.3 27.1 1.4 38.6 0.8 1.8 3.5 5.8 5.2 7.7 1.3 1.6 8.2 7.6 9.7 8.5 7.8 4.5 13.8 4.7 22.5 1.9 2.4-0.8 34.8-16.8 34.8-16.8z"/><path class="c" d="m50.5 546.2c0 0 1.8-0.5 3.5-0.9 2.1-0.5 9.7-0.5 11.8-0.9 2.8-0.7 13.8-6.5 15.4-7.6 13.5-8.7 18.5-31.1 16-50.1-0.1-1.3-0.4-2.4-0.9-4-1-3.1-8.8-19.3-8.8-19.3 0 0 0.5 0 1 0 0.4 0 1.3 0.7 1.8 1.3 0.8 1.2 2 2.3 3.1 3.6 5.5 6.3 12.7 19.4 14.9 26.9 1.5 5.4 2.5 15 1.7 20.4-0.2 1.7-0.9 4.1-1.7 6.2-1.4 3.2-8.3 16.3-10.5 19.7-9.5 14.9-18.8 24-34.7 17.6-3.8-1.5-9.1-5.2-10.9-8.6-0.8-1.6-1.7-4.3-1.7-4.3z"/><path class="d" d="m50.5 546.2c0 0 1.8-0.5 3.5-0.9 2.1-0.5 9.7-0.5 11.8-0.9 2.8-0.7 13.8-6.5 15.4-7.6 13.5-8.7 18.5-31.1 16-50.1-0.1-1.3-0.4-2.4-0.9-4-1-3.1-8.8-19.3-8.8-19.3 0 0 0.5 0 1 0 0.4 0 1.3 0.7 1.8 1.3 0.8 1.2 2 2.3 3.1 3.6 5.5 6.3 12.7 19.4 14.9 26.9 1.5 5.4 2.5 15 1.7 20.4-0.2 1.7-0.9 4.1-1.7 6.2-1.4 3.2-8.3 16.3-10.5 19.7-9.5 14.9-18.8 24-34.7 17.6-3.8-1.5-9.1-5.2-10.9-8.6-0.8-1.6-1.7-4.3-1.7-4.3z"/><path class="e" d="m554.6 452.3c0 0 41.7 88.3-55.5 103.6-32.1 5.1-23.9-24.8-4.2-19.8 16.1 4 44.4-13.7 51.7-32.2 8.9-22.4 8-51.6 8-51.6z"/><path class="b" d="m554.6 452.3c0 0 41.7 88.3-55.5 103.6-32.1 5.1-23.9-24.8-4.2-19.8 16.1 4 44.4-13.7 51.7-32.2 8.9-22.4 8-51.6 8-51.6z"/><path class="e" d="m669.7 507.9c0 0 28.8 88.9-55.4 103.7-32 5.6-23.9-24.9-4.2-19.9 16 4 41.2-13.7 48.5-32.2 8.8-22.4 11.1-51.6 11.1-51.6z"/><path class="b" d="m669.7 507.9c0 0 28.8 88.9-55.4 103.7-32 5.6-23.9-24.9-4.2-19.9 16 4 41.2-13.7 48.5-32.2 8.8-22.4 11.1-51.6 11.1-51.6z"/><path class="b" d="m722.8 233.7c0 0-0.3 469-1.1 499.3-0.9 30.3-19.9 76.2-52.2 100.9-32.2 24.7-68.3 38.8-119.6 60.2-51.3 21.3-111.1 41.6-111 41.7 0 0.1-59.8-20.4-111-41.7-51.3-21.4-87.5-35.5-119.7-60.2m219.6-600.2h248.4m2.1 0h44.3"/><path class="h" d="m676.1 233.7c-0.4 0.1-0.8 0.1-1.1 0.2-0.9 0.4-9.8 8.3-12.6 10.3-3 2-5.8 2.6-9.2 2.4-3.7-0.2-15.6-2.1-18.5-2.9-6.3-1.8-13.2-4.8-18.6-6.2-11.2-3-26.7-3.3-35.7-2-3 0.4-33 8.4-49.4 12.8-0.8 0.2-1 0.2-1.5 0.2-0.4-0.1-0.7-0.2-1.1-0.3-3.2-1.1-12.6-6.3-18.1-8.5-1.6-0.7-21.6-4.3-24.2-4.5-8.2-0.4-19-0.2-26.5 1.7-4.3 1.1-33.9 12-35.1 12.1-2.7 0-7.8-0.1-9.5 0.2-2.3 0.5-5.4 1.3-5.4 1.3 0 0 2.1 1.9 3.9 3.5 11.5 9.8 41 18 53.8 19.2 15.6 1.4 31.2 0.3 44.8-5 6.1-2.3 12.8-5.6 19.1-8.5 0.6-0.3 0.8-0.3 1.6-0.1l22.9 8.1c0 0-12.2 0.3-20.4 0.9-15.6 1.1-36 7-48.6 14.7-3.9 2.4-9.9 7-14.8 10.6-0.6 0.4-0.8 0.5-1.5 0.3-6.7-1.8-16.3-4.4-20.4-5.1-4.4-0.7-12.6-1.1-18.8-1.6-0.8 0-0.9-0.1-1.5-0.6-19-14.7-20.9-17.6-38.8-24.3-6.2-2.3-13.6-4.5-20.6-6.1-0.8-0.1-0.9-0.2-1.7-0.2l-66-3.9c0 0 1 2 2 3.8 0.9 1.5 7.8 9.6 9.6 11.2 14.4 13.1 15.4 14.5 33.3 25.3 3.6 2.2 10.2 5.6 12.7 6.5 6.1 2.2 16.2 6.1 16.7 6.7 0.4 0.5 0.6 0.8 0.5 1.2-0.1 0.6-5.3 5.2-9.4 8.6-1.1 1-7.2 8.4-7.3 9-0.1 1.4 0.3 2.3 1.8 2.3 1.6 0 11.2-2.4 17-3.5 1.6-0.3 12.4-0.2 14.5 0.1 10 1.5 39.4 7.7 43.6 8.2 10.9 1.1 26.4 0.4 37.2-2.2 5.5-1.3 30.9-10 34-10.5 4.8-0.9 16.9-1.8 22.8-2.8 5.3-1 17.5-4.3 22-6.2 3.1-1.3 31.1-17.2 33.4-18.1 2.9-1.1 7.1-2.1 11.5-2.4 1-0.2 9.5-1.2 10.4-0.6 0.4 0.2 0.8 0.7 0.8 0.7 0 0-17 18.6-28.4 31.9-3.7 4.4-14.6 18.7-16 21.3-1.1 1.7-2 3.5 0.2 4 2.1 0.4 4.8-3.7 6.2-5.9 2.1-3.1 3.7-5.7 5.7-8.4 1.6-2.3 27.3-30 33.4-36 9.6-9.6 32.1-30.8 36-34 11.6-9.5 29-21.6 33.6-25.6 1.3-1.2 2.1-2.3 0.7-2.9-0.6-0.3-1.7-0.3-2.6-0.4zm-105.5 36.2c0 0 11.9-0.6 20-1.4 18.8-2 26.3-6.7 46.3-14.9 1.4-0.6 4.7-1.3 6.1-1.4 3-0.1 7.8 0.4 7.8 0.4 0 0-2.3 2.5-4.4 4.6-3.6 3.6-12.5 10.4-14.8 12.8l-1.5 1.6c-0.8 0.9-4.4 3.4-5.3 3.6-3.9 1.3-23 0.8-27.8 0.2-4.6-0.6-26.4-5.5-26.4-5.5z"/><path class="b" d="m676.1 233.7c-0.4 0.1-0.8 0.1-1.1 0.2-0.9 0.4-9.8 8.3-12.6 10.3-3 2-5.8 2.6-9.2 2.4-3.7-0.2-15.6-2.1-18.5-2.9-6.3-1.8-13.2-4.8-18.6-6.2-11.2-3-26.7-3.3-35.7-2-3 0.4-33 8.4-49.4 12.8-0.8 0.2-1 0.2-1.5 0.2-0.4-0.1-0.7-0.2-1.1-0.3-3.2-1.1-12.6-6.3-18.1-8.5-1.6-0.7-21.6-4.3-24.2-4.5-8.2-0.4-19-0.2-26.5 1.7-4.3 1.1-33.9 12-35.1 12.1-2.7 0-7.8-0.1-9.5 0.2-2.3 0.5-5.4 1.3-5.4 1.3 0 0 2.1 1.9 3.9 3.5 11.5 9.8 41 18 53.8 19.2 15.6 1.4 31.2 0.3 44.8-5 6.1-2.3 12.8-5.6 19.1-8.5 0.6-0.3 0.8-0.3 1.6-0.1l22.9 8.1c0 0-12.2 0.3-20.4 0.9-15.6 1.1-36 7-48.6 14.7-3.9 2.4-9.9 7-14.8 10.6-0.6 0.4-0.8 0.5-1.5 0.3-6.7-1.8-16.3-4.4-20.4-5.1-4.4-0.7-12.6-1.1-18.8-1.6-0.8 0-0.9-0.1-1.5-0.6-19-14.7-20.9-17.6-38.8-24.3-6.2-2.3-13.6-4.5-20.6-6.1-0.8-0.1-0.9-0.2-1.7-0.2l-66-3.9c0 0 1 2 2 3.8 0.9 1.5 7.8 9.6 9.6 11.2 14.4 13.1 15.4 14.5 33.3 25.3 3.6 2.2 10.2 5.6 12.7 6.5 6.1 2.2 16.2 6.1 16.7 6.7 0.4 0.5 0.6 0.8 0.5 1.2-0.1 0.6-5.3 5.2-9.4 8.6-1.1 1-7.2 8.4-7.3 9-0.1 1.4 0.3 2.3 1.8 2.3 1.6 0 11.2-2.4 17-3.5 1.6-0.3 12.4-0.2 14.5 0.1 10 1.5 39.4 7.7 43.6 8.2 10.9 1.1 26.4 0.4 37.2-2.2 5.5-1.3 30.9-10 34-10.5 4.8-0.9 16.9-1.8 22.8-2.8 5.3-1 17.5-4.3 22-6.2 3.1-1.3 31.1-17.2 33.4-18.1 2.9-1.1 7.1-2.1 11.5-2.4 1-0.2 9.5-1.2 10.4-0.6 0.4 0.2 0.8 0.7 0.8 0.7 0 0-17 18.6-28.4 31.9-3.7 4.4-14.6 18.7-16 21.3-1.1 1.7-2 3.5 0.2 4 2.1 0.4 4.8-3.7 6.2-5.9 2.1-3.1 3.7-5.7 5.7-8.4 1.6-2.3 27.3-30 33.4-36 9.6-9.6 32.1-30.8 36-34 11.6-9.5 29-21.6 33.6-25.6 1.3-1.2 2.1-2.3 0.7-2.9-0.6-0.3-1.7-0.3-2.6-0.4zm-105.5 36.2c0 0 11.9-0.6 20-1.4 18.8-2 26.3-6.7 46.3-14.9 1.4-0.6 4.7-1.3 6.1-1.4 3-0.1 7.8 0.4 7.8 0.4 0 0-2.3 2.5-4.4 4.6-3.6 3.6-12.5 10.4-14.8 12.8l-1.5 1.6c-0.8 0.9-4.4 3.4-5.3 3.6-3.9 1.3-23 0.8-27.8 0.2-4.6-0.6-26.4-5.5-26.4-5.5z"/><path class="h" d="m449.4 891.3c0 0 39.9-8.4 69.4-15 36.6-8.1 58.3-13.5 87.7-20.2 3.6-0.8 10.1-2.8 11-3.5 0.4-0.2 1.4-1 1.5-2.1 0.1-0.4 0.1-0.5-0.1-1.3-14.1-41.8-37.9-111.8-42.1-125.7q-3.1-9.8-5.9-19.6c-0.2-0.7-0.3-0.8-1-1.1-4.6-1.9-12.3-5-13.5-5.9-2.3-1.7-6.6-5.8-6.6-5.8 0 0-22.4 5.7-27.2 6.5-3.1 0.5-16.7 1-25 1.3-9.1 0.3-25 2-33.2 4.5-5 1.5-24.8 9.7-26.9 10.2-2.2 0.5-3.2 0.4-5.3-0.4-4.6-1.7-11.8-5.8-18.3-8.4-2.6-1-17.4-4.9-21.4-5.6-7.1-1.2-13.7-2.1-22.3-2.1-16.1-0.1-19.2 1.5-31.8-0.6-8.1-1.5-21.6-4.6-21.6-4.6 0 0-2.9 4.4-5.1 6.9-0.9 0.9-3.8 3-5 3.6-14.8 7.2-15 7.5-19.7 26.5-5 19.9-31.6 117.5-31.9 119.7-0.2 2.8 0.2 2.9 3.4 4.2 2.3 1 15.9 4.4 23.5 6 17.7 3.6 136.6 31.3 138.1 31.3 4.7 0 5-1.6 10-7.6 1-1.1 4.2-3.9 4.9-4.1 0.3-0.2 1.6 0.4 2.1 0.9 3.3 2.8 12.3 12 12.3 12zm-167.2-54.8l35.6-139.2c0 0 30.5 4.4 35.7 4.7 6.2 0.4 11.8 0.1 17.7 0.2 23.8 0.4 38.5 6.3 62 17.1 0.7 0.3 0.8 0.3 1.5 0 17.8-8.8 25.6-12.2 44.4-14.8 5.1-0.7 10.6-1.1 16.1-1.2 18.5-0.2 24.3 0.7 40.7-3.4 4.8-1.2 11.4-3.1 11.4-3.1l2.9 6.3c1.4 3.1 37.3 109.7 39.2 116.4 2.2 7.4 4.5 15.7 4.5 15.7 0 0-4.8 2.8-8.6 4.9-3.4 1.8-11.8 5.5-14.9 6.5-3.8 1.1-20.2 4.7-23.5 5.1-4 0.4-44.8 0.8-49.4 1.3-20.8 2.2-36.9 9.4-60.4 19.6-0.8 0.3-0.9 0.3-1.6 0-30.8-15.4-48.4-23.5-79.4-21.8-12.8 0.8-19.1 2.2-29.1 1.1-11.7-1.2-24.3-4.6-35-10-4.2-2.2-9.8-5.4-9.8-5.4z"/><path class="b" d="m449.4 891.3c0 0 39.9-8.4 69.4-15 36.6-8.1 58.3-13.5 87.7-20.2 3.6-0.8 10.1-2.8 11-3.5 0.4-0.2 1.4-1 1.5-2.1 0.1-0.4 0.1-0.5-0.1-1.3-14.1-41.8-37.9-111.8-42.1-125.7q-3.1-9.8-5.9-19.6c-0.2-0.7-0.3-0.8-1-1.1-4.6-1.9-12.3-5-13.5-5.9-2.3-1.7-6.6-5.8-6.6-5.8 0 0-22.4 5.7-27.2 6.5-3.1 0.5-16.7 1-25 1.3-9.1 0.3-25 2-33.2 4.5-5 1.5-24.8 9.7-26.9 10.2-2.2 0.5-3.2 0.4-5.3-0.4-4.6-1.7-11.8-5.8-18.3-8.4-2.6-1-17.4-4.9-21.4-5.6-7.1-1.2-13.7-2.1-22.3-2.1-16.1-0.1-19.2 1.5-31.8-0.6-8.1-1.5-21.6-4.6-21.6-4.6 0 0-2.9 4.4-5.1 6.9-0.9 0.9-3.8 3-5 3.6-14.8 7.2-15 7.5-19.7 26.5-5 19.9-31.6 117.5-31.9 119.7-0.2 2.8 0.2 2.9 3.4 4.2 2.3 1 15.9 4.4 23.5 6 17.7 3.6 136.6 31.3 138.1 31.3 4.7 0 5-1.6 10-7.6 1-1.1 4.2-3.9 4.9-4.1 0.3-0.2 1.6 0.4 2.1 0.9 3.3 2.8 12.3 12 12.3 12zm-167.2-54.8l35.6-139.2c0 0 30.5 4.4 35.7 4.7 6.2 0.4 11.8 0.1 17.7 0.2 23.8 0.4 38.5 6.3 62 17.1 0.7 0.3 0.8 0.3 1.5 0 17.8-8.8 25.6-12.2 44.4-14.8 5.1-0.7 10.6-1.1 16.1-1.2 18.5-0.2 24.3 0.7 40.7-3.4 4.8-1.2 11.4-3.1 11.4-3.1l2.9 6.3c1.4 3.1 37.3 109.7 39.2 116.4 2.2 7.4 4.5 15.7 4.5 15.7 0 0-4.8 2.8-8.6 4.9-3.4 1.8-11.8 5.5-14.9 6.5-3.8 1.1-20.2 4.7-23.5 5.1-4 0.4-44.8 0.8-49.4 1.3-20.8 2.2-36.9 9.4-60.4 19.6-0.8 0.3-0.9 0.3-1.6 0-30.8-15.4-48.4-23.5-79.4-21.8-12.8 0.8-19.1 2.2-29.1 1.1-11.7-1.2-24.3-4.6-35-10-4.2-2.2-9.8-5.4-9.8-5.4z"/><path class="h" d="m722.2 647.2c-0.2 7.9-0.6 24.8-2.2 30.3-0.7 2.4-4.6 11.6-6 13.9-0.7 1.2-1.1 2-1.9 2.1-0.9 0.2-3.1 0-3.1 0 0 0-6.4 28.9-7.7 32.8-2.2 6.6-4.6 10.5-8.5 15.6-2.1 2.8-15.7 20-21.4 22.2-3.4 1.3-4.1-4.7-4.5-9.5-0.2-3.9-0.4-8.9-0.4-8.9 0 0-1 0.9-1.6 1.8-0.6 0.7-1.2 3.7-1.9 5.4-1.1 2.7-2.6 3.2-4.7 1.7-14.5-10-32-34.9-38.5-48.8-2.3-5.1-14.3-36.8-14.3-36.8 0 0-7 3.7-12.5 6.2-10 4.7-20.1 7.1-29.9 8.5-3.2 0.4-21.5 0.9-24.1 0.7-3.7-0.4-9.7-1.5-13.7-2.6-2.9-0.9-9.8-3.2-10-5.5-0.3-1.7 4.2-5.4 6.1-6.9 11.2-9.3 34.3-21.5 50-26.3 3.4-1 6.3-1.5 11.5-3.3 1.2-0.4 2.4-1 3.4-1.3q9.5 1.8 19.4 1.8c42.3 0 78.6-25.5 94-61.8 3.7 6 7.8 12.6 9.5 15.9 3.8 7.4 6.4 16.1 9.3 24.7 0.9 2.7 3.4 20 3.5 22.1zm-83.1-203.5q-8.9-3.1-18.5-4.5c0.1-0.9 0.2-2.6 0.3-4.2 0-1.7-2.7-18.2-3.4-20.3-1.8-5.7-4.1-12.2-5.7-18.7-5.5-21.2-6.5-46-1.2-65 2.5-8.9 7.1-23.1 7.1-23.1 0 0-31.5 32.2-33.2 34.6-4.1 5.4-6.6 10.1-9.5 13.7-1.1 1.3-2.8 3.1-4.1 2.9-1.9-0.4-1.9-2.3-1.2-3.5 0.9-1.5 26.2-31.3 32.7-38.4l7.9-8.6c4.9-5.4 35.2-35.5 42.1-41.8 3.6-3.3 38.1-31.5 39.8-32.4 0.3-0.2 0.7-0.4 1.2-0.4 2.1-0.5 4.4 0.4 4 1.3-0.2 0.6-3.1 3-7.7 6-2.3 1.5-30.9 25.7-34.2 28.9-9 8.9-19.1 18.6-28.6 27.9-0.5 0.6-0.6 0.7-0.7 0.9-0.2 0.3-0.2 0.5-0.2 0.7-0.5 2.7 4.2 7.8 5.2 9.2 1.8 2.5 4.7 7.9 6.6 11.8 8.5 16.7 12.3 29.1 14.1 48.6 0.2 3.4 0 24.1-0.5 27.7-0.4 4-3.1 17.7-4.1 20.4-2 6.3-6.3 18.1-7.2 21.6-0.3 1.6-0.7 3.4-1 4.7z"/><path class="b" d="m722.2 647.2c-0.2 7.9-0.6 24.8-2.2 30.3-0.7 2.4-4.6 11.6-6 13.9-0.7 1.2-1.1 2-1.9 2.1-0.9 0.2-3.1 0-3.1 0 0 0-6.4 28.9-7.7 32.8-2.2 6.6-4.6 10.5-8.5 15.6-2.1 2.8-15.7 20-21.4 22.2-3.4 1.3-4.1-4.7-4.5-9.5-0.2-3.9-0.4-8.9-0.4-8.9 0 0-1 0.9-1.6 1.8-0.6 0.7-1.2 3.7-1.9 5.4-1.1 2.7-2.6 3.2-4.7 1.7-14.5-10-32-34.9-38.5-48.8-2.3-5.1-14.3-36.8-14.3-36.8 0 0-7 3.7-12.5 6.2-10 4.7-20.1 7.1-29.9 8.5-3.2 0.4-21.5 0.9-24.1 0.7-3.7-0.4-9.7-1.5-13.7-2.6-2.9-0.9-9.8-3.2-10-5.5-0.3-1.7 4.2-5.4 6.1-6.9 11.2-9.3 34.3-21.5 50-26.3 3.4-1 6.3-1.5 11.5-3.3 1.2-0.4 2.4-1 3.4-1.3q9.5 1.8 19.4 1.8c42.3 0 78.6-25.5 94-61.8 3.7 6 7.8 12.6 9.5 15.9 3.8 7.4 6.4 16.1 9.3 24.7 0.9 2.7 3.4 20 3.5 22.1zm-83.1-203.5q-8.9-3.1-18.5-4.5c0.1-0.9 0.2-2.6 0.3-4.2 0-1.7-2.7-18.2-3.4-20.3-1.8-5.7-4.1-12.2-5.7-18.7-5.5-21.2-6.5-46-1.2-65 2.5-8.9 7.1-23.1 7.1-23.1 0 0-31.5 32.2-33.2 34.6-4.1 5.4-6.6 10.1-9.5 13.7-1.1 1.3-2.8 3.1-4.1 2.9-1.9-0.4-1.9-2.3-1.2-3.5 0.9-1.5 26.2-31.3 32.7-38.4l7.9-8.6c4.9-5.4 35.2-35.5 42.1-41.8 3.6-3.3 38.1-31.5 39.8-32.4 0.3-0.2 0.7-0.4 1.2-0.4 2.1-0.5 4.4 0.4 4 1.3-0.2 0.6-3.1 3-7.7 6-2.3 1.5-30.9 25.7-34.2 28.9-9 8.9-19.1 18.6-28.6 27.9-0.5 0.6-0.6 0.7-0.7 0.9-0.2 0.3-0.2 0.5-0.2 0.7-0.5 2.7 4.2 7.8 5.2 9.2 1.8 2.5 4.7 7.9 6.6 11.8 8.5 16.7 12.3 29.1 14.1 48.6 0.2 3.4 0 24.1-0.5 27.7-0.4 4-3.1 17.7-4.1 20.4-2 6.3-6.3 18.1-7.2 21.6-0.3 1.6-0.7 3.4-1 4.7z"/><path class="h" d="m545.3 392.4c0.3-1.9-2.5-8.7-3-9.3-0.6-0.7-11.2-6.6-11.6-7.2-0.8-1.1-1.4-2.5-1.4-2.5 0 0 8.2-6.3 8.7-7.1 0.8-1.1 0-2.6 0.2-4.6 0.1-0.6 1.6-3.5 1.9-3.6 0.5-0.3 2.1-0.4 2.8-0.2 2.2 0.5 6.5 2 7.2 1.9 0.9-0.1 8.9-4.8 10.6-5.4 0.8-0.2 1.2 0.2 1.6 1.1 0.6 1.1 1.6 8.8 2.1 9.8 0.2 0.5 3.4 1.6 8.5 4.7 3.1 1.9 7.3 5.1 7.3 5.1 0 0-1.4 2.6-2.5 3.7-0.5 0.6-3.1 1.7-4.6 2.5-2.6 1.3-4.4 3.6-4.6 5.7-0.4 4.5 0.7 5.4-1.4 6.9-2.6 1.9-4.3-1.2-10.7-2.1-1.4-0.1-3.3 0.5-4.8 1.8z"/><path class="b" d="m545.3 392.4c0.3-1.9-2.5-8.7-3-9.3-0.6-0.7-11.2-6.6-11.6-7.2-0.8-1.1-1.4-2.5-1.4-2.5 0 0 8.2-6.3 8.7-7.1 0.8-1.1 0-2.6 0.2-4.6 0.1-0.6 1.6-3.5 1.9-3.6 0.5-0.3 2.1-0.4 2.8-0.2 2.2 0.5 6.5 2 7.2 1.9 0.9-0.1 8.9-4.8 10.6-5.4 0.8-0.2 1.2 0.2 1.6 1.1 0.6 1.1 1.6 8.8 2.1 9.8 0.2 0.5 3.4 1.6 8.5 4.7 3.1 1.9 7.3 5.1 7.3 5.1 0 0-1.4 2.6-2.5 3.7-0.5 0.6-3.1 1.7-4.6 2.5-2.6 1.3-4.4 3.6-4.6 5.7-0.4 4.5 0.7 5.4-1.4 6.9-2.6 1.9-4.3-1.2-10.7-2.1-1.4-0.1-3.3 0.5-4.8 1.8z"/><path class="h" d="m671.4 308.4c-0.1 1.1 0 2.1 0.1 3.1 0.6 7 6.9 26.8 9.8 34 5.3 13 11.6 22.5 21.7 29.5 1.7 1.2 12.8 6.7 13.4 6.7 0.7-0.2 1.1-0.7 1.4-1.9 0.3-1-0.1-18.8-0.5-21.6-3.3-21.7-7.3-35.9-17.7-57-5-10.1-14.4-24.8-22.6-32.1-2.2-1.9-4.9-4.1-4.9-4.1l-1.1 37.9 0.4 3.9c0.1 0.7 0.1 0.9 0 1.6z"/><path class="b" d="m671.4 308.4c-0.1 1.1 0 2.1 0.1 3.1 0.6 7 6.9 26.8 9.8 34 5.3 13 11.6 22.5 21.7 29.5 1.7 1.2 12.8 6.7 13.4 6.7 0.7-0.2 1.1-0.7 1.4-1.9 0.3-1-0.1-18.8-0.5-21.6-3.3-21.7-7.3-35.9-17.7-57-5-10.1-14.4-24.8-22.6-32.1-2.2-1.9-4.9-4.1-4.9-4.1l-1.1 37.9 0.4 3.9c0.1 0.7 0.1 0.9 0 1.6z"/><path class="h" d="m671 415.8c1.8 26.3 9.9 50.4 22.7 72 1.3 2.2 2.6 4.4 4.2 6.3 1.2 1.5 1.7 1.5 2.5 0.2 2.9-4.6 7.9-26.3 8.5-31.7 0.8-7.3 1.1-26.6 0.6-32.5-0.3-2.6-3.9-19-5-22.4-4.1-12.6-9.4-24.6-17.1-33.5-1.5-1.8-9.6-9-10.3-9.1-0.9-0.3-1.4 0.6-1.9 1.9-1.9 5.2-3.7 30.9-3.9 34.5-0.3 5.1-0.5 10.7-0.3 14.3z"/><path class="b" d="m671 415.8c1.8 26.3 9.9 50.4 22.7 72 1.3 2.2 2.6 4.4 4.2 6.3 1.2 1.5 1.7 1.5 2.5 0.2 2.9-4.6 7.9-26.3 8.5-31.7 0.8-7.3 1.1-26.6 0.6-32.5-0.3-2.6-3.9-19-5-22.4-4.1-12.6-9.4-24.6-17.1-33.5-1.5-1.8-9.6-9-10.3-9.1-0.9-0.3-1.4 0.6-1.9 1.9-1.9 5.2-3.7 30.9-3.9 34.5-0.3 5.1-0.5 10.7-0.3 14.3z"/><path class="e" d="m301.9 70.3l-11.6 46.9-20.1-5 3.1-12.6 6.9 1.7 6.2-24.6 6.4-8.7-5.7-1.5 3.1-12.4 41.1 10.2c2.1 0.5 3.5 1.2 4.3 2 0.9 0.8 1.7 1.7 2.2 2.8 0.7 1.1 1.1 2.3 1.3 3.9 0.3 1.6 0.3 2.9 0 4.2l-12.3 49.1-13.1-3.3 11.7-46.9z"/><path class="e" d="m370.5 130l-14.1-1.2 4.2-48.1-8.2-0.7 1.1-12.9 18.2 1.6c1.1 0.1 1.8 0.3 2.2 0.5 0.5 0.2 0.8 0.7 1.2 1.4q0.6 1.1 0.4 3.7z"/><path class="e" d="m428.7 69.9q1.9 0 2.9 0.4 1.1 0.3 1.6 1.2 0.5 0.7 0.6 1.4c0.1 0.5 0.1 1 0.1 1.4v2.1 41.8h6.6v12.9h-48.9v-12.9h30v-35.4h-30v-12.9z"/><path class="e" d="m478.2 129.3l-14.2 1-3.3-48.2-8.2 0.6-0.9-12.9 18.2-1.3q1.6-0.1 2.3 0.2 0.6 0.1 1.3 1.2 0.8 1 1 3.5z"/><path class="e" d="m504.7 77.2l9.2 47.5-13.2 2.5-7.4-37.6 1.6-10.5-3.4 0.7-2.5-12.7 40.9-7.9q3.1-0.6 5.6 0.3c1.5 0.7 2.6 1.5 3.3 2.1 0.7 0.6 1.4 1.4 2.1 2.3 0.7 0.9 1.2 2.1 1.5 3.7l9.7 49.6-13.9 2.8-9.2-47.5z"/><path class="e" d="m586.6 55.8l-29.1 9.5-4-12.3 32.5-10.5c2.4-0.8 4.3-1 5.4-0.5q1.9 0.7 3.1 1.3c0.8 0.4 1.7 1.2 2.7 2.4 1 1.2 1.8 2.4 2.1 3.6l15.7 48.1-13.5 4.4z"/></svg>